<svg xmlns="http://www.w3.org/2000/svg" viewBox="0 0 440.46922 400.37208"><title>AC-VOL2</title><g id="planes"><path d="M150.6645,120.5738H115.7417v29.2944l34.9228-18.8062Zm168.5068,0H284.249V131.062l34.9223,18.8062Zm61.8526,33.5512H346.101v10.24509l34.9229,18.80671ZM174.88522,125.3907,114.8735,157.7075a3.2182,3.2182,0,0,1-1.8516.9981L93.9243,168.9893a3.25669,3.25669,0,0,1-.6797.3662l-39.8843,21.478a3.23939,3.23939,0,0,1-2.7163,1.4771l-.0225-.002L0,219.56889l7.269,27.5078,172.0474-44.0928C177.5981,177.22708,176.02,150.542,174.88522,125.3907ZM88.812,154.125H53.8896v29.0518L88.812,164.37008Zm295.47949,38.1836-.0225.002a3.23778,3.23778,0,0,1-2.71578-1.4771l-39.88482-21.478a3.25728,3.25728,0,0,1-.6797-.3662l-19.0971-10.2837a3.2183,3.2183,0,0,1-1.8521-.9981l-60.0127-32.3173c-1.1347,25.1508-2.7138,51.83689-4.43058,77.5937l172.0478,44.0928,7.269-27.5078Zm-146.1411,149.9849c.17182-1.8652,17.1567-187.6358,17.1567-282.88179C255.30709,33.2232,237.48579,0,217.45549,0c-20.02928,0-37.8506,33.2232-37.8506,59.4117,0,95.25,16.9859,281.01659,17.1578,282.88179a3.24623,3.24623,0,0,1-1.5552,3.0762l-50.5894,30.5317v19.9805l72.042-18.2154a3.26355,3.26355,0,0,1,1.5913,0l72.0435,18.2154v-19.9805l-50.5894-30.5317A3.24689,3.24689,0,0,1,238.15039,342.29349Z" fill="#3a64af"/></g></svg>