<svg xmlns="http://www.w3.org/2000/svg" viewBox="0 0 217.45417 189.11572"><title>AC-VOL4</title><g id="planes"><path d="M99.218,7.37893a19.09056,19.09056,0,0,1,4.31495-1.7317A54.72784,54.72784,0,0,0,88.80307,3.76583c-7.93913,0-14.20114,1.50088-16.911,2.62737,2.56739.66166,8.27123,1.41846,16.911,1.41846C92.96612,7.81166,96.44081,7.635,99.218,7.37893Zm1.01552,3.0559a16.07406,16.07406,0,0,0-7.85273,13.793V45.67393h32.16738V24.22782A16.076,16.076,0,0,0,116.695,10.43435c-.94886-.095-1.85573-.20076-2.6938-.32054a18.68234,18.68234,0,0,1-5.53709-1.39862,18.66019,18.66019,0,0,1-5.53612,1.39862C102.08965,10.23359,101.18259,10.33939,100.23349,10.43483Zm27.89-2.62317c8.64044,0,14.345-.7568,16.9127-1.41846-2.71035-1.12649-8.97284-2.62737-16.9127-2.62737a54.71444,54.71444,0,0,0-14.72791,1.88141,19.07511,19.07511,0,0,1,4.3149,1.73194C120.48784,7.63523,123.96114,7.81166,128.12346,7.81166ZM2.43365,48.81414V79.97356L90.607,87.424c.01582-.00212.02956-.00778.04514-.00919a1.54429,1.54429,0,0,1,.6361.06662l17.17582,1.4513,17.17228-1.45086a1.56467,1.56467,0,0,1,.64012-.06706c.01587.00141.02956.00707.04489.00919l88.17387-7.45042V48.81414ZM118.59908,170.88849a19.9307,19.9307,0,0,1-.6959,5.04244l35.39,4.27925V163.65633l-33.11527-8.34757ZM108.5964,92.07317q-.066.00566-.13231.00566c-.04393,0-.08809-.00189-.132-.00566L92.5674,90.74093l8.89486,79.908c.00518.05244.008.10532.008.15824,0,6.9253,4.80268,12.99245,6.9938,15.39948,2.19064-2.40582,6.99453-8.47321,6.99453-15.39948a1.54048,1.54048,0,0,1,.008-.15824l8.89466-79.908ZM96.75,155.301l-33.14386,8.35536v16.55384l35.41833-4.28278a19.94781,19.94781,0,0,1-.69469-5.0389Z" fill="#520c28"/></g></svg>