<svg xmlns="http://www.w3.org/2000/svg" viewBox="0 0 540.8495 369.71874"><title>ARPT_3</title><g id="Layer_1" data-name="Layer 1"><path d="M-211.70605-50.46527a5.10021,5.10021,0,0,0-5.1-5.1,5.10019,5.10019,0,0,0-5.1,5.1,5.10041,5.10041,0,0,0,5.1,5.101,5.10043,5.10043,0,0,0,5.1-5.101" transform="translate(227.18617 61.92488)" fill="none" stroke="#00d" stroke-linecap="round" stroke-linejoin="round" stroke-width="0.72"/><path d="M-209.42575-50.46527a7.38112,7.38112,0,0,0-7.38-7.38,7.38131,7.38131,0,0,0-7.381,7.38,7.38068,7.38068,0,0,0,7.381,7.38,7.38048,7.38048,0,0,0,7.38-7.38" transform="translate(227.18617 61.92488)" fill="none" stroke="#00d" stroke-linecap="round" stroke-linejoin="round" stroke-width="0.72"/><line x1="20.27992" y1="11.5201" x2="17.7599" y2="11.5201" fill="none" stroke="#000" stroke-linecap="round" stroke-linejoin="round" stroke-width="0.72"/><line x1="10.32002" y1="21.6002" x2="10.32002" y2="18.95921" fill="none" stroke="#00d" stroke-linecap="round" stroke-linejoin="round" stroke-width="0.72"/><line x1="0.36" y1="11.5201" x2="2.881" y2="11.5201" fill="none" stroke="#00d" stroke-linecap="round" stroke-linejoin="round" stroke-width="0.72"/><line x1="10.32002" y1="1.5601" x2="10.32002" y2="4.20011" fill="none" stroke="#00d" stroke-linecap="round" stroke-linejoin="round" stroke-width="0.72"/><path d="M-213.38574-50.46527a.66066.66066,0,0,0-.66-.66.66.66,0,0,0-.66.66.65936.65936,0,0,0,.66.66.66.66,0,0,0,.66-.66" transform="translate(227.18617 61.92488)" fill="none" stroke="#00d" stroke-linecap="round" stroke-linejoin="round" stroke-width="0.72"/><line x1="11.88051" y1="13.3199" x2="11.88051" y2="9.7199" fill="none" stroke="#00d" stroke-linecap="round" stroke-linejoin="round" stroke-width="0.72"/><line x1="11.88051" y1="11.5201" x2="6.8405" y2="11.5201" fill="none" stroke="#00d" stroke-linecap="round" stroke-linejoin="round" stroke-width="0.72"/><path d="M-218.92087-53.24368a3.66281,3.66281,0,0,0-1.424,2.793" transform="translate(227.18617 61.92488)" fill="none" stroke="#00d" stroke-linecap="round" stroke-linejoin="round" stroke-width="0.72"/><path d="M-220.34467-50.479a3.6609,3.6609,0,0,0,1.424,2.792" transform="translate(227.18617 61.92488)" fill="none" stroke="#00d" stroke-linecap="round" stroke-linejoin="round" stroke-width="0.72"/><polyline points="9 8.4 8.04 8.28 8.4 9.12 9 8.4" fill="none" stroke="#00d" stroke-linecap="round" stroke-linejoin="round" stroke-width="0.72"/><polyline points="9 14.64 8.04 14.76 8.4 13.919 9 14.64" fill="none" stroke="#00d" stroke-linecap="round" stroke-linejoin="round" stroke-width="0.72"/><path d="M-59.666-51.66458a7.38135,7.38135,0,0,0-7.38-7.381,7.38065,7.38065,0,0,0-7.38,7.381,7.38044,7.38044,0,0,0,7.38,7.38,7.38114,7.38114,0,0,0,7.38-7.38" transform="translate(227.18617 61.92488)" fill="none" stroke="#00d" stroke-linecap="round" stroke-linejoin="round" stroke-width="0.72"/><line x1="170.15984" y1="10.3199" x2="167.51982" y2="10.3199" fill="none" stroke="#000" stroke-linecap="round" stroke-linejoin="round" stroke-width="0.72"/><line x1="160.0797" y1="20.2799" x2="160.0797" y2="17.7599" fill="none" stroke="#00d" stroke-linecap="round" stroke-linejoin="round" stroke-width="0.72"/><line x1="150.1198" y1="10.3199" x2="152.64079" y2="10.3199" fill="none" stroke="#00d" stroke-linecap="round" stroke-linejoin="round" stroke-width="0.72"/><line x1="160.0797" y1="0.36" x2="160.0797" y2="2.88" fill="none" stroke="#00d" stroke-linecap="round" stroke-linejoin="round" stroke-width="0.72"/><path d="M-63.62595-51.66458a.66.66,0,0,0-.66-.66.66.66,0,0,0-.66.66.65977.65977,0,0,0,.66.659.65982.65982,0,0,0,.66-.659" transform="translate(227.18617 61.92488)" fill="none" stroke="#00d" stroke-linecap="round" stroke-linejoin="round" stroke-width="0.72"/><line x1="161.6403" y1="12.1197" x2="161.6403" y2="8.51971" fill="none" stroke="#00d" stroke-linecap="round" stroke-linejoin="round" stroke-width="0.72"/><line x1="161.6403" y1="10.3199" x2="156.60026" y2="10.3199" fill="none" stroke="#00d" stroke-linecap="round" stroke-linejoin="round" stroke-width="0.72"/><path d="M-69.041-54.44387a3.66441,3.66441,0,0,0-1.424,2.793" transform="translate(227.18617 61.92488)" fill="none" stroke="#00d" stroke-linecap="round" stroke-linejoin="round" stroke-width="0.72"/><path d="M-70.46487-51.67917a3.66454,3.66454,0,0,0,1.424,2.793" transform="translate(227.18617 61.92488)" fill="none" stroke="#00d" stroke-linecap="round" stroke-linejoin="round" stroke-width="0.72"/><polyline points="158.76 7.2 157.919 7.08 158.159 7.92 158.76 7.2" fill="none" stroke="#00d" stroke-linecap="round" stroke-linejoin="round" stroke-width="0.72"/><polyline points="158.76 13.44 157.919 13.56 158.159 12.6 158.76 13.44" fill="none" stroke="#00d" stroke-linecap="round" stroke-linejoin="round" stroke-width="0.72"/><path d="M-136.22656-51.42527a5.10021,5.10021,0,0,0-5.1-5.1,5.1,5.1,0,0,0-5.099,5.1,5.10019,5.10019,0,0,0,5.099,5.101,5.10043,5.10043,0,0,0,5.1-5.101" transform="translate(227.18617 61.92488)" fill="none" stroke="#00d" stroke-linecap="round" stroke-linejoin="round" stroke-width="0.72"/><path d="M-133.94626-51.42527a7.38047,7.38047,0,0,0-7.38-7.38,7.38045,7.38045,0,0,0-7.38,7.38,7.37982,7.37982,0,0,0,7.38,7.38,7.37984,7.37984,0,0,0,7.38-7.38" transform="translate(227.18617 61.92488)" fill="none" stroke="#00d" stroke-linecap="round" stroke-linejoin="round" stroke-width="0.72"/><path d="M-137.90625-51.42527a.66.66,0,0,0-.66-.66.66064.66064,0,0,0-.66.66.66.66,0,0,0,.66.66.65938.65938,0,0,0,.66-.66" transform="translate(227.18617 61.92488)" fill="none" stroke="#00d" stroke-linecap="round" stroke-linejoin="round" stroke-width="0.72"/><line x1="87.36" y1="12.2398" x2="87.36" y2="8.6398" fill="none" stroke="#00d" stroke-linecap="round" stroke-linejoin="round" stroke-width="0.72"/><line x1="87.36" y1="10.44" x2="82.31999" y2="10.44" fill="none" stroke="#00d" stroke-linecap="round" stroke-linejoin="round" stroke-width="0.72"/><path d="M-143.32126-54.32367a3.66281,3.66281,0,0,0-1.424,2.793" transform="translate(227.18617 61.92488)" fill="none" stroke="#00d" stroke-linecap="round" stroke-linejoin="round" stroke-width="0.72"/><path d="M-144.74506-51.55908a3.66448,3.66448,0,0,0,1.424,2.793" transform="translate(227.18617 61.92488)" fill="none" stroke="#00d" stroke-linecap="round" stroke-linejoin="round" stroke-width="0.72"/><polyline points="84.48 7.32 83.64 7.2 83.88 8.16 84.48 7.32" fill="none" stroke="#00d" stroke-linecap="round" stroke-linejoin="round" stroke-width="0.72"/><polyline points="84.48 13.56 83.64 13.68 83.88 12.839 84.48 13.56" fill="none" stroke="#00d" stroke-linecap="round" stroke-linejoin="round" stroke-width="0.72"/></g><g id="MIL"><path d="M267.19458,179.71379a81.6001,81.6001,0,1,0-81.61621,81.6001,81.63079,81.63079,0,0,0,81.61621-81.6001" transform="translate(227.18617 61.92488)" fill="none" stroke="#00d" stroke-miterlimit="10" stroke-width="20"/><path d="M303.66333,179.71379A118.08008,118.08008,0,1,0,185.58325,297.79387,118.07734,118.07734,0,0,0,303.66333,179.71379" transform="translate(227.18617 61.92488)" fill="none" stroke="#00d" stroke-miterlimit="10" stroke-width="20"/></g></svg>