<?xml version="1.0" encoding="utf-8"?>
<!-- Generator: Adobe Illustrator 15.0.0, SVG Export Plug-In . SVG Version: 6.00 Build 0)  -->
<!DOCTYPE svg PUBLIC "-//W3C//DTD SVG 1.1//EN" "http://www.w3.org/Graphics/SVG/1.1/DTD/svg11.dtd">
<svg version="1.1" xmlns="http://www.w3.org/2000/svg" xmlns:xlink="http://www.w3.org/1999/xlink" x="0px" y="0px" width="9.492px"
	 height="9.569px" viewBox="0 0 9.492 9.569" enable-background="new 0 0 9.492 9.569" xml:space="preserve">
<g id="Layer_1">
</g>
<g id="ANC_LEGEND">
	<text transform="matrix(1 0.0018 -0.0018 1 115.4272 22.127)" fill="#232020" font-family="'CenturyGothic'" font-size="7.5">TACAN</text>
	<text transform="matrix(1 0.0018 -0.0018 1 89.3599 10.4727)" fill="#232020" font-family="'CenturyGothic'" font-size="7.5">VORTAC</text>
	<g>
		<circle fill="#FFFFFF" cx="311.951" cy="13.117" r="6.657"/>
		<g>
			<path fill="#2E3192" d="M313.792,7.682c-0.133,0-0.238-0.107-0.238-0.238c0-0.135,0.107-0.238,0.238-0.236
				c0.133,0,0.24,0.104,0.239,0.234C314.031,7.574,313.924,7.682,313.792,7.682z"/>
			<path fill="#2E3192" d="M316.771,9.85c-0.133,0-0.238-0.107-0.238-0.236c0-0.133,0.107-0.24,0.238-0.238
				c0.133,0,0.24,0.104,0.238,0.238C317.01,9.742,316.903,9.85,316.771,9.85z"/>
			<path fill="#2E3192" d="M316.164,9.139c-0.132,0-0.237-0.109-0.237-0.238c0-0.135,0.105-0.24,0.238-0.24
				c0.131,0.002,0.236,0.107,0.237,0.238C316.404,9.031,316.297,9.139,316.164,9.139z"/>
			<circle fill="#2E3192" cx="313.774" cy="8.706" r="0.237"/>
			<circle fill="#2E3192" cx="313.736" cy="10.015" r="0.239"/>
			<path fill="#2E3192" d="M314.599,9.387c-0.133,0-0.24-0.105-0.238-0.24c-0.001-0.129,0.107-0.238,0.238-0.238
				c0.133,0,0.236,0.107,0.236,0.24C314.836,9.279,314.729,9.385,314.599,9.387z"/>
			<path fill="#2E3192" d="M315.32,9.98c-0.13,0.002-0.239-0.107-0.239-0.236c0.001-0.135,0.108-0.24,0.241-0.24
				c0.13,0.002,0.239,0.105,0.239,0.238C315.562,9.873,315.454,9.98,315.32,9.98z"/>
			<path fill="#2E3192" d="M315.454,8.529c-0.131,0-0.24-0.105-0.24-0.238c0.001-0.131,0.108-0.238,0.242-0.238
				c0.129,0.002,0.234,0.107,0.234,0.238C315.692,8.424,315.587,8.529,315.454,8.529z"/>
			<circle fill="#2E3192" cx="314.656" cy="7.802" r="0.239"/>
			<path fill="#2E3192" d="M317.833,12.424c-0.129,0-0.236-0.109-0.235-0.24c-0.001-0.133,0.107-0.238,0.235-0.24
				c0.133,0.002,0.24,0.109,0.239,0.24C318.072,12.316,317.965,12.422,317.833,12.424z"/>
			<circle fill="#2E3192" cx="317.617" cy="11.273" r="0.238"/>
			<path fill="#2E3192" d="M317.907,13.357c-0.13-0.002-0.236-0.109-0.236-0.238c-0.002-0.135,0.105-0.24,0.238-0.24
				c0.129-0.002,0.236,0.107,0.236,0.238C318.146,13.25,318.038,13.357,317.907,13.357z"/>
			<path fill="#2E3192" d="M317.833,14.287c-0.13,0-0.237-0.105-0.236-0.238c0-0.131,0.106-0.24,0.235-0.236
				c0.133,0,0.24,0.104,0.239,0.238C318.071,14.18,317.964,14.287,317.833,14.287z"/>
			<path fill="#2E3192" d="M316.626,12.424c-0.133,0.002-0.241-0.105-0.24-0.24c0-0.129,0.107-0.236,0.24-0.236
				c0.128,0,0.235,0.105,0.237,0.238C316.862,12.316,316.755,12.426,316.626,12.424z"/>
			<circle fill="#2E3192" cx="316.353" cy="11.291" r="0.238"/>
			<path fill="#2E3192" d="M314.475,10.824c-0.13-0.002-0.237-0.109-0.236-0.238c0-0.135,0.106-0.24,0.239-0.24
				c0.129-0.002,0.238,0.107,0.238,0.238C314.716,10.717,314.608,10.824,314.475,10.824z"/>
			<path fill="#2E3192" d="M314.15,12.439c-0.134,0-0.24-0.105-0.239-0.238c0-0.133,0.107-0.236,0.238-0.236
				c0.133-0.002,0.237,0.104,0.236,0.238C314.386,12.332,314.28,12.439,314.15,12.439z"/>
			<circle fill="#2E3192" cx="313.633" cy="11.427" r="0.237"/>
			<circle fill="#2E3192" stroke="#29256A" stroke-width="0.5" stroke-miterlimit="10" cx="311.948" cy="13.108" r="0.237"/>
			<circle fill="#2E3192" cx="315.402" cy="12.189" r="0.238"/>
			<path fill="#2E3192" d="M315.044,11.564c-0.133,0-0.236-0.105-0.236-0.24c0-0.129,0.105-0.236,0.236-0.236
				c0.133,0,0.238,0.105,0.238,0.238C315.282,11.457,315.175,11.566,315.044,11.564z"/>
			<circle fill="#2E3192" cx="316.715" cy="13.115" r="0.238"/>
			<path fill="#2E3192" d="M315.524,13.352c-0.134,0-0.24-0.104-0.24-0.238c0-0.129,0.108-0.236,0.238-0.238
				c0.133,0,0.237,0.109,0.237,0.24C315.759,13.246,315.654,13.354,315.524,13.352z"/>
			<path fill="#2E3192" d="M316.624,14.285c-0.133,0-0.24-0.105-0.238-0.24c-0.001-0.129,0.107-0.234,0.238-0.236
				c0.13,0,0.236,0.105,0.236,0.238C316.86,14.178,316.753,14.283,316.624,14.285z"/>
			<circle fill="#2E3192" cx="314.329" cy="13.113" r="0.238"/>
			<path fill="#2E3192" d="M314.147,14.264c-0.131,0.002-0.238-0.105-0.24-0.238c0.002-0.131,0.108-0.236,0.242-0.236
				c0.129,0,0.236,0.105,0.236,0.238C314.386,14.156,314.28,14.266,314.147,14.264z"/>
			<circle fill="#2E3192" cx="315.4" cy="14.041" r="0.238"/>
			<circle fill="#2E3192" cx="315.91" cy="15.766" r="0.238"/>
			<circle fill="#2E3192" cx="316.766" cy="16.621" r="0.24"/>
			<path fill="#2E3192" d="M314.473,15.881c-0.134,0-0.237-0.104-0.237-0.238c0-0.131,0.105-0.236,0.236-0.236
				c0.133,0,0.239,0.104,0.239,0.238C314.71,15.775,314.603,15.881,314.473,15.881z"/>
			<path fill="#2E3192" d="M313.731,16.451c-0.133,0-0.239-0.107-0.238-0.238c-0.001-0.131,0.107-0.24,0.238-0.24
				c0.133,0,0.238,0.107,0.238,0.242C313.97,16.344,313.862,16.449,313.731,16.451z"/>
			<path fill="#2E3192" d="M315.315,16.727c-0.133-0.002-0.239-0.107-0.238-0.238c0-0.133,0.107-0.24,0.238-0.24
				c0.133,0,0.238,0.109,0.239,0.238C315.554,16.621,315.446,16.727,315.315,16.727z"/>
			<circle fill="#2E3192" cx="313.767" cy="17.521" r="0.237"/>
			<path fill="#2E3192" d="M313.782,19.021c-0.13,0.002-0.238-0.105-0.239-0.238c0.001-0.131,0.108-0.236,0.241-0.238
				c0.131,0,0.237,0.109,0.236,0.238C314.022,18.916,313.915,19.023,313.782,19.021z"/>
			<circle fill="#2E3192" cx="314.647" cy="18.427" r="0.237"/>
			<circle fill="#2E3192" cx="315.446" cy="17.938" r="0.239"/>
			<path fill="#2E3192" d="M314.593,17.316c-0.131,0.002-0.24-0.104-0.24-0.234c0-0.133,0.107-0.24,0.24-0.24
				c0.132,0,0.235,0.109,0.238,0.238C314.829,17.215,314.726,17.318,314.593,17.316z"/>
			<path fill="#2E3192" d="M316.157,17.57c-0.133,0-0.237-0.109-0.236-0.238c-0.001-0.131,0.105-0.238,0.235-0.24
				c0.133,0,0.239,0.107,0.239,0.242C316.396,17.463,316.29,17.57,316.157,17.57z"/>
			<circle fill="#2E3192" cx="317.254" cy="15.824" r="0.238"/>
			<circle fill="#2E3192" cx="313.63" cy="14.801" r="0.238"/>
			<circle fill="#2E3192" cx="315.041" cy="14.903" r="0.237"/>
			<circle fill="#2E3192" cx="316.35" cy="14.942" r="0.239"/>
			<path fill="#2E3192" d="M317.614,15.199c-0.133-0.002-0.238-0.107-0.239-0.242c0.001-0.131,0.108-0.236,0.237-0.236
				c0.134,0,0.24,0.107,0.24,0.238S317.747,15.199,317.614,15.199z"/>
			<circle fill="#2E3192" cx="317.259" cy="10.409" r="0.237"/>
			<path fill="#2E3192" d="M315.914,10.703c-0.133,0-0.239-0.105-0.239-0.238c0-0.131,0.109-0.24,0.238-0.238
				c0.133,0,0.237,0.105,0.237,0.24C316.149,10.596,316.046,10.703,315.914,10.703z"/>
			<path fill="#2E3192" d="M312.881,7.463c-0.13,0-0.237-0.109-0.236-0.238c0-0.135,0.105-0.238,0.238-0.236
				c0.13-0.004,0.237,0.104,0.239,0.234C313.122,7.355,313.015,7.461,312.881,7.463z"/>
			<path fill="#2E3192" d="M311.948,7.387c-0.131,0.004-0.235-0.105-0.234-0.236c-0.002-0.135,0.103-0.24,0.234-0.238
				c0.134,0,0.241,0.105,0.24,0.24C312.188,7.281,312.081,7.387,311.948,7.387z"/>
			<path fill="#2E3192" d="M311.017,7.461c-0.133,0-0.239-0.107-0.238-0.238c0-0.135,0.107-0.24,0.238-0.24
				c0.133,0.002,0.238,0.109,0.239,0.238C311.255,7.355,311.147,7.461,311.017,7.461z"/>
			<path fill="#2E3192" d="M310.106,7.678c-0.131,0-0.236-0.104-0.236-0.238c0-0.133,0.104-0.236,0.238-0.236
				c0.131,0,0.236,0.104,0.236,0.238C310.345,7.57,310.237,7.678,310.106,7.678z"/>
			<path fill="#2E3192" d="M312.878,8.674c-0.133,0-0.236-0.109-0.236-0.238c0-0.135,0.105-0.24,0.236-0.24
				c0.133,0.002,0.239,0.107,0.238,0.238C313.116,8.566,313.009,8.674,312.878,8.674z"/>
			<path fill="#2E3192" d="M311.948,8.58c-0.131,0-0.238-0.107-0.238-0.238c0.001-0.131,0.105-0.238,0.238-0.236
				c0.131,0,0.24,0.104,0.24,0.238C312.188,8.473,312.081,8.58,311.948,8.58z"/>
			<path fill="#2E3192" d="M312.874,9.896c-0.131,0-0.239-0.109-0.24-0.238c0.002-0.133,0.109-0.24,0.242-0.238
				c0.128,0,0.236,0.105,0.236,0.238C313.112,9.789,313.005,9.896,312.874,9.896z"/>
			<path fill="#2E3192" d="M311.947,9.773c-0.134,0-0.237-0.107-0.237-0.238c0-0.133,0.105-0.24,0.236-0.238
				c0.133,0,0.239,0.105,0.239,0.238C312.185,9.668,312.08,9.773,311.947,9.773z"/>
			<path fill="#2E3192" d="M311.017,8.674c-0.131,0-0.237-0.109-0.239-0.242c0.001-0.131,0.108-0.236,0.241-0.236
				c0.13,0,0.239,0.105,0.239,0.238C311.257,8.564,311.149,8.672,311.017,8.674z"/>
			<path fill="#2E3192" d="M310.124,8.943c-0.131,0-0.24-0.107-0.24-0.24c0.002-0.131,0.109-0.236,0.242-0.236
				c0.128-0.002,0.234,0.104,0.234,0.238C310.359,8.834,310.255,8.943,310.124,8.943z"/>
			<path fill="#2E3192" d="M311.022,9.895c-0.134,0-0.239-0.107-0.24-0.238c0.002-0.133,0.109-0.24,0.239-0.24
				c0.132,0.002,0.239,0.109,0.239,0.238C311.261,9.789,311.153,9.895,311.022,9.895z"/>
			<circle fill="#2E3192" cx="310.159" cy="10.013" r="0.239"/>
			<circle fill="#2E3192" cx="308.445" cy="8.285" r="0.238"/>
			<circle fill="#2E3192" cx="308.576" cy="9.735" r="0.239"/>
			<path fill="#2E3192" d="M307.732,9.133c-0.133-0.002-0.237-0.109-0.237-0.238c0-0.135,0.105-0.24,0.236-0.24
				c0.133-0.002,0.238,0.107,0.239,0.238C307.97,9.025,307.862,9.131,307.732,9.133z"/>
			<path fill="#2E3192" d="M307.123,9.842c-0.133,0-0.237-0.107-0.236-0.238c-0.001-0.131,0.105-0.238,0.235-0.236
				c0.133-0.002,0.24,0.104,0.239,0.238C307.362,9.734,307.254,9.842,307.123,9.842z"/>
			<circle fill="#2E3192" cx="309.241" cy="7.797" r="0.238"/>
			<circle fill="#2E3192" cx="309.299" cy="9.145" r="0.238"/>
			<path fill="#2E3192" d="M312.858,11.146c-0.131,0.002-0.24-0.104-0.239-0.238c-0.001-0.129,0.107-0.238,0.241-0.238
				c0.131,0,0.239,0.109,0.238,0.242C313.099,11.041,312.991,11.148,312.858,11.146z"/>
			<circle fill="#2E3192" cx="311.946" cy="10.727" r="0.238"/>
			<path fill="#2E3192" d="M311.033,11.148c-0.133,0-0.237-0.109-0.236-0.238c0-0.135,0.105-0.24,0.235-0.242
				c0.133,0.002,0.24,0.109,0.24,0.24C311.272,11.041,311.164,11.146,311.033,11.148z"/>
			<circle fill="#2E3192" cx="309.743" cy="12.198" r="0.239"/>
			<path fill="#2E3192" d="M310.259,11.664c-0.133-0.002-0.237-0.109-0.238-0.238c0.002-0.135,0.106-0.24,0.239-0.24
				c0.132,0,0.237,0.107,0.237,0.238C310.496,11.557,310.392,11.664,310.259,11.664z"/>
			<circle fill="#2E3192" cx="309.742" cy="14.022" r="0.239"/>
			<path fill="#2E3192" d="M308.489,12.424c-0.132-0.002-0.238-0.107-0.238-0.242c0-0.129,0.108-0.236,0.238-0.236
				c0.133,0,0.237,0.107,0.237,0.238C308.726,12.314,308.621,12.422,308.489,12.424z"/>
			<circle fill="#2E3192" cx="308.849" cy="11.321" r="0.239"/>
			<path fill="#2E3192" d="M306.056,12.414c-0.131,0-0.238-0.107-0.238-0.242c0-0.129,0.107-0.234,0.24-0.236
				c0.131,0,0.236,0.109,0.237,0.24C306.294,12.305,306.188,12.414,306.056,12.414z"/>
			<circle fill="#2E3192" cx="306.275" cy="11.266" r="0.238"/>
			<circle fill="#2E3192" cx="307.267" cy="12.178" r="0.238"/>
			<path fill="#2E3192" d="M307.538,11.521c-0.131,0-0.239-0.107-0.238-0.238c0-0.133,0.107-0.24,0.24-0.24
				c0.131,0.002,0.236,0.109,0.239,0.238C307.779,11.416,307.672,11.521,307.538,11.521z"/>
			<circle fill="#2E3192" cx="308.367" cy="13.109" r="0.238"/>
			<path fill="#2E3192" d="M308.489,14.275c-0.133-0.002-0.238-0.107-0.239-0.242c-0.001-0.129,0.107-0.236,0.238-0.236
				c0.133,0,0.237,0.107,0.236,0.238C308.726,14.166,308.622,14.275,308.489,14.275z"/>
			<path fill="#2E3192" d="M307.174,13.348c-0.134,0-0.237-0.109-0.237-0.238c0.002-0.133,0.105-0.24,0.238-0.238
				c0.131,0,0.237,0.105,0.237,0.238C307.415,13.242,307.307,13.348,307.174,13.348z"/>
			<path fill="#2E3192" d="M305.981,13.346c-0.131,0-0.239-0.107-0.238-0.236c-0.001-0.133,0.107-0.24,0.24-0.238
				c0.131-0.002,0.24,0.104,0.238,0.238C306.223,13.238,306.115,13.346,305.981,13.346z"/>
			<circle fill="#2E3192" cx="306.055" cy="14.04" r="0.239"/>
			<circle fill="#2E3192" cx="307.266" cy="14.038" r="0.237"/>
			<path fill="#2E3192" d="M309.417,10.818c-0.133,0.002-0.239-0.105-0.239-0.24c0.001-0.129,0.108-0.234,0.238-0.236
				c0.133,0,0.24,0.105,0.239,0.238C309.655,10.711,309.548,10.82,309.417,10.818z"/>
			<path fill="#2E3192" d="M309.56,13.348c-0.133,0-0.237-0.104-0.236-0.238c0-0.129,0.105-0.24,0.235-0.238
				c0.133,0,0.24,0.107,0.239,0.24C309.798,13.242,309.69,13.348,309.56,13.348z"/>
			<path fill="#2E3192" d="M312.855,15.557c-0.133,0-0.239-0.109-0.238-0.238c-0.001-0.135,0.106-0.24,0.237-0.24
				c0.133,0.002,0.239,0.107,0.24,0.238C313.093,15.449,312.985,15.555,312.855,15.557z"/>
			<path fill="#2E3192" d="M311.942,15.734c-0.133,0-0.237-0.105-0.236-0.238c0-0.129,0.105-0.238,0.235-0.238
				c0.134,0,0.239,0.109,0.239,0.238C312.181,15.629,312.073,15.736,311.942,15.734z"/>
			<path fill="#2E3192" d="M312.869,16.807c-0.133-0.002-0.239-0.105-0.239-0.238c0-0.131,0.108-0.238,0.238-0.238
				c0.131,0.002,0.237,0.105,0.237,0.238C313.104,16.703,312.997,16.807,312.869,16.807z"/>
			<path fill="#2E3192" d="M311.941,16.93c-0.132-0.002-0.237-0.107-0.235-0.242c-0.001-0.129,0.105-0.236,0.234-0.236
				c0.134,0,0.24,0.109,0.24,0.238C312.181,16.82,312.073,16.928,311.941,16.93z"/>
			<circle fill="#2E3192" cx="311.029" cy="15.314" r="0.238"/>
			<circle fill="#2E3192" cx="311.016" cy="16.566" r="0.238"/>
			<path fill="#2E3192" d="M310.155,16.447c-0.131-0.002-0.24-0.107-0.24-0.238c0-0.133,0.107-0.24,0.24-0.24
				c0.129,0.004,0.237,0.107,0.236,0.24C310.392,16.342,310.284,16.447,310.155,16.447z"/>
			<circle fill="#2E3192" cx="312.871" cy="17.792" r="0.239"/>
			<path fill="#2E3192" d="M311.939,18.123c-0.131-0.002-0.237-0.109-0.237-0.242c0.001-0.131,0.105-0.236,0.238-0.238
				c0.131,0,0.24,0.107,0.24,0.24C312.181,18.012,312.072,18.121,311.939,18.123z"/>
			<circle fill="#2E3192" cx="312.872" cy="19.002" r="0.238"/>
			<path fill="#2E3192" d="M311.938,19.314c-0.131-0.002-0.236-0.109-0.236-0.238c0-0.135,0.105-0.24,0.238-0.24
				c0.131,0,0.24,0.107,0.239,0.238C312.18,19.207,312.072,19.314,311.938,19.314z"/>
			<circle fill="#2E3192" cx="311.011" cy="17.79" r="0.239"/>
			<path fill="#2E3192" d="M310.116,17.756c-0.131,0-0.236-0.107-0.239-0.238c-0.001-0.131,0.107-0.24,0.24-0.238
				c0.128,0,0.237,0.107,0.237,0.238C310.354,17.65,310.246,17.756,310.116,17.756z"/>
			<path fill="#2E3192" d="M311.005,19.24c-0.129-0.002-0.236-0.109-0.236-0.238c0-0.135,0.105-0.238,0.238-0.24
				c0.134,0,0.239,0.107,0.24,0.238C311.245,19.133,311.138,19.24,311.005,19.24z"/>
			<path fill="#2E3192" d="M310.099,19.021c-0.131-0.002-0.239-0.109-0.24-0.238c0.002-0.135,0.109-0.24,0.242-0.24
				c0.129-0.002,0.235,0.107,0.234,0.238C310.334,18.914,310.229,19.02,310.099,19.021z"/>
			<circle fill="#2E3192" cx="307.977" cy="15.759" r="0.239"/>
			<path fill="#2E3192" d="M308.569,16.723c-0.132,0-0.237-0.109-0.238-0.238c0.002-0.135,0.105-0.24,0.238-0.24
				c0.133,0.002,0.238,0.107,0.238,0.238C308.806,16.615,308.702,16.721,308.569,16.723z"/>
			<path fill="#2E3192" d="M307.118,16.854c-0.133-0.002-0.236-0.109-0.237-0.238c0.001-0.135,0.105-0.24,0.237-0.24
				c0.133-0.002,0.238,0.107,0.238,0.238C307.356,16.746,307.248,16.852,307.118,16.854z"/>
			<circle fill="#2E3192" cx="306.629" cy="15.814" r="0.238"/>
			<circle fill="#2E3192" cx="308.437" cy="17.933" r="0.239"/>
			<path fill="#2E3192" d="M307.726,17.564c-0.133-0.002-0.237-0.109-0.236-0.238c0-0.133,0.103-0.24,0.235-0.242
				c0.133,0,0.239,0.109,0.239,0.242C307.964,17.457,307.856,17.563,307.726,17.564z"/>
			<path fill="#2E3192" d="M309.411,15.879c-0.13,0-0.236-0.107-0.236-0.238c-0.002-0.131,0.105-0.238,0.238-0.236
				c0.133,0,0.239,0.104,0.24,0.234C309.651,15.771,309.544,15.877,309.411,15.879z"/>
			<circle fill="#2E3192" cx="309.292" cy="17.076" r="0.238"/>
			<path fill="#2E3192" d="M309.233,18.662c-0.134,0-0.238-0.109-0.238-0.238c0.001-0.135,0.105-0.24,0.236-0.24
				c0.133,0.002,0.239,0.107,0.24,0.238C309.47,18.555,309.362,18.662,309.233,18.662z"/>
			<path fill="#2E3192" d="M310.255,15.037c-0.131,0-0.234-0.109-0.237-0.24c0.001-0.131,0.105-0.238,0.238-0.238
				c0.132,0,0.24,0.105,0.239,0.24C310.495,14.928,310.388,15.035,310.255,15.037z"/>
			<path fill="#2E3192" d="M307.534,15.174c-0.129-0.002-0.236-0.107-0.238-0.242c0-0.129,0.107-0.236,0.24-0.236
				c0.131,0,0.24,0.107,0.24,0.238C307.775,15.064,307.667,15.174,307.534,15.174z"/>
			<path fill="#2E3192" d="M306.271,15.188c-0.13,0.002-0.237-0.107-0.236-0.238c0-0.131,0.108-0.238,0.235-0.236
				c0.133,0,0.24,0.105,0.24,0.236C306.511,15.082,306.403,15.188,306.271,15.188z"/>
			<circle fill="#2E3192" cx="308.844" cy="14.897" r="0.237"/>
			<path fill="#2E3192" d="M306.634,10.637c-0.131,0.002-0.24-0.104-0.24-0.238c0.001-0.129,0.108-0.234,0.242-0.236
				c0.129,0,0.238,0.107,0.238,0.24C306.874,10.531,306.767,10.639,306.634,10.637z"/>
			<circle fill="#2E3192" cx="307.98" cy="10.458" r="0.237"/>
		</g>
	</g>
	<g>
		
			<rect x="0.095" y="0.258" transform="matrix(1 0.0019 -0.0019 1 0.0093 -0.009)" opacity="0.75" fill="#FFFFFF" stroke="#FFFFFF" stroke-width="0.1764" stroke-linecap="round" stroke-linejoin="round" width="9.302" height="9.303"/>
		<path fill="#232020" stroke="#232020" stroke-width="0.5" stroke-linecap="round" stroke-linejoin="round" d="M5.026,4.907
			c0,0.156-0.124,0.281-0.28,0.281c-0.153,0-0.278-0.125-0.278-0.281c0-0.152,0.125-0.277,0.278-0.277
			C4.902,4.63,5.026,4.755,5.026,4.907z"/>
	</g>
	<rect x="0.57" y="0.718" fill="none" stroke="#242224" stroke-width="0.5" width="8.354" height="8.385"/>
</g>
<g id="LEGEND">
	<g id="NAVAID_2_">
		<g id="MTEXT_5_">
			<text transform="matrix(1 0 0 1 15.9692 -53.8892)"><tspan x="0" y="0" font-family="'ArialMT'" font-size="6.3611">Compas Rose </tspan><tspan x="-11.671" y="7.634" font-family="'ArialMT'" font-size="6.3611">with True and Variation</tspan><tspan x="-0.531" y="15.267" font-family="'ArialMT'" font-size="6.3611">Magnetic North</tspan><tspan x="8.836" y="22.9" font-family="'ArialMT'" font-size="6.3611">Indicator</tspan></text>
		</g>
		<g id="MTEXT_3_">
			<text transform="matrix(1 0 0 1 332.3936 -2.1255)" font-family="'ArialMT'" font-size="8.3989">LF/MF NDB or</text>
			<text transform="matrix(1 0 0 1 332.3828 7.3906)" font-family="'ArialMT'" font-size="8.3989">Marine Radio Beacon</text>
		</g>
		<g id="MTEXT_2_">
			<text transform="matrix(1 0 0 1 189.5469 16.9297)" font-family="'ArialMT'" font-size="8.3989">VOR</text>
		</g>
		<g id="MTEXT_1_">
			<text transform="matrix(1 0 0 1 248.4248 17.0391)" font-family="'ArialMT'" font-size="8.3989">VOR/DME</text>
		</g>
		<g id="MTEXT_6_">
			<text transform="matrix(1 0 0 1 248.4248 52.75)" font-family="'ArialMT'" font-size="8.3989">DME</text>
		</g>
	</g>
</g>
</svg>
