<?xml version="1.0" encoding="utf-8"?>
<!-- Generator: Adobe Illustrator 15.0.0, SVG Export Plug-In . SVG Version: 6.00 Build 0)  -->
<!DOCTYPE svg PUBLIC "-//W3C//DTD SVG 1.1//EN" "http://www.w3.org/Graphics/SVG/1.1/DTD/svg11.dtd">
<svg version="1.1" xmlns="http://www.w3.org/2000/svg" xmlns:xlink="http://www.w3.org/1999/xlink" x="0px" y="0px"
	 width="323.333px" height="312px" viewBox="0 0 323.333 312" enable-background="new 0 0 323.333 312" xml:space="preserve">
<g id="Layer_1">
	<polygon fill="none" stroke="#231F20" stroke-width="10" stroke-miterlimit="10" points="-2312.924,1501.152 -2388.041,1631.256 
		-2312.924,1761.36 -2162.694,1761.36 -2087.578,1631.256 -2162.694,1501.152 	"/>
	<path fill="#231F20" d="M-2248.438,1631.256c0-5.871,4.759-10.629,10.629-10.629s10.629,4.758,10.629,10.629
		s-4.759,10.629-10.629,10.629S-2248.438,1637.127-2248.438,1631.256"/>
	<circle fill="none" stroke="#231F20" stroke-width="5" stroke-miterlimit="10" cx="-2237.809" cy="1631.256" r="10.629"/>
	<path fill="none" stroke="#2E3192" stroke-width="10" stroke-linecap="round" stroke-linejoin="round" stroke-miterlimit="10" d="
		M-977.713,1102.935c-10.023,0-18.158,8.136-18.158,18.159c0,10.024,8.135,18.158,18.158,18.158
		c10.037,0,18.158-8.134,18.158-18.158C-959.555,1111.07-967.676,1102.935-977.713,1102.935"/>
	
		<line fill="none" stroke="#2E3192" stroke-width="10" stroke-linecap="round" stroke-linejoin="round" stroke-miterlimit="10" x1="-929.546" y1="1151.886" x2="-1025.88" y2="1151.886"/>
	
		<line fill="none" stroke="#2E3192" stroke-width="10" stroke-linecap="round" stroke-linejoin="round" stroke-miterlimit="10" x1="-978.497" y1="1151.886" x2="-978.497" y2="1289.28"/>
	<path fill="none" stroke="#2E3192" stroke-width="10" stroke-linecap="round" stroke-linejoin="round" stroke-miterlimit="10" d="
		M-1054.295,1249.261c18.082,23.453,45.727,37.552,75.31,38.387"/>
	<path fill="none" stroke="#2E3192" stroke-width="10" stroke-linecap="round" stroke-linejoin="round" stroke-miterlimit="10" d="
		M-978.021,1287.66c29.596-0.86,57.239-14.958,75.31-38.386"/>
	
		<polyline fill="none" stroke="#2E3192" stroke-width="10" stroke-linecap="round" stroke-linejoin="round" stroke-miterlimit="10" points="
		-1062.197,1230.845 -1065.359,1256.109 -1041.674,1246.639 -1062.197,1230.845 	"/>
	
		<polyline fill="none" stroke="#2E3192" stroke-width="10" stroke-linecap="round" stroke-linejoin="round" stroke-miterlimit="10" points="
		-893.228,1230.845 -890.065,1256.109 -913.75,1246.639 -893.228,1230.845 	"/>
	
		<polyline fill="none" stroke="#063B60" stroke-width="10" stroke-linecap="round" stroke-linejoin="round" stroke-miterlimit="10" points="
		-308.606,366.377 -275.559,286.102 -245.331,366.377 	"/>
	<polygon fill="#545454" points="-272.723,284.203 -275.559,282.32 -277.441,284.203 	"/>
	<polygon fill="none" stroke="#545454" stroke-width="10" stroke-linecap="round" stroke-miterlimit="10" points="-275.559,282.32 
		-277.441,284.203 -272.723,284.203 	"/>
	<polygon fill="#545454" points="-274.613,288.938 -275.566,286.094 -276.496,288.938 	"/>
	<polygon fill="none" stroke="#545454" stroke-width="10" stroke-linecap="round" stroke-miterlimit="10" points="-275.559,286.102 
		-276.496,288.93 -274.613,288.93 	"/>
	<path fill="#545454" d="M-277.441,284.211l5.664,1.883l-0.945-1.883H-277.441z M-271.777,286.094l-5.664-1.883l-1.883,1.883
		H-271.777z"/>
	<path fill="none" stroke="#545454" stroke-width="10" stroke-linecap="round" stroke-miterlimit="10" d="M-271.777,286.102
		l-5.664-1.891h4.719L-271.777,286.102z M-279.332,286.102h7.555l-5.664-1.891L-279.332,286.102z"/>
	<path fill="#545454" d="M-276.496,289.883v-0.945h-1.891L-276.496,289.883z M-278.387,288.938h1.891l-2.836-2.844L-278.387,288.938
		z M-279.332,286.094l2.836,2.844l0.938-2.844H-279.332z"/>
	<path fill="none" stroke="#545454" stroke-width="10" stroke-linecap="round" stroke-miterlimit="10" d="M-276.496,288.938
		l-2.836-2.836h3.773L-276.496,288.938z M-278.387,288.938h1.891l-2.836-2.836L-278.387,288.938z M-276.496,289.875l-1.891-0.938
		h1.891V289.875z"/>
	<path fill="#545454" d="M-274.605,288.938h2.828l-3.781-2.844L-274.605,288.938z M-275.559,286.094l3.781,2.844v-2.844H-275.559z"
		/>
	<path fill="none" stroke="#545454" stroke-width="10" stroke-linecap="round" stroke-miterlimit="10" d="M-271.777,288.93
		l-3.781-2.828h3.781V288.93z M-274.613,288.93h2.836l-3.781-2.828L-274.613,288.93z"/>
	<path fill="#545454" d="M-274.613,288.938h-1.883H-274.613z M-274.613,288.938h-1.883H-274.613z"/>
	<path fill="none" stroke="#545454" stroke-width="10" stroke-linecap="round" stroke-miterlimit="10" d="M-274.613,288.93
		L-274.613,288.93h-1.883H-274.613z M-276.496,288.93h1.883H-276.496z"/>
	<path fill="#545454" d="M-276.496,288.938h-1.891H-276.496z M-276.496,288.938h-1.891H-276.496z"/>
	<path fill="none" stroke="#545454" stroke-width="10" stroke-linecap="round" stroke-miterlimit="10" d="M-276.496,288.93
		L-276.496,288.93h-1.891H-276.496z M-278.387,288.93h1.891H-278.387z"/>
	<path fill="#545454" d="M-273.668,289.875l1.891-0.945h-2.836L-273.668,289.875z M-273.668,289.875l-0.945-0.945L-273.668,289.875z
		"/>
	<path fill="none" stroke="#545454" stroke-width="10" stroke-linecap="round" stroke-miterlimit="10" d="M-273.668,289.875
		L-273.668,289.875z M-274.613,288.93l0.945,0.945L-274.613,288.93z M-271.777,288.93h-2.836l0.945,0.945L-271.777,288.93z"/>
	<path fill="#545454" d="M-275.559,290.82l1.891-0.938h-2.828L-275.559,290.82z M-276.496,289.883h2.828l-2.828-0.945V289.883z
		 M-276.496,288.938l2.828,0.945l-0.945-0.945H-276.496z"/>
	<path fill="none" stroke="#545454" stroke-width="10" stroke-linecap="round" stroke-miterlimit="10" d="M-273.668,289.883
		l-2.828-0.945h1.883L-273.668,289.883z M-276.496,289.883h2.828l-2.828-0.945V289.883z M-275.559,290.82l-0.938-0.938h2.828
		L-275.559,290.82z"/>
	<path fill="#545454" d="M-273.668,289.875h-2.828H-273.668z M-273.668,289.875h-2.828H-273.668z"/>
	<path fill="none" stroke="#545454" stroke-width="10" stroke-linecap="round" stroke-miterlimit="10" d="M-273.668,289.875
		L-273.668,289.875h-2.828H-273.668z M-276.496,289.875h2.828H-276.496z"/>
	<polygon fill="#545454" points="-272.723,352.205 -275.559,351.268 -278.387,352.205 	"/>
	<polygon fill="none" stroke="#545454" stroke-width="10" stroke-linecap="round" stroke-miterlimit="10" points="-275.559,351.26 
		-278.387,352.205 -272.723,352.205 	"/>
	<path fill="#545454" d="M-278.387,352.213l6.609,2.82l-0.945-2.82H-278.387z M-271.777,355.033l-6.609-2.82l-0.938,2.82H-271.777z"
		/>
	<path fill="none" stroke="#545454" stroke-width="10" stroke-linecap="round" stroke-miterlimit="10" d="M-271.777,355.033
		l-6.609-2.82h5.664L-271.777,355.033z M-279.332,355.033h7.555l-6.609-2.82L-279.332,355.033z"/>
	<path fill="#545454" d="M-275.559,358.822l2.836-0.945h-5.664L-275.559,358.822z M-278.387,357.877h5.664l-6.609-2.844
		L-278.387,357.877z"/>
	<path fill="none" stroke="#545454" stroke-width="10" stroke-linecap="round" stroke-miterlimit="10" d="M-278.387,357.869h5.664
		l-2.836,0.945L-278.387,357.869z M-279.332,355.033l0.945,2.836h5.664L-279.332,355.033z"/>
	<polygon fill="#545454" points="-272.723,357.877 -271.777,355.033 -279.332,355.033 	"/>
	<polygon fill="none" stroke="#545454" stroke-width="10" stroke-linecap="round" stroke-miterlimit="10" points="-279.332,355.033 
		-271.777,355.033 -272.723,357.869 	"/>
	<g>
		<path fill="none" stroke="#063B60" stroke-width="10" stroke-linecap="round" stroke-linejoin="round" stroke-miterlimit="10" d="
			M-276.027,350.322c-2.344,0-4.25,1.891-4.25,4.242s1.906,4.25,4.25,4.25s4.25-1.898,4.25-4.25S-273.684,350.322-276.027,350.322"
			/>
	</g>
	
		<polyline fill="none" stroke="#063B60" stroke-width="10" stroke-linecap="round" stroke-linejoin="round" stroke-miterlimit="10" points="
		-314.278,679.909 -280.277,599.641 -250.058,679.909 	"/>
	
		<polyline fill="none" stroke="#063B60" stroke-width="10" stroke-linecap="round" stroke-linejoin="round" stroke-miterlimit="10" points="
		-336.943,1026.504 -302.942,946.236 -273.668,1026.504 	"/>
	
		<polyline fill="none" stroke="#063B60" stroke-width="10" stroke-linecap="round" stroke-linejoin="round" stroke-miterlimit="10" points="
		-294.441,1026.504 -260.441,946.236 -231.167,1026.504 	"/>
	<polygon fill="#545454" points="-283.113,666.689 -285.941,667.635 -280.277,667.635 	"/>
	<polygon fill="none" stroke="#545454" stroke-width="10" stroke-linecap="round" stroke-miterlimit="10" points="-283.113,666.689 
		-285.941,667.635 -280.277,667.635 	"/>
	<path fill="#545454" d="M-279.332,670.471l-6.609-2.828h5.664L-279.332,670.471z M-286.887,670.471h7.555l-6.609-2.828
		L-286.887,670.471z"/>
	<path fill="none" stroke="#545454" stroke-width="10" stroke-linecap="round" stroke-miterlimit="10" d="M-279.332,670.471
		l-6.609-2.828h5.664L-279.332,670.471z M-286.887,670.471h7.555l-6.609-2.828L-286.887,670.471z"/>
	<path fill="#545454" d="M-285.941,673.299h5.664l-2.844,0.945L-285.941,673.299z M-286.887,670.471l0.945,2.828h5.664
		L-286.887,670.471z"/>
	<path fill="none" stroke="#545454" stroke-width="10" stroke-linecap="round" stroke-miterlimit="10" d="M-285.941,673.299h5.664
		l-2.844,0.945L-285.941,673.299z M-286.887,670.471l0.945,2.828h5.664L-286.887,670.471z"/>
	<polygon fill="#545454" points="-286.887,670.471 -279.332,670.471 -280.277,673.299 	"/>
	<polygon fill="none" stroke="#545454" stroke-width="10" stroke-linecap="round" stroke-miterlimit="10" points="-286.887,670.471 
		-279.332,670.471 -280.277,673.299 	"/>
	<path fill="none" stroke="#063B60" stroke-width="10" stroke-linecap="round" stroke-linejoin="round" stroke-miterlimit="10" d="
		M-283.582,665.752c-2.344,0-4.25,1.891-4.25,4.242c0,2.353,1.906,4.25,4.25,4.25s4.25-1.897,4.25-4.25
		C-279.332,667.643-281.238,665.752-283.582,665.752"/>
	<polygon fill="#545454" points="-260.441,1012.34 -262.332,1013.285 -259.503,1013.285 	"/>
	<polygon fill="none" stroke="#545454" stroke-width="10" stroke-linecap="round" stroke-miterlimit="10" points="-260.441,1012.34 
		-262.332,1013.285 -259.503,1013.285 	"/>
	<polygon fill="#545454" points="-303.888,1013.293 -304.833,1013.293 -301.997,1013.293 	"/>
	<polygon fill="none" stroke="#545454" stroke-width="10" stroke-linecap="round" stroke-miterlimit="10" points="
		-303.888,1013.293 -304.833,1013.293 -301.997,1013.293 	"/>
	<path fill="#545454" d="M-258.558,1013.293h-3.774h2.821H-258.558z M-263.277,1013.293h4.72h-3.774H-263.277z"/>
	<path fill="none" stroke="#545454" stroke-width="10" stroke-linecap="round" stroke-miterlimit="10" d="M-258.558,1013.293h-3.774
		h2.821H-258.558z M-263.277,1013.293h4.72h-3.774H-263.277z"/>
	<path fill="#545454" d="M-301.052,1014.238l-3.781-0.945h2.836L-301.052,1014.238z M-306.724,1014.238h5.672l-3.781-0.945
		L-306.724,1014.238z"/>
	<path fill="none" stroke="#545454" stroke-width="10" stroke-linecap="round" stroke-miterlimit="10" d="M-301.052,1014.238
		l-3.781-0.945h2.836L-301.052,1014.238z M-306.724,1014.238h5.672l-3.781-0.945L-306.724,1014.238z"/>
	<path fill="#545454" d="M-256.667,1016.113l-6.61-2.82h4.72L-256.667,1016.113z M-264.223,1016.113h7.556l-6.61-2.82
		L-264.223,1016.113z"/>
	<path fill="none" stroke="#545454" stroke-width="10" stroke-linecap="round" stroke-miterlimit="10" d="M-256.667,1016.113
		l-6.61-2.82h4.72L-256.667,1016.113z M-264.223,1016.113h7.556l-6.61-2.82L-264.223,1016.113z"/>
	<path fill="#545454" d="M-300.106,1017.066l-6.617-2.828h5.672L-300.106,1017.066z M-307.661,1017.066h7.555l-6.617-2.828
		L-307.661,1017.066z"/>
	<path fill="none" stroke="#545454" stroke-width="10" stroke-linecap="round" stroke-miterlimit="10" d="M-300.106,1017.066
		l-6.617-2.828h5.672L-300.106,1017.066z M-307.661,1017.066h7.555l-6.617-2.828L-307.661,1017.066z"/>
	<path fill="#545454" d="M-258.558,1018.949l-5.665-2.828h7.556L-258.558,1018.949z M-263.277,1018.949h4.72l-5.665-2.828
		L-263.277,1018.949z"/>
	<path fill="none" stroke="#545454" stroke-width="10" stroke-linecap="round" stroke-miterlimit="10" d="M-258.558,1018.949
		l-5.665-2.828h7.556L-258.558,1018.949z M-263.277,1018.949h4.72l-5.665-2.828L-263.277,1018.949z"/>
	<path fill="#545454" d="M-262.332,1018.949h2.821l-0.931,0.945L-262.332,1018.949z M-263.277,1018.949h0.945h2.821H-263.277z"/>
	<path fill="none" stroke="#545454" stroke-width="10" stroke-linecap="round" stroke-miterlimit="10" d="M-262.332,1018.949h2.821
		l-0.931,0.945L-262.332,1018.949z M-263.277,1018.949h0.945h2.821H-263.277z"/>
	<polygon fill="#545454" points="-263.277,1018.949 -258.558,1018.949 -259.511,1018.949 	"/>
	<polygon fill="none" stroke="#545454" stroke-width="10" stroke-linecap="round" stroke-miterlimit="10" points="
		-263.277,1018.949 -258.558,1018.949 -259.511,1018.949 	"/>
	<path fill="#545454" d="M-301.052,1018.949l-6.609-1.883h7.555L-301.052,1018.949z M-306.724,1018.949h5.672l-6.609-1.883
		L-306.724,1018.949z"/>
	<path fill="none" stroke="#545454" stroke-width="10" stroke-linecap="round" stroke-miterlimit="10" d="M-301.052,1018.949
		l-6.609-1.883h7.555L-301.052,1018.949z M-306.724,1018.949h5.672l-6.609-1.883L-306.724,1018.949z"/>
	<path fill="#545454" d="M-304.833,1019.895h2.836l-1.891,0.945L-304.833,1019.895z M-306.724,1018.949l1.891,0.945h2.836
		L-306.724,1018.949z"/>
	<path fill="none" stroke="#545454" stroke-width="10" stroke-linecap="round" stroke-miterlimit="10" d="M-304.833,1019.895h2.836
		l-1.891,0.945L-304.833,1019.895z M-306.724,1018.949l1.891,0.945h2.836L-306.724,1018.949z"/>
	<polygon fill="#545454" points="-306.724,1018.949 -301.052,1018.949 -301.997,1019.895 	"/>
	<polygon fill="none" stroke="#545454" stroke-width="10" stroke-linecap="round" stroke-miterlimit="10" points="
		-306.724,1018.949 -301.052,1018.949 -301.997,1019.895 	"/>
	<path fill="none" stroke="#063B60" stroke-width="10" stroke-linecap="round" stroke-linejoin="round" stroke-miterlimit="10" d="
		M-304.356,1012.34c-2.352,0-4.25,1.898-4.25,4.25s1.898,4.25,4.25,4.25c2.345,0,4.25-1.898,4.25-4.25
		S-302.012,1012.34-304.356,1012.34"/>
	<path fill="none" stroke="#063B60" stroke-width="10" stroke-linecap="round" stroke-linejoin="round" stroke-miterlimit="10" d="
		M-260.917,1011.395c-2.345,0-4.251,1.898-4.251,4.25s1.906,4.25,4.251,4.25c2.352,0,4.25-1.898,4.25-4.25
		S-258.565,1011.395-260.917,1011.395"/>
	
		<polyline fill="none" stroke="#063B60" stroke-width="10" stroke-linecap="round" stroke-linejoin="round" stroke-miterlimit="10" points="
		-335.052,1332.488 -301.052,1252.221 -271.777,1332.488 	"/>
	
		<polyline fill="none" stroke="#063B60" stroke-width="10" stroke-linecap="round" stroke-linejoin="round" stroke-miterlimit="10" points="
		-292.551,1332.488 -258.558,1252.221 -229.276,1332.488 	"/>
	<polygon fill="#545454" points="-259.503,1318.324 -260.441,1318.324 -257.612,1318.324 	"/>
	<polygon fill="none" stroke="#545454" stroke-width="10" stroke-linecap="round" stroke-miterlimit="10" points="
		-259.503,1318.324 -260.441,1318.324 -257.612,1318.324 	"/>
	<polygon fill="#545454" points="-301.997,1318.324 -302.942,1319.27 -301.052,1319.27 	"/>
	<polygon fill="none" stroke="#545454" stroke-width="10" stroke-linecap="round" stroke-miterlimit="10" points="
		-301.997,1318.324 -302.942,1319.27 -301.052,1319.27 	"/>
	<path fill="#545454" d="M-256.667,1319.27l-3.774-0.938h2.829L-256.667,1319.27z M-262.332,1319.27h5.665l-3.774-0.938
		L-262.332,1319.27z"/>
	<path fill="none" stroke="#545454" stroke-width="10" stroke-linecap="round" stroke-miterlimit="10" d="M-256.667,1319.27
		l-3.774-0.938h2.829L-256.667,1319.27z M-262.332,1319.27h5.665l-3.774-0.938L-262.332,1319.27z"/>
	<path fill="#545454" d="M-299.168,1320.223l-3.774-0.945h1.891L-299.168,1320.223z M-304.833,1320.223h5.665l-3.774-0.945
		L-304.833,1320.223z"/>
	<path fill="none" stroke="#545454" stroke-width="10" stroke-linecap="round" stroke-miterlimit="10" d="M-299.168,1320.223
		l-3.774-0.945h1.891L-299.168,1320.223z M-304.833,1320.223h5.665l-3.774-0.945L-304.833,1320.223z"/>
	<path fill="#545454" d="M-255.722,1322.098l-6.61-2.82h5.665L-255.722,1322.098z M-263.277,1322.098h7.556l-6.61-2.82
		L-263.277,1322.098z"/>
	<path fill="none" stroke="#545454" stroke-width="10" stroke-linecap="round" stroke-miterlimit="10" d="M-255.722,1322.098
		l-6.61-2.82h5.665L-255.722,1322.098z M-263.277,1322.098h7.556l-6.61-2.82L-263.277,1322.098z"/>
	<path fill="#545454" d="M-298.223,1322.098l-6.61-1.875h5.665L-298.223,1322.098z M-305.778,1322.098h7.556l-6.61-1.875
		L-305.778,1322.098z"/>
	<path fill="none" stroke="#545454" stroke-width="10" stroke-linecap="round" stroke-miterlimit="10" d="M-298.223,1322.098
		l-6.61-1.875h5.665L-298.223,1322.098z M-305.778,1322.098h7.556l-6.61-1.875L-305.778,1322.098z"/>
	<path fill="#545454" d="M-256.667,1324.941l-6.61-2.836h7.556L-256.667,1324.941z M-262.332,1324.941h5.665l-6.61-2.836
		L-262.332,1324.941z"/>
	<path fill="none" stroke="#545454" stroke-width="10" stroke-linecap="round" stroke-miterlimit="10" d="M-256.667,1324.941
		l-6.61-2.836h7.556L-256.667,1324.941z M-262.332,1324.941h5.665l-6.61-2.836L-262.332,1324.941z"/>
	<path fill="#545454" d="M-260.441,1324.941h2.829l-1.891,0.938L-260.441,1324.941z M-262.332,1324.941h1.891h2.829H-262.332z"/>
	<path fill="none" stroke="#545454" stroke-width="10" stroke-linecap="round" stroke-miterlimit="10" d="M-260.441,1324.941h2.829
		l-1.891,0.938L-260.441,1324.941z M-262.332,1324.941h1.891h2.829H-262.332z"/>
	<polygon fill="#545454" points="-262.332,1324.941 -256.667,1324.941 -257.612,1324.941 	"/>
	<polygon fill="none" stroke="#545454" stroke-width="10" stroke-linecap="round" stroke-miterlimit="10" points="
		-262.332,1324.941 -256.667,1324.941 -257.612,1324.941 	"/>
	<path fill="#545454" d="M-299.168,1324.941l-6.61-2.836h7.556L-299.168,1324.941z M-304.833,1324.941h5.665l-6.61-2.836
		L-304.833,1324.941z"/>
	<path fill="none" stroke="#545454" stroke-width="10" stroke-linecap="round" stroke-miterlimit="10" d="M-299.168,1324.941
		l-6.61-2.836h7.556L-299.168,1324.941z M-304.833,1324.941h5.665l-6.61-2.836L-304.833,1324.941z"/>
	<path fill="#545454" d="M-303.888,1325.879h3.781h-1.891H-303.888z M-304.833,1324.941l0.945,0.938h3.781L-304.833,1324.941z"/>
	<path fill="none" stroke="#545454" stroke-width="10" stroke-linecap="round" stroke-miterlimit="10" d="M-303.888,1325.879h3.781
		h-1.891H-303.888z M-304.833,1324.941l0.945,0.938h3.781L-304.833,1324.941z"/>
	<polygon fill="#545454" points="-304.833,1324.941 -299.168,1324.941 -300.106,1325.879 	"/>
	<polygon fill="none" stroke="#545454" stroke-width="10" stroke-linecap="round" stroke-miterlimit="10" points="
		-304.833,1324.941 -299.168,1324.941 -300.106,1325.879 	"/>
	<path fill="none" stroke="#063B60" stroke-width="10" stroke-linecap="round" stroke-linejoin="round" stroke-miterlimit="10" d="
		M-302.474,1317.379c-2.344,0-4.25,1.906-4.25,4.25c0,2.352,1.906,4.25,4.25,4.25c2.353,0,4.251-1.898,4.251-4.25
		C-298.223,1319.285-300.121,1317.379-302.474,1317.379"/>
	<path fill="none" stroke="#063B60" stroke-width="10" stroke-linecap="round" stroke-linejoin="round" stroke-miterlimit="10" d="
		M-259.972,1317.379c-2.345,0-4.251,1.906-4.251,4.25c0,2.352,1.906,4.25,4.251,4.25c2.344,0,4.25-1.898,4.25-4.25
		C-255.722,1319.285-257.628,1317.379-259.972,1317.379"/>
	
		<line fill="none" stroke="#063B60" stroke-width="10" stroke-linecap="round" stroke-linejoin="round" stroke-miterlimit="10" x1="-243.448" y1="599.641" x2="-265.168" y2="599.641"/>
	
		<line fill="none" stroke="#063B60" stroke-width="10" stroke-linecap="round" stroke-linejoin="round" stroke-miterlimit="10" x1="-294.441" y1="599.641" x2="-316.161" y2="599.641"/>
	
		<line fill="none" stroke="#063B60" stroke-width="10" stroke-linecap="round" stroke-linejoin="round" stroke-miterlimit="10" x1="-280.277" y1="584.531" x2="-280.277" y2="562.805"/>
	
		<line fill="none" stroke="#063B60" stroke-width="10" stroke-linecap="round" stroke-linejoin="round" stroke-miterlimit="10" x1="-269.887" y1="589.25" x2="-254.776" y2="574.133"/>
	
		<line fill="none" stroke="#063B60" stroke-width="10" stroke-linecap="round" stroke-linejoin="round" stroke-miterlimit="10" x1="-290.668" y1="589.25" x2="-305.778" y2="574.133"/>
	
		<line fill="none" stroke="#063B60" stroke-width="10" stroke-linecap="round" stroke-linejoin="round" stroke-miterlimit="10" x1="-316.161" y1="1252.213" x2="-337.889" y2="1252.213"/>
	
		<line fill="none" stroke="#063B60" stroke-width="10" stroke-linecap="round" stroke-linejoin="round" stroke-miterlimit="10" x1="-244.386" y1="1252.213" x2="-222.666" y2="1252.213"/>
	
		<line fill="none" stroke="#063B60" stroke-width="10" stroke-linecap="round" stroke-linejoin="round" stroke-miterlimit="10" x1="-248.167" y1="1240.893" x2="-233.058" y2="1225.775"/>
	
		<line fill="none" stroke="#063B60" stroke-width="10" stroke-linecap="round" stroke-linejoin="round" stroke-miterlimit="10" x1="-258.558" y1="1237.111" x2="-258.558" y2="1215.385"/>
	
		<line fill="none" stroke="#063B60" stroke-width="10" stroke-linecap="round" stroke-linejoin="round" stroke-miterlimit="10" x1="-327.497" y1="1225.783" x2="-312.388" y2="1240.893"/>
	
		<line fill="none" stroke="#063B60" stroke-width="10" stroke-linecap="round" stroke-linejoin="round" stroke-miterlimit="10" x1="-301.052" y1="1237.111" x2="-301.052" y2="1215.385"/>
	<g>
		<path fill="none" stroke="#063B60" stroke-width="10" stroke-linecap="round" stroke-linejoin="round" stroke-miterlimit="10" d="
			M-276.027,281.383c-2.344,0-4.25,1.891-4.25,4.25c0,2.344,1.906,4.25,4.25,4.25s4.25-1.906,4.25-4.25
			C-271.777,283.273-273.684,281.383-276.027,281.383"/>
	</g>
	<path fill="none" stroke="#2E3191" stroke-width="8" stroke-miterlimit="10" d="M-1244.936,920.139
		c0.76,36.301,17.968,70.002,46.304,90.684"/>
	<path fill="none" stroke="#2E3191" stroke-width="8" stroke-miterlimit="10" d="M-1244.936,920.139
		c0.76,36.301,17.968,70.002,46.304,90.684"/>
	<path fill="none" stroke="#2E3191" stroke-width="8" stroke-miterlimit="10" d="M-1244.936,920.139
		c0.76,36.301,17.968,70.002,46.304,90.684"/>
	<path fill="none" stroke="#2E3191" stroke-width="8" stroke-miterlimit="10" d="M-1303.243,1009.22
		c32.666-18.345,53.889-51.395,58.271-88.601"/>
	
		<line fill="none" stroke="#2E3191" stroke-width="8" stroke-miterlimit="10" x1="-1244.973" y1="921.305" x2="-1244.973" y2="821.4"/>
	<path fill="none" stroke="#2E3191" stroke-width="8" stroke-miterlimit="10" d="M-567.862,976.996
		c0.824,37.449,19.513,72.225,50.285,93.583"/>
	<path fill="none" stroke="#2E3191" stroke-width="8" stroke-miterlimit="10" d="M-567.862,976.996
		c0.824,37.449,19.513,72.225,50.285,93.583"/>
	<path fill="none" stroke="#2E3191" stroke-width="8" stroke-miterlimit="10" d="M-567.862,976.996
		c0.824,37.449,19.513,72.225,50.285,93.583"/>
	<path fill="none" stroke="#2E3191" stroke-width="8" stroke-miterlimit="10" d="M-626.171,1066.064
		c32.667-18.336,54.583-51.185,58.964-88.378"/>
	
		<line fill="none" stroke="#2E3191" stroke-width="8" stroke-miterlimit="10" x1="-1244.967" y1="805.007" x2="-1244.967" y2="764.745"/>
	
		<line fill="none" stroke="#2E3191" stroke-width="8" stroke-miterlimit="10" x1="-1285.23" y1="861.662" x2="-1256.895" y2="833.341"/>
	
		<line fill="none" stroke="#2E3191" stroke-width="8" stroke-miterlimit="10" x1="-1233.039" y1="809.472" x2="-1204.716" y2="781.15"/>
	
		<line fill="none" stroke="#2E3191" stroke-width="8" stroke-miterlimit="10" x1="-1204.716" y1="861.662" x2="-1233.039" y2="833.341"/>
	
		<line fill="none" stroke="#2E3191" stroke-width="8" stroke-miterlimit="10" x1="-1255.415" y1="809.472" x2="-1285.23" y2="781.15"/>
</g>
<g id="ANC_LEGEND">
	<text transform="matrix(1 0 0 1 -1842.519 687.4473)" font-family="'CenturyGothic'" font-size="8.3513">IFR-Civil</text>
	<g id="MTEXT_5_">
		<text transform="matrix(1 0 0 1 -1842.519 706.666)" font-family="'CenturyGothic'" font-size="8.3513">IFR-Join Civil Military</text>
	</g>
	<g id="MTEXT_4_">
		<text transform="matrix(1 0 0 1 -1842.519 725.8867)" font-family="'CenturyGothic'" font-size="8.3513">IFR-Military</text>
	</g>
	<g id="INSERT_8_">
		<g id="CIRCLE_5_">
			
				<path fill="none" stroke="#992B20" stroke-width="10" stroke-linecap="round" stroke-linejoin="round" stroke-miterlimit="10" d="
				M-3027.634-153.039c0-76.291-61.83-138.121-138.125-138.121c-76.291,0-138.121,61.831-138.121,138.121
				c0,76.294,61.83,138.125,138.121,138.125C-3089.464-14.915-3027.634-76.745-3027.634-153.039L-3027.634-153.039z"/>
		</g>
		<g id="LWPOLYLINE_9_">
			
				<line fill="none" stroke="#992B20" stroke-width="10" stroke-linecap="round" stroke-linejoin="round" stroke-miterlimit="10" x1="-3165.758" y1="20.047" x2="-3165.758" y2="-14.915"/>
		</g>
		<g id="LWPOLYLINE_8_">
			
				<line fill="none" stroke="#992B20" stroke-width="10" stroke-linecap="round" stroke-linejoin="round" stroke-miterlimit="10" x1="-3165.758" y1="-291.16" x2="-3165.758" y2="-331.098"/>
		</g>
		<g id="LWPOLYLINE_7_">
			
				<line fill="none" stroke="#992B20" stroke-width="10" stroke-linecap="round" stroke-linejoin="round" stroke-miterlimit="10" x1="-3341.266" y1="-153.039" x2="-3303.879" y2="-153.039"/>
		</g>
		<g id="LWPOLYLINE_6_">
			
				<line fill="none" stroke="#992B20" stroke-width="10" stroke-linecap="round" stroke-linejoin="round" stroke-miterlimit="10" x1="-3027.634" y1="-153.039" x2="-2990.186" y2="-153.039"/>
		</g>
	</g>
	<g id="INSERT_6_">
		<g id="CIRCLE_2_">
			
				<path fill="none" stroke="#992B20" stroke-width="10" stroke-linecap="round" stroke-linejoin="round" stroke-miterlimit="10" d="
				M-3027.634,1330.752c0-76.287-61.83-138.117-138.125-138.117c-76.291,0-138.121,61.83-138.121,138.117
				c0,76.294,61.83,138.124,138.121,138.124C-3089.464,1468.876-3027.634,1407.046-3027.634,1330.752L-3027.634,1330.752z"/>
		</g>
		<g id="CIRCLE_1_">
			
				<path fill="none" stroke="#992B20" stroke-width="10" stroke-linecap="round" stroke-linejoin="round" stroke-miterlimit="10" d="
				M-3098.156,1330.752c0-37.345-30.25-67.603-67.602-67.603c-37.348,0-67.603,30.258-67.603,67.603
				c0,37.352,30.254,67.602,67.603,67.602C-3128.407,1398.354-3098.156,1368.104-3098.156,1330.752L-3098.156,1330.752z"/>
		</g>
	</g>
	<text transform="matrix(1 0 0 1 -1737.3311 687.4473)" font-family="'CenturyGothic'" font-size="8.3513">VFR-Civil</text>
	<g id="MTEXT_3_">
		<text transform="matrix(1 0 0 1 -1737.3311 706.666)" font-family="'CenturyGothic'" font-size="8.3513">VFR-Join Civil Military</text>
	</g>
	<g id="MTEXT_2_">
		<text transform="matrix(1 0 0 1 -1737.3311 725.8867)" font-family="'CenturyGothic'" font-size="8.3513">VFR-Military</text>
	</g>
	<g id="INSERT_1_">
		<g id="CIRCLE_8_">
			
				<path fill="none" stroke="#2E3192" stroke-width="10" stroke-linecap="round" stroke-linejoin="round" stroke-miterlimit="10" d="
				M-570.782-358.775c0-76.291-61.83-138.121-138.125-138.121s-138.125,61.831-138.125,138.121
				c0,76.294,61.83,138.189,138.125,138.189S-570.782-282.481-570.782-358.775L-570.782-358.775z"/>
		</g>
		<g id="LWPOLYLINE_18_">
			<line fill="none" stroke="#2E3192" stroke-width="10" x1="-708.907" y1="-185.689" x2="-708.907" y2="-220.586"/>
		</g>
		<g id="LWPOLYLINE_17_">
			<line fill="none" stroke="#2E3192" stroke-width="10" x1="-708.907" y1="-496.896" x2="-708.907" y2="-536.769"/>
		</g>
		<g id="LWPOLYLINE_13_">
			<line fill="none" stroke="#2E3192" stroke-width="10" x1="-884.38" y1="-358.775" x2="-847.032" y2="-358.775"/>
		</g>
		<g id="LWPOLYLINE_1_">
			<line fill="none" stroke="#2E3192" stroke-width="10" x1="-570.782" y1="-358.775" x2="-533.335" y2="-358.775"/>
		</g>
	</g>
	<g id="CIRCLE_10_">
		<path fill="none" stroke="#2E3192" stroke-width="10" stroke-linecap="round" stroke-linejoin="round" stroke-miterlimit="10" d="
			M302.06,158.795c0-76.291-61.83-138.121-138.125-138.121c-76.294,0-138.124,61.831-138.124,138.121
			c0,76.293,61.83,138.123,138.124,138.123C240.229,296.918,302.06,235.088,302.06,158.795L302.06,158.795z"/>
	</g>
	<g id="INSERT_2_">
		<g id="CIRCLE_4_">
			
				<path fill="none" stroke="#2E3192" stroke-width="10" stroke-linecap="round" stroke-linejoin="round" stroke-miterlimit="10" d="
				M-422.667,146c0-76.291-61.83-138.122-138.125-138.122S-698.917,69.709-698.917,146c0,76.293,61.83,138.123,138.125,138.123
				S-422.667,222.293-422.667,146L-422.667,146z"/>
		</g>
	</g>
	<text transform="matrix(1 0 0 1 -635.1133 221.6445)" fill="#2E3192" font-family="'MyriadPro-Regular'" font-size="225.9887">H</text>
	<g id="CIRCLE_3_">
		<path fill="none" stroke="#2E3192" stroke-width="10" stroke-linecap="round" stroke-linejoin="round" stroke-miterlimit="10" d="
			M171.196,158.796c0-4.011-3.25-7.261-7.262-7.261c-4.011,0-7.261,3.25-7.261,7.261s3.25,7.261,7.261,7.261
			C167.946,166.057,171.196,162.807,171.196,158.796L171.196,158.796z"/>
	</g>
</g>
<g id="PLAN_VIEW">
	<g id="CIRCLE_270_">
		
			<path fill="#FFFFFF" stroke="#FFFFFF" stroke-width="0.5" stroke-linecap="round" stroke-linejoin="round" stroke-miterlimit="10" d="
			M-1839.155,1031c0-21.542-17.461-39.004-39.004-39.004c-21.55,0-39.02,17.462-39.02,39.004c0,21.543,17.469,39.012,39.02,39.012
			C-1856.617,1070.012-1839.155,1052.543-1839.155,1031L-1839.155,1031z"/>
	</g>
	<g id="HATCH_127_">
		<path fill-rule="evenodd" clip-rule="evenodd" fill="#231F20" d="M-1865.947,997.714c0-0.769-0.622-1.406-1.398-1.406
			s-1.407,0.638-1.407,1.406c0,0.776,0.63,1.392,1.407,1.392S-1865.947,998.49-1865.947,997.714L-1865.947,997.714z
			 M-1848.447,1010.426c0-0.769-0.622-1.406-1.391-1.406c-0.776,0-1.399,0.638-1.399,1.406c0,0.776,0.623,1.399,1.399,1.399
			C-1849.069,1011.825-1848.447,1011.202-1848.447,1010.426L-1848.447,1010.426z M-1852.005,1006.253
			c0-0.776-0.63-1.406-1.407-1.406c-0.769,0-1.406,0.63-1.406,1.406s0.638,1.391,1.406,1.391
			C-1852.636,1007.644-1852.005,1007.029-1852.005,1006.253L-1852.005,1006.253z M-1866.047,1005.123
			c0-0.769-0.623-1.398-1.399-1.398s-1.399,0.63-1.399,1.398s0.623,1.414,1.399,1.414S-1866.047,1005.892-1866.047,1005.123
			L-1866.047,1005.123z M-1866.262,1012.809c0-0.769-0.623-1.391-1.399-1.391c-0.776,0-1.398,0.622-1.398,1.391
			c0,0.776,0.623,1.406,1.398,1.406C-1866.885,1014.215-1866.262,1013.585-1866.262,1012.809L-1866.262,1012.809z
			 M-1861.205,1007.721c0-0.769-0.623-1.406-1.399-1.406c-0.769,0-1.398,0.638-1.398,1.406c0,0.776,0.63,1.398,1.398,1.398
			C-1861.828,1009.119-1861.205,1008.497-1861.205,1007.721L-1861.205,1007.721z M-1856.97,1011.202
			c0-0.776-0.615-1.406-1.383-1.406c-0.776,0-1.407,0.63-1.407,1.406s0.63,1.392,1.407,1.392
			C-1857.585,1012.594-1856.97,1011.979-1856.97,1011.202L-1856.97,1011.202z M-1856.194,1002.679c0-0.769-0.615-1.391-1.391-1.391
			c-0.769,0-1.407,0.622-1.407,1.391s0.638,1.414,1.407,1.414C-1856.809,1004.093-1856.194,1003.447-1856.194,1002.679
			L-1856.194,1002.679z M-1860.875,999.805c0-0.776-0.623-1.398-1.399-1.398s-1.391,0.622-1.391,1.398
			c0,0.769,0.615,1.398,1.391,1.398S-1860.875,1000.573-1860.875,999.805L-1860.875,999.805z M-1842.183,1025.521
			c0-0.769-0.63-1.391-1.407-1.391c-0.769,0-1.391,0.622-1.391,1.391c0,0.776,0.623,1.414,1.391,1.414
			C-1842.813,1026.935-1842.183,1026.297-1842.183,1025.521L-1842.183,1025.521z M-1843.467,1020.187
			c0-0.769-0.63-1.398-1.406-1.398c-0.769,0-1.399,0.63-1.399,1.398s0.63,1.399,1.399,1.399
			C-1844.097,1021.586-1843.467,1020.955-1843.467,1020.187L-1843.467,1020.187z M-1841.761,1031c0-0.776-0.615-1.391-1.391-1.391
			c-0.776,0-1.406,0.614-1.406,1.391s0.63,1.407,1.406,1.407C-1842.375,1032.407-1841.761,1031.776-1841.761,1031L-1841.761,1031z
			 M-1842.183,1036.473c0-0.769-0.63-1.392-1.407-1.392c-0.769,0-1.391,0.623-1.391,1.392c0,0.776,0.623,1.406,1.391,1.406
			C-1842.813,1037.879-1842.183,1037.249-1842.183,1036.473L-1842.183,1036.473z M-1849.292,1025.536
			c0-0.769-0.638-1.406-1.414-1.406c-0.769,0-1.383,0.638-1.383,1.406c0,0.776,0.615,1.398,1.383,1.398
			C-1849.93,1026.935-1849.292,1026.313-1849.292,1025.536L-1849.292,1025.536z M-1850.891,1020.279c0-0.769-0.63-1.392-1.406-1.392
			c-0.769,0-1.399,0.623-1.399,1.392c0,0.776,0.63,1.406,1.399,1.406C-1851.521,1021.686-1850.891,1021.056-1850.891,1020.279
			L-1850.891,1020.279z M-1861.912,1016.151c0-0.775-0.63-1.406-1.399-1.406c-0.776,0-1.406,0.631-1.406,1.406
			c0,0.776,0.63,1.392,1.406,1.392C-1862.542,1017.543-1861.912,1016.928-1861.912,1016.151L-1861.912,1016.151z
			 M-1863.818,1025.644c0-0.769-0.638-1.398-1.406-1.398c-0.776,0-1.406,0.63-1.406,1.398c0,0.784,0.63,1.398,1.406,1.398
			C-1864.456,1027.042-1863.818,1026.428-1863.818,1025.644L-1863.818,1025.644z M-1866.869,1021.102
			c0-0.776-0.615-1.406-1.391-1.406c-0.776,0-1.407,0.63-1.407,1.406s0.63,1.406,1.407,1.406
			C-1867.484,1022.508-1866.869,1021.878-1866.869,1021.102L-1866.869,1021.102z M-1856.479,1025.566
			c0-0.769-0.623-1.398-1.399-1.398c-0.769,0-1.406,0.63-1.406,1.398c0,0.784,0.638,1.399,1.406,1.399
			C-1857.101,1026.966-1856.479,1026.351-1856.479,1025.566L-1856.479,1025.566z M-1858.569,1020.494
			c0-0.769-0.63-1.384-1.407-1.384c-0.769,0-1.398,0.615-1.398,1.384c0,0.776,0.63,1.414,1.398,1.414
			C-1859.199,1021.908-1858.569,1021.271-1858.569,1020.494L-1858.569,1020.494z M-1848.762,1031c0-0.776-0.623-1.391-1.399-1.391
			c-0.769,0-1.398,0.614-1.398,1.391s0.63,1.407,1.398,1.407C-1849.385,1032.407-1848.762,1031.776-1848.762,1031L-1848.762,1031z
			 M-1855.756,1031c0-0.776-0.63-1.391-1.399-1.391c-0.776,0-1.406,0.614-1.406,1.391s0.63,1.407,1.406,1.407
			C-1856.386,1032.407-1855.756,1031.776-1855.756,1031L-1855.756,1031z M-1849.292,1036.465c0-0.776-0.638-1.398-1.414-1.398
			c-0.769,0-1.383,0.622-1.383,1.398c0,0.769,0.615,1.406,1.383,1.406C-1849.93,1037.871-1849.292,1037.233-1849.292,1036.465
			L-1849.292,1036.465z M-1862.765,1031c0-0.776-0.623-1.391-1.391-1.391c-0.784,0-1.414,0.614-1.414,1.391s0.63,1.407,1.414,1.407
			C-1863.388,1032.407-1862.765,1031.776-1862.765,1031L-1862.765,1031z M-1863.818,1036.372c0-0.775-0.638-1.414-1.406-1.414
			c-0.776,0-1.406,0.639-1.406,1.414c0,0.769,0.63,1.392,1.406,1.392C-1864.456,1037.764-1863.818,1037.141-1863.818,1036.372
			L-1863.818,1036.372z M-1856.479,1036.449c0-0.776-0.623-1.414-1.399-1.414c-0.769,0-1.406,0.638-1.406,1.414
			c0,0.769,0.638,1.384,1.406,1.384C-1857.101,1037.833-1856.479,1037.218-1856.479,1036.449L-1856.479,1036.449z
			 M-1853.474,1046.563c0-0.776-0.63-1.398-1.406-1.398c-0.769,0-1.399,0.622-1.399,1.398c0,0.769,0.63,1.406,1.399,1.406
			C-1854.104,1047.97-1853.474,1047.332-1853.474,1046.563L-1853.474,1046.563z M-1848.447,1051.59c0-0.776-0.622-1.414-1.391-1.414
			c-0.776,0-1.399,0.638-1.399,1.414c0,0.769,0.623,1.392,1.399,1.392C-1849.069,1052.981-1848.447,1052.358-1848.447,1051.59
			L-1848.447,1051.59z M-1861.912,1045.849c0-0.776-0.63-1.391-1.399-1.391c-0.776,0-1.406,0.614-1.406,1.391
			s0.63,1.406,1.406,1.406C-1862.542,1047.255-1861.912,1046.625-1861.912,1045.849L-1861.912,1045.849z M-1866.262,1049.192
			c0-0.769-0.623-1.399-1.399-1.399c-0.776,0-1.398,0.631-1.398,1.399s0.623,1.398,1.398,1.398
			C-1866.885,1050.591-1866.262,1049.961-1866.262,1049.192L-1866.262,1049.192z M-1856.97,1050.813
			c0-0.776-0.615-1.406-1.383-1.406c-0.776,0-1.407,0.63-1.407,1.406s0.63,1.392,1.407,1.392
			C-1857.585,1052.205-1856.97,1051.59-1856.97,1050.813L-1856.97,1050.813z M-1866.047,1056.878c0-0.769-0.623-1.414-1.399-1.414
			s-1.399,0.646-1.399,1.414s0.623,1.406,1.399,1.406S-1866.047,1057.646-1866.047,1056.878L-1866.047,1056.878z
			 M-1865.947,1064.302c0-0.769-0.622-1.406-1.398-1.406s-1.407,0.638-1.407,1.406c0,0.776,0.63,1.398,1.407,1.398
			S-1865.947,1065.078-1865.947,1064.302L-1865.947,1064.302z M-1860.875,1062.196c0-0.769-0.623-1.407-1.399-1.407
			s-1.391,0.639-1.391,1.407c0,0.776,0.615,1.398,1.391,1.398S-1860.875,1062.973-1860.875,1062.196L-1860.875,1062.196z
			 M-1856.194,1059.321c0-0.776-0.615-1.391-1.391-1.391c-0.769,0-1.407,0.614-1.407,1.391s0.638,1.406,1.407,1.406
			C-1856.809,1060.728-1856.194,1060.098-1856.194,1059.321L-1856.194,1059.321z M-1861.205,1054.295
			c0-0.769-0.623-1.406-1.399-1.406c-0.769,0-1.398,0.638-1.398,1.406c0,0.776,0.63,1.392,1.398,1.392
			C-1861.828,1055.687-1861.205,1055.071-1861.205,1054.295L-1861.205,1054.295z M-1852.005,1055.763
			c0-0.775-0.63-1.406-1.407-1.406c-0.769,0-1.406,0.631-1.406,1.406c0,0.776,0.638,1.392,1.406,1.392
			C-1852.636,1057.154-1852.005,1056.539-1852.005,1055.763L-1852.005,1055.763z M-1845.573,1046.901
			c0-0.776-0.623-1.406-1.398-1.406c-0.776,0-1.399,0.63-1.399,1.406s0.623,1.392,1.399,1.392
			C-1846.195,1048.293-1845.573,1047.678-1845.573,1046.901L-1845.573,1046.901z M-1866.869,1040.899
			c0-0.776-0.615-1.392-1.391-1.392c-0.776,0-1.407,0.615-1.407,1.392s0.63,1.406,1.407,1.406
			C-1867.484,1042.306-1866.869,1041.676-1866.869,1040.899L-1866.869,1040.899z M-1858.569,1041.507
			c0-0.776-0.63-1.392-1.407-1.392c-0.769,0-1.398,0.615-1.398,1.392c0,0.769,0.63,1.406,1.398,1.406
			C-1859.199,1042.913-1858.569,1042.275-1858.569,1041.507L-1858.569,1041.507z M-1850.891,1041.722
			c0-0.769-0.63-1.398-1.406-1.398c-0.769,0-1.399,0.63-1.399,1.398s0.63,1.398,1.399,1.398
			C-1851.521,1043.12-1850.891,1042.49-1850.891,1041.722L-1850.891,1041.722z M-1843.467,1041.829c0-0.776-0.63-1.414-1.406-1.414
			c-0.769,0-1.399,0.638-1.399,1.414c0,0.769,0.63,1.392,1.399,1.392C-1844.097,1043.221-1843.467,1042.598-1843.467,1041.829
			L-1843.467,1041.829z M-1845.573,1015.114c0-0.769-0.623-1.406-1.398-1.406c-0.776,0-1.399,0.638-1.399,1.406
			s0.623,1.398,1.399,1.398C-1846.195,1016.513-1845.573,1015.883-1845.573,1015.114L-1845.573,1015.114z M-1853.474,1015.438
			c0-0.769-0.63-1.392-1.406-1.392c-0.769,0-1.399,0.623-1.399,1.392c0,0.775,0.63,1.414,1.399,1.414
			C-1854.104,1016.852-1853.474,1016.213-1853.474,1015.438L-1853.474,1015.438z M-1871.289,996.431
			c0-0.776-0.623-1.406-1.399-1.406c-0.769,0-1.406,0.63-1.406,1.406s0.638,1.392,1.406,1.392
			C-1871.911,997.822-1871.289,997.207-1871.289,996.431L-1871.289,996.431z M-1876.761,995.992c0-0.769-0.623-1.398-1.398-1.398
			c-0.776,0-1.407,0.63-1.407,1.398c0,0.784,0.63,1.399,1.407,1.399C-1877.383,997.392-1876.761,996.776-1876.761,995.992
			L-1876.761,995.992z M-1882.24,996.431c0-0.776-0.623-1.406-1.399-1.406s-1.399,0.63-1.399,1.406s0.623,1.392,1.399,1.392
			S-1882.24,997.207-1882.24,996.431L-1882.24,996.431z M-1887.582,997.714c0-0.769-0.63-1.406-1.398-1.406
			c-0.776,0-1.407,0.638-1.407,1.406c0,0.776,0.63,1.392,1.407,1.392C-1888.212,999.105-1887.582,998.49-1887.582,997.714
			L-1887.582,997.714z M-1871.304,1003.532c0-0.776-0.623-1.398-1.399-1.398s-1.399,0.622-1.399,1.398
			c0,0.769,0.623,1.406,1.399,1.406S-1871.304,1004.301-1871.304,1003.532L-1871.304,1003.532z M-1876.761,1002.986
			c0-0.769-0.623-1.391-1.398-1.391c-0.776,0-1.407,0.622-1.407,1.391c0,0.776,0.63,1.406,1.407,1.406
			C-1877.383,1004.393-1876.761,1003.763-1876.761,1002.986L-1876.761,1002.986z M-1871.327,1010.703
			c0-0.769-0.622-1.384-1.398-1.384s-1.399,0.615-1.399,1.384c0,0.783,0.623,1.414,1.399,1.414
			S-1871.327,1011.486-1871.327,1010.703L-1871.327,1010.703z M-1876.761,1009.996c0-0.769-0.623-1.399-1.398-1.399
			c-0.776,0-1.407,0.631-1.407,1.399s0.63,1.406,1.407,1.406C-1877.383,1011.402-1876.761,1010.765-1876.761,1009.996
			L-1876.761,1009.996z M-1882.233,1003.532c0-0.776-0.623-1.398-1.398-1.398c-0.769,0-1.399,0.622-1.399,1.398
			c0,0.769,0.63,1.406,1.399,1.406C-1882.855,1004.938-1882.233,1004.301-1882.233,1003.532L-1882.233,1003.532z
			 M-1887.482,1005.123c0-0.769-0.63-1.398-1.399-1.398s-1.406,0.63-1.406,1.398s0.638,1.414,1.406,1.414
			S-1887.482,1005.892-1887.482,1005.123L-1887.482,1005.123z M-1882.202,1010.703c0-0.769-0.623-1.384-1.398-1.384
			c-0.769,0-1.407,0.615-1.407,1.384c0,0.783,0.638,1.414,1.407,1.414C-1882.825,1012.117-1882.202,1011.486-1882.202,1010.703
			L-1882.202,1010.703z M-1887.267,1012.809c0-0.769-0.63-1.391-1.399-1.391c-0.776,0-1.399,0.622-1.399,1.391
			c0,0.776,0.623,1.406,1.399,1.406C-1887.897,1014.215-1887.267,1013.585-1887.267,1012.809L-1887.267,1012.809z
			 M-1897.35,1002.679c0-0.769-0.623-1.391-1.391-1.391c-0.776,0-1.399,0.622-1.399,1.391s0.623,1.414,1.399,1.414
			C-1897.973,1004.093-1897.35,1003.447-1897.35,1002.679L-1897.35,1002.679z M-1896.574,1011.202c0-0.776-0.623-1.406-1.399-1.406
			c-0.769,0-1.391,0.63-1.391,1.406s0.623,1.392,1.391,1.392C-1897.196,1012.594-1896.574,1011.979-1896.574,1011.202
			L-1896.574,1011.202z M-1901.516,1006.253c0-0.776-0.63-1.406-1.407-1.406c-0.769,0-1.398,0.63-1.398,1.406
			s0.63,1.391,1.398,1.391C-1902.146,1007.644-1901.516,1007.029-1901.516,1006.253L-1901.516,1006.253z M-1905.082,1010.426
			c0-0.769-0.63-1.406-1.398-1.406c-0.776,0-1.407,0.638-1.407,1.406c0,0.776,0.63,1.399,1.407,1.399
			C-1905.712,1011.825-1905.082,1011.202-1905.082,1010.426L-1905.082,1010.426z M-1892.654,999.805c0-0.776-0.63-1.398-1.399-1.398
			c-0.776,0-1.406,0.622-1.406,1.398c0,0.769,0.63,1.398,1.406,1.398C-1893.285,1001.203-1892.654,1000.573-1892.654,999.805
			L-1892.654,999.805z M-1892.324,1007.721c0-0.769-0.623-1.406-1.399-1.406s-1.399,0.638-1.399,1.406
			c0,0.776,0.623,1.398,1.399,1.398S-1892.324,1008.497-1892.324,1007.721L-1892.324,1007.721z M-1871.404,1018.065
			c0-0.769-0.623-1.406-1.399-1.406c-0.776,0-1.398,0.638-1.398,1.406c0,0.776,0.623,1.398,1.398,1.398
			C-1872.026,1019.464-1871.404,1018.842-1871.404,1018.065L-1871.404,1018.065z M-1876.761,1017.005
			c0-0.776-0.623-1.406-1.398-1.406c-0.776,0-1.407,0.63-1.407,1.406c0,0.769,0.63,1.392,1.407,1.392
			C-1877.383,1018.396-1876.761,1017.773-1876.761,1017.005L-1876.761,1017.005z M-1882.125,1018.065
			c0-0.769-0.623-1.406-1.391-1.406c-0.776,0-1.407,0.638-1.407,1.406c0,0.776,0.63,1.398,1.407,1.398
			C-1882.748,1019.464-1882.125,1018.842-1882.125,1018.065L-1882.125,1018.065z M-1889.703,1025.644
			c0-0.769-0.63-1.398-1.399-1.398c-0.776,0-1.398,0.63-1.398,1.398c0,0.784,0.623,1.398,1.398,1.398
			C-1890.333,1027.042-1889.703,1026.428-1889.703,1025.644L-1889.703,1025.644z M-1886.66,1021.102
			c0-0.776-0.638-1.406-1.414-1.406c-0.769,0-1.391,0.63-1.391,1.406s0.623,1.406,1.391,1.406
			C-1887.297,1022.508-1886.66,1021.878-1886.66,1021.102L-1886.66,1021.102z M-1889.703,1036.372c0-0.775-0.63-1.414-1.399-1.414
			c-0.776,0-1.398,0.639-1.398,1.414c0,0.769,0.623,1.392,1.398,1.392C-1890.333,1037.764-1889.703,1037.141-1889.703,1036.372
			L-1889.703,1036.372z M-1897.058,1025.566c0-0.769-0.63-1.398-1.399-1.398c-0.776,0-1.398,0.63-1.398,1.398
			c0,0.784,0.623,1.399,1.398,1.399C-1897.688,1026.966-1897.058,1026.351-1897.058,1025.566L-1897.058,1025.566z
			 M-1894.96,1020.494c0-0.769-0.623-1.384-1.391-1.384c-0.776,0-1.399,0.615-1.399,1.384c0,0.776,0.623,1.414,1.399,1.414
			C-1895.583,1021.908-1894.96,1021.271-1894.96,1020.494L-1894.96,1020.494z M-1911.338,1025.521c0-0.769-0.63-1.391-1.406-1.391
			c-0.769,0-1.399,0.622-1.399,1.391c0,0.776,0.63,1.414,1.399,1.414C-1911.968,1026.935-1911.338,1026.297-1911.338,1025.521
			L-1911.338,1025.521z M-1910.062,1020.187c0-0.769-0.623-1.398-1.399-1.398c-0.769,0-1.406,0.63-1.406,1.398
			s0.638,1.399,1.406,1.399C-1910.685,1021.586-1910.062,1020.955-1910.062,1020.187L-1910.062,1020.187z M-1904.236,1025.536
			c0-0.769-0.623-1.406-1.391-1.406c-0.776,0-1.414,0.638-1.414,1.406c0,0.776,0.638,1.398,1.414,1.398
			C-1904.859,1026.935-1904.236,1026.313-1904.236,1025.536L-1904.236,1025.536z M-1902.638,1020.279
			c0-0.769-0.63-1.392-1.407-1.392c-0.769,0-1.398,0.623-1.398,1.392c0,0.776,0.63,1.406,1.398,1.406
			C-1903.268,1021.686-1902.638,1021.056-1902.638,1020.279L-1902.638,1020.279z M-1897.773,1031c0-0.776-0.623-1.391-1.399-1.391
			c-0.776,0-1.391,0.614-1.391,1.391s0.615,1.407,1.391,1.407C-1898.396,1032.407-1897.773,1031.776-1897.773,1031L-1897.773,1031z
			 M-1897.058,1036.449c0-0.776-0.63-1.414-1.399-1.414c-0.776,0-1.398,0.638-1.398,1.414c0,0.769,0.623,1.384,1.398,1.384
			C-1897.688,1037.833-1897.058,1037.218-1897.058,1036.449L-1897.058,1036.449z M-1904.782,1031c0-0.776-0.623-1.391-1.391-1.391
			c-0.776,0-1.398,0.614-1.398,1.391s0.623,1.407,1.398,1.407C-1905.405,1032.407-1904.782,1031.776-1904.782,1031L-1904.782,1031z
			 M-1911.776,1031c0-0.776-0.623-1.391-1.399-1.391c-0.769,0-1.399,0.614-1.399,1.391s0.63,1.407,1.399,1.407
			C-1912.398,1032.407-1911.776,1031.776-1911.776,1031L-1911.776,1031z M-1911.338,1036.473c0-0.769-0.63-1.392-1.406-1.392
			c-0.769,0-1.399,0.623-1.399,1.392c0,0.776,0.63,1.406,1.399,1.406C-1911.968,1037.879-1911.338,1037.249-1911.338,1036.473
			L-1911.338,1036.473z M-1904.236,1036.465c0-0.776-0.623-1.398-1.391-1.398c-0.776,0-1.414,0.622-1.414,1.398
			c0,0.769,0.638,1.406,1.414,1.406C-1904.859,1037.871-1904.236,1037.233-1904.236,1036.465L-1904.236,1036.465z
			 M-1891.617,1016.151c0-0.775-0.63-1.406-1.407-1.406c-0.769,0-1.398,0.631-1.398,1.406c0,0.776,0.63,1.392,1.398,1.392
			C-1892.247,1017.543-1891.617,1016.928-1891.617,1016.151L-1891.617,1016.151z M-1890.764,1031c0-0.776-0.638-1.391-1.406-1.391
			c-0.776,0-1.399,0.614-1.399,1.391s0.623,1.407,1.399,1.407C-1891.401,1032.407-1890.764,1031.776-1890.764,1031L-1890.764,1031z
			 M-1871.404,1043.95c0-0.776-0.623-1.414-1.399-1.414c-0.776,0-1.398,0.638-1.398,1.414c0,0.769,0.623,1.392,1.398,1.392
			C-1872.026,1045.342-1871.404,1044.719-1871.404,1043.95L-1871.404,1043.95z M-1876.761,1044.996c0-0.769-0.623-1.392-1.398-1.392
			c-0.776,0-1.407,0.623-1.407,1.392c0,0.775,0.63,1.414,1.407,1.414C-1877.383,1046.41-1876.761,1045.771-1876.761,1044.996
			L-1876.761,1044.996z M-1871.327,1051.298c0-0.776-0.622-1.414-1.398-1.414s-1.399,0.638-1.399,1.414
			c0,0.769,0.623,1.384,1.399,1.384S-1871.327,1052.066-1871.327,1051.298L-1871.327,1051.298z M-1876.761,1052.005
			c0-0.769-0.623-1.391-1.398-1.391c-0.776,0-1.407,0.622-1.407,1.391s0.63,1.406,1.407,1.406
			C-1877.383,1053.411-1876.761,1052.773-1876.761,1052.005L-1876.761,1052.005z M-1882.125,1043.95
			c0-0.776-0.623-1.414-1.391-1.414c-0.776,0-1.407,0.638-1.407,1.414c0,0.769,0.63,1.392,1.407,1.392
			C-1882.748,1045.342-1882.125,1044.719-1882.125,1043.95L-1882.125,1043.95z M-1882.202,1051.298c0-0.776-0.623-1.414-1.398-1.414
			c-0.769,0-1.407,0.638-1.407,1.414c0,0.769,0.638,1.384,1.407,1.384C-1882.825,1052.682-1882.202,1052.066-1882.202,1051.298
			L-1882.202,1051.298z M-1887.267,1049.192c0-0.769-0.63-1.399-1.399-1.399c-0.776,0-1.399,0.631-1.399,1.399
			s0.623,1.398,1.399,1.398C-1887.897,1050.591-1887.267,1049.961-1887.267,1049.192L-1887.267,1049.192z M-1871.304,1058.469
			c0-0.769-0.623-1.406-1.399-1.406s-1.399,0.638-1.399,1.406c0,0.776,0.623,1.406,1.399,1.406
			S-1871.304,1059.245-1871.304,1058.469L-1871.304,1058.469z M-1876.761,1059.014c0-0.769-0.623-1.406-1.398-1.406
			c-0.776,0-1.407,0.638-1.407,1.406s0.63,1.399,1.407,1.399C-1877.383,1060.413-1876.761,1059.782-1876.761,1059.014
			L-1876.761,1059.014z M-1871.289,1065.585c0-0.776-0.623-1.406-1.399-1.406c-0.769,0-1.406,0.63-1.406,1.406
			s0.638,1.392,1.406,1.392C-1871.911,1066.977-1871.289,1066.361-1871.289,1065.585L-1871.289,1065.585z M-1876.761,1066.008
			c0-0.776-0.623-1.398-1.398-1.398c-0.776,0-1.407,0.622-1.407,1.398c0,0.769,0.63,1.406,1.407,1.406
			C-1877.383,1067.414-1876.761,1066.776-1876.761,1066.008L-1876.761,1066.008z M-1882.233,1058.469
			c0-0.769-0.623-1.406-1.398-1.406c-0.769,0-1.399,0.638-1.399,1.406c0,0.776,0.63,1.406,1.399,1.406
			C-1882.855,1059.875-1882.233,1059.245-1882.233,1058.469L-1882.233,1058.469z M-1887.482,1056.878
			c0-0.769-0.63-1.414-1.399-1.414s-1.406,0.646-1.406,1.414s0.638,1.406,1.406,1.406S-1887.482,1057.646-1887.482,1056.878
			L-1887.482,1056.878z M-1882.24,1065.585c0-0.776-0.623-1.406-1.399-1.406s-1.399,0.63-1.399,1.406s0.623,1.392,1.399,1.392
			S-1882.24,1066.361-1882.24,1065.585L-1882.24,1065.585z M-1887.582,1064.302c0-0.769-0.63-1.406-1.398-1.406
			c-0.776,0-1.407,0.638-1.407,1.406c0,0.776,0.63,1.398,1.407,1.398C-1888.212,1065.7-1887.582,1065.078-1887.582,1064.302
			L-1887.582,1064.302z M-1900.056,1046.563c0-0.776-0.623-1.398-1.398-1.398c-0.769,0-1.391,0.622-1.391,1.398
			c0,0.769,0.623,1.406,1.391,1.406C-1900.678,1047.97-1900.056,1047.332-1900.056,1046.563L-1900.056,1046.563z
			 M-1896.574,1050.813c0-0.776-0.623-1.406-1.399-1.406c-0.769,0-1.391,0.63-1.391,1.406s0.623,1.392,1.391,1.392
			C-1897.196,1052.205-1896.574,1051.59-1896.574,1050.813L-1896.574,1050.813z M-1905.082,1051.59c0-0.776-0.63-1.414-1.398-1.414
			c-0.776,0-1.407,0.638-1.407,1.414c0,0.769,0.63,1.392,1.407,1.392C-1905.712,1052.981-1905.082,1052.358-1905.082,1051.59
			L-1905.082,1051.59z M-1907.964,1046.901c0-0.776-0.623-1.406-1.399-1.406s-1.398,0.63-1.398,1.406s0.622,1.392,1.398,1.392
			S-1907.964,1047.678-1907.964,1046.901L-1907.964,1046.901z M-1897.35,1059.321c0-0.776-0.623-1.391-1.391-1.391
			c-0.776,0-1.399,0.614-1.399,1.391s0.623,1.406,1.399,1.406C-1897.973,1060.728-1897.35,1060.098-1897.35,1059.321
			L-1897.35,1059.321z M-1901.516,1055.763c0-0.775-0.63-1.406-1.407-1.406c-0.769,0-1.398,0.631-1.398,1.406
			c0,0.776,0.63,1.392,1.398,1.392C-1902.146,1057.154-1901.516,1056.539-1901.516,1055.763L-1901.516,1055.763z
			 M-1891.617,1045.849c0-0.776-0.63-1.391-1.407-1.391c-0.769,0-1.398,0.614-1.398,1.391s0.63,1.406,1.398,1.406
			C-1892.247,1047.255-1891.617,1046.625-1891.617,1045.849L-1891.617,1045.849z M-1892.324,1054.295
			c0-0.769-0.623-1.406-1.399-1.406s-1.399,0.638-1.399,1.406c0,0.776,0.623,1.392,1.399,1.392
			S-1892.324,1055.071-1892.324,1054.295L-1892.324,1054.295z M-1892.654,1062.196c0-0.769-0.63-1.407-1.399-1.407
			c-0.776,0-1.406,0.639-1.406,1.407c0,0.776,0.63,1.398,1.406,1.398C-1893.285,1063.595-1892.654,1062.973-1892.654,1062.196
			L-1892.654,1062.196z M-1886.66,1040.899c0-0.776-0.638-1.392-1.414-1.392c-0.769,0-1.391,0.615-1.391,1.392
			s0.623,1.406,1.391,1.406C-1887.297,1042.306-1886.66,1041.676-1886.66,1040.899L-1886.66,1040.899z M-1902.638,1041.722
			c0-0.769-0.63-1.398-1.407-1.398c-0.769,0-1.398,0.63-1.398,1.398s0.63,1.398,1.398,1.398
			C-1903.268,1043.12-1902.638,1042.49-1902.638,1041.722L-1902.638,1041.722z M-1910.062,1041.829c0-0.776-0.623-1.414-1.399-1.414
			c-0.769,0-1.406,0.638-1.406,1.414c0,0.769,0.638,1.392,1.406,1.392C-1910.685,1043.221-1910.062,1042.598-1910.062,1041.829
			L-1910.062,1041.829z M-1894.96,1041.507c0-0.776-0.623-1.392-1.391-1.392c-0.776,0-1.399,0.615-1.399,1.392
			c0,0.769,0.623,1.406,1.399,1.406C-1895.583,1042.913-1894.96,1042.275-1894.96,1041.507L-1894.96,1041.507z M-1907.964,1015.114
			c0-0.769-0.623-1.406-1.399-1.406s-1.398,0.638-1.398,1.406s0.622,1.398,1.398,1.398S-1907.964,1015.883-1907.964,1015.114
			L-1907.964,1015.114z M-1900.056,1015.438c0-0.769-0.623-1.392-1.398-1.392c-0.769,0-1.391,0.623-1.391,1.392
			c0,0.775,0.623,1.414,1.391,1.414C-1900.678,1016.852-1900.056,1016.213-1900.056,1015.438L-1900.056,1015.438z"/>
	</g>
	<g id="CIRCLE_160_">
		
			<path fill="#231F20" stroke="#231F20" stroke-width="0.5" stroke-linecap="round" stroke-linejoin="round" stroke-miterlimit="10" d="
			M-1876.599,1031c0-0.86-0.707-1.56-1.56-1.56c-0.861,0-1.561,0.699-1.561,1.56c0,0.869,0.7,1.561,1.561,1.561
			C-1877.306,1032.561-1876.599,1031.869-1876.599,1031L-1876.599,1031z"/>
	</g>
	<g>
		<g id="LWPOLYLINE_549_">
			
				<rect x="-1909.466" y="1098.687" fill="#FFFFFF" stroke="#FFFFFF" stroke-width="0.5" stroke-miterlimit="10" width="76.917" height="76.917"/>
		</g>
		<g id="LWPOLYLINE_1809_">
			<polygon fill="none" stroke="#231F20" stroke-width="0.5" stroke-miterlimit="10" points="-1886.541,1110.246 
				-1902.073,1137.146 -1886.541,1164.045 -1855.483,1164.045 -1839.943,1137.146 -1855.483,1110.246 			"/>
		</g>
		<g id="LWPOLYLINE_1810_">
			
				<rect x="-1905.624" y="1102.529" fill="none" stroke="#231F20" stroke-width="0.5" stroke-miterlimit="10" width="69.231" height="69.231"/>
		</g>
		<g id="CIRCLE_287_">
			
				<path fill="#231F20" stroke="#231F20" stroke-width="0.5" stroke-linecap="round" stroke-linejoin="round" stroke-miterlimit="10" d="
				M-1868.81,1137.146c0-1.215-0.983-2.198-2.198-2.198s-2.198,0.983-2.198,2.198c0,1.214,0.984,2.198,2.198,2.198
				S-1868.81,1138.359-1868.81,1137.146L-1868.81,1137.146z"/>
		</g>
	</g>
	<g>
		<g>
			<g id="CIRCLE_285_" opacity="0.5">
				
					<path fill="#FFFFFF" stroke="#FFFFFF" stroke-width="0.7087" stroke-linecap="round" stroke-linejoin="round" stroke-miterlimit="10" d="
					M-1783.374,1305.574c0-48.442-39.262-87.692-87.692-87.692c-48.438,0-87.692,39.25-87.692,87.692
					c0,48.427,39.254,87.692,87.692,87.692C-1822.635,1393.267-1783.374,1354.001-1783.374,1305.574L-1783.374,1305.574z"/>
			</g>
			<g id="LWPOLYLINE_1628_">
				
					<line fill="none" stroke="#231F20" stroke-width="0.1" stroke-miterlimit="10" x1="-1820.868" y1="1245.75" x2="-1816.402" y2="1240.424"/>
			</g>
			<g id="LWPOLYLINE_1627_">
				
					<line fill="none" stroke="#231F20" stroke-width="0.1" stroke-miterlimit="10" x1="-1811.245" y1="1255.38" x2="-1805.22" y2="1250.323"/>
			</g>
			<g id="LWPOLYLINE_1624_">
				
					<line fill="none" stroke="#231F20" stroke-width="0.1" stroke-miterlimit="10" x1="-1797.688" y1="1278.867" x2="-1790.291" y2="1276.177"/>
			</g>
			<g id="LWPOLYLINE_1621_">
				
					<line fill="none" stroke="#231F20" stroke-width="0.1" stroke-miterlimit="10" x1="-1787.313" y1="1320.338" x2="-1794.16" y2="1319.132"/>
			</g>
			<g id="LWPOLYLINE_1620_">
				
					<line fill="none" stroke="#231F20" stroke-width="0.1" stroke-miterlimit="10" x1="-1794.16" y1="1292.009" x2="-1786.421" y2="1290.642"/>
			</g>
			<g id="LWPOLYLINE_1619_">
				
					<line fill="none" stroke="#231F20" stroke-width="0.1" stroke-miterlimit="10" x1="-1791.147" y1="1334.664" x2="-1797.688" y2="1332.281"/>
			</g>
			<g id="LWPOLYLINE_1618_">
				
					<line fill="none" stroke="#231F20" stroke-width="0.1" stroke-miterlimit="10" x1="-1805.912" y1="1360.241" x2="-1811.245" y2="1355.769"/>
			</g>
			<g id="LWPOLYLINE_1617_">
				
					<line fill="none" stroke="#231F20" stroke-width="0.1" stroke-miterlimit="10" x1="-1816.402" y1="1370.717" x2="-1820.868" y2="1365.398"/>
			</g>
			<g id="LWPOLYLINE_1616_">
				
					<line fill="none" stroke="#231F20" stroke-width="0.1" stroke-miterlimit="10" x1="-1844.358" y1="1232.185" x2="-1841.976" y2="1225.652"/>
			</g>
			<g id="LWPOLYLINE_1615_">
				
					<line fill="none" stroke="#231F20" stroke-width="0.1" stroke-miterlimit="10" x1="-1857.5" y1="1228.673" x2="-1856.298" y2="1221.825"/>
			</g>
			<g id="LWPOLYLINE_1614_">
				
					<line fill="none" stroke="#231F20" stroke-width="0.1" stroke-miterlimit="10" x1="-1884.63" y1="1228.673" x2="-1885.995" y2="1220.918"/>
			</g>
			<g id="LWPOLYLINE_1612_">
				
					<line fill="none" stroke="#231F20" stroke-width="0.1" stroke-miterlimit="10" x1="-1897.773" y1="1232.185" x2="-1900.463" y2="1224.799"/>
			</g>
			<g id="LWPOLYLINE_1610_">
				
					<line fill="none" stroke="#231F20" stroke-width="0.1" stroke-miterlimit="10" x1="-1921.264" y1="1245.75" x2="-1926.325" y2="1239.732"/>
			</g>
			<g id="LWPOLYLINE_1609_">
				
					<line fill="none" stroke="#231F20" stroke-width="0.1" stroke-miterlimit="10" x1="-1930.886" y1="1255.38" x2="-1936.22" y2="1250.899"/>
			</g>
			<g id="LWPOLYLINE_1606_">
				
					<line fill="none" stroke="#231F20" stroke-width="0.1" stroke-miterlimit="10" x1="-1944.443" y1="1278.867" x2="-1950.984" y2="1276.484"/>
			</g>
			<g id="LWPOLYLINE_1605_">
				
					<line fill="none" stroke="#231F20" stroke-width="0.1" stroke-miterlimit="10" x1="-1954.819" y1="1320.338" x2="-1947.971" y2="1319.132"/>
			</g>
			<g id="LWPOLYLINE_1604_">
				
					<line fill="none" stroke="#231F20" stroke-width="0.1" stroke-miterlimit="10" x1="-1947.971" y1="1292.009" x2="-1954.819" y2="1290.811"/>
			</g>
			<g id="LWPOLYLINE_1601_">
				
					<line fill="none" stroke="#231F20" stroke-width="0.1" stroke-miterlimit="10" x1="-1936.22" y1="1360.241" x2="-1930.886" y2="1355.769"/>
			</g>
			<g id="LWPOLYLINE_1600_">
				
					<line fill="none" stroke="#231F20" stroke-width="0.1" stroke-miterlimit="10" x1="-1925.729" y1="1370.717" x2="-1921.264" y2="1365.398"/>
			</g>
			<g id="LWPOLYLINE_1599_">
				
					<line fill="none" stroke="#231F20" stroke-width="0.1" stroke-miterlimit="10" x1="-1950.984" y1="1334.664" x2="-1944.443" y2="1332.281"/>
			</g>
			<g id="LWPOLYLINE_1598_">
				
					<line fill="none" stroke="#231F20" stroke-width="0.1" stroke-miterlimit="10" x1="-1856.298" y1="1389.323" x2="-1857.5" y2="1382.476"/>
			</g>
			<g id="LWPOLYLINE_1597_">
				
					<line fill="none" stroke="#231F20" stroke-width="0.1" stroke-miterlimit="10" x1="-1885.841" y1="1389.323" x2="-1884.63" y2="1382.476"/>
			</g>
			<g id="LWPOLYLINE_1596_">
				
					<line fill="none" stroke="#231F20" stroke-width="0.1" stroke-miterlimit="10" x1="-1841.976" y1="1385.496" x2="-1844.358" y2="1378.948"/>
			</g>
			<g id="LWPOLYLINE_1595_">
				
					<line fill="none" stroke="#231F20" stroke-width="0.1" stroke-miterlimit="10" x1="-1900.155" y1="1385.496" x2="-1897.773" y2="1378.948"/>
			</g>
			<g id="LWPOLYLINE_1775_">
				
					<line fill="none" stroke="#231F20" stroke-width="0.25" stroke-miterlimit="10" x1="-1797.419" y1="1263.042" x2="-1810.139" y2="1270.397"/>
			</g>
			<g id="LWPOLYLINE_1780_">
				
					<line fill="none" stroke="#231F20" stroke-width="0.25" stroke-miterlimit="10" x1="-1797.304" y1="1348.16" x2="-1807.91" y2="1342.034"/>
			</g>
			<g id="LWPOLYLINE_1789_">
				
					<line fill="none" stroke="#231F20" stroke-width="0.25" stroke-miterlimit="10" x1="-1828.642" y1="1232.101" x2="-1835.885" y2="1244.65"/>
			</g>
			<g id="LWPOLYLINE_1790_">
				
					<line fill="none" stroke="#231F20" stroke-width="0.25" stroke-miterlimit="10" x1="-1906.246" y1="1244.65" x2="-1913.586" y2="1231.916"/>
			</g>
			<g id="LWPOLYLINE_1794_">
				
					<line fill="none" stroke="#231F20" stroke-width="0.25" stroke-miterlimit="10" x1="-1932.101" y1="1270.574" x2="-1944.82" y2="1263.227"/>
			</g>
			<g id="LWPOLYLINE_1795_">
				
					<line fill="none" stroke="#231F20" stroke-width="0.25" stroke-miterlimit="10" x1="-1828.545" y1="1379.225" x2="-1835.885" y2="1366.497"/>
			</g>
			<g id="LWPOLYLINE_1798_">
				
					<line fill="none" stroke="#231F20" stroke-width="0.25" stroke-miterlimit="10" x1="-1906.246" y1="1366.497" x2="-1913.693" y2="1379.401"/>
			</g>
			<g id="LWPOLYLINE_1800_">
				
					<line fill="none" stroke="#231F20" stroke-width="0.25" stroke-miterlimit="10" x1="-1931.993" y1="1340.743" x2="-1944.72" y2="1348.099"/>
			</g>
			<g id="HATCH_43_">
				<polygon fill-rule="evenodd" clip-rule="evenodd" fill="#231F20" points="-1866.404,1372.945 -1875.581,1372.953 
					-1871.065,1389.708 				"/>
			</g>
			<g id="ARC_326_">
				<path fill="#231F20" d="M-1875.581,1372.969c3.055,0.2,6.118,0.2,9.177-0.016"/>
			</g>
			<g id="LINE_56_">
				<line fill="#231F20" x1="-1872.076" y1="1373.107" x2="-1869.913" y2="1373.107"/>
			</g>
			<g id="LINE_54_">
				<line fill="#231F20" x1="-1872.076" y1="1360.441" x2="-1869.913" y2="1360.441"/>
			</g>
			<g id="HATCH_41_">
				<polygon fill-rule="evenodd" clip-rule="evenodd" fill="#231F20" points="-1803.683,1300.917 -1803.675,1310.078 
					-1786.928,1305.574 				"/>
			</g>
			<g id="ARC_325_">
				<path fill="#231F20" d="M-1803.675,1310.086c0.204-3.052,0.204-6.118-0.008-9.169"/>
			</g>
			<g id="LINE_48_">
				<line fill="#231F20" x1="-1803.529" y1="1306.581" x2="-1803.529" y2="1304.414"/>
			</g>
			<g id="LWPOLYLINE_1229_">
				<line fill="#231F20" x1="-1871.065" y1="1221.44" x2="-1866.55" y2="1238.18"/>
			</g>
			<g id="LWPOLYLINE_1228_">
				<line fill="#231F20" x1="-1875.734" y1="1238.195" x2="-1871.065" y2="1221.44"/>
			</g>
			<g id="HATCH_39_">
				<polygon fill-rule="evenodd" clip-rule="evenodd" fill="#231F20" points="-1875.734,1238.195 -1866.55,1238.195 
					-1871.065,1221.44 				"/>
			</g>
			<g id="ARC_324_">
				<path fill="#231F20" d="M-1866.55,1238.18c-3.055-0.2-6.129-0.2-9.184,0.016"/>
			</g>
			<g id="LINE_40_">
				<line fill="#231F20" x1="-1870.055" y1="1238.026" x2="-1872.218" y2="1238.026"/>
			</g>
			<g id="LWPOLYLINE_1227_">
				<line fill="#231F20" x1="-1955.203" y1="1305.574" x2="-1938.457" y2="1301.063"/>
			</g>
			<g id="LWPOLYLINE_1226_">
				<line fill="#231F20" x1="-1938.449" y1="1310.231" x2="-1955.203" y2="1305.574"/>
			</g>
			<g id="HATCH_37_">
				<polygon fill-rule="evenodd" clip-rule="evenodd" fill="#231F20" points="-1938.449,1310.231 -1938.457,1301.048 
					-1955.203,1305.574 				"/>
			</g>
			<g id="ARC_323_">
				<path fill="#231F20" d="M-1938.457,1301.063c-0.204,3.052-0.204,6.118,0.008,9.169"/>
			</g>
			<g id="LINE_9_">
				<line fill="#231F20" x1="-1938.603" y1="1304.567" x2="-1938.603" y2="1306.727"/>
			</g>
			<g id="LINE_5_">
				<line fill="#231F20" x1="-1925.929" y1="1304.567" x2="-1925.929" y2="1306.727"/>
			</g>
			<g id="LWPOLYLINE_1772_">
				
					<path fill="none" stroke="#231F20" stroke-width="0.25" stroke-linecap="round" stroke-linejoin="round" stroke-miterlimit="10" d="
					M-1785.91,1303.922c-0.911-47.036-39.773-84.418-86.808-83.504c-47.036,0.915-84.415,39.773-83.504,86.809
					c0.911,47.028,39.773,84.418,86.809,83.504c46.382-0.899,83.522-38.767,83.522-85.156
					C-1785.891,1305.013-1785.898,1304.468-1785.91,1303.922z"/>
			</g>
			<g id="TEXT_88_">
				<text transform="matrix(1 0 0 1 -1874.4829 1250.9736)" fill="#231F20" font-family="'Verdana'" font-size="11.9286">0</text>
			</g>
			<g id="TEXT_89_">
				<text transform="matrix(1 0 0 1 -1820.2681 1309.7666)" fill="#231F20" font-family="'Verdana'" font-size="11.9286">90</text>
			</g>
			<g id="TEXT_90_">
				<text transform="matrix(1 0 0 1 -1879.8071 1368.1455)" fill="#231F20" font-family="'Verdana'" font-size="11.9286">180</text>
			</g>
			<g id="TEXT_91_">
				<text transform="matrix(1 0 0 1 -1934.4673 1309.7666)" fill="#231F20" font-family="'Verdana'" font-size="11.9286">270</text>
			</g>
		</g>
		<path fill="#231F20" stroke="#231F20" stroke-width="0.1" d="M-1869.609,1305.505c0,0.8-0.653,1.453-1.456,1.453
			c-0.803,0-1.457-0.653-1.457-1.453c0-0.799,0.653-1.46,1.457-1.46C-1870.263,1304.045-1869.609,1304.706-1869.609,1305.505z"/>
	</g>
</g>
<g id="WAYPOINT_SYMBOL">
	<g>
		<g id="LWPOLYLINE_19_">
			<polygon fill="#FFFFFF" stroke="#FFFFFF" stroke-width="0.5" stroke-miterlimit="10" points="-1604.535,1392.121 
				-1575.083,1341.12 -1545.648,1392.121 			"/>
		</g>
		<g id="LWPOLYLINE_12_">
			<polygon fill="#231F20" stroke="#231F20" stroke-width="0.5" stroke-miterlimit="10" points="-1598.939,1388.894 
				-1575.083,1347.583 -1551.243,1388.894 			"/>
		</g>
		<g id="CIRCLE_11_">
			
				<path fill="#FFFFFF" stroke="#FFFFFF" stroke-width="0.5" stroke-linecap="round" stroke-linejoin="round" stroke-miterlimit="10" d="
				M-1573.254,1375.121c0-1.015-0.83-1.829-1.829-1.829c-1.015,0-1.845,0.814-1.845,1.829c0,1.014,0.83,1.837,1.845,1.837
				C-1574.084,1376.958-1573.254,1376.135-1573.254,1375.121L-1573.254,1375.121z"/>
		</g>
	</g>
	<g>
		<g id="LWPOLYLINE_11_">
			<polygon fill="#FFFFFF" stroke="#FFFFFF" stroke-width="0.5" stroke-miterlimit="10" points="-1514.122,1390.907 
				-1484.671,1339.89 -1455.235,1390.907 			"/>
		</g>
		<g id="LWPOLYLINE_10_">
			<polygon fill="#FFFFFF" stroke="#231F20" stroke-width="0.5" stroke-miterlimit="10" points="-1508.527,1387.671 
				-1484.671,1346.361 -1460.831,1387.671 			"/>
		</g>
		<g id="CIRCLE_7_">
			
				<path fill="#231F20" stroke="#231F20" stroke-width="0.5" stroke-linecap="round" stroke-linejoin="round" stroke-miterlimit="10" d="
				M-1482.842,1373.906c0-1.022-0.83-1.845-1.829-1.845c-1.015,0-1.845,0.822-1.845,1.845c0,1.007,0.83,1.829,1.845,1.829
				C-1483.672,1375.735-1482.842,1374.913-1482.842,1373.906L-1482.842,1373.906z"/>
		</g>
	</g>
</g>
<g id="Wpt_Symbol">
	<g>
		<g id="LWPOLYLINE_73_">
			<polygon fill="#FFFFFF" points="-1590.374,1199.506 -1630.131,1213.793 -1590.374,1228.081 -1576.086,1267.838 
				-1561.795,1228.081 -1522.038,1213.793 -1561.795,1199.506 -1576.086,1159.741 			"/>
		</g>
		<g id="HATCH_57_">
			<path fill-rule="evenodd" clip-rule="evenodd" fill="#FFFFFF" d="M-1566.191,1203.895l-9.888-27.561l-9.907,27.561l-27.541,9.898
				l27.541,9.907l9.907,27.537l9.888-27.537l27.56-9.907L-1566.191,1203.895z M-1564.939,1213.793h-22.284H-1564.939z"/>
		</g>
		<g id="LWPOLYLINE_58_">
			<polygon fill="none" stroke="#231F20" stroke-width="0.5" stroke-linecap="round" stroke-miterlimit="10" points="
				-1585.986,1203.895 -1613.535,1213.793 -1585.986,1223.692 -1576.086,1251.237 -1566.184,1223.692 -1538.639,1213.793 
				-1566.184,1203.895 -1576.086,1176.342 			"/>
		</g>
		<g id="CIRCLE_26_">
			
				<path fill="none" stroke="#231F20" stroke-width="0.5" stroke-linecap="round" stroke-linejoin="round" stroke-miterlimit="10" d="
				M-1564.939,1213.793c0-6.155-4.992-11.144-11.147-11.144c-6.152,0-11.144,4.988-11.144,11.144
				c0,6.156,4.992,11.145,11.144,11.145C-1569.931,1224.938-1564.939,1219.949-1564.939,1213.793L-1564.939,1213.793z"/>
		</g>
	</g>
	<g>
		<g id="LWPOLYLINE_52_">
			<polygon fill="#FFFFFF" points="-1409.014,1199.422 -1448.764,1213.701 -1409.014,1227.988 -1394.727,1267.738 
				-1380.439,1227.988 -1340.69,1213.701 -1380.439,1199.422 -1394.727,1159.664 			"/>
		</g>
		<g id="HATCH_22_">
			<path fill-rule="evenodd" clip-rule="evenodd" fill="#FFFFFF" d="M-1384.835,1203.817l-9.892-27.553l-9.899,27.553l-27.537,9.876
				l27.537,9.907l9.899,27.545l9.892-27.545l27.552-9.907L-1384.835,1203.817z M-1383.583,1213.693h-22.28H-1383.583z"/>
		</g>
		<path fill="#FFFFFF" d="M-1446.639,1213.701c0-28.659,23.241-51.9,51.908-51.9c28.667,0,51.904,23.241,51.904,51.9
			c0,28.675-23.237,51.908-51.904,51.908C-1423.398,1265.609-1446.639,1242.376-1446.639,1213.701z"/>
		<g id="LWPOLYLINE_51_">
			<polygon fill="#231F20" stroke="#231F20" stroke-width="0.5" stroke-linecap="round" stroke-miterlimit="10" points="
				-1404.626,1203.802 -1432.171,1213.701 -1404.626,1223.601 -1394.727,1251.146 -1384.828,1223.601 -1357.291,1213.701 
				-1384.828,1203.802 -1394.727,1176.265 			"/>
		</g>
		<path fill="none" stroke="#231F20" stroke-width="0.5" stroke-linecap="round" stroke-miterlimit="10" d="M-1435.91,1213.701
			c0-22.741,18.438-41.172,41.179-41.172c22.742,0,41.179,18.431,41.179,41.172c0,22.749-18.438,41.179-41.179,41.179
			C-1417.472,1254.88-1435.91,1236.45-1435.91,1213.701z"/>
		<g id="CIRCLE_9_">
			
				<path fill="#FFFFFF" stroke="#FFFFFF" stroke-width="0.5" stroke-linecap="round" stroke-linejoin="round" stroke-miterlimit="10" d="
				M-1383.583,1213.701c0-6.148-4.988-11.145-11.144-11.145s-11.144,4.996-11.144,11.145c0,6.156,4.988,11.144,11.144,11.144
				S-1383.583,1219.857-1383.583,1213.701L-1383.583,1213.701z"/>
		</g>
	</g>
</g>
<g id="BASEMAP">
	<g id="LWPOLYLINE_291_">
		<polyline fill="none" stroke="#2E3191" stroke-width="8" stroke-miterlimit="10" points="-1427.848,677.742 -1481.634,545.355 
			-1534.731,677.742 		"/>
	</g>
	<g id="LINE_83_">
		
			<line fill="none" stroke="#2E3191" stroke-width="8" stroke-miterlimit="10" x1="-1507.089" y1="545.355" x2="-1557.483" y2="545.355"/>
	</g>
	<g id="LINE_82_">
		
			<line fill="none" stroke="#2E3191" stroke-width="8" stroke-miterlimit="10" x1="-1504.017" y1="533.782" x2="-1545.049" y2="503.895"/>
	</g>
	<g id="LINE_81_">
		
			<line fill="none" stroke="#2E3191" stroke-width="8" stroke-miterlimit="10" x1="-1481.634" y1="521.948" x2="-1481.634" y2="469.593"/>
	</g>
	<g id="LINE_80_">
		
			<line fill="none" stroke="#2E3191" stroke-width="8" stroke-miterlimit="10" x1="-1460.9" y1="533.782" x2="-1415.831" y2="503.895"/>
	</g>
	<g id="LINE_79_">
		
			<line fill="none" stroke="#2E3191" stroke-width="8" stroke-miterlimit="10" x1="-1456.437" y1="545.355" x2="-1405.871" y2="545.355"/>
	</g>
	<circle fill="none" stroke="#2E3191" stroke-width="8" stroke-miterlimit="10" cx="-1481.849" cy="660.302" r="6.527"/>
	<g id="LWPOLYLINE_2_">
		<polyline fill="none" stroke="#2E3191" stroke-width="8" stroke-miterlimit="10" points="-1434.934,873.9 -1488.72,741.514 
			-1541.817,873.9 		"/>
	</g>
	<circle fill="none" stroke="#2E3191" stroke-width="8" stroke-miterlimit="10" cx="-1488.935" cy="856.461" r="6.527"/>
	<g id="LWPOLYLINE_3_">
		<polyline fill="none" stroke="#2E3191" stroke-width="8" stroke-miterlimit="10" points="-1000.714,504.439 -1054.499,372.053 
			-1107.597,504.439 		"/>
	</g>
	<g id="LINE_12_">
		
			<line fill="none" stroke="#2E3191" stroke-width="8" stroke-miterlimit="10" x1="-1079.954" y1="372.053" x2="-1130.349" y2="372.053"/>
	</g>
	<g id="LINE_11_">
		
			<line fill="none" stroke="#2E3191" stroke-width="8" stroke-miterlimit="10" x1="-1076.883" y1="360.48" x2="-1117.915" y2="330.592"/>
	</g>
	<g id="LINE_10_">
		
			<line fill="none" stroke="#2E3191" stroke-width="8" stroke-miterlimit="10" x1="-1054.499" y1="348.646" x2="-1054.499" y2="296.291"/>
	</g>
	<circle fill="none" stroke="#2E3191" stroke-width="8" stroke-miterlimit="10" cx="-1054.714" cy="487" r="6.527"/>
	<g id="LWPOLYLINE_4_">
		<polyline fill="none" stroke="#2E3191" stroke-width="8" stroke-miterlimit="10" points="-924.907,504.439 -978.692,372.053 
			-1031.79,504.439 		"/>
	</g>
	<g id="LINE_15_">
		
			<line fill="none" stroke="#2E3191" stroke-width="8" stroke-miterlimit="10" x1="-978.692" y1="348.646" x2="-978.692" y2="296.291"/>
	</g>
	<g id="LINE_14_">
		
			<line fill="none" stroke="#2E3191" stroke-width="8" stroke-miterlimit="10" x1="-957.96" y1="360.48" x2="-912.89" y2="330.592"/>
	</g>
	<g id="LINE_13_">
		
			<line fill="none" stroke="#2E3191" stroke-width="8" stroke-miterlimit="10" x1="-953.495" y1="372.053" x2="-902.931" y2="372.053"/>
	</g>
	<circle fill="none" stroke="#2E3191" stroke-width="8" stroke-miterlimit="10" cx="-978.907" cy="487" r="6.527"/>
	<g id="LWPOLYLINE_14_">
		<polyline fill="none" stroke="#2E3191" stroke-width="8" stroke-miterlimit="10" points="-759.94,887.783 -813.726,755.396 
			-866.823,887.783 		"/>
	</g>
	<circle fill="none" stroke="#2E3191" stroke-width="8" stroke-miterlimit="10" cx="-813.94" cy="870.344" r="6.527"/>
	<g id="LWPOLYLINE_5_">
		<polyline fill="none" stroke="#2E3191" stroke-width="8" stroke-miterlimit="10" points="-684.134,887.783 -737.919,755.396 
			-791.017,887.783 		"/>
	</g>
	<circle fill="none" stroke="#2E3191" stroke-width="8" stroke-miterlimit="10" cx="-738.134" cy="870.344" r="6.527"/>
</g>
</svg>
