<?xml version="1.0" encoding="utf-8"?>
<!-- Generator: Adobe Illustrator 15.0.0, SVG Export Plug-In . SVG Version: 6.00 Build 0)  -->
<!DOCTYPE svg PUBLIC "-//W3C//DTD SVG 1.1//EN" "http://www.w3.org/Graphics/SVG/1.1/DTD/svg11.dtd">
<svg version="1.1" xmlns="http://www.w3.org/2000/svg" xmlns:xlink="http://www.w3.org/1999/xlink" x="0px" y="0px" width="8.128px"
	 height="7.036px" viewBox="0 0 8.128 7.036" enable-background="new 0 0 8.128 7.036" xml:space="preserve">
<g id="Layer_1">
</g>
<g id="ANC_LEGEND">
	<text transform="matrix(1 0.0018 -0.0018 1 128.6353 34.9302)" fill="#232020" font-family="'CenturyGothic'" font-size="7.5">TACAN</text>
	<text transform="matrix(1 0.0018 -0.0018 1 166.3179 35.0259)" fill="#232020" font-family="'CenturyGothic'" font-size="7.5">VORTAC</text>
	<g>
		<polygon fill="none" stroke="#242224" stroke-width="0.5" points="211.013,11.004 209.13,14.256 211.003,17.512 214.755,17.518 
			216.643,14.27 214.768,11.012 		"/>
		<circle fill="#232020" stroke="#232020" stroke-width="0.5" cx="212.887" cy="14.262" r="0.281"/>
	</g>
	<g>
		
			<rect x="275.308" y="9.888" transform="matrix(1 0.0019 -0.0019 1 0.028 -0.529)" opacity="0.75" fill="#FFFFFF" stroke="#FFFFFF" stroke-width="0.1764" stroke-linecap="round" stroke-linejoin="round" width="9.302" height="9.303"/>
		<polygon fill="none" stroke="#242224" stroke-width="0.5" points="278.086,11.284 276.204,14.536 278.076,17.79 281.831,17.797 
			283.716,14.547 281.841,11.292 		"/>
		
			<rect x="275.774" y="10.355" transform="matrix(1 0.0016 -0.0016 1 0.0241 -0.4573)" fill="none" stroke="#242224" stroke-width="0.5" width="8.369" height="8.373"/>
		<path fill="#232020" stroke="#232020" stroke-width="0.5" stroke-linecap="round" stroke-linejoin="round" d="M280.239,14.538
			c0,0.156-0.124,0.281-0.28,0.281c-0.152,0-0.278-0.125-0.278-0.281c0-0.152,0.126-0.277,0.278-0.277
			C280.115,14.26,280.239,14.385,280.239,14.538z"/>
	</g>
	<g>
		
			<rect x="266.458" y="46.334" transform="matrix(1 0.0019 -0.0019 1 0.0968 -0.5122)" opacity="0.75" fill="#FFFFFF" stroke="#FFFFFF" stroke-width="0.1764" stroke-linecap="round" stroke-linejoin="round" width="9.302" height="9.303"/>
		
			<rect x="266.923" y="46.801" transform="matrix(1 0.0016 -0.0016 1 0.0836 -0.4428)" fill="none" stroke="#242224" stroke-width="0.5" width="8.369" height="8.373"/>
		<path fill="#232020" stroke="#232020" stroke-width="0.5" stroke-linecap="round" stroke-linejoin="round" d="M271.389,50.984
			c0,0.156-0.124,0.281-0.28,0.281c-0.153,0-0.278-0.125-0.278-0.281c0-0.152,0.125-0.277,0.278-0.277
			C271.265,50.707,271.389,50.832,271.389,50.984z"/>
	</g>
	<g>
		<g>
			<polygon fill="none" stroke="#232020" stroke-width="0.1764" stroke-linecap="round" stroke-linejoin="round" points="
				143.29,12.479 142.66,12.844 138.461,12.836 137.831,12.473 136.234,15.231 136.862,15.594 138.957,19.237 138.957,19.963 
				142.145,19.967 142.145,19.243 144.252,15.608 144.882,15.247 			"/>
			<polygon fill="none" stroke="#232020" stroke-width="0.1764" stroke-linecap="round" stroke-linejoin="round" points="
				143.437,11.936 142.555,12.444 138.568,12.438 137.687,11.928 135.69,15.377 136.571,15.887 138.556,19.344 138.556,20.358 
				142.543,20.366 142.543,19.35 144.542,15.903 145.424,15.393 			"/>
			<polygon fill="none" stroke="#FFFFFF" stroke-width="0.1764" stroke-linecap="round" stroke-linejoin="round" points="
				143.585,11.393 142.448,12.045 138.676,12.04 137.543,11.383 135.146,15.522 136.278,16.178 138.158,19.448 138.156,20.758 
				142.938,20.766 142.941,19.456 144.833,16.19 145.968,15.54 			"/>
			
				<circle fill="none" stroke="#232020" stroke-width="0.25" stroke-linecap="round" stroke-linejoin="round" cx="140.556" cy="15.894" r="0.266"/>
		</g>
	</g>
	<g>
		<g>
			<polygon fill="none" stroke="#232020" stroke-width="0.1764" stroke-linecap="round" stroke-linejoin="round" points="
				176.632,6.319 176.002,6.682 171.803,6.676 171.173,6.311 169.576,9.071 170.204,9.434 172.298,13.077 172.298,13.801 
				175.487,13.807 175.487,13.083 177.594,9.446 178.224,9.084 			"/>
			<polygon fill="none" stroke="#232020" stroke-width="0.1764" stroke-linecap="round" stroke-linejoin="round" points="
				176.778,5.774 175.897,6.282 171.91,6.278 171.029,5.768 169.032,9.217 169.913,9.727 171.898,13.184 171.898,14.198 
				175.885,14.206 175.885,13.19 177.884,9.743 178.766,9.231 			"/>
			<polygon fill="none" stroke="#FFFFFF" stroke-width="0.1764" stroke-linecap="round" stroke-linejoin="round" points="
				176.927,5.233 175.79,5.885 172.018,5.879 170.885,5.223 168.487,9.362 169.62,10.018 171.5,13.288 171.498,14.598 
				176.28,14.606 176.283,13.293 178.175,10.03 179.31,9.377 			"/>
			<path fill="none" stroke="#232020" stroke-width="0.25" stroke-linecap="round" stroke-linejoin="round" d="M174.164,9.735
				c0,0.146-0.12,0.264-0.266,0.264s-0.266-0.117-0.266-0.266c0-0.15,0.12-0.264,0.266-0.264S174.164,9.586,174.164,9.735z"/>
		</g>
		<polygon fill="none" stroke="#242224" stroke-width="0.15" stroke-linecap="round" stroke-linejoin="round" points="
			171.803,6.676 170.204,9.434 172.298,13.077 175.487,13.083 177.594,9.446 175.897,6.682 		"/>
		<polygon fill="#232020" points="178.224,9.084 177.594,9.446 175.897,6.682 176.632,6.319 		"/>
		<polygon fill="#232020" points="170.204,9.434 169.576,9.071 171.202,6.266 171.803,6.676 		"/>
		<rect x="172.298" y="13.08" fill="#232020" width="3.188" height="0.725"/>
	</g>
	<g>
		<circle fill="#FFFFFF" cx="325.159" cy="25.92" r="6.657"/>
		<g>
			<path fill="#2E3192" d="M327,20.485c-0.133,0-0.238-0.107-0.238-0.238c0-0.135,0.107-0.238,0.238-0.236
				c0.133,0,0.24,0.104,0.239,0.234C327.239,20.377,327.132,20.485,327,20.485z"/>
			<path fill="#2E3192" d="M329.979,22.653c-0.133,0-0.238-0.107-0.238-0.236c0-0.133,0.107-0.24,0.238-0.238
				c0.133,0,0.24,0.104,0.238,0.238C330.218,22.545,330.111,22.653,329.979,22.653z"/>
			<path fill="#2E3192" d="M329.372,21.942c-0.132,0-0.237-0.109-0.237-0.238c0-0.135,0.105-0.24,0.238-0.24
				c0.131,0.002,0.236,0.107,0.237,0.238C329.612,21.834,329.505,21.942,329.372,21.942z"/>
			<circle fill="#2E3192" cx="326.982" cy="21.509" r="0.237"/>
			<circle fill="#2E3192" cx="326.944" cy="22.818" r="0.239"/>
			<path fill="#2E3192" d="M327.807,22.19c-0.133,0-0.24-0.105-0.238-0.24c-0.001-0.129,0.107-0.238,0.238-0.238
				c0.133,0,0.236,0.107,0.236,0.24C328.044,22.083,327.938,22.188,327.807,22.19z"/>
			<path fill="#2E3192" d="M328.528,22.784c-0.13,0.002-0.239-0.107-0.239-0.236c0.001-0.135,0.108-0.24,0.241-0.24
				c0.13,0.002,0.239,0.105,0.239,0.238C328.77,22.676,328.662,22.784,328.528,22.784z"/>
			<path fill="#2E3192" d="M328.662,21.333c-0.131,0-0.24-0.105-0.24-0.238c0.001-0.131,0.108-0.238,0.242-0.238
				c0.129,0.002,0.234,0.107,0.234,0.238C328.9,21.227,328.795,21.333,328.662,21.333z"/>
			<circle fill="#2E3192" cx="327.864" cy="20.605" r="0.239"/>
			<path fill="#2E3192" d="M331.041,25.227c-0.129,0-0.236-0.109-0.235-0.24c-0.001-0.133,0.107-0.238,0.235-0.24
				c0.133,0.002,0.24,0.109,0.239,0.24C331.28,25.12,331.173,25.225,331.041,25.227z"/>
			<circle fill="#2E3192" cx="330.825" cy="24.077" r="0.238"/>
			<path fill="#2E3192" d="M331.115,26.161c-0.13-0.002-0.236-0.109-0.236-0.238c-0.002-0.135,0.105-0.24,0.238-0.24
				c0.129-0.002,0.236,0.107,0.236,0.238C331.354,26.053,331.246,26.161,331.115,26.161z"/>
			<path fill="#2E3192" d="M331.041,27.09c-0.13,0-0.237-0.105-0.236-0.238c0-0.131,0.106-0.24,0.235-0.236
				c0.133,0,0.24,0.104,0.239,0.238C331.279,26.983,331.172,27.09,331.041,27.09z"/>
			<path fill="#2E3192" d="M329.834,25.227c-0.133,0.002-0.241-0.105-0.24-0.24c0-0.129,0.107-0.236,0.24-0.236
				c0.128,0,0.235,0.105,0.237,0.238C330.07,25.12,329.963,25.229,329.834,25.227z"/>
			<circle fill="#2E3192" cx="329.561" cy="24.094" r="0.238"/>
			<path fill="#2E3192" d="M327.683,23.627c-0.13-0.002-0.237-0.109-0.236-0.238c0-0.135,0.106-0.24,0.239-0.24
				c0.129-0.002,0.238,0.107,0.238,0.238C327.924,23.52,327.816,23.627,327.683,23.627z"/>
			<path fill="#2E3192" d="M327.358,25.243c-0.134,0-0.24-0.105-0.239-0.238c0-0.133,0.107-0.236,0.238-0.236
				c0.133-0.002,0.237,0.104,0.236,0.238C327.594,25.135,327.488,25.243,327.358,25.243z"/>
			<circle fill="#2E3192" cx="326.841" cy="24.23" r="0.237"/>
			<circle fill="#2E3192" stroke="#29256A" stroke-width="0.5" stroke-miterlimit="10" cx="325.156" cy="25.912" r="0.237"/>
			<circle fill="#2E3192" cx="328.61" cy="24.993" r="0.238"/>
			<path fill="#2E3192" d="M328.252,24.368c-0.133,0-0.236-0.105-0.236-0.24c0-0.129,0.105-0.236,0.236-0.236
				c0.133,0,0.238,0.105,0.238,0.238C328.49,24.26,328.383,24.37,328.252,24.368z"/>
			<circle fill="#2E3192" cx="329.923" cy="25.918" r="0.238"/>
			<path fill="#2E3192" d="M328.732,26.155c-0.134,0-0.24-0.104-0.24-0.238c0-0.129,0.108-0.236,0.238-0.238
				c0.133,0,0.237,0.109,0.237,0.24C328.967,26.049,328.862,26.157,328.732,26.155z"/>
			<path fill="#2E3192" d="M329.832,27.088c-0.133,0-0.24-0.105-0.238-0.24c-0.001-0.129,0.107-0.234,0.238-0.236
				c0.13,0,0.236,0.105,0.236,0.238C330.068,26.981,329.961,27.086,329.832,27.088z"/>
			<circle fill="#2E3192" cx="327.537" cy="25.917" r="0.238"/>
			<path fill="#2E3192" d="M327.355,27.067c-0.131,0.002-0.238-0.105-0.24-0.238c0.002-0.131,0.108-0.236,0.242-0.236
				c0.129,0,0.236,0.105,0.236,0.238C327.594,26.959,327.488,27.069,327.355,27.067z"/>
			<circle fill="#2E3192" cx="328.608" cy="26.844" r="0.238"/>
			<circle fill="#2E3192" cx="329.118" cy="28.569" r="0.238"/>
			<circle fill="#2E3192" cx="329.974" cy="29.424" r="0.24"/>
			<path fill="#2E3192" d="M327.681,28.684c-0.134,0-0.237-0.104-0.237-0.238c0-0.131,0.105-0.236,0.236-0.236
				c0.133,0,0.239,0.104,0.239,0.238C327.918,28.579,327.811,28.684,327.681,28.684z"/>
			<path fill="#2E3192" d="M326.939,29.254c-0.133,0-0.239-0.107-0.238-0.238c-0.001-0.131,0.107-0.24,0.238-0.24
				c0.133,0,0.238,0.107,0.238,0.242C327.178,29.147,327.07,29.252,326.939,29.254z"/>
			<path fill="#2E3192" d="M328.523,29.53c-0.133-0.002-0.239-0.107-0.238-0.238c0-0.133,0.107-0.24,0.238-0.24
				c0.133,0,0.238,0.109,0.239,0.238C328.762,29.424,328.654,29.53,328.523,29.53z"/>
			<circle fill="#2E3192" cx="326.975" cy="30.324" r="0.237"/>
			<path fill="#2E3192" d="M326.99,31.825c-0.13,0.002-0.238-0.105-0.239-0.238c0.001-0.131,0.108-0.236,0.241-0.238
				c0.131,0,0.237,0.109,0.236,0.238C327.23,31.719,327.123,31.827,326.99,31.825z"/>
			<circle fill="#2E3192" cx="327.855" cy="31.23" r="0.237"/>
			<circle fill="#2E3192" cx="328.654" cy="30.742" r="0.239"/>
			<path fill="#2E3192" d="M327.801,30.12c-0.131,0.002-0.24-0.104-0.24-0.234c0-0.133,0.107-0.24,0.24-0.24
				c0.132,0,0.235,0.109,0.238,0.238C328.037,30.018,327.934,30.122,327.801,30.12z"/>
			<path fill="#2E3192" d="M329.365,30.374c-0.133,0-0.237-0.109-0.236-0.238c-0.001-0.131,0.105-0.238,0.235-0.24
				c0.133,0,0.239,0.107,0.239,0.242C329.604,30.266,329.498,30.374,329.365,30.374z"/>
			<circle fill="#2E3192" cx="330.462" cy="28.627" r="0.238"/>
			<circle fill="#2E3192" cx="326.838" cy="27.604" r="0.238"/>
			<circle fill="#2E3192" cx="328.249" cy="27.707" r="0.237"/>
			<circle fill="#2E3192" cx="329.558" cy="27.746" r="0.239"/>
			<path fill="#2E3192" d="M330.822,28.002c-0.133-0.002-0.238-0.107-0.239-0.242c0.001-0.131,0.108-0.236,0.237-0.236
				c0.134,0,0.24,0.107,0.24,0.238S330.955,28.002,330.822,28.002z"/>
			<circle fill="#2E3192" cx="330.467" cy="23.212" r="0.237"/>
			<path fill="#2E3192" d="M329.122,23.506c-0.133,0-0.239-0.105-0.239-0.238c0-0.131,0.109-0.24,0.238-0.238
				c0.133,0,0.237,0.105,0.237,0.24C329.357,23.399,329.254,23.506,329.122,23.506z"/>
			<path fill="#2E3192" d="M326.089,20.266c-0.13,0-0.237-0.109-0.236-0.238c0-0.135,0.105-0.238,0.238-0.236
				c0.13-0.004,0.237,0.104,0.239,0.234C326.33,20.159,326.223,20.264,326.089,20.266z"/>
			<path fill="#2E3192" d="M325.156,20.19c-0.131,0.004-0.235-0.105-0.234-0.236c-0.002-0.135,0.103-0.24,0.234-0.238
				c0.134,0,0.241,0.105,0.24,0.24C325.396,20.084,325.289,20.19,325.156,20.19z"/>
			<path fill="#2E3192" d="M324.225,20.264c-0.133,0-0.239-0.107-0.238-0.238c0-0.135,0.107-0.24,0.238-0.24
				c0.133,0.002,0.238,0.109,0.239,0.238C324.463,20.159,324.355,20.264,324.225,20.264z"/>
			<path fill="#2E3192" d="M323.314,20.481c-0.131,0-0.236-0.104-0.236-0.238c0-0.133,0.104-0.236,0.238-0.236
				c0.131,0,0.236,0.104,0.236,0.238C323.553,20.374,323.445,20.481,323.314,20.481z"/>
			<path fill="#2E3192" d="M326.086,21.477c-0.133,0-0.236-0.109-0.236-0.238c0-0.135,0.105-0.24,0.236-0.24
				c0.133,0.002,0.239,0.107,0.238,0.238C326.324,21.37,326.217,21.477,326.086,21.477z"/>
			<path fill="#2E3192" d="M325.156,21.383c-0.131,0-0.238-0.107-0.238-0.238c0.001-0.131,0.105-0.238,0.238-0.236
				c0.131,0,0.24,0.104,0.24,0.238C325.396,21.276,325.289,21.383,325.156,21.383z"/>
			<path fill="#2E3192" d="M326.082,22.7c-0.131,0-0.239-0.109-0.24-0.238c0.002-0.133,0.109-0.24,0.242-0.238
				c0.128,0,0.236,0.105,0.236,0.238C326.32,22.592,326.213,22.7,326.082,22.7z"/>
			<path fill="#2E3192" d="M325.155,22.577c-0.134,0-0.237-0.107-0.237-0.238c0-0.133,0.105-0.24,0.236-0.238
				c0.133,0,0.239,0.105,0.239,0.238C325.393,22.471,325.288,22.577,325.155,22.577z"/>
			<path fill="#2E3192" d="M324.225,21.477c-0.131,0-0.237-0.109-0.239-0.242c0.001-0.131,0.108-0.236,0.241-0.236
				c0.13,0,0.239,0.105,0.239,0.238C324.465,21.368,324.357,21.475,324.225,21.477z"/>
			<path fill="#2E3192" d="M323.332,21.747c-0.131,0-0.24-0.107-0.24-0.24c0.002-0.131,0.109-0.236,0.242-0.236
				c0.128-0.002,0.234,0.104,0.234,0.238C323.567,21.637,323.463,21.747,323.332,21.747z"/>
			<path fill="#2E3192" d="M324.23,22.698c-0.134,0-0.239-0.107-0.24-0.238c0.002-0.133,0.109-0.24,0.239-0.24
				c0.132,0.002,0.239,0.109,0.239,0.238C324.469,22.592,324.361,22.698,324.23,22.698z"/>
			<circle fill="#2E3192" cx="323.367" cy="22.816" r="0.239"/>
			<circle fill="#2E3192" cx="321.653" cy="21.088" r="0.238"/>
			<circle fill="#2E3192" cx="321.784" cy="22.539" r="0.239"/>
			<path fill="#2E3192" d="M320.94,21.936c-0.133-0.002-0.237-0.109-0.237-0.238c0-0.135,0.105-0.24,0.236-0.24
				c0.133-0.002,0.238,0.107,0.239,0.238C321.178,21.829,321.07,21.934,320.94,21.936z"/>
			<path fill="#2E3192" d="M320.331,22.645c-0.133,0-0.237-0.107-0.236-0.238c-0.001-0.131,0.105-0.238,0.235-0.236
				c0.133-0.002,0.24,0.104,0.239,0.238C320.57,22.538,320.462,22.645,320.331,22.645z"/>
			<circle fill="#2E3192" cx="322.449" cy="20.6" r="0.238"/>
			<circle fill="#2E3192" cx="322.507" cy="21.948" r="0.238"/>
			<path fill="#2E3192" d="M326.066,23.95c-0.131,0.002-0.24-0.104-0.239-0.238c-0.001-0.129,0.107-0.238,0.241-0.238
				c0.131,0,0.239,0.109,0.238,0.242C326.307,23.844,326.199,23.952,326.066,23.95z"/>
			<circle fill="#2E3192" cx="325.154" cy="23.53" r="0.238"/>
			<path fill="#2E3192" d="M324.241,23.952c-0.133,0-0.237-0.109-0.236-0.238c0-0.135,0.105-0.24,0.235-0.242
				c0.133,0.002,0.24,0.109,0.24,0.24C324.48,23.844,324.372,23.95,324.241,23.952z"/>
			<circle fill="#2E3192" cx="322.951" cy="25.001" r="0.239"/>
			<path fill="#2E3192" d="M323.467,24.467c-0.133-0.002-0.237-0.109-0.238-0.238c0.002-0.135,0.106-0.24,0.239-0.24
				c0.132,0,0.237,0.107,0.237,0.238C323.704,24.36,323.6,24.467,323.467,24.467z"/>
			<circle fill="#2E3192" cx="322.95" cy="26.826" r="0.239"/>
			<path fill="#2E3192" d="M321.697,25.227c-0.132-0.002-0.238-0.107-0.238-0.242c0-0.129,0.108-0.236,0.238-0.236
				c0.133,0,0.237,0.107,0.237,0.238C321.934,25.118,321.829,25.225,321.697,25.227z"/>
			<circle fill="#2E3192" cx="322.057" cy="24.125" r="0.239"/>
			<path fill="#2E3192" d="M319.264,25.217c-0.131,0-0.238-0.107-0.238-0.242c0-0.129,0.107-0.234,0.24-0.236
				c0.131,0,0.236,0.109,0.237,0.24C319.502,25.108,319.396,25.217,319.264,25.217z"/>
			<circle fill="#2E3192" cx="319.483" cy="24.069" r="0.238"/>
			<circle fill="#2E3192" cx="320.475" cy="24.981" r="0.238"/>
			<path fill="#2E3192" d="M320.746,24.325c-0.131,0-0.239-0.107-0.238-0.238c0-0.133,0.107-0.24,0.24-0.24
				c0.131,0.002,0.236,0.109,0.239,0.238C320.987,24.219,320.88,24.325,320.746,24.325z"/>
			<circle fill="#2E3192" cx="321.575" cy="25.913" r="0.238"/>
			<path fill="#2E3192" d="M321.697,27.079c-0.133-0.002-0.238-0.107-0.239-0.242c-0.001-0.129,0.107-0.236,0.238-0.236
				c0.133,0,0.237,0.107,0.236,0.238C321.934,26.969,321.83,27.079,321.697,27.079z"/>
			<path fill="#2E3192" d="M320.382,26.151c-0.134,0-0.237-0.109-0.237-0.238c0.002-0.133,0.105-0.24,0.238-0.238
				c0.131,0,0.237,0.105,0.237,0.238C320.623,26.045,320.515,26.151,320.382,26.151z"/>
			<path fill="#2E3192" d="M319.189,26.149c-0.131,0-0.239-0.107-0.238-0.236c-0.001-0.133,0.107-0.24,0.24-0.238
				c0.131-0.002,0.24,0.104,0.238,0.238C319.431,26.042,319.323,26.149,319.189,26.149z"/>
			<circle fill="#2E3192" cx="319.263" cy="26.843" r="0.239"/>
			<circle fill="#2E3192" cx="320.474" cy="26.841" r="0.237"/>
			<path fill="#2E3192" d="M322.625,23.622c-0.133,0.002-0.239-0.105-0.239-0.24c0.001-0.129,0.108-0.234,0.238-0.236
				c0.133,0,0.24,0.105,0.239,0.238C322.863,23.514,322.756,23.624,322.625,23.622z"/>
			<path fill="#2E3192" d="M322.768,26.151c-0.133,0-0.237-0.104-0.236-0.238c0-0.129,0.105-0.24,0.235-0.238
				c0.133,0,0.24,0.107,0.239,0.24C323.006,26.045,322.898,26.151,322.768,26.151z"/>
			<path fill="#2E3192" d="M326.063,28.36c-0.133,0-0.239-0.109-0.238-0.238c-0.001-0.135,0.106-0.24,0.237-0.24
				c0.133,0.002,0.239,0.107,0.24,0.238C326.301,28.252,326.193,28.358,326.063,28.36z"/>
			<path fill="#2E3192" d="M325.15,28.538c-0.133,0-0.237-0.105-0.236-0.238c0-0.129,0.105-0.238,0.235-0.238
				c0.134,0,0.239,0.109,0.239,0.238C325.389,28.432,325.281,28.54,325.15,28.538z"/>
			<path fill="#2E3192" d="M326.077,29.61c-0.133-0.002-0.239-0.105-0.239-0.238c0-0.131,0.108-0.238,0.238-0.238
				c0.131,0.002,0.237,0.105,0.237,0.238C326.313,29.506,326.205,29.61,326.077,29.61z"/>
			<path fill="#2E3192" d="M325.149,29.733c-0.132-0.002-0.237-0.107-0.235-0.242c-0.001-0.129,0.105-0.236,0.234-0.236
				c0.134,0,0.24,0.109,0.24,0.238C325.389,29.624,325.281,29.731,325.149,29.733z"/>
			<circle fill="#2E3192" cx="324.237" cy="28.118" r="0.238"/>
			<circle fill="#2E3192" cx="324.224" cy="29.37" r="0.238"/>
			<path fill="#2E3192" d="M323.363,29.25c-0.131-0.002-0.24-0.107-0.24-0.238c0-0.133,0.107-0.24,0.24-0.24
				c0.129,0.004,0.237,0.107,0.236,0.24C323.6,29.145,323.492,29.25,323.363,29.25z"/>
			<circle fill="#2E3192" cx="326.079" cy="30.595" r="0.239"/>
			<path fill="#2E3192" d="M325.147,30.926c-0.131-0.002-0.237-0.109-0.237-0.242c0.001-0.131,0.105-0.236,0.238-0.238
				c0.131,0,0.24,0.107,0.24,0.24C325.389,30.815,325.28,30.924,325.147,30.926z"/>
			<circle fill="#2E3192" cx="326.08" cy="31.805" r="0.238"/>
			<path fill="#2E3192" d="M325.146,32.118c-0.131-0.002-0.236-0.109-0.236-0.238c0-0.135,0.105-0.24,0.238-0.24
				c0.131,0,0.24,0.107,0.239,0.238C325.388,32.01,325.28,32.118,325.146,32.118z"/>
			<circle fill="#2E3192" cx="324.219" cy="30.593" r="0.239"/>
			<path fill="#2E3192" d="M323.324,30.559c-0.131,0-0.236-0.107-0.239-0.238c-0.001-0.131,0.107-0.24,0.24-0.238
				c0.128,0,0.237,0.107,0.237,0.238C323.563,30.454,323.454,30.559,323.324,30.559z"/>
			<path fill="#2E3192" d="M324.213,32.043c-0.129-0.002-0.236-0.109-0.236-0.238c0-0.135,0.105-0.238,0.238-0.24
				c0.134,0,0.239,0.107,0.24,0.238C324.453,31.936,324.346,32.043,324.213,32.043z"/>
			<path fill="#2E3192" d="M323.307,31.825c-0.131-0.002-0.239-0.109-0.24-0.238c0.002-0.135,0.109-0.24,0.242-0.24
				c0.129-0.002,0.235,0.107,0.234,0.238C323.542,31.717,323.438,31.823,323.307,31.825z"/>
			<circle fill="#2E3192" cx="321.185" cy="28.562" r="0.239"/>
			<path fill="#2E3192" d="M321.777,29.526c-0.132,0-0.237-0.109-0.238-0.238c0.002-0.135,0.105-0.24,0.238-0.24
				c0.133,0.002,0.238,0.107,0.238,0.238C322.014,29.418,321.91,29.524,321.777,29.526z"/>
			<path fill="#2E3192" d="M320.326,29.657c-0.133-0.002-0.236-0.109-0.237-0.238c0.001-0.135,0.105-0.24,0.237-0.24
				c0.133-0.002,0.238,0.107,0.238,0.238C320.564,29.549,320.456,29.655,320.326,29.657z"/>
			<circle fill="#2E3192" cx="319.837" cy="28.618" r="0.238"/>
			<circle fill="#2E3192" cx="321.645" cy="30.736" r="0.239"/>
			<path fill="#2E3192" d="M320.934,30.368c-0.133-0.002-0.237-0.109-0.236-0.238c0-0.133,0.103-0.24,0.235-0.242
				c0.133,0,0.239,0.109,0.239,0.242C321.172,30.26,321.064,30.366,320.934,30.368z"/>
			<path fill="#2E3192" d="M322.619,28.682c-0.13,0-0.236-0.107-0.236-0.238c-0.002-0.131,0.105-0.238,0.238-0.236
				c0.133,0,0.239,0.104,0.24,0.234C322.859,28.575,322.752,28.68,322.619,28.682z"/>
			<circle fill="#2E3192" cx="322.5" cy="29.879" r="0.238"/>
			<path fill="#2E3192" d="M322.441,31.465c-0.134,0-0.238-0.109-0.238-0.238c0.001-0.135,0.105-0.24,0.236-0.24
				c0.133,0.002,0.239,0.107,0.24,0.238C322.678,31.358,322.57,31.465,322.441,31.465z"/>
			<path fill="#2E3192" d="M323.463,27.84c-0.131,0-0.234-0.109-0.237-0.24c0.001-0.131,0.105-0.238,0.238-0.238
				c0.132,0,0.24,0.105,0.239,0.24C323.703,27.731,323.596,27.838,323.463,27.84z"/>
			<path fill="#2E3192" d="M320.742,27.977c-0.129-0.002-0.236-0.107-0.238-0.242c0-0.129,0.107-0.236,0.24-0.236
				c0.131,0,0.24,0.107,0.24,0.238C320.983,27.868,320.875,27.977,320.742,27.977z"/>
			<path fill="#2E3192" d="M319.479,27.991c-0.13,0.002-0.237-0.107-0.236-0.238c0-0.131,0.108-0.238,0.235-0.236
				c0.133,0,0.24,0.105,0.24,0.236C319.719,27.885,319.611,27.991,319.479,27.991z"/>
			<circle fill="#2E3192" cx="322.052" cy="27.701" r="0.237"/>
			<path fill="#2E3192" d="M319.842,23.44c-0.131,0.002-0.24-0.104-0.24-0.238c0.001-0.129,0.108-0.234,0.242-0.236
				c0.129,0,0.238,0.107,0.238,0.24C320.082,23.334,319.975,23.442,319.842,23.44z"/>
			<circle fill="#2E3192" cx="321.188" cy="23.261" r="0.237"/>
		</g>
	</g>
</g>
<g id="LEGEND">
	<g id="NAVAID_2_">
		<g id="MTEXT_5_">
			<text transform="matrix(1 0 0 1 29.1772 -41.0859)"><tspan x="0" y="0" font-family="'ArialMT'" font-size="6.3611">Compas Rose </tspan><tspan x="-11.671" y="7.634" font-family="'ArialMT'" font-size="6.3611">with True and Variation</tspan><tspan x="-0.531" y="15.267" font-family="'ArialMT'" font-size="6.3611">Magnetic North</tspan><tspan x="8.836" y="22.9" font-family="'ArialMT'" font-size="6.3611">Indicator</tspan></text>
		</g>
		<g id="MTEXT_3_">
			<text transform="matrix(1 0 0 1 345.6016 10.6777)" font-family="'ArialMT'" font-size="8.3989">LF/MF NDB or</text>
			<text transform="matrix(1 0 0 1 345.5908 20.1938)" font-family="'ArialMT'" font-size="8.3989">Marine Radio Beacon</text>
		</g>
		<g id="MTEXT_2_">
			<text transform="matrix(1 0 0 1 202.7549 29.7329)" font-family="'ArialMT'" font-size="8.3989">VOR</text>
		</g>
		<g id="MTEXT_1_">
			<text transform="matrix(1 0 0 1 261.6328 29.8423)" font-family="'ArialMT'" font-size="8.3989">VOR/DME</text>
		</g>
		<g id="MTEXT_6_">
			<text transform="matrix(1 0 0 1 261.6328 65.5532)" font-family="'ArialMT'" font-size="8.3989">DME</text>
		</g>
	</g>
	<polygon fill="#FFFFFF" stroke="#FFFFFF" stroke-width="0.75" points="-47.823,42.025 -43.761,34.987 -39.695,42.025 
		-47.823,42.025 	"/>
	
		<polygon fill="none" stroke="#000000" stroke-width="0.25" stroke-linecap="round" stroke-linejoin="round" stroke-miterlimit="10" points="
		-47.049,41.583 -43.759,35.879 -40.468,41.583 -47.049,41.583 	"/>
	<polygon fill="#FFFFFF" stroke="#231F20" stroke-width="0.25" points="7.973,6.899 7.973,0.165 0.16,0.165 0.16,6.899 7.973,6.899 
			"/>
	<polygon fill="#231F20" stroke="#231F20" stroke-width="0.25" stroke-linecap="square" points="0.774,6.456 4.064,0.752 
		7.355,6.456 0.774,6.456 	"/>
	<path fill="#FFFFFF" stroke="#FFFFFF" stroke-width="0.5" stroke-linecap="round" stroke-linejoin="round" d="M4.57,4.457
		c0-0.277-0.226-0.505-0.506-0.505c-0.279,0-0.505,0.228-0.505,0.505c0,0.282,0.226,0.508,0.505,0.508
		C4.345,4.964,4.57,4.739,4.57,4.457z"/>
	
		<circle fill="none" stroke="#231F20" stroke-width="0.25" stroke-linecap="round" stroke-linejoin="round" cx="-43.758" cy="39.417" r="0.505"/>
	<g>
		<g id="LWPOLYLINE_1120_">
			<polygon fill="#FFFFFF" stroke="#FFFFFF" stroke-width="0.5" stroke-miterlimit="10" points="-45.684,62.003 -49.639,63.425 
				-45.684,64.846 -44.264,68.801 -42.846,64.846 -38.893,63.425 -42.846,62.003 -44.264,58.052 			"/>
		</g>
		<g id="LWPOLYLINE_1118_">
			<polygon fill="#231F20" stroke="#231F20" stroke-width="0.5" stroke-miterlimit="10" points="-45.249,62.442 -47.988,63.425 
				-45.249,64.41 -44.264,67.149 -43.28,64.41 -40.541,63.425 -43.28,62.442 -44.264,59.703 			"/>
		</g>
		<g id="CIRCLE_963_">
			
				<path fill="#FFFFFF" stroke="#FFFFFF" stroke-width="0.5" stroke-linecap="round" stroke-linejoin="round" stroke-miterlimit="10" d="
				M-43.158,63.425c0-0.612-0.494-1.107-1.105-1.107c-0.613,0-1.109,0.495-1.109,1.107c0,0.611,0.496,1.108,1.109,1.108
				C-43.652,64.534-43.158,64.037-43.158,63.425L-43.158,63.425z"/>
		</g>
	</g>
	<g>
		<g id="LWPOLYLINE_1117_">
			<polygon fill="#FFFFFF" stroke="#FFFFFF" stroke-width="0.5" stroke-miterlimit="10" points="-45.684,83.306 -49.639,84.727 
				-45.684,86.147 -44.264,90.1 -42.846,86.147 -38.893,84.727 -42.846,83.306 -44.264,79.351 			"/>
		</g>
		<g id="LWPOLYLINE_1116_">
			<polygon fill="#FFFFFF" stroke="#231F20" stroke-width="0.5" stroke-miterlimit="10" points="-45.249,83.741 -47.988,84.727 
				-45.249,85.71 -44.264,88.45 -43.28,85.71 -40.541,84.727 -43.28,83.741 -44.264,81.001 			"/>
		</g>
		<g id="CIRCLE_958_">
			
				<path fill="#231F20" stroke="#231F20" stroke-width="0.5" stroke-linecap="round" stroke-linejoin="round" stroke-miterlimit="10" d="
				M-43.158,84.727c0-0.613-0.494-1.11-1.105-1.11c-0.613,0-1.109,0.497-1.109,1.11c0,0.61,0.496,1.107,1.109,1.107
				C-43.652,85.834-43.158,85.337-43.158,84.727L-43.158,84.727z"/>
		</g>
	</g>
</g>
</svg>
