<?xml version="1.0" encoding="utf-8"?>
<!-- Generator: Adobe Illustrator 15.0.0, SVG Export Plug-In . SVG Version: 6.00 Build 0)  -->
<!DOCTYPE svg PUBLIC "-//W3C//DTD SVG 1.1//EN" "http://www.w3.org/Graphics/SVG/1.1/DTD/svg11.dtd">
<svg version="1.1" xmlns="http://www.w3.org/2000/svg" xmlns:xlink="http://www.w3.org/1999/xlink" x="0px" y="0px"
	 width="13.304px" height="13.314px" viewBox="0 0 13.304 13.314" enable-background="new 0 0 13.304 13.314" xml:space="preserve">
<g id="Layer_1">
</g>
<g id="ANC_LEGEND">
	<text transform="matrix(1 0.0018 -0.0018 1 117.1226 24.666)" fill="#232020" font-family="'CenturyGothic'" font-size="7.5">TACAN</text>
	<text transform="matrix(1 0.0018 -0.0018 1 91.0552 13.0117)" fill="#232020" font-family="'CenturyGothic'" font-size="7.5">VORTAC</text>
	<g>
		<circle fill="#FFFFFF" cx="6.646" cy="6.656" r="6.657"/>
		<g>
			<path fill="#2E3192" d="M8.487,1.221c-0.133,0-0.238-0.107-0.238-0.238c0-0.135,0.107-0.238,0.238-0.236
				c0.133,0,0.24,0.104,0.239,0.234C8.727,1.113,8.619,1.221,8.487,1.221z"/>
			<path fill="#2E3192" d="M11.466,3.389c-0.133,0-0.238-0.107-0.238-0.236c0-0.133,0.107-0.24,0.238-0.238
				c0.133,0,0.24,0.104,0.238,0.238C11.705,3.281,11.599,3.389,11.466,3.389z"/>
			<path fill="#2E3192" d="M10.859,2.678c-0.132,0-0.237-0.109-0.237-0.238c0-0.135,0.105-0.24,0.238-0.24
				c0.131,0.002,0.236,0.107,0.237,0.238C11.1,2.57,10.992,2.678,10.859,2.678z"/>
			<circle fill="#2E3192" cx="8.469" cy="2.245" r="0.237"/>
			<circle fill="#2E3192" cx="8.432" cy="3.554" r="0.239"/>
			<path fill="#2E3192" d="M9.294,2.926c-0.133,0-0.24-0.105-0.238-0.24C9.055,2.557,9.163,2.447,9.294,2.447
				c0.133,0,0.236,0.107,0.236,0.24C9.531,2.818,9.425,2.924,9.294,2.926z"/>
			<path fill="#2E3192" d="M10.016,3.52c-0.13,0.002-0.239-0.107-0.239-0.236c0.001-0.135,0.108-0.24,0.241-0.24
				c0.13,0.002,0.239,0.105,0.239,0.238C10.257,3.412,10.149,3.52,10.016,3.52z"/>
			<path fill="#2E3192" d="M10.149,2.068c-0.131,0-0.24-0.105-0.24-0.238c0.001-0.131,0.108-0.238,0.242-0.238
				c0.129,0.002,0.234,0.107,0.234,0.238C10.388,1.963,10.282,2.068,10.149,2.068z"/>
			<circle fill="#2E3192" cx="9.351" cy="1.341" r="0.239"/>
			<path fill="#2E3192" d="M12.528,5.963c-0.129,0-0.236-0.109-0.235-0.24c-0.001-0.133,0.107-0.238,0.235-0.24
				c0.133,0.002,0.24,0.109,0.239,0.24C12.768,5.855,12.66,5.961,12.528,5.963z"/>
			<circle fill="#2E3192" cx="12.313" cy="4.813" r="0.238"/>
			<path fill="#2E3192" d="M12.603,6.896c-0.13-0.002-0.236-0.109-0.236-0.238c-0.002-0.135,0.105-0.24,0.238-0.24
				c0.129-0.002,0.236,0.107,0.236,0.238C12.841,6.789,12.733,6.896,12.603,6.896z"/>
			<path fill="#2E3192" d="M12.528,7.826c-0.13,0-0.237-0.105-0.236-0.238c0-0.131,0.106-0.24,0.235-0.236
				c0.133,0,0.24,0.104,0.239,0.238C12.767,7.719,12.659,7.826,12.528,7.826z"/>
			<path fill="#2E3192" d="M11.321,5.963c-0.133,0.002-0.241-0.105-0.24-0.24c0-0.129,0.107-0.236,0.24-0.236
				c0.128,0,0.235,0.105,0.237,0.238C11.558,5.855,11.45,5.965,11.321,5.963z"/>
			<circle fill="#2E3192" cx="11.048" cy="4.83" r="0.238"/>
			<path fill="#2E3192" d="M9.17,4.363C9.04,4.361,8.933,4.254,8.934,4.125c0-0.135,0.106-0.24,0.239-0.24
				c0.129-0.002,0.238,0.107,0.238,0.238C9.411,4.256,9.304,4.363,9.17,4.363z"/>
			<path fill="#2E3192" d="M8.846,5.979c-0.134,0-0.24-0.105-0.239-0.238c0-0.133,0.107-0.236,0.238-0.236
				c0.133-0.002,0.237,0.104,0.236,0.238C9.081,5.871,8.976,5.979,8.846,5.979z"/>
			<circle fill="#2E3192" cx="8.328" cy="4.966" r="0.237"/>
			<circle fill="#2E3192" stroke="#29256A" stroke-width="0.5" stroke-miterlimit="10" cx="6.643" cy="6.647" r="0.237"/>
			<circle fill="#2E3192" cx="10.098" cy="5.729" r="0.238"/>
			<path fill="#2E3192" d="M9.739,5.104c-0.133,0-0.236-0.105-0.236-0.24c0-0.129,0.105-0.236,0.236-0.236
				c0.133,0,0.238,0.105,0.238,0.238C9.978,4.996,9.87,5.105,9.739,5.104z"/>
			<circle fill="#2E3192" cx="11.41" cy="6.654" r="0.238"/>
			<path fill="#2E3192" d="M10.22,6.891c-0.134,0-0.24-0.104-0.24-0.238c0-0.129,0.108-0.236,0.238-0.238
				c0.133,0,0.237,0.109,0.237,0.24C10.454,6.785,10.35,6.893,10.22,6.891z"/>
			<path fill="#2E3192" d="M11.319,7.824c-0.133,0-0.24-0.105-0.238-0.24c-0.001-0.129,0.107-0.234,0.238-0.236
				c0.13,0,0.236,0.105,0.236,0.238C11.556,7.717,11.448,7.822,11.319,7.824z"/>
			<circle fill="#2E3192" cx="9.024" cy="6.652" r="0.238"/>
			<path fill="#2E3192" d="M8.843,7.803c-0.131,0.002-0.238-0.105-0.24-0.238c0.002-0.131,0.108-0.236,0.242-0.236
				c0.129,0,0.236,0.105,0.236,0.238C9.081,7.695,8.976,7.805,8.843,7.803z"/>
			<circle fill="#2E3192" cx="10.096" cy="7.58" r="0.238"/>
			<circle fill="#2E3192" cx="10.605" cy="9.305" r="0.238"/>
			<circle fill="#2E3192" cx="11.461" cy="10.16" r="0.24"/>
			<path fill="#2E3192" d="M9.168,9.42c-0.134,0-0.237-0.104-0.237-0.238c0-0.131,0.105-0.236,0.236-0.236
				c0.133,0,0.239,0.104,0.239,0.238C9.405,9.314,9.298,9.42,9.168,9.42z"/>
			<path fill="#2E3192" d="M8.427,9.99c-0.133,0-0.239-0.107-0.238-0.238c-0.001-0.131,0.107-0.24,0.238-0.24
				c0.133,0,0.238,0.107,0.238,0.242C8.665,9.883,8.558,9.988,8.427,9.99z"/>
			<path fill="#2E3192" d="M10.011,10.266c-0.133-0.002-0.239-0.107-0.238-0.238c0-0.133,0.107-0.24,0.238-0.24
				c0.133,0,0.238,0.109,0.239,0.238C10.249,10.16,10.142,10.266,10.011,10.266z"/>
			<circle fill="#2E3192" cx="8.462" cy="11.06" r="0.237"/>
			<path fill="#2E3192" d="M8.478,12.561c-0.13,0.002-0.238-0.105-0.239-0.238c0.001-0.131,0.108-0.236,0.241-0.238
				c0.131,0,0.237,0.109,0.236,0.238C8.718,12.455,8.61,12.563,8.478,12.561z"/>
			<circle fill="#2E3192" cx="9.342" cy="11.966" r="0.237"/>
			<circle fill="#2E3192" cx="10.141" cy="11.478" r="0.239"/>
			<path fill="#2E3192" d="M9.288,10.855c-0.131,0.002-0.24-0.104-0.24-0.234c0-0.133,0.107-0.24,0.24-0.24
				c0.132,0,0.235,0.109,0.238,0.238C9.524,10.754,9.421,10.857,9.288,10.855z"/>
			<path fill="#2E3192" d="M10.853,11.109c-0.133,0-0.237-0.109-0.236-0.238c-0.001-0.131,0.105-0.238,0.235-0.24
				c0.133,0,0.239,0.107,0.239,0.242C11.091,11.002,10.985,11.109,10.853,11.109z"/>
			<circle fill="#2E3192" cx="11.949" cy="9.363" r="0.238"/>
			<circle fill="#2E3192" cx="8.325" cy="8.34" r="0.238"/>
			<circle fill="#2E3192" cx="9.736" cy="8.442" r="0.237"/>
			<circle fill="#2E3192" cx="11.045" cy="8.481" r="0.239"/>
			<path fill="#2E3192" d="M12.31,8.738c-0.133-0.002-0.238-0.107-0.239-0.242c0.001-0.131,0.108-0.236,0.237-0.236
				c0.134,0,0.24,0.107,0.24,0.238S12.442,8.738,12.31,8.738z"/>
			<circle fill="#2E3192" cx="11.954" cy="3.948" r="0.237"/>
			<path fill="#2E3192" d="M10.609,4.242c-0.133,0-0.239-0.105-0.239-0.238c0-0.131,0.109-0.24,0.238-0.238
				c0.133,0,0.237,0.105,0.237,0.24C10.845,4.135,10.741,4.242,10.609,4.242z"/>
			<path fill="#2E3192" d="M7.576,1.002c-0.13,0-0.237-0.109-0.236-0.238c0-0.135,0.105-0.238,0.238-0.236
				c0.13-0.004,0.237,0.104,0.239,0.234C7.817,0.895,7.71,1,7.576,1.002z"/>
			<path fill="#2E3192" d="M6.644,0.926C6.513,0.93,6.408,0.82,6.409,0.689c-0.002-0.135,0.103-0.24,0.234-0.238
				c0.134,0,0.241,0.105,0.24,0.24C6.884,0.82,6.776,0.926,6.644,0.926z"/>
			<path fill="#2E3192" d="M5.712,1C5.579,1,5.473,0.893,5.474,0.762c0-0.135,0.107-0.24,0.238-0.24
				C5.845,0.523,5.95,0.631,5.951,0.76C5.95,0.895,5.843,1,5.712,1z"/>
			<path fill="#2E3192" d="M4.802,1.217c-0.131,0-0.236-0.104-0.236-0.238c0-0.133,0.104-0.236,0.238-0.236
				c0.131,0,0.236,0.104,0.236,0.238C5.04,1.109,4.933,1.217,4.802,1.217z"/>
			<path fill="#2E3192" d="M7.573,2.213c-0.133,0-0.236-0.109-0.236-0.238c0-0.135,0.105-0.24,0.236-0.24
				c0.133,0.002,0.239,0.107,0.238,0.238C7.812,2.105,7.704,2.213,7.573,2.213z"/>
			<path fill="#2E3192" d="M6.644,2.119c-0.131,0-0.238-0.107-0.238-0.238C6.406,1.75,6.511,1.643,6.644,1.645
				c0.131,0,0.24,0.104,0.24,0.238C6.884,2.012,6.776,2.119,6.644,2.119z"/>
			<path fill="#2E3192" d="M7.569,3.436c-0.131,0-0.239-0.109-0.24-0.238c0.002-0.133,0.109-0.24,0.242-0.238
				c0.128,0,0.236,0.105,0.236,0.238C7.808,3.328,7.7,3.436,7.569,3.436z"/>
			<path fill="#2E3192" d="M6.643,3.313c-0.134,0-0.237-0.107-0.237-0.238c0-0.133,0.105-0.24,0.236-0.238
				c0.133,0,0.239,0.105,0.239,0.238C6.88,3.207,6.775,3.313,6.643,3.313z"/>
			<path fill="#2E3192" d="M5.712,2.213c-0.131,0-0.237-0.109-0.239-0.242C5.474,1.84,5.581,1.734,5.714,1.734
				c0.13,0,0.239,0.105,0.239,0.238C5.952,2.104,5.845,2.211,5.712,2.213z"/>
			<path fill="#2E3192" d="M4.819,2.482c-0.131,0-0.24-0.107-0.24-0.24c0.002-0.131,0.109-0.236,0.242-0.236
				c0.128-0.002,0.234,0.104,0.234,0.238C5.055,2.373,4.95,2.482,4.819,2.482z"/>
			<path fill="#2E3192" d="M5.718,3.434c-0.134,0-0.239-0.107-0.24-0.238c0.002-0.133,0.109-0.24,0.239-0.24
				c0.132,0.002,0.239,0.109,0.239,0.238C5.956,3.328,5.849,3.434,5.718,3.434z"/>
			<circle fill="#2E3192" cx="4.854" cy="3.552" r="0.239"/>
			<circle fill="#2E3192" cx="3.14" cy="1.824" r="0.238"/>
			<circle fill="#2E3192" cx="3.271" cy="3.274" r="0.239"/>
			<path fill="#2E3192" d="M2.428,2.672C2.295,2.67,2.19,2.563,2.19,2.434c0-0.135,0.105-0.24,0.236-0.24
				C2.56,2.191,2.665,2.301,2.666,2.432C2.665,2.564,2.558,2.67,2.428,2.672z"/>
			<path fill="#2E3192" d="M1.818,3.381c-0.133,0-0.237-0.107-0.236-0.238C1.581,3.012,1.688,2.904,1.817,2.906
				C1.95,2.904,2.058,3.01,2.057,3.145C2.058,3.273,1.949,3.381,1.818,3.381z"/>
			<circle fill="#2E3192" cx="3.937" cy="1.336" r="0.238"/>
			<circle fill="#2E3192" cx="3.995" cy="2.684" r="0.238"/>
			<path fill="#2E3192" d="M7.554,4.686c-0.131,0.002-0.24-0.104-0.239-0.238C7.313,4.318,7.422,4.209,7.556,4.209
				c0.131,0,0.239,0.109,0.238,0.242C7.794,4.58,7.687,4.688,7.554,4.686z"/>
			<circle fill="#2E3192" cx="6.642" cy="4.266" r="0.238"/>
			<path fill="#2E3192" d="M5.729,4.688c-0.133,0-0.237-0.109-0.236-0.238c0-0.135,0.105-0.24,0.235-0.242
				c0.133,0.002,0.24,0.109,0.24,0.24C5.968,4.58,5.859,4.686,5.729,4.688z"/>
			<circle fill="#2E3192" cx="4.438" cy="5.737" r="0.239"/>
			<path fill="#2E3192" d="M4.954,5.203C4.821,5.201,4.717,5.094,4.716,4.965c0.002-0.135,0.106-0.24,0.239-0.24
				c0.132,0,0.237,0.107,0.237,0.238C5.191,5.096,5.087,5.203,4.954,5.203z"/>
			<circle fill="#2E3192" cx="4.437" cy="7.562" r="0.239"/>
			<path fill="#2E3192" d="M3.185,5.963C3.053,5.961,2.946,5.855,2.946,5.721c0-0.129,0.108-0.236,0.238-0.236
				c0.133,0,0.237,0.107,0.237,0.238C3.421,5.854,3.316,5.961,3.185,5.963z"/>
			<circle fill="#2E3192" cx="3.544" cy="4.86" r="0.239"/>
			<path fill="#2E3192" d="M0.751,5.953c-0.131,0-0.238-0.107-0.238-0.242c0-0.129,0.107-0.234,0.24-0.236
				c0.131,0,0.236,0.109,0.237,0.24C0.989,5.844,0.884,5.953,0.751,5.953z"/>
			<circle fill="#2E3192" cx="0.97" cy="4.805" r="0.238"/>
			<circle fill="#2E3192" cx="1.962" cy="5.717" r="0.238"/>
			<path fill="#2E3192" d="M2.233,5.061c-0.131,0-0.239-0.107-0.238-0.238c0-0.133,0.107-0.24,0.24-0.24
				C2.366,4.584,2.472,4.691,2.475,4.82C2.475,4.955,2.367,5.061,2.233,5.061z"/>
			<circle fill="#2E3192" cx="3.063" cy="6.648" r="0.238"/>
			<path fill="#2E3192" d="M3.185,7.814C3.052,7.813,2.946,7.707,2.945,7.572C2.944,7.443,3.053,7.336,3.184,7.336
				c0.133,0,0.237,0.107,0.236,0.238C3.421,7.705,3.317,7.814,3.185,7.814z"/>
			<path fill="#2E3192" d="M1.869,6.887c-0.134,0-0.237-0.109-0.237-0.238C1.634,6.516,1.737,6.408,1.87,6.41
				c0.131,0,0.237,0.105,0.237,0.238C2.11,6.781,2.002,6.887,1.869,6.887z"/>
			<path fill="#2E3192" d="M0.677,6.885c-0.131,0-0.239-0.107-0.238-0.236c-0.001-0.133,0.107-0.24,0.24-0.238
				c0.131-0.002,0.24,0.104,0.238,0.238C0.918,6.777,0.811,6.885,0.677,6.885z"/>
			<circle fill="#2E3192" cx="0.75" cy="7.579" r="0.239"/>
			<circle fill="#2E3192" cx="1.961" cy="7.577" r="0.237"/>
			<path fill="#2E3192" d="M4.112,4.357c-0.133,0.002-0.239-0.105-0.239-0.24c0.001-0.129,0.108-0.234,0.238-0.236
				c0.133,0,0.24,0.105,0.239,0.238C4.351,4.25,4.243,4.359,4.112,4.357z"/>
			<path fill="#2E3192" d="M4.255,6.887c-0.133,0-0.237-0.104-0.236-0.238c0-0.129,0.105-0.24,0.235-0.238
				c0.133,0,0.24,0.107,0.239,0.24C4.493,6.781,4.386,6.887,4.255,6.887z"/>
			<path fill="#2E3192" d="M7.551,9.096c-0.133,0-0.239-0.109-0.238-0.238c-0.001-0.135,0.106-0.24,0.237-0.24
				c0.133,0.002,0.239,0.107,0.24,0.238C7.788,8.988,7.681,9.094,7.551,9.096z"/>
			<path fill="#2E3192" d="M6.638,9.273c-0.133,0-0.237-0.105-0.236-0.238c0-0.129,0.105-0.238,0.235-0.238
				c0.134,0,0.239,0.109,0.239,0.238C6.876,9.168,6.769,9.275,6.638,9.273z"/>
			<path fill="#2E3192" d="M7.564,10.346c-0.133-0.002-0.239-0.105-0.239-0.238c0-0.131,0.108-0.238,0.238-0.238
				c0.131,0.002,0.237,0.105,0.237,0.238C7.8,10.242,7.692,10.346,7.564,10.346z"/>
			<path fill="#2E3192" d="M6.637,10.469c-0.132-0.002-0.237-0.107-0.235-0.242C6.4,10.098,6.507,9.99,6.636,9.99
				c0.134,0,0.24,0.109,0.24,0.238C6.876,10.359,6.769,10.467,6.637,10.469z"/>
			<circle fill="#2E3192" cx="5.725" cy="8.854" r="0.238"/>
			<circle fill="#2E3192" cx="5.711" cy="10.105" r="0.238"/>
			<path fill="#2E3192" d="M4.851,9.986C4.72,9.984,4.61,9.879,4.61,9.748c0-0.133,0.107-0.24,0.24-0.24
				c0.129,0.004,0.237,0.107,0.236,0.24C5.087,9.881,4.979,9.986,4.851,9.986z"/>
			<circle fill="#2E3192" cx="7.566" cy="11.331" r="0.239"/>
			<path fill="#2E3192" d="M6.635,11.662c-0.131-0.002-0.237-0.109-0.237-0.242c0.001-0.131,0.105-0.236,0.238-0.238
				c0.131,0,0.24,0.107,0.24,0.24C6.876,11.551,6.768,11.66,6.635,11.662z"/>
			<circle fill="#2E3192" cx="7.567" cy="12.541" r="0.238"/>
			<path fill="#2E3192" d="M6.634,12.854c-0.131-0.002-0.236-0.109-0.236-0.238c0-0.135,0.105-0.24,0.238-0.24
				c0.131,0,0.24,0.107,0.239,0.238C6.875,12.746,6.768,12.854,6.634,12.854z"/>
			<circle fill="#2E3192" cx="5.706" cy="11.329" r="0.239"/>
			<path fill="#2E3192" d="M4.812,11.295c-0.131,0-0.236-0.107-0.239-0.238c-0.001-0.131,0.107-0.24,0.24-0.238
				c0.128,0,0.237,0.107,0.237,0.238C5.05,11.189,4.941,11.295,4.812,11.295z"/>
			<path fill="#2E3192" d="M5.7,12.779c-0.129-0.002-0.236-0.109-0.236-0.238c0-0.135,0.105-0.238,0.238-0.24
				c0.134,0,0.239,0.107,0.24,0.238C5.94,12.672,5.833,12.779,5.7,12.779z"/>
			<path fill="#2E3192" d="M4.794,12.561c-0.131-0.002-0.239-0.109-0.24-0.238c0.002-0.135,0.109-0.24,0.242-0.24
				c0.129-0.002,0.235,0.107,0.234,0.238C5.029,12.453,4.925,12.559,4.794,12.561z"/>
			<circle fill="#2E3192" cx="2.672" cy="9.298" r="0.239"/>
			<path fill="#2E3192" d="M3.265,10.262c-0.132,0-0.237-0.109-0.238-0.238c0.002-0.135,0.105-0.24,0.238-0.24
				c0.133,0.002,0.238,0.107,0.238,0.238C3.501,10.154,3.397,10.26,3.265,10.262z"/>
			<path fill="#2E3192" d="M1.813,10.393c-0.133-0.002-0.236-0.109-0.237-0.238c0.001-0.135,0.105-0.24,0.237-0.24
				c0.133-0.002,0.238,0.107,0.238,0.238C2.052,10.285,1.943,10.391,1.813,10.393z"/>
			<circle fill="#2E3192" cx="1.325" cy="9.354" r="0.238"/>
			<circle fill="#2E3192" cx="3.132" cy="11.472" r="0.239"/>
			<path fill="#2E3192" d="M2.421,11.104c-0.133-0.002-0.237-0.109-0.236-0.238c0-0.133,0.103-0.24,0.235-0.242
				c0.133,0,0.239,0.109,0.239,0.242C2.659,10.996,2.552,11.102,2.421,11.104z"/>
			<path fill="#2E3192" d="M4.106,9.418c-0.13,0-0.236-0.107-0.236-0.238C3.868,9.049,3.976,8.941,4.108,8.943
				c0.133,0,0.239,0.104,0.24,0.234C4.347,9.311,4.239,9.416,4.106,9.418z"/>
			<circle fill="#2E3192" cx="3.988" cy="10.615" r="0.238"/>
			<path fill="#2E3192" d="M3.929,12.201c-0.134,0-0.238-0.109-0.238-0.238c0.001-0.135,0.105-0.24,0.236-0.24
				c0.133,0.002,0.239,0.107,0.24,0.238C4.165,12.094,4.058,12.201,3.929,12.201z"/>
			<path fill="#2E3192" d="M4.95,8.576c-0.131,0-0.234-0.109-0.237-0.24c0.001-0.131,0.105-0.238,0.238-0.238
				c0.132,0,0.24,0.105,0.239,0.24C5.19,8.467,5.083,8.574,4.95,8.576z"/>
			<path fill="#2E3192" d="M2.229,8.713C2.101,8.711,1.993,8.605,1.991,8.471c0-0.129,0.107-0.236,0.24-0.236
				c0.131,0,0.24,0.107,0.24,0.238C2.471,8.604,2.362,8.713,2.229,8.713z"/>
			<path fill="#2E3192" d="M0.967,8.727C0.837,8.729,0.729,8.619,0.73,8.488c0-0.131,0.108-0.238,0.235-0.236
				c0.133,0,0.24,0.105,0.24,0.236C1.206,8.621,1.099,8.727,0.967,8.727z"/>
			<circle fill="#2E3192" cx="3.54" cy="8.437" r="0.237"/>
			<path fill="#2E3192" d="M1.329,4.176c-0.131,0.002-0.24-0.104-0.24-0.238C1.09,3.809,1.197,3.703,1.331,3.701
				c0.129,0,0.238,0.107,0.238,0.24C1.569,4.07,1.462,4.178,1.329,4.176z"/>
			<circle fill="#2E3192" cx="2.676" cy="3.997" r="0.237"/>
		</g>
	</g>
</g>
<g id="LEGEND">
	<g id="NAVAID_2_">
		<g id="MTEXT_5_">
			<text transform="matrix(1 0 0 1 17.6646 -51.3501)"><tspan x="0" y="0" font-family="'ArialMT'" font-size="6.3611">Compas Rose </tspan><tspan x="-11.671" y="7.634" font-family="'ArialMT'" font-size="6.3611">with True and Variation</tspan><tspan x="-0.531" y="15.267" font-family="'ArialMT'" font-size="6.3611">Magnetic North</tspan><tspan x="8.836" y="22.9" font-family="'ArialMT'" font-size="6.3611">Indicator</tspan></text>
		</g>
		<g id="MTEXT_2_">
			<text transform="matrix(1 0 0 1 191.2422 19.4688)" font-family="'ArialMT'" font-size="8.3989">VOR</text>
		</g>
		<g id="MTEXT_1_">
			<text transform="matrix(1 0 0 1 250.1201 19.5781)" font-family="'ArialMT'" font-size="8.3989">VOR/DME</text>
		</g>
		<g id="MTEXT_6_">
			<text transform="matrix(1 0 0 1 250.1201 55.2891)" font-family="'ArialMT'" font-size="8.3989">DME</text>
		</g>
	</g>
</g>
</svg>
