<?xml version="1.0" encoding="utf-8"?>
<!-- Generator: Adobe Illustrator 15.0.0, SVG Export Plug-In . SVG Version: 6.00 Build 0)  -->
<!DOCTYPE svg PUBLIC "-//W3C//DTD SVG 1.1//EN" "http://www.w3.org/Graphics/SVG/1.1/DTD/svg11.dtd">
<svg version="1.1" xmlns="http://www.w3.org/2000/svg" xmlns:xlink="http://www.w3.org/1999/xlink" x="0px" y="0px" width="229px"
	 height="253.775px" viewBox="0 0 229 253.775" enable-background="new 0 0 229 253.775" xml:space="preserve">
<g id="Layer_1">
	<polygon fill="none" stroke="#231F20" stroke-width="10" stroke-miterlimit="10" points="-988.257,1115.152 -1063.374,1245.256 
		-988.257,1375.36 -838.027,1375.36 -762.911,1245.256 -838.027,1115.152 	"/>
	<path fill="#231F20" d="M-923.771,1245.256c0-5.871,4.759-10.629,10.629-10.629s10.629,4.758,10.629,10.629
		s-4.759,10.629-10.629,10.629S-923.771,1251.127-923.771,1245.256"/>
	<circle fill="none" stroke="#231F20" stroke-width="5" stroke-miterlimit="10" cx="-913.142" cy="1245.256" r="10.629"/>
	<path fill="none" stroke="#2E3192" stroke-width="10" stroke-linecap="round" stroke-linejoin="round" stroke-miterlimit="10" d="
		M395.121,532.222c-10.023,0-18.158,8.136-18.158,18.159c0,10.024,8.135,18.158,18.158,18.158c10.037,0,18.158-8.134,18.158-18.158
		C413.279,540.357,405.158,532.222,395.121,532.222"/>
	
		<line fill="none" stroke="#2E3192" stroke-width="10" stroke-linecap="round" stroke-linejoin="round" stroke-miterlimit="10" x1="443.288" y1="581.173" x2="346.954" y2="581.173"/>
	
		<line fill="none" stroke="#2E3192" stroke-width="10" stroke-linecap="round" stroke-linejoin="round" stroke-miterlimit="10" x1="394.337" y1="581.173" x2="394.337" y2="718.567"/>
	<path fill="none" stroke="#2E3192" stroke-width="10" stroke-linecap="round" stroke-linejoin="round" stroke-miterlimit="10" d="
		M318.539,678.548c18.082,23.453,45.727,37.552,75.31,38.387"/>
	<path fill="none" stroke="#2E3192" stroke-width="10" stroke-linecap="round" stroke-linejoin="round" stroke-miterlimit="10" d="
		M394.813,716.947c29.596-0.86,57.239-14.958,75.31-38.386"/>
	
		<polyline fill="none" stroke="#2E3192" stroke-width="10" stroke-linecap="round" stroke-linejoin="round" stroke-miterlimit="10" points="
		310.637,660.132 307.475,685.396 331.16,675.926 310.637,660.132 	"/>
	
		<polyline fill="none" stroke="#2E3192" stroke-width="10" stroke-linecap="round" stroke-linejoin="round" stroke-miterlimit="10" points="
		479.606,660.132 482.769,685.396 459.084,675.926 479.606,660.132 	"/>
	
		<polyline fill="none" stroke="#063B60" stroke-width="10" stroke-linecap="round" stroke-linejoin="round" stroke-miterlimit="10" points="
		1016.061,-19.623 1049.108,-99.898 1079.336,-19.623 	"/>
	<polygon fill="#545454" points="1051.944,-101.797 1049.108,-103.68 1047.226,-101.797 	"/>
	<polygon fill="none" stroke="#545454" stroke-width="10" stroke-linecap="round" stroke-miterlimit="10" points="1049.108,-103.68 
		1047.226,-101.797 1051.944,-101.797 	"/>
	<polygon fill="#545454" points="1050.054,-97.063 1049.101,-99.906 1048.171,-97.063 	"/>
	<polygon fill="none" stroke="#545454" stroke-width="10" stroke-linecap="round" stroke-miterlimit="10" points="1049.108,-99.898 
		1048.171,-97.07 1050.054,-97.07 	"/>
	<path fill="#545454" d="M1047.226-101.789l5.664,1.883l-0.945-1.883H1047.226z M1052.89-99.906l-5.664-1.883l-1.883,1.883H1052.89z
		"/>
	<path fill="none" stroke="#545454" stroke-width="10" stroke-linecap="round" stroke-miterlimit="10" d="M1052.89-99.898
		l-5.664-1.891h4.719L1052.89-99.898z M1045.335-99.898h7.555l-5.664-1.891L1045.335-99.898z"/>
	<path fill="#545454" d="M1048.171-96.117v-0.945h-1.891L1048.171-96.117z M1046.28-97.063h1.891l-2.836-2.844L1046.28-97.063z
		 M1045.335-99.906l2.836,2.844l0.938-2.844H1045.335z"/>
	<path fill="none" stroke="#545454" stroke-width="10" stroke-linecap="round" stroke-miterlimit="10" d="M1048.171-97.063
		l-2.836-2.836h3.773L1048.171-97.063z M1046.28-97.063h1.891l-2.836-2.836L1046.28-97.063z M1048.171-96.125l-1.891-0.938h1.891
		V-96.125z"/>
	<path fill="#545454" d="M1050.062-97.063h2.828l-3.781-2.844L1050.062-97.063z M1049.108-99.906l3.781,2.844v-2.844H1049.108z"/>
	<path fill="none" stroke="#545454" stroke-width="10" stroke-linecap="round" stroke-miterlimit="10" d="M1052.89-97.07
		l-3.781-2.828h3.781V-97.07z M1050.054-97.07h2.836l-3.781-2.828L1050.054-97.07z"/>
	<path fill="#545454" d="M1050.054-97.063h-1.883H1050.054z M1050.054-97.063h-1.883H1050.054z"/>
	<path fill="none" stroke="#545454" stroke-width="10" stroke-linecap="round" stroke-miterlimit="10" d="M1050.054-97.07
		L1050.054-97.07h-1.883H1050.054z M1048.171-97.07h1.883H1048.171z"/>
	<path fill="#545454" d="M1048.171-97.063h-1.891H1048.171z M1048.171-97.063h-1.891H1048.171z"/>
	<path fill="none" stroke="#545454" stroke-width="10" stroke-linecap="round" stroke-miterlimit="10" d="M1048.171-97.07
		L1048.171-97.07h-1.891H1048.171z M1046.28-97.07h1.891H1046.28z"/>
	<path fill="#545454" d="M1050.999-96.125l1.891-0.945h-2.836L1050.999-96.125z M1050.999-96.125l-0.945-0.945L1050.999-96.125z"/>
	<path fill="none" stroke="#545454" stroke-width="10" stroke-linecap="round" stroke-miterlimit="10" d="M1050.999-96.125
		L1050.999-96.125z M1050.054-97.07l0.945,0.945L1050.054-97.07z M1052.89-97.07h-2.836l0.945,0.945L1052.89-97.07z"/>
	<path fill="#545454" d="M1049.108-95.18l1.891-0.938h-2.828L1049.108-95.18z M1048.171-96.117h2.828l-2.828-0.945V-96.117z
		 M1048.171-97.063l2.828,0.945l-0.945-0.945H1048.171z"/>
	<path fill="none" stroke="#545454" stroke-width="10" stroke-linecap="round" stroke-miterlimit="10" d="M1050.999-96.117
		l-2.828-0.945h1.883L1050.999-96.117z M1048.171-96.117h2.828l-2.828-0.945V-96.117z M1049.108-95.18l-0.938-0.938h2.828
		L1049.108-95.18z"/>
	<path fill="#545454" d="M1050.999-96.125h-2.828H1050.999z M1050.999-96.125h-2.828H1050.999z"/>
	<path fill="none" stroke="#545454" stroke-width="10" stroke-linecap="round" stroke-miterlimit="10" d="M1050.999-96.125
		L1050.999-96.125h-2.828H1050.999z M1048.171-96.125h2.828H1048.171z"/>
	<polygon fill="#545454" points="1051.944,-33.795 1049.108,-34.732 1046.28,-33.795 	"/>
	<polygon fill="none" stroke="#545454" stroke-width="10" stroke-linecap="round" stroke-miterlimit="10" points="1049.108,-34.74 
		1046.28,-33.795 1051.944,-33.795 	"/>
	<path fill="#545454" d="M1046.28-33.787l6.609,2.82l-0.945-2.82H1046.28z M1052.89-30.967l-6.609-2.82l-0.938,2.82H1052.89z"/>
	<path fill="none" stroke="#545454" stroke-width="10" stroke-linecap="round" stroke-miterlimit="10" d="M1052.89-30.967
		l-6.609-2.82h5.664L1052.89-30.967z M1045.335-30.967h7.555l-6.609-2.82L1045.335-30.967z"/>
	<path fill="#545454" d="M1049.108-27.178l2.836-0.945h-5.664L1049.108-27.178z M1046.28-28.123h5.664l-6.609-2.844L1046.28-28.123z
		"/>
	<path fill="none" stroke="#545454" stroke-width="10" stroke-linecap="round" stroke-miterlimit="10" d="M1046.28-28.131h5.664
		l-2.836,0.945L1046.28-28.131z M1045.335-30.967l0.945,2.836h5.664L1045.335-30.967z"/>
	<polygon fill="#545454" points="1051.944,-28.123 1052.89,-30.967 1045.335,-30.967 	"/>
	<polygon fill="none" stroke="#545454" stroke-width="10" stroke-linecap="round" stroke-miterlimit="10" points="1045.335,-30.967 
		1052.89,-30.967 1051.944,-28.131 	"/>
	<g>
		<path fill="none" stroke="#063B60" stroke-width="10" stroke-linecap="round" stroke-linejoin="round" stroke-miterlimit="10" d="
			M1048.64-35.678c-2.344,0-4.25,1.891-4.25,4.242s1.906,4.25,4.25,4.25s4.25-1.898,4.25-4.25S1050.983-35.678,1048.64-35.678"/>
	</g>
	
		<polyline fill="none" stroke="#063B60" stroke-width="10" stroke-linecap="round" stroke-linejoin="round" stroke-miterlimit="10" points="
		1010.389,293.909 1044.39,213.641 1074.609,293.909 	"/>
	
		<polyline fill="none" stroke="#063B60" stroke-width="10" stroke-linecap="round" stroke-linejoin="round" stroke-miterlimit="10" points="
		987.724,640.504 1021.725,560.236 1050.999,640.504 	"/>
	
		<polyline fill="none" stroke="#063B60" stroke-width="10" stroke-linecap="round" stroke-linejoin="round" stroke-miterlimit="10" points="
		1030.226,640.504 1064.226,560.236 1093.5,640.504 	"/>
	<polygon fill="#545454" points="1041.554,280.689 1038.726,281.635 1044.39,281.635 	"/>
	<polygon fill="none" stroke="#545454" stroke-width="10" stroke-linecap="round" stroke-miterlimit="10" points="1041.554,280.689 
		1038.726,281.635 1044.39,281.635 	"/>
	<path fill="#545454" d="M1045.335,284.471l-6.609-2.828h5.664L1045.335,284.471z M1037.78,284.471h7.555l-6.609-2.828
		L1037.78,284.471z"/>
	<path fill="none" stroke="#545454" stroke-width="10" stroke-linecap="round" stroke-miterlimit="10" d="M1045.335,284.471
		l-6.609-2.828h5.664L1045.335,284.471z M1037.78,284.471h7.555l-6.609-2.828L1037.78,284.471z"/>
	<path fill="#545454" d="M1038.726,287.299h5.664l-2.844,0.945L1038.726,287.299z M1037.78,284.471l0.945,2.828h5.664
		L1037.78,284.471z"/>
	<path fill="none" stroke="#545454" stroke-width="10" stroke-linecap="round" stroke-miterlimit="10" d="M1038.726,287.299h5.664
		l-2.844,0.945L1038.726,287.299z M1037.78,284.471l0.945,2.828h5.664L1037.78,284.471z"/>
	<polygon fill="#545454" points="1037.78,284.471 1045.335,284.471 1044.39,287.299 	"/>
	<polygon fill="none" stroke="#545454" stroke-width="10" stroke-linecap="round" stroke-miterlimit="10" points="1037.78,284.471 
		1045.335,284.471 1044.39,287.299 	"/>
	<path fill="none" stroke="#063B60" stroke-width="10" stroke-linecap="round" stroke-linejoin="round" stroke-miterlimit="10" d="
		M1041.085,279.752c-2.344,0-4.25,1.891-4.25,4.242c0,2.353,1.906,4.25,4.25,4.25s4.25-1.897,4.25-4.25
		C1045.335,281.643,1043.429,279.752,1041.085,279.752"/>
	<polygon fill="#545454" points="1064.226,626.34 1062.335,627.285 1065.164,627.285 	"/>
	<polygon fill="none" stroke="#545454" stroke-width="10" stroke-linecap="round" stroke-miterlimit="10" points="1064.226,626.34 
		1062.335,627.285 1065.164,627.285 	"/>
	<polygon fill="#545454" points="1020.779,627.293 1019.834,627.293 1022.67,627.293 	"/>
	<polygon fill="none" stroke="#545454" stroke-width="10" stroke-linecap="round" stroke-miterlimit="10" points="1020.779,627.293 
		1019.834,627.293 1022.67,627.293 	"/>
	<path fill="#545454" d="M1066.109,627.293h-3.774h2.821H1066.109z M1061.39,627.293h4.72h-3.774H1061.39z"/>
	<path fill="none" stroke="#545454" stroke-width="10" stroke-linecap="round" stroke-miterlimit="10" d="M1066.109,627.293h-3.774
		h2.821H1066.109z M1061.39,627.293h4.72h-3.774H1061.39z"/>
	<path fill="#545454" d="M1023.615,628.238l-3.781-0.945h2.836L1023.615,628.238z M1017.943,628.238h5.672l-3.781-0.945
		L1017.943,628.238z"/>
	<path fill="none" stroke="#545454" stroke-width="10" stroke-linecap="round" stroke-miterlimit="10" d="M1023.615,628.238
		l-3.781-0.945h2.836L1023.615,628.238z M1017.943,628.238h5.672l-3.781-0.945L1017.943,628.238z"/>
	<path fill="#545454" d="M1068,630.113l-6.61-2.82h4.72L1068,630.113z M1060.444,630.113H1068l-6.61-2.82L1060.444,630.113z"/>
	<path fill="none" stroke="#545454" stroke-width="10" stroke-linecap="round" stroke-miterlimit="10" d="M1068,630.113l-6.61-2.82
		h4.72L1068,630.113z M1060.444,630.113H1068l-6.61-2.82L1060.444,630.113z"/>
	<path fill="#545454" d="M1024.561,631.066l-6.617-2.828h5.672L1024.561,631.066z M1017.006,631.066h7.555l-6.617-2.828
		L1017.006,631.066z"/>
	<path fill="none" stroke="#545454" stroke-width="10" stroke-linecap="round" stroke-miterlimit="10" d="M1024.561,631.066
		l-6.617-2.828h5.672L1024.561,631.066z M1017.006,631.066h7.555l-6.617-2.828L1017.006,631.066z"/>
	<path fill="#545454" d="M1066.109,632.949l-5.665-2.828H1068L1066.109,632.949z M1061.39,632.949h4.72l-5.665-2.828
		L1061.39,632.949z"/>
	<path fill="none" stroke="#545454" stroke-width="10" stroke-linecap="round" stroke-miterlimit="10" d="M1066.109,632.949
		l-5.665-2.828H1068L1066.109,632.949z M1061.39,632.949h4.72l-5.665-2.828L1061.39,632.949z"/>
	<path fill="#545454" d="M1062.335,632.949h2.821l-0.931,0.945L1062.335,632.949z M1061.39,632.949h0.945h2.821H1061.39z"/>
	<path fill="none" stroke="#545454" stroke-width="10" stroke-linecap="round" stroke-miterlimit="10" d="M1062.335,632.949h2.821
		l-0.931,0.945L1062.335,632.949z M1061.39,632.949h0.945h2.821H1061.39z"/>
	<polygon fill="#545454" points="1061.39,632.949 1066.109,632.949 1065.156,632.949 	"/>
	<polygon fill="none" stroke="#545454" stroke-width="10" stroke-linecap="round" stroke-miterlimit="10" points="1061.39,632.949 
		1066.109,632.949 1065.156,632.949 	"/>
	<path fill="#545454" d="M1023.615,632.949l-6.609-1.883h7.555L1023.615,632.949z M1017.943,632.949h5.672l-6.609-1.883
		L1017.943,632.949z"/>
	<path fill="none" stroke="#545454" stroke-width="10" stroke-linecap="round" stroke-miterlimit="10" d="M1023.615,632.949
		l-6.609-1.883h7.555L1023.615,632.949z M1017.943,632.949h5.672l-6.609-1.883L1017.943,632.949z"/>
	<path fill="#545454" d="M1019.834,633.895h2.836l-1.891,0.945L1019.834,633.895z M1017.943,632.949l1.891,0.945h2.836
		L1017.943,632.949z"/>
	<path fill="none" stroke="#545454" stroke-width="10" stroke-linecap="round" stroke-miterlimit="10" d="M1019.834,633.895h2.836
		l-1.891,0.945L1019.834,633.895z M1017.943,632.949l1.891,0.945h2.836L1017.943,632.949z"/>
	<polygon fill="#545454" points="1017.943,632.949 1023.615,632.949 1022.67,633.895 	"/>
	<polygon fill="none" stroke="#545454" stroke-width="10" stroke-linecap="round" stroke-miterlimit="10" points="1017.943,632.949 
		1023.615,632.949 1022.67,633.895 	"/>
	<path fill="none" stroke="#063B60" stroke-width="10" stroke-linecap="round" stroke-linejoin="round" stroke-miterlimit="10" d="
		M1020.311,626.34c-2.352,0-4.25,1.898-4.25,4.25s1.898,4.25,4.25,4.25c2.345,0,4.25-1.898,4.25-4.25
		S1022.655,626.34,1020.311,626.34"/>
	<path fill="none" stroke="#063B60" stroke-width="10" stroke-linecap="round" stroke-linejoin="round" stroke-miterlimit="10" d="
		M1063.75,625.395c-2.345,0-4.251,1.898-4.251,4.25s1.906,4.25,4.251,4.25c2.352,0,4.25-1.898,4.25-4.25
		S1066.102,625.395,1063.75,625.395"/>
	
		<polyline fill="none" stroke="#063B60" stroke-width="10" stroke-linecap="round" stroke-linejoin="round" stroke-miterlimit="10" points="
		989.615,946.488 1023.615,866.221 1052.89,946.488 	"/>
	
		<polyline fill="none" stroke="#063B60" stroke-width="10" stroke-linecap="round" stroke-linejoin="round" stroke-miterlimit="10" points="
		1032.116,946.488 1066.109,866.221 1095.391,946.488 	"/>
	<polygon fill="#545454" points="1065.164,932.324 1064.226,932.324 1067.055,932.324 	"/>
	<polygon fill="none" stroke="#545454" stroke-width="10" stroke-linecap="round" stroke-miterlimit="10" points="1065.164,932.324 
		1064.226,932.324 1067.055,932.324 	"/>
	<polygon fill="#545454" points="1022.67,932.324 1021.725,933.27 1023.615,933.27 	"/>
	<polygon fill="none" stroke="#545454" stroke-width="10" stroke-linecap="round" stroke-miterlimit="10" points="1022.67,932.324 
		1021.725,933.27 1023.615,933.27 	"/>
	<path fill="#545454" d="M1068,933.27l-3.774-0.938h2.829L1068,933.27z M1062.335,933.27H1068l-3.774-0.938L1062.335,933.27z"/>
	<path fill="none" stroke="#545454" stroke-width="10" stroke-linecap="round" stroke-miterlimit="10" d="M1068,933.27l-3.774-0.938
		h2.829L1068,933.27z M1062.335,933.27H1068l-3.774-0.938L1062.335,933.27z"/>
	<path fill="#545454" d="M1025.499,934.223l-3.774-0.945h1.891L1025.499,934.223z M1019.834,934.223h5.665l-3.774-0.945
		L1019.834,934.223z"/>
	<path fill="none" stroke="#545454" stroke-width="10" stroke-linecap="round" stroke-miterlimit="10" d="M1025.499,934.223
		l-3.774-0.945h1.891L1025.499,934.223z M1019.834,934.223h5.665l-3.774-0.945L1019.834,934.223z"/>
	<path fill="#545454" d="M1068.945,936.098l-6.61-2.82H1068L1068.945,936.098z M1061.39,936.098h7.556l-6.61-2.82L1061.39,936.098z"
		/>
	<path fill="none" stroke="#545454" stroke-width="10" stroke-linecap="round" stroke-miterlimit="10" d="M1068.945,936.098
		l-6.61-2.82H1068L1068.945,936.098z M1061.39,936.098h7.556l-6.61-2.82L1061.39,936.098z"/>
	<path fill="#545454" d="M1026.444,936.098l-6.61-1.875h5.665L1026.444,936.098z M1018.889,936.098h7.556l-6.61-1.875
		L1018.889,936.098z"/>
	<path fill="none" stroke="#545454" stroke-width="10" stroke-linecap="round" stroke-miterlimit="10" d="M1026.444,936.098
		l-6.61-1.875h5.665L1026.444,936.098z M1018.889,936.098h7.556l-6.61-1.875L1018.889,936.098z"/>
	<path fill="#545454" d="M1068,938.941l-6.61-2.836h7.556L1068,938.941z M1062.335,938.941H1068l-6.61-2.836L1062.335,938.941z"/>
	<path fill="none" stroke="#545454" stroke-width="10" stroke-linecap="round" stroke-miterlimit="10" d="M1068,938.941l-6.61-2.836
		h7.556L1068,938.941z M1062.335,938.941H1068l-6.61-2.836L1062.335,938.941z"/>
	<path fill="#545454" d="M1064.226,938.941h2.829l-1.891,0.938L1064.226,938.941z M1062.335,938.941h1.891h2.829H1062.335z"/>
	<path fill="none" stroke="#545454" stroke-width="10" stroke-linecap="round" stroke-miterlimit="10" d="M1064.226,938.941h2.829
		l-1.891,0.938L1064.226,938.941z M1062.335,938.941h1.891h2.829H1062.335z"/>
	<polygon fill="#545454" points="1062.335,938.941 1068,938.941 1067.055,938.941 	"/>
	<polygon fill="none" stroke="#545454" stroke-width="10" stroke-linecap="round" stroke-miterlimit="10" points="1062.335,938.941 
		1068,938.941 1067.055,938.941 	"/>
	<path fill="#545454" d="M1025.499,938.941l-6.61-2.836h7.556L1025.499,938.941z M1019.834,938.941h5.665l-6.61-2.836
		L1019.834,938.941z"/>
	<path fill="none" stroke="#545454" stroke-width="10" stroke-linecap="round" stroke-miterlimit="10" d="M1025.499,938.941
		l-6.61-2.836h7.556L1025.499,938.941z M1019.834,938.941h5.665l-6.61-2.836L1019.834,938.941z"/>
	<path fill="#545454" d="M1020.779,939.879h3.781h-1.891H1020.779z M1019.834,938.941l0.945,0.938h3.781L1019.834,938.941z"/>
	<path fill="none" stroke="#545454" stroke-width="10" stroke-linecap="round" stroke-miterlimit="10" d="M1020.779,939.879h3.781
		h-1.891H1020.779z M1019.834,938.941l0.945,0.938h3.781L1019.834,938.941z"/>
	<polygon fill="#545454" points="1019.834,938.941 1025.499,938.941 1024.561,939.879 	"/>
	<polygon fill="none" stroke="#545454" stroke-width="10" stroke-linecap="round" stroke-miterlimit="10" points="1019.834,938.941 
		1025.499,938.941 1024.561,939.879 	"/>
	<path fill="none" stroke="#063B60" stroke-width="10" stroke-linecap="round" stroke-linejoin="round" stroke-miterlimit="10" d="
		M1022.193,931.379c-2.344,0-4.25,1.906-4.25,4.25c0,2.352,1.906,4.25,4.25,4.25c2.353,0,4.251-1.898,4.251-4.25
		C1026.444,933.285,1024.546,931.379,1022.193,931.379"/>
	<path fill="none" stroke="#063B60" stroke-width="10" stroke-linecap="round" stroke-linejoin="round" stroke-miterlimit="10" d="
		M1064.695,931.379c-2.345,0-4.251,1.906-4.251,4.25c0,2.352,1.906,4.25,4.251,4.25c2.344,0,4.25-1.898,4.25-4.25
		C1068.945,933.285,1067.039,931.379,1064.695,931.379"/>
	
		<line fill="none" stroke="#063B60" stroke-width="10" stroke-linecap="round" stroke-linejoin="round" stroke-miterlimit="10" x1="1081.219" y1="213.641" x2="1059.499" y2="213.641"/>
	
		<line fill="none" stroke="#063B60" stroke-width="10" stroke-linecap="round" stroke-linejoin="round" stroke-miterlimit="10" x1="1030.226" y1="213.641" x2="1008.506" y2="213.641"/>
	
		<line fill="none" stroke="#063B60" stroke-width="10" stroke-linecap="round" stroke-linejoin="round" stroke-miterlimit="10" x1="1044.39" y1="198.531" x2="1044.39" y2="176.805"/>
	
		<line fill="none" stroke="#063B60" stroke-width="10" stroke-linecap="round" stroke-linejoin="round" stroke-miterlimit="10" x1="1054.78" y1="203.25" x2="1069.891" y2="188.133"/>
	
		<line fill="none" stroke="#063B60" stroke-width="10" stroke-linecap="round" stroke-linejoin="round" stroke-miterlimit="10" x1="1033.999" y1="203.25" x2="1018.889" y2="188.133"/>
	
		<line fill="none" stroke="#063B60" stroke-width="10" stroke-linecap="round" stroke-linejoin="round" stroke-miterlimit="10" x1="1008.506" y1="866.213" x2="986.778" y2="866.213"/>
	
		<line fill="none" stroke="#063B60" stroke-width="10" stroke-linecap="round" stroke-linejoin="round" stroke-miterlimit="10" x1="1080.281" y1="866.213" x2="1102.001" y2="866.213"/>
	
		<line fill="none" stroke="#063B60" stroke-width="10" stroke-linecap="round" stroke-linejoin="round" stroke-miterlimit="10" x1="1076.5" y1="854.893" x2="1091.609" y2="839.775"/>
	
		<line fill="none" stroke="#063B60" stroke-width="10" stroke-linecap="round" stroke-linejoin="round" stroke-miterlimit="10" x1="1066.109" y1="851.111" x2="1066.109" y2="829.385"/>
	
		<line fill="none" stroke="#063B60" stroke-width="10" stroke-linecap="round" stroke-linejoin="round" stroke-miterlimit="10" x1="997.17" y1="839.783" x2="1012.279" y2="854.893"/>
	
		<line fill="none" stroke="#063B60" stroke-width="10" stroke-linecap="round" stroke-linejoin="round" stroke-miterlimit="10" x1="1023.615" y1="851.111" x2="1023.615" y2="829.385"/>
	<g>
		<path fill="none" stroke="#063B60" stroke-width="10" stroke-linecap="round" stroke-linejoin="round" stroke-miterlimit="10" d="
			M1048.64-104.617c-2.344,0-4.25,1.891-4.25,4.25c0,2.344,1.906,4.25,4.25,4.25s4.25-1.906,4.25-4.25
			C1052.89-102.727,1050.983-104.617,1048.64-104.617"/>
	</g>
	<path fill="none" stroke="#2E3191" stroke-width="8" stroke-miterlimit="10" d="M767.887,290.822
		c0.825,37.462,19.513,72.24,50.285,93.584"/>
	<path fill="none" stroke="#2E3191" stroke-width="8" stroke-miterlimit="10" d="M767.887,290.822
		c0.825,37.462,19.513,72.24,50.285,93.584"/>
	<path fill="none" stroke="#2E3191" stroke-width="8" stroke-miterlimit="10" d="M767.887,290.822
		c0.825,37.462,19.513,72.24,50.285,93.584"/>
	<path fill="none" stroke="#2E3191" stroke-width="8" stroke-miterlimit="10" d="M709.579,379.903
		c32.666-18.345,54.581-51.181,58.963-88.387"/>
	<line fill="none" stroke="#2E3191" stroke-width="8" stroke-miterlimit="10" x1="767.85" y1="291.988" x2="767.85" y2="192.084"/>
	<path fill="none" stroke="#2E3191" stroke-width="8" stroke-miterlimit="10" d="M756.805,590.996
		c0.824,37.449,19.513,72.225,50.285,93.583"/>
	<path fill="none" stroke="#2E3191" stroke-width="8" stroke-miterlimit="10" d="M756.805,590.996
		c0.824,37.449,19.513,72.225,50.285,93.583"/>
	<path fill="none" stroke="#2E3191" stroke-width="8" stroke-miterlimit="10" d="M756.805,590.996
		c0.824,37.449,19.513,72.225,50.285,93.583"/>
	<path fill="none" stroke="#2E3191" stroke-width="8" stroke-miterlimit="10" d="M698.496,680.064
		c32.667-18.336,54.583-51.185,58.964-88.378"/>
	
		<line fill="none" stroke="#2E3191" stroke-width="8" stroke-miterlimit="10" x1="758.272" y1="592.149" x2="758.272" y2="492.257"/>
	<line fill="none" stroke="#2E3191" stroke-width="8" stroke-miterlimit="10" x1="758.272" y1="475.852" x2="758.272" y2="435.59"/>
	
		<line fill="none" stroke="#2E3191" stroke-width="8" stroke-miterlimit="10" x1="718.009" y1="532.507" x2="746.345" y2="504.186"/>
	<line fill="none" stroke="#2E3191" stroke-width="8" stroke-miterlimit="10" x1="770.2" y1="480.316" x2="798.523" y2="451.995"/>
	<line fill="none" stroke="#2E3191" stroke-width="8" stroke-miterlimit="10" x1="798.523" y1="532.507" x2="770.2" y2="504.186"/>
	
		<line fill="none" stroke="#2E3191" stroke-width="8" stroke-miterlimit="10" x1="747.824" y1="480.316" x2="718.009" y2="451.995"/>
</g>
<g id="ANC_LEGEND">
	<text transform="matrix(1 0 0 1 -517.8521 301.4473)" font-family="'CenturyGothic'" font-size="8.3513">IFR-Civil</text>
	<g id="MTEXT_5_">
		<text transform="matrix(1 0 0 1 -517.8521 320.666)" font-family="'CenturyGothic'" font-size="8.3513">IFR-Join Civil Military</text>
	</g>
	<g id="MTEXT_4_">
		<text transform="matrix(1 0 0 1 -517.8521 339.8867)" font-family="'CenturyGothic'" font-size="8.3513">IFR-Military</text>
	</g>
	<g id="INSERT_8_">
		<g id="CIRCLE_5_">
			
				<path fill="none" stroke="#992B20" stroke-width="10" stroke-linecap="round" stroke-linejoin="round" stroke-miterlimit="10" d="
				M-1702.967-539.039c0-76.291-61.83-138.121-138.125-138.121c-76.291,0-138.121,61.831-138.121,138.121
				c0,76.294,61.83,138.125,138.121,138.125C-1764.797-400.915-1702.967-462.745-1702.967-539.039L-1702.967-539.039z"/>
		</g>
		<g id="LWPOLYLINE_9_">
			
				<line fill="none" stroke="#992B20" stroke-width="10" stroke-linecap="round" stroke-linejoin="round" stroke-miterlimit="10" x1="-1841.091" y1="-365.953" x2="-1841.091" y2="-400.915"/>
		</g>
		<g id="LWPOLYLINE_8_">
			
				<line fill="none" stroke="#992B20" stroke-width="10" stroke-linecap="round" stroke-linejoin="round" stroke-miterlimit="10" x1="-1841.091" y1="-677.16" x2="-1841.091" y2="-717.098"/>
		</g>
		<g id="LWPOLYLINE_7_">
			
				<line fill="none" stroke="#992B20" stroke-width="10" stroke-linecap="round" stroke-linejoin="round" stroke-miterlimit="10" x1="-2016.599" y1="-539.039" x2="-1979.212" y2="-539.039"/>
		</g>
		<g id="LWPOLYLINE_6_">
			
				<line fill="none" stroke="#992B20" stroke-width="10" stroke-linecap="round" stroke-linejoin="round" stroke-miterlimit="10" x1="-1702.967" y1="-539.039" x2="-1665.519" y2="-539.039"/>
		</g>
	</g>
	<g id="INSERT_6_">
		<g id="CIRCLE_2_">
			
				<path fill="none" stroke="#992B20" stroke-width="10" stroke-linecap="round" stroke-linejoin="round" stroke-miterlimit="10" d="
				M-1702.967,944.752c0-76.287-61.83-138.117-138.125-138.117c-76.291,0-138.121,61.83-138.121,138.117
				c0,76.294,61.83,138.124,138.121,138.124C-1764.797,1082.876-1702.967,1021.046-1702.967,944.752L-1702.967,944.752z"/>
		</g>
		<g id="CIRCLE_1_">
			
				<path fill="none" stroke="#992B20" stroke-width="10" stroke-linecap="round" stroke-linejoin="round" stroke-miterlimit="10" d="
				M-1773.489,944.752c0-37.345-30.25-67.603-67.602-67.603c-37.348,0-67.603,30.258-67.603,67.603
				c0,37.352,30.254,67.602,67.603,67.602C-1803.74,1012.354-1773.489,982.104-1773.489,944.752L-1773.489,944.752z"/>
		</g>
	</g>
	<text transform="matrix(1 0 0 1 -412.6641 301.4473)" font-family="'CenturyGothic'" font-size="8.3513">VFR-Civil</text>
	<g id="MTEXT_3_">
		<text transform="matrix(1 0 0 1 -412.6641 320.666)" font-family="'CenturyGothic'" font-size="8.3513">VFR-Join Civil Military</text>
	</g>
	<g id="MTEXT_2_">
		<text transform="matrix(1 0 0 1 -412.6641 339.8867)" font-family="'CenturyGothic'" font-size="8.3513">VFR-Military</text>
	</g>
	<g id="INSERT_1_">
		<g id="CIRCLE_8_">
			
				<path fill="none" stroke="#2E3192" stroke-width="10" stroke-linecap="round" stroke-linejoin="round" stroke-miterlimit="10" d="
				M753.885-744.775c0-76.291-61.83-138.121-138.125-138.121s-138.125,61.831-138.125,138.121
				c0,76.294,61.83,138.189,138.125,138.189S753.885-668.481,753.885-744.775L753.885-744.775z"/>
		</g>
		<g id="LWPOLYLINE_18_">
			<line fill="none" stroke="#2E3192" stroke-width="10" x1="615.76" y1="-571.689" x2="615.76" y2="-606.586"/>
		</g>
		<g id="LWPOLYLINE_17_">
			<line fill="none" stroke="#2E3192" stroke-width="10" x1="615.76" y1="-882.896" x2="615.76" y2="-922.769"/>
		</g>
		<g id="LWPOLYLINE_13_">
			<line fill="none" stroke="#2E3192" stroke-width="10" x1="440.287" y1="-744.775" x2="477.635" y2="-744.775"/>
		</g>
		<g id="LWPOLYLINE_1_">
			<line fill="none" stroke="#2E3192" stroke-width="10" x1="753.885" y1="-744.775" x2="791.332" y2="-744.775"/>
		</g>
	</g>
	<g id="CIRCLE_10_">
		<path fill="none" stroke="#2E3192" stroke-width="10" stroke-linecap="round" stroke-linejoin="round" stroke-miterlimit="10" d="
			M1631.354-227.832c0-76.291-61.83-138.121-138.125-138.121c-76.294,0-138.124,61.831-138.124,138.121
			c0,76.293,61.83,138.123,138.124,138.123C1569.523-89.709,1631.354-151.539,1631.354-227.832L1631.354-227.832z"/>
	</g>
	<g id="INSERT_2_">
		<g id="CIRCLE_4_">
			
				<path fill="none" stroke="#2E3192" stroke-width="10" stroke-linecap="round" stroke-linejoin="round" stroke-miterlimit="10" d="
				M902-240c0-76.291-61.83-138.122-138.125-138.122S625.75-316.291,625.75-240c0,76.293,61.83,138.123,138.125,138.123
				S902-163.707,902-240L902-240z"/>
		</g>
	</g>
	<text transform="matrix(1 0 0 1 689.5537 -164.3555)" fill="#2E3192" font-family="'MyriadPro-Regular'" font-size="225.9887">H</text>
</g>
<g id="PLAN_VIEW">
	<g id="CIRCLE_270_">
		
			<path fill="#FFFFFF" stroke="#FFFFFF" stroke-width="0.5" stroke-linecap="round" stroke-linejoin="round" stroke-miterlimit="10" d="
			M-514.488,645c0-21.542-17.461-39.004-39.004-39.004c-21.55,0-39.02,17.462-39.02,39.004c0,21.543,17.469,39.012,39.02,39.012
			C-531.95,684.012-514.488,666.543-514.488,645L-514.488,645z"/>
	</g>
	<g id="HATCH_127_">
		<path fill-rule="evenodd" clip-rule="evenodd" fill="#231F20" d="M-541.28,611.714c0-0.769-0.622-1.406-1.398-1.406
			s-1.407,0.638-1.407,1.406c0,0.776,0.63,1.392,1.407,1.392S-541.28,612.49-541.28,611.714L-541.28,611.714z M-523.78,624.426
			c0-0.769-0.622-1.406-1.391-1.406c-0.776,0-1.399,0.638-1.399,1.406c0,0.776,0.623,1.399,1.399,1.399
			C-524.402,625.825-523.78,625.202-523.78,624.426L-523.78,624.426z M-527.338,620.253c0-0.776-0.63-1.406-1.407-1.406
			c-0.769,0-1.406,0.63-1.406,1.406s0.638,1.391,1.406,1.391C-527.969,621.644-527.338,621.029-527.338,620.253L-527.338,620.253z
			 M-541.38,619.123c0-0.769-0.623-1.398-1.399-1.398s-1.399,0.63-1.399,1.398s0.623,1.414,1.399,1.414
			S-541.38,619.892-541.38,619.123L-541.38,619.123z M-541.595,626.809c0-0.769-0.623-1.391-1.399-1.391
			c-0.776,0-1.398,0.622-1.398,1.391c0,0.776,0.623,1.406,1.398,1.406C-542.218,628.215-541.595,627.585-541.595,626.809
			L-541.595,626.809z M-536.538,621.721c0-0.769-0.623-1.406-1.399-1.406c-0.769,0-1.398,0.638-1.398,1.406
			c0,0.776,0.63,1.398,1.398,1.398C-537.161,623.119-536.538,622.497-536.538,621.721L-536.538,621.721z M-532.303,625.202
			c0-0.776-0.615-1.406-1.383-1.406c-0.776,0-1.407,0.63-1.407,1.406s0.63,1.392,1.407,1.392
			C-532.918,626.594-532.303,625.979-532.303,625.202L-532.303,625.202z M-531.527,616.679c0-0.769-0.615-1.391-1.391-1.391
			c-0.769,0-1.407,0.622-1.407,1.391s0.638,1.414,1.407,1.414C-532.142,618.093-531.527,617.447-531.527,616.679L-531.527,616.679z
			 M-536.208,613.805c0-0.776-0.623-1.398-1.399-1.398s-1.391,0.622-1.391,1.398c0,0.769,0.615,1.398,1.391,1.398
			S-536.208,614.573-536.208,613.805L-536.208,613.805z M-517.516,639.521c0-0.769-0.63-1.391-1.407-1.391
			c-0.769,0-1.391,0.622-1.391,1.391c0,0.776,0.623,1.414,1.391,1.414C-518.146,640.935-517.516,640.297-517.516,639.521
			L-517.516,639.521z M-518.8,634.187c0-0.769-0.63-1.398-1.406-1.398c-0.769,0-1.399,0.63-1.399,1.398s0.63,1.399,1.399,1.399
			C-519.43,635.586-518.8,634.955-518.8,634.187L-518.8,634.187z M-517.094,645c0-0.776-0.615-1.391-1.391-1.391
			c-0.776,0-1.406,0.614-1.406,1.391s0.63,1.407,1.406,1.407C-517.708,646.407-517.094,645.776-517.094,645L-517.094,645z
			 M-517.516,650.473c0-0.769-0.63-1.392-1.407-1.392c-0.769,0-1.391,0.623-1.391,1.392c0,0.776,0.623,1.406,1.391,1.406
			C-518.146,651.879-517.516,651.249-517.516,650.473L-517.516,650.473z M-524.625,639.536c0-0.769-0.638-1.406-1.414-1.406
			c-0.769,0-1.383,0.638-1.383,1.406c0,0.776,0.615,1.398,1.383,1.398C-525.263,640.935-524.625,640.313-524.625,639.536
			L-524.625,639.536z M-526.224,634.279c0-0.769-0.63-1.392-1.406-1.392c-0.769,0-1.399,0.623-1.399,1.392
			c0,0.776,0.63,1.406,1.399,1.406C-526.854,635.686-526.224,635.056-526.224,634.279L-526.224,634.279z M-537.245,630.151
			c0-0.775-0.63-1.406-1.399-1.406c-0.776,0-1.406,0.631-1.406,1.406c0,0.776,0.63,1.392,1.406,1.392
			C-537.875,631.543-537.245,630.928-537.245,630.151L-537.245,630.151z M-539.151,639.644c0-0.769-0.638-1.398-1.406-1.398
			c-0.776,0-1.406,0.63-1.406,1.398c0,0.784,0.63,1.398,1.406,1.398C-539.789,641.042-539.151,640.428-539.151,639.644
			L-539.151,639.644z M-542.202,635.102c0-0.776-0.615-1.406-1.391-1.406c-0.776,0-1.407,0.63-1.407,1.406s0.63,1.406,1.407,1.406
			C-542.817,636.508-542.202,635.878-542.202,635.102L-542.202,635.102z M-531.812,639.566c0-0.769-0.623-1.398-1.399-1.398
			c-0.769,0-1.406,0.63-1.406,1.398c0,0.784,0.638,1.399,1.406,1.399C-532.434,640.966-531.812,640.351-531.812,639.566
			L-531.812,639.566z M-533.902,634.494c0-0.769-0.63-1.384-1.407-1.384c-0.769,0-1.398,0.615-1.398,1.384
			c0,0.776,0.63,1.414,1.398,1.414C-534.532,635.908-533.902,635.271-533.902,634.494L-533.902,634.494z M-524.095,645
			c0-0.776-0.623-1.391-1.399-1.391c-0.769,0-1.398,0.614-1.398,1.391s0.63,1.407,1.398,1.407
			C-524.718,646.407-524.095,645.776-524.095,645L-524.095,645z M-531.089,645c0-0.776-0.63-1.391-1.399-1.391
			c-0.776,0-1.406,0.614-1.406,1.391s0.63,1.407,1.406,1.407C-531.719,646.407-531.089,645.776-531.089,645L-531.089,645z
			 M-524.625,650.465c0-0.776-0.638-1.398-1.414-1.398c-0.769,0-1.383,0.622-1.383,1.398c0,0.769,0.615,1.406,1.383,1.406
			C-525.263,651.871-524.625,651.233-524.625,650.465L-524.625,650.465z M-538.098,645c0-0.776-0.623-1.391-1.391-1.391
			c-0.784,0-1.414,0.614-1.414,1.391s0.63,1.407,1.414,1.407C-538.721,646.407-538.098,645.776-538.098,645L-538.098,645z
			 M-539.151,650.372c0-0.775-0.638-1.414-1.406-1.414c-0.776,0-1.406,0.639-1.406,1.414c0,0.769,0.63,1.392,1.406,1.392
			C-539.789,651.764-539.151,651.141-539.151,650.372L-539.151,650.372z M-531.812,650.449c0-0.776-0.623-1.414-1.399-1.414
			c-0.769,0-1.406,0.638-1.406,1.414c0,0.769,0.638,1.384,1.406,1.384C-532.434,651.833-531.812,651.218-531.812,650.449
			L-531.812,650.449z M-528.807,660.563c0-0.776-0.63-1.398-1.406-1.398c-0.769,0-1.399,0.622-1.399,1.398
			c0,0.769,0.63,1.406,1.399,1.406C-529.437,661.97-528.807,661.332-528.807,660.563L-528.807,660.563z M-523.78,665.59
			c0-0.776-0.622-1.414-1.391-1.414c-0.776,0-1.399,0.638-1.399,1.414c0,0.769,0.623,1.392,1.399,1.392
			C-524.402,666.981-523.78,666.358-523.78,665.59L-523.78,665.59z M-537.245,659.849c0-0.776-0.63-1.391-1.399-1.391
			c-0.776,0-1.406,0.614-1.406,1.391s0.63,1.406,1.406,1.406C-537.875,661.255-537.245,660.625-537.245,659.849L-537.245,659.849z
			 M-541.595,663.192c0-0.769-0.623-1.399-1.399-1.399c-0.776,0-1.398,0.631-1.398,1.399s0.623,1.398,1.398,1.398
			C-542.218,664.591-541.595,663.961-541.595,663.192L-541.595,663.192z M-532.303,664.813c0-0.776-0.615-1.406-1.383-1.406
			c-0.776,0-1.407,0.63-1.407,1.406s0.63,1.392,1.407,1.392C-532.918,666.205-532.303,665.59-532.303,664.813L-532.303,664.813z
			 M-541.38,670.878c0-0.769-0.623-1.414-1.399-1.414s-1.399,0.646-1.399,1.414s0.623,1.406,1.399,1.406
			S-541.38,671.646-541.38,670.878L-541.38,670.878z M-541.28,678.302c0-0.769-0.622-1.406-1.398-1.406s-1.407,0.638-1.407,1.406
			c0,0.776,0.63,1.398,1.407,1.398S-541.28,679.078-541.28,678.302L-541.28,678.302z M-536.208,676.196
			c0-0.769-0.623-1.407-1.399-1.407s-1.391,0.639-1.391,1.407c0,0.776,0.615,1.398,1.391,1.398S-536.208,676.973-536.208,676.196
			L-536.208,676.196z M-531.527,673.321c0-0.776-0.615-1.391-1.391-1.391c-0.769,0-1.407,0.614-1.407,1.391s0.638,1.406,1.407,1.406
			C-532.142,674.728-531.527,674.098-531.527,673.321L-531.527,673.321z M-536.538,668.295c0-0.769-0.623-1.406-1.399-1.406
			c-0.769,0-1.398,0.638-1.398,1.406c0,0.776,0.63,1.392,1.398,1.392C-537.161,669.687-536.538,669.071-536.538,668.295
			L-536.538,668.295z M-527.338,669.763c0-0.775-0.63-1.406-1.407-1.406c-0.769,0-1.406,0.631-1.406,1.406
			c0,0.776,0.638,1.392,1.406,1.392C-527.969,671.154-527.338,670.539-527.338,669.763L-527.338,669.763z M-520.906,660.901
			c0-0.776-0.623-1.406-1.398-1.406c-0.776,0-1.399,0.63-1.399,1.406s0.623,1.392,1.399,1.392
			C-521.528,662.293-520.906,661.678-520.906,660.901L-520.906,660.901z M-542.202,654.899c0-0.776-0.615-1.392-1.391-1.392
			c-0.776,0-1.407,0.615-1.407,1.392s0.63,1.406,1.407,1.406C-542.817,656.306-542.202,655.676-542.202,654.899L-542.202,654.899z
			 M-533.902,655.507c0-0.776-0.63-1.392-1.407-1.392c-0.769,0-1.398,0.615-1.398,1.392c0,0.769,0.63,1.406,1.398,1.406
			C-534.532,656.913-533.902,656.275-533.902,655.507L-533.902,655.507z M-526.224,655.722c0-0.769-0.63-1.398-1.406-1.398
			c-0.769,0-1.399,0.63-1.399,1.398s0.63,1.398,1.399,1.398C-526.854,657.12-526.224,656.49-526.224,655.722L-526.224,655.722z
			 M-518.8,655.829c0-0.776-0.63-1.414-1.406-1.414c-0.769,0-1.399,0.638-1.399,1.414c0,0.769,0.63,1.392,1.399,1.392
			C-519.43,657.221-518.8,656.598-518.8,655.829L-518.8,655.829z M-520.906,629.114c0-0.769-0.623-1.406-1.398-1.406
			c-0.776,0-1.399,0.638-1.399,1.406s0.623,1.398,1.399,1.398C-521.528,630.513-520.906,629.883-520.906,629.114L-520.906,629.114z
			 M-528.807,629.438c0-0.769-0.63-1.392-1.406-1.392c-0.769,0-1.399,0.623-1.399,1.392c0,0.775,0.63,1.414,1.399,1.414
			C-529.437,630.852-528.807,630.213-528.807,629.438L-528.807,629.438z M-546.622,610.431c0-0.776-0.623-1.406-1.399-1.406
			c-0.769,0-1.406,0.63-1.406,1.406s0.638,1.392,1.406,1.392C-547.244,611.822-546.622,611.207-546.622,610.431L-546.622,610.431z
			 M-552.094,609.992c0-0.769-0.623-1.398-1.398-1.398c-0.776,0-1.407,0.63-1.407,1.398c0,0.784,0.63,1.399,1.407,1.399
			C-552.716,611.392-552.094,610.776-552.094,609.992L-552.094,609.992z M-557.573,610.431c0-0.776-0.623-1.406-1.399-1.406
			s-1.399,0.63-1.399,1.406s0.623,1.392,1.399,1.392S-557.573,611.207-557.573,610.431L-557.573,610.431z M-562.915,611.714
			c0-0.769-0.63-1.406-1.398-1.406c-0.776,0-1.407,0.638-1.407,1.406c0,0.776,0.63,1.392,1.407,1.392
			C-563.545,613.105-562.915,612.49-562.915,611.714L-562.915,611.714z M-546.637,617.532c0-0.776-0.623-1.398-1.399-1.398
			s-1.399,0.622-1.399,1.398c0,0.769,0.623,1.406,1.399,1.406S-546.637,618.301-546.637,617.532L-546.637,617.532z
			 M-552.094,616.986c0-0.769-0.623-1.391-1.398-1.391c-0.776,0-1.407,0.622-1.407,1.391c0,0.776,0.63,1.406,1.407,1.406
			C-552.716,618.393-552.094,617.763-552.094,616.986L-552.094,616.986z M-546.66,624.703c0-0.769-0.622-1.384-1.398-1.384
			s-1.399,0.615-1.399,1.384c0,0.783,0.623,1.414,1.399,1.414S-546.66,625.486-546.66,624.703L-546.66,624.703z M-552.094,623.996
			c0-0.769-0.623-1.399-1.398-1.399c-0.776,0-1.407,0.631-1.407,1.399s0.63,1.406,1.407,1.406
			C-552.716,625.402-552.094,624.765-552.094,623.996L-552.094,623.996z M-557.566,617.532c0-0.776-0.623-1.398-1.398-1.398
			c-0.769,0-1.399,0.622-1.399,1.398c0,0.769,0.63,1.406,1.399,1.406C-558.188,618.938-557.566,618.301-557.566,617.532
			L-557.566,617.532z M-562.815,619.123c0-0.769-0.63-1.398-1.399-1.398s-1.406,0.63-1.406,1.398s0.638,1.414,1.406,1.414
			S-562.815,619.892-562.815,619.123L-562.815,619.123z M-557.535,624.703c0-0.769-0.623-1.384-1.398-1.384
			c-0.769,0-1.407,0.615-1.407,1.384c0,0.783,0.638,1.414,1.407,1.414C-558.158,626.117-557.535,625.486-557.535,624.703
			L-557.535,624.703z M-562.6,626.809c0-0.769-0.63-1.391-1.399-1.391c-0.776,0-1.399,0.622-1.399,1.391
			c0,0.776,0.623,1.406,1.399,1.406C-563.23,628.215-562.6,627.585-562.6,626.809L-562.6,626.809z M-572.683,616.679
			c0-0.769-0.623-1.391-1.391-1.391c-0.776,0-1.399,0.622-1.399,1.391s0.623,1.414,1.399,1.414
			C-573.306,618.093-572.683,617.447-572.683,616.679L-572.683,616.679z M-571.907,625.202c0-0.776-0.623-1.406-1.399-1.406
			c-0.769,0-1.391,0.63-1.391,1.406s0.623,1.392,1.391,1.392C-572.529,626.594-571.907,625.979-571.907,625.202L-571.907,625.202z
			 M-576.849,620.253c0-0.776-0.63-1.406-1.407-1.406c-0.769,0-1.398,0.63-1.398,1.406s0.63,1.391,1.398,1.391
			C-577.479,621.644-576.849,621.029-576.849,620.253L-576.849,620.253z M-580.415,624.426c0-0.769-0.63-1.406-1.398-1.406
			c-0.776,0-1.407,0.638-1.407,1.406c0,0.776,0.63,1.399,1.407,1.399C-581.045,625.825-580.415,625.202-580.415,624.426
			L-580.415,624.426z M-567.987,613.805c0-0.776-0.63-1.398-1.399-1.398c-0.776,0-1.406,0.622-1.406,1.398
			c0,0.769,0.63,1.398,1.406,1.398C-568.618,615.203-567.987,614.573-567.987,613.805L-567.987,613.805z M-567.657,621.721
			c0-0.769-0.623-1.406-1.399-1.406s-1.399,0.638-1.399,1.406c0,0.776,0.623,1.398,1.399,1.398S-567.657,622.497-567.657,621.721
			L-567.657,621.721z M-546.737,632.065c0-0.769-0.623-1.406-1.399-1.406c-0.776,0-1.398,0.638-1.398,1.406
			c0,0.776,0.623,1.398,1.398,1.398C-547.359,633.464-546.737,632.842-546.737,632.065L-546.737,632.065z M-552.094,631.005
			c0-0.776-0.623-1.406-1.398-1.406c-0.776,0-1.407,0.63-1.407,1.406c0,0.769,0.63,1.392,1.407,1.392
			C-552.716,632.396-552.094,631.773-552.094,631.005L-552.094,631.005z M-557.458,632.065c0-0.769-0.623-1.406-1.391-1.406
			c-0.776,0-1.407,0.638-1.407,1.406c0,0.776,0.63,1.398,1.407,1.398C-558.081,633.464-557.458,632.842-557.458,632.065
			L-557.458,632.065z M-565.036,639.644c0-0.769-0.63-1.398-1.399-1.398c-0.776,0-1.398,0.63-1.398,1.398
			c0,0.784,0.623,1.398,1.398,1.398C-565.667,641.042-565.036,640.428-565.036,639.644L-565.036,639.644z M-561.993,635.102
			c0-0.776-0.638-1.406-1.414-1.406c-0.769,0-1.391,0.63-1.391,1.406s0.623,1.406,1.391,1.406
			C-562.63,636.508-561.993,635.878-561.993,635.102L-561.993,635.102z M-565.036,650.372c0-0.775-0.63-1.414-1.399-1.414
			c-0.776,0-1.398,0.639-1.398,1.414c0,0.769,0.623,1.392,1.398,1.392C-565.667,651.764-565.036,651.141-565.036,650.372
			L-565.036,650.372z M-572.391,639.566c0-0.769-0.63-1.398-1.399-1.398c-0.776,0-1.398,0.63-1.398,1.398
			c0,0.784,0.623,1.399,1.398,1.399C-573.021,640.966-572.391,640.351-572.391,639.566L-572.391,639.566z M-570.293,634.494
			c0-0.769-0.623-1.384-1.391-1.384c-0.776,0-1.399,0.615-1.399,1.384c0,0.776,0.623,1.414,1.399,1.414
			C-570.916,635.908-570.293,635.271-570.293,634.494L-570.293,634.494z M-586.671,639.521c0-0.769-0.63-1.391-1.406-1.391
			c-0.769,0-1.399,0.622-1.399,1.391c0,0.776,0.63,1.414,1.399,1.414C-587.301,640.935-586.671,640.297-586.671,639.521
			L-586.671,639.521z M-585.395,634.187c0-0.769-0.623-1.398-1.399-1.398c-0.769,0-1.406,0.63-1.406,1.398s0.638,1.399,1.406,1.399
			C-586.018,635.586-585.395,634.955-585.395,634.187L-585.395,634.187z M-579.569,639.536c0-0.769-0.623-1.406-1.391-1.406
			c-0.776,0-1.414,0.638-1.414,1.406c0,0.776,0.638,1.398,1.414,1.398C-580.192,640.935-579.569,640.313-579.569,639.536
			L-579.569,639.536z M-577.971,634.279c0-0.769-0.63-1.392-1.407-1.392c-0.769,0-1.398,0.623-1.398,1.392
			c0,0.776,0.63,1.406,1.398,1.406C-578.601,635.686-577.971,635.056-577.971,634.279L-577.971,634.279z M-573.106,645
			c0-0.776-0.623-1.391-1.399-1.391c-0.776,0-1.391,0.614-1.391,1.391s0.615,1.407,1.391,1.407
			C-573.729,646.407-573.106,645.776-573.106,645L-573.106,645z M-572.391,650.449c0-0.776-0.63-1.414-1.399-1.414
			c-0.776,0-1.398,0.638-1.398,1.414c0,0.769,0.623,1.384,1.398,1.384C-573.021,651.833-572.391,651.218-572.391,650.449
			L-572.391,650.449z M-580.115,645c0-0.776-0.623-1.391-1.391-1.391c-0.776,0-1.398,0.614-1.398,1.391s0.623,1.407,1.398,1.407
			C-580.738,646.407-580.115,645.776-580.115,645L-580.115,645z M-587.109,645c0-0.776-0.623-1.391-1.399-1.391
			c-0.769,0-1.399,0.614-1.399,1.391s0.63,1.407,1.399,1.407C-587.731,646.407-587.109,645.776-587.109,645L-587.109,645z
			 M-586.671,650.473c0-0.769-0.63-1.392-1.406-1.392c-0.769,0-1.399,0.623-1.399,1.392c0,0.776,0.63,1.406,1.399,1.406
			C-587.301,651.879-586.671,651.249-586.671,650.473L-586.671,650.473z M-579.569,650.465c0-0.776-0.623-1.398-1.391-1.398
			c-0.776,0-1.414,0.622-1.414,1.398c0,0.769,0.638,1.406,1.414,1.406C-580.192,651.871-579.569,651.233-579.569,650.465
			L-579.569,650.465z M-566.95,630.151c0-0.775-0.63-1.406-1.407-1.406c-0.769,0-1.398,0.631-1.398,1.406
			c0,0.776,0.63,1.392,1.398,1.392C-567.58,631.543-566.95,630.928-566.95,630.151L-566.95,630.151z M-566.097,645
			c0-0.776-0.638-1.391-1.406-1.391c-0.776,0-1.399,0.614-1.399,1.391s0.623,1.407,1.399,1.407
			C-566.734,646.407-566.097,645.776-566.097,645L-566.097,645z M-546.737,657.95c0-0.776-0.623-1.414-1.399-1.414
			c-0.776,0-1.398,0.638-1.398,1.414c0,0.769,0.623,1.392,1.398,1.392C-547.359,659.342-546.737,658.719-546.737,657.95
			L-546.737,657.95z M-552.094,658.996c0-0.769-0.623-1.392-1.398-1.392c-0.776,0-1.407,0.623-1.407,1.392
			c0,0.775,0.63,1.414,1.407,1.414C-552.716,660.41-552.094,659.771-552.094,658.996L-552.094,658.996z M-546.66,665.298
			c0-0.776-0.622-1.414-1.398-1.414s-1.399,0.638-1.399,1.414c0,0.769,0.623,1.384,1.399,1.384S-546.66,666.066-546.66,665.298
			L-546.66,665.298z M-552.094,666.005c0-0.769-0.623-1.391-1.398-1.391c-0.776,0-1.407,0.622-1.407,1.391s0.63,1.406,1.407,1.406
			C-552.716,667.411-552.094,666.773-552.094,666.005L-552.094,666.005z M-557.458,657.95c0-0.776-0.623-1.414-1.391-1.414
			c-0.776,0-1.407,0.638-1.407,1.414c0,0.769,0.63,1.392,1.407,1.392C-558.081,659.342-557.458,658.719-557.458,657.95
			L-557.458,657.95z M-557.535,665.298c0-0.776-0.623-1.414-1.398-1.414c-0.769,0-1.407,0.638-1.407,1.414
			c0,0.769,0.638,1.384,1.407,1.384C-558.158,666.682-557.535,666.066-557.535,665.298L-557.535,665.298z M-562.6,663.192
			c0-0.769-0.63-1.399-1.399-1.399c-0.776,0-1.399,0.631-1.399,1.399s0.623,1.398,1.399,1.398
			C-563.23,664.591-562.6,663.961-562.6,663.192L-562.6,663.192z M-546.637,672.469c0-0.769-0.623-1.406-1.399-1.406
			s-1.399,0.638-1.399,1.406c0,0.776,0.623,1.406,1.399,1.406S-546.637,673.245-546.637,672.469L-546.637,672.469z
			 M-552.094,673.014c0-0.769-0.623-1.406-1.398-1.406c-0.776,0-1.407,0.638-1.407,1.406s0.63,1.399,1.407,1.399
			C-552.716,674.413-552.094,673.782-552.094,673.014L-552.094,673.014z M-546.622,679.585c0-0.776-0.623-1.406-1.399-1.406
			c-0.769,0-1.406,0.63-1.406,1.406s0.638,1.392,1.406,1.392C-547.244,680.977-546.622,680.361-546.622,679.585L-546.622,679.585z
			 M-552.094,680.008c0-0.776-0.623-1.398-1.398-1.398c-0.776,0-1.407,0.622-1.407,1.398c0,0.769,0.63,1.406,1.407,1.406
			C-552.716,681.414-552.094,680.776-552.094,680.008L-552.094,680.008z M-557.566,672.469c0-0.769-0.623-1.406-1.398-1.406
			c-0.769,0-1.399,0.638-1.399,1.406c0,0.776,0.63,1.406,1.399,1.406C-558.188,673.875-557.566,673.245-557.566,672.469
			L-557.566,672.469z M-562.815,670.878c0-0.769-0.63-1.414-1.399-1.414s-1.406,0.646-1.406,1.414s0.638,1.406,1.406,1.406
			S-562.815,671.646-562.815,670.878L-562.815,670.878z M-557.573,679.585c0-0.776-0.623-1.406-1.399-1.406s-1.399,0.63-1.399,1.406
			s0.623,1.392,1.399,1.392S-557.573,680.361-557.573,679.585L-557.573,679.585z M-562.915,678.302c0-0.769-0.63-1.406-1.398-1.406
			c-0.776,0-1.407,0.638-1.407,1.406c0,0.776,0.63,1.398,1.407,1.398C-563.545,679.7-562.915,679.078-562.915,678.302
			L-562.915,678.302z M-575.389,660.563c0-0.776-0.623-1.398-1.398-1.398c-0.769,0-1.391,0.622-1.391,1.398
			c0,0.769,0.623,1.406,1.391,1.406C-576.011,661.97-575.389,661.332-575.389,660.563L-575.389,660.563z M-571.907,664.813
			c0-0.776-0.623-1.406-1.399-1.406c-0.769,0-1.391,0.63-1.391,1.406s0.623,1.392,1.391,1.392
			C-572.529,666.205-571.907,665.59-571.907,664.813L-571.907,664.813z M-580.415,665.59c0-0.776-0.63-1.414-1.398-1.414
			c-0.776,0-1.407,0.638-1.407,1.414c0,0.769,0.63,1.392,1.407,1.392C-581.045,666.981-580.415,666.358-580.415,665.59
			L-580.415,665.59z M-583.297,660.901c0-0.776-0.623-1.406-1.399-1.406s-1.398,0.63-1.398,1.406s0.622,1.392,1.398,1.392
			S-583.297,661.678-583.297,660.901L-583.297,660.901z M-572.683,673.321c0-0.776-0.623-1.391-1.391-1.391
			c-0.776,0-1.399,0.614-1.399,1.391s0.623,1.406,1.399,1.406C-573.306,674.728-572.683,674.098-572.683,673.321L-572.683,673.321z
			 M-576.849,669.763c0-0.775-0.63-1.406-1.407-1.406c-0.769,0-1.398,0.631-1.398,1.406c0,0.776,0.63,1.392,1.398,1.392
			C-577.479,671.154-576.849,670.539-576.849,669.763L-576.849,669.763z M-566.95,659.849c0-0.776-0.63-1.391-1.407-1.391
			c-0.769,0-1.398,0.614-1.398,1.391s0.63,1.406,1.398,1.406C-567.58,661.255-566.95,660.625-566.95,659.849L-566.95,659.849z
			 M-567.657,668.295c0-0.769-0.623-1.406-1.399-1.406s-1.399,0.638-1.399,1.406c0,0.776,0.623,1.392,1.399,1.392
			S-567.657,669.071-567.657,668.295L-567.657,668.295z M-567.987,676.196c0-0.769-0.63-1.407-1.399-1.407
			c-0.776,0-1.406,0.639-1.406,1.407c0,0.776,0.63,1.398,1.406,1.398C-568.618,677.595-567.987,676.973-567.987,676.196
			L-567.987,676.196z M-561.993,654.899c0-0.776-0.638-1.392-1.414-1.392c-0.769,0-1.391,0.615-1.391,1.392s0.623,1.406,1.391,1.406
			C-562.63,656.306-561.993,655.676-561.993,654.899L-561.993,654.899z M-577.971,655.722c0-0.769-0.63-1.398-1.407-1.398
			c-0.769,0-1.398,0.63-1.398,1.398s0.63,1.398,1.398,1.398C-578.601,657.12-577.971,656.49-577.971,655.722L-577.971,655.722z
			 M-585.395,655.829c0-0.776-0.623-1.414-1.399-1.414c-0.769,0-1.406,0.638-1.406,1.414c0,0.769,0.638,1.392,1.406,1.392
			C-586.018,657.221-585.395,656.598-585.395,655.829L-585.395,655.829z M-570.293,655.507c0-0.776-0.623-1.392-1.391-1.392
			c-0.776,0-1.399,0.615-1.399,1.392c0,0.769,0.623,1.406,1.399,1.406C-570.916,656.913-570.293,656.275-570.293,655.507
			L-570.293,655.507z M-583.297,629.114c0-0.769-0.623-1.406-1.399-1.406s-1.398,0.638-1.398,1.406s0.622,1.398,1.398,1.398
			S-583.297,629.883-583.297,629.114L-583.297,629.114z M-575.389,629.438c0-0.769-0.623-1.392-1.398-1.392
			c-0.769,0-1.391,0.623-1.391,1.392c0,0.775,0.623,1.414,1.391,1.414C-576.011,630.852-575.389,630.213-575.389,629.438
			L-575.389,629.438z"/>
	</g>
	<g id="CIRCLE_160_">
		
			<path fill="#231F20" stroke="#231F20" stroke-width="0.5" stroke-linecap="round" stroke-linejoin="round" stroke-miterlimit="10" d="
			M-551.932,645c0-0.86-0.707-1.56-1.56-1.56c-0.861,0-1.561,0.699-1.561,1.56c0,0.869,0.7,1.561,1.561,1.561
			C-552.639,646.561-551.932,645.869-551.932,645L-551.932,645z"/>
	</g>
	<g>
		<g id="LWPOLYLINE_549_">
			
				<rect x="-584.799" y="712.687" fill="#FFFFFF" stroke="#FFFFFF" stroke-width="0.5" stroke-miterlimit="10" width="76.917" height="76.917"/>
		</g>
		<g id="LWPOLYLINE_1809_">
			<polygon fill="none" stroke="#231F20" stroke-width="0.5" stroke-miterlimit="10" points="-561.874,724.246 -577.406,751.146 
				-561.874,778.045 -530.816,778.045 -515.276,751.146 -530.816,724.246 			"/>
		</g>
		<g id="LWPOLYLINE_1810_">
			
				<rect x="-580.957" y="716.529" fill="none" stroke="#231F20" stroke-width="0.5" stroke-miterlimit="10" width="69.231" height="69.231"/>
		</g>
		<g id="CIRCLE_287_">
			
				<path fill="#231F20" stroke="#231F20" stroke-width="0.5" stroke-linecap="round" stroke-linejoin="round" stroke-miterlimit="10" d="
				M-544.143,751.146c0-1.215-0.983-2.198-2.198-2.198s-2.198,0.983-2.198,2.198c0,1.214,0.984,2.198,2.198,2.198
				S-544.143,752.359-544.143,751.146L-544.143,751.146z"/>
		</g>
	</g>
	<g>
		<g>
			<g id="CIRCLE_285_" opacity="0.5">
				
					<path fill="#FFFFFF" stroke="#FFFFFF" stroke-width="0.7087" stroke-linecap="round" stroke-linejoin="round" stroke-miterlimit="10" d="
					M-458.707,919.574c0-48.442-39.262-87.692-87.692-87.692c-48.438,0-87.692,39.25-87.692,87.692
					c0,48.427,39.254,87.692,87.692,87.692C-497.968,1007.267-458.707,968.001-458.707,919.574L-458.707,919.574z"/>
			</g>
			<g id="LWPOLYLINE_1628_">
				
					<line fill="none" stroke="#231F20" stroke-width="0.1" stroke-miterlimit="10" x1="-496.201" y1="859.75" x2="-491.735" y2="854.424"/>
			</g>
			<g id="LWPOLYLINE_1627_">
				
					<line fill="none" stroke="#231F20" stroke-width="0.1" stroke-miterlimit="10" x1="-486.578" y1="869.38" x2="-480.553" y2="864.323"/>
			</g>
			<g id="LWPOLYLINE_1624_">
				
					<line fill="none" stroke="#231F20" stroke-width="0.1" stroke-miterlimit="10" x1="-473.021" y1="892.867" x2="-465.624" y2="890.177"/>
			</g>
			<g id="LWPOLYLINE_1621_">
				
					<line fill="none" stroke="#231F20" stroke-width="0.1" stroke-miterlimit="10" x1="-462.646" y1="934.338" x2="-469.493" y2="933.132"/>
			</g>
			<g id="LWPOLYLINE_1620_">
				
					<line fill="none" stroke="#231F20" stroke-width="0.1" stroke-miterlimit="10" x1="-469.493" y1="906.009" x2="-461.754" y2="904.642"/>
			</g>
			<g id="LWPOLYLINE_1619_">
				
					<line fill="none" stroke="#231F20" stroke-width="0.1" stroke-miterlimit="10" x1="-466.48" y1="948.664" x2="-473.021" y2="946.281"/>
			</g>
			<g id="LWPOLYLINE_1618_">
				
					<line fill="none" stroke="#231F20" stroke-width="0.1" stroke-miterlimit="10" x1="-481.245" y1="974.241" x2="-486.578" y2="969.769"/>
			</g>
			<g id="LWPOLYLINE_1617_">
				
					<line fill="none" stroke="#231F20" stroke-width="0.1" stroke-miterlimit="10" x1="-491.735" y1="984.717" x2="-496.201" y2="979.398"/>
			</g>
			<g id="LWPOLYLINE_1616_">
				
					<line fill="none" stroke="#231F20" stroke-width="0.1" stroke-miterlimit="10" x1="-519.691" y1="846.185" x2="-517.309" y2="839.652"/>
			</g>
			<g id="LWPOLYLINE_1615_">
				
					<line fill="none" stroke="#231F20" stroke-width="0.1" stroke-miterlimit="10" x1="-532.833" y1="842.673" x2="-531.631" y2="835.825"/>
			</g>
			<g id="LWPOLYLINE_1614_">
				
					<line fill="none" stroke="#231F20" stroke-width="0.1" stroke-miterlimit="10" x1="-559.963" y1="842.673" x2="-561.328" y2="834.918"/>
			</g>
			<g id="LWPOLYLINE_1612_">
				
					<line fill="none" stroke="#231F20" stroke-width="0.1" stroke-miterlimit="10" x1="-573.106" y1="846.185" x2="-575.796" y2="838.799"/>
			</g>
			<g id="LWPOLYLINE_1610_">
				
					<line fill="none" stroke="#231F20" stroke-width="0.1" stroke-miterlimit="10" x1="-596.597" y1="859.75" x2="-601.658" y2="853.732"/>
			</g>
			<g id="LWPOLYLINE_1609_">
				
					<line fill="none" stroke="#231F20" stroke-width="0.1" stroke-miterlimit="10" x1="-606.219" y1="869.38" x2="-611.553" y2="864.899"/>
			</g>
			<g id="LWPOLYLINE_1606_">
				
					<line fill="none" stroke="#231F20" stroke-width="0.1" stroke-miterlimit="10" x1="-619.776" y1="892.867" x2="-626.317" y2="890.484"/>
			</g>
			<g id="LWPOLYLINE_1605_">
				
					<line fill="none" stroke="#231F20" stroke-width="0.1" stroke-miterlimit="10" x1="-630.152" y1="934.338" x2="-623.304" y2="933.132"/>
			</g>
			<g id="LWPOLYLINE_1604_">
				
					<line fill="none" stroke="#231F20" stroke-width="0.1" stroke-miterlimit="10" x1="-623.304" y1="906.009" x2="-630.152" y2="904.811"/>
			</g>
			<g id="LWPOLYLINE_1601_">
				
					<line fill="none" stroke="#231F20" stroke-width="0.1" stroke-miterlimit="10" x1="-611.553" y1="974.241" x2="-606.219" y2="969.769"/>
			</g>
			<g id="LWPOLYLINE_1600_">
				
					<line fill="none" stroke="#231F20" stroke-width="0.1" stroke-miterlimit="10" x1="-601.062" y1="984.717" x2="-596.597" y2="979.398"/>
			</g>
			<g id="LWPOLYLINE_1599_">
				
					<line fill="none" stroke="#231F20" stroke-width="0.1" stroke-miterlimit="10" x1="-626.317" y1="948.664" x2="-619.776" y2="946.281"/>
			</g>
			<g id="LWPOLYLINE_1598_">
				
					<line fill="none" stroke="#231F20" stroke-width="0.1" stroke-miterlimit="10" x1="-531.631" y1="1003.323" x2="-532.833" y2="996.476"/>
			</g>
			<g id="LWPOLYLINE_1597_">
				
					<line fill="none" stroke="#231F20" stroke-width="0.1" stroke-miterlimit="10" x1="-561.174" y1="1003.323" x2="-559.963" y2="996.476"/>
			</g>
			<g id="LWPOLYLINE_1596_">
				
					<line fill="none" stroke="#231F20" stroke-width="0.1" stroke-miterlimit="10" x1="-517.309" y1="999.496" x2="-519.691" y2="992.948"/>
			</g>
			<g id="LWPOLYLINE_1595_">
				
					<line fill="none" stroke="#231F20" stroke-width="0.1" stroke-miterlimit="10" x1="-575.488" y1="999.496" x2="-573.106" y2="992.948"/>
			</g>
			<g id="LWPOLYLINE_1775_">
				
					<line fill="none" stroke="#231F20" stroke-width="0.25" stroke-miterlimit="10" x1="-472.752" y1="877.042" x2="-485.472" y2="884.397"/>
			</g>
			<g id="LWPOLYLINE_1780_">
				
					<line fill="none" stroke="#231F20" stroke-width="0.25" stroke-miterlimit="10" x1="-472.637" y1="962.16" x2="-483.243" y2="956.034"/>
			</g>
			<g id="LWPOLYLINE_1789_">
				
					<line fill="none" stroke="#231F20" stroke-width="0.25" stroke-miterlimit="10" x1="-503.975" y1="846.101" x2="-511.218" y2="858.65"/>
			</g>
			<g id="LWPOLYLINE_1790_">
				
					<line fill="none" stroke="#231F20" stroke-width="0.25" stroke-miterlimit="10" x1="-581.579" y1="858.65" x2="-588.919" y2="845.916"/>
			</g>
			<g id="LWPOLYLINE_1794_">
				
					<line fill="none" stroke="#231F20" stroke-width="0.25" stroke-miterlimit="10" x1="-607.434" y1="884.574" x2="-620.153" y2="877.227"/>
			</g>
			<g id="LWPOLYLINE_1795_">
				
					<line fill="none" stroke="#231F20" stroke-width="0.25" stroke-miterlimit="10" x1="-503.878" y1="993.225" x2="-511.218" y2="980.497"/>
			</g>
			<g id="LWPOLYLINE_1798_">
				
					<line fill="none" stroke="#231F20" stroke-width="0.25" stroke-miterlimit="10" x1="-581.579" y1="980.497" x2="-589.026" y2="993.401"/>
			</g>
			<g id="LWPOLYLINE_1800_">
				
					<line fill="none" stroke="#231F20" stroke-width="0.25" stroke-miterlimit="10" x1="-607.326" y1="954.743" x2="-620.053" y2="962.099"/>
			</g>
			<g id="HATCH_43_">
				<polygon fill-rule="evenodd" clip-rule="evenodd" fill="#231F20" points="-541.737,986.945 -550.914,986.953 -546.398,1003.708 
									"/>
			</g>
			<g id="ARC_326_">
				<path fill="#231F20" d="M-550.914,986.969c3.055,0.2,6.118,0.2,9.177-0.016"/>
			</g>
			<g id="LINE_56_">
				<line fill="#231F20" x1="-547.409" y1="987.107" x2="-545.246" y2="987.107"/>
			</g>
			<g id="LINE_54_">
				<line fill="#231F20" x1="-547.409" y1="974.441" x2="-545.246" y2="974.441"/>
			</g>
			<g id="HATCH_41_">
				<polygon fill-rule="evenodd" clip-rule="evenodd" fill="#231F20" points="-479.016,914.917 -479.008,924.078 -462.261,919.574 
									"/>
			</g>
			<g id="ARC_325_">
				<path fill="#231F20" d="M-479.008,924.086c0.204-3.052,0.204-6.118-0.008-9.169"/>
			</g>
			<g id="LINE_48_">
				<line fill="#231F20" x1="-478.862" y1="920.581" x2="-478.862" y2="918.414"/>
			</g>
			<g id="LWPOLYLINE_1229_">
				<line fill="#231F20" x1="-546.398" y1="835.44" x2="-541.883" y2="852.18"/>
			</g>
			<g id="LWPOLYLINE_1228_">
				<line fill="#231F20" x1="-551.067" y1="852.195" x2="-546.398" y2="835.44"/>
			</g>
			<g id="HATCH_39_">
				<polygon fill-rule="evenodd" clip-rule="evenodd" fill="#231F20" points="-551.067,852.195 -541.883,852.195 -546.398,835.44 
									"/>
			</g>
			<g id="ARC_324_">
				<path fill="#231F20" d="M-541.883,852.18c-3.055-0.2-6.129-0.2-9.184,0.016"/>
			</g>
			<g id="LINE_40_">
				<line fill="#231F20" x1="-545.388" y1="852.026" x2="-547.551" y2="852.026"/>
			</g>
			<g id="LWPOLYLINE_1227_">
				<line fill="#231F20" x1="-630.536" y1="919.574" x2="-613.79" y2="915.063"/>
			</g>
			<g id="LWPOLYLINE_1226_">
				<line fill="#231F20" x1="-613.782" y1="924.231" x2="-630.536" y2="919.574"/>
			</g>
			<g id="HATCH_37_">
				<polygon fill-rule="evenodd" clip-rule="evenodd" fill="#231F20" points="-613.782,924.231 -613.79,915.048 -630.536,919.574 
									"/>
			</g>
			<g id="ARC_323_">
				<path fill="#231F20" d="M-613.79,915.063c-0.204,3.052-0.204,6.118,0.008,9.169"/>
			</g>
			<g id="LINE_9_">
				<line fill="#231F20" x1="-613.936" y1="918.567" x2="-613.936" y2="920.727"/>
			</g>
			<g id="LINE_5_">
				<line fill="#231F20" x1="-601.262" y1="918.567" x2="-601.262" y2="920.727"/>
			</g>
			<g id="LWPOLYLINE_1772_">
				
					<path fill="none" stroke="#231F20" stroke-width="0.25" stroke-linecap="round" stroke-linejoin="round" stroke-miterlimit="10" d="
					M-461.243,917.922c-0.911-47.036-39.773-84.418-86.808-83.504c-47.036,0.915-84.415,39.773-83.504,86.809
					c0.911,47.028,39.773,84.418,86.809,83.504c46.382-0.899,83.522-38.767,83.522-85.156
					C-461.224,919.013-461.231,918.468-461.243,917.922z"/>
			</g>
			<g id="TEXT_88_">
				<text transform="matrix(1 0 0 1 -549.8159 864.9736)" fill="#231F20" font-family="'Verdana'" font-size="11.9286">0</text>
			</g>
			<g id="TEXT_89_">
				<text transform="matrix(1 0 0 1 -495.6011 923.7666)" fill="#231F20" font-family="'Verdana'" font-size="11.9286">90</text>
			</g>
			<g id="TEXT_90_">
				<text transform="matrix(1 0 0 1 -555.1401 982.1455)" fill="#231F20" font-family="'Verdana'" font-size="11.9286">180</text>
			</g>
			<g id="TEXT_91_">
				<text transform="matrix(1 0 0 1 -609.8003 923.7666)" fill="#231F20" font-family="'Verdana'" font-size="11.9286">270</text>
			</g>
		</g>
		<path fill="#231F20" stroke="#231F20" stroke-width="0.1" d="M-544.942,919.505c0,0.8-0.653,1.453-1.456,1.453
			c-0.803,0-1.457-0.653-1.457-1.453c0-0.799,0.653-1.46,1.457-1.46C-545.596,918.045-544.942,918.706-544.942,919.505z"/>
	</g>
</g>
<g id="WAYPOINT_SYMBOL">
	<g>
		<g id="LWPOLYLINE_19_">
			<polygon fill="#FFFFFF" stroke="#FFFFFF" stroke-width="0.5" stroke-miterlimit="10" points="-279.868,1006.121 -250.417,955.12 
				-220.981,1006.121 			"/>
		</g>
		<g id="LWPOLYLINE_12_">
			<polygon fill="#231F20" stroke="#231F20" stroke-width="0.5" stroke-miterlimit="10" points="-274.272,1002.894 
				-250.417,961.583 -226.576,1002.894 			"/>
		</g>
		<g id="CIRCLE_11_">
			
				<path fill="#FFFFFF" stroke="#FFFFFF" stroke-width="0.5" stroke-linecap="round" stroke-linejoin="round" stroke-miterlimit="10" d="
				M-248.587,989.121c0-1.015-0.83-1.829-1.829-1.829c-1.015,0-1.845,0.814-1.845,1.829c0,1.014,0.83,1.837,1.845,1.837
				C-249.417,990.958-248.587,990.135-248.587,989.121L-248.587,989.121z"/>
		</g>
	</g>
	<g>
		<g id="LWPOLYLINE_11_">
			<polygon fill="#FFFFFF" stroke="#FFFFFF" stroke-width="0.5" stroke-miterlimit="10" points="-189.455,1004.907 -160.004,953.89 
				-130.568,1004.907 			"/>
		</g>
		<g id="LWPOLYLINE_10_">
			<polygon fill="#FFFFFF" stroke="#231F20" stroke-width="0.5" stroke-miterlimit="10" points="-183.86,1001.671 -160.004,960.361 
				-136.164,1001.671 			"/>
		</g>
		<g id="CIRCLE_7_">
			
				<path fill="#231F20" stroke="#231F20" stroke-width="0.5" stroke-linecap="round" stroke-linejoin="round" stroke-miterlimit="10" d="
				M-158.175,987.906c0-1.022-0.83-1.845-1.829-1.845c-1.015,0-1.845,0.822-1.845,1.845c0,1.007,0.83,1.829,1.845,1.829
				C-159.005,989.735-158.175,988.913-158.175,987.906L-158.175,987.906z"/>
		</g>
	</g>
</g>
<g id="Wpt_Symbol">
	<g>
		<g id="LWPOLYLINE_73_">
			<polygon fill="#FFFFFF" points="-265.707,813.506 -305.464,827.793 -265.707,842.081 -251.419,881.838 -237.128,842.081 
				-197.371,827.793 -237.128,813.506 -251.419,773.741 			"/>
		</g>
		<g id="HATCH_57_">
			<path fill-rule="evenodd" clip-rule="evenodd" fill="#FFFFFF" d="M-241.524,817.895l-9.888-27.561l-9.907,27.561l-27.541,9.898
				l27.541,9.907l9.907,27.537l9.888-27.537l27.56-9.907L-241.524,817.895z M-240.272,827.793h-22.284H-240.272z"/>
		</g>
		<g id="LWPOLYLINE_58_">
			<polygon fill="none" stroke="#231F20" stroke-width="0.5" stroke-linecap="round" stroke-miterlimit="10" points="
				-261.319,817.895 -288.868,827.793 -261.319,837.692 -251.419,865.237 -241.517,837.692 -213.972,827.793 -241.517,817.895 
				-251.419,790.342 			"/>
		</g>
		<g id="CIRCLE_26_">
			
				<path fill="none" stroke="#231F20" stroke-width="0.5" stroke-linecap="round" stroke-linejoin="round" stroke-miterlimit="10" d="
				M-240.272,827.793c0-6.155-4.992-11.144-11.147-11.144c-6.152,0-11.144,4.988-11.144,11.144c0,6.156,4.992,11.145,11.144,11.145
				C-245.264,838.938-240.272,833.949-240.272,827.793L-240.272,827.793z"/>
		</g>
	</g>
	<g>
		<g id="LWPOLYLINE_52_">
			<polygon fill="#FFFFFF" points="-84.347,813.422 -124.097,827.701 -84.347,841.988 -70.06,881.738 -55.772,841.988 
				-16.023,827.701 -55.772,813.422 -70.06,773.664 			"/>
		</g>
		<g id="HATCH_22_">
			<path fill-rule="evenodd" clip-rule="evenodd" fill="#FFFFFF" d="M-60.168,817.817l-9.892-27.553l-9.899,27.553l-27.537,9.876
				l27.537,9.907l9.899,27.545l9.892-27.545l27.552-9.907L-60.168,817.817z M-58.916,827.693h-22.28H-58.916z"/>
		</g>
		<path fill="#FFFFFF" d="M-121.972,827.701c0-28.659,23.241-51.9,51.908-51.9c28.667,0,51.904,23.241,51.904,51.9
			c0,28.675-23.237,51.908-51.904,51.908C-98.731,879.609-121.972,856.376-121.972,827.701z"/>
		<g id="LWPOLYLINE_51_">
			<polygon fill="#231F20" stroke="#231F20" stroke-width="0.5" stroke-linecap="round" stroke-miterlimit="10" points="
				-79.959,817.802 -107.504,827.701 -79.959,837.601 -70.06,865.146 -60.161,837.601 -32.624,827.701 -60.161,817.802 
				-70.06,790.265 			"/>
		</g>
		<path fill="none" stroke="#231F20" stroke-width="0.5" stroke-linecap="round" stroke-miterlimit="10" d="M-111.243,827.701
			c0-22.741,18.438-41.172,41.179-41.172c22.742,0,41.179,18.431,41.179,41.172c0,22.749-18.438,41.179-41.179,41.179
			C-92.805,868.88-111.243,850.45-111.243,827.701z"/>
		<g id="CIRCLE_9_">
			
				<path fill="#FFFFFF" stroke="#FFFFFF" stroke-width="0.5" stroke-linecap="round" stroke-linejoin="round" stroke-miterlimit="10" d="
				M-58.916,827.701c0-6.148-4.988-11.145-11.144-11.145s-11.144,4.996-11.144,11.145c0,6.156,4.988,11.144,11.144,11.144
				S-58.916,833.857-58.916,827.701L-58.916,827.701z"/>
		</g>
	</g>
</g>
<g id="BASEMAP">
	<g id="LWPOLYLINE_291_">
		<polyline fill="none" stroke="#2E3191" stroke-width="8" stroke-miterlimit="10" points="168.272,229.497 114.486,97.11 
			61.389,229.497 		"/>
	</g>
	<g id="LINE_83_">
		<line fill="none" stroke="#2E3191" stroke-width="8" stroke-miterlimit="10" x1="89.031" y1="97.11" x2="38.637" y2="97.11"/>
	</g>
	<g id="LINE_82_">
		<line fill="none" stroke="#2E3191" stroke-width="8" stroke-miterlimit="10" x1="92.103" y1="85.537" x2="51.071" y2="55.649"/>
	</g>
	<g id="LINE_81_">
		<line fill="none" stroke="#2E3191" stroke-width="8" stroke-miterlimit="10" x1="114.486" y1="73.703" x2="114.486" y2="21.348"/>
	</g>
	<g id="LINE_80_">
		<line fill="none" stroke="#2E3191" stroke-width="8" stroke-miterlimit="10" x1="135.22" y1="85.537" x2="180.289" y2="55.649"/>
	</g>
	<g id="LINE_79_">
		<line fill="none" stroke="#2E3191" stroke-width="8" stroke-miterlimit="10" x1="139.684" y1="97.11" x2="190.249" y2="97.11"/>
	</g>
	<circle fill="none" stroke="#2E3191" stroke-width="8" stroke-miterlimit="10" cx="114.271" cy="212.057" r="6.527"/>
	<g id="LWPOLYLINE_2_">
		<polyline fill="none" stroke="#2E3191" stroke-width="8" stroke-miterlimit="10" points="85.768,487.9 31.982,355.514 
			-21.115,487.9 		"/>
	</g>
	<circle fill="none" stroke="#2E3191" stroke-width="8" stroke-miterlimit="10" cx="31.767" cy="470.461" r="6.527"/>
	<g id="LWPOLYLINE_3_">
		<polyline fill="none" stroke="#2E3191" stroke-width="8" stroke-miterlimit="10" points="309.924,487.9 256.139,355.514 
			203.041,487.9 		"/>
	</g>
	<g id="LINE_12_">
		
			<line fill="none" stroke="#2E3191" stroke-width="8" stroke-miterlimit="10" x1="230.684" y1="355.514" x2="180.289" y2="355.514"/>
	</g>
	<g id="LINE_11_">
		
			<line fill="none" stroke="#2E3191" stroke-width="8" stroke-miterlimit="10" x1="233.755" y1="343.941" x2="192.723" y2="314.053"/>
	</g>
	<g id="LINE_10_">
		
			<line fill="none" stroke="#2E3191" stroke-width="8" stroke-miterlimit="10" x1="256.139" y1="332.107" x2="256.139" y2="279.752"/>
	</g>
	<circle fill="none" stroke="#2E3191" stroke-width="8" stroke-miterlimit="10" cx="255.924" cy="470.461" r="6.527"/>
	<g id="LWPOLYLINE_4_">
		<polyline fill="none" stroke="#2E3191" stroke-width="8" stroke-miterlimit="10" points="385.73,487.9 331.945,355.514 
			278.848,487.9 		"/>
	</g>
	<g id="LINE_15_">
		
			<line fill="none" stroke="#2E3191" stroke-width="8" stroke-miterlimit="10" x1="331.945" y1="332.107" x2="331.945" y2="279.752"/>
	</g>
	<g id="LINE_14_">
		
			<line fill="none" stroke="#2E3191" stroke-width="8" stroke-miterlimit="10" x1="352.678" y1="343.941" x2="397.748" y2="314.053"/>
	</g>
	<g id="LINE_13_">
		
			<line fill="none" stroke="#2E3191" stroke-width="8" stroke-miterlimit="10" x1="357.143" y1="355.514" x2="407.707" y2="355.514"/>
	</g>
	<circle fill="none" stroke="#2E3191" stroke-width="8" stroke-miterlimit="10" cx="331.73" cy="470.461" r="6.527"/>
	<g id="LWPOLYLINE_14_">
		<polyline fill="none" stroke="#2E3191" stroke-width="8" stroke-miterlimit="10" points="527.382,487.9 473.597,355.514 
			420.499,487.9 		"/>
	</g>
	<circle fill="none" stroke="#2E3191" stroke-width="8" stroke-miterlimit="10" cx="473.382" cy="470.461" r="6.527"/>
	<g id="LWPOLYLINE_5_">
		<polyline fill="none" stroke="#2E3191" stroke-width="8" stroke-miterlimit="10" points="603.188,487.9 549.403,355.514 
			496.306,487.9 		"/>
	</g>
	<circle fill="none" stroke="#2E3191" stroke-width="8" stroke-miterlimit="10" cx="549.188" cy="470.461" r="6.527"/>
</g>
</svg>
