<?xml version="1.0" encoding="utf-8"?>
<!-- Generator: Adobe Illustrator 15.0.0, SVG Export Plug-In . SVG Version: 6.00 Build 0)  -->
<!DOCTYPE svg PUBLIC "-//W3C//DTD SVG 1.1//EN" "http://www.w3.org/Graphics/SVG/1.1/DTD/svg11.dtd">
<svg version="1.1" xmlns="http://www.w3.org/2000/svg" xmlns:xlink="http://www.w3.org/1999/xlink" x="0px" y="0px"
	 width="131.492px" height="159.974px" viewBox="0 0 131.492 159.974" enable-background="new 0 0 131.492 159.974"
	 xml:space="preserve">
<g id="Layer_1">
	<polygon fill="none" stroke="#231F20" stroke-width="10" stroke-miterlimit="10" points="-1025.119,1021.351 -1100.235,1151.455 
		-1025.119,1281.559 -874.889,1281.559 -799.772,1151.455 -874.889,1021.351 	"/>
	<path fill="#231F20" d="M-960.633,1151.455c0-5.871,4.759-10.629,10.629-10.629s10.629,4.758,10.629,10.629
		s-4.759,10.629-10.629,10.629S-960.633,1157.326-960.633,1151.455"/>
	<circle fill="none" stroke="#231F20" stroke-width="5" stroke-miterlimit="10" cx="-950.004" cy="1151.455" r="10.629"/>
	<path fill="none" stroke="#2E3192" stroke-width="10" stroke-linecap="round" stroke-linejoin="round" stroke-miterlimit="10" d="
		M358.259,438.42c-10.023,0-18.158,8.136-18.158,18.159c0,10.024,8.135,18.158,18.158,18.158c10.037,0,18.158-8.134,18.158-18.158
		C376.417,446.556,368.296,438.42,358.259,438.42"/>
	
		<line fill="none" stroke="#2E3192" stroke-width="10" stroke-linecap="round" stroke-linejoin="round" stroke-miterlimit="10" x1="406.426" y1="487.372" x2="310.092" y2="487.372"/>
	
		<line fill="none" stroke="#2E3192" stroke-width="10" stroke-linecap="round" stroke-linejoin="round" stroke-miterlimit="10" x1="357.475" y1="487.372" x2="357.475" y2="624.766"/>
	<path fill="none" stroke="#2E3192" stroke-width="10" stroke-linecap="round" stroke-linejoin="round" stroke-miterlimit="10" d="
		M281.677,584.747c18.082,23.453,45.727,37.552,75.31,38.387"/>
	<path fill="none" stroke="#2E3192" stroke-width="10" stroke-linecap="round" stroke-linejoin="round" stroke-miterlimit="10" d="
		M357.952,623.146c29.596-0.86,57.239-14.958,75.31-38.386"/>
	
		<polyline fill="none" stroke="#2E3192" stroke-width="10" stroke-linecap="round" stroke-linejoin="round" stroke-miterlimit="10" points="
		273.775,566.331 270.613,591.595 294.298,582.125 273.775,566.331 	"/>
	
		<polyline fill="none" stroke="#2E3192" stroke-width="10" stroke-linecap="round" stroke-linejoin="round" stroke-miterlimit="10" points="
		442.745,566.331 445.907,591.595 422.222,582.125 442.745,566.331 	"/>
	
		<polyline fill="none" stroke="#063B60" stroke-width="10" stroke-linecap="round" stroke-linejoin="round" stroke-miterlimit="10" points="
		979.199,-113.424 1012.247,-193.7 1042.474,-113.424 	"/>
	<polygon fill="#545454" points="1015.083,-195.598 1012.247,-197.481 1010.364,-195.598 	"/>
	<polygon fill="none" stroke="#545454" stroke-width="10" stroke-linecap="round" stroke-miterlimit="10" points="
		1012.247,-197.481 1010.364,-195.598 1015.083,-195.598 	"/>
	<polygon fill="#545454" points="1013.192,-190.864 1012.239,-193.708 1011.309,-190.864 	"/>
	<polygon fill="none" stroke="#545454" stroke-width="10" stroke-linecap="round" stroke-miterlimit="10" points="1012.247,-193.7 
		1011.309,-190.872 1013.192,-190.872 	"/>
	<path fill="#545454" d="M1010.364-195.59l5.664,1.883l-0.945-1.883H1010.364z M1016.028-193.708l-5.664-1.883l-1.883,1.883
		H1016.028z"/>
	<path fill="none" stroke="#545454" stroke-width="10" stroke-linecap="round" stroke-miterlimit="10" d="M1016.028-193.7
		l-5.664-1.891h4.719L1016.028-193.7z M1008.473-193.7h7.555l-5.664-1.891L1008.473-193.7z"/>
	<path fill="#545454" d="M1011.309-189.918v-0.945h-1.891L1011.309-189.918z M1009.418-190.864h1.891l-2.836-2.844L1009.418-190.864
		z M1008.473-193.708l2.836,2.844l0.938-2.844H1008.473z"/>
	<path fill="none" stroke="#545454" stroke-width="10" stroke-linecap="round" stroke-miterlimit="10" d="M1011.309-190.864
		l-2.836-2.836h3.773L1011.309-190.864z M1009.418-190.864h1.891l-2.836-2.836L1009.418-190.864z M1011.309-189.926l-1.891-0.938
		h1.891V-189.926z"/>
	<path fill="#545454" d="M1013.2-190.864h2.828l-3.781-2.844L1013.2-190.864z M1012.247-193.708l3.781,2.844v-2.844H1012.247z"/>
	<path fill="none" stroke="#545454" stroke-width="10" stroke-linecap="round" stroke-miterlimit="10" d="M1016.028-190.872
		l-3.781-2.828h3.781V-190.872z M1013.192-190.872h2.836l-3.781-2.828L1013.192-190.872z"/>
	<path fill="#545454" d="M1013.192-190.864h-1.883H1013.192z M1013.192-190.864h-1.883H1013.192z"/>
	<path fill="none" stroke="#545454" stroke-width="10" stroke-linecap="round" stroke-miterlimit="10" d="M1013.192-190.872
		L1013.192-190.872h-1.883H1013.192z M1011.309-190.872h1.883H1011.309z"/>
	<path fill="#545454" d="M1011.309-190.864h-1.891H1011.309z M1011.309-190.864h-1.891H1011.309z"/>
	<path fill="none" stroke="#545454" stroke-width="10" stroke-linecap="round" stroke-miterlimit="10" d="M1011.309-190.872
		L1011.309-190.872h-1.891H1011.309z M1009.418-190.872h1.891H1009.418z"/>
	<path fill="#545454" d="M1014.137-189.926l1.891-0.945h-2.836L1014.137-189.926z M1014.137-189.926l-0.945-0.945L1014.137-189.926z
		"/>
	<path fill="none" stroke="#545454" stroke-width="10" stroke-linecap="round" stroke-miterlimit="10" d="M1014.137-189.926
		L1014.137-189.926z M1013.192-190.872l0.945,0.945L1013.192-190.872z M1016.028-190.872h-2.836l0.945,0.945L1016.028-190.872z"/>
	<path fill="#545454" d="M1012.247-188.981l1.891-0.938h-2.828L1012.247-188.981z M1011.309-189.918h2.828l-2.828-0.945V-189.918z
		 M1011.309-190.864l2.828,0.945l-0.945-0.945H1011.309z"/>
	<path fill="none" stroke="#545454" stroke-width="10" stroke-linecap="round" stroke-miterlimit="10" d="M1014.137-189.918
		l-2.828-0.945h1.883L1014.137-189.918z M1011.309-189.918h2.828l-2.828-0.945V-189.918z M1012.247-188.981l-0.938-0.938h2.828
		L1012.247-188.981z"/>
	<path fill="#545454" d="M1014.137-189.926h-2.828H1014.137z M1014.137-189.926h-2.828H1014.137z"/>
	<path fill="none" stroke="#545454" stroke-width="10" stroke-linecap="round" stroke-miterlimit="10" d="M1014.137-189.926
		L1014.137-189.926h-2.828H1014.137z M1011.309-189.926h2.828H1011.309z"/>
	<polygon fill="#545454" points="1015.083,-127.596 1012.247,-128.534 1009.418,-127.596 	"/>
	<polygon fill="none" stroke="#545454" stroke-width="10" stroke-linecap="round" stroke-miterlimit="10" points="
		1012.247,-128.542 1009.418,-127.596 1015.083,-127.596 	"/>
	<path fill="#545454" d="M1009.418-127.588l6.609,2.82l-0.945-2.82H1009.418z M1016.028-124.768l-6.609-2.82l-0.938,2.82H1016.028z"
		/>
	<path fill="none" stroke="#545454" stroke-width="10" stroke-linecap="round" stroke-miterlimit="10" d="M1016.028-124.768
		l-6.609-2.82h5.664L1016.028-124.768z M1008.473-124.768h7.555l-6.609-2.82L1008.473-124.768z"/>
	<path fill="#545454" d="M1012.247-120.979l2.836-0.945h-5.664L1012.247-120.979z M1009.418-121.924h5.664l-6.609-2.844
		L1009.418-121.924z"/>
	<path fill="none" stroke="#545454" stroke-width="10" stroke-linecap="round" stroke-miterlimit="10" d="M1009.418-121.932h5.664
		l-2.836,0.945L1009.418-121.932z M1008.473-124.768l0.945,2.836h5.664L1008.473-124.768z"/>
	<polygon fill="#545454" points="1015.083,-121.924 1016.028,-124.768 1008.473,-124.768 	"/>
	<polygon fill="none" stroke="#545454" stroke-width="10" stroke-linecap="round" stroke-miterlimit="10" points="
		1008.473,-124.768 1016.028,-124.768 1015.083,-121.932 	"/>
	<g>
		<path fill="none" stroke="#063B60" stroke-width="10" stroke-linecap="round" stroke-linejoin="round" stroke-miterlimit="10" d="
			M1011.778-129.479c-2.344,0-4.25,1.891-4.25,4.242s1.906,4.25,4.25,4.25s4.25-1.898,4.25-4.25S1014.122-129.479,1011.778-129.479"
			/>
	</g>
	
		<polyline fill="none" stroke="#063B60" stroke-width="10" stroke-linecap="round" stroke-linejoin="round" stroke-miterlimit="10" points="
		973.527,200.108 1007.528,119.839 1037.748,200.108 	"/>
	
		<polyline fill="none" stroke="#063B60" stroke-width="10" stroke-linecap="round" stroke-linejoin="round" stroke-miterlimit="10" points="
		950.862,546.703 984.863,466.435 1014.137,546.703 	"/>
	
		<polyline fill="none" stroke="#063B60" stroke-width="10" stroke-linecap="round" stroke-linejoin="round" stroke-miterlimit="10" points="
		993.364,546.703 1027.364,466.435 1056.638,546.703 	"/>
	<polygon fill="#545454" points="1004.692,186.888 1001.864,187.833 1007.528,187.833 	"/>
	<polygon fill="none" stroke="#545454" stroke-width="10" stroke-linecap="round" stroke-miterlimit="10" points="1004.692,186.888 
		1001.864,187.833 1007.528,187.833 	"/>
	<path fill="#545454" d="M1008.473,190.669l-6.609-2.828h5.664L1008.473,190.669z M1000.918,190.669h7.555l-6.609-2.828
		L1000.918,190.669z"/>
	<path fill="none" stroke="#545454" stroke-width="10" stroke-linecap="round" stroke-miterlimit="10" d="M1008.473,190.669
		l-6.609-2.828h5.664L1008.473,190.669z M1000.918,190.669h7.555l-6.609-2.828L1000.918,190.669z"/>
	<path fill="#545454" d="M1001.864,193.498h5.664l-2.844,0.945L1001.864,193.498z M1000.918,190.669l0.945,2.828h5.664
		L1000.918,190.669z"/>
	<path fill="none" stroke="#545454" stroke-width="10" stroke-linecap="round" stroke-miterlimit="10" d="M1001.864,193.498h5.664
		l-2.844,0.945L1001.864,193.498z M1000.918,190.669l0.945,2.828h5.664L1000.918,190.669z"/>
	<polygon fill="#545454" points="1000.918,190.669 1008.473,190.669 1007.528,193.498 	"/>
	<polygon fill="none" stroke="#545454" stroke-width="10" stroke-linecap="round" stroke-miterlimit="10" points="1000.918,190.669 
		1008.473,190.669 1007.528,193.498 	"/>
	<path fill="none" stroke="#063B60" stroke-width="10" stroke-linecap="round" stroke-linejoin="round" stroke-miterlimit="10" d="
		M1004.223,185.951c-2.344,0-4.25,1.891-4.25,4.242c0,2.353,1.906,4.25,4.25,4.25s4.25-1.897,4.25-4.25
		C1008.473,187.841,1006.567,185.951,1004.223,185.951"/>
	<polygon fill="#545454" points="1027.364,532.539 1025.473,533.484 1028.302,533.484 	"/>
	<polygon fill="none" stroke="#545454" stroke-width="10" stroke-linecap="round" stroke-miterlimit="10" points="1027.364,532.539 
		1025.473,533.484 1028.302,533.484 	"/>
	<polygon fill="#545454" points="983.917,533.492 982.972,533.492 985.808,533.492 	"/>
	<polygon fill="none" stroke="#545454" stroke-width="10" stroke-linecap="round" stroke-miterlimit="10" points="983.917,533.492 
		982.972,533.492 985.808,533.492 	"/>
	<path fill="#545454" d="M1029.248,533.492h-3.774h2.821H1029.248z M1024.528,533.492h4.72h-3.774H1024.528z"/>
	<path fill="none" stroke="#545454" stroke-width="10" stroke-linecap="round" stroke-miterlimit="10" d="M1029.248,533.492h-3.774
		h2.821H1029.248z M1024.528,533.492h4.72h-3.774H1024.528z"/>
	<path fill="#545454" d="M986.753,534.437l-3.781-0.945h2.836L986.753,534.437z M981.082,534.437h5.672l-3.781-0.945
		L981.082,534.437z"/>
	<path fill="none" stroke="#545454" stroke-width="10" stroke-linecap="round" stroke-miterlimit="10" d="M986.753,534.437
		l-3.781-0.945h2.836L986.753,534.437z M981.082,534.437h5.672l-3.781-0.945L981.082,534.437z"/>
	<path fill="#545454" d="M1031.138,536.312l-6.61-2.82h4.72L1031.138,536.312z M1023.583,536.312h7.556l-6.61-2.82L1023.583,536.312
		z"/>
	<path fill="none" stroke="#545454" stroke-width="10" stroke-linecap="round" stroke-miterlimit="10" d="M1031.138,536.312
		l-6.61-2.82h4.72L1031.138,536.312z M1023.583,536.312h7.556l-6.61-2.82L1023.583,536.312z"/>
	<path fill="#545454" d="M987.699,537.265l-6.617-2.828h5.672L987.699,537.265z M980.144,537.265h7.555l-6.617-2.828
		L980.144,537.265z"/>
	<path fill="none" stroke="#545454" stroke-width="10" stroke-linecap="round" stroke-miterlimit="10" d="M987.699,537.265
		l-6.617-2.828h5.672L987.699,537.265z M980.144,537.265h7.555l-6.617-2.828L980.144,537.265z"/>
	<path fill="#545454" d="M1029.248,539.148l-5.665-2.828h7.556L1029.248,539.148z M1024.528,539.148h4.72l-5.665-2.828
		L1024.528,539.148z"/>
	<path fill="none" stroke="#545454" stroke-width="10" stroke-linecap="round" stroke-miterlimit="10" d="M1029.248,539.148
		l-5.665-2.828h7.556L1029.248,539.148z M1024.528,539.148h4.72l-5.665-2.828L1024.528,539.148z"/>
	<path fill="#545454" d="M1025.473,539.148h2.821l-0.931,0.945L1025.473,539.148z M1024.528,539.148h0.945h2.821H1024.528z"/>
	<path fill="none" stroke="#545454" stroke-width="10" stroke-linecap="round" stroke-miterlimit="10" d="M1025.473,539.148h2.821
		l-0.931,0.945L1025.473,539.148z M1024.528,539.148h0.945h2.821H1024.528z"/>
	<polygon fill="#545454" points="1024.528,539.148 1029.248,539.148 1028.294,539.148 	"/>
	<polygon fill="none" stroke="#545454" stroke-width="10" stroke-linecap="round" stroke-miterlimit="10" points="1024.528,539.148 
		1029.248,539.148 1028.294,539.148 	"/>
	<path fill="#545454" d="M986.753,539.148l-6.609-1.883h7.555L986.753,539.148z M981.082,539.148h5.672l-6.609-1.883
		L981.082,539.148z"/>
	<path fill="none" stroke="#545454" stroke-width="10" stroke-linecap="round" stroke-miterlimit="10" d="M986.753,539.148
		l-6.609-1.883h7.555L986.753,539.148z M981.082,539.148h5.672l-6.609-1.883L981.082,539.148z"/>
	<path fill="#545454" d="M982.972,540.093h2.836l-1.891,0.945L982.972,540.093z M981.082,539.148l1.891,0.945h2.836L981.082,539.148
		z"/>
	<path fill="none" stroke="#545454" stroke-width="10" stroke-linecap="round" stroke-miterlimit="10" d="M982.972,540.093h2.836
		l-1.891,0.945L982.972,540.093z M981.082,539.148l1.891,0.945h2.836L981.082,539.148z"/>
	<polygon fill="#545454" points="981.082,539.148 986.753,539.148 985.808,540.093 	"/>
	<polygon fill="none" stroke="#545454" stroke-width="10" stroke-linecap="round" stroke-miterlimit="10" points="981.082,539.148 
		986.753,539.148 985.808,540.093 	"/>
	<path fill="none" stroke="#063B60" stroke-width="10" stroke-linecap="round" stroke-linejoin="round" stroke-miterlimit="10" d="
		M983.449,532.539c-2.352,0-4.25,1.898-4.25,4.25s1.898,4.25,4.25,4.25c2.345,0,4.25-1.898,4.25-4.25
		S985.793,532.539,983.449,532.539"/>
	<path fill="none" stroke="#063B60" stroke-width="10" stroke-linecap="round" stroke-linejoin="round" stroke-miterlimit="10" d="
		M1026.888,531.593c-2.345,0-4.251,1.898-4.251,4.25s1.906,4.25,4.251,4.25c2.352,0,4.25-1.898,4.25-4.25
		S1029.24,531.593,1026.888,531.593"/>
	
		<polyline fill="none" stroke="#063B60" stroke-width="10" stroke-linecap="round" stroke-linejoin="round" stroke-miterlimit="10" points="
		952.753,852.687 986.753,772.419 1016.028,852.687 	"/>
	
		<polyline fill="none" stroke="#063B60" stroke-width="10" stroke-linecap="round" stroke-linejoin="round" stroke-miterlimit="10" points="
		995.254,852.687 1029.248,772.419 1058.529,852.687 	"/>
	<polygon fill="#545454" points="1028.302,838.523 1027.364,838.523 1030.193,838.523 	"/>
	<polygon fill="none" stroke="#545454" stroke-width="10" stroke-linecap="round" stroke-miterlimit="10" points="1028.302,838.523 
		1027.364,838.523 1030.193,838.523 	"/>
	<polygon fill="#545454" points="985.808,838.523 984.863,839.468 986.753,839.468 	"/>
	<polygon fill="none" stroke="#545454" stroke-width="10" stroke-linecap="round" stroke-miterlimit="10" points="985.808,838.523 
		984.863,839.468 986.753,839.468 	"/>
	<path fill="#545454" d="M1031.138,839.468l-3.774-0.938h2.829L1031.138,839.468z M1025.473,839.468h5.665l-3.774-0.938
		L1025.473,839.468z"/>
	<path fill="none" stroke="#545454" stroke-width="10" stroke-linecap="round" stroke-miterlimit="10" d="M1031.138,839.468
		l-3.774-0.938h2.829L1031.138,839.468z M1025.473,839.468h5.665l-3.774-0.938L1025.473,839.468z"/>
	<path fill="#545454" d="M988.637,840.421l-3.774-0.945h1.891L988.637,840.421z M982.972,840.421h5.665l-3.774-0.945
		L982.972,840.421z"/>
	<path fill="none" stroke="#545454" stroke-width="10" stroke-linecap="round" stroke-miterlimit="10" d="M988.637,840.421
		l-3.774-0.945h1.891L988.637,840.421z M982.972,840.421h5.665l-3.774-0.945L982.972,840.421z"/>
	<path fill="#545454" d="M1032.083,842.296l-6.61-2.82h5.665L1032.083,842.296z M1024.528,842.296h7.556l-6.61-2.82
		L1024.528,842.296z"/>
	<path fill="none" stroke="#545454" stroke-width="10" stroke-linecap="round" stroke-miterlimit="10" d="M1032.083,842.296
		l-6.61-2.82h5.665L1032.083,842.296z M1024.528,842.296h7.556l-6.61-2.82L1024.528,842.296z"/>
	<path fill="#545454" d="M989.583,842.296l-6.61-1.875h5.665L989.583,842.296z M982.027,842.296h7.556l-6.61-1.875L982.027,842.296z
		"/>
	<path fill="none" stroke="#545454" stroke-width="10" stroke-linecap="round" stroke-miterlimit="10" d="M989.583,842.296
		l-6.61-1.875h5.665L989.583,842.296z M982.027,842.296h7.556l-6.61-1.875L982.027,842.296z"/>
	<path fill="#545454" d="M1031.138,845.14l-6.61-2.836h7.556L1031.138,845.14z M1025.473,845.14h5.665l-6.61-2.836L1025.473,845.14z
		"/>
	<path fill="none" stroke="#545454" stroke-width="10" stroke-linecap="round" stroke-miterlimit="10" d="M1031.138,845.14
		l-6.61-2.836h7.556L1031.138,845.14z M1025.473,845.14h5.665l-6.61-2.836L1025.473,845.14z"/>
	<path fill="#545454" d="M1027.364,845.14h2.829l-1.891,0.938L1027.364,845.14z M1025.473,845.14h1.891h2.829H1025.473z"/>
	<path fill="none" stroke="#545454" stroke-width="10" stroke-linecap="round" stroke-miterlimit="10" d="M1027.364,845.14h2.829
		l-1.891,0.938L1027.364,845.14z M1025.473,845.14h1.891h2.829H1025.473z"/>
	<polygon fill="#545454" points="1025.473,845.14 1031.138,845.14 1030.193,845.14 	"/>
	<polygon fill="none" stroke="#545454" stroke-width="10" stroke-linecap="round" stroke-miterlimit="10" points="1025.473,845.14 
		1031.138,845.14 1030.193,845.14 	"/>
	<path fill="#545454" d="M988.637,845.14l-6.61-2.836h7.556L988.637,845.14z M982.972,845.14h5.665l-6.61-2.836L982.972,845.14z"/>
	<path fill="none" stroke="#545454" stroke-width="10" stroke-linecap="round" stroke-miterlimit="10" d="M988.637,845.14
		l-6.61-2.836h7.556L988.637,845.14z M982.972,845.14h5.665l-6.61-2.836L982.972,845.14z"/>
	<path fill="#545454" d="M983.917,846.078h3.781h-1.891H983.917z M982.972,845.14l0.945,0.938h3.781L982.972,845.14z"/>
	<path fill="none" stroke="#545454" stroke-width="10" stroke-linecap="round" stroke-miterlimit="10" d="M983.917,846.078h3.781
		h-1.891H983.917z M982.972,845.14l0.945,0.938h3.781L982.972,845.14z"/>
	<polygon fill="#545454" points="982.972,845.14 988.637,845.14 987.699,846.078 	"/>
	<polygon fill="none" stroke="#545454" stroke-width="10" stroke-linecap="round" stroke-miterlimit="10" points="982.972,845.14 
		988.637,845.14 987.699,846.078 	"/>
	<path fill="none" stroke="#063B60" stroke-width="10" stroke-linecap="round" stroke-linejoin="round" stroke-miterlimit="10" d="
		M985.332,837.578c-2.344,0-4.25,1.906-4.25,4.25c0,2.352,1.906,4.25,4.25,4.25c2.353,0,4.251-1.898,4.251-4.25
		C989.583,839.484,987.684,837.578,985.332,837.578"/>
	<path fill="none" stroke="#063B60" stroke-width="10" stroke-linecap="round" stroke-linejoin="round" stroke-miterlimit="10" d="
		M1027.833,837.578c-2.345,0-4.251,1.906-4.251,4.25c0,2.352,1.906,4.25,4.251,4.25c2.344,0,4.25-1.898,4.25-4.25
		C1032.083,839.484,1030.177,837.578,1027.833,837.578"/>
	
		<line fill="none" stroke="#063B60" stroke-width="10" stroke-linecap="round" stroke-linejoin="round" stroke-miterlimit="10" x1="1044.357" y1="119.839" x2="1022.637" y2="119.839"/>
	
		<line fill="none" stroke="#063B60" stroke-width="10" stroke-linecap="round" stroke-linejoin="round" stroke-miterlimit="10" x1="993.364" y1="119.839" x2="971.644" y2="119.839"/>
	
		<line fill="none" stroke="#063B60" stroke-width="10" stroke-linecap="round" stroke-linejoin="round" stroke-miterlimit="10" x1="1007.528" y1="104.73" x2="1007.528" y2="83.003"/>
	
		<line fill="none" stroke="#063B60" stroke-width="10" stroke-linecap="round" stroke-linejoin="round" stroke-miterlimit="10" x1="1017.918" y1="109.449" x2="1033.029" y2="94.332"/>
	
		<line fill="none" stroke="#063B60" stroke-width="10" stroke-linecap="round" stroke-linejoin="round" stroke-miterlimit="10" x1="997.137" y1="109.449" x2="982.027" y2="94.332"/>
	
		<line fill="none" stroke="#063B60" stroke-width="10" stroke-linecap="round" stroke-linejoin="round" stroke-miterlimit="10" x1="971.644" y1="772.412" x2="949.917" y2="772.412"/>
	
		<line fill="none" stroke="#063B60" stroke-width="10" stroke-linecap="round" stroke-linejoin="round" stroke-miterlimit="10" x1="1043.419" y1="772.412" x2="1065.139" y2="772.412"/>
	
		<line fill="none" stroke="#063B60" stroke-width="10" stroke-linecap="round" stroke-linejoin="round" stroke-miterlimit="10" x1="1039.638" y1="761.091" x2="1054.748" y2="745.974"/>
	
		<line fill="none" stroke="#063B60" stroke-width="10" stroke-linecap="round" stroke-linejoin="round" stroke-miterlimit="10" x1="1029.248" y1="757.31" x2="1029.248" y2="735.583"/>
	
		<line fill="none" stroke="#063B60" stroke-width="10" stroke-linecap="round" stroke-linejoin="round" stroke-miterlimit="10" x1="960.308" y1="745.982" x2="975.417" y2="761.091"/>
	
		<line fill="none" stroke="#063B60" stroke-width="10" stroke-linecap="round" stroke-linejoin="round" stroke-miterlimit="10" x1="986.753" y1="757.31" x2="986.753" y2="735.583"/>
	<g>
		<path fill="none" stroke="#063B60" stroke-width="10" stroke-linecap="round" stroke-linejoin="round" stroke-miterlimit="10" d="
			M1011.778-198.418c-2.344,0-4.25,1.891-4.25,4.25c0,2.344,1.906,4.25,4.25,4.25s4.25-1.906,4.25-4.25
			C1016.028-196.528,1014.122-198.418,1011.778-198.418"/>
	</g>
	<path fill="none" stroke="#2E3191" stroke-width="8" stroke-miterlimit="10" d="M731.025,197.021
		c0.825,37.462,19.513,72.24,50.285,93.584"/>
	<path fill="none" stroke="#2E3191" stroke-width="8" stroke-miterlimit="10" d="M731.025,197.021
		c0.825,37.462,19.513,72.24,50.285,93.584"/>
	<path fill="none" stroke="#2E3191" stroke-width="8" stroke-miterlimit="10" d="M731.025,197.021
		c0.825,37.462,19.513,72.24,50.285,93.584"/>
	<path fill="none" stroke="#2E3191" stroke-width="8" stroke-miterlimit="10" d="M672.717,286.102
		c32.666-18.345,54.581-51.181,58.963-88.387"/>
	<line fill="none" stroke="#2E3191" stroke-width="8" stroke-miterlimit="10" x1="730.988" y1="198.187" x2="730.988" y2="98.283"/>
	<path fill="none" stroke="#2E3191" stroke-width="8" stroke-miterlimit="10" d="M719.943,497.195
		c0.824,37.449,19.513,72.225,50.285,93.583"/>
	<path fill="none" stroke="#2E3191" stroke-width="8" stroke-miterlimit="10" d="M719.943,497.195
		c0.824,37.449,19.513,72.225,50.285,93.583"/>
	<path fill="none" stroke="#2E3191" stroke-width="8" stroke-miterlimit="10" d="M719.943,497.195
		c0.824,37.449,19.513,72.225,50.285,93.583"/>
	<path fill="none" stroke="#2E3191" stroke-width="8" stroke-miterlimit="10" d="M661.634,586.263
		c32.667-18.336,54.583-51.185,58.964-88.378"/>
	
		<line fill="none" stroke="#2E3191" stroke-width="8" stroke-miterlimit="10" x1="721.411" y1="498.348" x2="721.411" y2="398.456"/>
	<line fill="none" stroke="#2E3191" stroke-width="8" stroke-miterlimit="10" x1="721.411" y1="382.05" x2="721.411" y2="341.789"/>
	
		<line fill="none" stroke="#2E3191" stroke-width="8" stroke-miterlimit="10" x1="681.147" y1="438.706" x2="709.483" y2="410.384"/>
	
		<line fill="none" stroke="#2E3191" stroke-width="8" stroke-miterlimit="10" x1="733.338" y1="386.515" x2="761.662" y2="358.194"/>
	
		<line fill="none" stroke="#2E3191" stroke-width="8" stroke-miterlimit="10" x1="761.662" y1="438.706" x2="733.338" y2="410.384"/>
	
		<line fill="none" stroke="#2E3191" stroke-width="8" stroke-miterlimit="10" x1="710.962" y1="386.515" x2="681.147" y2="358.194"/>
</g>
<g id="ANC_LEGEND">
	<text transform="matrix(1 0 0 1 -554.7139 207.646)" font-family="'CenturyGothic'" font-size="8.3513">IFR-Civil</text>
	<g id="MTEXT_5_">
		<text transform="matrix(1 0 0 1 -554.7139 226.8647)" font-family="'CenturyGothic'" font-size="8.3513">IFR-Join Civil Military</text>
	</g>
	<g id="MTEXT_4_">
		<text transform="matrix(1 0 0 1 -554.7139 246.0854)" font-family="'CenturyGothic'" font-size="8.3513">IFR-Military</text>
	</g>
	<g id="INSERT_8_">
		<g id="CIRCLE_5_">
			
				<path fill="none" stroke="#992B20" stroke-width="10" stroke-linecap="round" stroke-linejoin="round" stroke-miterlimit="10" d="
				M-1739.829-632.84c0-76.291-61.83-138.121-138.125-138.121c-76.291,0-138.121,61.831-138.121,138.121
				c0,76.294,61.83,138.125,138.121,138.125C-1801.659-494.716-1739.829-556.546-1739.829-632.84L-1739.829-632.84z"/>
		</g>
		<g id="LWPOLYLINE_9_">
			
				<line fill="none" stroke="#992B20" stroke-width="10" stroke-linecap="round" stroke-linejoin="round" stroke-miterlimit="10" x1="-1877.953" y1="-459.754" x2="-1877.953" y2="-494.716"/>
		</g>
		<g id="LWPOLYLINE_8_">
			
				<line fill="none" stroke="#992B20" stroke-width="10" stroke-linecap="round" stroke-linejoin="round" stroke-miterlimit="10" x1="-1877.953" y1="-770.961" x2="-1877.953" y2="-810.899"/>
		</g>
		<g id="LWPOLYLINE_7_">
			
				<line fill="none" stroke="#992B20" stroke-width="10" stroke-linecap="round" stroke-linejoin="round" stroke-miterlimit="10" x1="-2053.46" y1="-632.84" x2="-2016.074" y2="-632.84"/>
		</g>
		<g id="LWPOLYLINE_6_">
			
				<line fill="none" stroke="#992B20" stroke-width="10" stroke-linecap="round" stroke-linejoin="round" stroke-miterlimit="10" x1="-1739.829" y1="-632.84" x2="-1702.381" y2="-632.84"/>
		</g>
	</g>
	<g id="INSERT_6_">
		<g id="CIRCLE_2_">
			
				<path fill="none" stroke="#992B20" stroke-width="10" stroke-linecap="round" stroke-linejoin="round" stroke-miterlimit="10" d="
				M-1739.829,850.951c0-76.287-61.83-138.117-138.125-138.117c-76.291,0-138.121,61.83-138.121,138.117
				c0,76.294,61.83,138.124,138.121,138.124C-1801.659,989.075-1739.829,927.245-1739.829,850.951L-1739.829,850.951z"/>
		</g>
		<g id="CIRCLE_1_">
			
				<path fill="none" stroke="#992B20" stroke-width="10" stroke-linecap="round" stroke-linejoin="round" stroke-miterlimit="10" d="
				M-1810.351,850.951c0-37.345-30.25-67.603-67.602-67.603c-37.348,0-67.603,30.258-67.603,67.603
				c0,37.352,30.254,67.602,67.603,67.602C-1840.602,918.552-1810.351,888.302-1810.351,850.951L-1810.351,850.951z"/>
		</g>
	</g>
	<text transform="matrix(1 0 0 1 -449.5259 207.646)" font-family="'CenturyGothic'" font-size="8.3513">VFR-Civil</text>
	<g id="MTEXT_3_">
		<text transform="matrix(1 0 0 1 -449.5259 226.8647)" font-family="'CenturyGothic'" font-size="8.3513">VFR-Join Civil Military</text>
	</g>
	<g id="MTEXT_2_">
		<text transform="matrix(1 0 0 1 -449.5259 246.0854)" font-family="'CenturyGothic'" font-size="8.3513">VFR-Military</text>
	</g>
	<g id="INSERT_1_">
		<g id="CIRCLE_8_">
			
				<path fill="none" stroke="#2E3192" stroke-width="10" stroke-linecap="round" stroke-linejoin="round" stroke-miterlimit="10" d="
				M717.023-838.577c0-76.291-61.83-138.121-138.125-138.121s-138.125,61.831-138.125,138.121
				c0,76.294,61.83,138.189,138.125,138.189S717.023-762.283,717.023-838.577L717.023-838.577z"/>
		</g>
		<g id="LWPOLYLINE_18_">
			<line fill="none" stroke="#2E3192" stroke-width="10" x1="578.898" y1="-665.491" x2="578.898" y2="-700.387"/>
		</g>
		<g id="LWPOLYLINE_17_">
			<line fill="none" stroke="#2E3192" stroke-width="10" x1="578.898" y1="-976.698" x2="578.898" y2="-1016.57"/>
		</g>
		<g id="LWPOLYLINE_13_">
			<line fill="none" stroke="#2E3192" stroke-width="10" x1="403.425" y1="-838.577" x2="440.773" y2="-838.577"/>
		</g>
		<g id="LWPOLYLINE_1_">
			<line fill="none" stroke="#2E3192" stroke-width="10" x1="717.023" y1="-838.577" x2="754.47" y2="-838.577"/>
		</g>
	</g>
	<g id="CIRCLE_10_">
		<path fill="none" stroke="#2E3192" stroke-width="10" stroke-linecap="round" stroke-linejoin="round" stroke-miterlimit="10" d="
			M1594.492-321.633c0-76.291-61.83-138.121-138.125-138.121c-76.294,0-138.124,61.831-138.124,138.121
			c0,76.293,61.83,138.123,138.124,138.123C1532.662-183.51,1594.492-245.34,1594.492-321.633L1594.492-321.633z"/>
	</g>
	<g id="INSERT_2_">
		<g id="CIRCLE_4_">
			
				<path fill="none" stroke="#2E3192" stroke-width="10" stroke-linecap="round" stroke-linejoin="round" stroke-miterlimit="10" d="
				M865.138-333.801c0-76.291-61.83-138.122-138.125-138.122s-138.125,61.831-138.125,138.122
				c0,76.293,61.83,138.123,138.125,138.123S865.138-257.508,865.138-333.801L865.138-333.801z"/>
		</g>
	</g>
	<text transform="matrix(1 0 0 1 652.6919 -258.1567)" fill="#2E3192" font-family="'MyriadPro-Regular'" font-size="225.9887">H</text>
</g>
<g id="PLAN_VIEW">
	<g id="CIRCLE_270_">
		
			<path fill="#FFFFFF" stroke="#FFFFFF" stroke-width="0.5" stroke-linecap="round" stroke-linejoin="round" stroke-miterlimit="10" d="
			M-551.35,551.199c0-21.542-17.461-39.004-39.004-39.004c-21.55,0-39.02,17.462-39.02,39.004c0,21.543,17.469,39.012,39.02,39.012
			C-568.812,590.21-551.35,572.742-551.35,551.199L-551.35,551.199z"/>
	</g>
	<g id="HATCH_127_">
		<path fill-rule="evenodd" clip-rule="evenodd" fill="#231F20" d="M-578.142,517.913c0-0.769-0.622-1.406-1.398-1.406
			s-1.407,0.638-1.407,1.406c0,0.776,0.63,1.392,1.407,1.392S-578.142,518.689-578.142,517.913L-578.142,517.913z M-560.642,530.625
			c0-0.769-0.622-1.406-1.391-1.406c-0.776,0-1.399,0.638-1.399,1.406c0,0.776,0.623,1.399,1.399,1.399
			C-561.264,532.024-560.642,531.401-560.642,530.625L-560.642,530.625z M-564.2,526.452c0-0.776-0.63-1.406-1.407-1.406
			c-0.769,0-1.406,0.63-1.406,1.406s0.638,1.391,1.406,1.391C-564.831,527.842-564.2,527.228-564.2,526.452L-564.2,526.452z
			 M-578.242,525.322c0-0.769-0.623-1.398-1.399-1.398s-1.399,0.63-1.399,1.398s0.623,1.414,1.399,1.414
			S-578.242,526.09-578.242,525.322L-578.242,525.322z M-578.457,533.007c0-0.769-0.623-1.391-1.399-1.391
			c-0.776,0-1.398,0.622-1.398,1.391c0,0.776,0.623,1.406,1.398,1.406C-579.08,534.414-578.457,533.784-578.457,533.007
			L-578.457,533.007z M-573.4,527.919c0-0.769-0.623-1.406-1.399-1.406c-0.769,0-1.398,0.638-1.398,1.406
			c0,0.776,0.63,1.398,1.398,1.398C-574.022,529.318-573.4,528.696-573.4,527.919L-573.4,527.919z M-569.165,531.401
			c0-0.776-0.615-1.406-1.383-1.406c-0.776,0-1.407,0.63-1.407,1.406s0.63,1.392,1.407,1.392
			C-569.78,532.792-569.165,532.177-569.165,531.401L-569.165,531.401z M-568.389,522.877c0-0.769-0.615-1.391-1.391-1.391
			c-0.769,0-1.407,0.622-1.407,1.391s0.638,1.414,1.407,1.414C-569.004,524.292-568.389,523.646-568.389,522.877L-568.389,522.877z
			 M-573.069,520.003c0-0.776-0.623-1.398-1.399-1.398s-1.391,0.622-1.391,1.398c0,0.769,0.615,1.398,1.391,1.398
			S-573.069,520.772-573.069,520.003L-573.069,520.003z M-554.378,545.719c0-0.769-0.63-1.391-1.407-1.391
			c-0.769,0-1.391,0.622-1.391,1.391c0,0.776,0.623,1.414,1.391,1.414C-555.008,547.133-554.378,546.496-554.378,545.719
			L-554.378,545.719z M-555.662,540.385c0-0.769-0.63-1.398-1.406-1.398c-0.769,0-1.399,0.63-1.399,1.398s0.63,1.399,1.399,1.399
			C-556.292,541.785-555.662,541.154-555.662,540.385L-555.662,540.385z M-553.956,551.199c0-0.776-0.615-1.391-1.391-1.391
			c-0.776,0-1.406,0.614-1.406,1.391s0.63,1.407,1.406,1.407C-554.57,552.606-553.956,551.975-553.956,551.199L-553.956,551.199z
			 M-554.378,556.671c0-0.769-0.63-1.392-1.407-1.392c-0.769,0-1.391,0.623-1.391,1.392c0,0.776,0.623,1.406,1.391,1.406
			C-555.008,558.078-554.378,557.448-554.378,556.671L-554.378,556.671z M-561.487,545.735c0-0.769-0.638-1.406-1.414-1.406
			c-0.769,0-1.383,0.638-1.383,1.406c0,0.776,0.615,1.398,1.383,1.398C-562.125,547.133-561.487,546.511-561.487,545.735
			L-561.487,545.735z M-563.086,540.478c0-0.769-0.63-1.392-1.406-1.392c-0.769,0-1.399,0.623-1.399,1.392
			c0,0.776,0.63,1.406,1.399,1.406C-563.716,541.884-563.086,541.254-563.086,540.478L-563.086,540.478z M-574.107,536.35
			c0-0.775-0.63-1.406-1.399-1.406c-0.776,0-1.406,0.631-1.406,1.406c0,0.776,0.63,1.392,1.406,1.392
			C-574.737,537.742-574.107,537.126-574.107,536.35L-574.107,536.35z M-576.013,545.842c0-0.769-0.638-1.398-1.406-1.398
			c-0.776,0-1.406,0.63-1.406,1.398c0,0.784,0.63,1.398,1.406,1.398C-576.651,547.241-576.013,546.626-576.013,545.842
			L-576.013,545.842z M-579.064,541.3c0-0.776-0.615-1.406-1.391-1.406c-0.776,0-1.407,0.63-1.407,1.406s0.63,1.406,1.407,1.406
			C-579.679,542.707-579.064,542.077-579.064,541.3L-579.064,541.3z M-568.673,545.765c0-0.769-0.623-1.398-1.399-1.398
			c-0.769,0-1.406,0.63-1.406,1.398c0,0.784,0.638,1.399,1.406,1.399C-569.296,547.165-568.673,546.549-568.673,545.765
			L-568.673,545.765z M-570.764,540.693c0-0.769-0.63-1.384-1.407-1.384c-0.769,0-1.398,0.615-1.398,1.384
			c0,0.776,0.63,1.414,1.398,1.414C-571.394,542.107-570.764,541.469-570.764,540.693L-570.764,540.693z M-560.957,551.199
			c0-0.776-0.623-1.391-1.399-1.391c-0.769,0-1.398,0.614-1.398,1.391s0.63,1.407,1.398,1.407
			C-561.58,552.606-560.957,551.975-560.957,551.199L-560.957,551.199z M-567.951,551.199c0-0.776-0.63-1.391-1.399-1.391
			c-0.776,0-1.406,0.614-1.406,1.391s0.63,1.407,1.406,1.407C-568.581,552.606-567.951,551.975-567.951,551.199L-567.951,551.199z
			 M-561.487,556.664c0-0.776-0.638-1.398-1.414-1.398c-0.769,0-1.383,0.622-1.383,1.398c0,0.769,0.615,1.406,1.383,1.406
			C-562.125,558.07-561.487,557.432-561.487,556.664L-561.487,556.664z M-574.96,551.199c0-0.776-0.623-1.391-1.391-1.391
			c-0.784,0-1.414,0.614-1.414,1.391s0.63,1.407,1.414,1.407C-575.583,552.606-574.96,551.975-574.96,551.199L-574.96,551.199z
			 M-576.013,556.571c0-0.775-0.638-1.414-1.406-1.414c-0.776,0-1.406,0.639-1.406,1.414c0,0.769,0.63,1.392,1.406,1.392
			C-576.651,557.962-576.013,557.339-576.013,556.571L-576.013,556.571z M-568.673,556.648c0-0.776-0.623-1.414-1.399-1.414
			c-0.769,0-1.406,0.638-1.406,1.414c0,0.769,0.638,1.384,1.406,1.384C-569.296,558.032-568.673,557.417-568.673,556.648
			L-568.673,556.648z M-565.668,566.762c0-0.776-0.63-1.398-1.406-1.398c-0.769,0-1.399,0.622-1.399,1.398
			c0,0.769,0.63,1.406,1.399,1.406C-566.298,568.168-565.668,567.531-565.668,566.762L-565.668,566.762z M-560.642,571.789
			c0-0.776-0.622-1.414-1.391-1.414c-0.776,0-1.399,0.638-1.399,1.414c0,0.769,0.623,1.392,1.399,1.392
			C-561.264,573.18-560.642,572.557-560.642,571.789L-560.642,571.789z M-574.107,566.047c0-0.776-0.63-1.391-1.399-1.391
			c-0.776,0-1.406,0.614-1.406,1.391s0.63,1.406,1.406,1.406C-574.737,567.454-574.107,566.824-574.107,566.047L-574.107,566.047z
			 M-578.457,569.391c0-0.769-0.623-1.399-1.399-1.399c-0.776,0-1.398,0.631-1.398,1.399s0.623,1.398,1.398,1.398
			C-579.08,570.79-578.457,570.16-578.457,569.391L-578.457,569.391z M-569.165,571.012c0-0.776-0.615-1.406-1.383-1.406
			c-0.776,0-1.407,0.63-1.407,1.406s0.63,1.392,1.407,1.392C-569.78,572.404-569.165,571.789-569.165,571.012L-569.165,571.012z
			 M-578.242,577.077c0-0.769-0.623-1.414-1.399-1.414s-1.399,0.646-1.399,1.414s0.623,1.406,1.399,1.406
			S-578.242,577.845-578.242,577.077L-578.242,577.077z M-578.142,584.5c0-0.769-0.622-1.406-1.398-1.406s-1.407,0.638-1.407,1.406
			c0,0.776,0.63,1.398,1.407,1.398S-578.142,585.277-578.142,584.5L-578.142,584.5z M-573.069,582.395
			c0-0.769-0.623-1.407-1.399-1.407s-1.391,0.639-1.391,1.407c0,0.776,0.615,1.398,1.391,1.398S-573.069,583.171-573.069,582.395
			L-573.069,582.395z M-568.389,579.52c0-0.776-0.615-1.391-1.391-1.391c-0.769,0-1.407,0.614-1.407,1.391s0.638,1.406,1.407,1.406
			C-569.004,580.926-568.389,580.296-568.389,579.52L-568.389,579.52z M-573.4,574.494c0-0.769-0.623-1.406-1.399-1.406
			c-0.769,0-1.398,0.638-1.398,1.406c0,0.776,0.63,1.392,1.398,1.392C-574.022,575.885-573.4,575.27-573.4,574.494L-573.4,574.494z
			 M-564.2,575.961c0-0.775-0.63-1.406-1.407-1.406c-0.769,0-1.406,0.631-1.406,1.406c0,0.776,0.638,1.392,1.406,1.392
			C-564.831,577.353-564.2,576.738-564.2,575.961L-564.2,575.961z M-557.768,567.1c0-0.776-0.623-1.406-1.398-1.406
			c-0.776,0-1.399,0.63-1.399,1.406s0.623,1.392,1.399,1.392C-558.39,568.492-557.768,567.876-557.768,567.1L-557.768,567.1z
			 M-579.064,561.098c0-0.776-0.615-1.392-1.391-1.392c-0.776,0-1.407,0.615-1.407,1.392s0.63,1.406,1.407,1.406
			C-579.679,562.504-579.064,561.875-579.064,561.098L-579.064,561.098z M-570.764,561.706c0-0.776-0.63-1.392-1.407-1.392
			c-0.769,0-1.398,0.615-1.398,1.392c0,0.769,0.63,1.406,1.398,1.406C-571.394,563.112-570.764,562.474-570.764,561.706
			L-570.764,561.706z M-563.086,561.92c0-0.769-0.63-1.398-1.406-1.398c-0.769,0-1.399,0.63-1.399,1.398s0.63,1.398,1.399,1.398
			C-563.716,563.319-563.086,562.689-563.086,561.92L-563.086,561.92z M-555.662,562.028c0-0.776-0.63-1.414-1.406-1.414
			c-0.769,0-1.399,0.638-1.399,1.414c0,0.769,0.63,1.392,1.399,1.392C-556.292,563.419-555.662,562.796-555.662,562.028
			L-555.662,562.028z M-557.768,535.313c0-0.769-0.623-1.406-1.398-1.406c-0.776,0-1.399,0.638-1.399,1.406s0.623,1.398,1.399,1.398
			C-558.39,536.711-557.768,536.082-557.768,535.313L-557.768,535.313z M-565.668,535.636c0-0.769-0.63-1.392-1.406-1.392
			c-0.769,0-1.399,0.623-1.399,1.392c0,0.775,0.63,1.414,1.399,1.414C-566.298,537.05-565.668,536.412-565.668,535.636
			L-565.668,535.636z M-583.483,516.629c0-0.776-0.623-1.406-1.399-1.406c-0.769,0-1.406,0.63-1.406,1.406s0.638,1.392,1.406,1.392
			C-584.106,518.021-583.483,517.406-583.483,516.629L-583.483,516.629z M-588.956,516.191c0-0.769-0.623-1.398-1.398-1.398
			c-0.776,0-1.407,0.63-1.407,1.398c0,0.784,0.63,1.399,1.407,1.399C-589.578,517.59-588.956,516.975-588.956,516.191
			L-588.956,516.191z M-594.435,516.629c0-0.776-0.623-1.406-1.399-1.406s-1.399,0.63-1.399,1.406s0.623,1.392,1.399,1.392
			S-594.435,517.406-594.435,516.629L-594.435,516.629z M-599.777,517.913c0-0.769-0.63-1.406-1.398-1.406
			c-0.776,0-1.407,0.638-1.407,1.406c0,0.776,0.63,1.392,1.407,1.392C-600.407,519.304-599.777,518.689-599.777,517.913
			L-599.777,517.913z M-583.499,523.731c0-0.776-0.623-1.398-1.399-1.398s-1.399,0.622-1.399,1.398c0,0.769,0.623,1.406,1.399,1.406
			S-583.499,524.5-583.499,523.731L-583.499,523.731z M-588.956,523.185c0-0.769-0.623-1.391-1.398-1.391
			c-0.776,0-1.407,0.622-1.407,1.391c0,0.776,0.63,1.406,1.407,1.406C-589.578,524.591-588.956,523.961-588.956,523.185
			L-588.956,523.185z M-583.522,530.902c0-0.769-0.622-1.384-1.398-1.384s-1.399,0.615-1.399,1.384c0,0.783,0.623,1.414,1.399,1.414
			S-583.522,531.685-583.522,530.902L-583.522,530.902z M-588.956,530.195c0-0.769-0.623-1.399-1.398-1.399
			c-0.776,0-1.407,0.631-1.407,1.399s0.63,1.406,1.407,1.406C-589.578,531.601-588.956,530.963-588.956,530.195L-588.956,530.195z
			 M-594.428,523.731c0-0.776-0.623-1.398-1.398-1.398c-0.769,0-1.399,0.622-1.399,1.398c0,0.769,0.63,1.406,1.399,1.406
			C-595.05,525.137-594.428,524.5-594.428,523.731L-594.428,523.731z M-599.677,525.322c0-0.769-0.63-1.398-1.399-1.398
			s-1.406,0.63-1.406,1.398s0.638,1.414,1.406,1.414S-599.677,526.09-599.677,525.322L-599.677,525.322z M-594.397,530.902
			c0-0.769-0.623-1.384-1.398-1.384c-0.769,0-1.407,0.615-1.407,1.384c0,0.783,0.638,1.414,1.407,1.414
			C-595.02,532.316-594.397,531.685-594.397,530.902L-594.397,530.902z M-599.461,533.007c0-0.769-0.63-1.391-1.399-1.391
			c-0.776,0-1.399,0.622-1.399,1.391c0,0.776,0.623,1.406,1.399,1.406C-600.092,534.414-599.461,533.784-599.461,533.007
			L-599.461,533.007z M-609.545,522.877c0-0.769-0.623-1.391-1.391-1.391c-0.776,0-1.399,0.622-1.399,1.391s0.623,1.414,1.399,1.414
			C-610.167,524.292-609.545,523.646-609.545,522.877L-609.545,522.877z M-608.769,531.401c0-0.776-0.623-1.406-1.399-1.406
			c-0.769,0-1.391,0.63-1.391,1.406s0.623,1.392,1.391,1.392C-609.391,532.792-608.769,532.177-608.769,531.401L-608.769,531.401z
			 M-613.71,526.452c0-0.776-0.63-1.406-1.407-1.406c-0.769,0-1.398,0.63-1.398,1.406s0.63,1.391,1.398,1.391
			C-614.341,527.842-613.71,527.228-613.71,526.452L-613.71,526.452z M-617.277,530.625c0-0.769-0.63-1.406-1.398-1.406
			c-0.776,0-1.407,0.638-1.407,1.406c0,0.776,0.63,1.399,1.407,1.399C-617.907,532.024-617.277,531.401-617.277,530.625
			L-617.277,530.625z M-604.849,520.003c0-0.776-0.63-1.398-1.399-1.398c-0.776,0-1.406,0.622-1.406,1.398
			c0,0.769,0.63,1.398,1.406,1.398C-605.479,521.402-604.849,520.772-604.849,520.003L-604.849,520.003z M-604.519,527.919
			c0-0.769-0.623-1.406-1.399-1.406s-1.399,0.638-1.399,1.406c0,0.776,0.623,1.398,1.399,1.398S-604.519,528.696-604.519,527.919
			L-604.519,527.919z M-583.599,538.264c0-0.769-0.623-1.406-1.399-1.406c-0.776,0-1.398,0.638-1.398,1.406
			c0,0.776,0.623,1.398,1.398,1.398C-584.221,539.663-583.599,539.041-583.599,538.264L-583.599,538.264z M-588.956,537.204
			c0-0.776-0.623-1.406-1.398-1.406c-0.776,0-1.407,0.63-1.407,1.406c0,0.769,0.63,1.392,1.407,1.392
			C-589.578,538.595-588.956,537.972-588.956,537.204L-588.956,537.204z M-594.32,538.264c0-0.769-0.623-1.406-1.391-1.406
			c-0.776,0-1.407,0.638-1.407,1.406c0,0.776,0.63,1.398,1.407,1.398C-594.942,539.663-594.32,539.041-594.32,538.264
			L-594.32,538.264z M-601.898,545.842c0-0.769-0.63-1.398-1.399-1.398c-0.776,0-1.398,0.63-1.398,1.398
			c0,0.784,0.623,1.398,1.398,1.398C-602.528,547.241-601.898,546.626-601.898,545.842L-601.898,545.842z M-598.854,541.3
			c0-0.776-0.638-1.406-1.414-1.406c-0.769,0-1.391,0.63-1.391,1.406s0.623,1.406,1.391,1.406
			C-599.492,542.707-598.854,542.077-598.854,541.3L-598.854,541.3z M-601.898,556.571c0-0.775-0.63-1.414-1.399-1.414
			c-0.776,0-1.398,0.639-1.398,1.414c0,0.769,0.623,1.392,1.398,1.392C-602.528,557.962-601.898,557.339-601.898,556.571
			L-601.898,556.571z M-609.253,545.765c0-0.769-0.63-1.398-1.399-1.398c-0.776,0-1.398,0.63-1.398,1.398
			c0,0.784,0.623,1.399,1.398,1.399C-609.883,547.165-609.253,546.549-609.253,545.765L-609.253,545.765z M-607.155,540.693
			c0-0.769-0.623-1.384-1.391-1.384c-0.776,0-1.399,0.615-1.399,1.384c0,0.776,0.623,1.414,1.399,1.414
			C-607.777,542.107-607.155,541.469-607.155,540.693L-607.155,540.693z M-623.533,545.719c0-0.769-0.63-1.391-1.406-1.391
			c-0.769,0-1.399,0.622-1.399,1.391c0,0.776,0.63,1.414,1.399,1.414C-624.163,547.133-623.533,546.496-623.533,545.719
			L-623.533,545.719z M-622.257,540.385c0-0.769-0.623-1.398-1.399-1.398c-0.769,0-1.406,0.63-1.406,1.398s0.638,1.399,1.406,1.399
			C-622.879,541.785-622.257,541.154-622.257,540.385L-622.257,540.385z M-616.431,545.735c0-0.769-0.623-1.406-1.391-1.406
			c-0.776,0-1.414,0.638-1.414,1.406c0,0.776,0.638,1.398,1.414,1.398C-617.054,547.133-616.431,546.511-616.431,545.735
			L-616.431,545.735z M-614.833,540.478c0-0.769-0.63-1.392-1.407-1.392c-0.769,0-1.398,0.623-1.398,1.392
			c0,0.776,0.63,1.406,1.398,1.406C-615.463,541.884-614.833,541.254-614.833,540.478L-614.833,540.478z M-609.968,551.199
			c0-0.776-0.623-1.391-1.399-1.391c-0.776,0-1.391,0.614-1.391,1.391s0.615,1.407,1.391,1.407
			C-610.59,552.606-609.968,551.975-609.968,551.199L-609.968,551.199z M-609.253,556.648c0-0.776-0.63-1.414-1.399-1.414
			c-0.776,0-1.398,0.638-1.398,1.414c0,0.769,0.623,1.384,1.398,1.384C-609.883,558.032-609.253,557.417-609.253,556.648
			L-609.253,556.648z M-616.977,551.199c0-0.776-0.623-1.391-1.391-1.391c-0.776,0-1.398,0.614-1.398,1.391s0.623,1.407,1.398,1.407
			C-617.6,552.606-616.977,551.975-616.977,551.199L-616.977,551.199z M-623.971,551.199c0-0.776-0.623-1.391-1.399-1.391
			c-0.769,0-1.399,0.614-1.399,1.391s0.63,1.407,1.399,1.407C-624.593,552.606-623.971,551.975-623.971,551.199L-623.971,551.199z
			 M-623.533,556.671c0-0.769-0.63-1.392-1.406-1.392c-0.769,0-1.399,0.623-1.399,1.392c0,0.776,0.63,1.406,1.399,1.406
			C-624.163,558.078-623.533,557.448-623.533,556.671L-623.533,556.671z M-616.431,556.664c0-0.776-0.623-1.398-1.391-1.398
			c-0.776,0-1.414,0.622-1.414,1.398c0,0.769,0.638,1.406,1.414,1.406C-617.054,558.07-616.431,557.432-616.431,556.664
			L-616.431,556.664z M-603.812,536.35c0-0.775-0.63-1.406-1.407-1.406c-0.769,0-1.398,0.631-1.398,1.406
			c0,0.776,0.63,1.392,1.398,1.392C-604.442,537.742-603.812,537.126-603.812,536.35L-603.812,536.35z M-602.958,551.199
			c0-0.776-0.638-1.391-1.406-1.391c-0.776,0-1.399,0.614-1.399,1.391s0.623,1.407,1.399,1.407
			C-603.596,552.606-602.958,551.975-602.958,551.199L-602.958,551.199z M-583.599,564.149c0-0.776-0.623-1.414-1.399-1.414
			c-0.776,0-1.398,0.638-1.398,1.414c0,0.769,0.623,1.392,1.398,1.392C-584.221,565.541-583.599,564.917-583.599,564.149
			L-583.599,564.149z M-588.956,565.195c0-0.769-0.623-1.392-1.398-1.392c-0.776,0-1.407,0.623-1.407,1.392
			c0,0.775,0.63,1.414,1.407,1.414C-589.578,566.609-588.956,565.97-588.956,565.195L-588.956,565.195z M-583.522,571.497
			c0-0.776-0.622-1.414-1.398-1.414s-1.399,0.638-1.399,1.414c0,0.769,0.623,1.384,1.399,1.384S-583.522,572.265-583.522,571.497
			L-583.522,571.497z M-588.956,572.204c0-0.769-0.623-1.391-1.398-1.391c-0.776,0-1.407,0.622-1.407,1.391s0.63,1.406,1.407,1.406
			C-589.578,573.61-588.956,572.972-588.956,572.204L-588.956,572.204z M-594.32,564.149c0-0.776-0.623-1.414-1.391-1.414
			c-0.776,0-1.407,0.638-1.407,1.414c0,0.769,0.63,1.392,1.407,1.392C-594.942,565.541-594.32,564.917-594.32,564.149
			L-594.32,564.149z M-594.397,571.497c0-0.776-0.623-1.414-1.398-1.414c-0.769,0-1.407,0.638-1.407,1.414
			c0,0.769,0.638,1.384,1.407,1.384C-595.02,572.88-594.397,572.265-594.397,571.497L-594.397,571.497z M-599.461,569.391
			c0-0.769-0.63-1.399-1.399-1.399c-0.776,0-1.399,0.631-1.399,1.399s0.623,1.398,1.399,1.398
			C-600.092,570.79-599.461,570.16-599.461,569.391L-599.461,569.391z M-583.499,578.667c0-0.769-0.623-1.406-1.399-1.406
			s-1.399,0.638-1.399,1.406c0,0.776,0.623,1.406,1.399,1.406S-583.499,579.444-583.499,578.667L-583.499,578.667z
			 M-588.956,579.212c0-0.769-0.623-1.406-1.398-1.406c-0.776,0-1.407,0.638-1.407,1.406s0.63,1.399,1.407,1.399
			C-589.578,580.612-588.956,579.981-588.956,579.212L-588.956,579.212z M-583.483,585.784c0-0.776-0.623-1.406-1.399-1.406
			c-0.769,0-1.406,0.63-1.406,1.406s0.638,1.392,1.406,1.392C-584.106,587.175-583.483,586.56-583.483,585.784L-583.483,585.784z
			 M-588.956,586.207c0-0.776-0.623-1.398-1.398-1.398c-0.776,0-1.407,0.622-1.407,1.398c0,0.769,0.63,1.406,1.407,1.406
			C-589.578,587.613-588.956,586.975-588.956,586.207L-588.956,586.207z M-594.428,578.667c0-0.769-0.623-1.406-1.398-1.406
			c-0.769,0-1.399,0.638-1.399,1.406c0,0.776,0.63,1.406,1.399,1.406C-595.05,580.074-594.428,579.444-594.428,578.667
			L-594.428,578.667z M-599.677,577.077c0-0.769-0.63-1.414-1.399-1.414s-1.406,0.646-1.406,1.414s0.638,1.406,1.406,1.406
			S-599.677,577.845-599.677,577.077L-599.677,577.077z M-594.435,585.784c0-0.776-0.623-1.406-1.399-1.406s-1.399,0.63-1.399,1.406
			s0.623,1.392,1.399,1.392S-594.435,586.56-594.435,585.784L-594.435,585.784z M-599.777,584.5c0-0.769-0.63-1.406-1.398-1.406
			c-0.776,0-1.407,0.638-1.407,1.406c0,0.776,0.63,1.398,1.407,1.398C-600.407,585.899-599.777,585.277-599.777,584.5
			L-599.777,584.5z M-612.25,566.762c0-0.776-0.623-1.398-1.398-1.398c-0.769,0-1.391,0.622-1.391,1.398
			c0,0.769,0.623,1.406,1.391,1.406C-612.873,568.168-612.25,567.531-612.25,566.762L-612.25,566.762z M-608.769,571.012
			c0-0.776-0.623-1.406-1.399-1.406c-0.769,0-1.391,0.63-1.391,1.406s0.623,1.392,1.391,1.392
			C-609.391,572.404-608.769,571.789-608.769,571.012L-608.769,571.012z M-617.277,571.789c0-0.776-0.63-1.414-1.398-1.414
			c-0.776,0-1.407,0.638-1.407,1.414c0,0.769,0.63,1.392,1.407,1.392C-617.907,573.18-617.277,572.557-617.277,571.789
			L-617.277,571.789z M-620.159,567.1c0-0.776-0.623-1.406-1.399-1.406s-1.398,0.63-1.398,1.406s0.622,1.392,1.398,1.392
			S-620.159,567.876-620.159,567.1L-620.159,567.1z M-609.545,579.52c0-0.776-0.623-1.391-1.391-1.391
			c-0.776,0-1.399,0.614-1.399,1.391s0.623,1.406,1.399,1.406C-610.167,580.926-609.545,580.296-609.545,579.52L-609.545,579.52z
			 M-613.71,575.961c0-0.775-0.63-1.406-1.407-1.406c-0.769,0-1.398,0.631-1.398,1.406c0,0.776,0.63,1.392,1.398,1.392
			C-614.341,577.353-613.71,576.738-613.71,575.961L-613.71,575.961z M-603.812,566.047c0-0.776-0.63-1.391-1.407-1.391
			c-0.769,0-1.398,0.614-1.398,1.391s0.63,1.406,1.398,1.406C-604.442,567.454-603.812,566.824-603.812,566.047L-603.812,566.047z
			 M-604.519,574.494c0-0.769-0.623-1.406-1.399-1.406s-1.399,0.638-1.399,1.406c0,0.776,0.623,1.392,1.399,1.392
			S-604.519,575.27-604.519,574.494L-604.519,574.494z M-604.849,582.395c0-0.769-0.63-1.407-1.399-1.407
			c-0.776,0-1.406,0.639-1.406,1.407c0,0.776,0.63,1.398,1.406,1.398C-605.479,583.793-604.849,583.171-604.849,582.395
			L-604.849,582.395z M-598.854,561.098c0-0.776-0.638-1.392-1.414-1.392c-0.769,0-1.391,0.615-1.391,1.392s0.623,1.406,1.391,1.406
			C-599.492,562.504-598.854,561.875-598.854,561.098L-598.854,561.098z M-614.833,561.92c0-0.769-0.63-1.398-1.407-1.398
			c-0.769,0-1.398,0.63-1.398,1.398s0.63,1.398,1.398,1.398C-615.463,563.319-614.833,562.689-614.833,561.92L-614.833,561.92z
			 M-622.257,562.028c0-0.776-0.623-1.414-1.399-1.414c-0.769,0-1.406,0.638-1.406,1.414c0,0.769,0.638,1.392,1.406,1.392
			C-622.879,563.419-622.257,562.796-622.257,562.028L-622.257,562.028z M-607.155,561.706c0-0.776-0.623-1.392-1.391-1.392
			c-0.776,0-1.399,0.615-1.399,1.392c0,0.769,0.623,1.406,1.399,1.406C-607.777,563.112-607.155,562.474-607.155,561.706
			L-607.155,561.706z M-620.159,535.313c0-0.769-0.623-1.406-1.399-1.406s-1.398,0.638-1.398,1.406s0.622,1.398,1.398,1.398
			S-620.159,536.082-620.159,535.313L-620.159,535.313z M-612.25,535.636c0-0.769-0.623-1.392-1.398-1.392
			c-0.769,0-1.391,0.623-1.391,1.392c0,0.775,0.623,1.414,1.391,1.414C-612.873,537.05-612.25,536.412-612.25,535.636
			L-612.25,535.636z"/>
	</g>
	<g id="CIRCLE_160_">
		
			<path fill="#231F20" stroke="#231F20" stroke-width="0.5" stroke-linecap="round" stroke-linejoin="round" stroke-miterlimit="10" d="
			M-588.794,551.199c0-0.86-0.707-1.56-1.56-1.56c-0.861,0-1.561,0.699-1.561,1.56c0,0.869,0.7,1.561,1.561,1.561
			C-589.501,552.759-588.794,552.068-588.794,551.199L-588.794,551.199z"/>
	</g>
	<g>
		<g id="LWPOLYLINE_549_">
			
				<rect x="-621.661" y="618.885" fill="#FFFFFF" stroke="#FFFFFF" stroke-width="0.5" stroke-miterlimit="10" width="76.917" height="76.917"/>
		</g>
		<g id="LWPOLYLINE_1809_">
			<polygon fill="none" stroke="#231F20" stroke-width="0.5" stroke-miterlimit="10" points="-598.735,630.445 -614.268,657.344 
				-598.735,684.244 -567.678,684.244 -552.138,657.344 -567.678,630.445 			"/>
		</g>
		<g id="LWPOLYLINE_1810_">
			
				<rect x="-617.818" y="622.728" fill="none" stroke="#231F20" stroke-width="0.5" stroke-miterlimit="10" width="69.231" height="69.231"/>
		</g>
		<g id="CIRCLE_287_">
			
				<path fill="#231F20" stroke="#231F20" stroke-width="0.5" stroke-linecap="round" stroke-linejoin="round" stroke-miterlimit="10" d="
				M-581.005,657.344c0-1.215-0.983-2.198-2.198-2.198s-2.198,0.983-2.198,2.198c0,1.214,0.984,2.198,2.198,2.198
				S-581.005,658.558-581.005,657.344L-581.005,657.344z"/>
		</g>
	</g>
	<g>
		<g>
			<g id="CIRCLE_285_" opacity="0.5">
				
					<path fill="#FFFFFF" stroke="#FFFFFF" stroke-width="0.7087" stroke-linecap="round" stroke-linejoin="round" stroke-miterlimit="10" d="
					M-495.568,825.773c0-48.442-39.262-87.692-87.692-87.692c-48.438,0-87.692,39.25-87.692,87.692
					c0,48.427,39.254,87.692,87.692,87.692C-534.83,913.465-495.568,874.2-495.568,825.773L-495.568,825.773z"/>
			</g>
			<g id="LWPOLYLINE_1628_">
				
					<line fill="none" stroke="#231F20" stroke-width="0.1" stroke-miterlimit="10" x1="-533.063" y1="765.949" x2="-528.597" y2="760.623"/>
			</g>
			<g id="LWPOLYLINE_1627_">
				
					<line fill="none" stroke="#231F20" stroke-width="0.1" stroke-miterlimit="10" x1="-523.44" y1="775.579" x2="-517.415" y2="770.522"/>
			</g>
			<g id="LWPOLYLINE_1624_">
				
					<line fill="none" stroke="#231F20" stroke-width="0.1" stroke-miterlimit="10" x1="-509.883" y1="799.066" x2="-502.485" y2="796.375"/>
			</g>
			<g id="LWPOLYLINE_1621_">
				
					<line fill="none" stroke="#231F20" stroke-width="0.1" stroke-miterlimit="10" x1="-499.507" y1="840.537" x2="-506.355" y2="839.331"/>
			</g>
			<g id="LWPOLYLINE_1620_">
				
					<line fill="none" stroke="#231F20" stroke-width="0.1" stroke-miterlimit="10" x1="-506.355" y1="812.208" x2="-498.616" y2="810.84"/>
			</g>
			<g id="LWPOLYLINE_1619_">
				
					<line fill="none" stroke="#231F20" stroke-width="0.1" stroke-miterlimit="10" x1="-503.342" y1="854.863" x2="-509.883" y2="852.48"/>
			</g>
			<g id="LWPOLYLINE_1618_">
				
					<line fill="none" stroke="#231F20" stroke-width="0.1" stroke-miterlimit="10" x1="-518.106" y1="880.44" x2="-523.44" y2="875.967"/>
			</g>
			<g id="LWPOLYLINE_1617_">
				
					<line fill="none" stroke="#231F20" stroke-width="0.1" stroke-miterlimit="10" x1="-528.597" y1="890.916" x2="-533.063" y2="885.597"/>
			</g>
			<g id="LWPOLYLINE_1616_">
				
					<line fill="none" stroke="#231F20" stroke-width="0.1" stroke-miterlimit="10" x1="-556.553" y1="752.383" x2="-554.17" y2="745.851"/>
			</g>
			<g id="LWPOLYLINE_1615_">
				
					<line fill="none" stroke="#231F20" stroke-width="0.1" stroke-miterlimit="10" x1="-569.695" y1="748.872" x2="-568.493" y2="742.024"/>
			</g>
			<g id="LWPOLYLINE_1614_">
				
					<line fill="none" stroke="#231F20" stroke-width="0.1" stroke-miterlimit="10" x1="-596.825" y1="748.872" x2="-598.189" y2="741.117"/>
			</g>
			<g id="LWPOLYLINE_1612_">
				
					<line fill="none" stroke="#231F20" stroke-width="0.1" stroke-miterlimit="10" x1="-609.968" y1="752.383" x2="-612.658" y2="744.998"/>
			</g>
			<g id="LWPOLYLINE_1610_">
				
					<line fill="none" stroke="#231F20" stroke-width="0.1" stroke-miterlimit="10" x1="-633.458" y1="765.949" x2="-638.52" y2="759.931"/>
			</g>
			<g id="LWPOLYLINE_1609_">
				
					<line fill="none" stroke="#231F20" stroke-width="0.1" stroke-miterlimit="10" x1="-643.081" y1="775.579" x2="-648.415" y2="771.098"/>
			</g>
			<g id="LWPOLYLINE_1606_">
				
					<line fill="none" stroke="#231F20" stroke-width="0.1" stroke-miterlimit="10" x1="-656.638" y1="799.066" x2="-663.179" y2="796.683"/>
			</g>
			<g id="LWPOLYLINE_1605_">
				
					<line fill="none" stroke="#231F20" stroke-width="0.1" stroke-miterlimit="10" x1="-667.014" y1="840.537" x2="-660.166" y2="839.331"/>
			</g>
			<g id="LWPOLYLINE_1604_">
				
					<line fill="none" stroke="#231F20" stroke-width="0.1" stroke-miterlimit="10" x1="-660.166" y1="812.208" x2="-667.014" y2="811.009"/>
			</g>
			<g id="LWPOLYLINE_1601_">
				
					<line fill="none" stroke="#231F20" stroke-width="0.1" stroke-miterlimit="10" x1="-648.415" y1="880.44" x2="-643.081" y2="875.967"/>
			</g>
			<g id="LWPOLYLINE_1600_">
				
					<line fill="none" stroke="#231F20" stroke-width="0.1" stroke-miterlimit="10" x1="-637.924" y1="890.916" x2="-633.458" y2="885.597"/>
			</g>
			<g id="LWPOLYLINE_1599_">
				
					<line fill="none" stroke="#231F20" stroke-width="0.1" stroke-miterlimit="10" x1="-663.179" y1="854.863" x2="-656.638" y2="852.48"/>
			</g>
			<g id="LWPOLYLINE_1598_">
				
					<line fill="none" stroke="#231F20" stroke-width="0.1" stroke-miterlimit="10" x1="-568.493" y1="909.522" x2="-569.695" y2="902.674"/>
			</g>
			<g id="LWPOLYLINE_1597_">
				
					<line fill="none" stroke="#231F20" stroke-width="0.1" stroke-miterlimit="10" x1="-598.036" y1="909.522" x2="-596.825" y2="902.674"/>
			</g>
			<g id="LWPOLYLINE_1596_">
				
					<line fill="none" stroke="#231F20" stroke-width="0.1" stroke-miterlimit="10" x1="-554.17" y1="905.695" x2="-556.553" y2="899.147"/>
			</g>
			<g id="LWPOLYLINE_1595_">
				
					<line fill="none" stroke="#231F20" stroke-width="0.1" stroke-miterlimit="10" x1="-612.35" y1="905.695" x2="-609.968" y2="899.147"/>
			</g>
			<g id="LWPOLYLINE_1775_">
				
					<line fill="none" stroke="#231F20" stroke-width="0.25" stroke-miterlimit="10" x1="-509.614" y1="783.241" x2="-522.333" y2="790.596"/>
			</g>
			<g id="LWPOLYLINE_1780_">
				
					<line fill="none" stroke="#231F20" stroke-width="0.25" stroke-miterlimit="10" x1="-509.499" y1="868.359" x2="-520.104" y2="862.233"/>
			</g>
			<g id="LWPOLYLINE_1789_">
				
					<line fill="none" stroke="#231F20" stroke-width="0.25" stroke-miterlimit="10" x1="-540.836" y1="752.299" x2="-548.08" y2="764.849"/>
			</g>
			<g id="LWPOLYLINE_1790_">
				
					<line fill="none" stroke="#231F20" stroke-width="0.25" stroke-miterlimit="10" x1="-618.441" y1="764.849" x2="-625.781" y2="752.115"/>
			</g>
			<g id="LWPOLYLINE_1794_">
				
					<line fill="none" stroke="#231F20" stroke-width="0.25" stroke-miterlimit="10" x1="-644.295" y1="790.773" x2="-657.015" y2="783.425"/>
			</g>
			<g id="LWPOLYLINE_1795_">
				
					<line fill="none" stroke="#231F20" stroke-width="0.25" stroke-miterlimit="10" x1="-540.74" y1="899.423" x2="-548.08" y2="886.696"/>
			</g>
			<g id="LWPOLYLINE_1798_">
				
					<line fill="none" stroke="#231F20" stroke-width="0.25" stroke-miterlimit="10" x1="-618.441" y1="886.696" x2="-625.888" y2="899.6"/>
			</g>
			<g id="LWPOLYLINE_1800_">
				
					<line fill="none" stroke="#231F20" stroke-width="0.25" stroke-miterlimit="10" x1="-644.188" y1="860.942" x2="-656.915" y2="868.297"/>
			</g>
			<g id="HATCH_43_">
				<polygon fill-rule="evenodd" clip-rule="evenodd" fill="#231F20" points="-578.599,893.144 -587.776,893.152 -583.26,909.907 
									"/>
			</g>
			<g id="ARC_326_">
				<path fill="#231F20" d="M-587.776,893.167c3.055,0.2,6.118,0.2,9.177-0.016"/>
			</g>
			<g id="LINE_56_">
				<line fill="#231F20" x1="-584.271" y1="893.306" x2="-582.107" y2="893.306"/>
			</g>
			<g id="LINE_54_">
				<line fill="#231F20" x1="-584.271" y1="880.64" x2="-582.107" y2="880.64"/>
			</g>
			<g id="HATCH_41_">
				<polygon fill-rule="evenodd" clip-rule="evenodd" fill="#231F20" points="-515.877,821.116 -515.87,830.277 -499.123,825.773 
									"/>
			</g>
			<g id="ARC_325_">
				<path fill="#231F20" d="M-515.87,830.285c0.204-3.052,0.204-6.118-0.008-9.169"/>
			</g>
			<g id="LINE_48_">
				<line fill="#231F20" x1="-515.724" y1="826.78" x2="-515.724" y2="824.613"/>
			</g>
			<g id="LWPOLYLINE_1229_">
				<line fill="#231F20" x1="-583.26" y1="741.639" x2="-578.745" y2="758.378"/>
			</g>
			<g id="LWPOLYLINE_1228_">
				<line fill="#231F20" x1="-587.929" y1="758.394" x2="-583.26" y2="741.639"/>
			</g>
			<g id="HATCH_39_">
				<polygon fill-rule="evenodd" clip-rule="evenodd" fill="#231F20" points="-587.929,758.394 -578.745,758.394 -583.26,741.639 
									"/>
			</g>
			<g id="ARC_324_">
				<path fill="#231F20" d="M-578.745,758.378c-3.055-0.2-6.129-0.2-9.184,0.016"/>
			</g>
			<g id="LINE_40_">
				<line fill="#231F20" x1="-582.25" y1="758.225" x2="-584.413" y2="758.225"/>
			</g>
			<g id="LWPOLYLINE_1227_">
				<line fill="#231F20" x1="-667.398" y1="825.773" x2="-650.651" y2="821.261"/>
			</g>
			<g id="LWPOLYLINE_1226_">
				<line fill="#231F20" x1="-650.644" y1="830.43" x2="-667.398" y2="825.773"/>
			</g>
			<g id="HATCH_37_">
				<polygon fill-rule="evenodd" clip-rule="evenodd" fill="#231F20" points="-650.644,830.43 -650.651,821.247 -667.398,825.773 
									"/>
			</g>
			<g id="ARC_323_">
				<path fill="#231F20" d="M-650.651,821.261c-0.204,3.052-0.204,6.118,0.008,9.169"/>
			</g>
			<g id="LINE_9_">
				<line fill="#231F20" x1="-650.797" y1="824.766" x2="-650.797" y2="826.925"/>
			</g>
			<g id="LINE_5_">
				<line fill="#231F20" x1="-638.124" y1="824.766" x2="-638.124" y2="826.925"/>
			</g>
			<g id="LWPOLYLINE_1772_">
				
					<path fill="none" stroke="#231F20" stroke-width="0.25" stroke-linecap="round" stroke-linejoin="round" stroke-miterlimit="10" d="
					M-498.104,824.121c-0.911-47.036-39.773-84.418-86.808-83.504c-47.036,0.915-84.415,39.773-83.504,86.809
					c0.911,47.028,39.773,84.418,86.809,83.504c46.382-0.899,83.522-38.767,83.522-85.156
					C-498.085,825.211-498.093,824.667-498.104,824.121z"/>
			</g>
			<g id="TEXT_88_">
				<text transform="matrix(1 0 0 1 -586.6777 771.1724)" fill="#231F20" font-family="'Verdana'" font-size="11.9286">0</text>
			</g>
			<g id="TEXT_89_">
				<text transform="matrix(1 0 0 1 -532.4629 829.9653)" fill="#231F20" font-family="'Verdana'" font-size="11.9286">90</text>
			</g>
			<g id="TEXT_90_">
				<text transform="matrix(1 0 0 1 -592.002 888.3442)" fill="#231F20" font-family="'Verdana'" font-size="11.9286">180</text>
			</g>
			<g id="TEXT_91_">
				<text transform="matrix(1 0 0 1 -646.6621 829.9653)" fill="#231F20" font-family="'Verdana'" font-size="11.9286">270</text>
			</g>
		</g>
		<path fill="#231F20" stroke="#231F20" stroke-width="0.1" d="M-581.804,825.704c0,0.8-0.653,1.453-1.456,1.453
			c-0.803,0-1.457-0.653-1.457-1.453c0-0.799,0.653-1.46,1.457-1.46C-582.458,824.244-581.804,824.905-581.804,825.704z"/>
	</g>
</g>
<g id="WAYPOINT_SYMBOL">
	<g>
		<g id="LWPOLYLINE_19_">
			<polygon fill="#FFFFFF" stroke="#FFFFFF" stroke-width="0.5" stroke-miterlimit="10" points="-316.729,912.32 -287.278,861.319 
				-257.843,912.32 			"/>
		</g>
		<g id="LWPOLYLINE_12_">
			<polygon fill="#231F20" stroke="#231F20" stroke-width="0.5" stroke-miterlimit="10" points="-311.134,909.092 -287.278,867.782 
				-263.438,909.092 			"/>
		</g>
		<g id="CIRCLE_11_">
			
				<path fill="#FFFFFF" stroke="#FFFFFF" stroke-width="0.5" stroke-linecap="round" stroke-linejoin="round" stroke-miterlimit="10" d="
				M-285.449,895.32c0-1.015-0.83-1.829-1.829-1.829c-1.015,0-1.845,0.814-1.845,1.829c0,1.014,0.83,1.837,1.845,1.837
				C-286.279,897.157-285.449,896.333-285.449,895.32L-285.449,895.32z"/>
		</g>
	</g>
	<g>
		<g id="LWPOLYLINE_11_">
			<polygon fill="#FFFFFF" stroke="#FFFFFF" stroke-width="0.5" stroke-miterlimit="10" points="-226.317,911.106 -196.866,860.088 
				-167.43,911.106 			"/>
		</g>
		<g id="LWPOLYLINE_10_">
			<polygon fill="#FFFFFF" stroke="#231F20" stroke-width="0.5" stroke-miterlimit="10" points="-220.722,907.87 -196.866,866.56 
				-173.025,907.87 			"/>
		</g>
		<g id="CIRCLE_7_">
			
				<path fill="#231F20" stroke="#231F20" stroke-width="0.5" stroke-linecap="round" stroke-linejoin="round" stroke-miterlimit="10" d="
				M-195.037,894.105c0-1.022-0.83-1.845-1.829-1.845c-1.015,0-1.845,0.822-1.845,1.845c0,1.007,0.83,1.829,1.845,1.829
				C-195.867,895.934-195.037,895.112-195.037,894.105L-195.037,894.105z"/>
		</g>
	</g>
</g>
<g id="Wpt_Symbol">
	<g>
		<g id="LWPOLYLINE_73_">
			<polygon fill="#FFFFFF" points="-302.569,719.705 -342.326,733.992 -302.569,748.28 -288.281,788.037 -273.99,748.28 
				-234.233,733.992 -273.99,719.705 -288.281,679.94 			"/>
		</g>
		<g id="HATCH_57_">
			<path fill-rule="evenodd" clip-rule="evenodd" fill="#FFFFFF" d="M-278.386,724.093l-9.888-27.561l-9.907,27.561l-27.541,9.898
				l27.541,9.907l9.907,27.537l9.888-27.537l27.56-9.907L-278.386,724.093z M-277.134,733.992h-22.284H-277.134z"/>
		</g>
		<g id="LWPOLYLINE_58_">
			<polygon fill="none" stroke="#231F20" stroke-width="0.5" stroke-linecap="round" stroke-miterlimit="10" points="
				-298.181,724.093 -325.729,733.992 -298.181,743.891 -288.281,771.436 -278.378,743.891 -250.833,733.992 -278.378,724.093 
				-288.281,696.541 			"/>
		</g>
		<g id="CIRCLE_26_">
			
				<path fill="none" stroke="#231F20" stroke-width="0.5" stroke-linecap="round" stroke-linejoin="round" stroke-miterlimit="10" d="
				M-277.134,733.992c0-6.155-4.992-11.144-11.147-11.144c-6.152,0-11.144,4.988-11.144,11.144c0,6.156,4.992,11.145,11.144,11.145
				C-282.125,745.136-277.134,740.148-277.134,733.992L-277.134,733.992z"/>
		</g>
	</g>
	<g>
		<g id="LWPOLYLINE_52_">
			<polygon fill="#FFFFFF" points="-121.209,719.621 -160.959,733.9 -121.209,748.187 -106.922,787.937 -92.634,748.187 
				-52.885,733.9 -92.634,719.621 -106.922,679.863 			"/>
		</g>
		<g id="HATCH_22_">
			<path fill-rule="evenodd" clip-rule="evenodd" fill="#FFFFFF" d="M-97.03,724.016l-9.892-27.553l-9.899,27.553l-27.537,9.876
				l27.537,9.907l9.899,27.545l9.892-27.545l27.552-9.907L-97.03,724.016z M-95.778,733.892h-22.28H-95.778z"/>
		</g>
		<path fill="#FFFFFF" d="M-158.834,733.9c0-28.659,23.241-51.9,51.908-51.9c28.667,0,51.904,23.241,51.904,51.9
			c0,28.675-23.237,51.908-51.904,51.908C-135.593,785.808-158.834,762.575-158.834,733.9z"/>
		<g id="LWPOLYLINE_51_">
			<polygon fill="#231F20" stroke="#231F20" stroke-width="0.5" stroke-linecap="round" stroke-miterlimit="10" points="
				-116.821,724 -144.366,733.9 -116.821,743.799 -106.922,771.344 -97.023,743.799 -69.485,733.9 -97.023,724 -106.922,696.463 			
				"/>
		</g>
		<path fill="none" stroke="#231F20" stroke-width="0.5" stroke-linecap="round" stroke-miterlimit="10" d="M-148.105,733.9
			c0-22.741,18.438-41.172,41.179-41.172c22.742,0,41.179,18.431,41.179,41.172c0,22.749-18.438,41.179-41.179,41.179
			C-129.667,775.079-148.105,756.649-148.105,733.9z"/>
		<g id="CIRCLE_9_">
			
				<path fill="#FFFFFF" stroke="#FFFFFF" stroke-width="0.5" stroke-linecap="round" stroke-linejoin="round" stroke-miterlimit="10" d="
				M-95.778,733.9c0-6.148-4.988-11.145-11.144-11.145s-11.144,4.996-11.144,11.145c0,6.156,4.988,11.144,11.144,11.144
				S-95.778,740.056-95.778,733.9L-95.778,733.9z"/>
		</g>
	</g>
</g>
<g id="BASEMAP">
	<g id="LWPOLYLINE_291_">
		<polyline fill="none" stroke="#2E3191" stroke-width="8" stroke-miterlimit="10" points="-140.042,197.941 -193.829,65.554 
			-246.926,197.941 		"/>
	</g>
	<g id="LINE_83_">
		
			<line fill="none" stroke="#2E3191" stroke-width="8" stroke-miterlimit="10" x1="-219.284" y1="65.554" x2="-269.678" y2="65.554"/>
	</g>
	<g id="LINE_82_">
		
			<line fill="none" stroke="#2E3191" stroke-width="8" stroke-miterlimit="10" x1="-216.212" y1="53.981" x2="-257.244" y2="24.093"/>
	</g>
	<g id="LINE_81_">
		
			<line fill="none" stroke="#2E3191" stroke-width="8" stroke-miterlimit="10" x1="-193.829" y1="42.147" x2="-193.829" y2="-10.208"/>
	</g>
	<g id="LINE_80_">
		
			<line fill="none" stroke="#2E3191" stroke-width="8" stroke-miterlimit="10" x1="-173.095" y1="53.981" x2="-128.026" y2="24.093"/>
	</g>
	<g id="LINE_79_">
		
			<line fill="none" stroke="#2E3191" stroke-width="8" stroke-miterlimit="10" x1="-168.631" y1="65.554" x2="-118.066" y2="65.554"/>
	</g>
	<circle fill="none" stroke="#2E3191" stroke-width="8" stroke-miterlimit="10" cx="-194.043" cy="180.5" r="6.527"/>
	<g id="LWPOLYLINE_2_">
		<polyline fill="none" stroke="#2E3191" stroke-width="8" stroke-miterlimit="10" points="119.506,151.675 65.72,19.289 
			12.623,151.675 		"/>
	</g>
	<circle fill="none" stroke="#2E3191" stroke-width="8" stroke-miterlimit="10" cx="65.505" cy="134.236" r="6.527"/>
	<g id="LWPOLYLINE_3_">
		<polyline fill="none" stroke="#2E3191" stroke-width="8" stroke-miterlimit="10" points="273.062,394.099 219.277,261.712 
			166.179,394.099 		"/>
	</g>
	<g id="LINE_12_">
		
			<line fill="none" stroke="#2E3191" stroke-width="8" stroke-miterlimit="10" x1="193.822" y1="261.712" x2="143.427" y2="261.712"/>
	</g>
	<g id="LINE_11_">
		
			<line fill="none" stroke="#2E3191" stroke-width="8" stroke-miterlimit="10" x1="196.893" y1="250.14" x2="155.861" y2="220.251"/>
	</g>
	<g id="LINE_10_">
		
			<line fill="none" stroke="#2E3191" stroke-width="8" stroke-miterlimit="10" x1="219.277" y1="238.306" x2="219.277" y2="185.951"/>
	</g>
	<circle fill="none" stroke="#2E3191" stroke-width="8" stroke-miterlimit="10" cx="219.062" cy="376.66" r="6.527"/>
	<g id="LWPOLYLINE_4_">
		<polyline fill="none" stroke="#2E3191" stroke-width="8" stroke-miterlimit="10" points="348.869,394.099 295.083,261.712 
			241.986,394.099 		"/>
	</g>
	<g id="LINE_15_">
		
			<line fill="none" stroke="#2E3191" stroke-width="8" stroke-miterlimit="10" x1="295.083" y1="238.306" x2="295.083" y2="185.951"/>
	</g>
	<g id="LINE_14_">
		
			<line fill="none" stroke="#2E3191" stroke-width="8" stroke-miterlimit="10" x1="315.816" y1="250.14" x2="360.886" y2="220.251"/>
	</g>
	<g id="LINE_13_">
		
			<line fill="none" stroke="#2E3191" stroke-width="8" stroke-miterlimit="10" x1="320.281" y1="261.712" x2="370.845" y2="261.712"/>
	</g>
	<circle fill="none" stroke="#2E3191" stroke-width="8" stroke-miterlimit="10" cx="294.869" cy="376.66" r="6.527"/>
	<g id="LWPOLYLINE_14_">
		<polyline fill="none" stroke="#2E3191" stroke-width="8" stroke-miterlimit="10" points="490.52,394.099 436.735,261.712 
			383.637,394.099 		"/>
	</g>
	<circle fill="none" stroke="#2E3191" stroke-width="8" stroke-miterlimit="10" cx="436.52" cy="376.66" r="6.527"/>
	<g id="LWPOLYLINE_5_">
		<polyline fill="none" stroke="#2E3191" stroke-width="8" stroke-miterlimit="10" points="566.327,394.099 512.542,261.712 
			459.444,394.099 		"/>
	</g>
	<circle fill="none" stroke="#2E3191" stroke-width="8" stroke-miterlimit="10" cx="512.327" cy="376.66" r="6.527"/>
</g>
</svg>
