<?xml version="1.0" encoding="utf-8"?>
<!-- Generator: Adobe Illustrator 15.0.0, SVG Export Plug-In . SVG Version: 6.00 Build 0)  -->
<!DOCTYPE svg PUBLIC "-//W3C//DTD SVG 1.1//EN" "http://www.w3.org/Graphics/SVG/1.1/DTD/svg11.dtd">
<svg version="1.1" xmlns="http://www.w3.org/2000/svg" xmlns:xlink="http://www.w3.org/1999/xlink" x="0px" y="0px"
	 width="115.333px" height="254.924px" viewBox="0 0 115.333 254.924" enable-background="new 0 0 115.333 254.924"
	 xml:space="preserve">
<g id="Layer_1">
	<polygon fill="none" stroke="#231F20" stroke-width="10" stroke-miterlimit="10" points="-1222.924,877.819 -1298.041,1007.923 
		-1222.924,1138.027 -1072.694,1138.027 -997.578,1007.923 -1072.694,877.819 	"/>
	<path fill="#231F20" d="M-1158.438,1007.923c0-5.871,4.759-10.629,10.629-10.629s10.629,4.758,10.629,10.629
		s-4.759,10.629-10.629,10.629S-1158.438,1013.794-1158.438,1007.923"/>
	<circle fill="none" stroke="#231F20" stroke-width="5" stroke-miterlimit="10" cx="-1147.809" cy="1007.923" r="10.629"/>
	<path fill="none" stroke="#2E3192" stroke-width="10" stroke-linecap="round" stroke-linejoin="round" stroke-miterlimit="10" d="
		M112.287,479.602c-10.023,0-18.158,8.136-18.158,18.159c0,10.024,8.135,18.158,18.158,18.158c10.037,0,18.158-8.134,18.158-18.158
		C130.445,487.737,122.324,479.602,112.287,479.602"/>
	
		<line fill="none" stroke="#2E3192" stroke-width="10" stroke-linecap="round" stroke-linejoin="round" stroke-miterlimit="10" x1="160.454" y1="528.553" x2="64.12" y2="528.553"/>
	
		<line fill="none" stroke="#2E3192" stroke-width="10" stroke-linecap="round" stroke-linejoin="round" stroke-miterlimit="10" x1="111.503" y1="528.553" x2="111.503" y2="665.947"/>
	<path fill="none" stroke="#2E3192" stroke-width="10" stroke-linecap="round" stroke-linejoin="round" stroke-miterlimit="10" d="
		M35.705,625.928c18.082,23.453,45.727,37.552,75.31,38.387"/>
	<path fill="none" stroke="#2E3192" stroke-width="10" stroke-linecap="round" stroke-linejoin="round" stroke-miterlimit="10" d="
		M111.979,664.327c29.596-0.86,57.239-14.958,75.31-38.386"/>
	
		<polyline fill="none" stroke="#2E3192" stroke-width="10" stroke-linecap="round" stroke-linejoin="round" stroke-miterlimit="10" points="
		27.803,607.512 24.641,632.776 48.326,623.306 27.803,607.512 	"/>
	
		<polyline fill="none" stroke="#2E3192" stroke-width="10" stroke-linecap="round" stroke-linejoin="round" stroke-miterlimit="10" points="
		196.772,607.512 199.935,632.776 176.25,623.306 196.772,607.512 	"/>
	
		<polyline fill="none" stroke="#063B60" stroke-width="10" stroke-linecap="round" stroke-linejoin="round" stroke-miterlimit="10" points="
		781.394,-256.956 814.441,-337.231 844.669,-256.956 	"/>
	<polygon fill="#545454" points="817.277,-339.13 814.441,-341.013 812.559,-339.13 	"/>
	<polygon fill="none" stroke="#545454" stroke-width="10" stroke-linecap="round" stroke-miterlimit="10" points="814.441,-341.013 
		812.559,-339.13 817.277,-339.13 	"/>
	<polygon fill="#545454" points="815.387,-334.396 814.434,-337.239 813.504,-334.396 	"/>
	<polygon fill="none" stroke="#545454" stroke-width="10" stroke-linecap="round" stroke-miterlimit="10" points="814.441,-337.231 
		813.504,-334.403 815.387,-334.403 	"/>
	<path fill="#545454" d="M812.559-339.122l5.664,1.883l-0.945-1.883H812.559z M818.223-337.239l-5.664-1.883l-1.883,1.883H818.223z"
		/>
	<path fill="none" stroke="#545454" stroke-width="10" stroke-linecap="round" stroke-miterlimit="10" d="M818.223-337.231
		l-5.664-1.891h4.719L818.223-337.231z M810.668-337.231h7.555l-5.664-1.891L810.668-337.231z"/>
	<path fill="#545454" d="M813.504-333.45v-0.945h-1.891L813.504-333.45z M811.613-334.396h1.891l-2.836-2.844L811.613-334.396z
		 M810.668-337.239l2.836,2.844l0.938-2.844H810.668z"/>
	<path fill="none" stroke="#545454" stroke-width="10" stroke-linecap="round" stroke-miterlimit="10" d="M813.504-334.396
		l-2.836-2.836h3.773L813.504-334.396z M811.613-334.396h1.891l-2.836-2.836L811.613-334.396z M813.504-333.458l-1.891-0.938h1.891
		V-333.458z"/>
	<path fill="#545454" d="M815.395-334.396h2.828l-3.781-2.844L815.395-334.396z M814.441-337.239l3.781,2.844v-2.844H814.441z"/>
	<path fill="none" stroke="#545454" stroke-width="10" stroke-linecap="round" stroke-miterlimit="10" d="M818.223-334.403
		l-3.781-2.828h3.781V-334.403z M815.387-334.403h2.836l-3.781-2.828L815.387-334.403z"/>
	<path fill="#545454" d="M815.387-334.396h-1.883H815.387z M815.387-334.396h-1.883H815.387z"/>
	<path fill="none" stroke="#545454" stroke-width="10" stroke-linecap="round" stroke-miterlimit="10" d="M815.387-334.403
		L815.387-334.403h-1.883H815.387z M813.504-334.403h1.883H813.504z"/>
	<path fill="#545454" d="M813.504-334.396h-1.891H813.504z M813.504-334.396h-1.891H813.504z"/>
	<path fill="none" stroke="#545454" stroke-width="10" stroke-linecap="round" stroke-miterlimit="10" d="M813.504-334.403
		L813.504-334.403h-1.891H813.504z M811.613-334.403h1.891H811.613z"/>
	<path fill="#545454" d="M816.332-333.458l1.891-0.945h-2.836L816.332-333.458z M816.332-333.458l-0.945-0.945L816.332-333.458z"/>
	<path fill="none" stroke="#545454" stroke-width="10" stroke-linecap="round" stroke-miterlimit="10" d="M816.332-333.458
		L816.332-333.458z M815.387-334.403l0.945,0.945L815.387-334.403z M818.223-334.403h-2.836l0.945,0.945L818.223-334.403z"/>
	<path fill="#545454" d="M814.441-332.513l1.891-0.938h-2.828L814.441-332.513z M813.504-333.45h2.828l-2.828-0.945V-333.45z
		 M813.504-334.396l2.828,0.945l-0.945-0.945H813.504z"/>
	<path fill="none" stroke="#545454" stroke-width="10" stroke-linecap="round" stroke-miterlimit="10" d="M816.332-333.45
		l-2.828-0.945h1.883L816.332-333.45z M813.504-333.45h2.828l-2.828-0.945V-333.45z M814.441-332.513l-0.938-0.938h2.828
		L814.441-332.513z"/>
	<path fill="#545454" d="M816.332-333.458h-2.828H816.332z M816.332-333.458h-2.828H816.332z"/>
	<path fill="none" stroke="#545454" stroke-width="10" stroke-linecap="round" stroke-miterlimit="10" d="M816.332-333.458
		L816.332-333.458h-2.828H816.332z M813.504-333.458h2.828H813.504z"/>
	<polygon fill="#545454" points="817.277,-271.128 814.441,-272.065 811.613,-271.128 	"/>
	<polygon fill="none" stroke="#545454" stroke-width="10" stroke-linecap="round" stroke-miterlimit="10" points="814.441,-272.073 
		811.613,-271.128 817.277,-271.128 	"/>
	<path fill="#545454" d="M811.613-271.12l6.609,2.82l-0.945-2.82H811.613z M818.223-268.3l-6.609-2.82l-0.938,2.82H818.223z"/>
	<path fill="none" stroke="#545454" stroke-width="10" stroke-linecap="round" stroke-miterlimit="10" d="M818.223-268.3
		l-6.609-2.82h5.664L818.223-268.3z M810.668-268.3h7.555l-6.609-2.82L810.668-268.3z"/>
	<path fill="#545454" d="M814.441-264.511l2.836-0.945h-5.664L814.441-264.511z M811.613-265.456h5.664l-6.609-2.844
		L811.613-265.456z"/>
	<path fill="none" stroke="#545454" stroke-width="10" stroke-linecap="round" stroke-miterlimit="10" d="M811.613-265.464h5.664
		l-2.836,0.945L811.613-265.464z M810.668-268.3l0.945,2.836h5.664L810.668-268.3z"/>
	<polygon fill="#545454" points="817.277,-265.456 818.223,-268.3 810.668,-268.3 	"/>
	<polygon fill="none" stroke="#545454" stroke-width="10" stroke-linecap="round" stroke-miterlimit="10" points="810.668,-268.3 
		818.223,-268.3 817.277,-265.464 	"/>
	<g>
		<path fill="none" stroke="#063B60" stroke-width="10" stroke-linecap="round" stroke-linejoin="round" stroke-miterlimit="10" d="
			M813.973-273.011c-2.344,0-4.25,1.891-4.25,4.242s1.906,4.25,4.25,4.25s4.25-1.898,4.25-4.25S816.316-273.011,813.973-273.011"/>
	</g>
	
		<polyline fill="none" stroke="#063B60" stroke-width="10" stroke-linecap="round" stroke-linejoin="round" stroke-miterlimit="10" points="
		775.722,56.576 809.723,-23.692 839.942,56.576 	"/>
	
		<polyline fill="none" stroke="#063B60" stroke-width="10" stroke-linecap="round" stroke-linejoin="round" stroke-miterlimit="10" points="
		753.057,403.171 787.058,322.903 816.332,403.171 	"/>
	
		<polyline fill="none" stroke="#063B60" stroke-width="10" stroke-linecap="round" stroke-linejoin="round" stroke-miterlimit="10" points="
		795.559,403.171 829.559,322.903 858.833,403.171 	"/>
	<polygon fill="#545454" points="806.887,43.356 804.059,44.302 809.723,44.302 	"/>
	<polygon fill="none" stroke="#545454" stroke-width="10" stroke-linecap="round" stroke-miterlimit="10" points="806.887,43.356 
		804.059,44.302 809.723,44.302 	"/>
	<path fill="#545454" d="M810.668,47.138l-6.609-2.828h5.664L810.668,47.138z M803.113,47.138h7.555l-6.609-2.828L803.113,47.138z"
		/>
	<path fill="none" stroke="#545454" stroke-width="10" stroke-linecap="round" stroke-miterlimit="10" d="M810.668,47.138
		l-6.609-2.828h5.664L810.668,47.138z M803.113,47.138h7.555l-6.609-2.828L803.113,47.138z"/>
	<path fill="#545454" d="M804.059,49.966h5.664l-2.844,0.945L804.059,49.966z M803.113,47.138l0.945,2.828h5.664L803.113,47.138z"/>
	<path fill="none" stroke="#545454" stroke-width="10" stroke-linecap="round" stroke-miterlimit="10" d="M804.059,49.966h5.664
		l-2.844,0.945L804.059,49.966z M803.113,47.138l0.945,2.828h5.664L803.113,47.138z"/>
	<polygon fill="#545454" points="803.113,47.138 810.668,47.138 809.723,49.966 	"/>
	<polygon fill="none" stroke="#545454" stroke-width="10" stroke-linecap="round" stroke-miterlimit="10" points="803.113,47.138 
		810.668,47.138 809.723,49.966 	"/>
	<path fill="none" stroke="#063B60" stroke-width="10" stroke-linecap="round" stroke-linejoin="round" stroke-miterlimit="10" d="
		M806.418,42.419c-2.344,0-4.25,1.891-4.25,4.242c0,2.353,1.906,4.25,4.25,4.25s4.25-1.897,4.25-4.25
		C810.668,44.31,808.762,42.419,806.418,42.419"/>
	<polygon fill="#545454" points="829.559,389.007 827.668,389.952 830.497,389.952 	"/>
	<polygon fill="none" stroke="#545454" stroke-width="10" stroke-linecap="round" stroke-miterlimit="10" points="829.559,389.007 
		827.668,389.952 830.497,389.952 	"/>
	<polygon fill="#545454" points="786.112,389.96 785.167,389.96 788.003,389.96 	"/>
	<polygon fill="none" stroke="#545454" stroke-width="10" stroke-linecap="round" stroke-miterlimit="10" points="786.112,389.96 
		785.167,389.96 788.003,389.96 	"/>
	<path fill="#545454" d="M831.442,389.96h-3.774h2.821H831.442z M826.723,389.96h4.72h-3.774H826.723z"/>
	<path fill="none" stroke="#545454" stroke-width="10" stroke-linecap="round" stroke-miterlimit="10" d="M831.442,389.96h-3.774
		h2.821H831.442z M826.723,389.96h4.72h-3.774H826.723z"/>
	<path fill="#545454" d="M788.948,390.905l-3.781-0.945h2.836L788.948,390.905z M783.276,390.905h5.672l-3.781-0.945
		L783.276,390.905z"/>
	<path fill="none" stroke="#545454" stroke-width="10" stroke-linecap="round" stroke-miterlimit="10" d="M788.948,390.905
		l-3.781-0.945h2.836L788.948,390.905z M783.276,390.905h5.672l-3.781-0.945L783.276,390.905z"/>
	<path fill="#545454" d="M833.333,392.78l-6.61-2.82h4.72L833.333,392.78z M825.777,392.78h7.556l-6.61-2.82L825.777,392.78z"/>
	<path fill="none" stroke="#545454" stroke-width="10" stroke-linecap="round" stroke-miterlimit="10" d="M833.333,392.78
		l-6.61-2.82h4.72L833.333,392.78z M825.777,392.78h7.556l-6.61-2.82L825.777,392.78z"/>
	<path fill="#545454" d="M789.894,393.733l-6.617-2.828h5.672L789.894,393.733z M782.339,393.733h7.555l-6.617-2.828
		L782.339,393.733z"/>
	<path fill="none" stroke="#545454" stroke-width="10" stroke-linecap="round" stroke-miterlimit="10" d="M789.894,393.733
		l-6.617-2.828h5.672L789.894,393.733z M782.339,393.733h7.555l-6.617-2.828L782.339,393.733z"/>
	<path fill="#545454" d="M831.442,395.616l-5.665-2.828h7.556L831.442,395.616z M826.723,395.616h4.72l-5.665-2.828L826.723,395.616
		z"/>
	<path fill="none" stroke="#545454" stroke-width="10" stroke-linecap="round" stroke-miterlimit="10" d="M831.442,395.616
		l-5.665-2.828h7.556L831.442,395.616z M826.723,395.616h4.72l-5.665-2.828L826.723,395.616z"/>
	<path fill="#545454" d="M827.668,395.616h2.821l-0.931,0.945L827.668,395.616z M826.723,395.616h0.945h2.821H826.723z"/>
	<path fill="none" stroke="#545454" stroke-width="10" stroke-linecap="round" stroke-miterlimit="10" d="M827.668,395.616h2.821
		l-0.931,0.945L827.668,395.616z M826.723,395.616h0.945h2.821H826.723z"/>
	<polygon fill="#545454" points="826.723,395.616 831.442,395.616 830.489,395.616 	"/>
	<polygon fill="none" stroke="#545454" stroke-width="10" stroke-linecap="round" stroke-miterlimit="10" points="826.723,395.616 
		831.442,395.616 830.489,395.616 	"/>
	<path fill="#545454" d="M788.948,395.616l-6.609-1.883h7.555L788.948,395.616z M783.276,395.616h5.672l-6.609-1.883
		L783.276,395.616z"/>
	<path fill="none" stroke="#545454" stroke-width="10" stroke-linecap="round" stroke-miterlimit="10" d="M788.948,395.616
		l-6.609-1.883h7.555L788.948,395.616z M783.276,395.616h5.672l-6.609-1.883L783.276,395.616z"/>
	<path fill="#545454" d="M785.167,396.562h2.836l-1.891,0.945L785.167,396.562z M783.276,395.616l1.891,0.945h2.836L783.276,395.616
		z"/>
	<path fill="none" stroke="#545454" stroke-width="10" stroke-linecap="round" stroke-miterlimit="10" d="M785.167,396.562h2.836
		l-1.891,0.945L785.167,396.562z M783.276,395.616l1.891,0.945h2.836L783.276,395.616z"/>
	<polygon fill="#545454" points="783.276,395.616 788.948,395.616 788.003,396.562 	"/>
	<polygon fill="none" stroke="#545454" stroke-width="10" stroke-linecap="round" stroke-miterlimit="10" points="783.276,395.616 
		788.948,395.616 788.003,396.562 	"/>
	<path fill="none" stroke="#063B60" stroke-width="10" stroke-linecap="round" stroke-linejoin="round" stroke-miterlimit="10" d="
		M785.644,389.007c-2.352,0-4.25,1.898-4.25,4.25s1.898,4.25,4.25,4.25c2.345,0,4.25-1.898,4.25-4.25
		S787.988,389.007,785.644,389.007"/>
	<path fill="none" stroke="#063B60" stroke-width="10" stroke-linecap="round" stroke-linejoin="round" stroke-miterlimit="10" d="
		M829.083,388.062c-2.345,0-4.251,1.898-4.251,4.25s1.906,4.25,4.251,4.25c2.352,0,4.25-1.898,4.25-4.25
		S831.435,388.062,829.083,388.062"/>
	
		<polyline fill="none" stroke="#063B60" stroke-width="10" stroke-linecap="round" stroke-linejoin="round" stroke-miterlimit="10" points="
		754.948,709.155 788.948,628.888 818.223,709.155 	"/>
	
		<polyline fill="none" stroke="#063B60" stroke-width="10" stroke-linecap="round" stroke-linejoin="round" stroke-miterlimit="10" points="
		797.449,709.155 831.442,628.888 860.724,709.155 	"/>
	<polygon fill="#545454" points="830.497,694.991 829.559,694.991 832.388,694.991 	"/>
	<polygon fill="none" stroke="#545454" stroke-width="10" stroke-linecap="round" stroke-miterlimit="10" points="830.497,694.991 
		829.559,694.991 832.388,694.991 	"/>
	<polygon fill="#545454" points="788.003,694.991 787.058,695.937 788.948,695.937 	"/>
	<polygon fill="none" stroke="#545454" stroke-width="10" stroke-linecap="round" stroke-miterlimit="10" points="788.003,694.991 
		787.058,695.937 788.948,695.937 	"/>
	<path fill="#545454" d="M833.333,695.937l-3.774-0.938h2.829L833.333,695.937z M827.668,695.937h5.665l-3.774-0.938
		L827.668,695.937z"/>
	<path fill="none" stroke="#545454" stroke-width="10" stroke-linecap="round" stroke-miterlimit="10" d="M833.333,695.937
		l-3.774-0.938h2.829L833.333,695.937z M827.668,695.937h5.665l-3.774-0.938L827.668,695.937z"/>
	<path fill="#545454" d="M790.832,696.89l-3.774-0.945h1.891L790.832,696.89z M785.167,696.89h5.665l-3.774-0.945L785.167,696.89z"
		/>
	<path fill="none" stroke="#545454" stroke-width="10" stroke-linecap="round" stroke-miterlimit="10" d="M790.832,696.89
		l-3.774-0.945h1.891L790.832,696.89z M785.167,696.89h5.665l-3.774-0.945L785.167,696.89z"/>
	<path fill="#545454" d="M834.278,698.765l-6.61-2.82h5.665L834.278,698.765z M826.723,698.765h7.556l-6.61-2.82L826.723,698.765z"
		/>
	<path fill="none" stroke="#545454" stroke-width="10" stroke-linecap="round" stroke-miterlimit="10" d="M834.278,698.765
		l-6.61-2.82h5.665L834.278,698.765z M826.723,698.765h7.556l-6.61-2.82L826.723,698.765z"/>
	<path fill="#545454" d="M791.777,698.765l-6.61-1.875h5.665L791.777,698.765z M784.222,698.765h7.556l-6.61-1.875L784.222,698.765z
		"/>
	<path fill="none" stroke="#545454" stroke-width="10" stroke-linecap="round" stroke-miterlimit="10" d="M791.777,698.765
		l-6.61-1.875h5.665L791.777,698.765z M784.222,698.765h7.556l-6.61-1.875L784.222,698.765z"/>
	<path fill="#545454" d="M833.333,701.608l-6.61-2.836h7.556L833.333,701.608z M827.668,701.608h5.665l-6.61-2.836L827.668,701.608z
		"/>
	<path fill="none" stroke="#545454" stroke-width="10" stroke-linecap="round" stroke-miterlimit="10" d="M833.333,701.608
		l-6.61-2.836h7.556L833.333,701.608z M827.668,701.608h5.665l-6.61-2.836L827.668,701.608z"/>
	<path fill="#545454" d="M829.559,701.608h2.829l-1.891,0.938L829.559,701.608z M827.668,701.608h1.891h2.829H827.668z"/>
	<path fill="none" stroke="#545454" stroke-width="10" stroke-linecap="round" stroke-miterlimit="10" d="M829.559,701.608h2.829
		l-1.891,0.938L829.559,701.608z M827.668,701.608h1.891h2.829H827.668z"/>
	<polygon fill="#545454" points="827.668,701.608 833.333,701.608 832.388,701.608 	"/>
	<polygon fill="none" stroke="#545454" stroke-width="10" stroke-linecap="round" stroke-miterlimit="10" points="827.668,701.608 
		833.333,701.608 832.388,701.608 	"/>
	<path fill="#545454" d="M790.832,701.608l-6.61-2.836h7.556L790.832,701.608z M785.167,701.608h5.665l-6.61-2.836L785.167,701.608z
		"/>
	<path fill="none" stroke="#545454" stroke-width="10" stroke-linecap="round" stroke-miterlimit="10" d="M790.832,701.608
		l-6.61-2.836h7.556L790.832,701.608z M785.167,701.608h5.665l-6.61-2.836L785.167,701.608z"/>
	<path fill="#545454" d="M786.112,702.546h3.781h-1.891H786.112z M785.167,701.608l0.945,0.938h3.781L785.167,701.608z"/>
	<path fill="none" stroke="#545454" stroke-width="10" stroke-linecap="round" stroke-miterlimit="10" d="M786.112,702.546h3.781
		h-1.891H786.112z M785.167,701.608l0.945,0.938h3.781L785.167,701.608z"/>
	<polygon fill="#545454" points="785.167,701.608 790.832,701.608 789.894,702.546 	"/>
	<polygon fill="none" stroke="#545454" stroke-width="10" stroke-linecap="round" stroke-miterlimit="10" points="785.167,701.608 
		790.832,701.608 789.894,702.546 	"/>
	<path fill="none" stroke="#063B60" stroke-width="10" stroke-linecap="round" stroke-linejoin="round" stroke-miterlimit="10" d="
		M787.526,694.046c-2.344,0-4.25,1.906-4.25,4.25c0,2.352,1.906,4.25,4.25,4.25c2.353,0,4.251-1.898,4.251-4.25
		C791.777,695.952,789.879,694.046,787.526,694.046"/>
	<path fill="none" stroke="#063B60" stroke-width="10" stroke-linecap="round" stroke-linejoin="round" stroke-miterlimit="10" d="
		M830.028,694.046c-2.345,0-4.251,1.906-4.251,4.25c0,2.352,1.906,4.25,4.251,4.25c2.344,0,4.25-1.898,4.25-4.25
		C834.278,695.952,832.372,694.046,830.028,694.046"/>
	
		<line fill="none" stroke="#063B60" stroke-width="10" stroke-linecap="round" stroke-linejoin="round" stroke-miterlimit="10" x1="846.552" y1="-23.692" x2="824.832" y2="-23.692"/>
	
		<line fill="none" stroke="#063B60" stroke-width="10" stroke-linecap="round" stroke-linejoin="round" stroke-miterlimit="10" x1="795.559" y1="-23.692" x2="773.839" y2="-23.692"/>
	
		<line fill="none" stroke="#063B60" stroke-width="10" stroke-linecap="round" stroke-linejoin="round" stroke-miterlimit="10" x1="809.723" y1="-38.802" x2="809.723" y2="-60.528"/>
	
		<line fill="none" stroke="#063B60" stroke-width="10" stroke-linecap="round" stroke-linejoin="round" stroke-miterlimit="10" x1="820.113" y1="-34.083" x2="835.224" y2="-49.2"/>
	
		<line fill="none" stroke="#063B60" stroke-width="10" stroke-linecap="round" stroke-linejoin="round" stroke-miterlimit="10" x1="799.332" y1="-34.083" x2="784.222" y2="-49.2"/>
	
		<line fill="none" stroke="#063B60" stroke-width="10" stroke-linecap="round" stroke-linejoin="round" stroke-miterlimit="10" x1="773.839" y1="628.88" x2="752.111" y2="628.88"/>
	
		<line fill="none" stroke="#063B60" stroke-width="10" stroke-linecap="round" stroke-linejoin="round" stroke-miterlimit="10" x1="845.614" y1="628.88" x2="867.334" y2="628.88"/>
	
		<line fill="none" stroke="#063B60" stroke-width="10" stroke-linecap="round" stroke-linejoin="round" stroke-miterlimit="10" x1="841.833" y1="617.56" x2="856.942" y2="602.442"/>
	
		<line fill="none" stroke="#063B60" stroke-width="10" stroke-linecap="round" stroke-linejoin="round" stroke-miterlimit="10" x1="831.442" y1="613.778" x2="831.442" y2="592.052"/>
	
		<line fill="none" stroke="#063B60" stroke-width="10" stroke-linecap="round" stroke-linejoin="round" stroke-miterlimit="10" x1="762.503" y1="602.45" x2="777.612" y2="617.56"/>
	
		<line fill="none" stroke="#063B60" stroke-width="10" stroke-linecap="round" stroke-linejoin="round" stroke-miterlimit="10" x1="788.948" y1="613.778" x2="788.948" y2="592.052"/>
	<g>
		<path fill="none" stroke="#063B60" stroke-width="10" stroke-linecap="round" stroke-linejoin="round" stroke-miterlimit="10" d="
			M813.973-341.95c-2.344,0-4.25,1.891-4.25,4.25c0,2.344,1.906,4.25,4.25,4.25s4.25-1.906,4.25-4.25
			C818.223-340.06,816.316-341.95,813.973-341.95"/>
	</g>
	<path fill="none" stroke="#2E3191" stroke-width="8" stroke-miterlimit="10" d="M63.399,162.853
		c0.76,36.301,17.968,70.002,46.304,90.684"/>
	<path fill="none" stroke="#2E3191" stroke-width="8" stroke-miterlimit="10" d="M63.399,162.853
		c0.76,36.301,17.968,70.002,46.304,90.684"/>
	<path fill="none" stroke="#2E3191" stroke-width="8" stroke-miterlimit="10" d="M63.399,162.853
		c0.76,36.301,17.968,70.002,46.304,90.684"/>
	<path fill="none" stroke="#2E3191" stroke-width="8" stroke-miterlimit="10" d="M5.092,251.934
		c32.666-18.345,53.889-51.395,58.271-88.601"/>
	<line fill="none" stroke="#2E3191" stroke-width="8" stroke-miterlimit="10" x1="63.362" y1="164.019" x2="63.362" y2="64.114"/>
	<path fill="none" stroke="#2E3191" stroke-width="8" stroke-miterlimit="10" d="M522.138,353.663
		c0.824,37.449,19.513,72.225,50.285,93.583"/>
	<path fill="none" stroke="#2E3191" stroke-width="8" stroke-miterlimit="10" d="M522.138,353.663
		c0.824,37.449,19.513,72.225,50.285,93.583"/>
	<path fill="none" stroke="#2E3191" stroke-width="8" stroke-miterlimit="10" d="M522.138,353.663
		c0.824,37.449,19.513,72.225,50.285,93.583"/>
	<path fill="none" stroke="#2E3191" stroke-width="8" stroke-miterlimit="10" d="M463.829,442.731
		c32.667-18.336,54.583-51.185,58.964-88.378"/>
	<line fill="none" stroke="#2E3191" stroke-width="8" stroke-miterlimit="10" x1="63.368" y1="47.721" x2="63.368" y2="7.459"/>
	<line fill="none" stroke="#2E3191" stroke-width="8" stroke-miterlimit="10" x1="23.104" y1="104.376" x2="51.44" y2="76.055"/>
	<line fill="none" stroke="#2E3191" stroke-width="8" stroke-miterlimit="10" x1="75.296" y1="52.186" x2="103.619" y2="23.864"/>
	<line fill="none" stroke="#2E3191" stroke-width="8" stroke-miterlimit="10" x1="103.619" y1="104.376" x2="75.296" y2="76.055"/>
	<line fill="none" stroke="#2E3191" stroke-width="8" stroke-miterlimit="10" x1="52.92" y1="52.186" x2="23.104" y2="23.864"/>
</g>
<g id="ANC_LEGEND">
	<text transform="matrix(1 0 0 1 -752.519 64.1143)" font-family="'CenturyGothic'" font-size="8.3513">IFR-Civil</text>
	<g id="MTEXT_5_">
		<text transform="matrix(1 0 0 1 -752.519 83.333)" font-family="'CenturyGothic'" font-size="8.3513">IFR-Join Civil Military</text>
	</g>
	<g id="MTEXT_4_">
		<text transform="matrix(1 0 0 1 -752.519 102.5537)" font-family="'CenturyGothic'" font-size="8.3513">IFR-Military</text>
	</g>
	<g id="INSERT_8_">
		<g id="CIRCLE_5_">
			
				<path fill="none" stroke="#992B20" stroke-width="10" stroke-linecap="round" stroke-linejoin="round" stroke-miterlimit="10" d="
				M-1937.634-776.372c0-76.291-61.83-138.121-138.125-138.121c-76.291,0-138.121,61.831-138.121,138.121
				c0,76.294,61.83,138.125,138.121,138.125C-1999.464-638.248-1937.634-700.078-1937.634-776.372L-1937.634-776.372z"/>
		</g>
		<g id="LWPOLYLINE_9_">
			
				<line fill="none" stroke="#992B20" stroke-width="10" stroke-linecap="round" stroke-linejoin="round" stroke-miterlimit="10" x1="-2075.758" y1="-603.286" x2="-2075.758" y2="-638.248"/>
		</g>
		<g id="LWPOLYLINE_8_">
			
				<line fill="none" stroke="#992B20" stroke-width="10" stroke-linecap="round" stroke-linejoin="round" stroke-miterlimit="10" x1="-2075.758" y1="-914.493" x2="-2075.758" y2="-954.431"/>
		</g>
		<g id="LWPOLYLINE_7_">
			
				<line fill="none" stroke="#992B20" stroke-width="10" stroke-linecap="round" stroke-linejoin="round" stroke-miterlimit="10" x1="-2251.266" y1="-776.372" x2="-2213.879" y2="-776.372"/>
		</g>
		<g id="LWPOLYLINE_6_">
			
				<line fill="none" stroke="#992B20" stroke-width="10" stroke-linecap="round" stroke-linejoin="round" stroke-miterlimit="10" x1="-1937.634" y1="-776.372" x2="-1900.186" y2="-776.372"/>
		</g>
	</g>
	<g id="INSERT_6_">
		<g id="CIRCLE_2_">
			
				<path fill="none" stroke="#992B20" stroke-width="10" stroke-linecap="round" stroke-linejoin="round" stroke-miterlimit="10" d="
				M-1937.634,707.419c0-76.287-61.83-138.117-138.125-138.117c-76.291,0-138.121,61.83-138.121,138.117
				c0,76.294,61.83,138.124,138.121,138.124C-1999.464,845.543-1937.634,783.713-1937.634,707.419L-1937.634,707.419z"/>
		</g>
		<g id="CIRCLE_1_">
			
				<path fill="none" stroke="#992B20" stroke-width="10" stroke-linecap="round" stroke-linejoin="round" stroke-miterlimit="10" d="
				M-2008.156,707.419c0-37.345-30.25-67.603-67.602-67.603c-37.348,0-67.603,30.258-67.603,67.603
				c0,37.352,30.254,67.602,67.603,67.602C-2038.407,775.021-2008.156,744.771-2008.156,707.419L-2008.156,707.419z"/>
		</g>
	</g>
	<text transform="matrix(1 0 0 1 -647.3311 64.1143)" font-family="'CenturyGothic'" font-size="8.3513">VFR-Civil</text>
	<g id="MTEXT_3_">
		<text transform="matrix(1 0 0 1 -647.3311 83.333)" font-family="'CenturyGothic'" font-size="8.3513">VFR-Join Civil Military</text>
	</g>
	<g id="MTEXT_2_">
		<text transform="matrix(1 0 0 1 -647.3311 102.5537)" font-family="'CenturyGothic'" font-size="8.3513">VFR-Military</text>
	</g>
	<g id="INSERT_1_">
		<g id="CIRCLE_8_">
			
				<path fill="none" stroke="#2E3192" stroke-width="10" stroke-linecap="round" stroke-linejoin="round" stroke-miterlimit="10" d="
				M519.218-982.108c0-76.291-61.83-138.121-138.125-138.121s-138.125,61.831-138.125,138.121
				c0,76.294,61.83,138.189,138.125,138.189S519.218-905.814,519.218-982.108L519.218-982.108z"/>
		</g>
		<g id="LWPOLYLINE_18_">
			<line fill="none" stroke="#2E3192" stroke-width="10" x1="381.093" y1="-809.022" x2="381.093" y2="-843.919"/>
		</g>
		<g id="LWPOLYLINE_17_">
			<line fill="none" stroke="#2E3192" stroke-width="10" x1="381.093" y1="-1120.229" x2="381.093" y2="-1160.102"/>
		</g>
		<g id="LWPOLYLINE_13_">
			<line fill="none" stroke="#2E3192" stroke-width="10" x1="205.62" y1="-982.108" x2="242.968" y2="-982.108"/>
		</g>
		<g id="LWPOLYLINE_1_">
			<line fill="none" stroke="#2E3192" stroke-width="10" x1="519.218" y1="-982.108" x2="556.665" y2="-982.108"/>
		</g>
	</g>
	<g id="CIRCLE_10_">
		<path fill="none" stroke="#2E3192" stroke-width="10" stroke-linecap="round" stroke-linejoin="round" stroke-miterlimit="10" d="
			M1396.687-465.165c0-76.291-61.83-138.121-138.125-138.121c-76.294,0-138.124,61.831-138.124,138.121
			c0,76.293,61.83,138.123,138.124,138.123C1334.856-327.042,1396.687-388.872,1396.687-465.165L1396.687-465.165z"/>
	</g>
	<g id="INSERT_2_">
		<g id="CIRCLE_4_">
			
				<path fill="none" stroke="#2E3192" stroke-width="10" stroke-linecap="round" stroke-linejoin="round" stroke-miterlimit="10" d="
				M667.333-477.333c0-76.291-61.83-138.122-138.125-138.122s-138.125,61.831-138.125,138.122
				c0,76.293,61.83,138.123,138.125,138.123S667.333-401.04,667.333-477.333L667.333-477.333z"/>
		</g>
	</g>
	<text transform="matrix(1 0 0 1 454.8867 -401.6885)" fill="#2E3192" font-family="'MyriadPro-Regular'" font-size="225.9887">H</text>
</g>
<g id="PLAN_VIEW">
	<g id="CIRCLE_270_">
		
			<path fill="#FFFFFF" stroke="#FFFFFF" stroke-width="0.5" stroke-linecap="round" stroke-linejoin="round" stroke-miterlimit="10" d="
			M-749.155,407.667c0-21.542-17.461-39.004-39.004-39.004c-21.55,0-39.02,17.462-39.02,39.004c0,21.543,17.469,39.012,39.02,39.012
			C-766.617,446.679-749.155,429.21-749.155,407.667L-749.155,407.667z"/>
	</g>
	<g id="HATCH_127_">
		<path fill-rule="evenodd" clip-rule="evenodd" fill="#231F20" d="M-775.947,374.381c0-0.769-0.622-1.406-1.398-1.406
			s-1.407,0.638-1.407,1.406c0,0.776,0.63,1.392,1.407,1.392S-775.947,375.157-775.947,374.381L-775.947,374.381z M-758.447,387.093
			c0-0.769-0.622-1.406-1.391-1.406c-0.776,0-1.399,0.638-1.399,1.406c0,0.776,0.623,1.399,1.399,1.399
			C-759.069,388.492-758.447,387.869-758.447,387.093L-758.447,387.093z M-762.005,382.92c0-0.776-0.63-1.406-1.407-1.406
			c-0.769,0-1.406,0.63-1.406,1.406s0.638,1.391,1.406,1.391C-762.636,384.311-762.005,383.696-762.005,382.92L-762.005,382.92z
			 M-776.047,381.79c0-0.769-0.623-1.398-1.399-1.398s-1.399,0.63-1.399,1.398s0.623,1.414,1.399,1.414
			S-776.047,382.559-776.047,381.79L-776.047,381.79z M-776.262,389.476c0-0.769-0.623-1.391-1.399-1.391
			c-0.776,0-1.398,0.622-1.398,1.391c0,0.776,0.623,1.406,1.398,1.406C-776.885,390.882-776.262,390.252-776.262,389.476
			L-776.262,389.476z M-771.205,384.388c0-0.769-0.623-1.406-1.399-1.406c-0.769,0-1.398,0.638-1.398,1.406
			c0,0.776,0.63,1.398,1.398,1.398C-771.828,385.786-771.205,385.164-771.205,384.388L-771.205,384.388z M-766.97,387.869
			c0-0.776-0.615-1.406-1.383-1.406c-0.776,0-1.407,0.63-1.407,1.406s0.63,1.392,1.407,1.392
			C-767.585,389.261-766.97,388.646-766.97,387.869L-766.97,387.869z M-766.194,379.346c0-0.769-0.615-1.391-1.391-1.391
			c-0.769,0-1.407,0.622-1.407,1.391s0.638,1.414,1.407,1.414C-766.809,380.76-766.194,380.114-766.194,379.346L-766.194,379.346z
			 M-770.875,376.472c0-0.776-0.623-1.398-1.399-1.398s-1.391,0.622-1.391,1.398c0,0.769,0.615,1.398,1.391,1.398
			S-770.875,377.24-770.875,376.472L-770.875,376.472z M-752.183,402.188c0-0.769-0.63-1.391-1.407-1.391
			c-0.769,0-1.391,0.622-1.391,1.391c0,0.776,0.623,1.414,1.391,1.414C-752.813,403.602-752.183,402.964-752.183,402.188
			L-752.183,402.188z M-753.467,396.854c0-0.769-0.63-1.398-1.406-1.398c-0.769,0-1.399,0.63-1.399,1.398s0.63,1.399,1.399,1.399
			C-754.097,398.253-753.467,397.622-753.467,396.854L-753.467,396.854z M-751.761,407.667c0-0.776-0.615-1.391-1.391-1.391
			c-0.776,0-1.406,0.614-1.406,1.391s0.63,1.407,1.406,1.407C-752.375,409.074-751.761,408.443-751.761,407.667L-751.761,407.667z
			 M-752.183,413.14c0-0.769-0.63-1.392-1.407-1.392c-0.769,0-1.391,0.623-1.391,1.392c0,0.776,0.623,1.406,1.391,1.406
			C-752.813,414.546-752.183,413.916-752.183,413.14L-752.183,413.14z M-759.292,402.203c0-0.769-0.638-1.406-1.414-1.406
			c-0.769,0-1.383,0.638-1.383,1.406c0,0.776,0.615,1.398,1.383,1.398C-759.93,403.602-759.292,402.979-759.292,402.203
			L-759.292,402.203z M-760.891,396.946c0-0.769-0.63-1.392-1.406-1.392c-0.769,0-1.399,0.623-1.399,1.392
			c0,0.776,0.63,1.406,1.399,1.406C-761.521,398.353-760.891,397.723-760.891,396.946L-760.891,396.946z M-771.912,392.818
			c0-0.775-0.63-1.406-1.399-1.406c-0.776,0-1.406,0.631-1.406,1.406c0,0.776,0.63,1.392,1.406,1.392
			C-772.542,394.21-771.912,393.595-771.912,392.818L-771.912,392.818z M-773.818,402.311c0-0.769-0.638-1.398-1.406-1.398
			c-0.776,0-1.406,0.63-1.406,1.398c0,0.784,0.63,1.398,1.406,1.398C-774.456,403.709-773.818,403.095-773.818,402.311
			L-773.818,402.311z M-776.869,397.769c0-0.776-0.615-1.406-1.391-1.406c-0.776,0-1.407,0.63-1.407,1.406s0.63,1.406,1.407,1.406
			C-777.484,399.175-776.869,398.545-776.869,397.769L-776.869,397.769z M-766.479,402.233c0-0.769-0.623-1.398-1.399-1.398
			c-0.769,0-1.406,0.63-1.406,1.398c0,0.784,0.638,1.399,1.406,1.399C-767.101,403.633-766.479,403.018-766.479,402.233
			L-766.479,402.233z M-768.569,397.161c0-0.769-0.63-1.384-1.407-1.384c-0.769,0-1.398,0.615-1.398,1.384
			c0,0.776,0.63,1.414,1.398,1.414C-769.199,398.575-768.569,397.938-768.569,397.161L-768.569,397.161z M-758.762,407.667
			c0-0.776-0.623-1.391-1.399-1.391c-0.769,0-1.398,0.614-1.398,1.391s0.63,1.407,1.398,1.407
			C-759.385,409.074-758.762,408.443-758.762,407.667L-758.762,407.667z M-765.756,407.667c0-0.776-0.63-1.391-1.399-1.391
			c-0.776,0-1.406,0.614-1.406,1.391s0.63,1.407,1.406,1.407C-766.386,409.074-765.756,408.443-765.756,407.667L-765.756,407.667z
			 M-759.292,413.132c0-0.776-0.638-1.398-1.414-1.398c-0.769,0-1.383,0.622-1.383,1.398c0,0.769,0.615,1.406,1.383,1.406
			C-759.93,414.538-759.292,413.9-759.292,413.132L-759.292,413.132z M-772.765,407.667c0-0.776-0.623-1.391-1.391-1.391
			c-0.784,0-1.414,0.614-1.414,1.391s0.63,1.407,1.414,1.407C-773.388,409.074-772.765,408.443-772.765,407.667L-772.765,407.667z
			 M-773.818,413.039c0-0.775-0.638-1.414-1.406-1.414c-0.776,0-1.406,0.639-1.406,1.414c0,0.769,0.63,1.392,1.406,1.392
			C-774.456,414.431-773.818,413.808-773.818,413.039L-773.818,413.039z M-766.479,413.116c0-0.776-0.623-1.414-1.399-1.414
			c-0.769,0-1.406,0.638-1.406,1.414c0,0.769,0.638,1.384,1.406,1.384C-767.101,414.5-766.479,413.885-766.479,413.116
			L-766.479,413.116z M-763.474,423.23c0-0.776-0.63-1.398-1.406-1.398c-0.769,0-1.399,0.622-1.399,1.398
			c0,0.769,0.63,1.406,1.399,1.406C-764.104,424.637-763.474,423.999-763.474,423.23L-763.474,423.23z M-758.447,428.257
			c0-0.776-0.622-1.414-1.391-1.414c-0.776,0-1.399,0.638-1.399,1.414c0,0.769,0.623,1.392,1.399,1.392
			C-759.069,429.648-758.447,429.025-758.447,428.257L-758.447,428.257z M-771.912,422.516c0-0.776-0.63-1.391-1.399-1.391
			c-0.776,0-1.406,0.614-1.406,1.391s0.63,1.406,1.406,1.406C-772.542,423.922-771.912,423.292-771.912,422.516L-771.912,422.516z
			 M-776.262,425.859c0-0.769-0.623-1.399-1.399-1.399c-0.776,0-1.398,0.631-1.398,1.399s0.623,1.398,1.398,1.398
			C-776.885,427.258-776.262,426.628-776.262,425.859L-776.262,425.859z M-766.97,427.48c0-0.776-0.615-1.406-1.383-1.406
			c-0.776,0-1.407,0.63-1.407,1.406s0.63,1.392,1.407,1.392C-767.585,428.872-766.97,428.257-766.97,427.48L-766.97,427.48z
			 M-776.047,433.545c0-0.769-0.623-1.414-1.399-1.414s-1.399,0.646-1.399,1.414s0.623,1.406,1.399,1.406
			S-776.047,434.313-776.047,433.545L-776.047,433.545z M-775.947,440.969c0-0.769-0.622-1.406-1.398-1.406
			s-1.407,0.638-1.407,1.406c0,0.776,0.63,1.398,1.407,1.398S-775.947,441.745-775.947,440.969L-775.947,440.969z M-770.875,438.863
			c0-0.769-0.623-1.407-1.399-1.407s-1.391,0.639-1.391,1.407c0,0.776,0.615,1.398,1.391,1.398S-770.875,439.64-770.875,438.863
			L-770.875,438.863z M-766.194,435.988c0-0.776-0.615-1.391-1.391-1.391c-0.769,0-1.407,0.614-1.407,1.391s0.638,1.406,1.407,1.406
			C-766.809,437.395-766.194,436.765-766.194,435.988L-766.194,435.988z M-771.205,430.962c0-0.769-0.623-1.406-1.399-1.406
			c-0.769,0-1.398,0.638-1.398,1.406c0,0.776,0.63,1.392,1.398,1.392C-771.828,432.354-771.205,431.738-771.205,430.962
			L-771.205,430.962z M-762.005,432.43c0-0.775-0.63-1.406-1.407-1.406c-0.769,0-1.406,0.631-1.406,1.406
			c0,0.776,0.638,1.392,1.406,1.392C-762.636,433.821-762.005,433.206-762.005,432.43L-762.005,432.43z M-755.573,423.568
			c0-0.776-0.623-1.406-1.398-1.406c-0.776,0-1.399,0.63-1.399,1.406s0.623,1.392,1.399,1.392
			C-756.195,424.96-755.573,424.345-755.573,423.568L-755.573,423.568z M-776.869,417.566c0-0.776-0.615-1.392-1.391-1.392
			c-0.776,0-1.407,0.615-1.407,1.392s0.63,1.406,1.407,1.406C-777.484,418.973-776.869,418.343-776.869,417.566L-776.869,417.566z
			 M-768.569,418.174c0-0.776-0.63-1.392-1.407-1.392c-0.769,0-1.398,0.615-1.398,1.392c0,0.769,0.63,1.406,1.398,1.406
			C-769.199,419.58-768.569,418.942-768.569,418.174L-768.569,418.174z M-760.891,418.389c0-0.769-0.63-1.398-1.406-1.398
			c-0.769,0-1.399,0.63-1.399,1.398s0.63,1.398,1.399,1.398C-761.521,419.787-760.891,419.157-760.891,418.389L-760.891,418.389z
			 M-753.467,418.496c0-0.776-0.63-1.414-1.406-1.414c-0.769,0-1.399,0.638-1.399,1.414c0,0.769,0.63,1.392,1.399,1.392
			C-754.097,419.888-753.467,419.265-753.467,418.496L-753.467,418.496z M-755.573,391.781c0-0.769-0.623-1.406-1.398-1.406
			c-0.776,0-1.399,0.638-1.399,1.406s0.623,1.398,1.399,1.398C-756.195,393.18-755.573,392.55-755.573,391.781L-755.573,391.781z
			 M-763.474,392.104c0-0.769-0.63-1.392-1.406-1.392c-0.769,0-1.399,0.623-1.399,1.392c0,0.775,0.63,1.414,1.399,1.414
			C-764.104,393.519-763.474,392.88-763.474,392.104L-763.474,392.104z M-781.289,373.098c0-0.776-0.623-1.406-1.399-1.406
			c-0.769,0-1.406,0.63-1.406,1.406s0.638,1.392,1.406,1.392C-781.911,374.489-781.289,373.874-781.289,373.098L-781.289,373.098z
			 M-786.761,372.659c0-0.769-0.623-1.398-1.398-1.398c-0.776,0-1.407,0.63-1.407,1.398c0,0.784,0.63,1.399,1.407,1.399
			C-787.383,374.059-786.761,373.443-786.761,372.659L-786.761,372.659z M-792.24,373.098c0-0.776-0.623-1.406-1.399-1.406
			s-1.399,0.63-1.399,1.406s0.623,1.392,1.399,1.392S-792.24,373.874-792.24,373.098L-792.24,373.098z M-797.582,374.381
			c0-0.769-0.63-1.406-1.398-1.406c-0.776,0-1.407,0.638-1.407,1.406c0,0.776,0.63,1.392,1.407,1.392
			C-798.212,375.772-797.582,375.157-797.582,374.381L-797.582,374.381z M-781.304,380.199c0-0.776-0.623-1.398-1.399-1.398
			s-1.399,0.622-1.399,1.398c0,0.769,0.623,1.406,1.399,1.406S-781.304,380.968-781.304,380.199L-781.304,380.199z
			 M-786.761,379.653c0-0.769-0.623-1.391-1.398-1.391c-0.776,0-1.407,0.622-1.407,1.391c0,0.776,0.63,1.406,1.407,1.406
			C-787.383,381.06-786.761,380.43-786.761,379.653L-786.761,379.653z M-781.327,387.37c0-0.769-0.622-1.384-1.398-1.384
			s-1.399,0.615-1.399,1.384c0,0.783,0.623,1.414,1.399,1.414S-781.327,388.153-781.327,387.37L-781.327,387.37z M-786.761,386.663
			c0-0.769-0.623-1.399-1.398-1.399c-0.776,0-1.407,0.631-1.407,1.399s0.63,1.406,1.407,1.406
			C-787.383,388.069-786.761,387.432-786.761,386.663L-786.761,386.663z M-792.233,380.199c0-0.776-0.623-1.398-1.398-1.398
			c-0.769,0-1.399,0.622-1.399,1.398c0,0.769,0.63,1.406,1.399,1.406C-792.855,381.605-792.233,380.968-792.233,380.199
			L-792.233,380.199z M-797.482,381.79c0-0.769-0.63-1.398-1.399-1.398s-1.406,0.63-1.406,1.398s0.638,1.414,1.406,1.414
			S-797.482,382.559-797.482,381.79L-797.482,381.79z M-792.202,387.37c0-0.769-0.623-1.384-1.398-1.384
			c-0.769,0-1.407,0.615-1.407,1.384c0,0.783,0.638,1.414,1.407,1.414C-792.825,388.784-792.202,388.153-792.202,387.37
			L-792.202,387.37z M-797.267,389.476c0-0.769-0.63-1.391-1.399-1.391c-0.776,0-1.399,0.622-1.399,1.391
			c0,0.776,0.623,1.406,1.399,1.406C-797.897,390.882-797.267,390.252-797.267,389.476L-797.267,389.476z M-807.35,379.346
			c0-0.769-0.623-1.391-1.391-1.391c-0.776,0-1.399,0.622-1.399,1.391s0.623,1.414,1.399,1.414
			C-807.973,380.76-807.35,380.114-807.35,379.346L-807.35,379.346z M-806.574,387.869c0-0.776-0.623-1.406-1.399-1.406
			c-0.769,0-1.391,0.63-1.391,1.406s0.623,1.392,1.391,1.392C-807.196,389.261-806.574,388.646-806.574,387.869L-806.574,387.869z
			 M-811.516,382.92c0-0.776-0.63-1.406-1.407-1.406c-0.769,0-1.398,0.63-1.398,1.406s0.63,1.391,1.398,1.391
			C-812.146,384.311-811.516,383.696-811.516,382.92L-811.516,382.92z M-815.082,387.093c0-0.769-0.63-1.406-1.398-1.406
			c-0.776,0-1.407,0.638-1.407,1.406c0,0.776,0.63,1.399,1.407,1.399C-815.712,388.492-815.082,387.869-815.082,387.093
			L-815.082,387.093z M-802.654,376.472c0-0.776-0.63-1.398-1.399-1.398c-0.776,0-1.406,0.622-1.406,1.398
			c0,0.769,0.63,1.398,1.406,1.398C-803.285,377.87-802.654,377.24-802.654,376.472L-802.654,376.472z M-802.324,384.388
			c0-0.769-0.623-1.406-1.399-1.406s-1.399,0.638-1.399,1.406c0,0.776,0.623,1.398,1.399,1.398S-802.324,385.164-802.324,384.388
			L-802.324,384.388z M-781.404,394.732c0-0.769-0.623-1.406-1.399-1.406c-0.776,0-1.398,0.638-1.398,1.406
			c0,0.776,0.623,1.398,1.398,1.398C-782.026,396.131-781.404,395.509-781.404,394.732L-781.404,394.732z M-786.761,393.672
			c0-0.776-0.623-1.406-1.398-1.406c-0.776,0-1.407,0.63-1.407,1.406c0,0.769,0.63,1.392,1.407,1.392
			C-787.383,395.063-786.761,394.44-786.761,393.672L-786.761,393.672z M-792.125,394.732c0-0.769-0.623-1.406-1.391-1.406
			c-0.776,0-1.407,0.638-1.407,1.406c0,0.776,0.63,1.398,1.407,1.398C-792.748,396.131-792.125,395.509-792.125,394.732
			L-792.125,394.732z M-799.703,402.311c0-0.769-0.63-1.398-1.399-1.398c-0.776,0-1.398,0.63-1.398,1.398
			c0,0.784,0.623,1.398,1.398,1.398C-800.333,403.709-799.703,403.095-799.703,402.311L-799.703,402.311z M-796.66,397.769
			c0-0.776-0.638-1.406-1.414-1.406c-0.769,0-1.391,0.63-1.391,1.406s0.623,1.406,1.391,1.406
			C-797.297,399.175-796.66,398.545-796.66,397.769L-796.66,397.769z M-799.703,413.039c0-0.775-0.63-1.414-1.399-1.414
			c-0.776,0-1.398,0.639-1.398,1.414c0,0.769,0.623,1.392,1.398,1.392C-800.333,414.431-799.703,413.808-799.703,413.039
			L-799.703,413.039z M-807.058,402.233c0-0.769-0.63-1.398-1.399-1.398c-0.776,0-1.398,0.63-1.398,1.398
			c0,0.784,0.623,1.399,1.398,1.399C-807.688,403.633-807.058,403.018-807.058,402.233L-807.058,402.233z M-804.96,397.161
			c0-0.769-0.623-1.384-1.391-1.384c-0.776,0-1.399,0.615-1.399,1.384c0,0.776,0.623,1.414,1.399,1.414
			C-805.583,398.575-804.96,397.938-804.96,397.161L-804.96,397.161z M-821.338,402.188c0-0.769-0.63-1.391-1.406-1.391
			c-0.769,0-1.399,0.622-1.399,1.391c0,0.776,0.63,1.414,1.399,1.414C-821.968,403.602-821.338,402.964-821.338,402.188
			L-821.338,402.188z M-820.062,396.854c0-0.769-0.623-1.398-1.399-1.398c-0.769,0-1.406,0.63-1.406,1.398s0.638,1.399,1.406,1.399
			C-820.685,398.253-820.062,397.622-820.062,396.854L-820.062,396.854z M-814.236,402.203c0-0.769-0.623-1.406-1.391-1.406
			c-0.776,0-1.414,0.638-1.414,1.406c0,0.776,0.638,1.398,1.414,1.398C-814.859,403.602-814.236,402.979-814.236,402.203
			L-814.236,402.203z M-812.638,396.946c0-0.769-0.63-1.392-1.407-1.392c-0.769,0-1.398,0.623-1.398,1.392
			c0,0.776,0.63,1.406,1.398,1.406C-813.268,398.353-812.638,397.723-812.638,396.946L-812.638,396.946z M-807.773,407.667
			c0-0.776-0.623-1.391-1.399-1.391c-0.776,0-1.391,0.614-1.391,1.391s0.615,1.407,1.391,1.407
			C-808.396,409.074-807.773,408.443-807.773,407.667L-807.773,407.667z M-807.058,413.116c0-0.776-0.63-1.414-1.399-1.414
			c-0.776,0-1.398,0.638-1.398,1.414c0,0.769,0.623,1.384,1.398,1.384C-807.688,414.5-807.058,413.885-807.058,413.116
			L-807.058,413.116z M-814.782,407.667c0-0.776-0.623-1.391-1.391-1.391c-0.776,0-1.398,0.614-1.398,1.391s0.623,1.407,1.398,1.407
			C-815.405,409.074-814.782,408.443-814.782,407.667L-814.782,407.667z M-821.776,407.667c0-0.776-0.623-1.391-1.399-1.391
			c-0.769,0-1.399,0.614-1.399,1.391s0.63,1.407,1.399,1.407C-822.398,409.074-821.776,408.443-821.776,407.667L-821.776,407.667z
			 M-821.338,413.14c0-0.769-0.63-1.392-1.406-1.392c-0.769,0-1.399,0.623-1.399,1.392c0,0.776,0.63,1.406,1.399,1.406
			C-821.968,414.546-821.338,413.916-821.338,413.14L-821.338,413.14z M-814.236,413.132c0-0.776-0.623-1.398-1.391-1.398
			c-0.776,0-1.414,0.622-1.414,1.398c0,0.769,0.638,1.406,1.414,1.406C-814.859,414.538-814.236,413.9-814.236,413.132
			L-814.236,413.132z M-801.617,392.818c0-0.775-0.63-1.406-1.407-1.406c-0.769,0-1.398,0.631-1.398,1.406
			c0,0.776,0.63,1.392,1.398,1.392C-802.247,394.21-801.617,393.595-801.617,392.818L-801.617,392.818z M-800.764,407.667
			c0-0.776-0.638-1.391-1.406-1.391c-0.776,0-1.399,0.614-1.399,1.391s0.623,1.407,1.399,1.407
			C-801.401,409.074-800.764,408.443-800.764,407.667L-800.764,407.667z M-781.404,420.617c0-0.776-0.623-1.414-1.399-1.414
			c-0.776,0-1.398,0.638-1.398,1.414c0,0.769,0.623,1.392,1.398,1.392C-782.026,422.009-781.404,421.386-781.404,420.617
			L-781.404,420.617z M-786.761,421.663c0-0.769-0.623-1.392-1.398-1.392c-0.776,0-1.407,0.623-1.407,1.392
			c0,0.775,0.63,1.414,1.407,1.414C-787.383,423.077-786.761,422.438-786.761,421.663L-786.761,421.663z M-781.327,427.965
			c0-0.776-0.622-1.414-1.398-1.414s-1.399,0.638-1.399,1.414c0,0.769,0.623,1.384,1.399,1.384S-781.327,428.733-781.327,427.965
			L-781.327,427.965z M-786.761,428.672c0-0.769-0.623-1.391-1.398-1.391c-0.776,0-1.407,0.622-1.407,1.391s0.63,1.406,1.407,1.406
			C-787.383,430.078-786.761,429.44-786.761,428.672L-786.761,428.672z M-792.125,420.617c0-0.776-0.623-1.414-1.391-1.414
			c-0.776,0-1.407,0.638-1.407,1.414c0,0.769,0.63,1.392,1.407,1.392C-792.748,422.009-792.125,421.386-792.125,420.617
			L-792.125,420.617z M-792.202,427.965c0-0.776-0.623-1.414-1.398-1.414c-0.769,0-1.407,0.638-1.407,1.414
			c0,0.769,0.638,1.384,1.407,1.384C-792.825,429.349-792.202,428.733-792.202,427.965L-792.202,427.965z M-797.267,425.859
			c0-0.769-0.63-1.399-1.399-1.399c-0.776,0-1.399,0.631-1.399,1.399s0.623,1.398,1.399,1.398
			C-797.897,427.258-797.267,426.628-797.267,425.859L-797.267,425.859z M-781.304,435.136c0-0.769-0.623-1.406-1.399-1.406
			s-1.399,0.638-1.399,1.406c0,0.776,0.623,1.406,1.399,1.406S-781.304,435.912-781.304,435.136L-781.304,435.136z
			 M-786.761,435.681c0-0.769-0.623-1.406-1.398-1.406c-0.776,0-1.407,0.638-1.407,1.406s0.63,1.399,1.407,1.399
			C-787.383,437.08-786.761,436.449-786.761,435.681L-786.761,435.681z M-781.289,442.252c0-0.776-0.623-1.406-1.399-1.406
			c-0.769,0-1.406,0.63-1.406,1.406s0.638,1.392,1.406,1.392C-781.911,443.644-781.289,443.028-781.289,442.252L-781.289,442.252z
			 M-786.761,442.675c0-0.776-0.623-1.398-1.398-1.398c-0.776,0-1.407,0.622-1.407,1.398c0,0.769,0.63,1.406,1.407,1.406
			C-787.383,444.081-786.761,443.443-786.761,442.675L-786.761,442.675z M-792.233,435.136c0-0.769-0.623-1.406-1.398-1.406
			c-0.769,0-1.399,0.638-1.399,1.406c0,0.776,0.63,1.406,1.399,1.406C-792.855,436.542-792.233,435.912-792.233,435.136
			L-792.233,435.136z M-797.482,433.545c0-0.769-0.63-1.414-1.399-1.414s-1.406,0.646-1.406,1.414s0.638,1.406,1.406,1.406
			S-797.482,434.313-797.482,433.545L-797.482,433.545z M-792.24,442.252c0-0.776-0.623-1.406-1.399-1.406s-1.399,0.63-1.399,1.406
			s0.623,1.392,1.399,1.392S-792.24,443.028-792.24,442.252L-792.24,442.252z M-797.582,440.969c0-0.769-0.63-1.406-1.398-1.406
			c-0.776,0-1.407,0.638-1.407,1.406c0,0.776,0.63,1.398,1.407,1.398C-798.212,442.367-797.582,441.745-797.582,440.969
			L-797.582,440.969z M-810.056,423.23c0-0.776-0.623-1.398-1.398-1.398c-0.769,0-1.391,0.622-1.391,1.398
			c0,0.769,0.623,1.406,1.391,1.406C-810.678,424.637-810.056,423.999-810.056,423.23L-810.056,423.23z M-806.574,427.48
			c0-0.776-0.623-1.406-1.399-1.406c-0.769,0-1.391,0.63-1.391,1.406s0.623,1.392,1.391,1.392
			C-807.196,428.872-806.574,428.257-806.574,427.48L-806.574,427.48z M-815.082,428.257c0-0.776-0.63-1.414-1.398-1.414
			c-0.776,0-1.407,0.638-1.407,1.414c0,0.769,0.63,1.392,1.407,1.392C-815.712,429.648-815.082,429.025-815.082,428.257
			L-815.082,428.257z M-817.964,423.568c0-0.776-0.623-1.406-1.399-1.406s-1.398,0.63-1.398,1.406s0.622,1.392,1.398,1.392
			S-817.964,424.345-817.964,423.568L-817.964,423.568z M-807.35,435.988c0-0.776-0.623-1.391-1.391-1.391
			c-0.776,0-1.399,0.614-1.399,1.391s0.623,1.406,1.399,1.406C-807.973,437.395-807.35,436.765-807.35,435.988L-807.35,435.988z
			 M-811.516,432.43c0-0.775-0.63-1.406-1.407-1.406c-0.769,0-1.398,0.631-1.398,1.406c0,0.776,0.63,1.392,1.398,1.392
			C-812.146,433.821-811.516,433.206-811.516,432.43L-811.516,432.43z M-801.617,422.516c0-0.776-0.63-1.391-1.407-1.391
			c-0.769,0-1.398,0.614-1.398,1.391s0.63,1.406,1.398,1.406C-802.247,423.922-801.617,423.292-801.617,422.516L-801.617,422.516z
			 M-802.324,430.962c0-0.769-0.623-1.406-1.399-1.406s-1.399,0.638-1.399,1.406c0,0.776,0.623,1.392,1.399,1.392
			S-802.324,431.738-802.324,430.962L-802.324,430.962z M-802.654,438.863c0-0.769-0.63-1.407-1.399-1.407
			c-0.776,0-1.406,0.639-1.406,1.407c0,0.776,0.63,1.398,1.406,1.398C-803.285,440.262-802.654,439.64-802.654,438.863
			L-802.654,438.863z M-796.66,417.566c0-0.776-0.638-1.392-1.414-1.392c-0.769,0-1.391,0.615-1.391,1.392s0.623,1.406,1.391,1.406
			C-797.297,418.973-796.66,418.343-796.66,417.566L-796.66,417.566z M-812.638,418.389c0-0.769-0.63-1.398-1.407-1.398
			c-0.769,0-1.398,0.63-1.398,1.398s0.63,1.398,1.398,1.398C-813.268,419.787-812.638,419.157-812.638,418.389L-812.638,418.389z
			 M-820.062,418.496c0-0.776-0.623-1.414-1.399-1.414c-0.769,0-1.406,0.638-1.406,1.414c0,0.769,0.638,1.392,1.406,1.392
			C-820.685,419.888-820.062,419.265-820.062,418.496L-820.062,418.496z M-804.96,418.174c0-0.776-0.623-1.392-1.391-1.392
			c-0.776,0-1.399,0.615-1.399,1.392c0,0.769,0.623,1.406,1.399,1.406C-805.583,419.58-804.96,418.942-804.96,418.174
			L-804.96,418.174z M-817.964,391.781c0-0.769-0.623-1.406-1.399-1.406s-1.398,0.638-1.398,1.406s0.622,1.398,1.398,1.398
			S-817.964,392.55-817.964,391.781L-817.964,391.781z M-810.056,392.104c0-0.769-0.623-1.392-1.398-1.392
			c-0.769,0-1.391,0.623-1.391,1.392c0,0.775,0.623,1.414,1.391,1.414C-810.678,393.519-810.056,392.88-810.056,392.104
			L-810.056,392.104z"/>
	</g>
	<g id="CIRCLE_160_">
		
			<path fill="#231F20" stroke="#231F20" stroke-width="0.5" stroke-linecap="round" stroke-linejoin="round" stroke-miterlimit="10" d="
			M-786.599,407.667c0-0.86-0.707-1.56-1.56-1.56c-0.861,0-1.561,0.699-1.561,1.56c0,0.869,0.7,1.561,1.561,1.561
			C-787.306,409.228-786.599,408.536-786.599,407.667L-786.599,407.667z"/>
	</g>
	<g>
		<g id="LWPOLYLINE_549_">
			
				<rect x="-819.466" y="475.354" fill="#FFFFFF" stroke="#FFFFFF" stroke-width="0.5" stroke-miterlimit="10" width="76.917" height="76.917"/>
		</g>
		<g id="LWPOLYLINE_1809_">
			<polygon fill="none" stroke="#231F20" stroke-width="0.5" stroke-miterlimit="10" points="-796.541,486.913 -812.073,513.813 
				-796.541,540.712 -765.483,540.712 -749.943,513.813 -765.483,486.913 			"/>
		</g>
		<g id="LWPOLYLINE_1810_">
			
				<rect x="-815.624" y="479.196" fill="none" stroke="#231F20" stroke-width="0.5" stroke-miterlimit="10" width="69.231" height="69.231"/>
		</g>
		<g id="CIRCLE_287_">
			
				<path fill="#231F20" stroke="#231F20" stroke-width="0.5" stroke-linecap="round" stroke-linejoin="round" stroke-miterlimit="10" d="
				M-778.81,513.813c0-1.215-0.983-2.198-2.198-2.198s-2.198,0.983-2.198,2.198c0,1.214,0.984,2.198,2.198,2.198
				S-778.81,515.026-778.81,513.813L-778.81,513.813z"/>
		</g>
	</g>
	<g>
		<g>
			<g id="CIRCLE_285_" opacity="0.5">
				
					<path fill="#FFFFFF" stroke="#FFFFFF" stroke-width="0.7087" stroke-linecap="round" stroke-linejoin="round" stroke-miterlimit="10" d="
					M-693.374,682.241c0-48.442-39.262-87.692-87.692-87.692c-48.438,0-87.692,39.25-87.692,87.692
					c0,48.427,39.254,87.692,87.692,87.692C-732.635,769.934-693.374,730.668-693.374,682.241L-693.374,682.241z"/>
			</g>
			<g id="LWPOLYLINE_1628_">
				
					<line fill="none" stroke="#231F20" stroke-width="0.1" stroke-miterlimit="10" x1="-730.868" y1="622.417" x2="-726.402" y2="617.091"/>
			</g>
			<g id="LWPOLYLINE_1627_">
				
					<line fill="none" stroke="#231F20" stroke-width="0.1" stroke-miterlimit="10" x1="-721.245" y1="632.047" x2="-715.22" y2="626.99"/>
			</g>
			<g id="LWPOLYLINE_1624_">
				
					<line fill="none" stroke="#231F20" stroke-width="0.1" stroke-miterlimit="10" x1="-707.688" y1="655.534" x2="-700.291" y2="652.844"/>
			</g>
			<g id="LWPOLYLINE_1621_">
				
					<line fill="none" stroke="#231F20" stroke-width="0.1" stroke-miterlimit="10" x1="-697.313" y1="697.005" x2="-704.16" y2="695.799"/>
			</g>
			<g id="LWPOLYLINE_1620_">
				
					<line fill="none" stroke="#231F20" stroke-width="0.1" stroke-miterlimit="10" x1="-704.16" y1="668.676" x2="-696.421" y2="667.309"/>
			</g>
			<g id="LWPOLYLINE_1619_">
				
					<line fill="none" stroke="#231F20" stroke-width="0.1" stroke-miterlimit="10" x1="-701.147" y1="711.331" x2="-707.688" y2="708.948"/>
			</g>
			<g id="LWPOLYLINE_1618_">
				
					<line fill="none" stroke="#231F20" stroke-width="0.1" stroke-miterlimit="10" x1="-715.912" y1="736.908" x2="-721.245" y2="732.436"/>
			</g>
			<g id="LWPOLYLINE_1617_">
				
					<line fill="none" stroke="#231F20" stroke-width="0.1" stroke-miterlimit="10" x1="-726.402" y1="747.384" x2="-730.868" y2="742.065"/>
			</g>
			<g id="LWPOLYLINE_1616_">
				
					<line fill="none" stroke="#231F20" stroke-width="0.1" stroke-miterlimit="10" x1="-754.358" y1="608.852" x2="-751.976" y2="602.319"/>
			</g>
			<g id="LWPOLYLINE_1615_">
				
					<line fill="none" stroke="#231F20" stroke-width="0.1" stroke-miterlimit="10" x1="-767.5" y1="605.34" x2="-766.298" y2="598.492"/>
			</g>
			<g id="LWPOLYLINE_1614_">
				
					<line fill="none" stroke="#231F20" stroke-width="0.1" stroke-miterlimit="10" x1="-794.63" y1="605.34" x2="-795.995" y2="597.585"/>
			</g>
			<g id="LWPOLYLINE_1612_">
				
					<line fill="none" stroke="#231F20" stroke-width="0.1" stroke-miterlimit="10" x1="-807.773" y1="608.852" x2="-810.463" y2="601.466"/>
			</g>
			<g id="LWPOLYLINE_1610_">
				
					<line fill="none" stroke="#231F20" stroke-width="0.1" stroke-miterlimit="10" x1="-831.264" y1="622.417" x2="-836.325" y2="616.399"/>
			</g>
			<g id="LWPOLYLINE_1609_">
				
					<line fill="none" stroke="#231F20" stroke-width="0.1" stroke-miterlimit="10" x1="-840.886" y1="632.047" x2="-846.22" y2="627.566"/>
			</g>
			<g id="LWPOLYLINE_1606_">
				
					<line fill="none" stroke="#231F20" stroke-width="0.1" stroke-miterlimit="10" x1="-854.443" y1="655.534" x2="-860.984" y2="653.151"/>
			</g>
			<g id="LWPOLYLINE_1605_">
				
					<line fill="none" stroke="#231F20" stroke-width="0.1" stroke-miterlimit="10" x1="-864.819" y1="697.005" x2="-857.971" y2="695.799"/>
			</g>
			<g id="LWPOLYLINE_1604_">
				
					<line fill="none" stroke="#231F20" stroke-width="0.1" stroke-miterlimit="10" x1="-857.971" y1="668.676" x2="-864.819" y2="667.478"/>
			</g>
			<g id="LWPOLYLINE_1601_">
				
					<line fill="none" stroke="#231F20" stroke-width="0.1" stroke-miterlimit="10" x1="-846.22" y1="736.908" x2="-840.886" y2="732.436"/>
			</g>
			<g id="LWPOLYLINE_1600_">
				
					<line fill="none" stroke="#231F20" stroke-width="0.1" stroke-miterlimit="10" x1="-835.729" y1="747.384" x2="-831.264" y2="742.065"/>
			</g>
			<g id="LWPOLYLINE_1599_">
				
					<line fill="none" stroke="#231F20" stroke-width="0.1" stroke-miterlimit="10" x1="-860.984" y1="711.331" x2="-854.443" y2="708.948"/>
			</g>
			<g id="LWPOLYLINE_1598_">
				
					<line fill="none" stroke="#231F20" stroke-width="0.1" stroke-miterlimit="10" x1="-766.298" y1="765.99" x2="-767.5" y2="759.143"/>
			</g>
			<g id="LWPOLYLINE_1597_">
				
					<line fill="none" stroke="#231F20" stroke-width="0.1" stroke-miterlimit="10" x1="-795.841" y1="765.99" x2="-794.63" y2="759.143"/>
			</g>
			<g id="LWPOLYLINE_1596_">
				
					<line fill="none" stroke="#231F20" stroke-width="0.1" stroke-miterlimit="10" x1="-751.976" y1="762.163" x2="-754.358" y2="755.615"/>
			</g>
			<g id="LWPOLYLINE_1595_">
				
					<line fill="none" stroke="#231F20" stroke-width="0.1" stroke-miterlimit="10" x1="-810.155" y1="762.163" x2="-807.773" y2="755.615"/>
			</g>
			<g id="LWPOLYLINE_1775_">
				
					<line fill="none" stroke="#231F20" stroke-width="0.25" stroke-miterlimit="10" x1="-707.419" y1="639.709" x2="-720.139" y2="647.064"/>
			</g>
			<g id="LWPOLYLINE_1780_">
				
					<line fill="none" stroke="#231F20" stroke-width="0.25" stroke-miterlimit="10" x1="-707.304" y1="724.827" x2="-717.91" y2="718.701"/>
			</g>
			<g id="LWPOLYLINE_1789_">
				
					<line fill="none" stroke="#231F20" stroke-width="0.25" stroke-miterlimit="10" x1="-738.642" y1="608.768" x2="-745.885" y2="621.317"/>
			</g>
			<g id="LWPOLYLINE_1790_">
				
					<line fill="none" stroke="#231F20" stroke-width="0.25" stroke-miterlimit="10" x1="-816.246" y1="621.317" x2="-823.586" y2="608.583"/>
			</g>
			<g id="LWPOLYLINE_1794_">
				
					<line fill="none" stroke="#231F20" stroke-width="0.25" stroke-miterlimit="10" x1="-842.101" y1="647.241" x2="-854.82" y2="639.894"/>
			</g>
			<g id="LWPOLYLINE_1795_">
				
					<line fill="none" stroke="#231F20" stroke-width="0.25" stroke-miterlimit="10" x1="-738.545" y1="755.892" x2="-745.885" y2="743.164"/>
			</g>
			<g id="LWPOLYLINE_1798_">
				
					<line fill="none" stroke="#231F20" stroke-width="0.25" stroke-miterlimit="10" x1="-816.246" y1="743.164" x2="-823.693" y2="756.068"/>
			</g>
			<g id="LWPOLYLINE_1800_">
				
					<line fill="none" stroke="#231F20" stroke-width="0.25" stroke-miterlimit="10" x1="-841.993" y1="717.41" x2="-854.72" y2="724.766"/>
			</g>
			<g id="HATCH_43_">
				<polygon fill-rule="evenodd" clip-rule="evenodd" fill="#231F20" points="-776.404,749.612 -785.581,749.62 -781.065,766.375 
									"/>
			</g>
			<g id="ARC_326_">
				<path fill="#231F20" d="M-785.581,749.636c3.055,0.2,6.118,0.2,9.177-0.016"/>
			</g>
			<g id="LINE_56_">
				<line fill="#231F20" x1="-782.076" y1="749.774" x2="-779.913" y2="749.774"/>
			</g>
			<g id="LINE_54_">
				<line fill="#231F20" x1="-782.076" y1="737.108" x2="-779.913" y2="737.108"/>
			</g>
			<g id="HATCH_41_">
				<polygon fill-rule="evenodd" clip-rule="evenodd" fill="#231F20" points="-713.683,677.584 -713.675,686.745 -696.928,682.241 
									"/>
			</g>
			<g id="ARC_325_">
				<path fill="#231F20" d="M-713.675,686.753c0.204-3.052,0.204-6.118-0.008-9.169"/>
			</g>
			<g id="LINE_48_">
				<line fill="#231F20" x1="-713.529" y1="683.248" x2="-713.529" y2="681.081"/>
			</g>
			<g id="LWPOLYLINE_1229_">
				<line fill="#231F20" x1="-781.065" y1="598.107" x2="-776.55" y2="614.847"/>
			</g>
			<g id="LWPOLYLINE_1228_">
				<line fill="#231F20" x1="-785.734" y1="614.862" x2="-781.065" y2="598.107"/>
			</g>
			<g id="HATCH_39_">
				<polygon fill-rule="evenodd" clip-rule="evenodd" fill="#231F20" points="-785.734,614.862 -776.55,614.862 -781.065,598.107 
									"/>
			</g>
			<g id="ARC_324_">
				<path fill="#231F20" d="M-776.55,614.847c-3.055-0.2-6.129-0.2-9.184,0.016"/>
			</g>
			<g id="LINE_40_">
				<line fill="#231F20" x1="-780.055" y1="614.693" x2="-782.218" y2="614.693"/>
			</g>
			<g id="LWPOLYLINE_1227_">
				<line fill="#231F20" x1="-865.203" y1="682.241" x2="-848.457" y2="677.729"/>
			</g>
			<g id="LWPOLYLINE_1226_">
				<line fill="#231F20" x1="-848.449" y1="686.898" x2="-865.203" y2="682.241"/>
			</g>
			<g id="HATCH_37_">
				<polygon fill-rule="evenodd" clip-rule="evenodd" fill="#231F20" points="-848.449,686.898 -848.457,677.715 -865.203,682.241 
									"/>
			</g>
			<g id="ARC_323_">
				<path fill="#231F20" d="M-848.457,677.729c-0.204,3.052-0.204,6.118,0.008,9.169"/>
			</g>
			<g id="LINE_9_">
				<line fill="#231F20" x1="-848.603" y1="681.234" x2="-848.603" y2="683.394"/>
			</g>
			<g id="LINE_5_">
				<line fill="#231F20" x1="-835.929" y1="681.234" x2="-835.929" y2="683.394"/>
			</g>
			<g id="LWPOLYLINE_1772_">
				
					<path fill="none" stroke="#231F20" stroke-width="0.25" stroke-linecap="round" stroke-linejoin="round" stroke-miterlimit="10" d="
					M-695.91,680.589c-0.911-47.036-39.773-84.418-86.808-83.504c-47.036,0.915-84.415,39.773-83.504,86.809
					c0.911,47.028,39.773,84.418,86.809,83.504c46.382-0.899,83.522-38.767,83.522-85.156
					C-695.891,681.68-695.898,681.135-695.91,680.589z"/>
			</g>
			<g id="TEXT_88_">
				<text transform="matrix(1 0 0 1 -784.4829 627.6406)" fill="#231F20" font-family="'Verdana'" font-size="11.9286">0</text>
			</g>
			<g id="TEXT_89_">
				<text transform="matrix(1 0 0 1 -730.2681 686.4336)" fill="#231F20" font-family="'Verdana'" font-size="11.9286">90</text>
			</g>
			<g id="TEXT_90_">
				<text transform="matrix(1 0 0 1 -789.8071 744.8125)" fill="#231F20" font-family="'Verdana'" font-size="11.9286">180</text>
			</g>
			<g id="TEXT_91_">
				<text transform="matrix(1 0 0 1 -844.4673 686.4336)" fill="#231F20" font-family="'Verdana'" font-size="11.9286">270</text>
			</g>
		</g>
		<path fill="#231F20" stroke="#231F20" stroke-width="0.1" d="M-779.609,682.172c0,0.8-0.653,1.453-1.456,1.453
			c-0.803,0-1.457-0.653-1.457-1.453c0-0.799,0.653-1.46,1.457-1.46C-780.263,680.712-779.609,681.373-779.609,682.172z"/>
	</g>
</g>
<g id="WAYPOINT_SYMBOL">
	<g>
		<g id="LWPOLYLINE_19_">
			<polygon fill="#FFFFFF" stroke="#FFFFFF" stroke-width="0.5" stroke-miterlimit="10" points="-514.535,768.788 -485.083,717.787 
				-455.648,768.788 			"/>
		</g>
		<g id="LWPOLYLINE_12_">
			<polygon fill="#231F20" stroke="#231F20" stroke-width="0.5" stroke-miterlimit="10" points="-508.939,765.561 -485.083,724.25 
				-461.243,765.561 			"/>
		</g>
		<g id="CIRCLE_11_">
			
				<path fill="#FFFFFF" stroke="#FFFFFF" stroke-width="0.5" stroke-linecap="round" stroke-linejoin="round" stroke-miterlimit="10" d="
				M-483.254,751.788c0-1.015-0.83-1.829-1.829-1.829c-1.015,0-1.845,0.814-1.845,1.829c0,1.014,0.83,1.837,1.845,1.837
				C-484.084,753.625-483.254,752.802-483.254,751.788L-483.254,751.788z"/>
		</g>
	</g>
	<g>
		<g id="LWPOLYLINE_11_">
			<polygon fill="#FFFFFF" stroke="#FFFFFF" stroke-width="0.5" stroke-miterlimit="10" points="-424.122,767.574 -394.671,716.557 
				-365.235,767.574 			"/>
		</g>
		<g id="LWPOLYLINE_10_">
			<polygon fill="#FFFFFF" stroke="#231F20" stroke-width="0.5" stroke-miterlimit="10" points="-418.527,764.338 -394.671,723.028 
				-370.831,764.338 			"/>
		</g>
		<g id="CIRCLE_7_">
			
				<path fill="#231F20" stroke="#231F20" stroke-width="0.5" stroke-linecap="round" stroke-linejoin="round" stroke-miterlimit="10" d="
				M-392.842,750.573c0-1.022-0.83-1.845-1.829-1.845c-1.015,0-1.845,0.822-1.845,1.845c0,1.007,0.83,1.829,1.845,1.829
				C-393.672,752.402-392.842,751.58-392.842,750.573L-392.842,750.573z"/>
		</g>
	</g>
</g>
<g id="Wpt_Symbol">
	<g>
		<g id="LWPOLYLINE_73_">
			<polygon fill="#FFFFFF" points="-500.374,576.173 -540.131,590.46 -500.374,604.748 -486.086,644.505 -471.795,604.748 
				-432.038,590.46 -471.795,576.173 -486.086,536.408 			"/>
		</g>
		<g id="HATCH_57_">
			<path fill-rule="evenodd" clip-rule="evenodd" fill="#FFFFFF" d="M-476.191,580.562l-9.888-27.561l-9.907,27.561l-27.541,9.898
				l27.541,9.907l9.907,27.537l9.888-27.537l27.56-9.907L-476.191,580.562z M-474.939,590.46h-22.284H-474.939z"/>
		</g>
		<g id="LWPOLYLINE_58_">
			<polygon fill="none" stroke="#231F20" stroke-width="0.5" stroke-linecap="round" stroke-miterlimit="10" points="
				-495.986,580.562 -523.535,590.46 -495.986,600.359 -486.086,627.904 -476.184,600.359 -448.639,590.46 -476.184,580.562 
				-486.086,553.009 			"/>
		</g>
		<g id="CIRCLE_26_">
			
				<path fill="none" stroke="#231F20" stroke-width="0.5" stroke-linecap="round" stroke-linejoin="round" stroke-miterlimit="10" d="
				M-474.939,590.46c0-6.155-4.992-11.144-11.147-11.144c-6.152,0-11.144,4.988-11.144,11.144c0,6.156,4.992,11.145,11.144,11.145
				C-479.931,601.604-474.939,596.616-474.939,590.46L-474.939,590.46z"/>
		</g>
	</g>
	<g>
		<g id="LWPOLYLINE_52_">
			<polygon fill="#FFFFFF" points="-319.014,576.089 -358.764,590.368 -319.014,604.655 -304.727,644.405 -290.439,604.655 
				-250.69,590.368 -290.439,576.089 -304.727,536.331 			"/>
		</g>
		<g id="HATCH_22_">
			<path fill-rule="evenodd" clip-rule="evenodd" fill="#FFFFFF" d="M-294.835,580.484l-9.892-27.553l-9.899,27.553l-27.537,9.876
				l27.537,9.907l9.899,27.545l9.892-27.545l27.552-9.907L-294.835,580.484z M-293.583,590.36h-22.28H-293.583z"/>
		</g>
		<path fill="#FFFFFF" d="M-356.639,590.368c0-28.659,23.241-51.9,51.908-51.9c28.667,0,51.904,23.241,51.904,51.9
			c0,28.675-23.237,51.908-51.904,51.908C-333.398,642.276-356.639,619.043-356.639,590.368z"/>
		<g id="LWPOLYLINE_51_">
			<polygon fill="#231F20" stroke="#231F20" stroke-width="0.5" stroke-linecap="round" stroke-miterlimit="10" points="
				-314.626,580.469 -342.171,590.368 -314.626,600.268 -304.727,627.813 -294.828,600.268 -267.291,590.368 -294.828,580.469 
				-304.727,552.932 			"/>
		</g>
		<path fill="none" stroke="#231F20" stroke-width="0.5" stroke-linecap="round" stroke-miterlimit="10" d="M-345.91,590.368
			c0-22.741,18.438-41.172,41.179-41.172c22.742,0,41.179,18.431,41.179,41.172c0,22.749-18.438,41.179-41.179,41.179
			C-327.472,631.547-345.91,613.117-345.91,590.368z"/>
		<g id="CIRCLE_9_">
			
				<path fill="#FFFFFF" stroke="#FFFFFF" stroke-width="0.5" stroke-linecap="round" stroke-linejoin="round" stroke-miterlimit="10" d="
				M-293.583,590.368c0-6.148-4.988-11.145-11.144-11.145s-11.144,4.996-11.144,11.145c0,6.156,4.988,11.144,11.144,11.144
				S-293.583,596.524-293.583,590.368L-293.583,590.368z"/>
		</g>
	</g>
</g>
<g id="BASEMAP">
	<g id="LWPOLYLINE_291_">
		<polyline fill="none" stroke="#2E3191" stroke-width="8" stroke-miterlimit="10" points="-337.848,54.409 -391.634,-77.978 
			-444.731,54.409 		"/>
	</g>
	<g id="LINE_83_">
		
			<line fill="none" stroke="#2E3191" stroke-width="8" stroke-miterlimit="10" x1="-417.089" y1="-77.978" x2="-467.483" y2="-77.978"/>
	</g>
	<g id="LINE_82_">
		
			<line fill="none" stroke="#2E3191" stroke-width="8" stroke-miterlimit="10" x1="-414.017" y1="-89.551" x2="-455.049" y2="-119.438"/>
	</g>
	<g id="LINE_81_">
		
			<line fill="none" stroke="#2E3191" stroke-width="8" stroke-miterlimit="10" x1="-391.634" y1="-101.385" x2="-391.634" y2="-153.74"/>
	</g>
	<g id="LINE_80_">
		
			<line fill="none" stroke="#2E3191" stroke-width="8" stroke-miterlimit="10" x1="-370.9" y1="-89.551" x2="-325.831" y2="-119.438"/>
	</g>
	<g id="LINE_79_">
		
			<line fill="none" stroke="#2E3191" stroke-width="8" stroke-miterlimit="10" x1="-366.437" y1="-77.978" x2="-315.871" y2="-77.978"/>
	</g>
	<circle fill="none" stroke="#2E3191" stroke-width="8" stroke-miterlimit="10" cx="-391.849" cy="36.969" r="6.527"/>
	<g id="LWPOLYLINE_2_">
		<polyline fill="none" stroke="#2E3191" stroke-width="8" stroke-miterlimit="10" points="-344.934,250.567 -398.72,118.181 
			-451.817,250.567 		"/>
	</g>
	<circle fill="none" stroke="#2E3191" stroke-width="8" stroke-miterlimit="10" cx="-398.935" cy="233.128" r="6.527"/>
	<g id="LWPOLYLINE_3_">
		<polyline fill="none" stroke="#2E3191" stroke-width="8" stroke-miterlimit="10" points="89.286,-118.894 35.501,-251.28 
			-17.597,-118.894 		"/>
	</g>
	<g id="LINE_12_">
		
			<line fill="none" stroke="#2E3191" stroke-width="8" stroke-miterlimit="10" x1="10.046" y1="-251.28" x2="-40.349" y2="-251.28"/>
	</g>
	<g id="LINE_11_">
		
			<line fill="none" stroke="#2E3191" stroke-width="8" stroke-miterlimit="10" x1="13.117" y1="-262.853" x2="-27.915" y2="-292.741"/>
	</g>
	<g id="LINE_10_">
		
			<line fill="none" stroke="#2E3191" stroke-width="8" stroke-miterlimit="10" x1="35.501" y1="-274.687" x2="35.501" y2="-327.042"/>
	</g>
	<circle fill="none" stroke="#2E3191" stroke-width="8" stroke-miterlimit="10" cx="35.286" cy="-136.333" r="6.527"/>
	<g id="LWPOLYLINE_4_">
		<polyline fill="none" stroke="#2E3191" stroke-width="8" stroke-miterlimit="10" points="165.093,-118.894 111.308,-251.28 
			58.21,-118.894 		"/>
	</g>
	<g id="LINE_15_">
		
			<line fill="none" stroke="#2E3191" stroke-width="8" stroke-miterlimit="10" x1="111.308" y1="-274.687" x2="111.308" y2="-327.042"/>
	</g>
	<g id="LINE_14_">
		
			<line fill="none" stroke="#2E3191" stroke-width="8" stroke-miterlimit="10" x1="132.04" y1="-262.853" x2="177.11" y2="-292.741"/>
	</g>
	<g id="LINE_13_">
		
			<line fill="none" stroke="#2E3191" stroke-width="8" stroke-miterlimit="10" x1="136.505" y1="-251.28" x2="187.069" y2="-251.28"/>
	</g>
	<circle fill="none" stroke="#2E3191" stroke-width="8" stroke-miterlimit="10" cx="111.093" cy="-136.333" r="6.527"/>
	<g id="LWPOLYLINE_14_">
		<polyline fill="none" stroke="#2E3191" stroke-width="8" stroke-miterlimit="10" points="330.06,264.45 276.274,132.063 
			223.177,264.45 		"/>
	</g>
	<circle fill="none" stroke="#2E3191" stroke-width="8" stroke-miterlimit="10" cx="276.06" cy="247.011" r="6.527"/>
	<g id="LWPOLYLINE_5_">
		<polyline fill="none" stroke="#2E3191" stroke-width="8" stroke-miterlimit="10" points="405.866,264.45 352.081,132.063 
			298.983,264.45 		"/>
	</g>
	<circle fill="none" stroke="#2E3191" stroke-width="8" stroke-miterlimit="10" cx="351.866" cy="247.011" r="6.527"/>
</g>
</svg>
