<?xml version="1.0" encoding="utf-8"?>
<!-- Generator: Adobe Illustrator 15.0.0, SVG Export Plug-In . SVG Version: 6.00 Build 0)  -->
<!DOCTYPE svg PUBLIC "-//W3C//DTD SVG 1.1//EN" "http://www.w3.org/Graphics/SVG/1.1/DTD/svg11.dtd">
<svg version="1.1" xmlns="http://www.w3.org/2000/svg" xmlns:xlink="http://www.w3.org/1999/xlink" x="0px" y="0px"
	 width="233.724px" height="224.976px" viewBox="0 0 233.724 224.976" enable-background="new 0 0 233.724 224.976"
	 xml:space="preserve">
<g id="Layer_1">
	<polygon fill="none" stroke="#231F20" stroke-width="10" stroke-miterlimit="10" points="-1165.451,847.871 -1240.567,977.975 
		-1165.451,1108.079 -1015.22,1108.079 -940.104,977.975 -1015.22,847.871 	"/>
	<path fill="#231F20" d="M-1100.964,977.975c0-5.871,4.759-10.629,10.629-10.629s10.629,4.758,10.629,10.629
		s-4.759,10.629-10.629,10.629S-1100.964,983.846-1100.964,977.975"/>
	<circle fill="none" stroke="#231F20" stroke-width="5" stroke-miterlimit="10" cx="-1090.335" cy="977.975" r="10.629"/>
	<path fill="none" stroke="#2E3192" stroke-width="10" stroke-linecap="round" stroke-linejoin="round" stroke-miterlimit="10" d="
		M169.761,449.653c-10.023,0-18.158,8.136-18.158,18.159c0,10.024,8.135,18.158,18.158,18.158c10.037,0,18.158-8.134,18.158-18.158
		C187.919,457.789,179.798,449.653,169.761,449.653"/>
	
		<line fill="none" stroke="#2E3192" stroke-width="10" stroke-linecap="round" stroke-linejoin="round" stroke-miterlimit="10" x1="217.928" y1="498.604" x2="121.594" y2="498.604"/>
	
		<line fill="none" stroke="#2E3192" stroke-width="10" stroke-linecap="round" stroke-linejoin="round" stroke-miterlimit="10" x1="168.977" y1="498.604" x2="168.977" y2="635.999"/>
	<path fill="none" stroke="#2E3192" stroke-width="10" stroke-linecap="round" stroke-linejoin="round" stroke-miterlimit="10" d="
		M93.179,595.979c18.082,23.453,45.727,37.552,75.31,38.387"/>
	<path fill="none" stroke="#2E3192" stroke-width="10" stroke-linecap="round" stroke-linejoin="round" stroke-miterlimit="10" d="
		M169.453,634.379c29.596-0.86,57.239-14.958,75.31-38.386"/>
	
		<polyline fill="none" stroke="#2E3192" stroke-width="10" stroke-linecap="round" stroke-linejoin="round" stroke-miterlimit="10" points="
		85.276,577.563 82.114,602.828 105.8,593.357 85.276,577.563 	"/>
	
		<polyline fill="none" stroke="#2E3192" stroke-width="10" stroke-linecap="round" stroke-linejoin="round" stroke-miterlimit="10" points="
		254.246,577.563 257.408,602.828 233.724,593.357 254.246,577.563 	"/>
	
		<polyline fill="none" stroke="#063B60" stroke-width="10" stroke-linecap="round" stroke-linejoin="round" stroke-miterlimit="10" points="
		838.867,-286.904 871.915,-367.18 902.143,-286.904 	"/>
	<polygon fill="#545454" points="874.751,-369.078 871.915,-370.961 870.032,-369.078 	"/>
	<polygon fill="none" stroke="#545454" stroke-width="10" stroke-linecap="round" stroke-miterlimit="10" points="871.915,-370.961 
		870.032,-369.078 874.751,-369.078 	"/>
	<polygon fill="#545454" points="872.86,-364.344 871.907,-367.188 870.978,-364.344 	"/>
	<polygon fill="none" stroke="#545454" stroke-width="10" stroke-linecap="round" stroke-miterlimit="10" points="871.915,-367.18 
		870.978,-364.352 872.86,-364.352 	"/>
	<path fill="#545454" d="M870.032-369.07l5.664,1.883l-0.945-1.883H870.032z M875.696-367.188l-5.664-1.883l-1.883,1.883H875.696z"
		/>
	<path fill="none" stroke="#545454" stroke-width="10" stroke-linecap="round" stroke-miterlimit="10" d="M875.696-367.18
		l-5.664-1.891h4.719L875.696-367.18z M868.142-367.18h7.555l-5.664-1.891L868.142-367.18z"/>
	<path fill="#545454" d="M870.978-363.398v-0.945h-1.891L870.978-363.398z M869.087-364.344h1.891l-2.836-2.844L869.087-364.344z
		 M868.142-367.188l2.836,2.844l0.938-2.844H868.142z"/>
	<path fill="none" stroke="#545454" stroke-width="10" stroke-linecap="round" stroke-miterlimit="10" d="M870.978-364.344
		l-2.836-2.836h3.773L870.978-364.344z M869.087-364.344h1.891l-2.836-2.836L869.087-364.344z M870.978-363.406l-1.891-0.938h1.891
		V-363.406z"/>
	<path fill="#545454" d="M872.868-364.344h2.828l-3.781-2.844L872.868-364.344z M871.915-367.188l3.781,2.844v-2.844H871.915z"/>
	<path fill="none" stroke="#545454" stroke-width="10" stroke-linecap="round" stroke-miterlimit="10" d="M875.696-364.352
		l-3.781-2.828h3.781V-364.352z M872.86-364.352h2.836l-3.781-2.828L872.86-364.352z"/>
	<path fill="#545454" d="M872.86-364.344h-1.883H872.86z M872.86-364.344h-1.883H872.86z"/>
	<path fill="none" stroke="#545454" stroke-width="10" stroke-linecap="round" stroke-miterlimit="10" d="M872.86-364.352
		L872.86-364.352h-1.883H872.86z M870.978-364.352h1.883H870.978z"/>
	<path fill="#545454" d="M870.978-364.344h-1.891H870.978z M870.978-364.344h-1.891H870.978z"/>
	<path fill="none" stroke="#545454" stroke-width="10" stroke-linecap="round" stroke-miterlimit="10" d="M870.978-364.352
		L870.978-364.352h-1.891H870.978z M869.087-364.352h1.891H869.087z"/>
	<path fill="#545454" d="M873.806-363.406l1.891-0.945h-2.836L873.806-363.406z M873.806-363.406l-0.945-0.945L873.806-363.406z"/>
	<path fill="none" stroke="#545454" stroke-width="10" stroke-linecap="round" stroke-miterlimit="10" d="M873.806-363.406
		L873.806-363.406z M872.86-364.352l0.945,0.945L872.86-364.352z M875.696-364.352h-2.836l0.945,0.945L875.696-364.352z"/>
	<path fill="#545454" d="M871.915-362.461l1.891-0.938h-2.828L871.915-362.461z M870.978-363.398h2.828l-2.828-0.945V-363.398z
		 M870.978-364.344l2.828,0.945l-0.945-0.945H870.978z"/>
	<path fill="none" stroke="#545454" stroke-width="10" stroke-linecap="round" stroke-miterlimit="10" d="M873.806-363.398
		l-2.828-0.945h1.883L873.806-363.398z M870.978-363.398h2.828l-2.828-0.945V-363.398z M871.915-362.461l-0.938-0.938h2.828
		L871.915-362.461z"/>
	<path fill="#545454" d="M873.806-363.406h-2.828H873.806z M873.806-363.406h-2.828H873.806z"/>
	<path fill="none" stroke="#545454" stroke-width="10" stroke-linecap="round" stroke-miterlimit="10" d="M873.806-363.406
		L873.806-363.406h-2.828H873.806z M870.978-363.406h2.828H870.978z"/>
	<polygon fill="#545454" points="874.751,-301.076 871.915,-302.014 869.087,-301.076 	"/>
	<polygon fill="none" stroke="#545454" stroke-width="10" stroke-linecap="round" stroke-miterlimit="10" points="871.915,-302.021 
		869.087,-301.076 874.751,-301.076 	"/>
	<path fill="#545454" d="M869.087-301.068l6.609,2.82l-0.945-2.82H869.087z M875.696-298.248l-6.609-2.82l-0.938,2.82H875.696z"/>
	<path fill="none" stroke="#545454" stroke-width="10" stroke-linecap="round" stroke-miterlimit="10" d="M875.696-298.248
		l-6.609-2.82h5.664L875.696-298.248z M868.142-298.248h7.555l-6.609-2.82L868.142-298.248z"/>
	<path fill="#545454" d="M871.915-294.459l2.836-0.945h-5.664L871.915-294.459z M869.087-295.404h5.664l-6.609-2.844
		L869.087-295.404z"/>
	<path fill="none" stroke="#545454" stroke-width="10" stroke-linecap="round" stroke-miterlimit="10" d="M869.087-295.412h5.664
		l-2.836,0.945L869.087-295.412z M868.142-298.248l0.945,2.836h5.664L868.142-298.248z"/>
	<polygon fill="#545454" points="874.751,-295.404 875.696,-298.248 868.142,-298.248 	"/>
	<polygon fill="none" stroke="#545454" stroke-width="10" stroke-linecap="round" stroke-miterlimit="10" points="868.142,-298.248 
		875.696,-298.248 874.751,-295.412 	"/>
	<g>
		<path fill="none" stroke="#063B60" stroke-width="10" stroke-linecap="round" stroke-linejoin="round" stroke-miterlimit="10" d="
			M871.446-302.959c-2.344,0-4.25,1.891-4.25,4.242s1.906,4.25,4.25,4.25s4.25-1.898,4.25-4.25S873.79-302.959,871.446-302.959"/>
	</g>
	
		<polyline fill="none" stroke="#063B60" stroke-width="10" stroke-linecap="round" stroke-linejoin="round" stroke-miterlimit="10" points="
		833.195,26.628 867.196,-53.641 897.416,26.628 	"/>
	
		<polyline fill="none" stroke="#063B60" stroke-width="10" stroke-linecap="round" stroke-linejoin="round" stroke-miterlimit="10" points="
		810.53,373.223 844.531,292.955 873.806,373.223 	"/>
	
		<polyline fill="none" stroke="#063B60" stroke-width="10" stroke-linecap="round" stroke-linejoin="round" stroke-miterlimit="10" points="
		853.032,373.223 887.032,292.955 916.307,373.223 	"/>
	<polygon fill="#545454" points="864.36,13.408 861.532,14.354 867.196,14.354 	"/>
	<polygon fill="none" stroke="#545454" stroke-width="10" stroke-linecap="round" stroke-miterlimit="10" points="864.36,13.408 
		861.532,14.354 867.196,14.354 	"/>
	<path fill="#545454" d="M868.142,17.189l-6.609-2.828h5.664L868.142,17.189z M860.587,17.189h7.555l-6.609-2.828L860.587,17.189z"
		/>
	<path fill="none" stroke="#545454" stroke-width="10" stroke-linecap="round" stroke-miterlimit="10" d="M868.142,17.189
		l-6.609-2.828h5.664L868.142,17.189z M860.587,17.189h7.555l-6.609-2.828L860.587,17.189z"/>
	<path fill="#545454" d="M861.532,20.018h5.664l-2.844,0.945L861.532,20.018z M860.587,17.189l0.945,2.828h5.664L860.587,17.189z"/>
	<path fill="none" stroke="#545454" stroke-width="10" stroke-linecap="round" stroke-miterlimit="10" d="M861.532,20.018h5.664
		l-2.844,0.945L861.532,20.018z M860.587,17.189l0.945,2.828h5.664L860.587,17.189z"/>
	<polygon fill="#545454" points="860.587,17.189 868.142,17.189 867.196,20.018 	"/>
	<polygon fill="none" stroke="#545454" stroke-width="10" stroke-linecap="round" stroke-miterlimit="10" points="860.587,17.189 
		868.142,17.189 867.196,20.018 	"/>
	<path fill="none" stroke="#063B60" stroke-width="10" stroke-linecap="round" stroke-linejoin="round" stroke-miterlimit="10" d="
		M863.892,12.471c-2.344,0-4.25,1.891-4.25,4.242c0,2.353,1.906,4.25,4.25,4.25s4.25-1.897,4.25-4.25
		C868.142,14.361,866.235,12.471,863.892,12.471"/>
	<polygon fill="#545454" points="887.032,359.059 885.142,360.004 887.971,360.004 	"/>
	<polygon fill="none" stroke="#545454" stroke-width="10" stroke-linecap="round" stroke-miterlimit="10" points="887.032,359.059 
		885.142,360.004 887.971,360.004 	"/>
	<polygon fill="#545454" points="843.586,360.012 842.641,360.012 845.477,360.012 	"/>
	<polygon fill="none" stroke="#545454" stroke-width="10" stroke-linecap="round" stroke-miterlimit="10" points="843.586,360.012 
		842.641,360.012 845.477,360.012 	"/>
	<path fill="#545454" d="M888.916,360.012h-3.774h2.821H888.916z M884.196,360.012h4.72h-3.774H884.196z"/>
	<path fill="none" stroke="#545454" stroke-width="10" stroke-linecap="round" stroke-miterlimit="10" d="M888.916,360.012h-3.774
		h2.821H888.916z M884.196,360.012h4.72h-3.774H884.196z"/>
	<path fill="#545454" d="M846.422,360.957l-3.781-0.945h2.836L846.422,360.957z M840.75,360.957h5.672l-3.781-0.945L840.75,360.957z
		"/>
	<path fill="none" stroke="#545454" stroke-width="10" stroke-linecap="round" stroke-miterlimit="10" d="M846.422,360.957
		l-3.781-0.945h2.836L846.422,360.957z M840.75,360.957h5.672l-3.781-0.945L840.75,360.957z"/>
	<path fill="#545454" d="M890.807,362.832l-6.61-2.82h4.72L890.807,362.832z M883.251,362.832h7.556l-6.61-2.82L883.251,362.832z"/>
	<path fill="none" stroke="#545454" stroke-width="10" stroke-linecap="round" stroke-miterlimit="10" d="M890.807,362.832
		l-6.61-2.82h4.72L890.807,362.832z M883.251,362.832h7.556l-6.61-2.82L883.251,362.832z"/>
	<path fill="#545454" d="M847.367,363.785l-6.617-2.828h5.672L847.367,363.785z M839.813,363.785h7.555l-6.617-2.828
		L839.813,363.785z"/>
	<path fill="none" stroke="#545454" stroke-width="10" stroke-linecap="round" stroke-miterlimit="10" d="M847.367,363.785
		l-6.617-2.828h5.672L847.367,363.785z M839.813,363.785h7.555l-6.617-2.828L839.813,363.785z"/>
	<path fill="#545454" d="M888.916,365.668l-5.665-2.828h7.556L888.916,365.668z M884.196,365.668h4.72l-5.665-2.828L884.196,365.668
		z"/>
	<path fill="none" stroke="#545454" stroke-width="10" stroke-linecap="round" stroke-miterlimit="10" d="M888.916,365.668
		l-5.665-2.828h7.556L888.916,365.668z M884.196,365.668h4.72l-5.665-2.828L884.196,365.668z"/>
	<path fill="#545454" d="M885.142,365.668h2.821l-0.931,0.945L885.142,365.668z M884.196,365.668h0.945h2.821H884.196z"/>
	<path fill="none" stroke="#545454" stroke-width="10" stroke-linecap="round" stroke-miterlimit="10" d="M885.142,365.668h2.821
		l-0.931,0.945L885.142,365.668z M884.196,365.668h0.945h2.821H884.196z"/>
	<polygon fill="#545454" points="884.196,365.668 888.916,365.668 887.963,365.668 	"/>
	<polygon fill="none" stroke="#545454" stroke-width="10" stroke-linecap="round" stroke-miterlimit="10" points="884.196,365.668 
		888.916,365.668 887.963,365.668 	"/>
	<path fill="#545454" d="M846.422,365.668l-6.609-1.883h7.555L846.422,365.668z M840.75,365.668h5.672l-6.609-1.883L840.75,365.668z
		"/>
	<path fill="none" stroke="#545454" stroke-width="10" stroke-linecap="round" stroke-miterlimit="10" d="M846.422,365.668
		l-6.609-1.883h7.555L846.422,365.668z M840.75,365.668h5.672l-6.609-1.883L840.75,365.668z"/>
	<path fill="#545454" d="M842.641,366.613h2.836l-1.891,0.945L842.641,366.613z M840.75,365.668l1.891,0.945h2.836L840.75,365.668z"
		/>
	<path fill="none" stroke="#545454" stroke-width="10" stroke-linecap="round" stroke-miterlimit="10" d="M842.641,366.613h2.836
		l-1.891,0.945L842.641,366.613z M840.75,365.668l1.891,0.945h2.836L840.75,365.668z"/>
	<polygon fill="#545454" points="840.75,365.668 846.422,365.668 845.477,366.613 	"/>
	<polygon fill="none" stroke="#545454" stroke-width="10" stroke-linecap="round" stroke-miterlimit="10" points="840.75,365.668 
		846.422,365.668 845.477,366.613 	"/>
	<path fill="none" stroke="#063B60" stroke-width="10" stroke-linecap="round" stroke-linejoin="round" stroke-miterlimit="10" d="
		M843.117,359.059c-2.352,0-4.25,1.898-4.25,4.25s1.898,4.25,4.25,4.25c2.345,0,4.25-1.898,4.25-4.25
		S845.462,359.059,843.117,359.059"/>
	<path fill="none" stroke="#063B60" stroke-width="10" stroke-linecap="round" stroke-linejoin="round" stroke-miterlimit="10" d="
		M886.557,358.113c-2.345,0-4.251,1.898-4.251,4.25s1.906,4.25,4.251,4.25c2.352,0,4.25-1.898,4.25-4.25
		S888.908,358.113,886.557,358.113"/>
	
		<polyline fill="none" stroke="#063B60" stroke-width="10" stroke-linecap="round" stroke-linejoin="round" stroke-miterlimit="10" points="
		812.422,679.207 846.422,598.939 875.696,679.207 	"/>
	
		<polyline fill="none" stroke="#063B60" stroke-width="10" stroke-linecap="round" stroke-linejoin="round" stroke-miterlimit="10" points="
		854.923,679.207 888.916,598.939 918.197,679.207 	"/>
	<polygon fill="#545454" points="887.971,665.043 887.032,665.043 889.861,665.043 	"/>
	<polygon fill="none" stroke="#545454" stroke-width="10" stroke-linecap="round" stroke-miterlimit="10" points="887.971,665.043 
		887.032,665.043 889.861,665.043 	"/>
	<polygon fill="#545454" points="845.477,665.043 844.531,665.988 846.422,665.988 	"/>
	<polygon fill="none" stroke="#545454" stroke-width="10" stroke-linecap="round" stroke-miterlimit="10" points="845.477,665.043 
		844.531,665.988 846.422,665.988 	"/>
	<path fill="#545454" d="M890.807,665.988l-3.774-0.938h2.829L890.807,665.988z M885.142,665.988h5.665l-3.774-0.938
		L885.142,665.988z"/>
	<path fill="none" stroke="#545454" stroke-width="10" stroke-linecap="round" stroke-miterlimit="10" d="M890.807,665.988
		l-3.774-0.938h2.829L890.807,665.988z M885.142,665.988h5.665l-3.774-0.938L885.142,665.988z"/>
	<path fill="#545454" d="M848.306,666.941l-3.774-0.945h1.891L848.306,666.941z M842.641,666.941h5.665l-3.774-0.945
		L842.641,666.941z"/>
	<path fill="none" stroke="#545454" stroke-width="10" stroke-linecap="round" stroke-miterlimit="10" d="M848.306,666.941
		l-3.774-0.945h1.891L848.306,666.941z M842.641,666.941h5.665l-3.774-0.945L842.641,666.941z"/>
	<path fill="#545454" d="M891.752,668.816l-6.61-2.82h5.665L891.752,668.816z M884.196,668.816h7.556l-6.61-2.82L884.196,668.816z"
		/>
	<path fill="none" stroke="#545454" stroke-width="10" stroke-linecap="round" stroke-miterlimit="10" d="M891.752,668.816
		l-6.61-2.82h5.665L891.752,668.816z M884.196,668.816h7.556l-6.61-2.82L884.196,668.816z"/>
	<path fill="#545454" d="M849.251,668.816l-6.61-1.875h5.665L849.251,668.816z M841.695,668.816h7.556l-6.61-1.875L841.695,668.816z
		"/>
	<path fill="none" stroke="#545454" stroke-width="10" stroke-linecap="round" stroke-miterlimit="10" d="M849.251,668.816
		l-6.61-1.875h5.665L849.251,668.816z M841.695,668.816h7.556l-6.61-1.875L841.695,668.816z"/>
	<path fill="#545454" d="M890.807,671.66l-6.61-2.836h7.556L890.807,671.66z M885.142,671.66h5.665l-6.61-2.836L885.142,671.66z"/>
	<path fill="none" stroke="#545454" stroke-width="10" stroke-linecap="round" stroke-miterlimit="10" d="M890.807,671.66
		l-6.61-2.836h7.556L890.807,671.66z M885.142,671.66h5.665l-6.61-2.836L885.142,671.66z"/>
	<path fill="#545454" d="M887.032,671.66h2.829l-1.891,0.938L887.032,671.66z M885.142,671.66h1.891h2.829H885.142z"/>
	<path fill="none" stroke="#545454" stroke-width="10" stroke-linecap="round" stroke-miterlimit="10" d="M887.032,671.66h2.829
		l-1.891,0.938L887.032,671.66z M885.142,671.66h1.891h2.829H885.142z"/>
	<polygon fill="#545454" points="885.142,671.66 890.807,671.66 889.861,671.66 	"/>
	<polygon fill="none" stroke="#545454" stroke-width="10" stroke-linecap="round" stroke-miterlimit="10" points="885.142,671.66 
		890.807,671.66 889.861,671.66 	"/>
	<path fill="#545454" d="M848.306,671.66l-6.61-2.836h7.556L848.306,671.66z M842.641,671.66h5.665l-6.61-2.836L842.641,671.66z"/>
	<path fill="none" stroke="#545454" stroke-width="10" stroke-linecap="round" stroke-miterlimit="10" d="M848.306,671.66
		l-6.61-2.836h7.556L848.306,671.66z M842.641,671.66h5.665l-6.61-2.836L842.641,671.66z"/>
	<path fill="#545454" d="M843.586,672.598h3.781h-1.891H843.586z M842.641,671.66l0.945,0.938h3.781L842.641,671.66z"/>
	<path fill="none" stroke="#545454" stroke-width="10" stroke-linecap="round" stroke-miterlimit="10" d="M843.586,672.598h3.781
		h-1.891H843.586z M842.641,671.66l0.945,0.938h3.781L842.641,671.66z"/>
	<polygon fill="#545454" points="842.641,671.66 848.306,671.66 847.367,672.598 	"/>
	<polygon fill="none" stroke="#545454" stroke-width="10" stroke-linecap="round" stroke-miterlimit="10" points="842.641,671.66 
		848.306,671.66 847.367,672.598 	"/>
	<path fill="none" stroke="#063B60" stroke-width="10" stroke-linecap="round" stroke-linejoin="round" stroke-miterlimit="10" d="
		M845,664.098c-2.344,0-4.25,1.906-4.25,4.25c0,2.352,1.906,4.25,4.25,4.25c2.353,0,4.251-1.898,4.251-4.25
		C849.251,666.004,847.353,664.098,845,664.098"/>
	<path fill="none" stroke="#063B60" stroke-width="10" stroke-linecap="round" stroke-linejoin="round" stroke-miterlimit="10" d="
		M887.502,664.098c-2.345,0-4.251,1.906-4.251,4.25c0,2.352,1.906,4.25,4.251,4.25c2.344,0,4.25-1.898,4.25-4.25
		C891.752,666.004,889.846,664.098,887.502,664.098"/>
	
		<line fill="none" stroke="#063B60" stroke-width="10" stroke-linecap="round" stroke-linejoin="round" stroke-miterlimit="10" x1="904.025" y1="-53.641" x2="882.306" y2="-53.641"/>
	
		<line fill="none" stroke="#063B60" stroke-width="10" stroke-linecap="round" stroke-linejoin="round" stroke-miterlimit="10" x1="853.032" y1="-53.641" x2="831.313" y2="-53.641"/>
	
		<line fill="none" stroke="#063B60" stroke-width="10" stroke-linecap="round" stroke-linejoin="round" stroke-miterlimit="10" x1="867.196" y1="-68.75" x2="867.196" y2="-90.477"/>
	
		<line fill="none" stroke="#063B60" stroke-width="10" stroke-linecap="round" stroke-linejoin="round" stroke-miterlimit="10" x1="877.587" y1="-64.031" x2="892.697" y2="-79.148"/>
	
		<line fill="none" stroke="#063B60" stroke-width="10" stroke-linecap="round" stroke-linejoin="round" stroke-miterlimit="10" x1="856.806" y1="-64.031" x2="841.695" y2="-79.148"/>
	
		<line fill="none" stroke="#063B60" stroke-width="10" stroke-linecap="round" stroke-linejoin="round" stroke-miterlimit="10" x1="831.313" y1="598.932" x2="809.585" y2="598.932"/>
	
		<line fill="none" stroke="#063B60" stroke-width="10" stroke-linecap="round" stroke-linejoin="round" stroke-miterlimit="10" x1="903.088" y1="598.932" x2="924.808" y2="598.932"/>
	
		<line fill="none" stroke="#063B60" stroke-width="10" stroke-linecap="round" stroke-linejoin="round" stroke-miterlimit="10" x1="899.307" y1="587.611" x2="914.416" y2="572.494"/>
	
		<line fill="none" stroke="#063B60" stroke-width="10" stroke-linecap="round" stroke-linejoin="round" stroke-miterlimit="10" x1="888.916" y1="583.83" x2="888.916" y2="562.104"/>
	
		<line fill="none" stroke="#063B60" stroke-width="10" stroke-linecap="round" stroke-linejoin="round" stroke-miterlimit="10" x1="819.977" y1="572.502" x2="835.086" y2="587.611"/>
	
		<line fill="none" stroke="#063B60" stroke-width="10" stroke-linecap="round" stroke-linejoin="round" stroke-miterlimit="10" x1="846.422" y1="583.83" x2="846.422" y2="562.104"/>
	<g>
		<path fill="none" stroke="#063B60" stroke-width="10" stroke-linecap="round" stroke-linejoin="round" stroke-miterlimit="10" d="
			M871.446-371.898c-2.344,0-4.25,1.891-4.25,4.25c0,2.344,1.906,4.25,4.25,4.25s4.25-1.906,4.25-4.25
			C875.696-370.008,873.79-371.898,871.446-371.898"/>
	</g>
	<path fill="none" stroke="#2E3191" stroke-width="8" stroke-miterlimit="10" d="M590.693,23.541
		c0.825,37.462,19.513,72.24,50.285,93.584"/>
	<path fill="none" stroke="#2E3191" stroke-width="8" stroke-miterlimit="10" d="M590.693,23.541
		c0.825,37.462,19.513,72.24,50.285,93.584"/>
	<path fill="none" stroke="#2E3191" stroke-width="8" stroke-miterlimit="10" d="M590.693,23.541
		c0.825,37.462,19.513,72.24,50.285,93.584"/>
	<path fill="none" stroke="#2E3191" stroke-width="8" stroke-miterlimit="10" d="M532.386,112.622
		c32.666-18.345,54.581-51.181,58.963-88.387"/>
	<line fill="none" stroke="#2E3191" stroke-width="8" stroke-miterlimit="10" x1="590.656" y1="24.707" x2="590.656" y2="-75.197"/>
	<path fill="none" stroke="#2E3191" stroke-width="8" stroke-miterlimit="10" d="M579.611,323.715
		c0.824,37.449,19.513,72.225,50.285,93.583"/>
	<path fill="none" stroke="#2E3191" stroke-width="8" stroke-miterlimit="10" d="M579.611,323.715
		c0.824,37.449,19.513,72.225,50.285,93.583"/>
	<path fill="none" stroke="#2E3191" stroke-width="8" stroke-miterlimit="10" d="M579.611,323.715
		c0.824,37.449,19.513,72.225,50.285,93.583"/>
	<path fill="none" stroke="#2E3191" stroke-width="8" stroke-miterlimit="10" d="M521.303,412.783
		c32.667-18.336,54.583-51.185,58.964-88.378"/>
	
		<line fill="none" stroke="#2E3191" stroke-width="8" stroke-miterlimit="10" x1="581.079" y1="324.868" x2="581.079" y2="224.976"/>
	<line fill="none" stroke="#2E3191" stroke-width="8" stroke-miterlimit="10" x1="581.079" y1="208.57" x2="581.079" y2="168.309"/>
	
		<line fill="none" stroke="#2E3191" stroke-width="8" stroke-miterlimit="10" x1="540.815" y1="265.226" x2="569.151" y2="236.904"/>
	<line fill="none" stroke="#2E3191" stroke-width="8" stroke-miterlimit="10" x1="593.007" y1="213.035" x2="621.33" y2="184.714"/>
	<line fill="none" stroke="#2E3191" stroke-width="8" stroke-miterlimit="10" x1="621.33" y1="265.226" x2="593.007" y2="236.904"/>
	
		<line fill="none" stroke="#2E3191" stroke-width="8" stroke-miterlimit="10" x1="570.631" y1="213.035" x2="540.815" y2="184.714"/>
</g>
<g id="ANC_LEGEND">
	<text transform="matrix(1 0 0 1 -695.0454 34.166)" font-family="'CenturyGothic'" font-size="8.3513">IFR-Civil</text>
	<g id="MTEXT_5_">
		<text transform="matrix(1 0 0 1 -695.0454 53.3848)" font-family="'CenturyGothic'" font-size="8.3513">IFR-Join Civil Military</text>
	</g>
	<g id="MTEXT_4_">
		<text transform="matrix(1 0 0 1 -695.0454 72.6055)" font-family="'CenturyGothic'" font-size="8.3513">IFR-Military</text>
	</g>
	<g id="INSERT_8_">
		<g id="CIRCLE_5_">
			
				<path fill="none" stroke="#992B20" stroke-width="10" stroke-linecap="round" stroke-linejoin="round" stroke-miterlimit="10" d="
				M-1880.16-806.32c0-76.291-61.83-138.121-138.125-138.121c-76.291,0-138.121,61.831-138.121,138.121
				c0,76.294,61.83,138.125,138.121,138.125C-1941.99-668.196-1880.16-730.026-1880.16-806.32L-1880.16-806.32z"/>
		</g>
		<g id="LWPOLYLINE_9_">
			
				<line fill="none" stroke="#992B20" stroke-width="10" stroke-linecap="round" stroke-linejoin="round" stroke-miterlimit="10" x1="-2018.285" y1="-633.234" x2="-2018.285" y2="-668.196"/>
		</g>
		<g id="LWPOLYLINE_8_">
			
				<line fill="none" stroke="#992B20" stroke-width="10" stroke-linecap="round" stroke-linejoin="round" stroke-miterlimit="10" x1="-2018.285" y1="-944.441" x2="-2018.285" y2="-984.379"/>
		</g>
		<g id="LWPOLYLINE_7_">
			
				<line fill="none" stroke="#992B20" stroke-width="10" stroke-linecap="round" stroke-linejoin="round" stroke-miterlimit="10" x1="-2193.792" y1="-806.32" x2="-2156.406" y2="-806.32"/>
		</g>
		<g id="LWPOLYLINE_6_">
			
				<line fill="none" stroke="#992B20" stroke-width="10" stroke-linecap="round" stroke-linejoin="round" stroke-miterlimit="10" x1="-1880.16" y1="-806.32" x2="-1842.712" y2="-806.32"/>
		</g>
	</g>
	<g id="INSERT_6_">
		<g id="CIRCLE_2_">
			
				<path fill="none" stroke="#992B20" stroke-width="10" stroke-linecap="round" stroke-linejoin="round" stroke-miterlimit="10" d="
				M-1880.16,677.471c0-76.287-61.83-138.117-138.125-138.117c-76.291,0-138.121,61.83-138.121,138.117
				c0,76.294,61.83,138.124,138.121,138.124C-1941.99,815.595-1880.16,753.765-1880.16,677.471L-1880.16,677.471z"/>
		</g>
		<g id="CIRCLE_1_">
			
				<path fill="none" stroke="#992B20" stroke-width="10" stroke-linecap="round" stroke-linejoin="round" stroke-miterlimit="10" d="
				M-1950.683,677.471c0-37.345-30.25-67.603-67.602-67.603c-37.348,0-67.603,30.258-67.603,67.603
				c0,37.352,30.254,67.602,67.603,67.602C-1980.933,745.072-1950.683,714.822-1950.683,677.471L-1950.683,677.471z"/>
		</g>
	</g>
	<text transform="matrix(1 0 0 1 -589.8574 34.166)" font-family="'CenturyGothic'" font-size="8.3513">VFR-Civil</text>
	<g id="MTEXT_3_">
		<text transform="matrix(1 0 0 1 -589.8574 53.3848)" font-family="'CenturyGothic'" font-size="8.3513">VFR-Join Civil Military</text>
	</g>
	<g id="MTEXT_2_">
		<text transform="matrix(1 0 0 1 -589.8574 72.6055)" font-family="'CenturyGothic'" font-size="8.3513">VFR-Military</text>
	</g>
	<g id="INSERT_1_">
		<g id="CIRCLE_8_">
			
				<path fill="none" stroke="#2E3192" stroke-width="10" stroke-linecap="round" stroke-linejoin="round" stroke-miterlimit="10" d="
				M576.691-1012.057c0-76.291-61.83-138.121-138.125-138.121s-138.125,61.831-138.125,138.121
				c0,76.294,61.83,138.189,138.125,138.189S576.691-935.763,576.691-1012.057L576.691-1012.057z"/>
		</g>
		<g id="LWPOLYLINE_18_">
			<line fill="none" stroke="#2E3192" stroke-width="10" x1="438.566" y1="-838.971" x2="438.566" y2="-873.867"/>
		</g>
		<g id="LWPOLYLINE_17_">
			<line fill="none" stroke="#2E3192" stroke-width="10" x1="438.566" y1="-1150.178" x2="438.566" y2="-1190.05"/>
		</g>
		<g id="LWPOLYLINE_13_">
			<line fill="none" stroke="#2E3192" stroke-width="10" x1="263.094" y1="-1012.057" x2="300.441" y2="-1012.057"/>
		</g>
		<g id="LWPOLYLINE_1_">
			<line fill="none" stroke="#2E3192" stroke-width="10" x1="576.691" y1="-1012.057" x2="614.139" y2="-1012.057"/>
		</g>
	</g>
	<g id="CIRCLE_10_">
		<path fill="none" stroke="#2E3192" stroke-width="10" stroke-linecap="round" stroke-linejoin="round" stroke-miterlimit="10" d="
			M1454.16-495.113c0-76.291-61.83-138.121-138.125-138.121c-76.294,0-138.124,61.831-138.124,138.121
			c0,76.293,61.83,138.123,138.124,138.123C1392.33-356.99,1454.16-418.82,1454.16-495.113L1454.16-495.113z"/>
	</g>
	<g id="INSERT_2_">
		<g id="CIRCLE_4_">
			
				<path fill="none" stroke="#2E3192" stroke-width="10" stroke-linecap="round" stroke-linejoin="round" stroke-miterlimit="10" d="
				M724.807-507.281c0-76.291-61.83-138.122-138.125-138.122s-138.125,61.831-138.125,138.122
				c0,76.293,61.83,138.123,138.125,138.123S724.807-430.988,724.807-507.281L724.807-507.281z"/>
		</g>
	</g>
	<text transform="matrix(1 0 0 1 512.3604 -431.6367)" fill="#2E3192" font-family="'MyriadPro-Regular'" font-size="225.9887">H</text>
</g>
<g id="PLAN_VIEW">
	<g id="CIRCLE_270_">
		
			<path fill="#FFFFFF" stroke="#FFFFFF" stroke-width="0.5" stroke-linecap="round" stroke-linejoin="round" stroke-miterlimit="10" d="
			M-691.682,377.719c0-21.542-17.461-39.004-39.004-39.004c-21.55,0-39.02,17.462-39.02,39.004c0,21.543,17.469,39.012,39.02,39.012
			C-709.143,416.73-691.682,399.262-691.682,377.719L-691.682,377.719z"/>
	</g>
	<g id="HATCH_127_">
		<path fill-rule="evenodd" clip-rule="evenodd" fill="#231F20" d="M-718.474,344.433c0-0.769-0.622-1.406-1.398-1.406
			s-1.407,0.638-1.407,1.406c0,0.776,0.63,1.392,1.407,1.392S-718.474,345.209-718.474,344.433L-718.474,344.433z M-700.974,357.145
			c0-0.769-0.622-1.406-1.391-1.406c-0.776,0-1.399,0.638-1.399,1.406c0,0.776,0.623,1.399,1.399,1.399
			C-701.596,358.544-700.974,357.921-700.974,357.145L-700.974,357.145z M-704.532,352.972c0-0.776-0.63-1.406-1.407-1.406
			c-0.769,0-1.406,0.63-1.406,1.406s0.638,1.391,1.406,1.391C-705.162,354.362-704.532,353.748-704.532,352.972L-704.532,352.972z
			 M-718.573,351.842c0-0.769-0.623-1.398-1.399-1.398s-1.399,0.63-1.399,1.398s0.623,1.414,1.399,1.414
			S-718.573,352.61-718.573,351.842L-718.573,351.842z M-718.789,359.527c0-0.769-0.623-1.391-1.399-1.391
			c-0.776,0-1.398,0.622-1.398,1.391c0,0.776,0.623,1.406,1.398,1.406C-719.411,360.934-718.789,360.304-718.789,359.527
			L-718.789,359.527z M-713.731,354.439c0-0.769-0.623-1.406-1.399-1.406c-0.769,0-1.398,0.638-1.398,1.406
			c0,0.776,0.63,1.398,1.398,1.398C-714.354,355.838-713.731,355.216-713.731,354.439L-713.731,354.439z M-709.497,357.921
			c0-0.776-0.615-1.406-1.383-1.406c-0.776,0-1.407,0.63-1.407,1.406s0.63,1.392,1.407,1.392
			C-710.111,359.313-709.497,358.697-709.497,357.921L-709.497,357.921z M-708.72,349.397c0-0.769-0.615-1.391-1.391-1.391
			c-0.769,0-1.407,0.622-1.407,1.391s0.638,1.414,1.407,1.414C-709.335,350.812-708.72,350.166-708.72,349.397L-708.72,349.397z
			 M-713.401,346.523c0-0.776-0.623-1.398-1.399-1.398s-1.391,0.622-1.391,1.398c0,0.769,0.615,1.398,1.391,1.398
			S-713.401,347.292-713.401,346.523L-713.401,346.523z M-694.709,372.239c0-0.769-0.63-1.391-1.407-1.391
			c-0.769,0-1.391,0.622-1.391,1.391c0,0.776,0.623,1.414,1.391,1.414C-695.34,373.653-694.709,373.016-694.709,372.239
			L-694.709,372.239z M-695.993,366.905c0-0.769-0.63-1.398-1.406-1.398c-0.769,0-1.399,0.63-1.399,1.398s0.63,1.399,1.399,1.399
			C-696.624,368.305-695.993,367.674-695.993,366.905L-695.993,366.905z M-694.287,377.719c0-0.776-0.615-1.391-1.391-1.391
			c-0.776,0-1.406,0.614-1.406,1.391s0.63,1.407,1.406,1.407C-694.902,379.126-694.287,378.495-694.287,377.719L-694.287,377.719z
			 M-694.709,383.191c0-0.769-0.63-1.392-1.407-1.392c-0.769,0-1.391,0.623-1.391,1.392c0,0.776,0.623,1.406,1.391,1.406
			C-695.34,384.598-694.709,383.968-694.709,383.191L-694.709,383.191z M-701.819,372.255c0-0.769-0.638-1.406-1.414-1.406
			c-0.769,0-1.383,0.638-1.383,1.406c0,0.776,0.615,1.398,1.383,1.398C-702.457,373.653-701.819,373.031-701.819,372.255
			L-701.819,372.255z M-703.417,366.998c0-0.769-0.63-1.392-1.406-1.392c-0.769,0-1.399,0.623-1.399,1.392
			c0,0.776,0.63,1.406,1.399,1.406C-704.048,368.404-703.417,367.774-703.417,366.998L-703.417,366.998z M-714.438,362.87
			c0-0.775-0.63-1.406-1.399-1.406c-0.776,0-1.406,0.631-1.406,1.406c0,0.776,0.63,1.392,1.406,1.392
			C-715.069,364.262-714.438,363.646-714.438,362.87L-714.438,362.87z M-716.345,372.362c0-0.769-0.638-1.398-1.406-1.398
			c-0.776,0-1.406,0.63-1.406,1.398c0,0.784,0.63,1.398,1.406,1.398C-716.982,373.761-716.345,373.146-716.345,372.362
			L-716.345,372.362z M-719.396,367.82c0-0.776-0.615-1.406-1.391-1.406c-0.776,0-1.407,0.63-1.407,1.406s0.63,1.406,1.407,1.406
			C-720.011,369.227-719.396,368.597-719.396,367.82L-719.396,367.82z M-709.005,372.285c0-0.769-0.623-1.398-1.399-1.398
			c-0.769,0-1.406,0.63-1.406,1.398c0,0.784,0.638,1.399,1.406,1.399C-709.627,373.685-709.005,373.069-709.005,372.285
			L-709.005,372.285z M-711.095,367.213c0-0.769-0.63-1.384-1.407-1.384c-0.769,0-1.398,0.615-1.398,1.384
			c0,0.776,0.63,1.414,1.398,1.414C-711.726,368.627-711.095,367.989-711.095,367.213L-711.095,367.213z M-701.289,377.719
			c0-0.776-0.623-1.391-1.399-1.391c-0.769,0-1.398,0.614-1.398,1.391s0.63,1.407,1.398,1.407
			C-701.911,379.126-701.289,378.495-701.289,377.719L-701.289,377.719z M-708.282,377.719c0-0.776-0.63-1.391-1.399-1.391
			c-0.776,0-1.406,0.614-1.406,1.391s0.63,1.407,1.406,1.407C-708.913,379.126-708.282,378.495-708.282,377.719L-708.282,377.719z
			 M-701.819,383.184c0-0.776-0.638-1.398-1.414-1.398c-0.769,0-1.383,0.622-1.383,1.398c0,0.769,0.615,1.406,1.383,1.406
			C-702.457,384.59-701.819,383.952-701.819,383.184L-701.819,383.184z M-715.292,377.719c0-0.776-0.623-1.391-1.391-1.391
			c-0.784,0-1.414,0.614-1.414,1.391s0.63,1.407,1.414,1.407C-715.914,379.126-715.292,378.495-715.292,377.719L-715.292,377.719z
			 M-716.345,383.091c0-0.775-0.638-1.414-1.406-1.414c-0.776,0-1.406,0.639-1.406,1.414c0,0.769,0.63,1.392,1.406,1.392
			C-716.982,384.482-716.345,383.859-716.345,383.091L-716.345,383.091z M-709.005,383.168c0-0.776-0.623-1.414-1.399-1.414
			c-0.769,0-1.406,0.638-1.406,1.414c0,0.769,0.638,1.384,1.406,1.384C-709.627,384.552-709.005,383.937-709.005,383.168
			L-709.005,383.168z M-706,393.282c0-0.776-0.63-1.398-1.406-1.398c-0.769,0-1.399,0.622-1.399,1.398
			c0,0.769,0.63,1.406,1.399,1.406C-706.63,394.688-706,394.051-706,393.282L-706,393.282z M-700.974,398.309
			c0-0.776-0.622-1.414-1.391-1.414c-0.776,0-1.399,0.638-1.399,1.414c0,0.769,0.623,1.392,1.399,1.392
			C-701.596,399.7-700.974,399.077-700.974,398.309L-700.974,398.309z M-714.438,392.567c0-0.776-0.63-1.391-1.399-1.391
			c-0.776,0-1.406,0.614-1.406,1.391s0.63,1.406,1.406,1.406C-715.069,393.974-714.438,393.344-714.438,392.567L-714.438,392.567z
			 M-718.789,395.911c0-0.769-0.623-1.399-1.399-1.399c-0.776,0-1.398,0.631-1.398,1.399s0.623,1.398,1.398,1.398
			C-719.411,397.31-718.789,396.68-718.789,395.911L-718.789,395.911z M-709.497,397.532c0-0.776-0.615-1.406-1.383-1.406
			c-0.776,0-1.407,0.63-1.407,1.406s0.63,1.392,1.407,1.392C-710.111,398.924-709.497,398.309-709.497,397.532L-709.497,397.532z
			 M-718.573,403.597c0-0.769-0.623-1.414-1.399-1.414s-1.399,0.646-1.399,1.414s0.623,1.406,1.399,1.406
			S-718.573,404.365-718.573,403.597L-718.573,403.597z M-718.474,411.021c0-0.769-0.622-1.406-1.398-1.406
			s-1.407,0.638-1.407,1.406c0,0.776,0.63,1.398,1.407,1.398S-718.474,411.797-718.474,411.021L-718.474,411.021z M-713.401,408.915
			c0-0.769-0.623-1.407-1.399-1.407s-1.391,0.639-1.391,1.407c0,0.776,0.615,1.398,1.391,1.398S-713.401,409.691-713.401,408.915
			L-713.401,408.915z M-708.72,406.04c0-0.776-0.615-1.391-1.391-1.391c-0.769,0-1.407,0.614-1.407,1.391s0.638,1.406,1.407,1.406
			C-709.335,407.446-708.72,406.816-708.72,406.04L-708.72,406.04z M-713.731,401.014c0-0.769-0.623-1.406-1.399-1.406
			c-0.769,0-1.398,0.638-1.398,1.406c0,0.776,0.63,1.392,1.398,1.392C-714.354,402.405-713.731,401.79-713.731,401.014
			L-713.731,401.014z M-704.532,402.481c0-0.775-0.63-1.406-1.407-1.406c-0.769,0-1.406,0.631-1.406,1.406
			c0,0.776,0.638,1.392,1.406,1.392C-705.162,403.873-704.532,403.258-704.532,402.481L-704.532,402.481z M-698.099,393.62
			c0-0.776-0.623-1.406-1.398-1.406c-0.776,0-1.399,0.63-1.399,1.406s0.623,1.392,1.399,1.392
			C-698.722,395.012-698.099,394.396-698.099,393.62L-698.099,393.62z M-719.396,387.618c0-0.776-0.615-1.392-1.391-1.392
			c-0.776,0-1.407,0.615-1.407,1.392s0.63,1.406,1.407,1.406C-720.011,389.024-719.396,388.395-719.396,387.618L-719.396,387.618z
			 M-711.095,388.226c0-0.776-0.63-1.392-1.407-1.392c-0.769,0-1.398,0.615-1.398,1.392c0,0.769,0.63,1.406,1.398,1.406
			C-711.726,389.632-711.095,388.994-711.095,388.226L-711.095,388.226z M-703.417,388.44c0-0.769-0.63-1.398-1.406-1.398
			c-0.769,0-1.399,0.63-1.399,1.398s0.63,1.398,1.399,1.398C-704.048,389.839-703.417,389.209-703.417,388.44L-703.417,388.44z
			 M-695.993,388.548c0-0.776-0.63-1.414-1.406-1.414c-0.769,0-1.399,0.638-1.399,1.414c0,0.769,0.63,1.392,1.399,1.392
			C-696.624,389.939-695.993,389.316-695.993,388.548L-695.993,388.548z M-698.099,361.833c0-0.769-0.623-1.406-1.398-1.406
			c-0.776,0-1.399,0.638-1.399,1.406s0.623,1.398,1.399,1.398C-698.722,363.231-698.099,362.602-698.099,361.833L-698.099,361.833z
			 M-706,362.156c0-0.769-0.63-1.392-1.406-1.392c-0.769,0-1.399,0.623-1.399,1.392c0,0.775,0.63,1.414,1.399,1.414
			C-706.63,363.57-706,362.932-706,362.156L-706,362.156z M-723.815,343.149c0-0.776-0.623-1.406-1.399-1.406
			c-0.769,0-1.406,0.63-1.406,1.406s0.638,1.392,1.406,1.392C-724.438,344.541-723.815,343.926-723.815,343.149L-723.815,343.149z
			 M-729.287,342.711c0-0.769-0.623-1.398-1.398-1.398c-0.776,0-1.407,0.63-1.407,1.398c0,0.784,0.63,1.399,1.407,1.399
			C-729.91,344.11-729.287,343.495-729.287,342.711L-729.287,342.711z M-734.767,343.149c0-0.776-0.623-1.406-1.399-1.406
			s-1.399,0.63-1.399,1.406s0.623,1.392,1.399,1.392S-734.767,343.926-734.767,343.149L-734.767,343.149z M-740.108,344.433
			c0-0.769-0.63-1.406-1.398-1.406c-0.776,0-1.407,0.638-1.407,1.406c0,0.776,0.63,1.392,1.407,1.392
			C-740.738,345.824-740.108,345.209-740.108,344.433L-740.108,344.433z M-723.83,350.251c0-0.776-0.623-1.398-1.399-1.398
			s-1.399,0.622-1.399,1.398c0,0.769,0.623,1.406,1.399,1.406S-723.83,351.02-723.83,350.251L-723.83,350.251z M-729.287,349.705
			c0-0.769-0.623-1.391-1.398-1.391c-0.776,0-1.407,0.622-1.407,1.391c0,0.776,0.63,1.406,1.407,1.406
			C-729.91,351.111-729.287,350.481-729.287,349.705L-729.287,349.705z M-723.854,357.422c0-0.769-0.622-1.384-1.398-1.384
			s-1.399,0.615-1.399,1.384c0,0.783,0.623,1.414,1.399,1.414S-723.854,358.205-723.854,357.422L-723.854,357.422z
			 M-729.287,356.715c0-0.769-0.623-1.399-1.398-1.399c-0.776,0-1.407,0.631-1.407,1.399s0.63,1.406,1.407,1.406
			C-729.91,358.121-729.287,357.483-729.287,356.715L-729.287,356.715z M-734.759,350.251c0-0.776-0.623-1.398-1.398-1.398
			c-0.769,0-1.399,0.622-1.399,1.398c0,0.769,0.63,1.406,1.399,1.406C-735.382,351.657-734.759,351.02-734.759,350.251
			L-734.759,350.251z M-740.008,351.842c0-0.769-0.63-1.398-1.399-1.398s-1.406,0.63-1.406,1.398s0.638,1.414,1.406,1.414
			S-740.008,352.61-740.008,351.842L-740.008,351.842z M-734.729,357.422c0-0.769-0.623-1.384-1.398-1.384
			c-0.769,0-1.407,0.615-1.407,1.384c0,0.783,0.638,1.414,1.407,1.414C-735.351,358.836-734.729,358.205-734.729,357.422
			L-734.729,357.422z M-739.793,359.527c0-0.769-0.63-1.391-1.399-1.391c-0.776,0-1.399,0.622-1.399,1.391
			c0,0.776,0.623,1.406,1.399,1.406C-740.423,360.934-739.793,360.304-739.793,359.527L-739.793,359.527z M-749.876,349.397
			c0-0.769-0.623-1.391-1.391-1.391c-0.776,0-1.399,0.622-1.399,1.391s0.623,1.414,1.399,1.414
			C-750.499,350.812-749.876,350.166-749.876,349.397L-749.876,349.397z M-749.1,357.921c0-0.776-0.623-1.406-1.399-1.406
			c-0.769,0-1.391,0.63-1.391,1.406s0.623,1.392,1.391,1.392C-749.723,359.313-749.1,358.697-749.1,357.921L-749.1,357.921z
			 M-754.042,352.972c0-0.776-0.63-1.406-1.407-1.406c-0.769,0-1.398,0.63-1.398,1.406s0.63,1.391,1.398,1.391
			C-754.672,354.362-754.042,353.748-754.042,352.972L-754.042,352.972z M-757.608,357.145c0-0.769-0.63-1.406-1.398-1.406
			c-0.776,0-1.407,0.638-1.407,1.406c0,0.776,0.63,1.399,1.407,1.399C-758.238,358.544-757.608,357.921-757.608,357.145
			L-757.608,357.145z M-745.181,346.523c0-0.776-0.63-1.398-1.399-1.398c-0.776,0-1.406,0.622-1.406,1.398
			c0,0.769,0.63,1.398,1.406,1.398C-745.811,347.922-745.181,347.292-745.181,346.523L-745.181,346.523z M-744.85,354.439
			c0-0.769-0.623-1.406-1.399-1.406s-1.399,0.638-1.399,1.406c0,0.776,0.623,1.398,1.399,1.398S-744.85,355.216-744.85,354.439
			L-744.85,354.439z M-723.93,364.784c0-0.769-0.623-1.406-1.399-1.406c-0.776,0-1.398,0.638-1.398,1.406
			c0,0.776,0.623,1.398,1.398,1.398C-724.553,366.183-723.93,365.561-723.93,364.784L-723.93,364.784z M-729.287,363.724
			c0-0.776-0.623-1.406-1.398-1.406c-0.776,0-1.407,0.63-1.407,1.406c0,0.769,0.63,1.392,1.407,1.392
			C-729.91,365.115-729.287,364.492-729.287,363.724L-729.287,363.724z M-734.651,364.784c0-0.769-0.623-1.406-1.391-1.406
			c-0.776,0-1.407,0.638-1.407,1.406c0,0.776,0.63,1.398,1.407,1.398C-735.274,366.183-734.651,365.561-734.651,364.784
			L-734.651,364.784z M-742.229,372.362c0-0.769-0.63-1.398-1.399-1.398c-0.776,0-1.398,0.63-1.398,1.398
			c0,0.784,0.623,1.398,1.398,1.398C-742.86,373.761-742.229,373.146-742.229,372.362L-742.229,372.362z M-739.186,367.82
			c0-0.776-0.638-1.406-1.414-1.406c-0.769,0-1.391,0.63-1.391,1.406s0.623,1.406,1.391,1.406
			C-739.824,369.227-739.186,368.597-739.186,367.82L-739.186,367.82z M-742.229,383.091c0-0.775-0.63-1.414-1.399-1.414
			c-0.776,0-1.398,0.639-1.398,1.414c0,0.769,0.623,1.392,1.398,1.392C-742.86,384.482-742.229,383.859-742.229,383.091
			L-742.229,383.091z M-749.584,372.285c0-0.769-0.63-1.398-1.399-1.398c-0.776,0-1.398,0.63-1.398,1.398
			c0,0.784,0.623,1.399,1.398,1.399C-750.215,373.685-749.584,373.069-749.584,372.285L-749.584,372.285z M-747.486,367.213
			c0-0.769-0.623-1.384-1.391-1.384c-0.776,0-1.399,0.615-1.399,1.384c0,0.776,0.623,1.414,1.399,1.414
			C-748.109,368.627-747.486,367.989-747.486,367.213L-747.486,367.213z M-763.864,372.239c0-0.769-0.63-1.391-1.406-1.391
			c-0.769,0-1.399,0.622-1.399,1.391c0,0.776,0.63,1.414,1.399,1.414C-764.495,373.653-763.864,373.016-763.864,372.239
			L-763.864,372.239z M-762.588,366.905c0-0.769-0.623-1.398-1.399-1.398c-0.769,0-1.406,0.63-1.406,1.398s0.638,1.399,1.406,1.399
			C-763.211,368.305-762.588,367.674-762.588,366.905L-762.588,366.905z M-756.763,372.255c0-0.769-0.623-1.406-1.391-1.406
			c-0.776,0-1.414,0.638-1.414,1.406c0,0.776,0.638,1.398,1.414,1.398C-757.385,373.653-756.763,373.031-756.763,372.255
			L-756.763,372.255z M-755.164,366.998c0-0.769-0.63-1.392-1.407-1.392c-0.769,0-1.398,0.623-1.398,1.392
			c0,0.776,0.63,1.406,1.398,1.406C-755.794,368.404-755.164,367.774-755.164,366.998L-755.164,366.998z M-750.299,377.719
			c0-0.776-0.623-1.391-1.399-1.391c-0.776,0-1.391,0.614-1.391,1.391s0.615,1.407,1.391,1.407
			C-750.922,379.126-750.299,378.495-750.299,377.719L-750.299,377.719z M-749.584,383.168c0-0.776-0.63-1.414-1.399-1.414
			c-0.776,0-1.398,0.638-1.398,1.414c0,0.769,0.623,1.384,1.398,1.384C-750.215,384.552-749.584,383.937-749.584,383.168
			L-749.584,383.168z M-757.309,377.719c0-0.776-0.623-1.391-1.391-1.391c-0.776,0-1.398,0.614-1.398,1.391s0.623,1.407,1.398,1.407
			C-757.931,379.126-757.309,378.495-757.309,377.719L-757.309,377.719z M-764.302,377.719c0-0.776-0.623-1.391-1.399-1.391
			c-0.769,0-1.399,0.614-1.399,1.391s0.63,1.407,1.399,1.407C-764.925,379.126-764.302,378.495-764.302,377.719L-764.302,377.719z
			 M-763.864,383.191c0-0.769-0.63-1.392-1.406-1.392c-0.769,0-1.399,0.623-1.399,1.392c0,0.776,0.63,1.406,1.399,1.406
			C-764.495,384.598-763.864,383.968-763.864,383.191L-763.864,383.191z M-756.763,383.184c0-0.776-0.623-1.398-1.391-1.398
			c-0.776,0-1.414,0.622-1.414,1.398c0,0.769,0.638,1.406,1.414,1.406C-757.385,384.59-756.763,383.952-756.763,383.184
			L-756.763,383.184z M-744.143,362.87c0-0.775-0.63-1.406-1.407-1.406c-0.769,0-1.398,0.631-1.398,1.406
			c0,0.776,0.63,1.392,1.398,1.392C-744.773,364.262-744.143,363.646-744.143,362.87L-744.143,362.87z M-743.29,377.719
			c0-0.776-0.638-1.391-1.406-1.391c-0.776,0-1.399,0.614-1.399,1.391s0.623,1.407,1.399,1.407
			C-743.928,379.126-743.29,378.495-743.29,377.719L-743.29,377.719z M-723.93,390.669c0-0.776-0.623-1.414-1.399-1.414
			c-0.776,0-1.398,0.638-1.398,1.414c0,0.769,0.623,1.392,1.398,1.392C-724.553,392.061-723.93,391.438-723.93,390.669
			L-723.93,390.669z M-729.287,391.715c0-0.769-0.623-1.392-1.398-1.392c-0.776,0-1.407,0.623-1.407,1.392
			c0,0.775,0.63,1.414,1.407,1.414C-729.91,393.129-729.287,392.49-729.287,391.715L-729.287,391.715z M-723.854,398.017
			c0-0.776-0.622-1.414-1.398-1.414s-1.399,0.638-1.399,1.414c0,0.769,0.623,1.384,1.399,1.384S-723.854,398.785-723.854,398.017
			L-723.854,398.017z M-729.287,398.724c0-0.769-0.623-1.391-1.398-1.391c-0.776,0-1.407,0.622-1.407,1.391s0.63,1.406,1.407,1.406
			C-729.91,400.13-729.287,399.492-729.287,398.724L-729.287,398.724z M-734.651,390.669c0-0.776-0.623-1.414-1.391-1.414
			c-0.776,0-1.407,0.638-1.407,1.414c0,0.769,0.63,1.392,1.407,1.392C-735.274,392.061-734.651,391.438-734.651,390.669
			L-734.651,390.669z M-734.729,398.017c0-0.776-0.623-1.414-1.398-1.414c-0.769,0-1.407,0.638-1.407,1.414
			c0,0.769,0.638,1.384,1.407,1.384C-735.351,399.4-734.729,398.785-734.729,398.017L-734.729,398.017z M-739.793,395.911
			c0-0.769-0.63-1.399-1.399-1.399c-0.776,0-1.399,0.631-1.399,1.399s0.623,1.398,1.399,1.398
			C-740.423,397.31-739.793,396.68-739.793,395.911L-739.793,395.911z M-723.83,405.188c0-0.769-0.623-1.406-1.399-1.406
			s-1.399,0.638-1.399,1.406c0,0.776,0.623,1.406,1.399,1.406S-723.83,405.964-723.83,405.188L-723.83,405.188z M-729.287,405.732
			c0-0.769-0.623-1.406-1.398-1.406c-0.776,0-1.407,0.638-1.407,1.406s0.63,1.399,1.407,1.399
			C-729.91,407.132-729.287,406.501-729.287,405.732L-729.287,405.732z M-723.815,412.304c0-0.776-0.623-1.406-1.399-1.406
			c-0.769,0-1.406,0.63-1.406,1.406s0.638,1.392,1.406,1.392C-724.438,413.695-723.815,413.08-723.815,412.304L-723.815,412.304z
			 M-729.287,412.727c0-0.776-0.623-1.398-1.398-1.398c-0.776,0-1.407,0.622-1.407,1.398c0,0.769,0.63,1.406,1.407,1.406
			C-729.91,414.133-729.287,413.495-729.287,412.727L-729.287,412.727z M-734.759,405.188c0-0.769-0.623-1.406-1.398-1.406
			c-0.769,0-1.399,0.638-1.399,1.406c0,0.776,0.63,1.406,1.399,1.406C-735.382,406.594-734.759,405.964-734.759,405.188
			L-734.759,405.188z M-740.008,403.597c0-0.769-0.63-1.414-1.399-1.414s-1.406,0.646-1.406,1.414s0.638,1.406,1.406,1.406
			S-740.008,404.365-740.008,403.597L-740.008,403.597z M-734.767,412.304c0-0.776-0.623-1.406-1.399-1.406s-1.399,0.63-1.399,1.406
			s0.623,1.392,1.399,1.392S-734.767,413.08-734.767,412.304L-734.767,412.304z M-740.108,411.021c0-0.769-0.63-1.406-1.398-1.406
			c-0.776,0-1.407,0.638-1.407,1.406c0,0.776,0.63,1.398,1.407,1.398C-740.738,412.419-740.108,411.797-740.108,411.021
			L-740.108,411.021z M-752.582,393.282c0-0.776-0.623-1.398-1.398-1.398c-0.769,0-1.391,0.622-1.391,1.398
			c0,0.769,0.623,1.406,1.391,1.406C-753.205,394.688-752.582,394.051-752.582,393.282L-752.582,393.282z M-749.1,397.532
			c0-0.776-0.623-1.406-1.399-1.406c-0.769,0-1.391,0.63-1.391,1.406s0.623,1.392,1.391,1.392
			C-749.723,398.924-749.1,398.309-749.1,397.532L-749.1,397.532z M-757.608,398.309c0-0.776-0.63-1.414-1.398-1.414
			c-0.776,0-1.407,0.638-1.407,1.414c0,0.769,0.63,1.392,1.407,1.392C-758.238,399.7-757.608,399.077-757.608,398.309
			L-757.608,398.309z M-760.49,393.62c0-0.776-0.623-1.406-1.399-1.406s-1.398,0.63-1.398,1.406s0.622,1.392,1.398,1.392
			S-760.49,394.396-760.49,393.62L-760.49,393.62z M-749.876,406.04c0-0.776-0.623-1.391-1.391-1.391
			c-0.776,0-1.399,0.614-1.399,1.391s0.623,1.406,1.399,1.406C-750.499,407.446-749.876,406.816-749.876,406.04L-749.876,406.04z
			 M-754.042,402.481c0-0.775-0.63-1.406-1.407-1.406c-0.769,0-1.398,0.631-1.398,1.406c0,0.776,0.63,1.392,1.398,1.392
			C-754.672,403.873-754.042,403.258-754.042,402.481L-754.042,402.481z M-744.143,392.567c0-0.776-0.63-1.391-1.407-1.391
			c-0.769,0-1.398,0.614-1.398,1.391s0.63,1.406,1.398,1.406C-744.773,393.974-744.143,393.344-744.143,392.567L-744.143,392.567z
			 M-744.85,401.014c0-0.769-0.623-1.406-1.399-1.406s-1.399,0.638-1.399,1.406c0,0.776,0.623,1.392,1.399,1.392
			S-744.85,401.79-744.85,401.014L-744.85,401.014z M-745.181,408.915c0-0.769-0.63-1.407-1.399-1.407
			c-0.776,0-1.406,0.639-1.406,1.407c0,0.776,0.63,1.398,1.406,1.398C-745.811,410.313-745.181,409.691-745.181,408.915
			L-745.181,408.915z M-739.186,387.618c0-0.776-0.638-1.392-1.414-1.392c-0.769,0-1.391,0.615-1.391,1.392s0.623,1.406,1.391,1.406
			C-739.824,389.024-739.186,388.395-739.186,387.618L-739.186,387.618z M-755.164,388.44c0-0.769-0.63-1.398-1.407-1.398
			c-0.769,0-1.398,0.63-1.398,1.398s0.63,1.398,1.398,1.398C-755.794,389.839-755.164,389.209-755.164,388.44L-755.164,388.44z
			 M-762.588,388.548c0-0.776-0.623-1.414-1.399-1.414c-0.769,0-1.406,0.638-1.406,1.414c0,0.769,0.638,1.392,1.406,1.392
			C-763.211,389.939-762.588,389.316-762.588,388.548L-762.588,388.548z M-747.486,388.226c0-0.776-0.623-1.392-1.391-1.392
			c-0.776,0-1.399,0.615-1.399,1.392c0,0.769,0.623,1.406,1.399,1.406C-748.109,389.632-747.486,388.994-747.486,388.226
			L-747.486,388.226z M-760.49,361.833c0-0.769-0.623-1.406-1.399-1.406s-1.398,0.638-1.398,1.406s0.622,1.398,1.398,1.398
			S-760.49,362.602-760.49,361.833L-760.49,361.833z M-752.582,362.156c0-0.769-0.623-1.392-1.398-1.392
			c-0.769,0-1.391,0.623-1.391,1.392c0,0.775,0.623,1.414,1.391,1.414C-753.205,363.57-752.582,362.932-752.582,362.156
			L-752.582,362.156z"/>
	</g>
	<g id="CIRCLE_160_">
		
			<path fill="#231F20" stroke="#231F20" stroke-width="0.5" stroke-linecap="round" stroke-linejoin="round" stroke-miterlimit="10" d="
			M-729.125,377.719c0-0.86-0.707-1.56-1.56-1.56c-0.861,0-1.561,0.699-1.561,1.56c0,0.869,0.7,1.561,1.561,1.561
			C-729.833,379.279-729.125,378.588-729.125,377.719L-729.125,377.719z"/>
	</g>
	<g>
		<g id="LWPOLYLINE_549_">
			
				<rect x="-761.993" y="445.405" fill="#FFFFFF" stroke="#FFFFFF" stroke-width="0.5" stroke-miterlimit="10" width="76.917" height="76.917"/>
		</g>
		<g id="LWPOLYLINE_1809_">
			<polygon fill="none" stroke="#231F20" stroke-width="0.5" stroke-miterlimit="10" points="-739.067,456.965 -754.599,483.864 
				-739.067,510.764 -708.01,510.764 -692.469,483.864 -708.01,456.965 			"/>
		</g>
		<g id="LWPOLYLINE_1810_">
			
				<rect x="-758.15" y="449.248" fill="none" stroke="#231F20" stroke-width="0.5" stroke-miterlimit="10" width="69.231" height="69.231"/>
		</g>
		<g id="CIRCLE_287_">
			
				<path fill="#231F20" stroke="#231F20" stroke-width="0.5" stroke-linecap="round" stroke-linejoin="round" stroke-miterlimit="10" d="
				M-721.336,483.864c0-1.215-0.983-2.198-2.198-2.198s-2.198,0.983-2.198,2.198c0,1.214,0.984,2.198,2.198,2.198
				S-721.336,485.078-721.336,483.864L-721.336,483.864z"/>
		</g>
	</g>
	<g>
		<g>
			<g id="CIRCLE_285_" opacity="0.5">
				
					<path fill="#FFFFFF" stroke="#FFFFFF" stroke-width="0.7087" stroke-linecap="round" stroke-linejoin="round" stroke-miterlimit="10" d="
					M-635.9,652.293c0-48.442-39.262-87.692-87.692-87.692c-48.438,0-87.692,39.25-87.692,87.692
					c0,48.427,39.254,87.692,87.692,87.692C-675.162,739.985-635.9,700.72-635.9,652.293L-635.9,652.293z"/>
			</g>
			<g id="LWPOLYLINE_1628_">
				
					<line fill="none" stroke="#231F20" stroke-width="0.1" stroke-miterlimit="10" x1="-673.394" y1="592.469" x2="-668.929" y2="587.143"/>
			</g>
			<g id="LWPOLYLINE_1627_">
				
					<line fill="none" stroke="#231F20" stroke-width="0.1" stroke-miterlimit="10" x1="-663.771" y1="602.099" x2="-657.746" y2="597.042"/>
			</g>
			<g id="LWPOLYLINE_1624_">
				
					<line fill="none" stroke="#231F20" stroke-width="0.1" stroke-miterlimit="10" x1="-650.214" y1="625.586" x2="-642.817" y2="622.896"/>
			</g>
			<g id="LWPOLYLINE_1621_">
				
					<line fill="none" stroke="#231F20" stroke-width="0.1" stroke-miterlimit="10" x1="-639.839" y1="667.057" x2="-646.687" y2="665.851"/>
			</g>
			<g id="LWPOLYLINE_1620_">
				
					<line fill="none" stroke="#231F20" stroke-width="0.1" stroke-miterlimit="10" x1="-646.687" y1="638.728" x2="-638.947" y2="637.36"/>
			</g>
			<g id="LWPOLYLINE_1619_">
				
					<line fill="none" stroke="#231F20" stroke-width="0.1" stroke-miterlimit="10" x1="-643.674" y1="681.383" x2="-650.214" y2="679"/>
			</g>
			<g id="LWPOLYLINE_1618_">
				
					<line fill="none" stroke="#231F20" stroke-width="0.1" stroke-miterlimit="10" x1="-658.438" y1="706.96" x2="-663.771" y2="702.487"/>
			</g>
			<g id="LWPOLYLINE_1617_">
				
					<line fill="none" stroke="#231F20" stroke-width="0.1" stroke-miterlimit="10" x1="-668.929" y1="717.436" x2="-673.394" y2="712.117"/>
			</g>
			<g id="LWPOLYLINE_1616_">
				
					<line fill="none" stroke="#231F20" stroke-width="0.1" stroke-miterlimit="10" x1="-696.885" y1="578.903" x2="-694.502" y2="572.371"/>
			</g>
			<g id="LWPOLYLINE_1615_">
				
					<line fill="none" stroke="#231F20" stroke-width="0.1" stroke-miterlimit="10" x1="-710.027" y1="575.392" x2="-708.824" y2="568.544"/>
			</g>
			<g id="LWPOLYLINE_1614_">
				
					<line fill="none" stroke="#231F20" stroke-width="0.1" stroke-miterlimit="10" x1="-737.157" y1="575.392" x2="-738.521" y2="567.637"/>
			</g>
			<g id="LWPOLYLINE_1612_">
				
					<line fill="none" stroke="#231F20" stroke-width="0.1" stroke-miterlimit="10" x1="-750.299" y1="578.903" x2="-752.989" y2="571.518"/>
			</g>
			<g id="LWPOLYLINE_1610_">
				
					<line fill="none" stroke="#231F20" stroke-width="0.1" stroke-miterlimit="10" x1="-773.79" y1="592.469" x2="-778.851" y2="586.451"/>
			</g>
			<g id="LWPOLYLINE_1609_">
				
					<line fill="none" stroke="#231F20" stroke-width="0.1" stroke-miterlimit="10" x1="-783.413" y1="602.099" x2="-788.746" y2="597.618"/>
			</g>
			<g id="LWPOLYLINE_1606_">
				
					<line fill="none" stroke="#231F20" stroke-width="0.1" stroke-miterlimit="10" x1="-796.97" y1="625.586" x2="-803.51" y2="623.203"/>
			</g>
			<g id="LWPOLYLINE_1605_">
				
					<line fill="none" stroke="#231F20" stroke-width="0.1" stroke-miterlimit="10" x1="-807.345" y1="667.057" x2="-800.498" y2="665.851"/>
			</g>
			<g id="LWPOLYLINE_1604_">
				
					<line fill="none" stroke="#231F20" stroke-width="0.1" stroke-miterlimit="10" x1="-800.498" y1="638.728" x2="-807.345" y2="637.529"/>
			</g>
			<g id="LWPOLYLINE_1601_">
				
					<line fill="none" stroke="#231F20" stroke-width="0.1" stroke-miterlimit="10" x1="-788.746" y1="706.96" x2="-783.413" y2="702.487"/>
			</g>
			<g id="LWPOLYLINE_1600_">
				
					<line fill="none" stroke="#231F20" stroke-width="0.1" stroke-miterlimit="10" x1="-778.255" y1="717.436" x2="-773.79" y2="712.117"/>
			</g>
			<g id="LWPOLYLINE_1599_">
				
					<line fill="none" stroke="#231F20" stroke-width="0.1" stroke-miterlimit="10" x1="-803.51" y1="681.383" x2="-796.97" y2="679"/>
			</g>
			<g id="LWPOLYLINE_1598_">
				
					<line fill="none" stroke="#231F20" stroke-width="0.1" stroke-miterlimit="10" x1="-708.824" y1="736.042" x2="-710.027" y2="729.194"/>
			</g>
			<g id="LWPOLYLINE_1597_">
				
					<line fill="none" stroke="#231F20" stroke-width="0.1" stroke-miterlimit="10" x1="-738.368" y1="736.042" x2="-737.157" y2="729.194"/>
			</g>
			<g id="LWPOLYLINE_1596_">
				
					<line fill="none" stroke="#231F20" stroke-width="0.1" stroke-miterlimit="10" x1="-694.502" y1="732.215" x2="-696.885" y2="725.667"/>
			</g>
			<g id="LWPOLYLINE_1595_">
				
					<line fill="none" stroke="#231F20" stroke-width="0.1" stroke-miterlimit="10" x1="-752.682" y1="732.215" x2="-750.299" y2="725.667"/>
			</g>
			<g id="LWPOLYLINE_1775_">
				
					<line fill="none" stroke="#231F20" stroke-width="0.25" stroke-miterlimit="10" x1="-649.945" y1="609.761" x2="-662.665" y2="617.116"/>
			</g>
			<g id="LWPOLYLINE_1780_">
				
					<line fill="none" stroke="#231F20" stroke-width="0.25" stroke-miterlimit="10" x1="-649.83" y1="694.879" x2="-660.436" y2="688.753"/>
			</g>
			<g id="LWPOLYLINE_1789_">
				
					<line fill="none" stroke="#231F20" stroke-width="0.25" stroke-miterlimit="10" x1="-681.168" y1="578.819" x2="-688.412" y2="591.369"/>
			</g>
			<g id="LWPOLYLINE_1790_">
				
					<line fill="none" stroke="#231F20" stroke-width="0.25" stroke-miterlimit="10" x1="-758.772" y1="591.369" x2="-766.112" y2="578.635"/>
			</g>
			<g id="LWPOLYLINE_1794_">
				
					<line fill="none" stroke="#231F20" stroke-width="0.25" stroke-miterlimit="10" x1="-784.627" y1="617.293" x2="-797.346" y2="609.945"/>
			</g>
			<g id="LWPOLYLINE_1795_">
				
					<line fill="none" stroke="#231F20" stroke-width="0.25" stroke-miterlimit="10" x1="-681.072" y1="725.943" x2="-688.412" y2="713.216"/>
			</g>
			<g id="LWPOLYLINE_1798_">
				
					<line fill="none" stroke="#231F20" stroke-width="0.25" stroke-miterlimit="10" x1="-758.772" y1="713.216" x2="-766.22" y2="726.12"/>
			</g>
			<g id="LWPOLYLINE_1800_">
				
					<line fill="none" stroke="#231F20" stroke-width="0.25" stroke-miterlimit="10" x1="-784.519" y1="687.462" x2="-797.247" y2="694.817"/>
			</g>
			<g id="HATCH_43_">
				<polygon fill-rule="evenodd" clip-rule="evenodd" fill="#231F20" points="-718.931,719.664 -728.107,719.672 -723.592,736.427 
									"/>
			</g>
			<g id="ARC_326_">
				<path fill="#231F20" d="M-728.107,719.688c3.055,0.2,6.118,0.2,9.177-0.016"/>
			</g>
			<g id="LINE_56_">
				<line fill="#231F20" x1="-724.603" y1="719.826" x2="-722.439" y2="719.826"/>
			</g>
			<g id="LINE_54_">
				<line fill="#231F20" x1="-724.603" y1="707.16" x2="-722.439" y2="707.16"/>
			</g>
			<g id="HATCH_41_">
				<polygon fill-rule="evenodd" clip-rule="evenodd" fill="#231F20" points="-656.209,647.636 -656.201,656.797 -639.455,652.293 
									"/>
			</g>
			<g id="ARC_325_">
				<path fill="#231F20" d="M-656.201,656.805c0.204-3.052,0.204-6.118-0.008-9.169"/>
			</g>
			<g id="LINE_48_">
				<line fill="#231F20" x1="-656.055" y1="653.3" x2="-656.055" y2="651.133"/>
			</g>
			<g id="LWPOLYLINE_1229_">
				<line fill="#231F20" x1="-723.592" y1="568.159" x2="-719.077" y2="584.898"/>
			</g>
			<g id="LWPOLYLINE_1228_">
				<line fill="#231F20" x1="-728.261" y1="584.914" x2="-723.592" y2="568.159"/>
			</g>
			<g id="HATCH_39_">
				<polygon fill-rule="evenodd" clip-rule="evenodd" fill="#231F20" points="-728.261,584.914 -719.077,584.914 -723.592,568.159 
									"/>
			</g>
			<g id="ARC_324_">
				<path fill="#231F20" d="M-719.077,584.898c-3.055-0.2-6.129-0.2-9.184,0.016"/>
			</g>
			<g id="LINE_40_">
				<line fill="#231F20" x1="-722.582" y1="584.745" x2="-724.745" y2="584.745"/>
			</g>
			<g id="LWPOLYLINE_1227_">
				<line fill="#231F20" x1="-807.729" y1="652.293" x2="-790.983" y2="647.781"/>
			</g>
			<g id="LWPOLYLINE_1226_">
				<line fill="#231F20" x1="-790.975" y1="656.95" x2="-807.729" y2="652.293"/>
			</g>
			<g id="HATCH_37_">
				<polygon fill-rule="evenodd" clip-rule="evenodd" fill="#231F20" points="-790.975,656.95 -790.983,647.767 -807.729,652.293 
									"/>
			</g>
			<g id="ARC_323_">
				<path fill="#231F20" d="M-790.983,647.781c-0.204,3.052-0.204,6.118,0.008,9.169"/>
			</g>
			<g id="LINE_9_">
				<line fill="#231F20" x1="-791.129" y1="651.286" x2="-791.129" y2="653.445"/>
			</g>
			<g id="LINE_5_">
				<line fill="#231F20" x1="-778.455" y1="651.286" x2="-778.455" y2="653.445"/>
			</g>
			<g id="LWPOLYLINE_1772_">
				
					<path fill="none" stroke="#231F20" stroke-width="0.25" stroke-linecap="round" stroke-linejoin="round" stroke-miterlimit="10" d="
					M-638.436,650.641c-0.911-47.036-39.773-84.418-86.808-83.504c-47.036,0.915-84.415,39.773-83.504,86.809
					c0.911,47.028,39.773,84.418,86.809,83.504c46.382-0.899,83.522-38.767,83.522-85.156
					C-638.417,651.731-638.425,651.187-638.436,650.641z"/>
			</g>
			<g id="TEXT_88_">
				<text transform="matrix(1 0 0 1 -727.0093 597.6924)" fill="#231F20" font-family="'Verdana'" font-size="11.9286">0</text>
			</g>
			<g id="TEXT_89_">
				<text transform="matrix(1 0 0 1 -672.7944 656.4854)" fill="#231F20" font-family="'Verdana'" font-size="11.9286">90</text>
			</g>
			<g id="TEXT_90_">
				<text transform="matrix(1 0 0 1 -732.3335 714.8643)" fill="#231F20" font-family="'Verdana'" font-size="11.9286">180</text>
			</g>
			<g id="TEXT_91_">
				<text transform="matrix(1 0 0 1 -786.9937 656.4854)" fill="#231F20" font-family="'Verdana'" font-size="11.9286">270</text>
			</g>
		</g>
		<path fill="#231F20" stroke="#231F20" stroke-width="0.1" d="M-722.136,652.224c0,0.8-0.653,1.453-1.456,1.453
			c-0.803,0-1.457-0.653-1.457-1.453c0-0.799,0.653-1.46,1.457-1.46C-722.789,650.764-722.136,651.425-722.136,652.224z"/>
	</g>
</g>
<g id="WAYPOINT_SYMBOL">
	<g>
		<g id="LWPOLYLINE_19_">
			<polygon fill="#FFFFFF" stroke="#FFFFFF" stroke-width="0.5" stroke-miterlimit="10" points="-457.061,738.84 -427.61,687.839 
				-398.174,738.84 			"/>
		</g>
		<g id="LWPOLYLINE_12_">
			<polygon fill="#231F20" stroke="#231F20" stroke-width="0.5" stroke-miterlimit="10" points="-451.466,735.612 -427.61,694.302 
				-403.77,735.612 			"/>
		</g>
		<g id="CIRCLE_11_">
			
				<path fill="#FFFFFF" stroke="#FFFFFF" stroke-width="0.5" stroke-linecap="round" stroke-linejoin="round" stroke-miterlimit="10" d="
				M-425.781,721.84c0-1.015-0.83-1.829-1.829-1.829c-1.015,0-1.845,0.814-1.845,1.829c0,1.014,0.83,1.837,1.845,1.837
				C-426.611,723.677-425.781,722.854-425.781,721.84L-425.781,721.84z"/>
		</g>
	</g>
	<g>
		<g id="LWPOLYLINE_11_">
			<polygon fill="#FFFFFF" stroke="#FFFFFF" stroke-width="0.5" stroke-miterlimit="10" points="-366.648,737.626 -337.197,686.608 
				-307.762,737.626 			"/>
		</g>
		<g id="LWPOLYLINE_10_">
			<polygon fill="#FFFFFF" stroke="#231F20" stroke-width="0.5" stroke-miterlimit="10" points="-361.053,734.39 -337.197,693.08 
				-313.357,734.39 			"/>
		</g>
		<g id="CIRCLE_7_">
			
				<path fill="#231F20" stroke="#231F20" stroke-width="0.5" stroke-linecap="round" stroke-linejoin="round" stroke-miterlimit="10" d="
				M-335.368,720.625c0-1.022-0.83-1.845-1.829-1.845c-1.015,0-1.845,0.822-1.845,1.845c0,1.007,0.83,1.829,1.845,1.829
				C-336.198,722.454-335.368,721.632-335.368,720.625L-335.368,720.625z"/>
		</g>
	</g>
</g>
<g id="Wpt_Symbol">
	<g>
		<g id="LWPOLYLINE_73_">
			<polygon fill="#FFFFFF" points="-442.9,546.225 -482.658,560.512 -442.9,574.8 -428.613,614.557 -414.322,574.8 
				-374.564,560.512 -414.322,546.225 -428.613,506.46 			"/>
		</g>
		<g id="HATCH_57_">
			<path fill-rule="evenodd" clip-rule="evenodd" fill="#FFFFFF" d="M-418.718,550.613l-9.888-27.561l-9.907,27.561l-27.541,9.898
				l27.541,9.907l9.907,27.537l9.888-27.537l27.56-9.907L-418.718,550.613z M-417.465,560.512h-22.284H-417.465z"/>
		</g>
		<g id="LWPOLYLINE_58_">
			<polygon fill="none" stroke="#231F20" stroke-width="0.5" stroke-linecap="round" stroke-miterlimit="10" points="
				-438.512,550.613 -466.061,560.512 -438.512,570.411 -428.613,597.956 -418.71,570.411 -391.165,560.512 -418.71,550.613 
				-428.613,523.061 			"/>
		</g>
		<g id="CIRCLE_26_">
			
				<path fill="none" stroke="#231F20" stroke-width="0.5" stroke-linecap="round" stroke-linejoin="round" stroke-miterlimit="10" d="
				M-417.465,560.512c0-6.155-4.992-11.144-11.147-11.144c-6.152,0-11.144,4.988-11.144,11.144c0,6.156,4.992,11.145,11.144,11.145
				C-422.457,571.656-417.465,566.668-417.465,560.512L-417.465,560.512z"/>
		</g>
	</g>
	<g>
		<g id="LWPOLYLINE_52_">
			<polygon fill="#FFFFFF" points="-261.541,546.141 -301.291,560.42 -261.541,574.707 -247.253,614.457 -232.966,574.707 
				-193.216,560.42 -232.966,546.141 -247.253,506.383 			"/>
		</g>
		<g id="HATCH_22_">
			<path fill-rule="evenodd" clip-rule="evenodd" fill="#FFFFFF" d="M-237.362,550.536l-9.892-27.553l-9.899,27.553l-27.537,9.876
				l27.537,9.907l9.899,27.545l9.892-27.545l27.552-9.907L-237.362,550.536z M-236.109,560.412h-22.28H-236.109z"/>
		</g>
		<path fill="#FFFFFF" d="M-299.166,560.42c0-28.659,23.241-51.9,51.908-51.9c28.667,0,51.904,23.241,51.904,51.9
			c0,28.675-23.237,51.908-51.904,51.908C-275.924,612.328-299.166,589.095-299.166,560.42z"/>
		<g id="LWPOLYLINE_51_">
			<polygon fill="#231F20" stroke="#231F20" stroke-width="0.5" stroke-linecap="round" stroke-miterlimit="10" points="
				-257.152,550.521 -284.697,560.42 -257.152,570.319 -247.253,597.864 -237.354,570.319 -209.817,560.42 -237.354,550.521 
				-247.253,522.983 			"/>
		</g>
		<path fill="none" stroke="#231F20" stroke-width="0.5" stroke-linecap="round" stroke-miterlimit="10" d="M-288.437,560.42
			c0-22.741,18.438-41.172,41.179-41.172c22.742,0,41.179,18.431,41.179,41.172c0,22.749-18.438,41.179-41.179,41.179
			C-269.999,601.599-288.437,583.169-288.437,560.42z"/>
		<g id="CIRCLE_9_">
			
				<path fill="#FFFFFF" stroke="#FFFFFF" stroke-width="0.5" stroke-linecap="round" stroke-linejoin="round" stroke-miterlimit="10" d="
				M-236.109,560.42c0-6.148-4.988-11.145-11.144-11.145s-11.144,4.996-11.144,11.145c0,6.156,4.988,11.144,11.144,11.144
				S-236.109,566.576-236.109,560.42L-236.109,560.42z"/>
		</g>
	</g>
</g>
<g id="BASEMAP">
	<g id="LWPOLYLINE_291_">
		<polyline fill="none" stroke="#2E3191" stroke-width="8" stroke-miterlimit="10" points="-280.374,24.461 -334.16,-107.926 
			-387.257,24.461 		"/>
	</g>
	<g id="LINE_83_">
		
			<line fill="none" stroke="#2E3191" stroke-width="8" stroke-miterlimit="10" x1="-359.615" y1="-107.926" x2="-410.01" y2="-107.926"/>
	</g>
	<g id="LINE_82_">
		
			<line fill="none" stroke="#2E3191" stroke-width="8" stroke-miterlimit="10" x1="-356.543" y1="-119.499" x2="-397.575" y2="-149.387"/>
	</g>
	<g id="LINE_81_">
		
			<line fill="none" stroke="#2E3191" stroke-width="8" stroke-miterlimit="10" x1="-334.16" y1="-131.333" x2="-334.16" y2="-183.688"/>
	</g>
	<g id="LINE_80_">
		
			<line fill="none" stroke="#2E3191" stroke-width="8" stroke-miterlimit="10" x1="-313.427" y1="-119.499" x2="-268.357" y2="-149.387"/>
	</g>
	<g id="LINE_79_">
		
			<line fill="none" stroke="#2E3191" stroke-width="8" stroke-miterlimit="10" x1="-308.963" y1="-107.926" x2="-258.397" y2="-107.926"/>
	</g>
	<circle fill="none" stroke="#2E3191" stroke-width="8" stroke-miterlimit="10" cx="-334.375" cy="7.021" r="6.527"/>
	<g id="LWPOLYLINE_2_">
		<polyline fill="none" stroke="#2E3191" stroke-width="8" stroke-miterlimit="10" points="-287.46,220.619 -341.246,88.232 
			-394.343,220.619 		"/>
	</g>
	<circle fill="none" stroke="#2E3191" stroke-width="8" stroke-miterlimit="10" cx="-341.461" cy="203.18" r="6.527"/>
	<g id="LWPOLYLINE_3_">
		<polyline fill="none" stroke="#2E3191" stroke-width="8" stroke-miterlimit="10" points="132.73,220.619 78.945,88.232 
			25.848,220.619 		"/>
	</g>
	<g id="LINE_12_">
		<line fill="none" stroke="#2E3191" stroke-width="8" stroke-miterlimit="10" x1="53.49" y1="88.232" x2="3.096" y2="88.232"/>
	</g>
	<g id="LINE_11_">
		<line fill="none" stroke="#2E3191" stroke-width="8" stroke-miterlimit="10" x1="56.562" y1="76.66" x2="15.529" y2="46.771"/>
	</g>
	<g id="LINE_10_">
		<line fill="none" stroke="#2E3191" stroke-width="8" stroke-miterlimit="10" x1="78.945" y1="64.826" x2="78.945" y2="12.471"/>
	</g>
	<circle fill="none" stroke="#2E3191" stroke-width="8" stroke-miterlimit="10" cx="78.73" cy="203.18" r="6.527"/>
	<g id="LWPOLYLINE_4_">
		<polyline fill="none" stroke="#2E3191" stroke-width="8" stroke-miterlimit="10" points="208.537,220.619 154.752,88.232 
			101.654,220.619 		"/>
	</g>
	<g id="LINE_15_">
		<line fill="none" stroke="#2E3191" stroke-width="8" stroke-miterlimit="10" x1="154.752" y1="64.826" x2="154.752" y2="12.471"/>
	</g>
	<g id="LINE_14_">
		<line fill="none" stroke="#2E3191" stroke-width="8" stroke-miterlimit="10" x1="175.484" y1="76.66" x2="220.555" y2="46.771"/>
	</g>
	<g id="LINE_13_">
		<line fill="none" stroke="#2E3191" stroke-width="8" stroke-miterlimit="10" x1="179.949" y1="88.232" x2="230.514" y2="88.232"/>
	</g>
	<circle fill="none" stroke="#2E3191" stroke-width="8" stroke-miterlimit="10" cx="154.537" cy="203.18" r="6.527"/>
	<g id="LWPOLYLINE_14_">
		<polyline fill="none" stroke="#2E3191" stroke-width="8" stroke-miterlimit="10" points="387.533,234.502 333.748,102.115 
			280.65,234.502 		"/>
	</g>
	<circle fill="none" stroke="#2E3191" stroke-width="8" stroke-miterlimit="10" cx="333.533" cy="217.063" r="6.527"/>
	<g id="LWPOLYLINE_5_">
		<polyline fill="none" stroke="#2E3191" stroke-width="8" stroke-miterlimit="10" points="463.34,234.502 409.555,102.115 
			356.457,234.502 		"/>
	</g>
	<circle fill="none" stroke="#2E3191" stroke-width="8" stroke-miterlimit="10" cx="409.34" cy="217.063" r="6.527"/>
</g>
</svg>
