<?xml version="1.0" encoding="utf-8"?>
<!-- Generator: Adobe Illustrator 15.0.0, SVG Export Plug-In . SVG Version: 6.00 Build 0)  -->
<!DOCTYPE svg PUBLIC "-//W3C//DTD SVG 1.1//EN" "http://www.w3.org/Graphics/SVG/1.1/DTD/svg11.dtd">
<svg version="1.1" xmlns="http://www.w3.org/2000/svg" xmlns:xlink="http://www.w3.org/1999/xlink" x="0px" y="0px"
	 width="115.333px" height="200.515px" viewBox="0 0 115.333 200.515" enable-background="new 0 0 115.333 200.515"
	 xml:space="preserve">
<g id="Layer_1">
	<polygon fill="none" stroke="#231F20" stroke-width="10" stroke-miterlimit="10" points="-1222.924,823.41 -1298.041,953.514 
		-1222.924,1083.618 -1072.694,1083.618 -997.578,953.514 -1072.694,823.41 	"/>
	<path fill="#231F20" d="M-1158.438,953.514c0-5.871,4.759-10.629,10.629-10.629s10.629,4.758,10.629,10.629
		s-4.759,10.629-10.629,10.629S-1158.438,959.385-1158.438,953.514"/>
	<circle fill="none" stroke="#231F20" stroke-width="5" stroke-miterlimit="10" cx="-1147.809" cy="953.514" r="10.629"/>
	<path fill="none" stroke="#2E3192" stroke-width="10" stroke-linecap="round" stroke-linejoin="round" stroke-miterlimit="10" d="
		M112.287,425.192c-10.023,0-18.158,8.136-18.158,18.159c0,10.024,8.135,18.158,18.158,18.158c10.037,0,18.158-8.134,18.158-18.158
		C130.445,433.328,122.324,425.192,112.287,425.192"/>
	
		<line fill="none" stroke="#2E3192" stroke-width="10" stroke-linecap="round" stroke-linejoin="round" stroke-miterlimit="10" x1="160.454" y1="474.144" x2="64.12" y2="474.144"/>
	
		<line fill="none" stroke="#2E3192" stroke-width="10" stroke-linecap="round" stroke-linejoin="round" stroke-miterlimit="10" x1="111.503" y1="474.144" x2="111.503" y2="611.538"/>
	<path fill="none" stroke="#2E3192" stroke-width="10" stroke-linecap="round" stroke-linejoin="round" stroke-miterlimit="10" d="
		M35.705,571.519c18.082,23.453,45.727,37.552,75.31,38.387"/>
	<path fill="none" stroke="#2E3192" stroke-width="10" stroke-linecap="round" stroke-linejoin="round" stroke-miterlimit="10" d="
		M111.979,609.918c29.596-0.86,57.239-14.958,75.31-38.386"/>
	
		<polyline fill="none" stroke="#2E3192" stroke-width="10" stroke-linecap="round" stroke-linejoin="round" stroke-miterlimit="10" points="
		27.803,553.103 24.641,578.367 48.326,568.896 27.803,553.103 	"/>
	
		<polyline fill="none" stroke="#2E3192" stroke-width="10" stroke-linecap="round" stroke-linejoin="round" stroke-miterlimit="10" points="
		196.772,553.103 199.935,578.367 176.25,568.896 196.772,553.103 	"/>
	
		<polyline fill="none" stroke="#063B60" stroke-width="10" stroke-linecap="round" stroke-linejoin="round" stroke-miterlimit="10" points="
		781.394,-311.365 814.441,-391.641 844.669,-311.365 	"/>
	<polygon fill="#545454" points="817.277,-393.539 814.441,-395.422 812.559,-393.539 	"/>
	<polygon fill="none" stroke="#545454" stroke-width="10" stroke-linecap="round" stroke-miterlimit="10" points="814.441,-395.422 
		812.559,-393.539 817.277,-393.539 	"/>
	<polygon fill="#545454" points="815.387,-388.805 814.434,-391.648 813.504,-388.805 	"/>
	<polygon fill="none" stroke="#545454" stroke-width="10" stroke-linecap="round" stroke-miterlimit="10" points="814.441,-391.641 
		813.504,-388.813 815.387,-388.813 	"/>
	<path fill="#545454" d="M812.559-393.531l5.664,1.883l-0.945-1.883H812.559z M818.223-391.648l-5.664-1.883l-1.883,1.883H818.223z"
		/>
	<path fill="none" stroke="#545454" stroke-width="10" stroke-linecap="round" stroke-miterlimit="10" d="M818.223-391.641
		l-5.664-1.891h4.719L818.223-391.641z M810.668-391.641h7.555l-5.664-1.891L810.668-391.641z"/>
	<path fill="#545454" d="M813.504-387.859v-0.945h-1.891L813.504-387.859z M811.613-388.805h1.891l-2.836-2.844L811.613-388.805z
		 M810.668-391.648l2.836,2.844l0.938-2.844H810.668z"/>
	<path fill="none" stroke="#545454" stroke-width="10" stroke-linecap="round" stroke-miterlimit="10" d="M813.504-388.805
		l-2.836-2.836h3.773L813.504-388.805z M811.613-388.805h1.891l-2.836-2.836L811.613-388.805z M813.504-387.867l-1.891-0.938h1.891
		V-387.867z"/>
	<path fill="#545454" d="M815.395-388.805h2.828l-3.781-2.844L815.395-388.805z M814.441-391.648l3.781,2.844v-2.844H814.441z"/>
	<path fill="none" stroke="#545454" stroke-width="10" stroke-linecap="round" stroke-miterlimit="10" d="M818.223-388.813
		l-3.781-2.828h3.781V-388.813z M815.387-388.813h2.836l-3.781-2.828L815.387-388.813z"/>
	<path fill="#545454" d="M815.387-388.805h-1.883H815.387z M815.387-388.805h-1.883H815.387z"/>
	<path fill="none" stroke="#545454" stroke-width="10" stroke-linecap="round" stroke-miterlimit="10" d="M815.387-388.813
		L815.387-388.813h-1.883H815.387z M813.504-388.813h1.883H813.504z"/>
	<path fill="#545454" d="M813.504-388.805h-1.891H813.504z M813.504-388.805h-1.891H813.504z"/>
	<path fill="none" stroke="#545454" stroke-width="10" stroke-linecap="round" stroke-miterlimit="10" d="M813.504-388.813
		L813.504-388.813h-1.891H813.504z M811.613-388.813h1.891H811.613z"/>
	<path fill="#545454" d="M816.332-387.867l1.891-0.945h-2.836L816.332-387.867z M816.332-387.867l-0.945-0.945L816.332-387.867z"/>
	<path fill="none" stroke="#545454" stroke-width="10" stroke-linecap="round" stroke-miterlimit="10" d="M816.332-387.867
		L816.332-387.867z M815.387-388.813l0.945,0.945L815.387-388.813z M818.223-388.813h-2.836l0.945,0.945L818.223-388.813z"/>
	<path fill="#545454" d="M814.441-386.922l1.891-0.938h-2.828L814.441-386.922z M813.504-387.859h2.828l-2.828-0.945V-387.859z
		 M813.504-388.805l2.828,0.945l-0.945-0.945H813.504z"/>
	<path fill="none" stroke="#545454" stroke-width="10" stroke-linecap="round" stroke-miterlimit="10" d="M816.332-387.859
		l-2.828-0.945h1.883L816.332-387.859z M813.504-387.859h2.828l-2.828-0.945V-387.859z M814.441-386.922l-0.938-0.938h2.828
		L814.441-386.922z"/>
	<path fill="#545454" d="M816.332-387.867h-2.828H816.332z M816.332-387.867h-2.828H816.332z"/>
	<path fill="none" stroke="#545454" stroke-width="10" stroke-linecap="round" stroke-miterlimit="10" d="M816.332-387.867
		L816.332-387.867h-2.828H816.332z M813.504-387.867h2.828H813.504z"/>
	<polygon fill="#545454" points="817.277,-325.537 814.441,-326.475 811.613,-325.537 	"/>
	<polygon fill="none" stroke="#545454" stroke-width="10" stroke-linecap="round" stroke-miterlimit="10" points="814.441,-326.482 
		811.613,-325.537 817.277,-325.537 	"/>
	<path fill="#545454" d="M811.613-325.529l6.609,2.82l-0.945-2.82H811.613z M818.223-322.709l-6.609-2.82l-0.938,2.82H818.223z"/>
	<path fill="none" stroke="#545454" stroke-width="10" stroke-linecap="round" stroke-miterlimit="10" d="M818.223-322.709
		l-6.609-2.82h5.664L818.223-322.709z M810.668-322.709h7.555l-6.609-2.82L810.668-322.709z"/>
	<path fill="#545454" d="M814.441-318.92l2.836-0.945h-5.664L814.441-318.92z M811.613-319.865h5.664l-6.609-2.844L811.613-319.865z
		"/>
	<path fill="none" stroke="#545454" stroke-width="10" stroke-linecap="round" stroke-miterlimit="10" d="M811.613-319.873h5.664
		l-2.836,0.945L811.613-319.873z M810.668-322.709l0.945,2.836h5.664L810.668-322.709z"/>
	<polygon fill="#545454" points="817.277,-319.865 818.223,-322.709 810.668,-322.709 	"/>
	<polygon fill="none" stroke="#545454" stroke-width="10" stroke-linecap="round" stroke-miterlimit="10" points="810.668,-322.709 
		818.223,-322.709 817.277,-319.873 	"/>
	<g>
		<path fill="none" stroke="#063B60" stroke-width="10" stroke-linecap="round" stroke-linejoin="round" stroke-miterlimit="10" d="
			M813.973-327.42c-2.344,0-4.25,1.891-4.25,4.242s1.906,4.25,4.25,4.25s4.25-1.898,4.25-4.25S816.316-327.42,813.973-327.42"/>
	</g>
	
		<polyline fill="none" stroke="#063B60" stroke-width="10" stroke-linecap="round" stroke-linejoin="round" stroke-miterlimit="10" points="
		775.722,2.167 809.723,-78.102 839.942,2.167 	"/>
	
		<polyline fill="none" stroke="#063B60" stroke-width="10" stroke-linecap="round" stroke-linejoin="round" stroke-miterlimit="10" points="
		753.057,348.762 787.058,268.494 816.332,348.762 	"/>
	
		<polyline fill="none" stroke="#063B60" stroke-width="10" stroke-linecap="round" stroke-linejoin="round" stroke-miterlimit="10" points="
		795.559,348.762 829.559,268.494 858.833,348.762 	"/>
	<polygon fill="#545454" points="806.887,-11.053 804.059,-10.107 809.723,-10.107 	"/>
	<polygon fill="none" stroke="#545454" stroke-width="10" stroke-linecap="round" stroke-miterlimit="10" points="806.887,-11.053 
		804.059,-10.107 809.723,-10.107 	"/>
	<path fill="#545454" d="M810.668-7.271l-6.609-2.828h5.664L810.668-7.271z M803.113-7.271h7.555l-6.609-2.828L803.113-7.271z"/>
	<path fill="none" stroke="#545454" stroke-width="10" stroke-linecap="round" stroke-miterlimit="10" d="M810.668-7.271
		l-6.609-2.828h5.664L810.668-7.271z M803.113-7.271h7.555l-6.609-2.828L803.113-7.271z"/>
	<path fill="#545454" d="M804.059-4.443h5.664l-2.844,0.945L804.059-4.443z M803.113-7.271l0.945,2.828h5.664L803.113-7.271z"/>
	<path fill="none" stroke="#545454" stroke-width="10" stroke-linecap="round" stroke-miterlimit="10" d="M804.059-4.443h5.664
		l-2.844,0.945L804.059-4.443z M803.113-7.271l0.945,2.828h5.664L803.113-7.271z"/>
	<polygon fill="#545454" points="803.113,-7.271 810.668,-7.271 809.723,-4.443 	"/>
	<polygon fill="none" stroke="#545454" stroke-width="10" stroke-linecap="round" stroke-miterlimit="10" points="803.113,-7.271 
		810.668,-7.271 809.723,-4.443 	"/>
	<path fill="none" stroke="#063B60" stroke-width="10" stroke-linecap="round" stroke-linejoin="round" stroke-miterlimit="10" d="
		M806.418-11.99c-2.344,0-4.25,1.891-4.25,4.242c0,2.353,1.906,4.25,4.25,4.25s4.25-1.897,4.25-4.25
		C810.668-10.1,808.762-11.99,806.418-11.99"/>
	<polygon fill="#545454" points="829.559,334.598 827.668,335.543 830.497,335.543 	"/>
	<polygon fill="none" stroke="#545454" stroke-width="10" stroke-linecap="round" stroke-miterlimit="10" points="829.559,334.598 
		827.668,335.543 830.497,335.543 	"/>
	<polygon fill="#545454" points="786.112,335.551 785.167,335.551 788.003,335.551 	"/>
	<polygon fill="none" stroke="#545454" stroke-width="10" stroke-linecap="round" stroke-miterlimit="10" points="786.112,335.551 
		785.167,335.551 788.003,335.551 	"/>
	<path fill="#545454" d="M831.442,335.551h-3.774h2.821H831.442z M826.723,335.551h4.72h-3.774H826.723z"/>
	<path fill="none" stroke="#545454" stroke-width="10" stroke-linecap="round" stroke-miterlimit="10" d="M831.442,335.551h-3.774
		h2.821H831.442z M826.723,335.551h4.72h-3.774H826.723z"/>
	<path fill="#545454" d="M788.948,336.496l-3.781-0.945h2.836L788.948,336.496z M783.276,336.496h5.672l-3.781-0.945
		L783.276,336.496z"/>
	<path fill="none" stroke="#545454" stroke-width="10" stroke-linecap="round" stroke-miterlimit="10" d="M788.948,336.496
		l-3.781-0.945h2.836L788.948,336.496z M783.276,336.496h5.672l-3.781-0.945L783.276,336.496z"/>
	<path fill="#545454" d="M833.333,338.371l-6.61-2.82h4.72L833.333,338.371z M825.777,338.371h7.556l-6.61-2.82L825.777,338.371z"/>
	<path fill="none" stroke="#545454" stroke-width="10" stroke-linecap="round" stroke-miterlimit="10" d="M833.333,338.371
		l-6.61-2.82h4.72L833.333,338.371z M825.777,338.371h7.556l-6.61-2.82L825.777,338.371z"/>
	<path fill="#545454" d="M789.894,339.324l-6.617-2.828h5.672L789.894,339.324z M782.339,339.324h7.555l-6.617-2.828
		L782.339,339.324z"/>
	<path fill="none" stroke="#545454" stroke-width="10" stroke-linecap="round" stroke-miterlimit="10" d="M789.894,339.324
		l-6.617-2.828h5.672L789.894,339.324z M782.339,339.324h7.555l-6.617-2.828L782.339,339.324z"/>
	<path fill="#545454" d="M831.442,341.207l-5.665-2.828h7.556L831.442,341.207z M826.723,341.207h4.72l-5.665-2.828L826.723,341.207
		z"/>
	<path fill="none" stroke="#545454" stroke-width="10" stroke-linecap="round" stroke-miterlimit="10" d="M831.442,341.207
		l-5.665-2.828h7.556L831.442,341.207z M826.723,341.207h4.72l-5.665-2.828L826.723,341.207z"/>
	<path fill="#545454" d="M827.668,341.207h2.821l-0.931,0.945L827.668,341.207z M826.723,341.207h0.945h2.821H826.723z"/>
	<path fill="none" stroke="#545454" stroke-width="10" stroke-linecap="round" stroke-miterlimit="10" d="M827.668,341.207h2.821
		l-0.931,0.945L827.668,341.207z M826.723,341.207h0.945h2.821H826.723z"/>
	<polygon fill="#545454" points="826.723,341.207 831.442,341.207 830.489,341.207 	"/>
	<polygon fill="none" stroke="#545454" stroke-width="10" stroke-linecap="round" stroke-miterlimit="10" points="826.723,341.207 
		831.442,341.207 830.489,341.207 	"/>
	<path fill="#545454" d="M788.948,341.207l-6.609-1.883h7.555L788.948,341.207z M783.276,341.207h5.672l-6.609-1.883
		L783.276,341.207z"/>
	<path fill="none" stroke="#545454" stroke-width="10" stroke-linecap="round" stroke-miterlimit="10" d="M788.948,341.207
		l-6.609-1.883h7.555L788.948,341.207z M783.276,341.207h5.672l-6.609-1.883L783.276,341.207z"/>
	<path fill="#545454" d="M785.167,342.152h2.836l-1.891,0.945L785.167,342.152z M783.276,341.207l1.891,0.945h2.836L783.276,341.207
		z"/>
	<path fill="none" stroke="#545454" stroke-width="10" stroke-linecap="round" stroke-miterlimit="10" d="M785.167,342.152h2.836
		l-1.891,0.945L785.167,342.152z M783.276,341.207l1.891,0.945h2.836L783.276,341.207z"/>
	<polygon fill="#545454" points="783.276,341.207 788.948,341.207 788.003,342.152 	"/>
	<polygon fill="none" stroke="#545454" stroke-width="10" stroke-linecap="round" stroke-miterlimit="10" points="783.276,341.207 
		788.948,341.207 788.003,342.152 	"/>
	<path fill="none" stroke="#063B60" stroke-width="10" stroke-linecap="round" stroke-linejoin="round" stroke-miterlimit="10" d="
		M785.644,334.598c-2.352,0-4.25,1.898-4.25,4.25s1.898,4.25,4.25,4.25c2.345,0,4.25-1.898,4.25-4.25
		S787.988,334.598,785.644,334.598"/>
	<path fill="none" stroke="#063B60" stroke-width="10" stroke-linecap="round" stroke-linejoin="round" stroke-miterlimit="10" d="
		M829.083,333.652c-2.345,0-4.251,1.898-4.251,4.25s1.906,4.25,4.251,4.25c2.352,0,4.25-1.898,4.25-4.25
		S831.435,333.652,829.083,333.652"/>
	
		<polyline fill="none" stroke="#063B60" stroke-width="10" stroke-linecap="round" stroke-linejoin="round" stroke-miterlimit="10" points="
		754.948,654.746 788.948,574.479 818.223,654.746 	"/>
	
		<polyline fill="none" stroke="#063B60" stroke-width="10" stroke-linecap="round" stroke-linejoin="round" stroke-miterlimit="10" points="
		797.449,654.746 831.442,574.479 860.724,654.746 	"/>
	<polygon fill="#545454" points="830.497,640.582 829.559,640.582 832.388,640.582 	"/>
	<polygon fill="none" stroke="#545454" stroke-width="10" stroke-linecap="round" stroke-miterlimit="10" points="830.497,640.582 
		829.559,640.582 832.388,640.582 	"/>
	<polygon fill="#545454" points="788.003,640.582 787.058,641.527 788.948,641.527 	"/>
	<polygon fill="none" stroke="#545454" stroke-width="10" stroke-linecap="round" stroke-miterlimit="10" points="788.003,640.582 
		787.058,641.527 788.948,641.527 	"/>
	<path fill="#545454" d="M833.333,641.527l-3.774-0.938h2.829L833.333,641.527z M827.668,641.527h5.665l-3.774-0.938
		L827.668,641.527z"/>
	<path fill="none" stroke="#545454" stroke-width="10" stroke-linecap="round" stroke-miterlimit="10" d="M833.333,641.527
		l-3.774-0.938h2.829L833.333,641.527z M827.668,641.527h5.665l-3.774-0.938L827.668,641.527z"/>
	<path fill="#545454" d="M790.832,642.48l-3.774-0.945h1.891L790.832,642.48z M785.167,642.48h5.665l-3.774-0.945L785.167,642.48z"
		/>
	<path fill="none" stroke="#545454" stroke-width="10" stroke-linecap="round" stroke-miterlimit="10" d="M790.832,642.48
		l-3.774-0.945h1.891L790.832,642.48z M785.167,642.48h5.665l-3.774-0.945L785.167,642.48z"/>
	<path fill="#545454" d="M834.278,644.355l-6.61-2.82h5.665L834.278,644.355z M826.723,644.355h7.556l-6.61-2.82L826.723,644.355z"
		/>
	<path fill="none" stroke="#545454" stroke-width="10" stroke-linecap="round" stroke-miterlimit="10" d="M834.278,644.355
		l-6.61-2.82h5.665L834.278,644.355z M826.723,644.355h7.556l-6.61-2.82L826.723,644.355z"/>
	<path fill="#545454" d="M791.777,644.355l-6.61-1.875h5.665L791.777,644.355z M784.222,644.355h7.556l-6.61-1.875L784.222,644.355z
		"/>
	<path fill="none" stroke="#545454" stroke-width="10" stroke-linecap="round" stroke-miterlimit="10" d="M791.777,644.355
		l-6.61-1.875h5.665L791.777,644.355z M784.222,644.355h7.556l-6.61-1.875L784.222,644.355z"/>
	<path fill="#545454" d="M833.333,647.199l-6.61-2.836h7.556L833.333,647.199z M827.668,647.199h5.665l-6.61-2.836L827.668,647.199z
		"/>
	<path fill="none" stroke="#545454" stroke-width="10" stroke-linecap="round" stroke-miterlimit="10" d="M833.333,647.199
		l-6.61-2.836h7.556L833.333,647.199z M827.668,647.199h5.665l-6.61-2.836L827.668,647.199z"/>
	<path fill="#545454" d="M829.559,647.199h2.829l-1.891,0.938L829.559,647.199z M827.668,647.199h1.891h2.829H827.668z"/>
	<path fill="none" stroke="#545454" stroke-width="10" stroke-linecap="round" stroke-miterlimit="10" d="M829.559,647.199h2.829
		l-1.891,0.938L829.559,647.199z M827.668,647.199h1.891h2.829H827.668z"/>
	<polygon fill="#545454" points="827.668,647.199 833.333,647.199 832.388,647.199 	"/>
	<polygon fill="none" stroke="#545454" stroke-width="10" stroke-linecap="round" stroke-miterlimit="10" points="827.668,647.199 
		833.333,647.199 832.388,647.199 	"/>
	<path fill="#545454" d="M790.832,647.199l-6.61-2.836h7.556L790.832,647.199z M785.167,647.199h5.665l-6.61-2.836L785.167,647.199z
		"/>
	<path fill="none" stroke="#545454" stroke-width="10" stroke-linecap="round" stroke-miterlimit="10" d="M790.832,647.199
		l-6.61-2.836h7.556L790.832,647.199z M785.167,647.199h5.665l-6.61-2.836L785.167,647.199z"/>
	<path fill="#545454" d="M786.112,648.137h3.781h-1.891H786.112z M785.167,647.199l0.945,0.938h3.781L785.167,647.199z"/>
	<path fill="none" stroke="#545454" stroke-width="10" stroke-linecap="round" stroke-miterlimit="10" d="M786.112,648.137h3.781
		h-1.891H786.112z M785.167,647.199l0.945,0.938h3.781L785.167,647.199z"/>
	<polygon fill="#545454" points="785.167,647.199 790.832,647.199 789.894,648.137 	"/>
	<polygon fill="none" stroke="#545454" stroke-width="10" stroke-linecap="round" stroke-miterlimit="10" points="785.167,647.199 
		790.832,647.199 789.894,648.137 	"/>
	<path fill="none" stroke="#063B60" stroke-width="10" stroke-linecap="round" stroke-linejoin="round" stroke-miterlimit="10" d="
		M787.526,639.637c-2.344,0-4.25,1.906-4.25,4.25c0,2.352,1.906,4.25,4.25,4.25c2.353,0,4.251-1.898,4.251-4.25
		C791.777,641.543,789.879,639.637,787.526,639.637"/>
	<path fill="none" stroke="#063B60" stroke-width="10" stroke-linecap="round" stroke-linejoin="round" stroke-miterlimit="10" d="
		M830.028,639.637c-2.345,0-4.251,1.906-4.251,4.25c0,2.352,1.906,4.25,4.251,4.25c2.344,0,4.25-1.898,4.25-4.25
		C834.278,641.543,832.372,639.637,830.028,639.637"/>
	
		<line fill="none" stroke="#063B60" stroke-width="10" stroke-linecap="round" stroke-linejoin="round" stroke-miterlimit="10" x1="846.552" y1="-78.102" x2="824.832" y2="-78.102"/>
	
		<line fill="none" stroke="#063B60" stroke-width="10" stroke-linecap="round" stroke-linejoin="round" stroke-miterlimit="10" x1="795.559" y1="-78.102" x2="773.839" y2="-78.102"/>
	
		<line fill="none" stroke="#063B60" stroke-width="10" stroke-linecap="round" stroke-linejoin="round" stroke-miterlimit="10" x1="809.723" y1="-93.211" x2="809.723" y2="-114.938"/>
	
		<line fill="none" stroke="#063B60" stroke-width="10" stroke-linecap="round" stroke-linejoin="round" stroke-miterlimit="10" x1="820.113" y1="-88.492" x2="835.224" y2="-103.609"/>
	
		<line fill="none" stroke="#063B60" stroke-width="10" stroke-linecap="round" stroke-linejoin="round" stroke-miterlimit="10" x1="799.332" y1="-88.492" x2="784.222" y2="-103.609"/>
	
		<line fill="none" stroke="#063B60" stroke-width="10" stroke-linecap="round" stroke-linejoin="round" stroke-miterlimit="10" x1="773.839" y1="574.471" x2="752.111" y2="574.471"/>
	
		<line fill="none" stroke="#063B60" stroke-width="10" stroke-linecap="round" stroke-linejoin="round" stroke-miterlimit="10" x1="845.614" y1="574.471" x2="867.334" y2="574.471"/>
	
		<line fill="none" stroke="#063B60" stroke-width="10" stroke-linecap="round" stroke-linejoin="round" stroke-miterlimit="10" x1="841.833" y1="563.15" x2="856.942" y2="548.033"/>
	
		<line fill="none" stroke="#063B60" stroke-width="10" stroke-linecap="round" stroke-linejoin="round" stroke-miterlimit="10" x1="831.442" y1="559.369" x2="831.442" y2="537.643"/>
	
		<line fill="none" stroke="#063B60" stroke-width="10" stroke-linecap="round" stroke-linejoin="round" stroke-miterlimit="10" x1="762.503" y1="548.041" x2="777.612" y2="563.15"/>
	
		<line fill="none" stroke="#063B60" stroke-width="10" stroke-linecap="round" stroke-linejoin="round" stroke-miterlimit="10" x1="788.948" y1="559.369" x2="788.948" y2="537.643"/>
	<g>
		<path fill="none" stroke="#063B60" stroke-width="10" stroke-linecap="round" stroke-linejoin="round" stroke-miterlimit="10" d="
			M813.973-396.359c-2.344,0-4.25,1.891-4.25,4.25c0,2.344,1.906,4.25,4.25,4.25s4.25-1.906,4.25-4.25
			C818.223-394.469,816.316-396.359,813.973-396.359"/>
	</g>
	<path fill="none" stroke="#2E3191" stroke-width="8" stroke-miterlimit="10" d="M63.399,108.443
		c0.76,36.301,17.968,70.002,46.304,90.684"/>
	<path fill="none" stroke="#2E3191" stroke-width="8" stroke-miterlimit="10" d="M63.399,108.443
		c0.76,36.301,17.968,70.002,46.304,90.684"/>
	<path fill="none" stroke="#2E3191" stroke-width="8" stroke-miterlimit="10" d="M63.399,108.443
		c0.76,36.301,17.968,70.002,46.304,90.684"/>
	<path fill="none" stroke="#2E3191" stroke-width="8" stroke-miterlimit="10" d="M5.092,197.524
		c32.666-18.345,53.889-51.395,58.271-88.601"/>
	<line fill="none" stroke="#2E3191" stroke-width="8" stroke-miterlimit="10" x1="63.362" y1="109.609" x2="63.362" y2="9.705"/>
	<path fill="none" stroke="#2E3191" stroke-width="8" stroke-miterlimit="10" d="M522.138,299.254
		c0.824,37.449,19.513,72.225,50.285,93.583"/>
	<path fill="none" stroke="#2E3191" stroke-width="8" stroke-miterlimit="10" d="M522.138,299.254
		c0.824,37.449,19.513,72.225,50.285,93.583"/>
	<path fill="none" stroke="#2E3191" stroke-width="8" stroke-miterlimit="10" d="M522.138,299.254
		c0.824,37.449,19.513,72.225,50.285,93.583"/>
	<path fill="none" stroke="#2E3191" stroke-width="8" stroke-miterlimit="10" d="M463.829,388.322
		c32.667-18.336,54.583-51.185,58.964-88.378"/>
	
		<line fill="none" stroke="#2E3191" stroke-width="8" stroke-miterlimit="10" x1="523.605" y1="300.407" x2="523.605" y2="200.515"/>
	
		<line fill="none" stroke="#2E3191" stroke-width="8" stroke-miterlimit="10" x1="523.605" y1="184.109" x2="523.605" y2="143.848"/>
	
		<line fill="none" stroke="#2E3191" stroke-width="8" stroke-miterlimit="10" x1="483.342" y1="240.765" x2="511.678" y2="212.443"/>
	
		<line fill="none" stroke="#2E3191" stroke-width="8" stroke-miterlimit="10" x1="535.533" y1="188.574" x2="563.856" y2="160.253"/>
	
		<line fill="none" stroke="#2E3191" stroke-width="8" stroke-miterlimit="10" x1="563.856" y1="240.765" x2="535.533" y2="212.443"/>
	
		<line fill="none" stroke="#2E3191" stroke-width="8" stroke-miterlimit="10" x1="513.157" y1="188.574" x2="483.342" y2="160.253"/>
</g>
<g id="ANC_LEGEND">
	<text transform="matrix(1 0 0 1 -752.519 9.7051)" font-family="'CenturyGothic'" font-size="8.3513">IFR-Civil</text>
	<g id="MTEXT_5_">
		<text transform="matrix(1 0 0 1 -752.519 28.9238)" font-family="'CenturyGothic'" font-size="8.3513">IFR-Join Civil Military</text>
	</g>
	<g id="MTEXT_4_">
		<text transform="matrix(1 0 0 1 -752.519 48.1445)" font-family="'CenturyGothic'" font-size="8.3513">IFR-Military</text>
	</g>
	<g id="INSERT_8_">
		<g id="CIRCLE_5_">
			
				<path fill="none" stroke="#992B20" stroke-width="10" stroke-linecap="round" stroke-linejoin="round" stroke-miterlimit="10" d="
				M-1937.634-830.781c0-76.291-61.83-138.121-138.125-138.121c-76.291,0-138.121,61.831-138.121,138.121
				c0,76.294,61.83,138.125,138.121,138.125C-1999.464-692.657-1937.634-754.487-1937.634-830.781L-1937.634-830.781z"/>
		</g>
		<g id="LWPOLYLINE_9_">
			
				<line fill="none" stroke="#992B20" stroke-width="10" stroke-linecap="round" stroke-linejoin="round" stroke-miterlimit="10" x1="-2075.758" y1="-657.695" x2="-2075.758" y2="-692.657"/>
		</g>
		<g id="LWPOLYLINE_8_">
			
				<line fill="none" stroke="#992B20" stroke-width="10" stroke-linecap="round" stroke-linejoin="round" stroke-miterlimit="10" x1="-2075.758" y1="-968.902" x2="-2075.758" y2="-1008.84"/>
		</g>
		<g id="LWPOLYLINE_7_">
			
				<line fill="none" stroke="#992B20" stroke-width="10" stroke-linecap="round" stroke-linejoin="round" stroke-miterlimit="10" x1="-2251.266" y1="-830.781" x2="-2213.879" y2="-830.781"/>
		</g>
		<g id="LWPOLYLINE_6_">
			
				<line fill="none" stroke="#992B20" stroke-width="10" stroke-linecap="round" stroke-linejoin="round" stroke-miterlimit="10" x1="-1937.634" y1="-830.781" x2="-1900.186" y2="-830.781"/>
		</g>
	</g>
	<g id="INSERT_6_">
		<g id="CIRCLE_2_">
			
				<path fill="none" stroke="#992B20" stroke-width="10" stroke-linecap="round" stroke-linejoin="round" stroke-miterlimit="10" d="
				M-1937.634,653.01c0-76.287-61.83-138.117-138.125-138.117c-76.291,0-138.121,61.83-138.121,138.117
				c0,76.294,61.83,138.124,138.121,138.124C-1999.464,791.134-1937.634,729.304-1937.634,653.01L-1937.634,653.01z"/>
		</g>
		<g id="CIRCLE_1_">
			
				<path fill="none" stroke="#992B20" stroke-width="10" stroke-linecap="round" stroke-linejoin="round" stroke-miterlimit="10" d="
				M-2008.156,653.01c0-37.345-30.25-67.603-67.602-67.603c-37.348,0-67.603,30.258-67.603,67.603
				c0,37.352,30.254,67.602,67.603,67.602C-2038.407,720.611-2008.156,690.361-2008.156,653.01L-2008.156,653.01z"/>
		</g>
	</g>
	<text transform="matrix(1 0 0 1 -647.3311 9.7051)" font-family="'CenturyGothic'" font-size="8.3513">VFR-Civil</text>
	<g id="MTEXT_3_">
		<text transform="matrix(1 0 0 1 -647.3311 28.9238)" font-family="'CenturyGothic'" font-size="8.3513">VFR-Join Civil Military</text>
	</g>
	<g id="MTEXT_2_">
		<text transform="matrix(1 0 0 1 -647.3311 48.1445)" font-family="'CenturyGothic'" font-size="8.3513">VFR-Military</text>
	</g>
	<g id="INSERT_1_">
		<g id="CIRCLE_8_">
			
				<path fill="none" stroke="#2E3192" stroke-width="10" stroke-linecap="round" stroke-linejoin="round" stroke-miterlimit="10" d="
				M519.218-1036.518c0-76.291-61.83-138.121-138.125-138.121s-138.125,61.831-138.125,138.121
				c0,76.294,61.83,138.189,138.125,138.189S519.218-960.224,519.218-1036.518L519.218-1036.518z"/>
		</g>
		<g id="LWPOLYLINE_18_">
			<line fill="none" stroke="#2E3192" stroke-width="10" x1="381.093" y1="-863.432" x2="381.093" y2="-898.328"/>
		</g>
		<g id="LWPOLYLINE_17_">
			<line fill="none" stroke="#2E3192" stroke-width="10" x1="381.093" y1="-1174.639" x2="381.093" y2="-1214.511"/>
		</g>
		<g id="LWPOLYLINE_13_">
			<line fill="none" stroke="#2E3192" stroke-width="10" x1="205.62" y1="-1036.518" x2="242.968" y2="-1036.518"/>
		</g>
		<g id="LWPOLYLINE_1_">
			<line fill="none" stroke="#2E3192" stroke-width="10" x1="519.218" y1="-1036.518" x2="556.665" y2="-1036.518"/>
		</g>
	</g>
	<g id="CIRCLE_10_">
		<path fill="none" stroke="#2E3192" stroke-width="10" stroke-linecap="round" stroke-linejoin="round" stroke-miterlimit="10" d="
			M1396.687-519.574c0-76.291-61.83-138.121-138.125-138.121c-76.294,0-138.124,61.831-138.124,138.121
			c0,76.293,61.83,138.123,138.124,138.123C1334.856-381.451,1396.687-443.281,1396.687-519.574L1396.687-519.574z"/>
	</g>
	<g id="INSERT_2_">
		<g id="CIRCLE_4_">
			
				<path fill="none" stroke="#2E3192" stroke-width="10" stroke-linecap="round" stroke-linejoin="round" stroke-miterlimit="10" d="
				M667.333-531.742c0-76.291-61.83-138.122-138.125-138.122s-138.125,61.831-138.125,138.122
				c0,76.293,61.83,138.123,138.125,138.123S667.333-455.449,667.333-531.742L667.333-531.742z"/>
		</g>
	</g>
	<text transform="matrix(1 0 0 1 454.8867 -456.0977)" fill="#2E3192" font-family="'MyriadPro-Regular'" font-size="225.9887">H</text>
</g>
<g id="PLAN_VIEW">
	<g id="CIRCLE_270_">
		
			<path fill="#FFFFFF" stroke="#FFFFFF" stroke-width="0.5" stroke-linecap="round" stroke-linejoin="round" stroke-miterlimit="10" d="
			M-749.155,353.258c0-21.542-17.461-39.004-39.004-39.004c-21.55,0-39.02,17.462-39.02,39.004c0,21.543,17.469,39.012,39.02,39.012
			C-766.617,392.27-749.155,374.801-749.155,353.258L-749.155,353.258z"/>
	</g>
	<g id="HATCH_127_">
		<path fill-rule="evenodd" clip-rule="evenodd" fill="#231F20" d="M-775.947,319.972c0-0.769-0.622-1.406-1.398-1.406
			s-1.407,0.638-1.407,1.406c0,0.776,0.63,1.392,1.407,1.392S-775.947,320.748-775.947,319.972L-775.947,319.972z M-758.447,332.684
			c0-0.769-0.622-1.406-1.391-1.406c-0.776,0-1.399,0.638-1.399,1.406c0,0.776,0.623,1.399,1.399,1.399
			C-759.069,334.083-758.447,333.46-758.447,332.684L-758.447,332.684z M-762.005,328.511c0-0.776-0.63-1.406-1.407-1.406
			c-0.769,0-1.406,0.63-1.406,1.406s0.638,1.391,1.406,1.391C-762.636,329.901-762.005,329.287-762.005,328.511L-762.005,328.511z
			 M-776.047,327.381c0-0.769-0.623-1.398-1.399-1.398s-1.399,0.63-1.399,1.398s0.623,1.414,1.399,1.414
			S-776.047,328.149-776.047,327.381L-776.047,327.381z M-776.262,335.066c0-0.769-0.623-1.391-1.399-1.391
			c-0.776,0-1.398,0.622-1.398,1.391c0,0.776,0.623,1.406,1.398,1.406C-776.885,336.473-776.262,335.843-776.262,335.066
			L-776.262,335.066z M-771.205,329.979c0-0.769-0.623-1.406-1.399-1.406c-0.769,0-1.398,0.638-1.398,1.406
			c0,0.776,0.63,1.398,1.398,1.398C-771.828,331.377-771.205,330.755-771.205,329.979L-771.205,329.979z M-766.97,333.46
			c0-0.776-0.615-1.406-1.383-1.406c-0.776,0-1.407,0.63-1.407,1.406s0.63,1.392,1.407,1.392
			C-767.585,334.852-766.97,334.236-766.97,333.46L-766.97,333.46z M-766.194,324.937c0-0.769-0.615-1.391-1.391-1.391
			c-0.769,0-1.407,0.622-1.407,1.391s0.638,1.414,1.407,1.414C-766.809,326.351-766.194,325.705-766.194,324.937L-766.194,324.937z
			 M-770.875,322.063c0-0.776-0.623-1.398-1.399-1.398s-1.391,0.622-1.391,1.398c0,0.769,0.615,1.398,1.391,1.398
			S-770.875,322.831-770.875,322.063L-770.875,322.063z M-752.183,347.778c0-0.769-0.63-1.391-1.407-1.391
			c-0.769,0-1.391,0.622-1.391,1.391c0,0.776,0.623,1.414,1.391,1.414C-752.813,349.192-752.183,348.555-752.183,347.778
			L-752.183,347.778z M-753.467,342.444c0-0.769-0.63-1.398-1.406-1.398c-0.769,0-1.399,0.63-1.399,1.398s0.63,1.399,1.399,1.399
			C-754.097,343.844-753.467,343.213-753.467,342.444L-753.467,342.444z M-751.761,353.258c0-0.776-0.615-1.391-1.391-1.391
			c-0.776,0-1.406,0.614-1.406,1.391s0.63,1.407,1.406,1.407C-752.375,354.665-751.761,354.034-751.761,353.258L-751.761,353.258z
			 M-752.183,358.73c0-0.769-0.63-1.392-1.407-1.392c-0.769,0-1.391,0.623-1.391,1.392c0,0.776,0.623,1.406,1.391,1.406
			C-752.813,360.137-752.183,359.507-752.183,358.73L-752.183,358.73z M-759.292,347.794c0-0.769-0.638-1.406-1.414-1.406
			c-0.769,0-1.383,0.638-1.383,1.406c0,0.776,0.615,1.398,1.383,1.398C-759.93,349.192-759.292,348.57-759.292,347.794
			L-759.292,347.794z M-760.891,342.537c0-0.769-0.63-1.392-1.406-1.392c-0.769,0-1.399,0.623-1.399,1.392
			c0,0.776,0.63,1.406,1.399,1.406C-761.521,343.943-760.891,343.313-760.891,342.537L-760.891,342.537z M-771.912,338.409
			c0-0.775-0.63-1.406-1.399-1.406c-0.776,0-1.406,0.631-1.406,1.406c0,0.776,0.63,1.392,1.406,1.392
			C-772.542,339.801-771.912,339.186-771.912,338.409L-771.912,338.409z M-773.818,347.901c0-0.769-0.638-1.398-1.406-1.398
			c-0.776,0-1.406,0.63-1.406,1.398c0,0.784,0.63,1.398,1.406,1.398C-774.456,349.3-773.818,348.686-773.818,347.901
			L-773.818,347.901z M-776.869,343.359c0-0.776-0.615-1.406-1.391-1.406c-0.776,0-1.407,0.63-1.407,1.406s0.63,1.406,1.407,1.406
			C-777.484,344.766-776.869,344.136-776.869,343.359L-776.869,343.359z M-766.479,347.824c0-0.769-0.623-1.398-1.399-1.398
			c-0.769,0-1.406,0.63-1.406,1.398c0,0.784,0.638,1.399,1.406,1.399C-767.101,349.224-766.479,348.608-766.479,347.824
			L-766.479,347.824z M-768.569,342.752c0-0.769-0.63-1.384-1.407-1.384c-0.769,0-1.398,0.615-1.398,1.384
			c0,0.776,0.63,1.414,1.398,1.414C-769.199,344.166-768.569,343.528-768.569,342.752L-768.569,342.752z M-758.762,353.258
			c0-0.776-0.623-1.391-1.399-1.391c-0.769,0-1.398,0.614-1.398,1.391s0.63,1.407,1.398,1.407
			C-759.385,354.665-758.762,354.034-758.762,353.258L-758.762,353.258z M-765.756,353.258c0-0.776-0.63-1.391-1.399-1.391
			c-0.776,0-1.406,0.614-1.406,1.391s0.63,1.407,1.406,1.407C-766.386,354.665-765.756,354.034-765.756,353.258L-765.756,353.258z
			 M-759.292,358.723c0-0.776-0.638-1.398-1.414-1.398c-0.769,0-1.383,0.622-1.383,1.398c0,0.769,0.615,1.406,1.383,1.406
			C-759.93,360.129-759.292,359.491-759.292,358.723L-759.292,358.723z M-772.765,353.258c0-0.776-0.623-1.391-1.391-1.391
			c-0.784,0-1.414,0.614-1.414,1.391s0.63,1.407,1.414,1.407C-773.388,354.665-772.765,354.034-772.765,353.258L-772.765,353.258z
			 M-773.818,358.63c0-0.775-0.638-1.414-1.406-1.414c-0.776,0-1.406,0.639-1.406,1.414c0,0.769,0.63,1.392,1.406,1.392
			C-774.456,360.021-773.818,359.398-773.818,358.63L-773.818,358.63z M-766.479,358.707c0-0.776-0.623-1.414-1.399-1.414
			c-0.769,0-1.406,0.638-1.406,1.414c0,0.769,0.638,1.384,1.406,1.384C-767.101,360.091-766.479,359.476-766.479,358.707
			L-766.479,358.707z M-763.474,368.821c0-0.776-0.63-1.398-1.406-1.398c-0.769,0-1.399,0.622-1.399,1.398
			c0,0.769,0.63,1.406,1.399,1.406C-764.104,370.228-763.474,369.59-763.474,368.821L-763.474,368.821z M-758.447,373.848
			c0-0.776-0.622-1.414-1.391-1.414c-0.776,0-1.399,0.638-1.399,1.414c0,0.769,0.623,1.392,1.399,1.392
			C-759.069,375.239-758.447,374.616-758.447,373.848L-758.447,373.848z M-771.912,368.106c0-0.776-0.63-1.391-1.399-1.391
			c-0.776,0-1.406,0.614-1.406,1.391s0.63,1.406,1.406,1.406C-772.542,369.513-771.912,368.883-771.912,368.106L-771.912,368.106z
			 M-776.262,371.45c0-0.769-0.623-1.399-1.399-1.399c-0.776,0-1.398,0.631-1.398,1.399s0.623,1.398,1.398,1.398
			C-776.885,372.849-776.262,372.219-776.262,371.45L-776.262,371.45z M-766.97,373.071c0-0.776-0.615-1.406-1.383-1.406
			c-0.776,0-1.407,0.63-1.407,1.406s0.63,1.392,1.407,1.392C-767.585,374.463-766.97,373.848-766.97,373.071L-766.97,373.071z
			 M-776.047,379.136c0-0.769-0.623-1.414-1.399-1.414s-1.399,0.646-1.399,1.414s0.623,1.406,1.399,1.406
			S-776.047,379.904-776.047,379.136L-776.047,379.136z M-775.947,386.56c0-0.769-0.622-1.406-1.398-1.406s-1.407,0.638-1.407,1.406
			c0,0.776,0.63,1.398,1.407,1.398S-775.947,387.336-775.947,386.56L-775.947,386.56z M-770.875,384.454
			c0-0.769-0.623-1.407-1.399-1.407s-1.391,0.639-1.391,1.407c0,0.776,0.615,1.398,1.391,1.398S-770.875,385.23-770.875,384.454
			L-770.875,384.454z M-766.194,381.579c0-0.776-0.615-1.391-1.391-1.391c-0.769,0-1.407,0.614-1.407,1.391s0.638,1.406,1.407,1.406
			C-766.809,382.985-766.194,382.355-766.194,381.579L-766.194,381.579z M-771.205,376.553c0-0.769-0.623-1.406-1.399-1.406
			c-0.769,0-1.398,0.638-1.398,1.406c0,0.776,0.63,1.392,1.398,1.392C-771.828,377.944-771.205,377.329-771.205,376.553
			L-771.205,376.553z M-762.005,378.021c0-0.775-0.63-1.406-1.407-1.406c-0.769,0-1.406,0.631-1.406,1.406
			c0,0.776,0.638,1.392,1.406,1.392C-762.636,379.412-762.005,378.797-762.005,378.021L-762.005,378.021z M-755.573,369.159
			c0-0.776-0.623-1.406-1.398-1.406c-0.776,0-1.399,0.63-1.399,1.406s0.623,1.392,1.399,1.392
			C-756.195,370.551-755.573,369.936-755.573,369.159L-755.573,369.159z M-776.869,363.157c0-0.776-0.615-1.392-1.391-1.392
			c-0.776,0-1.407,0.615-1.407,1.392s0.63,1.406,1.407,1.406C-777.484,364.563-776.869,363.934-776.869,363.157L-776.869,363.157z
			 M-768.569,363.765c0-0.776-0.63-1.392-1.407-1.392c-0.769,0-1.398,0.615-1.398,1.392c0,0.769,0.63,1.406,1.398,1.406
			C-769.199,365.171-768.569,364.533-768.569,363.765L-768.569,363.765z M-760.891,363.979c0-0.769-0.63-1.398-1.406-1.398
			c-0.769,0-1.399,0.63-1.399,1.398s0.63,1.398,1.399,1.398C-761.521,365.378-760.891,364.748-760.891,363.979L-760.891,363.979z
			 M-753.467,364.087c0-0.776-0.63-1.414-1.406-1.414c-0.769,0-1.399,0.638-1.399,1.414c0,0.769,0.63,1.392,1.399,1.392
			C-754.097,365.479-753.467,364.855-753.467,364.087L-753.467,364.087z M-755.573,337.372c0-0.769-0.623-1.406-1.398-1.406
			c-0.776,0-1.399,0.638-1.399,1.406s0.623,1.398,1.399,1.398C-756.195,338.771-755.573,338.141-755.573,337.372L-755.573,337.372z
			 M-763.474,337.695c0-0.769-0.63-1.392-1.406-1.392c-0.769,0-1.399,0.623-1.399,1.392c0,0.775,0.63,1.414,1.399,1.414
			C-764.104,339.109-763.474,338.471-763.474,337.695L-763.474,337.695z M-781.289,318.688c0-0.776-0.623-1.406-1.399-1.406
			c-0.769,0-1.406,0.63-1.406,1.406s0.638,1.392,1.406,1.392C-781.911,320.08-781.289,319.465-781.289,318.688L-781.289,318.688z
			 M-786.761,318.25c0-0.769-0.623-1.398-1.398-1.398c-0.776,0-1.407,0.63-1.407,1.398c0,0.784,0.63,1.399,1.407,1.399
			C-787.383,319.649-786.761,319.034-786.761,318.25L-786.761,318.25z M-792.24,318.688c0-0.776-0.623-1.406-1.399-1.406
			s-1.399,0.63-1.399,1.406s0.623,1.392,1.399,1.392S-792.24,319.465-792.24,318.688L-792.24,318.688z M-797.582,319.972
			c0-0.769-0.63-1.406-1.398-1.406c-0.776,0-1.407,0.638-1.407,1.406c0,0.776,0.63,1.392,1.407,1.392
			C-798.212,321.363-797.582,320.748-797.582,319.972L-797.582,319.972z M-781.304,325.79c0-0.776-0.623-1.398-1.399-1.398
			s-1.399,0.622-1.399,1.398c0,0.769,0.623,1.406,1.399,1.406S-781.304,326.559-781.304,325.79L-781.304,325.79z M-786.761,325.244
			c0-0.769-0.623-1.391-1.398-1.391c-0.776,0-1.407,0.622-1.407,1.391c0,0.776,0.63,1.406,1.407,1.406
			C-787.383,326.65-786.761,326.021-786.761,325.244L-786.761,325.244z M-781.327,332.961c0-0.769-0.622-1.384-1.398-1.384
			s-1.399,0.615-1.399,1.384c0,0.783,0.623,1.414,1.399,1.414S-781.327,333.744-781.327,332.961L-781.327,332.961z
			 M-786.761,332.254c0-0.769-0.623-1.399-1.398-1.399c-0.776,0-1.407,0.631-1.407,1.399s0.63,1.406,1.407,1.406
			C-787.383,333.66-786.761,333.022-786.761,332.254L-786.761,332.254z M-792.233,325.79c0-0.776-0.623-1.398-1.398-1.398
			c-0.769,0-1.399,0.622-1.399,1.398c0,0.769,0.63,1.406,1.399,1.406C-792.855,327.196-792.233,326.559-792.233,325.79
			L-792.233,325.79z M-797.482,327.381c0-0.769-0.63-1.398-1.399-1.398s-1.406,0.63-1.406,1.398s0.638,1.414,1.406,1.414
			S-797.482,328.149-797.482,327.381L-797.482,327.381z M-792.202,332.961c0-0.769-0.623-1.384-1.398-1.384
			c-0.769,0-1.407,0.615-1.407,1.384c0,0.783,0.638,1.414,1.407,1.414C-792.825,334.375-792.202,333.744-792.202,332.961
			L-792.202,332.961z M-797.267,335.066c0-0.769-0.63-1.391-1.399-1.391c-0.776,0-1.399,0.622-1.399,1.391
			c0,0.776,0.623,1.406,1.399,1.406C-797.897,336.473-797.267,335.843-797.267,335.066L-797.267,335.066z M-807.35,324.937
			c0-0.769-0.623-1.391-1.391-1.391c-0.776,0-1.399,0.622-1.399,1.391s0.623,1.414,1.399,1.414
			C-807.973,326.351-807.35,325.705-807.35,324.937L-807.35,324.937z M-806.574,333.46c0-0.776-0.623-1.406-1.399-1.406
			c-0.769,0-1.391,0.63-1.391,1.406s0.623,1.392,1.391,1.392C-807.196,334.852-806.574,334.236-806.574,333.46L-806.574,333.46z
			 M-811.516,328.511c0-0.776-0.63-1.406-1.407-1.406c-0.769,0-1.398,0.63-1.398,1.406s0.63,1.391,1.398,1.391
			C-812.146,329.901-811.516,329.287-811.516,328.511L-811.516,328.511z M-815.082,332.684c0-0.769-0.63-1.406-1.398-1.406
			c-0.776,0-1.407,0.638-1.407,1.406c0,0.776,0.63,1.399,1.407,1.399C-815.712,334.083-815.082,333.46-815.082,332.684
			L-815.082,332.684z M-802.654,322.063c0-0.776-0.63-1.398-1.399-1.398c-0.776,0-1.406,0.622-1.406,1.398
			c0,0.769,0.63,1.398,1.406,1.398C-803.285,323.461-802.654,322.831-802.654,322.063L-802.654,322.063z M-802.324,329.979
			c0-0.769-0.623-1.406-1.399-1.406s-1.399,0.638-1.399,1.406c0,0.776,0.623,1.398,1.399,1.398S-802.324,330.755-802.324,329.979
			L-802.324,329.979z M-781.404,340.323c0-0.769-0.623-1.406-1.399-1.406c-0.776,0-1.398,0.638-1.398,1.406
			c0,0.776,0.623,1.398,1.398,1.398C-782.026,341.722-781.404,341.1-781.404,340.323L-781.404,340.323z M-786.761,339.263
			c0-0.776-0.623-1.406-1.398-1.406c-0.776,0-1.407,0.63-1.407,1.406c0,0.769,0.63,1.392,1.407,1.392
			C-787.383,340.654-786.761,340.031-786.761,339.263L-786.761,339.263z M-792.125,340.323c0-0.769-0.623-1.406-1.391-1.406
			c-0.776,0-1.407,0.638-1.407,1.406c0,0.776,0.63,1.398,1.407,1.398C-792.748,341.722-792.125,341.1-792.125,340.323
			L-792.125,340.323z M-799.703,347.901c0-0.769-0.63-1.398-1.399-1.398c-0.776,0-1.398,0.63-1.398,1.398
			c0,0.784,0.623,1.398,1.398,1.398C-800.333,349.3-799.703,348.686-799.703,347.901L-799.703,347.901z M-796.66,343.359
			c0-0.776-0.638-1.406-1.414-1.406c-0.769,0-1.391,0.63-1.391,1.406s0.623,1.406,1.391,1.406
			C-797.297,344.766-796.66,344.136-796.66,343.359L-796.66,343.359z M-799.703,358.63c0-0.775-0.63-1.414-1.399-1.414
			c-0.776,0-1.398,0.639-1.398,1.414c0,0.769,0.623,1.392,1.398,1.392C-800.333,360.021-799.703,359.398-799.703,358.63
			L-799.703,358.63z M-807.058,347.824c0-0.769-0.63-1.398-1.399-1.398c-0.776,0-1.398,0.63-1.398,1.398
			c0,0.784,0.623,1.399,1.398,1.399C-807.688,349.224-807.058,348.608-807.058,347.824L-807.058,347.824z M-804.96,342.752
			c0-0.769-0.623-1.384-1.391-1.384c-0.776,0-1.399,0.615-1.399,1.384c0,0.776,0.623,1.414,1.399,1.414
			C-805.583,344.166-804.96,343.528-804.96,342.752L-804.96,342.752z M-821.338,347.778c0-0.769-0.63-1.391-1.406-1.391
			c-0.769,0-1.399,0.622-1.399,1.391c0,0.776,0.63,1.414,1.399,1.414C-821.968,349.192-821.338,348.555-821.338,347.778
			L-821.338,347.778z M-820.062,342.444c0-0.769-0.623-1.398-1.399-1.398c-0.769,0-1.406,0.63-1.406,1.398s0.638,1.399,1.406,1.399
			C-820.685,343.844-820.062,343.213-820.062,342.444L-820.062,342.444z M-814.236,347.794c0-0.769-0.623-1.406-1.391-1.406
			c-0.776,0-1.414,0.638-1.414,1.406c0,0.776,0.638,1.398,1.414,1.398C-814.859,349.192-814.236,348.57-814.236,347.794
			L-814.236,347.794z M-812.638,342.537c0-0.769-0.63-1.392-1.407-1.392c-0.769,0-1.398,0.623-1.398,1.392
			c0,0.776,0.63,1.406,1.398,1.406C-813.268,343.943-812.638,343.313-812.638,342.537L-812.638,342.537z M-807.773,353.258
			c0-0.776-0.623-1.391-1.399-1.391c-0.776,0-1.391,0.614-1.391,1.391s0.615,1.407,1.391,1.407
			C-808.396,354.665-807.773,354.034-807.773,353.258L-807.773,353.258z M-807.058,358.707c0-0.776-0.63-1.414-1.399-1.414
			c-0.776,0-1.398,0.638-1.398,1.414c0,0.769,0.623,1.384,1.398,1.384C-807.688,360.091-807.058,359.476-807.058,358.707
			L-807.058,358.707z M-814.782,353.258c0-0.776-0.623-1.391-1.391-1.391c-0.776,0-1.398,0.614-1.398,1.391s0.623,1.407,1.398,1.407
			C-815.405,354.665-814.782,354.034-814.782,353.258L-814.782,353.258z M-821.776,353.258c0-0.776-0.623-1.391-1.399-1.391
			c-0.769,0-1.399,0.614-1.399,1.391s0.63,1.407,1.399,1.407C-822.398,354.665-821.776,354.034-821.776,353.258L-821.776,353.258z
			 M-821.338,358.73c0-0.769-0.63-1.392-1.406-1.392c-0.769,0-1.399,0.623-1.399,1.392c0,0.776,0.63,1.406,1.399,1.406
			C-821.968,360.137-821.338,359.507-821.338,358.73L-821.338,358.73z M-814.236,358.723c0-0.776-0.623-1.398-1.391-1.398
			c-0.776,0-1.414,0.622-1.414,1.398c0,0.769,0.638,1.406,1.414,1.406C-814.859,360.129-814.236,359.491-814.236,358.723
			L-814.236,358.723z M-801.617,338.409c0-0.775-0.63-1.406-1.407-1.406c-0.769,0-1.398,0.631-1.398,1.406
			c0,0.776,0.63,1.392,1.398,1.392C-802.247,339.801-801.617,339.186-801.617,338.409L-801.617,338.409z M-800.764,353.258
			c0-0.776-0.638-1.391-1.406-1.391c-0.776,0-1.399,0.614-1.399,1.391s0.623,1.407,1.399,1.407
			C-801.401,354.665-800.764,354.034-800.764,353.258L-800.764,353.258z M-781.404,366.208c0-0.776-0.623-1.414-1.399-1.414
			c-0.776,0-1.398,0.638-1.398,1.414c0,0.769,0.623,1.392,1.398,1.392C-782.026,367.6-781.404,366.977-781.404,366.208
			L-781.404,366.208z M-786.761,367.254c0-0.769-0.623-1.392-1.398-1.392c-0.776,0-1.407,0.623-1.407,1.392
			c0,0.775,0.63,1.414,1.407,1.414C-787.383,368.668-786.761,368.029-786.761,367.254L-786.761,367.254z M-781.327,373.556
			c0-0.776-0.622-1.414-1.398-1.414s-1.399,0.638-1.399,1.414c0,0.769,0.623,1.384,1.399,1.384S-781.327,374.324-781.327,373.556
			L-781.327,373.556z M-786.761,374.263c0-0.769-0.623-1.391-1.398-1.391c-0.776,0-1.407,0.622-1.407,1.391s0.63,1.406,1.407,1.406
			C-787.383,375.669-786.761,375.031-786.761,374.263L-786.761,374.263z M-792.125,366.208c0-0.776-0.623-1.414-1.391-1.414
			c-0.776,0-1.407,0.638-1.407,1.414c0,0.769,0.63,1.392,1.407,1.392C-792.748,367.6-792.125,366.977-792.125,366.208
			L-792.125,366.208z M-792.202,373.556c0-0.776-0.623-1.414-1.398-1.414c-0.769,0-1.407,0.638-1.407,1.414
			c0,0.769,0.638,1.384,1.407,1.384C-792.825,374.939-792.202,374.324-792.202,373.556L-792.202,373.556z M-797.267,371.45
			c0-0.769-0.63-1.399-1.399-1.399c-0.776,0-1.399,0.631-1.399,1.399s0.623,1.398,1.399,1.398
			C-797.897,372.849-797.267,372.219-797.267,371.45L-797.267,371.45z M-781.304,380.727c0-0.769-0.623-1.406-1.399-1.406
			s-1.399,0.638-1.399,1.406c0,0.776,0.623,1.406,1.399,1.406S-781.304,381.503-781.304,380.727L-781.304,380.727z
			 M-786.761,381.271c0-0.769-0.623-1.406-1.398-1.406c-0.776,0-1.407,0.638-1.407,1.406s0.63,1.399,1.407,1.399
			C-787.383,382.671-786.761,382.04-786.761,381.271L-786.761,381.271z M-781.289,387.843c0-0.776-0.623-1.406-1.399-1.406
			c-0.769,0-1.406,0.63-1.406,1.406s0.638,1.392,1.406,1.392C-781.911,389.234-781.289,388.619-781.289,387.843L-781.289,387.843z
			 M-786.761,388.266c0-0.776-0.623-1.398-1.398-1.398c-0.776,0-1.407,0.622-1.407,1.398c0,0.769,0.63,1.406,1.407,1.406
			C-787.383,389.672-786.761,389.034-786.761,388.266L-786.761,388.266z M-792.233,380.727c0-0.769-0.623-1.406-1.398-1.406
			c-0.769,0-1.399,0.638-1.399,1.406c0,0.776,0.63,1.406,1.399,1.406C-792.855,382.133-792.233,381.503-792.233,380.727
			L-792.233,380.727z M-797.482,379.136c0-0.769-0.63-1.414-1.399-1.414s-1.406,0.646-1.406,1.414s0.638,1.406,1.406,1.406
			S-797.482,379.904-797.482,379.136L-797.482,379.136z M-792.24,387.843c0-0.776-0.623-1.406-1.399-1.406s-1.399,0.63-1.399,1.406
			s0.623,1.392,1.399,1.392S-792.24,388.619-792.24,387.843L-792.24,387.843z M-797.582,386.56c0-0.769-0.63-1.406-1.398-1.406
			c-0.776,0-1.407,0.638-1.407,1.406c0,0.776,0.63,1.398,1.407,1.398C-798.212,387.958-797.582,387.336-797.582,386.56
			L-797.582,386.56z M-810.056,368.821c0-0.776-0.623-1.398-1.398-1.398c-0.769,0-1.391,0.622-1.391,1.398
			c0,0.769,0.623,1.406,1.391,1.406C-810.678,370.228-810.056,369.59-810.056,368.821L-810.056,368.821z M-806.574,373.071
			c0-0.776-0.623-1.406-1.399-1.406c-0.769,0-1.391,0.63-1.391,1.406s0.623,1.392,1.391,1.392
			C-807.196,374.463-806.574,373.848-806.574,373.071L-806.574,373.071z M-815.082,373.848c0-0.776-0.63-1.414-1.398-1.414
			c-0.776,0-1.407,0.638-1.407,1.414c0,0.769,0.63,1.392,1.407,1.392C-815.712,375.239-815.082,374.616-815.082,373.848
			L-815.082,373.848z M-817.964,369.159c0-0.776-0.623-1.406-1.399-1.406s-1.398,0.63-1.398,1.406s0.622,1.392,1.398,1.392
			S-817.964,369.936-817.964,369.159L-817.964,369.159z M-807.35,381.579c0-0.776-0.623-1.391-1.391-1.391
			c-0.776,0-1.399,0.614-1.399,1.391s0.623,1.406,1.399,1.406C-807.973,382.985-807.35,382.355-807.35,381.579L-807.35,381.579z
			 M-811.516,378.021c0-0.775-0.63-1.406-1.407-1.406c-0.769,0-1.398,0.631-1.398,1.406c0,0.776,0.63,1.392,1.398,1.392
			C-812.146,379.412-811.516,378.797-811.516,378.021L-811.516,378.021z M-801.617,368.106c0-0.776-0.63-1.391-1.407-1.391
			c-0.769,0-1.398,0.614-1.398,1.391s0.63,1.406,1.398,1.406C-802.247,369.513-801.617,368.883-801.617,368.106L-801.617,368.106z
			 M-802.324,376.553c0-0.769-0.623-1.406-1.399-1.406s-1.399,0.638-1.399,1.406c0,0.776,0.623,1.392,1.399,1.392
			S-802.324,377.329-802.324,376.553L-802.324,376.553z M-802.654,384.454c0-0.769-0.63-1.407-1.399-1.407
			c-0.776,0-1.406,0.639-1.406,1.407c0,0.776,0.63,1.398,1.406,1.398C-803.285,385.853-802.654,385.23-802.654,384.454
			L-802.654,384.454z M-796.66,363.157c0-0.776-0.638-1.392-1.414-1.392c-0.769,0-1.391,0.615-1.391,1.392s0.623,1.406,1.391,1.406
			C-797.297,364.563-796.66,363.934-796.66,363.157L-796.66,363.157z M-812.638,363.979c0-0.769-0.63-1.398-1.407-1.398
			c-0.769,0-1.398,0.63-1.398,1.398s0.63,1.398,1.398,1.398C-813.268,365.378-812.638,364.748-812.638,363.979L-812.638,363.979z
			 M-820.062,364.087c0-0.776-0.623-1.414-1.399-1.414c-0.769,0-1.406,0.638-1.406,1.414c0,0.769,0.638,1.392,1.406,1.392
			C-820.685,365.479-820.062,364.855-820.062,364.087L-820.062,364.087z M-804.96,363.765c0-0.776-0.623-1.392-1.391-1.392
			c-0.776,0-1.399,0.615-1.399,1.392c0,0.769,0.623,1.406,1.399,1.406C-805.583,365.171-804.96,364.533-804.96,363.765
			L-804.96,363.765z M-817.964,337.372c0-0.769-0.623-1.406-1.399-1.406s-1.398,0.638-1.398,1.406s0.622,1.398,1.398,1.398
			S-817.964,338.141-817.964,337.372L-817.964,337.372z M-810.056,337.695c0-0.769-0.623-1.392-1.398-1.392
			c-0.769,0-1.391,0.623-1.391,1.392c0,0.775,0.623,1.414,1.391,1.414C-810.678,339.109-810.056,338.471-810.056,337.695
			L-810.056,337.695z"/>
	</g>
	<g id="CIRCLE_160_">
		
			<path fill="#231F20" stroke="#231F20" stroke-width="0.5" stroke-linecap="round" stroke-linejoin="round" stroke-miterlimit="10" d="
			M-786.599,353.258c0-0.86-0.707-1.56-1.56-1.56c-0.861,0-1.561,0.699-1.561,1.56c0,0.869,0.7,1.561,1.561,1.561
			C-787.306,354.818-786.599,354.127-786.599,353.258L-786.599,353.258z"/>
	</g>
	<g>
		<g id="LWPOLYLINE_549_">
			
				<rect x="-819.466" y="420.944" fill="#FFFFFF" stroke="#FFFFFF" stroke-width="0.5" stroke-miterlimit="10" width="76.917" height="76.917"/>
		</g>
		<g id="LWPOLYLINE_1809_">
			<polygon fill="none" stroke="#231F20" stroke-width="0.5" stroke-miterlimit="10" points="-796.541,432.504 -812.073,459.403 
				-796.541,486.303 -765.483,486.303 -749.943,459.403 -765.483,432.504 			"/>
		</g>
		<g id="LWPOLYLINE_1810_">
			
				<rect x="-815.624" y="424.787" fill="none" stroke="#231F20" stroke-width="0.5" stroke-miterlimit="10" width="69.231" height="69.231"/>
		</g>
		<g id="CIRCLE_287_">
			
				<path fill="#231F20" stroke="#231F20" stroke-width="0.5" stroke-linecap="round" stroke-linejoin="round" stroke-miterlimit="10" d="
				M-778.81,459.403c0-1.215-0.983-2.198-2.198-2.198s-2.198,0.983-2.198,2.198c0,1.214,0.984,2.198,2.198,2.198
				S-778.81,460.617-778.81,459.403L-778.81,459.403z"/>
		</g>
	</g>
	<g>
		<g>
			<g id="CIRCLE_285_" opacity="0.5">
				
					<path fill="#FFFFFF" stroke="#FFFFFF" stroke-width="0.7087" stroke-linecap="round" stroke-linejoin="round" stroke-miterlimit="10" d="
					M-693.374,627.832c0-48.442-39.262-87.692-87.692-87.692c-48.438,0-87.692,39.25-87.692,87.692
					c0,48.427,39.254,87.692,87.692,87.692C-732.635,715.524-693.374,676.259-693.374,627.832L-693.374,627.832z"/>
			</g>
			<g id="LWPOLYLINE_1628_">
				
					<line fill="none" stroke="#231F20" stroke-width="0.1" stroke-miterlimit="10" x1="-730.868" y1="568.008" x2="-726.402" y2="562.682"/>
			</g>
			<g id="LWPOLYLINE_1627_">
				
					<line fill="none" stroke="#231F20" stroke-width="0.1" stroke-miterlimit="10" x1="-721.245" y1="577.638" x2="-715.22" y2="572.581"/>
			</g>
			<g id="LWPOLYLINE_1624_">
				
					<line fill="none" stroke="#231F20" stroke-width="0.1" stroke-miterlimit="10" x1="-707.688" y1="601.125" x2="-700.291" y2="598.435"/>
			</g>
			<g id="LWPOLYLINE_1621_">
				
					<line fill="none" stroke="#231F20" stroke-width="0.1" stroke-miterlimit="10" x1="-697.313" y1="642.596" x2="-704.16" y2="641.39"/>
			</g>
			<g id="LWPOLYLINE_1620_">
				
					<line fill="none" stroke="#231F20" stroke-width="0.1" stroke-miterlimit="10" x1="-704.16" y1="614.267" x2="-696.421" y2="612.899"/>
			</g>
			<g id="LWPOLYLINE_1619_">
				
					<line fill="none" stroke="#231F20" stroke-width="0.1" stroke-miterlimit="10" x1="-701.147" y1="656.922" x2="-707.688" y2="654.539"/>
			</g>
			<g id="LWPOLYLINE_1618_">
				
					<line fill="none" stroke="#231F20" stroke-width="0.1" stroke-miterlimit="10" x1="-715.912" y1="682.499" x2="-721.245" y2="678.026"/>
			</g>
			<g id="LWPOLYLINE_1617_">
				
					<line fill="none" stroke="#231F20" stroke-width="0.1" stroke-miterlimit="10" x1="-726.402" y1="692.975" x2="-730.868" y2="687.656"/>
			</g>
			<g id="LWPOLYLINE_1616_">
				
					<line fill="none" stroke="#231F20" stroke-width="0.1" stroke-miterlimit="10" x1="-754.358" y1="554.442" x2="-751.976" y2="547.91"/>
			</g>
			<g id="LWPOLYLINE_1615_">
				
					<line fill="none" stroke="#231F20" stroke-width="0.1" stroke-miterlimit="10" x1="-767.5" y1="550.931" x2="-766.298" y2="544.083"/>
			</g>
			<g id="LWPOLYLINE_1614_">
				
					<line fill="none" stroke="#231F20" stroke-width="0.1" stroke-miterlimit="10" x1="-794.63" y1="550.931" x2="-795.995" y2="543.176"/>
			</g>
			<g id="LWPOLYLINE_1612_">
				
					<line fill="none" stroke="#231F20" stroke-width="0.1" stroke-miterlimit="10" x1="-807.773" y1="554.442" x2="-810.463" y2="547.057"/>
			</g>
			<g id="LWPOLYLINE_1610_">
				
					<line fill="none" stroke="#231F20" stroke-width="0.1" stroke-miterlimit="10" x1="-831.264" y1="568.008" x2="-836.325" y2="561.99"/>
			</g>
			<g id="LWPOLYLINE_1609_">
				
					<line fill="none" stroke="#231F20" stroke-width="0.1" stroke-miterlimit="10" x1="-840.886" y1="577.638" x2="-846.22" y2="573.157"/>
			</g>
			<g id="LWPOLYLINE_1606_">
				
					<line fill="none" stroke="#231F20" stroke-width="0.1" stroke-miterlimit="10" x1="-854.443" y1="601.125" x2="-860.984" y2="598.742"/>
			</g>
			<g id="LWPOLYLINE_1605_">
				
					<line fill="none" stroke="#231F20" stroke-width="0.1" stroke-miterlimit="10" x1="-864.819" y1="642.596" x2="-857.971" y2="641.39"/>
			</g>
			<g id="LWPOLYLINE_1604_">
				
					<line fill="none" stroke="#231F20" stroke-width="0.1" stroke-miterlimit="10" x1="-857.971" y1="614.267" x2="-864.819" y2="613.068"/>
			</g>
			<g id="LWPOLYLINE_1601_">
				
					<line fill="none" stroke="#231F20" stroke-width="0.1" stroke-miterlimit="10" x1="-846.22" y1="682.499" x2="-840.886" y2="678.026"/>
			</g>
			<g id="LWPOLYLINE_1600_">
				
					<line fill="none" stroke="#231F20" stroke-width="0.1" stroke-miterlimit="10" x1="-835.729" y1="692.975" x2="-831.264" y2="687.656"/>
			</g>
			<g id="LWPOLYLINE_1599_">
				
					<line fill="none" stroke="#231F20" stroke-width="0.1" stroke-miterlimit="10" x1="-860.984" y1="656.922" x2="-854.443" y2="654.539"/>
			</g>
			<g id="LWPOLYLINE_1598_">
				
					<line fill="none" stroke="#231F20" stroke-width="0.1" stroke-miterlimit="10" x1="-766.298" y1="711.581" x2="-767.5" y2="704.733"/>
			</g>
			<g id="LWPOLYLINE_1597_">
				
					<line fill="none" stroke="#231F20" stroke-width="0.1" stroke-miterlimit="10" x1="-795.841" y1="711.581" x2="-794.63" y2="704.733"/>
			</g>
			<g id="LWPOLYLINE_1596_">
				
					<line fill="none" stroke="#231F20" stroke-width="0.1" stroke-miterlimit="10" x1="-751.976" y1="707.754" x2="-754.358" y2="701.206"/>
			</g>
			<g id="LWPOLYLINE_1595_">
				
					<line fill="none" stroke="#231F20" stroke-width="0.1" stroke-miterlimit="10" x1="-810.155" y1="707.754" x2="-807.773" y2="701.206"/>
			</g>
			<g id="LWPOLYLINE_1775_">
				
					<line fill="none" stroke="#231F20" stroke-width="0.25" stroke-miterlimit="10" x1="-707.419" y1="585.3" x2="-720.139" y2="592.655"/>
			</g>
			<g id="LWPOLYLINE_1780_">
				
					<line fill="none" stroke="#231F20" stroke-width="0.25" stroke-miterlimit="10" x1="-707.304" y1="670.418" x2="-717.91" y2="664.292"/>
			</g>
			<g id="LWPOLYLINE_1789_">
				
					<line fill="none" stroke="#231F20" stroke-width="0.25" stroke-miterlimit="10" x1="-738.642" y1="554.358" x2="-745.885" y2="566.908"/>
			</g>
			<g id="LWPOLYLINE_1790_">
				
					<line fill="none" stroke="#231F20" stroke-width="0.25" stroke-miterlimit="10" x1="-816.246" y1="566.908" x2="-823.586" y2="554.174"/>
			</g>
			<g id="LWPOLYLINE_1794_">
				
					<line fill="none" stroke="#231F20" stroke-width="0.25" stroke-miterlimit="10" x1="-842.101" y1="592.832" x2="-854.82" y2="585.484"/>
			</g>
			<g id="LWPOLYLINE_1795_">
				
					<line fill="none" stroke="#231F20" stroke-width="0.25" stroke-miterlimit="10" x1="-738.545" y1="701.482" x2="-745.885" y2="688.755"/>
			</g>
			<g id="LWPOLYLINE_1798_">
				
					<line fill="none" stroke="#231F20" stroke-width="0.25" stroke-miterlimit="10" x1="-816.246" y1="688.755" x2="-823.693" y2="701.659"/>
			</g>
			<g id="LWPOLYLINE_1800_">
				
					<line fill="none" stroke="#231F20" stroke-width="0.25" stroke-miterlimit="10" x1="-841.993" y1="663.001" x2="-854.72" y2="670.356"/>
			</g>
			<g id="HATCH_43_">
				<polygon fill-rule="evenodd" clip-rule="evenodd" fill="#231F20" points="-776.404,695.203 -785.581,695.211 -781.065,711.966 
									"/>
			</g>
			<g id="ARC_326_">
				<path fill="#231F20" d="M-785.581,695.227c3.055,0.2,6.118,0.2,9.177-0.016"/>
			</g>
			<g id="LINE_56_">
				<line fill="#231F20" x1="-782.076" y1="695.365" x2="-779.913" y2="695.365"/>
			</g>
			<g id="LINE_54_">
				<line fill="#231F20" x1="-782.076" y1="682.699" x2="-779.913" y2="682.699"/>
			</g>
			<g id="HATCH_41_">
				<polygon fill-rule="evenodd" clip-rule="evenodd" fill="#231F20" points="-713.683,623.175 -713.675,632.336 -696.928,627.832 
									"/>
			</g>
			<g id="ARC_325_">
				<path fill="#231F20" d="M-713.675,632.344c0.204-3.052,0.204-6.118-0.008-9.169"/>
			</g>
			<g id="LINE_48_">
				<line fill="#231F20" x1="-713.529" y1="628.839" x2="-713.529" y2="626.672"/>
			</g>
			<g id="LWPOLYLINE_1229_">
				<line fill="#231F20" x1="-781.065" y1="543.698" x2="-776.55" y2="560.438"/>
			</g>
			<g id="LWPOLYLINE_1228_">
				<line fill="#231F20" x1="-785.734" y1="560.453" x2="-781.065" y2="543.698"/>
			</g>
			<g id="HATCH_39_">
				<polygon fill-rule="evenodd" clip-rule="evenodd" fill="#231F20" points="-785.734,560.453 -776.55,560.453 -781.065,543.698 
									"/>
			</g>
			<g id="ARC_324_">
				<path fill="#231F20" d="M-776.55,560.438c-3.055-0.2-6.129-0.2-9.184,0.016"/>
			</g>
			<g id="LINE_40_">
				<line fill="#231F20" x1="-780.055" y1="560.284" x2="-782.218" y2="560.284"/>
			</g>
			<g id="LWPOLYLINE_1227_">
				<line fill="#231F20" x1="-865.203" y1="627.832" x2="-848.457" y2="623.32"/>
			</g>
			<g id="LWPOLYLINE_1226_">
				<line fill="#231F20" x1="-848.449" y1="632.489" x2="-865.203" y2="627.832"/>
			</g>
			<g id="HATCH_37_">
				<polygon fill-rule="evenodd" clip-rule="evenodd" fill="#231F20" points="-848.449,632.489 -848.457,623.306 -865.203,627.832 
									"/>
			</g>
			<g id="ARC_323_">
				<path fill="#231F20" d="M-848.457,623.32c-0.204,3.052-0.204,6.118,0.008,9.169"/>
			</g>
			<g id="LINE_9_">
				<line fill="#231F20" x1="-848.603" y1="626.825" x2="-848.603" y2="628.984"/>
			</g>
			<g id="LINE_5_">
				<line fill="#231F20" x1="-835.929" y1="626.825" x2="-835.929" y2="628.984"/>
			</g>
			<g id="LWPOLYLINE_1772_">
				
					<path fill="none" stroke="#231F20" stroke-width="0.25" stroke-linecap="round" stroke-linejoin="round" stroke-miterlimit="10" d="
					M-695.91,626.18c-0.911-47.036-39.773-84.418-86.808-83.504c-47.036,0.915-84.415,39.773-83.504,86.809
					c0.911,47.028,39.773,84.418,86.809,83.504c46.382-0.899,83.522-38.767,83.522-85.156
					C-695.891,627.271-695.898,626.726-695.91,626.18z"/>
			</g>
			<g id="TEXT_88_">
				<text transform="matrix(1 0 0 1 -784.4829 573.2314)" fill="#231F20" font-family="'Verdana'" font-size="11.9286">0</text>
			</g>
			<g id="TEXT_89_">
				<text transform="matrix(1 0 0 1 -730.2681 632.0244)" fill="#231F20" font-family="'Verdana'" font-size="11.9286">90</text>
			</g>
			<g id="TEXT_90_">
				<text transform="matrix(1 0 0 1 -789.8071 690.4033)" fill="#231F20" font-family="'Verdana'" font-size="11.9286">180</text>
			</g>
			<g id="TEXT_91_">
				<text transform="matrix(1 0 0 1 -844.4673 632.0244)" fill="#231F20" font-family="'Verdana'" font-size="11.9286">270</text>
			</g>
		</g>
		<path fill="#231F20" stroke="#231F20" stroke-width="0.1" d="M-779.609,627.763c0,0.8-0.653,1.453-1.456,1.453
			c-0.803,0-1.457-0.653-1.457-1.453c0-0.799,0.653-1.46,1.457-1.46C-780.263,626.303-779.609,626.964-779.609,627.763z"/>
	</g>
</g>
<g id="WAYPOINT_SYMBOL">
	<g>
		<g id="LWPOLYLINE_19_">
			<polygon fill="#FFFFFF" stroke="#FFFFFF" stroke-width="0.5" stroke-miterlimit="10" points="-514.535,714.379 -485.083,663.378 
				-455.648,714.379 			"/>
		</g>
		<g id="LWPOLYLINE_12_">
			<polygon fill="#231F20" stroke="#231F20" stroke-width="0.5" stroke-miterlimit="10" points="-508.939,711.151 -485.083,669.841 
				-461.243,711.151 			"/>
		</g>
		<g id="CIRCLE_11_">
			
				<path fill="#FFFFFF" stroke="#FFFFFF" stroke-width="0.5" stroke-linecap="round" stroke-linejoin="round" stroke-miterlimit="10" d="
				M-483.254,697.379c0-1.015-0.83-1.829-1.829-1.829c-1.015,0-1.845,0.814-1.845,1.829c0,1.014,0.83,1.837,1.845,1.837
				C-484.084,699.216-483.254,698.393-483.254,697.379L-483.254,697.379z"/>
		</g>
	</g>
	<g>
		<g id="LWPOLYLINE_11_">
			<polygon fill="#FFFFFF" stroke="#FFFFFF" stroke-width="0.5" stroke-miterlimit="10" points="-424.122,713.165 -394.671,662.147 
				-365.235,713.165 			"/>
		</g>
		<g id="LWPOLYLINE_10_">
			<polygon fill="#FFFFFF" stroke="#231F20" stroke-width="0.5" stroke-miterlimit="10" points="-418.527,709.929 -394.671,668.619 
				-370.831,709.929 			"/>
		</g>
		<g id="CIRCLE_7_">
			
				<path fill="#231F20" stroke="#231F20" stroke-width="0.5" stroke-linecap="round" stroke-linejoin="round" stroke-miterlimit="10" d="
				M-392.842,696.164c0-1.022-0.83-1.845-1.829-1.845c-1.015,0-1.845,0.822-1.845,1.845c0,1.007,0.83,1.829,1.845,1.829
				C-393.672,697.993-392.842,697.171-392.842,696.164L-392.842,696.164z"/>
		</g>
	</g>
</g>
<g id="Wpt_Symbol">
	<g>
		<g id="LWPOLYLINE_73_">
			<polygon fill="#FFFFFF" points="-500.374,521.764 -540.131,536.051 -500.374,550.339 -486.086,590.096 -471.795,550.339 
				-432.038,536.051 -471.795,521.764 -486.086,481.999 			"/>
		</g>
		<g id="HATCH_57_">
			<path fill-rule="evenodd" clip-rule="evenodd" fill="#FFFFFF" d="M-476.191,526.152l-9.888-27.561l-9.907,27.561l-27.541,9.898
				l27.541,9.907l9.907,27.537l9.888-27.537l27.56-9.907L-476.191,526.152z M-474.939,536.051h-22.284H-474.939z"/>
		</g>
		<g id="LWPOLYLINE_58_">
			<polygon fill="none" stroke="#231F20" stroke-width="0.5" stroke-linecap="round" stroke-miterlimit="10" points="
				-495.986,526.152 -523.535,536.051 -495.986,545.95 -486.086,573.495 -476.184,545.95 -448.639,536.051 -476.184,526.152 
				-486.086,498.6 			"/>
		</g>
		<g id="CIRCLE_26_">
			
				<path fill="none" stroke="#231F20" stroke-width="0.5" stroke-linecap="round" stroke-linejoin="round" stroke-miterlimit="10" d="
				M-474.939,536.051c0-6.155-4.992-11.144-11.147-11.144c-6.152,0-11.144,4.988-11.144,11.144c0,6.156,4.992,11.145,11.144,11.145
				C-479.931,547.195-474.939,542.207-474.939,536.051L-474.939,536.051z"/>
		</g>
	</g>
	<g>
		<g id="LWPOLYLINE_52_">
			<polygon fill="#FFFFFF" points="-319.014,521.68 -358.764,535.959 -319.014,550.246 -304.727,589.996 -290.439,550.246 
				-250.69,535.959 -290.439,521.68 -304.727,481.922 			"/>
		</g>
		<g id="HATCH_22_">
			<path fill-rule="evenodd" clip-rule="evenodd" fill="#FFFFFF" d="M-294.835,526.075l-9.892-27.553l-9.899,27.553l-27.537,9.876
				l27.537,9.907l9.899,27.545l9.892-27.545l27.552-9.907L-294.835,526.075z M-293.583,535.951h-22.28H-293.583z"/>
		</g>
		<path fill="#FFFFFF" d="M-356.639,535.959c0-28.659,23.241-51.9,51.908-51.9c28.667,0,51.904,23.241,51.904,51.9
			c0,28.675-23.237,51.908-51.904,51.908C-333.398,587.867-356.639,564.634-356.639,535.959z"/>
		<g id="LWPOLYLINE_51_">
			<polygon fill="#231F20" stroke="#231F20" stroke-width="0.5" stroke-linecap="round" stroke-miterlimit="10" points="
				-314.626,526.06 -342.171,535.959 -314.626,545.858 -304.727,573.403 -294.828,545.858 -267.291,535.959 -294.828,526.06 
				-304.727,498.522 			"/>
		</g>
		<path fill="none" stroke="#231F20" stroke-width="0.5" stroke-linecap="round" stroke-miterlimit="10" d="M-345.91,535.959
			c0-22.741,18.438-41.172,41.179-41.172c22.742,0,41.179,18.431,41.179,41.172c0,22.749-18.438,41.179-41.179,41.179
			C-327.472,577.138-345.91,558.708-345.91,535.959z"/>
		<g id="CIRCLE_9_">
			
				<path fill="#FFFFFF" stroke="#FFFFFF" stroke-width="0.5" stroke-linecap="round" stroke-linejoin="round" stroke-miterlimit="10" d="
				M-293.583,535.959c0-6.148-4.988-11.145-11.144-11.145s-11.144,4.996-11.144,11.145c0,6.156,4.988,11.144,11.144,11.144
				S-293.583,542.115-293.583,535.959L-293.583,535.959z"/>
		</g>
	</g>
</g>
<g id="BASEMAP">
	<g id="LWPOLYLINE_291_">
		<polyline fill="none" stroke="#2E3191" stroke-width="8" stroke-miterlimit="10" points="-337.848,0 -391.634,-132.387 
			-444.731,0 		"/>
	</g>
	<g id="LINE_83_">
		
			<line fill="none" stroke="#2E3191" stroke-width="8" stroke-miterlimit="10" x1="-417.089" y1="-132.387" x2="-467.483" y2="-132.387"/>
	</g>
	<g id="LINE_82_">
		
			<line fill="none" stroke="#2E3191" stroke-width="8" stroke-miterlimit="10" x1="-414.017" y1="-143.96" x2="-455.049" y2="-173.848"/>
	</g>
	<g id="LINE_81_">
		
			<line fill="none" stroke="#2E3191" stroke-width="8" stroke-miterlimit="10" x1="-391.634" y1="-155.794" x2="-391.634" y2="-208.149"/>
	</g>
	<g id="LINE_80_">
		
			<line fill="none" stroke="#2E3191" stroke-width="8" stroke-miterlimit="10" x1="-370.9" y1="-143.96" x2="-325.831" y2="-173.848"/>
	</g>
	<g id="LINE_79_">
		
			<line fill="none" stroke="#2E3191" stroke-width="8" stroke-miterlimit="10" x1="-366.437" y1="-132.387" x2="-315.871" y2="-132.387"/>
	</g>
	<circle fill="none" stroke="#2E3191" stroke-width="8" stroke-miterlimit="10" cx="-391.849" cy="-17.44" r="6.527"/>
	<g id="LWPOLYLINE_2_">
		<polyline fill="none" stroke="#2E3191" stroke-width="8" stroke-miterlimit="10" points="-344.934,196.158 -398.72,63.771 
			-451.817,196.158 		"/>
	</g>
	<circle fill="none" stroke="#2E3191" stroke-width="8" stroke-miterlimit="10" cx="-398.935" cy="178.719" r="6.527"/>
	<g id="LWPOLYLINE_3_">
		<polyline fill="none" stroke="#2E3191" stroke-width="8" stroke-miterlimit="10" points="89.286,-173.303 35.501,-305.689 
			-17.597,-173.303 		"/>
	</g>
	<g id="LINE_12_">
		
			<line fill="none" stroke="#2E3191" stroke-width="8" stroke-miterlimit="10" x1="10.046" y1="-305.689" x2="-40.349" y2="-305.689"/>
	</g>
	<g id="LINE_11_">
		
			<line fill="none" stroke="#2E3191" stroke-width="8" stroke-miterlimit="10" x1="13.117" y1="-317.262" x2="-27.915" y2="-347.15"/>
	</g>
	<g id="LINE_10_">
		
			<line fill="none" stroke="#2E3191" stroke-width="8" stroke-miterlimit="10" x1="35.501" y1="-329.096" x2="35.501" y2="-381.451"/>
	</g>
	<circle fill="none" stroke="#2E3191" stroke-width="8" stroke-miterlimit="10" cx="35.286" cy="-190.742" r="6.527"/>
	<g id="LWPOLYLINE_4_">
		<polyline fill="none" stroke="#2E3191" stroke-width="8" stroke-miterlimit="10" points="165.093,-173.303 111.308,-305.689 
			58.21,-173.303 		"/>
	</g>
	<g id="LINE_15_">
		
			<line fill="none" stroke="#2E3191" stroke-width="8" stroke-miterlimit="10" x1="111.308" y1="-329.096" x2="111.308" y2="-381.451"/>
	</g>
	<g id="LINE_14_">
		
			<line fill="none" stroke="#2E3191" stroke-width="8" stroke-miterlimit="10" x1="132.04" y1="-317.262" x2="177.11" y2="-347.15"/>
	</g>
	<g id="LINE_13_">
		
			<line fill="none" stroke="#2E3191" stroke-width="8" stroke-miterlimit="10" x1="136.505" y1="-305.689" x2="187.069" y2="-305.689"/>
	</g>
	<circle fill="none" stroke="#2E3191" stroke-width="8" stroke-miterlimit="10" cx="111.093" cy="-190.742" r="6.527"/>
	<g id="LWPOLYLINE_14_">
		<polyline fill="none" stroke="#2E3191" stroke-width="8" stroke-miterlimit="10" points="330.06,210.041 276.274,77.654 
			223.177,210.041 		"/>
	</g>
	<circle fill="none" stroke="#2E3191" stroke-width="8" stroke-miterlimit="10" cx="276.06" cy="192.602" r="6.527"/>
	<g id="LWPOLYLINE_5_">
		<polyline fill="none" stroke="#2E3191" stroke-width="8" stroke-miterlimit="10" points="405.866,210.041 352.081,77.654 
			298.983,210.041 		"/>
	</g>
	<circle fill="none" stroke="#2E3191" stroke-width="8" stroke-miterlimit="10" cx="351.866" cy="192.602" r="6.527"/>
</g>
</svg>
