<?xml version="1.0" encoding="utf-8"?>
<!-- Generator: Adobe Illustrator 15.0.0, SVG Export Plug-In . SVG Version: 6.00 Build 0)  -->
<!DOCTYPE svg PUBLIC "-//W3C//DTD SVG 1.1//EN" "http://www.w3.org/Graphics/SVG/1.1/DTD/svg11.dtd">
<svg version="1.1" xmlns="http://www.w3.org/2000/svg" xmlns:xlink="http://www.w3.org/1999/xlink" x="0px" y="0px"
	 width="233.724px" height="156.547px" viewBox="0 0 233.724 156.547" enable-background="new 0 0 233.724 156.547"
	 xml:space="preserve">
<g id="Layer_1">
	<polygon fill="none" stroke="#231F20" stroke-width="10" stroke-miterlimit="10" points="-1165.451,779.442 -1240.567,909.546 
		-1165.451,1039.65 -1015.22,1039.65 -940.104,909.546 -1015.22,779.442 	"/>
	<path fill="#231F20" d="M-1100.964,909.546c0-5.871,4.759-10.629,10.629-10.629s10.629,4.758,10.629,10.629
		s-4.759,10.629-10.629,10.629S-1100.964,915.417-1100.964,909.546"/>
	<circle fill="none" stroke="#231F20" stroke-width="5" stroke-miterlimit="10" cx="-1090.335" cy="909.546" r="10.629"/>
	<path fill="none" stroke="#2E3192" stroke-width="10" stroke-linecap="round" stroke-linejoin="round" stroke-miterlimit="10" d="
		M169.761,381.225c-10.023,0-18.158,8.136-18.158,18.159c0,10.024,8.135,18.158,18.158,18.158c10.037,0,18.158-8.134,18.158-18.158
		C187.919,389.36,179.798,381.225,169.761,381.225"/>
	
		<line fill="none" stroke="#2E3192" stroke-width="10" stroke-linecap="round" stroke-linejoin="round" stroke-miterlimit="10" x1="217.928" y1="430.176" x2="121.594" y2="430.176"/>
	
		<line fill="none" stroke="#2E3192" stroke-width="10" stroke-linecap="round" stroke-linejoin="round" stroke-miterlimit="10" x1="168.977" y1="430.176" x2="168.977" y2="567.57"/>
	<path fill="none" stroke="#2E3192" stroke-width="10" stroke-linecap="round" stroke-linejoin="round" stroke-miterlimit="10" d="
		M93.179,527.551c18.082,23.453,45.727,37.552,75.31,38.387"/>
	<path fill="none" stroke="#2E3192" stroke-width="10" stroke-linecap="round" stroke-linejoin="round" stroke-miterlimit="10" d="
		M169.453,565.95c29.596-0.86,57.239-14.958,75.31-38.386"/>
	
		<polyline fill="none" stroke="#2E3192" stroke-width="10" stroke-linecap="round" stroke-linejoin="round" stroke-miterlimit="10" points="
		85.276,509.135 82.114,534.399 105.8,524.929 85.276,509.135 	"/>
	
		<polyline fill="none" stroke="#2E3192" stroke-width="10" stroke-linecap="round" stroke-linejoin="round" stroke-miterlimit="10" points="
		254.246,509.135 257.408,534.399 233.724,524.929 254.246,509.135 	"/>
	
		<polyline fill="none" stroke="#063B60" stroke-width="10" stroke-linecap="round" stroke-linejoin="round" stroke-miterlimit="10" points="
		838.867,-355.333 871.915,-435.608 902.143,-355.333 	"/>
	<polygon fill="#545454" points="874.751,-437.507 871.915,-439.39 870.032,-437.507 	"/>
	<polygon fill="none" stroke="#545454" stroke-width="10" stroke-linecap="round" stroke-miterlimit="10" points="871.915,-439.39 
		870.032,-437.507 874.751,-437.507 	"/>
	<polygon fill="#545454" points="872.86,-432.772 871.907,-435.616 870.978,-432.772 	"/>
	<polygon fill="none" stroke="#545454" stroke-width="10" stroke-linecap="round" stroke-miterlimit="10" points="871.915,-435.608 
		870.978,-432.78 872.86,-432.78 	"/>
	<path fill="#545454" d="M870.032-437.499l5.664,1.883l-0.945-1.883H870.032z M875.696-435.616l-5.664-1.883l-1.883,1.883H875.696z"
		/>
	<path fill="none" stroke="#545454" stroke-width="10" stroke-linecap="round" stroke-miterlimit="10" d="M875.696-435.608
		l-5.664-1.891h4.719L875.696-435.608z M868.142-435.608h7.555l-5.664-1.891L868.142-435.608z"/>
	<path fill="#545454" d="M870.978-431.827v-0.945h-1.891L870.978-431.827z M869.087-432.772h1.891l-2.836-2.844L869.087-432.772z
		 M868.142-435.616l2.836,2.844l0.938-2.844H868.142z"/>
	<path fill="none" stroke="#545454" stroke-width="10" stroke-linecap="round" stroke-miterlimit="10" d="M870.978-432.772
		l-2.836-2.836h3.773L870.978-432.772z M869.087-432.772h1.891l-2.836-2.836L869.087-432.772z M870.978-431.835l-1.891-0.938h1.891
		V-431.835z"/>
	<path fill="#545454" d="M872.868-432.772h2.828l-3.781-2.844L872.868-432.772z M871.915-435.616l3.781,2.844v-2.844H871.915z"/>
	<path fill="none" stroke="#545454" stroke-width="10" stroke-linecap="round" stroke-miterlimit="10" d="M875.696-432.78
		l-3.781-2.828h3.781V-432.78z M872.86-432.78h2.836l-3.781-2.828L872.86-432.78z"/>
	<path fill="#545454" d="M872.86-432.772h-1.883H872.86z M872.86-432.772h-1.883H872.86z"/>
	<path fill="none" stroke="#545454" stroke-width="10" stroke-linecap="round" stroke-miterlimit="10" d="M872.86-432.78
		L872.86-432.78h-1.883H872.86z M870.978-432.78h1.883H870.978z"/>
	<path fill="#545454" d="M870.978-432.772h-1.891H870.978z M870.978-432.772h-1.891H870.978z"/>
	<path fill="none" stroke="#545454" stroke-width="10" stroke-linecap="round" stroke-miterlimit="10" d="M870.978-432.78
		L870.978-432.78h-1.891H870.978z M869.087-432.78h1.891H869.087z"/>
	<path fill="#545454" d="M873.806-431.835l1.891-0.945h-2.836L873.806-431.835z M873.806-431.835l-0.945-0.945L873.806-431.835z"/>
	<path fill="none" stroke="#545454" stroke-width="10" stroke-linecap="round" stroke-miterlimit="10" d="M873.806-431.835
		L873.806-431.835z M872.86-432.78l0.945,0.945L872.86-432.78z M875.696-432.78h-2.836l0.945,0.945L875.696-432.78z"/>
	<path fill="#545454" d="M871.915-430.89l1.891-0.938h-2.828L871.915-430.89z M870.978-431.827h2.828l-2.828-0.945V-431.827z
		 M870.978-432.772l2.828,0.945l-0.945-0.945H870.978z"/>
	<path fill="none" stroke="#545454" stroke-width="10" stroke-linecap="round" stroke-miterlimit="10" d="M873.806-431.827
		l-2.828-0.945h1.883L873.806-431.827z M870.978-431.827h2.828l-2.828-0.945V-431.827z M871.915-430.89l-0.938-0.938h2.828
		L871.915-430.89z"/>
	<path fill="#545454" d="M873.806-431.835h-2.828H873.806z M873.806-431.835h-2.828H873.806z"/>
	<path fill="none" stroke="#545454" stroke-width="10" stroke-linecap="round" stroke-miterlimit="10" d="M873.806-431.835
		L873.806-431.835h-2.828H873.806z M870.978-431.835h2.828H870.978z"/>
	<polygon fill="#545454" points="874.751,-369.505 871.915,-370.442 869.087,-369.505 	"/>
	<polygon fill="none" stroke="#545454" stroke-width="10" stroke-linecap="round" stroke-miterlimit="10" points="871.915,-370.45 
		869.087,-369.505 874.751,-369.505 	"/>
	<path fill="#545454" d="M869.087-369.497l6.609,2.82l-0.945-2.82H869.087z M875.696-366.677l-6.609-2.82l-0.938,2.82H875.696z"/>
	<path fill="none" stroke="#545454" stroke-width="10" stroke-linecap="round" stroke-miterlimit="10" d="M875.696-366.677
		l-6.609-2.82h5.664L875.696-366.677z M868.142-366.677h7.555l-6.609-2.82L868.142-366.677z"/>
	<path fill="#545454" d="M871.915-362.888l2.836-0.945h-5.664L871.915-362.888z M869.087-363.833h5.664l-6.609-2.844
		L869.087-363.833z"/>
	<path fill="none" stroke="#545454" stroke-width="10" stroke-linecap="round" stroke-miterlimit="10" d="M869.087-363.841h5.664
		l-2.836,0.945L869.087-363.841z M868.142-366.677l0.945,2.836h5.664L868.142-366.677z"/>
	<polygon fill="#545454" points="874.751,-363.833 875.696,-366.677 868.142,-366.677 	"/>
	<polygon fill="none" stroke="#545454" stroke-width="10" stroke-linecap="round" stroke-miterlimit="10" points="868.142,-366.677 
		875.696,-366.677 874.751,-363.841 	"/>
	<g>
		<path fill="none" stroke="#063B60" stroke-width="10" stroke-linecap="round" stroke-linejoin="round" stroke-miterlimit="10" d="
			M871.446-371.388c-2.344,0-4.25,1.891-4.25,4.242s1.906,4.25,4.25,4.25s4.25-1.898,4.25-4.25S873.79-371.388,871.446-371.388"/>
	</g>
	
		<polyline fill="none" stroke="#063B60" stroke-width="10" stroke-linecap="round" stroke-linejoin="round" stroke-miterlimit="10" points="
		833.195,-41.801 867.196,-122.069 897.416,-41.801 	"/>
	
		<polyline fill="none" stroke="#063B60" stroke-width="10" stroke-linecap="round" stroke-linejoin="round" stroke-miterlimit="10" points="
		810.53,304.794 844.531,224.526 873.806,304.794 	"/>
	
		<polyline fill="none" stroke="#063B60" stroke-width="10" stroke-linecap="round" stroke-linejoin="round" stroke-miterlimit="10" points="
		853.032,304.794 887.032,224.526 916.307,304.794 	"/>
	<polygon fill="#545454" points="864.36,-55.021 861.532,-54.075 867.196,-54.075 	"/>
	<polygon fill="none" stroke="#545454" stroke-width="10" stroke-linecap="round" stroke-miterlimit="10" points="864.36,-55.021 
		861.532,-54.075 867.196,-54.075 	"/>
	<path fill="#545454" d="M868.142-51.239l-6.609-2.828h5.664L868.142-51.239z M860.587-51.239h7.555l-6.609-2.828L860.587-51.239z"
		/>
	<path fill="none" stroke="#545454" stroke-width="10" stroke-linecap="round" stroke-miterlimit="10" d="M868.142-51.239
		l-6.609-2.828h5.664L868.142-51.239z M860.587-51.239h7.555l-6.609-2.828L860.587-51.239z"/>
	<path fill="#545454" d="M861.532-48.411h5.664l-2.844,0.945L861.532-48.411z M860.587-51.239l0.945,2.828h5.664L860.587-51.239z"/>
	<path fill="none" stroke="#545454" stroke-width="10" stroke-linecap="round" stroke-miterlimit="10" d="M861.532-48.411h5.664
		l-2.844,0.945L861.532-48.411z M860.587-51.239l0.945,2.828h5.664L860.587-51.239z"/>
	<polygon fill="#545454" points="860.587,-51.239 868.142,-51.239 867.196,-48.411 	"/>
	<polygon fill="none" stroke="#545454" stroke-width="10" stroke-linecap="round" stroke-miterlimit="10" points="860.587,-51.239 
		868.142,-51.239 867.196,-48.411 	"/>
	<path fill="none" stroke="#063B60" stroke-width="10" stroke-linecap="round" stroke-linejoin="round" stroke-miterlimit="10" d="
		M863.892-55.958c-2.344,0-4.25,1.891-4.25,4.242c0,2.353,1.906,4.25,4.25,4.25s4.25-1.897,4.25-4.25
		C868.142-54.067,866.235-55.958,863.892-55.958"/>
	<polygon fill="#545454" points="887.032,290.63 885.142,291.575 887.971,291.575 	"/>
	<polygon fill="none" stroke="#545454" stroke-width="10" stroke-linecap="round" stroke-miterlimit="10" points="887.032,290.63 
		885.142,291.575 887.971,291.575 	"/>
	<polygon fill="#545454" points="843.586,291.583 842.641,291.583 845.477,291.583 	"/>
	<polygon fill="none" stroke="#545454" stroke-width="10" stroke-linecap="round" stroke-miterlimit="10" points="843.586,291.583 
		842.641,291.583 845.477,291.583 	"/>
	<path fill="#545454" d="M888.916,291.583h-3.774h2.821H888.916z M884.196,291.583h4.72h-3.774H884.196z"/>
	<path fill="none" stroke="#545454" stroke-width="10" stroke-linecap="round" stroke-miterlimit="10" d="M888.916,291.583h-3.774
		h2.821H888.916z M884.196,291.583h4.72h-3.774H884.196z"/>
	<path fill="#545454" d="M846.422,292.528l-3.781-0.945h2.836L846.422,292.528z M840.75,292.528h5.672l-3.781-0.945L840.75,292.528z
		"/>
	<path fill="none" stroke="#545454" stroke-width="10" stroke-linecap="round" stroke-miterlimit="10" d="M846.422,292.528
		l-3.781-0.945h2.836L846.422,292.528z M840.75,292.528h5.672l-3.781-0.945L840.75,292.528z"/>
	<path fill="#545454" d="M890.807,294.403l-6.61-2.82h4.72L890.807,294.403z M883.251,294.403h7.556l-6.61-2.82L883.251,294.403z"/>
	<path fill="none" stroke="#545454" stroke-width="10" stroke-linecap="round" stroke-miterlimit="10" d="M890.807,294.403
		l-6.61-2.82h4.72L890.807,294.403z M883.251,294.403h7.556l-6.61-2.82L883.251,294.403z"/>
	<path fill="#545454" d="M847.367,295.356l-6.617-2.828h5.672L847.367,295.356z M839.813,295.356h7.555l-6.617-2.828
		L839.813,295.356z"/>
	<path fill="none" stroke="#545454" stroke-width="10" stroke-linecap="round" stroke-miterlimit="10" d="M847.367,295.356
		l-6.617-2.828h5.672L847.367,295.356z M839.813,295.356h7.555l-6.617-2.828L839.813,295.356z"/>
	<path fill="#545454" d="M888.916,297.239l-5.665-2.828h7.556L888.916,297.239z M884.196,297.239h4.72l-5.665-2.828L884.196,297.239
		z"/>
	<path fill="none" stroke="#545454" stroke-width="10" stroke-linecap="round" stroke-miterlimit="10" d="M888.916,297.239
		l-5.665-2.828h7.556L888.916,297.239z M884.196,297.239h4.72l-5.665-2.828L884.196,297.239z"/>
	<path fill="#545454" d="M885.142,297.239h2.821l-0.931,0.945L885.142,297.239z M884.196,297.239h0.945h2.821H884.196z"/>
	<path fill="none" stroke="#545454" stroke-width="10" stroke-linecap="round" stroke-miterlimit="10" d="M885.142,297.239h2.821
		l-0.931,0.945L885.142,297.239z M884.196,297.239h0.945h2.821H884.196z"/>
	<polygon fill="#545454" points="884.196,297.239 888.916,297.239 887.963,297.239 	"/>
	<polygon fill="none" stroke="#545454" stroke-width="10" stroke-linecap="round" stroke-miterlimit="10" points="884.196,297.239 
		888.916,297.239 887.963,297.239 	"/>
	<path fill="#545454" d="M846.422,297.239l-6.609-1.883h7.555L846.422,297.239z M840.75,297.239h5.672l-6.609-1.883L840.75,297.239z
		"/>
	<path fill="none" stroke="#545454" stroke-width="10" stroke-linecap="round" stroke-miterlimit="10" d="M846.422,297.239
		l-6.609-1.883h7.555L846.422,297.239z M840.75,297.239h5.672l-6.609-1.883L840.75,297.239z"/>
	<path fill="#545454" d="M842.641,298.185h2.836l-1.891,0.945L842.641,298.185z M840.75,297.239l1.891,0.945h2.836L840.75,297.239z"
		/>
	<path fill="none" stroke="#545454" stroke-width="10" stroke-linecap="round" stroke-miterlimit="10" d="M842.641,298.185h2.836
		l-1.891,0.945L842.641,298.185z M840.75,297.239l1.891,0.945h2.836L840.75,297.239z"/>
	<polygon fill="#545454" points="840.75,297.239 846.422,297.239 845.477,298.185 	"/>
	<polygon fill="none" stroke="#545454" stroke-width="10" stroke-linecap="round" stroke-miterlimit="10" points="840.75,297.239 
		846.422,297.239 845.477,298.185 	"/>
	<path fill="none" stroke="#063B60" stroke-width="10" stroke-linecap="round" stroke-linejoin="round" stroke-miterlimit="10" d="
		M843.117,290.63c-2.352,0-4.25,1.898-4.25,4.25s1.898,4.25,4.25,4.25c2.345,0,4.25-1.898,4.25-4.25S845.462,290.63,843.117,290.63"
		/>
	<path fill="none" stroke="#063B60" stroke-width="10" stroke-linecap="round" stroke-linejoin="round" stroke-miterlimit="10" d="
		M886.557,289.685c-2.345,0-4.251,1.898-4.251,4.25s1.906,4.25,4.251,4.25c2.352,0,4.25-1.898,4.25-4.25
		S888.908,289.685,886.557,289.685"/>
	
		<polyline fill="none" stroke="#063B60" stroke-width="10" stroke-linecap="round" stroke-linejoin="round" stroke-miterlimit="10" points="
		812.422,610.778 846.422,530.511 875.696,610.778 	"/>
	
		<polyline fill="none" stroke="#063B60" stroke-width="10" stroke-linecap="round" stroke-linejoin="round" stroke-miterlimit="10" points="
		854.923,610.778 888.916,530.511 918.197,610.778 	"/>
	<polygon fill="#545454" points="887.971,596.614 887.032,596.614 889.861,596.614 	"/>
	<polygon fill="none" stroke="#545454" stroke-width="10" stroke-linecap="round" stroke-miterlimit="10" points="887.971,596.614 
		887.032,596.614 889.861,596.614 	"/>
	<polygon fill="#545454" points="845.477,596.614 844.531,597.56 846.422,597.56 	"/>
	<polygon fill="none" stroke="#545454" stroke-width="10" stroke-linecap="round" stroke-miterlimit="10" points="845.477,596.614 
		844.531,597.56 846.422,597.56 	"/>
	<path fill="#545454" d="M890.807,597.56l-3.774-0.938h2.829L890.807,597.56z M885.142,597.56h5.665l-3.774-0.938L885.142,597.56z"
		/>
	<path fill="none" stroke="#545454" stroke-width="10" stroke-linecap="round" stroke-miterlimit="10" d="M890.807,597.56
		l-3.774-0.938h2.829L890.807,597.56z M885.142,597.56h5.665l-3.774-0.938L885.142,597.56z"/>
	<path fill="#545454" d="M848.306,598.513l-3.774-0.945h1.891L848.306,598.513z M842.641,598.513h5.665l-3.774-0.945
		L842.641,598.513z"/>
	<path fill="none" stroke="#545454" stroke-width="10" stroke-linecap="round" stroke-miterlimit="10" d="M848.306,598.513
		l-3.774-0.945h1.891L848.306,598.513z M842.641,598.513h5.665l-3.774-0.945L842.641,598.513z"/>
	<path fill="#545454" d="M891.752,600.388l-6.61-2.82h5.665L891.752,600.388z M884.196,600.388h7.556l-6.61-2.82L884.196,600.388z"
		/>
	<path fill="none" stroke="#545454" stroke-width="10" stroke-linecap="round" stroke-miterlimit="10" d="M891.752,600.388
		l-6.61-2.82h5.665L891.752,600.388z M884.196,600.388h7.556l-6.61-2.82L884.196,600.388z"/>
	<path fill="#545454" d="M849.251,600.388l-6.61-1.875h5.665L849.251,600.388z M841.695,600.388h7.556l-6.61-1.875L841.695,600.388z
		"/>
	<path fill="none" stroke="#545454" stroke-width="10" stroke-linecap="round" stroke-miterlimit="10" d="M849.251,600.388
		l-6.61-1.875h5.665L849.251,600.388z M841.695,600.388h7.556l-6.61-1.875L841.695,600.388z"/>
	<path fill="#545454" d="M890.807,603.231l-6.61-2.836h7.556L890.807,603.231z M885.142,603.231h5.665l-6.61-2.836L885.142,603.231z
		"/>
	<path fill="none" stroke="#545454" stroke-width="10" stroke-linecap="round" stroke-miterlimit="10" d="M890.807,603.231
		l-6.61-2.836h7.556L890.807,603.231z M885.142,603.231h5.665l-6.61-2.836L885.142,603.231z"/>
	<path fill="#545454" d="M887.032,603.231h2.829l-1.891,0.938L887.032,603.231z M885.142,603.231h1.891h2.829H885.142z"/>
	<path fill="none" stroke="#545454" stroke-width="10" stroke-linecap="round" stroke-miterlimit="10" d="M887.032,603.231h2.829
		l-1.891,0.938L887.032,603.231z M885.142,603.231h1.891h2.829H885.142z"/>
	<polygon fill="#545454" points="885.142,603.231 890.807,603.231 889.861,603.231 	"/>
	<polygon fill="none" stroke="#545454" stroke-width="10" stroke-linecap="round" stroke-miterlimit="10" points="885.142,603.231 
		890.807,603.231 889.861,603.231 	"/>
	<path fill="#545454" d="M848.306,603.231l-6.61-2.836h7.556L848.306,603.231z M842.641,603.231h5.665l-6.61-2.836L842.641,603.231z
		"/>
	<path fill="none" stroke="#545454" stroke-width="10" stroke-linecap="round" stroke-miterlimit="10" d="M848.306,603.231
		l-6.61-2.836h7.556L848.306,603.231z M842.641,603.231h5.665l-6.61-2.836L842.641,603.231z"/>
	<path fill="#545454" d="M843.586,604.169h3.781h-1.891H843.586z M842.641,603.231l0.945,0.938h3.781L842.641,603.231z"/>
	<path fill="none" stroke="#545454" stroke-width="10" stroke-linecap="round" stroke-miterlimit="10" d="M843.586,604.169h3.781
		h-1.891H843.586z M842.641,603.231l0.945,0.938h3.781L842.641,603.231z"/>
	<polygon fill="#545454" points="842.641,603.231 848.306,603.231 847.367,604.169 	"/>
	<polygon fill="none" stroke="#545454" stroke-width="10" stroke-linecap="round" stroke-miterlimit="10" points="842.641,603.231 
		848.306,603.231 847.367,604.169 	"/>
	<path fill="none" stroke="#063B60" stroke-width="10" stroke-linecap="round" stroke-linejoin="round" stroke-miterlimit="10" d="
		M845,595.669c-2.344,0-4.25,1.906-4.25,4.25c0,2.352,1.906,4.25,4.25,4.25c2.353,0,4.251-1.898,4.251-4.25
		C849.251,597.575,847.353,595.669,845,595.669"/>
	<path fill="none" stroke="#063B60" stroke-width="10" stroke-linecap="round" stroke-linejoin="round" stroke-miterlimit="10" d="
		M887.502,595.669c-2.345,0-4.251,1.906-4.251,4.25c0,2.352,1.906,4.25,4.251,4.25c2.344,0,4.25-1.898,4.25-4.25
		C891.752,597.575,889.846,595.669,887.502,595.669"/>
	
		<line fill="none" stroke="#063B60" stroke-width="10" stroke-linecap="round" stroke-linejoin="round" stroke-miterlimit="10" x1="904.025" y1="-122.069" x2="882.306" y2="-122.069"/>
	
		<line fill="none" stroke="#063B60" stroke-width="10" stroke-linecap="round" stroke-linejoin="round" stroke-miterlimit="10" x1="853.032" y1="-122.069" x2="831.313" y2="-122.069"/>
	
		<line fill="none" stroke="#063B60" stroke-width="10" stroke-linecap="round" stroke-linejoin="round" stroke-miterlimit="10" x1="867.196" y1="-137.179" x2="867.196" y2="-158.905"/>
	
		<line fill="none" stroke="#063B60" stroke-width="10" stroke-linecap="round" stroke-linejoin="round" stroke-miterlimit="10" x1="877.587" y1="-132.46" x2="892.697" y2="-147.577"/>
	
		<line fill="none" stroke="#063B60" stroke-width="10" stroke-linecap="round" stroke-linejoin="round" stroke-miterlimit="10" x1="856.806" y1="-132.46" x2="841.695" y2="-147.577"/>
	
		<line fill="none" stroke="#063B60" stroke-width="10" stroke-linecap="round" stroke-linejoin="round" stroke-miterlimit="10" x1="831.313" y1="530.503" x2="809.585" y2="530.503"/>
	
		<line fill="none" stroke="#063B60" stroke-width="10" stroke-linecap="round" stroke-linejoin="round" stroke-miterlimit="10" x1="903.088" y1="530.503" x2="924.808" y2="530.503"/>
	
		<line fill="none" stroke="#063B60" stroke-width="10" stroke-linecap="round" stroke-linejoin="round" stroke-miterlimit="10" x1="899.307" y1="519.183" x2="914.416" y2="504.065"/>
	
		<line fill="none" stroke="#063B60" stroke-width="10" stroke-linecap="round" stroke-linejoin="round" stroke-miterlimit="10" x1="888.916" y1="515.401" x2="888.916" y2="493.675"/>
	
		<line fill="none" stroke="#063B60" stroke-width="10" stroke-linecap="round" stroke-linejoin="round" stroke-miterlimit="10" x1="819.977" y1="504.073" x2="835.086" y2="519.183"/>
	
		<line fill="none" stroke="#063B60" stroke-width="10" stroke-linecap="round" stroke-linejoin="round" stroke-miterlimit="10" x1="846.422" y1="515.401" x2="846.422" y2="493.675"/>
	<g>
		<path fill="none" stroke="#063B60" stroke-width="10" stroke-linecap="round" stroke-linejoin="round" stroke-miterlimit="10" d="
			M871.446-440.327c-2.344,0-4.25,1.891-4.25,4.25c0,2.344,1.906,4.25,4.25,4.25s4.25-1.906,4.25-4.25
			C875.696-438.437,873.79-440.327,871.446-440.327"/>
	</g>
	<path fill="none" stroke="#2E3191" stroke-width="8" stroke-miterlimit="10" d="M590.693-44.888
		c0.825,37.462,19.513,72.24,50.285,93.584"/>
	<path fill="none" stroke="#2E3191" stroke-width="8" stroke-miterlimit="10" d="M590.693-44.888
		c0.825,37.462,19.513,72.24,50.285,93.584"/>
	<path fill="none" stroke="#2E3191" stroke-width="8" stroke-miterlimit="10" d="M590.693-44.888
		c0.825,37.462,19.513,72.24,50.285,93.584"/>
	<path fill="none" stroke="#2E3191" stroke-width="8" stroke-miterlimit="10" d="M532.386,44.193
		c32.666-18.345,54.581-51.181,58.963-88.387"/>
	
		<line fill="none" stroke="#2E3191" stroke-width="8" stroke-miterlimit="10" x1="590.656" y1="-43.722" x2="590.656" y2="-143.626"/>
	<path fill="none" stroke="#2E3191" stroke-width="8" stroke-miterlimit="10" d="M579.611,255.286
		c0.824,37.449,19.513,72.225,50.285,93.583"/>
	<path fill="none" stroke="#2E3191" stroke-width="8" stroke-miterlimit="10" d="M579.611,255.286
		c0.824,37.449,19.513,72.225,50.285,93.583"/>
	<path fill="none" stroke="#2E3191" stroke-width="8" stroke-miterlimit="10" d="M579.611,255.286
		c0.824,37.449,19.513,72.225,50.285,93.583"/>
	<path fill="none" stroke="#2E3191" stroke-width="8" stroke-miterlimit="10" d="M521.303,344.354
		c32.667-18.336,54.583-51.185,58.964-88.378"/>
	
		<line fill="none" stroke="#2E3191" stroke-width="8" stroke-miterlimit="10" x1="581.079" y1="256.439" x2="581.079" y2="156.547"/>
	<line fill="none" stroke="#2E3191" stroke-width="8" stroke-miterlimit="10" x1="581.079" y1="140.142" x2="581.079" y2="99.88"/>
	
		<line fill="none" stroke="#2E3191" stroke-width="8" stroke-miterlimit="10" x1="540.815" y1="196.797" x2="569.151" y2="168.476"/>
	<line fill="none" stroke="#2E3191" stroke-width="8" stroke-miterlimit="10" x1="593.007" y1="144.606" x2="621.33" y2="116.285"/>
	<line fill="none" stroke="#2E3191" stroke-width="8" stroke-miterlimit="10" x1="621.33" y1="196.797" x2="593.007" y2="168.476"/>
	
		<line fill="none" stroke="#2E3191" stroke-width="8" stroke-miterlimit="10" x1="570.631" y1="144.606" x2="540.815" y2="116.285"/>
</g>
<g id="ANC_LEGEND">
	<text transform="matrix(1 0 0 1 -695.0454 -34.2627)" font-family="'CenturyGothic'" font-size="8.3513">IFR-Civil</text>
	<g id="MTEXT_5_">
		<text transform="matrix(1 0 0 1 -695.0454 -15.0439)" font-family="'CenturyGothic'" font-size="8.3513">IFR-Join Civil Military</text>
	</g>
	<g id="MTEXT_4_">
		<text transform="matrix(1 0 0 1 -695.0454 4.1768)" font-family="'CenturyGothic'" font-size="8.3513">IFR-Military</text>
	</g>
	<g id="INSERT_8_">
		<g id="CIRCLE_5_">
			
				<path fill="none" stroke="#992B20" stroke-width="10" stroke-linecap="round" stroke-linejoin="round" stroke-miterlimit="10" d="
				M-1880.16-874.749c0-76.291-61.83-138.121-138.125-138.121c-76.291,0-138.121,61.831-138.121,138.121
				c0,76.294,61.83,138.125,138.121,138.125C-1941.99-736.625-1880.16-798.455-1880.16-874.749L-1880.16-874.749z"/>
		</g>
		<g id="LWPOLYLINE_9_">
			
				<line fill="none" stroke="#992B20" stroke-width="10" stroke-linecap="round" stroke-linejoin="round" stroke-miterlimit="10" x1="-2018.285" y1="-701.663" x2="-2018.285" y2="-736.625"/>
		</g>
		<g id="LWPOLYLINE_8_">
			
				<line fill="none" stroke="#992B20" stroke-width="10" stroke-linecap="round" stroke-linejoin="round" stroke-miterlimit="10" x1="-2018.285" y1="-1012.87" x2="-2018.285" y2="-1052.808"/>
		</g>
		<g id="LWPOLYLINE_7_">
			
				<line fill="none" stroke="#992B20" stroke-width="10" stroke-linecap="round" stroke-linejoin="round" stroke-miterlimit="10" x1="-2193.792" y1="-874.749" x2="-2156.406" y2="-874.749"/>
		</g>
		<g id="LWPOLYLINE_6_">
			
				<line fill="none" stroke="#992B20" stroke-width="10" stroke-linecap="round" stroke-linejoin="round" stroke-miterlimit="10" x1="-1880.16" y1="-874.749" x2="-1842.712" y2="-874.749"/>
		</g>
	</g>
	<g id="INSERT_6_">
		<g id="CIRCLE_2_">
			
				<path fill="none" stroke="#992B20" stroke-width="10" stroke-linecap="round" stroke-linejoin="round" stroke-miterlimit="10" d="
				M-1880.16,609.042c0-76.287-61.83-138.117-138.125-138.117c-76.291,0-138.121,61.83-138.121,138.117
				c0,76.294,61.83,138.124,138.121,138.124C-1941.99,747.166-1880.16,685.336-1880.16,609.042L-1880.16,609.042z"/>
		</g>
		<g id="CIRCLE_1_">
			
				<path fill="none" stroke="#992B20" stroke-width="10" stroke-linecap="round" stroke-linejoin="round" stroke-miterlimit="10" d="
				M-1950.683,609.042c0-37.345-30.25-67.603-67.602-67.603c-37.348,0-67.603,30.258-67.603,67.603
				c0,37.352,30.254,67.602,67.603,67.602C-1980.933,676.644-1950.683,646.394-1950.683,609.042L-1950.683,609.042z"/>
		</g>
	</g>
	<text transform="matrix(1 0 0 1 -589.8574 -34.2627)" font-family="'CenturyGothic'" font-size="8.3513">VFR-Civil</text>
	<g id="MTEXT_3_">
		<text transform="matrix(1 0 0 1 -589.8574 -15.0439)" font-family="'CenturyGothic'" font-size="8.3513">VFR-Join Civil Military</text>
	</g>
	<g id="MTEXT_2_">
		<text transform="matrix(1 0 0 1 -589.8574 4.1768)" font-family="'CenturyGothic'" font-size="8.3513">VFR-Military</text>
	</g>
	<g id="INSERT_1_">
		<g id="CIRCLE_8_">
			
				<path fill="none" stroke="#2E3192" stroke-width="10" stroke-linecap="round" stroke-linejoin="round" stroke-miterlimit="10" d="
				M576.691-1080.485c0-76.291-61.83-138.121-138.125-138.121s-138.125,61.831-138.125,138.121
				c0,76.294,61.83,138.189,138.125,138.189S576.691-1004.191,576.691-1080.485L576.691-1080.485z"/>
		</g>
		<g id="LWPOLYLINE_18_">
			<line fill="none" stroke="#2E3192" stroke-width="10" x1="438.566" y1="-907.399" x2="438.566" y2="-942.296"/>
		</g>
		<g id="LWPOLYLINE_17_">
			<line fill="none" stroke="#2E3192" stroke-width="10" x1="438.566" y1="-1218.606" x2="438.566" y2="-1258.479"/>
		</g>
		<g id="LWPOLYLINE_13_">
			<line fill="none" stroke="#2E3192" stroke-width="10" x1="263.094" y1="-1080.485" x2="300.441" y2="-1080.485"/>
		</g>
		<g id="LWPOLYLINE_1_">
			<line fill="none" stroke="#2E3192" stroke-width="10" x1="576.691" y1="-1080.485" x2="614.139" y2="-1080.485"/>
		</g>
	</g>
	<g id="CIRCLE_10_">
		<path fill="none" stroke="#2E3192" stroke-width="10" stroke-linecap="round" stroke-linejoin="round" stroke-miterlimit="10" d="
			M1454.16-563.542c0-76.291-61.83-138.121-138.125-138.121c-76.294,0-138.124,61.831-138.124,138.121
			c0,76.293,61.83,138.123,138.124,138.123C1392.33-425.419,1454.16-487.249,1454.16-563.542L1454.16-563.542z"/>
	</g>
	<g id="INSERT_2_">
		<g id="CIRCLE_4_">
			
				<path fill="none" stroke="#2E3192" stroke-width="10" stroke-linecap="round" stroke-linejoin="round" stroke-miterlimit="10" d="
				M724.807-575.71c0-76.291-61.83-138.122-138.125-138.122S448.557-652.001,448.557-575.71c0,76.293,61.83,138.123,138.125,138.123
				S724.807-499.417,724.807-575.71L724.807-575.71z"/>
		</g>
	</g>
	<text transform="matrix(1 0 0 1 512.3604 -500.0654)" fill="#2E3192" font-family="'MyriadPro-Regular'" font-size="225.9887">H</text>
</g>
<g id="PLAN_VIEW">
	<g id="CIRCLE_270_">
		
			<path fill="#FFFFFF" stroke="#FFFFFF" stroke-width="0.5" stroke-linecap="round" stroke-linejoin="round" stroke-miterlimit="10" d="
			M-691.682,309.29c0-21.542-17.461-39.004-39.004-39.004c-21.55,0-39.02,17.462-39.02,39.004c0,21.543,17.469,39.012,39.02,39.012
			C-709.143,348.302-691.682,330.833-691.682,309.29L-691.682,309.29z"/>
	</g>
	<g id="HATCH_127_">
		<path fill-rule="evenodd" clip-rule="evenodd" fill="#231F20" d="M-718.474,276.004c0-0.769-0.622-1.406-1.398-1.406
			s-1.407,0.638-1.407,1.406c0,0.776,0.63,1.392,1.407,1.392S-718.474,276.78-718.474,276.004L-718.474,276.004z M-700.974,288.716
			c0-0.769-0.622-1.406-1.391-1.406c-0.776,0-1.399,0.638-1.399,1.406c0,0.776,0.623,1.399,1.399,1.399
			C-701.596,290.115-700.974,289.492-700.974,288.716L-700.974,288.716z M-704.532,284.543c0-0.776-0.63-1.406-1.407-1.406
			c-0.769,0-1.406,0.63-1.406,1.406s0.638,1.391,1.406,1.391C-705.162,285.934-704.532,285.319-704.532,284.543L-704.532,284.543z
			 M-718.573,283.413c0-0.769-0.623-1.398-1.399-1.398s-1.399,0.63-1.399,1.398s0.623,1.414,1.399,1.414
			S-718.573,284.182-718.573,283.413L-718.573,283.413z M-718.789,291.099c0-0.769-0.623-1.391-1.399-1.391
			c-0.776,0-1.398,0.622-1.398,1.391c0,0.776,0.623,1.406,1.398,1.406C-719.411,292.505-718.789,291.875-718.789,291.099
			L-718.789,291.099z M-713.731,286.011c0-0.769-0.623-1.406-1.399-1.406c-0.769,0-1.398,0.638-1.398,1.406
			c0,0.776,0.63,1.398,1.398,1.398C-714.354,287.409-713.731,286.787-713.731,286.011L-713.731,286.011z M-709.497,289.492
			c0-0.776-0.615-1.406-1.383-1.406c-0.776,0-1.407,0.63-1.407,1.406s0.63,1.392,1.407,1.392
			C-710.111,290.884-709.497,290.269-709.497,289.492L-709.497,289.492z M-708.72,280.969c0-0.769-0.615-1.391-1.391-1.391
			c-0.769,0-1.407,0.622-1.407,1.391s0.638,1.414,1.407,1.414C-709.335,282.383-708.72,281.737-708.72,280.969L-708.72,280.969z
			 M-713.401,278.095c0-0.776-0.623-1.398-1.399-1.398s-1.391,0.622-1.391,1.398c0,0.769,0.615,1.398,1.391,1.398
			S-713.401,278.863-713.401,278.095L-713.401,278.095z M-694.709,303.811c0-0.769-0.63-1.391-1.407-1.391
			c-0.769,0-1.391,0.622-1.391,1.391c0,0.776,0.623,1.414,1.391,1.414C-695.34,305.225-694.709,304.587-694.709,303.811
			L-694.709,303.811z M-695.993,298.477c0-0.769-0.63-1.398-1.406-1.398c-0.769,0-1.399,0.63-1.399,1.398s0.63,1.399,1.399,1.399
			C-696.624,299.876-695.993,299.245-695.993,298.477L-695.993,298.477z M-694.287,309.29c0-0.776-0.615-1.391-1.391-1.391
			c-0.776,0-1.406,0.614-1.406,1.391s0.63,1.407,1.406,1.407C-694.902,310.697-694.287,310.066-694.287,309.29L-694.287,309.29z
			 M-694.709,314.763c0-0.769-0.63-1.392-1.407-1.392c-0.769,0-1.391,0.623-1.391,1.392c0,0.776,0.623,1.406,1.391,1.406
			C-695.34,316.169-694.709,315.539-694.709,314.763L-694.709,314.763z M-701.819,303.826c0-0.769-0.638-1.406-1.414-1.406
			c-0.769,0-1.383,0.638-1.383,1.406c0,0.776,0.615,1.398,1.383,1.398C-702.457,305.225-701.819,304.603-701.819,303.826
			L-701.819,303.826z M-703.417,298.569c0-0.769-0.63-1.392-1.406-1.392c-0.769,0-1.399,0.623-1.399,1.392
			c0,0.776,0.63,1.406,1.399,1.406C-704.048,299.976-703.417,299.346-703.417,298.569L-703.417,298.569z M-714.438,294.441
			c0-0.775-0.63-1.406-1.399-1.406c-0.776,0-1.406,0.631-1.406,1.406c0,0.776,0.63,1.392,1.406,1.392
			C-715.069,295.833-714.438,295.218-714.438,294.441L-714.438,294.441z M-716.345,303.934c0-0.769-0.638-1.398-1.406-1.398
			c-0.776,0-1.406,0.63-1.406,1.398c0,0.784,0.63,1.398,1.406,1.398C-716.982,305.332-716.345,304.718-716.345,303.934
			L-716.345,303.934z M-719.396,299.392c0-0.776-0.615-1.406-1.391-1.406c-0.776,0-1.407,0.63-1.407,1.406s0.63,1.406,1.407,1.406
			C-720.011,300.798-719.396,300.168-719.396,299.392L-719.396,299.392z M-709.005,303.856c0-0.769-0.623-1.398-1.399-1.398
			c-0.769,0-1.406,0.63-1.406,1.398c0,0.784,0.638,1.399,1.406,1.399C-709.627,305.256-709.005,304.641-709.005,303.856
			L-709.005,303.856z M-711.095,298.784c0-0.769-0.63-1.384-1.407-1.384c-0.769,0-1.398,0.615-1.398,1.384
			c0,0.776,0.63,1.414,1.398,1.414C-711.726,300.198-711.095,299.561-711.095,298.784L-711.095,298.784z M-701.289,309.29
			c0-0.776-0.623-1.391-1.399-1.391c-0.769,0-1.398,0.614-1.398,1.391s0.63,1.407,1.398,1.407
			C-701.911,310.697-701.289,310.066-701.289,309.29L-701.289,309.29z M-708.282,309.29c0-0.776-0.63-1.391-1.399-1.391
			c-0.776,0-1.406,0.614-1.406,1.391s0.63,1.407,1.406,1.407C-708.913,310.697-708.282,310.066-708.282,309.29L-708.282,309.29z
			 M-701.819,314.755c0-0.776-0.638-1.398-1.414-1.398c-0.769,0-1.383,0.622-1.383,1.398c0,0.769,0.615,1.406,1.383,1.406
			C-702.457,316.161-701.819,315.523-701.819,314.755L-701.819,314.755z M-715.292,309.29c0-0.776-0.623-1.391-1.391-1.391
			c-0.784,0-1.414,0.614-1.414,1.391s0.63,1.407,1.414,1.407C-715.914,310.697-715.292,310.066-715.292,309.29L-715.292,309.29z
			 M-716.345,314.662c0-0.775-0.638-1.414-1.406-1.414c-0.776,0-1.406,0.639-1.406,1.414c0,0.769,0.63,1.392,1.406,1.392
			C-716.982,316.054-716.345,315.431-716.345,314.662L-716.345,314.662z M-709.005,314.739c0-0.776-0.623-1.414-1.399-1.414
			c-0.769,0-1.406,0.638-1.406,1.414c0,0.769,0.638,1.384,1.406,1.384C-709.627,316.123-709.005,315.508-709.005,314.739
			L-709.005,314.739z M-706,324.854c0-0.776-0.63-1.398-1.406-1.398c-0.769,0-1.399,0.622-1.399,1.398
			c0,0.769,0.63,1.406,1.399,1.406C-706.63,326.26-706,325.622-706,324.854L-706,324.854z M-700.974,329.88
			c0-0.776-0.622-1.414-1.391-1.414c-0.776,0-1.399,0.638-1.399,1.414c0,0.769,0.623,1.392,1.399,1.392
			C-701.596,331.271-700.974,330.648-700.974,329.88L-700.974,329.88z M-714.438,324.139c0-0.776-0.63-1.391-1.399-1.391
			c-0.776,0-1.406,0.614-1.406,1.391s0.63,1.406,1.406,1.406C-715.069,325.545-714.438,324.915-714.438,324.139L-714.438,324.139z
			 M-718.789,327.482c0-0.769-0.623-1.399-1.399-1.399c-0.776,0-1.398,0.631-1.398,1.399s0.623,1.398,1.398,1.398
			C-719.411,328.881-718.789,328.251-718.789,327.482L-718.789,327.482z M-709.497,329.104c0-0.776-0.615-1.406-1.383-1.406
			c-0.776,0-1.407,0.63-1.407,1.406s0.63,1.392,1.407,1.392C-710.111,330.495-709.497,329.88-709.497,329.104L-709.497,329.104z
			 M-718.573,335.168c0-0.769-0.623-1.414-1.399-1.414s-1.399,0.646-1.399,1.414s0.623,1.406,1.399,1.406
			S-718.573,335.937-718.573,335.168L-718.573,335.168z M-718.474,342.592c0-0.769-0.622-1.406-1.398-1.406
			s-1.407,0.638-1.407,1.406c0,0.776,0.63,1.398,1.407,1.398S-718.474,343.368-718.474,342.592L-718.474,342.592z M-713.401,340.486
			c0-0.769-0.623-1.407-1.399-1.407s-1.391,0.639-1.391,1.407c0,0.776,0.615,1.398,1.391,1.398S-713.401,341.263-713.401,340.486
			L-713.401,340.486z M-708.72,337.611c0-0.776-0.615-1.391-1.391-1.391c-0.769,0-1.407,0.614-1.407,1.391s0.638,1.406,1.407,1.406
			C-709.335,339.018-708.72,338.388-708.72,337.611L-708.72,337.611z M-713.731,332.585c0-0.769-0.623-1.406-1.399-1.406
			c-0.769,0-1.398,0.638-1.398,1.406c0,0.776,0.63,1.392,1.398,1.392C-714.354,333.977-713.731,333.361-713.731,332.585
			L-713.731,332.585z M-704.532,334.053c0-0.775-0.63-1.406-1.407-1.406c-0.769,0-1.406,0.631-1.406,1.406
			c0,0.776,0.638,1.392,1.406,1.392C-705.162,335.444-704.532,334.829-704.532,334.053L-704.532,334.053z M-698.099,325.191
			c0-0.776-0.623-1.406-1.398-1.406c-0.776,0-1.399,0.63-1.399,1.406s0.623,1.392,1.399,1.392
			C-698.722,326.583-698.099,325.968-698.099,325.191L-698.099,325.191z M-719.396,319.189c0-0.776-0.615-1.392-1.391-1.392
			c-0.776,0-1.407,0.615-1.407,1.392s0.63,1.406,1.407,1.406C-720.011,320.596-719.396,319.966-719.396,319.189L-719.396,319.189z
			 M-711.095,319.797c0-0.776-0.63-1.392-1.407-1.392c-0.769,0-1.398,0.615-1.398,1.392c0,0.769,0.63,1.406,1.398,1.406
			C-711.726,321.203-711.095,320.565-711.095,319.797L-711.095,319.797z M-703.417,320.012c0-0.769-0.63-1.398-1.406-1.398
			c-0.769,0-1.399,0.63-1.399,1.398s0.63,1.398,1.399,1.398C-704.048,321.41-703.417,320.78-703.417,320.012L-703.417,320.012z
			 M-695.993,320.119c0-0.776-0.63-1.414-1.406-1.414c-0.769,0-1.399,0.638-1.399,1.414c0,0.769,0.63,1.392,1.399,1.392
			C-696.624,321.511-695.993,320.888-695.993,320.119L-695.993,320.119z M-698.099,293.404c0-0.769-0.623-1.406-1.398-1.406
			c-0.776,0-1.399,0.638-1.399,1.406s0.623,1.398,1.399,1.398C-698.722,294.803-698.099,294.173-698.099,293.404L-698.099,293.404z
			 M-706,293.728c0-0.769-0.63-1.392-1.406-1.392c-0.769,0-1.399,0.623-1.399,1.392c0,0.775,0.63,1.414,1.399,1.414
			C-706.63,295.142-706,294.503-706,293.728L-706,293.728z M-723.815,274.721c0-0.776-0.623-1.406-1.399-1.406
			c-0.769,0-1.406,0.63-1.406,1.406s0.638,1.392,1.406,1.392C-724.438,276.112-723.815,275.497-723.815,274.721L-723.815,274.721z
			 M-729.287,274.282c0-0.769-0.623-1.398-1.398-1.398c-0.776,0-1.407,0.63-1.407,1.398c0,0.784,0.63,1.399,1.407,1.399
			C-729.91,275.682-729.287,275.066-729.287,274.282L-729.287,274.282z M-734.767,274.721c0-0.776-0.623-1.406-1.399-1.406
			s-1.399,0.63-1.399,1.406s0.623,1.392,1.399,1.392S-734.767,275.497-734.767,274.721L-734.767,274.721z M-740.108,276.004
			c0-0.769-0.63-1.406-1.398-1.406c-0.776,0-1.407,0.638-1.407,1.406c0,0.776,0.63,1.392,1.407,1.392
			C-740.738,277.396-740.108,276.78-740.108,276.004L-740.108,276.004z M-723.83,281.822c0-0.776-0.623-1.398-1.399-1.398
			s-1.399,0.622-1.399,1.398c0,0.769,0.623,1.406,1.399,1.406S-723.83,282.591-723.83,281.822L-723.83,281.822z M-729.287,281.276
			c0-0.769-0.623-1.391-1.398-1.391c-0.776,0-1.407,0.622-1.407,1.391c0,0.776,0.63,1.406,1.407,1.406
			C-729.91,282.683-729.287,282.053-729.287,281.276L-729.287,281.276z M-723.854,288.993c0-0.769-0.622-1.384-1.398-1.384
			s-1.399,0.615-1.399,1.384c0,0.783,0.623,1.414,1.399,1.414S-723.854,289.776-723.854,288.993L-723.854,288.993z
			 M-729.287,288.286c0-0.769-0.623-1.399-1.398-1.399c-0.776,0-1.407,0.631-1.407,1.399s0.63,1.406,1.407,1.406
			C-729.91,289.692-729.287,289.055-729.287,288.286L-729.287,288.286z M-734.759,281.822c0-0.776-0.623-1.398-1.398-1.398
			c-0.769,0-1.399,0.622-1.399,1.398c0,0.769,0.63,1.406,1.399,1.406C-735.382,283.229-734.759,282.591-734.759,281.822
			L-734.759,281.822z M-740.008,283.413c0-0.769-0.63-1.398-1.399-1.398s-1.406,0.63-1.406,1.398s0.638,1.414,1.406,1.414
			S-740.008,284.182-740.008,283.413L-740.008,283.413z M-734.729,288.993c0-0.769-0.623-1.384-1.398-1.384
			c-0.769,0-1.407,0.615-1.407,1.384c0,0.783,0.638,1.414,1.407,1.414C-735.351,290.407-734.729,289.776-734.729,288.993
			L-734.729,288.993z M-739.793,291.099c0-0.769-0.63-1.391-1.399-1.391c-0.776,0-1.399,0.622-1.399,1.391
			c0,0.776,0.623,1.406,1.399,1.406C-740.423,292.505-739.793,291.875-739.793,291.099L-739.793,291.099z M-749.876,280.969
			c0-0.769-0.623-1.391-1.391-1.391c-0.776,0-1.399,0.622-1.399,1.391s0.623,1.414,1.399,1.414
			C-750.499,282.383-749.876,281.737-749.876,280.969L-749.876,280.969z M-749.1,289.492c0-0.776-0.623-1.406-1.399-1.406
			c-0.769,0-1.391,0.63-1.391,1.406s0.623,1.392,1.391,1.392C-749.723,290.884-749.1,290.269-749.1,289.492L-749.1,289.492z
			 M-754.042,284.543c0-0.776-0.63-1.406-1.407-1.406c-0.769,0-1.398,0.63-1.398,1.406s0.63,1.391,1.398,1.391
			C-754.672,285.934-754.042,285.319-754.042,284.543L-754.042,284.543z M-757.608,288.716c0-0.769-0.63-1.406-1.398-1.406
			c-0.776,0-1.407,0.638-1.407,1.406c0,0.776,0.63,1.399,1.407,1.399C-758.238,290.115-757.608,289.492-757.608,288.716
			L-757.608,288.716z M-745.181,278.095c0-0.776-0.63-1.398-1.399-1.398c-0.776,0-1.406,0.622-1.406,1.398
			c0,0.769,0.63,1.398,1.406,1.398C-745.811,279.493-745.181,278.863-745.181,278.095L-745.181,278.095z M-744.85,286.011
			c0-0.769-0.623-1.406-1.399-1.406s-1.399,0.638-1.399,1.406c0,0.776,0.623,1.398,1.399,1.398S-744.85,286.787-744.85,286.011
			L-744.85,286.011z M-723.93,296.355c0-0.769-0.623-1.406-1.399-1.406c-0.776,0-1.398,0.638-1.398,1.406
			c0,0.776,0.623,1.398,1.398,1.398C-724.553,297.754-723.93,297.132-723.93,296.355L-723.93,296.355z M-729.287,295.295
			c0-0.776-0.623-1.406-1.398-1.406c-0.776,0-1.407,0.63-1.407,1.406c0,0.769,0.63,1.392,1.407,1.392
			C-729.91,296.687-729.287,296.063-729.287,295.295L-729.287,295.295z M-734.651,296.355c0-0.769-0.623-1.406-1.391-1.406
			c-0.776,0-1.407,0.638-1.407,1.406c0,0.776,0.63,1.398,1.407,1.398C-735.274,297.754-734.651,297.132-734.651,296.355
			L-734.651,296.355z M-742.229,303.934c0-0.769-0.63-1.398-1.399-1.398c-0.776,0-1.398,0.63-1.398,1.398
			c0,0.784,0.623,1.398,1.398,1.398C-742.86,305.332-742.229,304.718-742.229,303.934L-742.229,303.934z M-739.186,299.392
			c0-0.776-0.638-1.406-1.414-1.406c-0.769,0-1.391,0.63-1.391,1.406s0.623,1.406,1.391,1.406
			C-739.824,300.798-739.186,300.168-739.186,299.392L-739.186,299.392z M-742.229,314.662c0-0.775-0.63-1.414-1.399-1.414
			c-0.776,0-1.398,0.639-1.398,1.414c0,0.769,0.623,1.392,1.398,1.392C-742.86,316.054-742.229,315.431-742.229,314.662
			L-742.229,314.662z M-749.584,303.856c0-0.769-0.63-1.398-1.399-1.398c-0.776,0-1.398,0.63-1.398,1.398
			c0,0.784,0.623,1.399,1.398,1.399C-750.215,305.256-749.584,304.641-749.584,303.856L-749.584,303.856z M-747.486,298.784
			c0-0.769-0.623-1.384-1.391-1.384c-0.776,0-1.399,0.615-1.399,1.384c0,0.776,0.623,1.414,1.399,1.414
			C-748.109,300.198-747.486,299.561-747.486,298.784L-747.486,298.784z M-763.864,303.811c0-0.769-0.63-1.391-1.406-1.391
			c-0.769,0-1.399,0.622-1.399,1.391c0,0.776,0.63,1.414,1.399,1.414C-764.495,305.225-763.864,304.587-763.864,303.811
			L-763.864,303.811z M-762.588,298.477c0-0.769-0.623-1.398-1.399-1.398c-0.769,0-1.406,0.63-1.406,1.398s0.638,1.399,1.406,1.399
			C-763.211,299.876-762.588,299.245-762.588,298.477L-762.588,298.477z M-756.763,303.826c0-0.769-0.623-1.406-1.391-1.406
			c-0.776,0-1.414,0.638-1.414,1.406c0,0.776,0.638,1.398,1.414,1.398C-757.385,305.225-756.763,304.603-756.763,303.826
			L-756.763,303.826z M-755.164,298.569c0-0.769-0.63-1.392-1.407-1.392c-0.769,0-1.398,0.623-1.398,1.392
			c0,0.776,0.63,1.406,1.398,1.406C-755.794,299.976-755.164,299.346-755.164,298.569L-755.164,298.569z M-750.299,309.29
			c0-0.776-0.623-1.391-1.399-1.391c-0.776,0-1.391,0.614-1.391,1.391s0.615,1.407,1.391,1.407
			C-750.922,310.697-750.299,310.066-750.299,309.29L-750.299,309.29z M-749.584,314.739c0-0.776-0.63-1.414-1.399-1.414
			c-0.776,0-1.398,0.638-1.398,1.414c0,0.769,0.623,1.384,1.398,1.384C-750.215,316.123-749.584,315.508-749.584,314.739
			L-749.584,314.739z M-757.309,309.29c0-0.776-0.623-1.391-1.391-1.391c-0.776,0-1.398,0.614-1.398,1.391s0.623,1.407,1.398,1.407
			C-757.931,310.697-757.309,310.066-757.309,309.29L-757.309,309.29z M-764.302,309.29c0-0.776-0.623-1.391-1.399-1.391
			c-0.769,0-1.399,0.614-1.399,1.391s0.63,1.407,1.399,1.407C-764.925,310.697-764.302,310.066-764.302,309.29L-764.302,309.29z
			 M-763.864,314.763c0-0.769-0.63-1.392-1.406-1.392c-0.769,0-1.399,0.623-1.399,1.392c0,0.776,0.63,1.406,1.399,1.406
			C-764.495,316.169-763.864,315.539-763.864,314.763L-763.864,314.763z M-756.763,314.755c0-0.776-0.623-1.398-1.391-1.398
			c-0.776,0-1.414,0.622-1.414,1.398c0,0.769,0.638,1.406,1.414,1.406C-757.385,316.161-756.763,315.523-756.763,314.755
			L-756.763,314.755z M-744.143,294.441c0-0.775-0.63-1.406-1.407-1.406c-0.769,0-1.398,0.631-1.398,1.406
			c0,0.776,0.63,1.392,1.398,1.392C-744.773,295.833-744.143,295.218-744.143,294.441L-744.143,294.441z M-743.29,309.29
			c0-0.776-0.638-1.391-1.406-1.391c-0.776,0-1.399,0.614-1.399,1.391s0.623,1.407,1.399,1.407
			C-743.928,310.697-743.29,310.066-743.29,309.29L-743.29,309.29z M-723.93,322.24c0-0.776-0.623-1.414-1.399-1.414
			c-0.776,0-1.398,0.638-1.398,1.414c0,0.769,0.623,1.392,1.398,1.392C-724.553,323.632-723.93,323.009-723.93,322.24
			L-723.93,322.24z M-729.287,323.286c0-0.769-0.623-1.392-1.398-1.392c-0.776,0-1.407,0.623-1.407,1.392
			c0,0.775,0.63,1.414,1.407,1.414C-729.91,324.7-729.287,324.062-729.287,323.286L-729.287,323.286z M-723.854,329.588
			c0-0.776-0.622-1.414-1.398-1.414s-1.399,0.638-1.399,1.414c0,0.769,0.623,1.384,1.399,1.384S-723.854,330.356-723.854,329.588
			L-723.854,329.588z M-729.287,330.295c0-0.769-0.623-1.391-1.398-1.391c-0.776,0-1.407,0.622-1.407,1.391s0.63,1.406,1.407,1.406
			C-729.91,331.701-729.287,331.063-729.287,330.295L-729.287,330.295z M-734.651,322.24c0-0.776-0.623-1.414-1.391-1.414
			c-0.776,0-1.407,0.638-1.407,1.414c0,0.769,0.63,1.392,1.407,1.392C-735.274,323.632-734.651,323.009-734.651,322.24
			L-734.651,322.24z M-734.729,329.588c0-0.776-0.623-1.414-1.398-1.414c-0.769,0-1.407,0.638-1.407,1.414
			c0,0.769,0.638,1.384,1.407,1.384C-735.351,330.972-734.729,330.356-734.729,329.588L-734.729,329.588z M-739.793,327.482
			c0-0.769-0.63-1.399-1.399-1.399c-0.776,0-1.399,0.631-1.399,1.399s0.623,1.398,1.399,1.398
			C-740.423,328.881-739.793,328.251-739.793,327.482L-739.793,327.482z M-723.83,336.759c0-0.769-0.623-1.406-1.399-1.406
			s-1.399,0.638-1.399,1.406c0,0.776,0.623,1.406,1.399,1.406S-723.83,337.535-723.83,336.759L-723.83,336.759z M-729.287,337.304
			c0-0.769-0.623-1.406-1.398-1.406c-0.776,0-1.407,0.638-1.407,1.406s0.63,1.399,1.407,1.399
			C-729.91,338.703-729.287,338.072-729.287,337.304L-729.287,337.304z M-723.815,343.875c0-0.776-0.623-1.406-1.399-1.406
			c-0.769,0-1.406,0.63-1.406,1.406s0.638,1.392,1.406,1.392C-724.438,345.267-723.815,344.651-723.815,343.875L-723.815,343.875z
			 M-729.287,344.298c0-0.776-0.623-1.398-1.398-1.398c-0.776,0-1.407,0.622-1.407,1.398c0,0.769,0.63,1.406,1.407,1.406
			C-729.91,345.704-729.287,345.066-729.287,344.298L-729.287,344.298z M-734.759,336.759c0-0.769-0.623-1.406-1.398-1.406
			c-0.769,0-1.399,0.638-1.399,1.406c0,0.776,0.63,1.406,1.399,1.406C-735.382,338.165-734.759,337.535-734.759,336.759
			L-734.759,336.759z M-740.008,335.168c0-0.769-0.63-1.414-1.399-1.414s-1.406,0.646-1.406,1.414s0.638,1.406,1.406,1.406
			S-740.008,335.937-740.008,335.168L-740.008,335.168z M-734.767,343.875c0-0.776-0.623-1.406-1.399-1.406s-1.399,0.63-1.399,1.406
			s0.623,1.392,1.399,1.392S-734.767,344.651-734.767,343.875L-734.767,343.875z M-740.108,342.592c0-0.769-0.63-1.406-1.398-1.406
			c-0.776,0-1.407,0.638-1.407,1.406c0,0.776,0.63,1.398,1.407,1.398C-740.738,343.99-740.108,343.368-740.108,342.592
			L-740.108,342.592z M-752.582,324.854c0-0.776-0.623-1.398-1.398-1.398c-0.769,0-1.391,0.622-1.391,1.398
			c0,0.769,0.623,1.406,1.391,1.406C-753.205,326.26-752.582,325.622-752.582,324.854L-752.582,324.854z M-749.1,329.104
			c0-0.776-0.623-1.406-1.399-1.406c-0.769,0-1.391,0.63-1.391,1.406s0.623,1.392,1.391,1.392
			C-749.723,330.495-749.1,329.88-749.1,329.104L-749.1,329.104z M-757.608,329.88c0-0.776-0.63-1.414-1.398-1.414
			c-0.776,0-1.407,0.638-1.407,1.414c0,0.769,0.63,1.392,1.407,1.392C-758.238,331.271-757.608,330.648-757.608,329.88
			L-757.608,329.88z M-760.49,325.191c0-0.776-0.623-1.406-1.399-1.406s-1.398,0.63-1.398,1.406s0.622,1.392,1.398,1.392
			S-760.49,325.968-760.49,325.191L-760.49,325.191z M-749.876,337.611c0-0.776-0.623-1.391-1.391-1.391
			c-0.776,0-1.399,0.614-1.399,1.391s0.623,1.406,1.399,1.406C-750.499,339.018-749.876,338.388-749.876,337.611L-749.876,337.611z
			 M-754.042,334.053c0-0.775-0.63-1.406-1.407-1.406c-0.769,0-1.398,0.631-1.398,1.406c0,0.776,0.63,1.392,1.398,1.392
			C-754.672,335.444-754.042,334.829-754.042,334.053L-754.042,334.053z M-744.143,324.139c0-0.776-0.63-1.391-1.407-1.391
			c-0.769,0-1.398,0.614-1.398,1.391s0.63,1.406,1.398,1.406C-744.773,325.545-744.143,324.915-744.143,324.139L-744.143,324.139z
			 M-744.85,332.585c0-0.769-0.623-1.406-1.399-1.406s-1.399,0.638-1.399,1.406c0,0.776,0.623,1.392,1.399,1.392
			S-744.85,333.361-744.85,332.585L-744.85,332.585z M-745.181,340.486c0-0.769-0.63-1.407-1.399-1.407
			c-0.776,0-1.406,0.639-1.406,1.407c0,0.776,0.63,1.398,1.406,1.398C-745.811,341.885-745.181,341.263-745.181,340.486
			L-745.181,340.486z M-739.186,319.189c0-0.776-0.638-1.392-1.414-1.392c-0.769,0-1.391,0.615-1.391,1.392s0.623,1.406,1.391,1.406
			C-739.824,320.596-739.186,319.966-739.186,319.189L-739.186,319.189z M-755.164,320.012c0-0.769-0.63-1.398-1.407-1.398
			c-0.769,0-1.398,0.63-1.398,1.398s0.63,1.398,1.398,1.398C-755.794,321.41-755.164,320.78-755.164,320.012L-755.164,320.012z
			 M-762.588,320.119c0-0.776-0.623-1.414-1.399-1.414c-0.769,0-1.406,0.638-1.406,1.414c0,0.769,0.638,1.392,1.406,1.392
			C-763.211,321.511-762.588,320.888-762.588,320.119L-762.588,320.119z M-747.486,319.797c0-0.776-0.623-1.392-1.391-1.392
			c-0.776,0-1.399,0.615-1.399,1.392c0,0.769,0.623,1.406,1.399,1.406C-748.109,321.203-747.486,320.565-747.486,319.797
			L-747.486,319.797z M-760.49,293.404c0-0.769-0.623-1.406-1.399-1.406s-1.398,0.638-1.398,1.406s0.622,1.398,1.398,1.398
			S-760.49,294.173-760.49,293.404L-760.49,293.404z M-752.582,293.728c0-0.769-0.623-1.392-1.398-1.392
			c-0.769,0-1.391,0.623-1.391,1.392c0,0.775,0.623,1.414,1.391,1.414C-753.205,295.142-752.582,294.503-752.582,293.728
			L-752.582,293.728z"/>
	</g>
	<g id="CIRCLE_160_">
		
			<path fill="#231F20" stroke="#231F20" stroke-width="0.5" stroke-linecap="round" stroke-linejoin="round" stroke-miterlimit="10" d="
			M-729.125,309.29c0-0.86-0.707-1.56-1.56-1.56c-0.861,0-1.561,0.699-1.561,1.56c0,0.869,0.7,1.561,1.561,1.561
			C-729.833,310.851-729.125,310.159-729.125,309.29L-729.125,309.29z"/>
	</g>
	<g>
		<g id="LWPOLYLINE_549_">
			
				<rect x="-761.993" y="376.977" fill="#FFFFFF" stroke="#FFFFFF" stroke-width="0.5" stroke-miterlimit="10" width="76.917" height="76.917"/>
		</g>
		<g id="LWPOLYLINE_1809_">
			<polygon fill="none" stroke="#231F20" stroke-width="0.5" stroke-miterlimit="10" points="-739.067,388.536 -754.599,415.436 
				-739.067,442.335 -708.01,442.335 -692.469,415.436 -708.01,388.536 			"/>
		</g>
		<g id="LWPOLYLINE_1810_">
			
				<rect x="-758.15" y="380.819" fill="none" stroke="#231F20" stroke-width="0.5" stroke-miterlimit="10" width="69.231" height="69.231"/>
		</g>
		<g id="CIRCLE_287_">
			
				<path fill="#231F20" stroke="#231F20" stroke-width="0.5" stroke-linecap="round" stroke-linejoin="round" stroke-miterlimit="10" d="
				M-721.336,415.436c0-1.215-0.983-2.198-2.198-2.198s-2.198,0.983-2.198,2.198c0,1.214,0.984,2.198,2.198,2.198
				S-721.336,416.649-721.336,415.436L-721.336,415.436z"/>
		</g>
	</g>
	<g>
		<g>
			<g id="CIRCLE_285_" opacity="0.5">
				
					<path fill="#FFFFFF" stroke="#FFFFFF" stroke-width="0.7087" stroke-linecap="round" stroke-linejoin="round" stroke-miterlimit="10" d="
					M-635.9,583.864c0-48.442-39.262-87.692-87.692-87.692c-48.438,0-87.692,39.25-87.692,87.692
					c0,48.427,39.254,87.692,87.692,87.692C-675.162,671.557-635.9,632.291-635.9,583.864L-635.9,583.864z"/>
			</g>
			<g id="LWPOLYLINE_1628_">
				
					<line fill="none" stroke="#231F20" stroke-width="0.1" stroke-miterlimit="10" x1="-673.394" y1="524.04" x2="-668.929" y2="518.714"/>
			</g>
			<g id="LWPOLYLINE_1627_">
				
					<line fill="none" stroke="#231F20" stroke-width="0.1" stroke-miterlimit="10" x1="-663.771" y1="533.67" x2="-657.746" y2="528.613"/>
			</g>
			<g id="LWPOLYLINE_1624_">
				
					<line fill="none" stroke="#231F20" stroke-width="0.1" stroke-miterlimit="10" x1="-650.214" y1="557.157" x2="-642.817" y2="554.467"/>
			</g>
			<g id="LWPOLYLINE_1621_">
				
					<line fill="none" stroke="#231F20" stroke-width="0.1" stroke-miterlimit="10" x1="-639.839" y1="598.628" x2="-646.687" y2="597.422"/>
			</g>
			<g id="LWPOLYLINE_1620_">
				
					<line fill="none" stroke="#231F20" stroke-width="0.1" stroke-miterlimit="10" x1="-646.687" y1="570.299" x2="-638.947" y2="568.932"/>
			</g>
			<g id="LWPOLYLINE_1619_">
				
					<line fill="none" stroke="#231F20" stroke-width="0.1" stroke-miterlimit="10" x1="-643.674" y1="612.954" x2="-650.214" y2="610.571"/>
			</g>
			<g id="LWPOLYLINE_1618_">
				
					<line fill="none" stroke="#231F20" stroke-width="0.1" stroke-miterlimit="10" x1="-658.438" y1="638.531" x2="-663.771" y2="634.059"/>
			</g>
			<g id="LWPOLYLINE_1617_">
				
					<line fill="none" stroke="#231F20" stroke-width="0.1" stroke-miterlimit="10" x1="-668.929" y1="649.007" x2="-673.394" y2="643.688"/>
			</g>
			<g id="LWPOLYLINE_1616_">
				
					<line fill="none" stroke="#231F20" stroke-width="0.1" stroke-miterlimit="10" x1="-696.885" y1="510.475" x2="-694.502" y2="503.942"/>
			</g>
			<g id="LWPOLYLINE_1615_">
				
					<line fill="none" stroke="#231F20" stroke-width="0.1" stroke-miterlimit="10" x1="-710.027" y1="506.963" x2="-708.824" y2="500.115"/>
			</g>
			<g id="LWPOLYLINE_1614_">
				
					<line fill="none" stroke="#231F20" stroke-width="0.1" stroke-miterlimit="10" x1="-737.157" y1="506.963" x2="-738.521" y2="499.208"/>
			</g>
			<g id="LWPOLYLINE_1612_">
				
					<line fill="none" stroke="#231F20" stroke-width="0.1" stroke-miterlimit="10" x1="-750.299" y1="510.475" x2="-752.989" y2="503.089"/>
			</g>
			<g id="LWPOLYLINE_1610_">
				
					<line fill="none" stroke="#231F20" stroke-width="0.1" stroke-miterlimit="10" x1="-773.79" y1="524.04" x2="-778.851" y2="518.022"/>
			</g>
			<g id="LWPOLYLINE_1609_">
				
					<line fill="none" stroke="#231F20" stroke-width="0.1" stroke-miterlimit="10" x1="-783.413" y1="533.67" x2="-788.746" y2="529.189"/>
			</g>
			<g id="LWPOLYLINE_1606_">
				
					<line fill="none" stroke="#231F20" stroke-width="0.1" stroke-miterlimit="10" x1="-796.97" y1="557.157" x2="-803.51" y2="554.774"/>
			</g>
			<g id="LWPOLYLINE_1605_">
				
					<line fill="none" stroke="#231F20" stroke-width="0.1" stroke-miterlimit="10" x1="-807.345" y1="598.628" x2="-800.498" y2="597.422"/>
			</g>
			<g id="LWPOLYLINE_1604_">
				
					<line fill="none" stroke="#231F20" stroke-width="0.1" stroke-miterlimit="10" x1="-800.498" y1="570.299" x2="-807.345" y2="569.101"/>
			</g>
			<g id="LWPOLYLINE_1601_">
				
					<line fill="none" stroke="#231F20" stroke-width="0.1" stroke-miterlimit="10" x1="-788.746" y1="638.531" x2="-783.413" y2="634.059"/>
			</g>
			<g id="LWPOLYLINE_1600_">
				
					<line fill="none" stroke="#231F20" stroke-width="0.1" stroke-miterlimit="10" x1="-778.255" y1="649.007" x2="-773.79" y2="643.688"/>
			</g>
			<g id="LWPOLYLINE_1599_">
				
					<line fill="none" stroke="#231F20" stroke-width="0.1" stroke-miterlimit="10" x1="-803.51" y1="612.954" x2="-796.97" y2="610.571"/>
			</g>
			<g id="LWPOLYLINE_1598_">
				
					<line fill="none" stroke="#231F20" stroke-width="0.1" stroke-miterlimit="10" x1="-708.824" y1="667.613" x2="-710.027" y2="660.766"/>
			</g>
			<g id="LWPOLYLINE_1597_">
				
					<line fill="none" stroke="#231F20" stroke-width="0.1" stroke-miterlimit="10" x1="-738.368" y1="667.613" x2="-737.157" y2="660.766"/>
			</g>
			<g id="LWPOLYLINE_1596_">
				
					<line fill="none" stroke="#231F20" stroke-width="0.1" stroke-miterlimit="10" x1="-694.502" y1="663.786" x2="-696.885" y2="657.238"/>
			</g>
			<g id="LWPOLYLINE_1595_">
				
					<line fill="none" stroke="#231F20" stroke-width="0.1" stroke-miterlimit="10" x1="-752.682" y1="663.786" x2="-750.299" y2="657.238"/>
			</g>
			<g id="LWPOLYLINE_1775_">
				
					<line fill="none" stroke="#231F20" stroke-width="0.25" stroke-miterlimit="10" x1="-649.945" y1="541.332" x2="-662.665" y2="548.688"/>
			</g>
			<g id="LWPOLYLINE_1780_">
				
					<line fill="none" stroke="#231F20" stroke-width="0.25" stroke-miterlimit="10" x1="-649.83" y1="626.45" x2="-660.436" y2="620.324"/>
			</g>
			<g id="LWPOLYLINE_1789_">
				
					<line fill="none" stroke="#231F20" stroke-width="0.25" stroke-miterlimit="10" x1="-681.168" y1="510.391" x2="-688.412" y2="522.94"/>
			</g>
			<g id="LWPOLYLINE_1790_">
				
					<line fill="none" stroke="#231F20" stroke-width="0.25" stroke-miterlimit="10" x1="-758.772" y1="522.94" x2="-766.112" y2="510.206"/>
			</g>
			<g id="LWPOLYLINE_1794_">
				
					<line fill="none" stroke="#231F20" stroke-width="0.25" stroke-miterlimit="10" x1="-784.627" y1="548.864" x2="-797.346" y2="541.517"/>
			</g>
			<g id="LWPOLYLINE_1795_">
				
					<line fill="none" stroke="#231F20" stroke-width="0.25" stroke-miterlimit="10" x1="-681.072" y1="657.515" x2="-688.412" y2="644.787"/>
			</g>
			<g id="LWPOLYLINE_1798_">
				
					<line fill="none" stroke="#231F20" stroke-width="0.25" stroke-miterlimit="10" x1="-758.772" y1="644.787" x2="-766.22" y2="657.691"/>
			</g>
			<g id="LWPOLYLINE_1800_">
				
					<line fill="none" stroke="#231F20" stroke-width="0.25" stroke-miterlimit="10" x1="-784.519" y1="619.033" x2="-797.247" y2="626.389"/>
			</g>
			<g id="HATCH_43_">
				<polygon fill-rule="evenodd" clip-rule="evenodd" fill="#231F20" points="-718.931,651.235 -728.107,651.243 -723.592,667.998 
									"/>
			</g>
			<g id="ARC_326_">
				<path fill="#231F20" d="M-728.107,651.259c3.055,0.2,6.118,0.2,9.177-0.016"/>
			</g>
			<g id="LINE_56_">
				<line fill="#231F20" x1="-724.603" y1="651.397" x2="-722.439" y2="651.397"/>
			</g>
			<g id="LINE_54_">
				<line fill="#231F20" x1="-724.603" y1="638.731" x2="-722.439" y2="638.731"/>
			</g>
			<g id="HATCH_41_">
				<polygon fill-rule="evenodd" clip-rule="evenodd" fill="#231F20" points="-656.209,579.207 -656.201,588.368 -639.455,583.864 
									"/>
			</g>
			<g id="ARC_325_">
				<path fill="#231F20" d="M-656.201,588.376c0.204-3.052,0.204-6.118-0.008-9.169"/>
			</g>
			<g id="LINE_48_">
				<line fill="#231F20" x1="-656.055" y1="584.871" x2="-656.055" y2="582.704"/>
			</g>
			<g id="LWPOLYLINE_1229_">
				<line fill="#231F20" x1="-723.592" y1="499.73" x2="-719.077" y2="516.47"/>
			</g>
			<g id="LWPOLYLINE_1228_">
				<line fill="#231F20" x1="-728.261" y1="516.485" x2="-723.592" y2="499.73"/>
			</g>
			<g id="HATCH_39_">
				<polygon fill-rule="evenodd" clip-rule="evenodd" fill="#231F20" points="-728.261,516.485 -719.077,516.485 -723.592,499.73 
									"/>
			</g>
			<g id="ARC_324_">
				<path fill="#231F20" d="M-719.077,516.47c-3.055-0.2-6.129-0.2-9.184,0.016"/>
			</g>
			<g id="LINE_40_">
				<line fill="#231F20" x1="-722.582" y1="516.316" x2="-724.745" y2="516.316"/>
			</g>
			<g id="LWPOLYLINE_1227_">
				<line fill="#231F20" x1="-807.729" y1="583.864" x2="-790.983" y2="579.353"/>
			</g>
			<g id="LWPOLYLINE_1226_">
				<line fill="#231F20" x1="-790.975" y1="588.521" x2="-807.729" y2="583.864"/>
			</g>
			<g id="HATCH_37_">
				<polygon fill-rule="evenodd" clip-rule="evenodd" fill="#231F20" points="-790.975,588.521 -790.983,579.338 -807.729,583.864 
									"/>
			</g>
			<g id="ARC_323_">
				<path fill="#231F20" d="M-790.983,579.353c-0.204,3.052-0.204,6.118,0.008,9.169"/>
			</g>
			<g id="LINE_9_">
				<line fill="#231F20" x1="-791.129" y1="582.857" x2="-791.129" y2="585.017"/>
			</g>
			<g id="LINE_5_">
				<line fill="#231F20" x1="-778.455" y1="582.857" x2="-778.455" y2="585.017"/>
			</g>
			<g id="LWPOLYLINE_1772_">
				
					<path fill="none" stroke="#231F20" stroke-width="0.25" stroke-linecap="round" stroke-linejoin="round" stroke-miterlimit="10" d="
					M-638.436,582.212c-0.911-47.036-39.773-84.418-86.808-83.504c-47.036,0.915-84.415,39.773-83.504,86.809
					c0.911,47.028,39.773,84.418,86.809,83.504c46.382-0.899,83.522-38.767,83.522-85.156
					C-638.417,583.303-638.425,582.758-638.436,582.212z"/>
			</g>
			<g id="TEXT_88_">
				<text transform="matrix(1 0 0 1 -727.0093 529.2637)" fill="#231F20" font-family="'Verdana'" font-size="11.9286">0</text>
			</g>
			<g id="TEXT_89_">
				<text transform="matrix(1 0 0 1 -672.7944 588.0566)" fill="#231F20" font-family="'Verdana'" font-size="11.9286">90</text>
			</g>
			<g id="TEXT_90_">
				<text transform="matrix(1 0 0 1 -732.3335 646.4355)" fill="#231F20" font-family="'Verdana'" font-size="11.9286">180</text>
			</g>
			<g id="TEXT_91_">
				<text transform="matrix(1 0 0 1 -786.9937 588.0566)" fill="#231F20" font-family="'Verdana'" font-size="11.9286">270</text>
			</g>
		</g>
		<path fill="#231F20" stroke="#231F20" stroke-width="0.1" d="M-722.136,583.795c0,0.8-0.653,1.453-1.456,1.453
			c-0.803,0-1.457-0.653-1.457-1.453c0-0.799,0.653-1.46,1.457-1.46C-722.789,582.335-722.136,582.996-722.136,583.795z"/>
	</g>
</g>
<g id="WAYPOINT_SYMBOL">
	<g>
		<g id="LWPOLYLINE_19_">
			<polygon fill="#FFFFFF" stroke="#FFFFFF" stroke-width="0.5" stroke-miterlimit="10" points="-457.061,670.411 -427.61,619.41 
				-398.174,670.411 			"/>
		</g>
		<g id="LWPOLYLINE_12_">
			<polygon fill="#231F20" stroke="#231F20" stroke-width="0.5" stroke-miterlimit="10" points="-451.466,667.184 -427.61,625.873 
				-403.77,667.184 			"/>
		</g>
		<g id="CIRCLE_11_">
			
				<path fill="#FFFFFF" stroke="#FFFFFF" stroke-width="0.5" stroke-linecap="round" stroke-linejoin="round" stroke-miterlimit="10" d="
				M-425.781,653.411c0-1.015-0.83-1.829-1.829-1.829c-1.015,0-1.845,0.814-1.845,1.829c0,1.014,0.83,1.837,1.845,1.837
				C-426.611,655.248-425.781,654.425-425.781,653.411L-425.781,653.411z"/>
		</g>
	</g>
	<g>
		<g id="LWPOLYLINE_11_">
			<polygon fill="#FFFFFF" stroke="#FFFFFF" stroke-width="0.5" stroke-miterlimit="10" points="-366.648,669.197 -337.197,618.18 
				-307.762,669.197 			"/>
		</g>
		<g id="LWPOLYLINE_10_">
			<polygon fill="#FFFFFF" stroke="#231F20" stroke-width="0.5" stroke-miterlimit="10" points="-361.053,665.961 -337.197,624.651 
				-313.357,665.961 			"/>
		</g>
		<g id="CIRCLE_7_">
			
				<path fill="#231F20" stroke="#231F20" stroke-width="0.5" stroke-linecap="round" stroke-linejoin="round" stroke-miterlimit="10" d="
				M-335.368,652.196c0-1.022-0.83-1.845-1.829-1.845c-1.015,0-1.845,0.822-1.845,1.845c0,1.007,0.83,1.829,1.845,1.829
				C-336.198,654.025-335.368,653.203-335.368,652.196L-335.368,652.196z"/>
		</g>
	</g>
</g>
<g id="Wpt_Symbol">
	<g>
		<g id="LWPOLYLINE_73_">
			<polygon fill="#FFFFFF" points="-442.9,477.796 -482.658,492.083 -442.9,506.371 -428.613,546.128 -414.322,506.371 
				-374.564,492.083 -414.322,477.796 -428.613,438.031 			"/>
		</g>
		<g id="HATCH_57_">
			<path fill-rule="evenodd" clip-rule="evenodd" fill="#FFFFFF" d="M-418.718,482.185l-9.888-27.561l-9.907,27.561l-27.541,9.898
				l27.541,9.907l9.907,27.537l9.888-27.537l27.56-9.907L-418.718,482.185z M-417.465,492.083h-22.284H-417.465z"/>
		</g>
		<g id="LWPOLYLINE_58_">
			<polygon fill="none" stroke="#231F20" stroke-width="0.5" stroke-linecap="round" stroke-miterlimit="10" points="
				-438.512,482.185 -466.061,492.083 -438.512,501.982 -428.613,529.527 -418.71,501.982 -391.165,492.083 -418.71,482.185 
				-428.613,454.632 			"/>
		</g>
		<g id="CIRCLE_26_">
			
				<path fill="none" stroke="#231F20" stroke-width="0.5" stroke-linecap="round" stroke-linejoin="round" stroke-miterlimit="10" d="
				M-417.465,492.083c0-6.155-4.992-11.144-11.147-11.144c-6.152,0-11.144,4.988-11.144,11.144c0,6.156,4.992,11.145,11.144,11.145
				C-422.457,503.228-417.465,498.239-417.465,492.083L-417.465,492.083z"/>
		</g>
	</g>
	<g>
		<g id="LWPOLYLINE_52_">
			<polygon fill="#FFFFFF" points="-261.541,477.712 -301.291,491.991 -261.541,506.278 -247.253,546.028 -232.966,506.278 
				-193.216,491.991 -232.966,477.712 -247.253,437.954 			"/>
		</g>
		<g id="HATCH_22_">
			<path fill-rule="evenodd" clip-rule="evenodd" fill="#FFFFFF" d="M-237.362,482.107l-9.892-27.553l-9.899,27.553l-27.537,9.876
				l27.537,9.907l9.899,27.545l9.892-27.545l27.552-9.907L-237.362,482.107z M-236.109,491.983h-22.28H-236.109z"/>
		</g>
		<path fill="#FFFFFF" d="M-299.166,491.991c0-28.659,23.241-51.9,51.908-51.9c28.667,0,51.904,23.241,51.904,51.9
			c0,28.675-23.237,51.908-51.904,51.908C-275.924,543.899-299.166,520.666-299.166,491.991z"/>
		<g id="LWPOLYLINE_51_">
			<polygon fill="#231F20" stroke="#231F20" stroke-width="0.5" stroke-linecap="round" stroke-miterlimit="10" points="
				-257.152,482.092 -284.697,491.991 -257.152,501.891 -247.253,529.436 -237.354,501.891 -209.817,491.991 -237.354,482.092 
				-247.253,454.555 			"/>
		</g>
		<path fill="none" stroke="#231F20" stroke-width="0.5" stroke-linecap="round" stroke-miterlimit="10" d="M-288.437,491.991
			c0-22.741,18.438-41.172,41.179-41.172c22.742,0,41.179,18.431,41.179,41.172c0,22.749-18.438,41.179-41.179,41.179
			C-269.999,533.17-288.437,514.74-288.437,491.991z"/>
		<g id="CIRCLE_9_">
			
				<path fill="#FFFFFF" stroke="#FFFFFF" stroke-width="0.5" stroke-linecap="round" stroke-linejoin="round" stroke-miterlimit="10" d="
				M-236.109,491.991c0-6.148-4.988-11.145-11.144-11.145s-11.144,4.996-11.144,11.145c0,6.156,4.988,11.144,11.144,11.144
				S-236.109,498.147-236.109,491.991L-236.109,491.991z"/>
		</g>
	</g>
</g>
<g id="BASEMAP">
	<g id="LWPOLYLINE_291_">
		<polyline fill="none" stroke="#2E3191" stroke-width="8" stroke-miterlimit="10" points="-280.374,-43.968 -334.16,-176.354 
			-387.257,-43.968 		"/>
	</g>
	<g id="LINE_83_">
		
			<line fill="none" stroke="#2E3191" stroke-width="8" stroke-miterlimit="10" x1="-359.615" y1="-176.354" x2="-410.01" y2="-176.354"/>
	</g>
	<g id="LINE_82_">
		
			<line fill="none" stroke="#2E3191" stroke-width="8" stroke-miterlimit="10" x1="-356.543" y1="-187.928" x2="-397.575" y2="-217.815"/>
	</g>
	<g id="LINE_81_">
		
			<line fill="none" stroke="#2E3191" stroke-width="8" stroke-miterlimit="10" x1="-334.16" y1="-199.762" x2="-334.16" y2="-252.117"/>
	</g>
	<g id="LINE_80_">
		
			<line fill="none" stroke="#2E3191" stroke-width="8" stroke-miterlimit="10" x1="-313.427" y1="-187.928" x2="-268.357" y2="-217.815"/>
	</g>
	<g id="LINE_79_">
		
			<line fill="none" stroke="#2E3191" stroke-width="8" stroke-miterlimit="10" x1="-308.963" y1="-176.354" x2="-258.397" y2="-176.354"/>
	</g>
	<circle fill="none" stroke="#2E3191" stroke-width="8" stroke-miterlimit="10" cx="-334.375" cy="-61.408" r="6.527"/>
	<g id="LWPOLYLINE_2_">
		<polyline fill="none" stroke="#2E3191" stroke-width="8" stroke-miterlimit="10" points="-287.46,152.19 -341.246,19.804 
			-394.343,152.19 		"/>
	</g>
	<circle fill="none" stroke="#2E3191" stroke-width="8" stroke-miterlimit="10" cx="-341.461" cy="134.751" r="6.527"/>
	<g id="LWPOLYLINE_3_">
		<polyline fill="none" stroke="#2E3191" stroke-width="8" stroke-miterlimit="10" points="132.73,152.19 78.945,19.804 
			25.848,152.19 		"/>
	</g>
	<circle fill="none" stroke="#2E3191" stroke-width="8" stroke-miterlimit="10" cx="78.73" cy="134.751" r="6.527"/>
	<g id="LWPOLYLINE_4_">
		<polyline fill="none" stroke="#2E3191" stroke-width="8" stroke-miterlimit="10" points="208.537,152.19 154.752,19.804 
			101.654,152.19 		"/>
	</g>
	<circle fill="none" stroke="#2E3191" stroke-width="8" stroke-miterlimit="10" cx="154.537" cy="134.751" r="6.527"/>
	<g id="LWPOLYLINE_14_">
		<polyline fill="none" stroke="#2E3191" stroke-width="8" stroke-miterlimit="10" points="387.533,166.073 333.748,33.687 
			280.65,166.073 		"/>
	</g>
	<circle fill="none" stroke="#2E3191" stroke-width="8" stroke-miterlimit="10" cx="333.533" cy="148.634" r="6.527"/>
	<g id="LWPOLYLINE_5_">
		<polyline fill="none" stroke="#2E3191" stroke-width="8" stroke-miterlimit="10" points="463.34,166.073 409.555,33.687 
			356.457,166.073 		"/>
	</g>
	<circle fill="none" stroke="#2E3191" stroke-width="8" stroke-miterlimit="10" cx="409.34" cy="148.634" r="6.527"/>
</g>
</svg>
