<?xml version="1.0" encoding="utf-8"?>
<!-- Generator: Adobe Illustrator 15.0.0, SVG Export Plug-In . SVG Version: 6.00 Build 0)  -->
<!DOCTYPE svg PUBLIC "-//W3C//DTD SVG 1.1//EN" "http://www.w3.org/Graphics/SVG/1.1/DTD/svg11.dtd">
<svg version="1.1" xmlns="http://www.w3.org/2000/svg" xmlns:xlink="http://www.w3.org/1999/xlink" x="0px" y="0px"
	 width="10.746px" height="10.749px" viewBox="0 0 10.746 10.749" enable-background="new 0 0 10.746 10.749" xml:space="preserve">
<g id="Layer_1">
</g>
<g id="ANC_LEGEND">
	<text transform="matrix(1 0.0018 -0.0018 1 129.7637 36.5552)" fill="#232020" font-family="'CenturyGothic'" font-size="7.5">TACAN</text>
	<text transform="matrix(1 0.0018 -0.0018 1 167.4463 36.6509)" fill="#232020" font-family="'CenturyGothic'" font-size="7.5">VORTAC</text>
	<g>
		<polygon fill="none" stroke="#242224" stroke-width="0.5" points="212.141,12.629 210.258,15.881 212.131,19.137 215.883,19.143 
			217.771,15.895 215.896,12.637 		"/>
		<circle fill="#232020" stroke="#232020" stroke-width="0.5" cx="214.016" cy="15.887" r="0.281"/>
	</g>
	<g>
		
			<rect x="276.437" y="11.513" transform="matrix(1 0.0019 -0.0019 1 0.031 -0.5312)" opacity="0.75" fill="#FFFFFF" stroke="#FFFFFF" stroke-width="0.1764" stroke-linecap="round" stroke-linejoin="round" width="9.302" height="9.303"/>
		<polygon fill="none" stroke="#242224" stroke-width="0.5" points="279.214,12.909 277.333,16.161 279.205,19.415 282.959,19.422 
			284.844,16.172 282.969,12.917 		"/>
		
			<rect x="276.902" y="11.98" transform="matrix(1 0.0016 -0.0016 1 0.0268 -0.4592)" fill="none" stroke="#242224" stroke-width="0.5" width="8.369" height="8.373"/>
		<path fill="#232020" stroke="#232020" stroke-width="0.5" stroke-linecap="round" stroke-linejoin="round" d="M281.368,16.163
			c0,0.156-0.124,0.281-0.28,0.281c-0.152,0-0.278-0.125-0.278-0.281c0-0.152,0.126-0.277,0.278-0.277
			C281.244,15.885,281.368,16.01,281.368,16.163z"/>
	</g>
	<g>
		
			<rect x="267.586" y="47.959" transform="matrix(1 0.0019 -0.0019 1 0.0999 -0.5144)" opacity="0.75" fill="#FFFFFF" stroke="#FFFFFF" stroke-width="0.1764" stroke-linecap="round" stroke-linejoin="round" width="9.302" height="9.303"/>
		
			<rect x="268.052" y="48.426" transform="matrix(1 0.0016 -0.0016 1 0.0863 -0.4447)" fill="none" stroke="#242224" stroke-width="0.5" width="8.369" height="8.373"/>
		<path fill="#232020" stroke="#232020" stroke-width="0.5" stroke-linecap="round" stroke-linejoin="round" d="M272.517,52.609
			c0,0.156-0.124,0.281-0.28,0.281c-0.153,0-0.278-0.125-0.278-0.281c0-0.152,0.125-0.277,0.278-0.277
			C272.393,52.332,272.517,52.457,272.517,52.609z"/>
	</g>
	<g>
		<g>
			<polygon fill="none" stroke="#232020" stroke-width="0.1764" stroke-linecap="round" stroke-linejoin="round" points="
				144.418,14.104 143.789,14.469 139.589,14.461 138.959,14.098 137.363,16.856 137.99,17.219 140.085,20.862 140.085,21.588 
				143.273,21.592 143.273,20.868 145.38,17.233 146.01,16.872 			"/>
			<polygon fill="none" stroke="#232020" stroke-width="0.1764" stroke-linecap="round" stroke-linejoin="round" points="
				144.565,13.561 143.684,14.069 139.697,14.063 138.815,13.553 136.818,17.002 137.7,17.512 139.685,20.969 139.685,21.983 
				143.671,21.991 143.671,20.975 145.671,17.528 146.552,17.018 			"/>
			<polygon fill="none" stroke="#FFFFFF" stroke-width="0.1764" stroke-linecap="round" stroke-linejoin="round" points="
				144.714,13.018 143.576,13.67 139.804,13.665 138.671,13.008 136.274,17.147 137.407,17.803 139.287,21.073 139.284,22.383 
				144.067,22.391 144.069,21.081 145.961,17.815 147.097,17.165 			"/>
			
				<circle fill="none" stroke="#232020" stroke-width="0.25" stroke-linecap="round" stroke-linejoin="round" cx="141.684" cy="17.519" r="0.266"/>
		</g>
	</g>
	<g>
		<g>
			<polygon fill="none" stroke="#232020" stroke-width="0.1764" stroke-linecap="round" stroke-linejoin="round" points="
				177.76,7.944 177.13,8.307 172.931,8.301 172.301,7.936 170.705,10.696 171.332,11.059 173.427,14.702 173.427,15.426 
				176.615,15.432 176.615,14.708 178.722,11.071 179.352,10.709 			"/>
			<polygon fill="none" stroke="#232020" stroke-width="0.1764" stroke-linecap="round" stroke-linejoin="round" points="
				177.907,7.399 177.025,7.907 173.039,7.903 172.157,7.393 170.16,10.842 171.042,11.352 173.026,14.809 173.026,15.823 
				177.013,15.831 177.013,14.815 179.013,11.368 179.894,10.856 			"/>
			<polygon fill="none" stroke="#FFFFFF" stroke-width="0.1764" stroke-linecap="round" stroke-linejoin="round" points="
				178.056,6.858 176.918,7.51 173.146,7.504 172.013,6.848 169.616,10.987 170.749,11.643 172.628,14.913 172.626,16.223 
				177.409,16.231 177.411,14.918 179.303,11.655 180.438,11.002 			"/>
			<path fill="none" stroke="#232020" stroke-width="0.25" stroke-linecap="round" stroke-linejoin="round" d="M175.292,11.36
				c0,0.146-0.12,0.264-0.266,0.264s-0.266-0.117-0.266-0.266c0-0.15,0.12-0.264,0.266-0.264S175.292,11.211,175.292,11.36z"/>
		</g>
		<polygon fill="none" stroke="#242224" stroke-width="0.15" stroke-linecap="round" stroke-linejoin="round" points="
			172.931,8.301 171.332,11.059 173.427,14.702 176.615,14.708 178.722,11.071 177.025,8.307 		"/>
		<polygon fill="#232020" points="179.352,10.709 178.722,11.071 177.025,8.307 177.76,7.944 		"/>
		<polygon fill="#232020" points="171.332,11.059 170.705,10.696 172.331,7.891 172.931,8.301 		"/>
		<rect x="173.427" y="14.705" fill="#232020" width="3.188" height="0.725"/>
	</g>
	<g>
		<circle fill="#FFFFFF" cx="326.288" cy="27.545" r="6.657"/>
		<g>
			<path fill="#2E3192" d="M328.128,22.11c-0.133,0-0.238-0.107-0.238-0.238c0-0.135,0.107-0.238,0.238-0.236
				c0.133,0,0.24,0.104,0.239,0.234C328.368,22.002,328.26,22.11,328.128,22.11z"/>
			<path fill="#2E3192" d="M331.107,24.278c-0.133,0-0.238-0.107-0.238-0.236c0-0.133,0.107-0.24,0.238-0.238
				c0.133,0,0.24,0.104,0.238,0.238C331.346,24.17,331.24,24.278,331.107,24.278z"/>
			<path fill="#2E3192" d="M330.5,23.567c-0.132,0-0.237-0.109-0.237-0.238c0-0.135,0.105-0.24,0.238-0.24
				c0.131,0.002,0.236,0.107,0.237,0.238C330.741,23.459,330.633,23.567,330.5,23.567z"/>
			<circle fill="#2E3192" cx="328.11" cy="23.134" r="0.237"/>
			<circle fill="#2E3192" cx="328.073" cy="24.443" r="0.239"/>
			<path fill="#2E3192" d="M328.935,23.815c-0.133,0-0.24-0.105-0.238-0.24c-0.001-0.129,0.107-0.238,0.238-0.238
				c0.133,0,0.236,0.107,0.236,0.24C329.172,23.708,329.066,23.813,328.935,23.815z"/>
			<path fill="#2E3192" d="M329.657,24.409c-0.13,0.002-0.239-0.107-0.239-0.236c0.001-0.135,0.108-0.24,0.241-0.24
				c0.13,0.002,0.239,0.105,0.239,0.238C329.898,24.301,329.791,24.409,329.657,24.409z"/>
			<path fill="#2E3192" d="M329.791,22.958c-0.131,0-0.24-0.105-0.24-0.238c0.001-0.131,0.108-0.238,0.242-0.238
				c0.129,0.002,0.234,0.107,0.234,0.238C330.029,22.852,329.923,22.958,329.791,22.958z"/>
			<circle fill="#2E3192" cx="328.992" cy="22.23" r="0.239"/>
			<path fill="#2E3192" d="M332.169,26.852c-0.129,0-0.236-0.109-0.235-0.24c-0.001-0.133,0.107-0.238,0.235-0.24
				c0.133,0.002,0.24,0.109,0.239,0.24C332.409,26.745,332.301,26.85,332.169,26.852z"/>
			<circle fill="#2E3192" cx="331.954" cy="25.702" r="0.238"/>
			<path fill="#2E3192" d="M332.244,27.786c-0.13-0.002-0.236-0.109-0.236-0.238c-0.002-0.135,0.105-0.24,0.238-0.24
				c0.129-0.002,0.236,0.107,0.236,0.238C332.482,27.678,332.375,27.786,332.244,27.786z"/>
			<path fill="#2E3192" d="M332.169,28.715c-0.13,0-0.237-0.105-0.236-0.238c0-0.131,0.106-0.24,0.235-0.236
				c0.133,0,0.24,0.104,0.239,0.238C332.408,28.608,332.3,28.715,332.169,28.715z"/>
			<path fill="#2E3192" d="M330.962,26.852c-0.133,0.002-0.241-0.105-0.24-0.24c0-0.129,0.107-0.236,0.24-0.236
				c0.128,0,0.235,0.105,0.237,0.238C331.199,26.745,331.091,26.854,330.962,26.852z"/>
			<circle fill="#2E3192" cx="330.689" cy="25.719" r="0.238"/>
			<path fill="#2E3192" d="M328.811,25.252c-0.13-0.002-0.237-0.109-0.236-0.238c0-0.135,0.106-0.24,0.239-0.24
				c0.129-0.002,0.238,0.107,0.238,0.238C329.052,25.145,328.945,25.252,328.811,25.252z"/>
			<path fill="#2E3192" d="M328.487,26.868c-0.134,0-0.24-0.105-0.239-0.238c0-0.133,0.107-0.236,0.238-0.236
				c0.133-0.002,0.237,0.104,0.236,0.238C328.722,26.76,328.617,26.868,328.487,26.868z"/>
			<circle fill="#2E3192" cx="327.969" cy="25.855" r="0.237"/>
			<circle fill="#2E3192" stroke="#29256A" stroke-width="0.5" stroke-miterlimit="10" cx="326.284" cy="27.537" r="0.237"/>
			<circle fill="#2E3192" cx="329.739" cy="26.618" r="0.238"/>
			<path fill="#2E3192" d="M329.38,25.993c-0.133,0-0.236-0.105-0.236-0.24c0-0.129,0.105-0.236,0.236-0.236
				c0.133,0,0.238,0.105,0.238,0.238C329.619,25.885,329.511,25.995,329.38,25.993z"/>
			<circle fill="#2E3192" cx="331.051" cy="27.543" r="0.238"/>
			<path fill="#2E3192" d="M329.861,27.78c-0.134,0-0.24-0.104-0.24-0.238c0-0.129,0.108-0.236,0.238-0.238
				c0.133,0,0.237,0.109,0.237,0.24C330.095,27.674,329.991,27.782,329.861,27.78z"/>
			<path fill="#2E3192" d="M330.96,28.713c-0.133,0-0.24-0.105-0.238-0.24c-0.001-0.129,0.107-0.234,0.238-0.236
				c0.13,0,0.236,0.105,0.236,0.238C331.197,28.606,331.089,28.711,330.96,28.713z"/>
			<circle fill="#2E3192" cx="328.666" cy="27.542" r="0.238"/>
			<path fill="#2E3192" d="M328.484,28.692c-0.131,0.002-0.238-0.105-0.24-0.238c0.002-0.131,0.108-0.236,0.242-0.236
				c0.129,0,0.236,0.105,0.236,0.238C328.722,28.584,328.617,28.694,328.484,28.692z"/>
			<circle fill="#2E3192" cx="329.737" cy="28.469" r="0.238"/>
			<circle fill="#2E3192" cx="330.246" cy="30.194" r="0.238"/>
			<circle fill="#2E3192" cx="331.103" cy="31.049" r="0.24"/>
			<path fill="#2E3192" d="M328.809,30.309c-0.134,0-0.237-0.104-0.237-0.238c0-0.131,0.105-0.236,0.236-0.236
				c0.133,0,0.239,0.104,0.239,0.238C329.046,30.204,328.939,30.309,328.809,30.309z"/>
			<path fill="#2E3192" d="M328.068,30.879c-0.133,0-0.239-0.107-0.238-0.238c-0.001-0.131,0.107-0.24,0.238-0.24
				c0.133,0,0.238,0.107,0.238,0.242C328.306,30.772,328.199,30.877,328.068,30.879z"/>
			<path fill="#2E3192" d="M329.652,31.155c-0.133-0.002-0.239-0.107-0.238-0.238c0-0.133,0.107-0.24,0.238-0.24
				c0.133,0,0.238,0.109,0.239,0.238C329.89,31.049,329.783,31.155,329.652,31.155z"/>
			<circle fill="#2E3192" cx="328.104" cy="31.949" r="0.237"/>
			<path fill="#2E3192" d="M328.119,33.45c-0.13,0.002-0.238-0.105-0.239-0.238c0.001-0.131,0.108-0.236,0.241-0.238
				c0.131,0,0.237,0.109,0.236,0.238C328.359,33.344,328.251,33.452,328.119,33.45z"/>
			<circle fill="#2E3192" cx="328.983" cy="32.855" r="0.237"/>
			<circle fill="#2E3192" cx="329.782" cy="32.367" r="0.239"/>
			<path fill="#2E3192" d="M328.929,31.745c-0.131,0.002-0.24-0.104-0.24-0.234c0-0.133,0.107-0.24,0.24-0.24
				c0.132,0,0.235,0.109,0.238,0.238C329.166,31.643,329.062,31.747,328.929,31.745z"/>
			<path fill="#2E3192" d="M330.494,31.999c-0.133,0-0.237-0.109-0.236-0.238c-0.001-0.131,0.105-0.238,0.235-0.24
				c0.133,0,0.239,0.107,0.239,0.242C330.732,31.891,330.626,31.999,330.494,31.999z"/>
			<circle fill="#2E3192" cx="331.59" cy="30.252" r="0.238"/>
			<circle fill="#2E3192" cx="327.966" cy="29.229" r="0.238"/>
			<circle fill="#2E3192" cx="329.377" cy="29.332" r="0.237"/>
			<circle fill="#2E3192" cx="330.687" cy="29.371" r="0.239"/>
			<path fill="#2E3192" d="M331.951,29.627c-0.133-0.002-0.238-0.107-0.239-0.242c0.001-0.131,0.108-0.236,0.237-0.236
				c0.134,0,0.24,0.107,0.24,0.238S332.083,29.627,331.951,29.627z"/>
			<circle fill="#2E3192" cx="331.595" cy="24.837" r="0.237"/>
			<path fill="#2E3192" d="M330.25,25.131c-0.133,0-0.239-0.105-0.239-0.238c0-0.131,0.109-0.24,0.238-0.238
				c0.133,0,0.237,0.105,0.237,0.24C330.486,25.024,330.382,25.131,330.25,25.131z"/>
			<path fill="#2E3192" d="M327.217,21.891c-0.13,0-0.237-0.109-0.236-0.238c0-0.135,0.105-0.238,0.238-0.236
				c0.13-0.004,0.237,0.104,0.239,0.234C327.458,21.784,327.351,21.889,327.217,21.891z"/>
			<path fill="#2E3192" d="M326.285,21.815c-0.131,0.004-0.235-0.105-0.234-0.236c-0.002-0.135,0.103-0.24,0.234-0.238
				c0.134,0,0.241,0.105,0.24,0.24C326.525,21.709,326.417,21.815,326.285,21.815z"/>
			<path fill="#2E3192" d="M325.353,21.889c-0.133,0-0.239-0.107-0.238-0.238c0-0.135,0.107-0.24,0.238-0.24
				c0.133,0.002,0.238,0.109,0.239,0.238C325.591,21.784,325.484,21.889,325.353,21.889z"/>
			<path fill="#2E3192" d="M324.443,22.106c-0.131,0-0.236-0.104-0.236-0.238c0-0.133,0.104-0.236,0.238-0.236
				c0.131,0,0.236,0.104,0.236,0.238C324.681,21.999,324.574,22.106,324.443,22.106z"/>
			<path fill="#2E3192" d="M327.214,23.102c-0.133,0-0.236-0.109-0.236-0.238c0-0.135,0.105-0.24,0.236-0.24
				c0.133,0.002,0.239,0.107,0.238,0.238C327.453,22.995,327.345,23.102,327.214,23.102z"/>
			<path fill="#2E3192" d="M326.285,23.008c-0.131,0-0.238-0.107-0.238-0.238c0.001-0.131,0.105-0.238,0.238-0.236
				c0.131,0,0.24,0.104,0.24,0.238C326.525,22.901,326.417,23.008,326.285,23.008z"/>
			<path fill="#2E3192" d="M327.21,24.325c-0.131,0-0.239-0.109-0.24-0.238c0.002-0.133,0.109-0.24,0.242-0.238
				c0.128,0,0.236,0.105,0.236,0.238C327.449,24.217,327.341,24.325,327.21,24.325z"/>
			<path fill="#2E3192" d="M326.284,24.202c-0.134,0-0.237-0.107-0.237-0.238c0-0.133,0.105-0.24,0.236-0.238
				c0.133,0,0.239,0.105,0.239,0.238C326.521,24.096,326.417,24.202,326.284,24.202z"/>
			<path fill="#2E3192" d="M325.353,23.102c-0.131,0-0.237-0.109-0.239-0.242c0.001-0.131,0.108-0.236,0.241-0.236
				c0.13,0,0.239,0.105,0.239,0.238C325.593,22.993,325.486,23.1,325.353,23.102z"/>
			<path fill="#2E3192" d="M324.46,23.372c-0.131,0-0.24-0.107-0.24-0.24c0.002-0.131,0.109-0.236,0.242-0.236
				c0.128-0.002,0.234,0.104,0.234,0.238C324.696,23.262,324.591,23.372,324.46,23.372z"/>
			<path fill="#2E3192" d="M325.359,24.323c-0.134,0-0.239-0.107-0.24-0.238c0.002-0.133,0.109-0.24,0.239-0.24
				c0.132,0.002,0.239,0.109,0.239,0.238C325.597,24.217,325.49,24.323,325.359,24.323z"/>
			<circle fill="#2E3192" cx="324.496" cy="24.441" r="0.239"/>
			<circle fill="#2E3192" cx="322.781" cy="22.713" r="0.238"/>
			<circle fill="#2E3192" cx="322.912" cy="24.164" r="0.239"/>
			<path fill="#2E3192" d="M322.069,23.561c-0.133-0.002-0.237-0.109-0.237-0.238c0-0.135,0.105-0.24,0.236-0.24
				c0.133-0.002,0.238,0.107,0.239,0.238C322.306,23.454,322.199,23.559,322.069,23.561z"/>
			<path fill="#2E3192" d="M321.459,24.27c-0.133,0-0.237-0.107-0.236-0.238c-0.001-0.131,0.105-0.238,0.235-0.236
				c0.133-0.002,0.24,0.104,0.239,0.238C321.699,24.163,321.59,24.27,321.459,24.27z"/>
			<circle fill="#2E3192" cx="323.578" cy="22.225" r="0.238"/>
			<circle fill="#2E3192" cx="323.636" cy="23.573" r="0.238"/>
			<path fill="#2E3192" d="M327.195,25.575c-0.131,0.002-0.24-0.104-0.239-0.238c-0.001-0.129,0.107-0.238,0.241-0.238
				c0.131,0,0.239,0.109,0.238,0.242C327.435,25.469,327.328,25.577,327.195,25.575z"/>
			<circle fill="#2E3192" cx="326.283" cy="25.155" r="0.238"/>
			<path fill="#2E3192" d="M325.37,25.577c-0.133,0-0.237-0.109-0.236-0.238c0-0.135,0.105-0.24,0.235-0.242
				c0.133,0.002,0.24,0.109,0.24,0.24C325.609,25.469,325.5,25.575,325.37,25.577z"/>
			<circle fill="#2E3192" cx="324.079" cy="26.626" r="0.239"/>
			<path fill="#2E3192" d="M324.595,26.092c-0.133-0.002-0.237-0.109-0.238-0.238c0.002-0.135,0.106-0.24,0.239-0.24
				c0.132,0,0.237,0.107,0.237,0.238C324.833,25.985,324.728,26.092,324.595,26.092z"/>
			<circle fill="#2E3192" cx="324.078" cy="28.451" r="0.239"/>
			<path fill="#2E3192" d="M322.826,26.852c-0.132-0.002-0.238-0.107-0.238-0.242c0-0.129,0.108-0.236,0.238-0.236
				c0.133,0,0.237,0.107,0.237,0.238C323.062,26.743,322.958,26.85,322.826,26.852z"/>
			<circle fill="#2E3192" cx="323.185" cy="25.75" r="0.239"/>
			<path fill="#2E3192" d="M320.392,26.842c-0.131,0-0.238-0.107-0.238-0.242c0-0.129,0.107-0.234,0.24-0.236
				c0.131,0,0.236,0.109,0.237,0.24C320.63,26.733,320.525,26.842,320.392,26.842z"/>
			<circle fill="#2E3192" cx="320.611" cy="25.694" r="0.238"/>
			<circle fill="#2E3192" cx="321.604" cy="26.606" r="0.238"/>
			<path fill="#2E3192" d="M321.875,25.95c-0.131,0-0.239-0.107-0.238-0.238c0-0.133,0.107-0.24,0.24-0.24
				c0.131,0.002,0.236,0.109,0.239,0.238C322.116,25.844,322.008,25.95,321.875,25.95z"/>
			<circle fill="#2E3192" cx="322.704" cy="27.538" r="0.238"/>
			<path fill="#2E3192" d="M322.826,28.704c-0.133-0.002-0.238-0.107-0.239-0.242c-0.001-0.129,0.107-0.236,0.238-0.236
				c0.133,0,0.237,0.107,0.236,0.238C323.062,28.594,322.958,28.704,322.826,28.704z"/>
			<path fill="#2E3192" d="M321.51,27.776c-0.134,0-0.237-0.109-0.237-0.238c0.002-0.133,0.105-0.24,0.238-0.238
				c0.131,0,0.237,0.105,0.237,0.238C321.751,27.67,321.643,27.776,321.51,27.776z"/>
			<path fill="#2E3192" d="M320.318,27.774c-0.131,0-0.239-0.107-0.238-0.236c-0.001-0.133,0.107-0.24,0.24-0.238
				c0.131-0.002,0.24,0.104,0.238,0.238C320.559,27.667,320.452,27.774,320.318,27.774z"/>
			<circle fill="#2E3192" cx="320.392" cy="28.468" r="0.239"/>
			<circle fill="#2E3192" cx="321.602" cy="28.466" r="0.237"/>
			<path fill="#2E3192" d="M323.753,25.247c-0.133,0.002-0.239-0.105-0.239-0.24c0.001-0.129,0.108-0.234,0.238-0.236
				c0.133,0,0.24,0.105,0.239,0.238C323.992,25.139,323.884,25.249,323.753,25.247z"/>
			<path fill="#2E3192" d="M323.896,27.776c-0.133,0-0.237-0.104-0.236-0.238c0-0.129,0.105-0.24,0.235-0.238
				c0.133,0,0.24,0.107,0.239,0.24C324.134,27.67,324.027,27.776,323.896,27.776z"/>
			<path fill="#2E3192" d="M327.192,29.985c-0.133,0-0.239-0.109-0.238-0.238c-0.001-0.135,0.106-0.24,0.237-0.24
				c0.133,0.002,0.239,0.107,0.24,0.238C327.429,29.877,327.322,29.983,327.192,29.985z"/>
			<path fill="#2E3192" d="M326.279,30.163c-0.133,0-0.237-0.105-0.236-0.238c0-0.129,0.105-0.238,0.235-0.238
				c0.134,0,0.239,0.109,0.239,0.238C326.517,30.057,326.41,30.165,326.279,30.163z"/>
			<path fill="#2E3192" d="M327.206,31.235c-0.133-0.002-0.239-0.105-0.239-0.238c0-0.131,0.108-0.238,0.238-0.238
				c0.131,0.002,0.237,0.105,0.237,0.238C327.441,31.131,327.333,31.235,327.206,31.235z"/>
			<path fill="#2E3192" d="M326.278,31.358c-0.132-0.002-0.237-0.107-0.235-0.242c-0.001-0.129,0.105-0.236,0.234-0.236
				c0.134,0,0.24,0.109,0.24,0.238C326.517,31.249,326.41,31.356,326.278,31.358z"/>
			<circle fill="#2E3192" cx="325.366" cy="29.743" r="0.238"/>
			<circle fill="#2E3192" cx="325.353" cy="30.995" r="0.238"/>
			<path fill="#2E3192" d="M324.492,30.875c-0.131-0.002-0.24-0.107-0.24-0.238c0-0.133,0.107-0.24,0.24-0.24
				c0.129,0.004,0.237,0.107,0.236,0.24C324.728,30.77,324.621,30.875,324.492,30.875z"/>
			<circle fill="#2E3192" cx="327.208" cy="32.22" r="0.239"/>
			<path fill="#2E3192" d="M326.276,32.551c-0.131-0.002-0.237-0.109-0.237-0.242c0.001-0.131,0.105-0.236,0.238-0.238
				c0.131,0,0.24,0.107,0.24,0.24C326.517,32.44,326.409,32.549,326.276,32.551z"/>
			<circle fill="#2E3192" cx="327.208" cy="33.43" r="0.238"/>
			<path fill="#2E3192" d="M326.275,33.743c-0.131-0.002-0.236-0.109-0.236-0.238c0-0.135,0.105-0.24,0.238-0.24
				c0.131,0,0.24,0.107,0.239,0.238C326.516,33.635,326.409,33.743,326.275,33.743z"/>
			<circle fill="#2E3192" cx="325.347" cy="32.218" r="0.239"/>
			<path fill="#2E3192" d="M324.453,32.184c-0.131,0-0.236-0.107-0.239-0.238c-0.001-0.131,0.107-0.24,0.24-0.238
				c0.128,0,0.237,0.107,0.237,0.238C324.691,32.079,324.583,32.184,324.453,32.184z"/>
			<path fill="#2E3192" d="M325.341,33.668c-0.129-0.002-0.236-0.109-0.236-0.238c0-0.135,0.105-0.238,0.238-0.24
				c0.134,0,0.239,0.107,0.24,0.238C325.582,33.561,325.474,33.668,325.341,33.668z"/>
			<path fill="#2E3192" d="M324.435,33.45c-0.131-0.002-0.239-0.109-0.24-0.238c0.002-0.135,0.109-0.24,0.242-0.24
				c0.129-0.002,0.235,0.107,0.234,0.238C324.67,33.342,324.566,33.448,324.435,33.45z"/>
			<circle fill="#2E3192" cx="322.313" cy="30.187" r="0.239"/>
			<path fill="#2E3192" d="M322.906,31.151c-0.132,0-0.237-0.109-0.238-0.238c0.002-0.135,0.105-0.24,0.238-0.24
				c0.133,0.002,0.238,0.107,0.238,0.238C323.142,31.043,323.039,31.149,322.906,31.151z"/>
			<path fill="#2E3192" d="M321.455,31.282c-0.133-0.002-0.236-0.109-0.237-0.238c0.001-0.135,0.105-0.24,0.237-0.24
				c0.133-0.002,0.238,0.107,0.238,0.238C321.693,31.174,321.584,31.28,321.455,31.282z"/>
			<circle fill="#2E3192" cx="320.966" cy="30.243" r="0.238"/>
			<circle fill="#2E3192" cx="322.773" cy="32.361" r="0.239"/>
			<path fill="#2E3192" d="M322.062,31.993c-0.133-0.002-0.237-0.109-0.236-0.238c0-0.133,0.103-0.24,0.235-0.242
				c0.133,0,0.239,0.109,0.239,0.242C322.3,31.885,322.193,31.991,322.062,31.993z"/>
			<path fill="#2E3192" d="M323.748,30.307c-0.13,0-0.236-0.107-0.236-0.238c-0.002-0.131,0.105-0.238,0.238-0.236
				c0.133,0,0.239,0.104,0.24,0.234C323.988,30.2,323.88,30.305,323.748,30.307z"/>
			<circle fill="#2E3192" cx="323.629" cy="31.504" r="0.238"/>
			<path fill="#2E3192" d="M323.57,33.09c-0.134,0-0.238-0.109-0.238-0.238c0.001-0.135,0.105-0.24,0.236-0.24
				c0.133,0.002,0.239,0.107,0.24,0.238C323.806,32.983,323.699,33.09,323.57,33.09z"/>
			<path fill="#2E3192" d="M324.591,29.465c-0.131,0-0.234-0.109-0.237-0.24c0.001-0.131,0.105-0.238,0.238-0.238
				c0.132,0,0.24,0.105,0.239,0.24C324.832,29.356,324.724,29.463,324.591,29.465z"/>
			<path fill="#2E3192" d="M321.871,29.602c-0.129-0.002-0.236-0.107-0.238-0.242c0-0.129,0.107-0.236,0.24-0.236
				c0.131,0,0.24,0.107,0.24,0.238C322.112,29.493,322.003,29.602,321.871,29.602z"/>
			<path fill="#2E3192" d="M320.608,29.616c-0.13,0.002-0.237-0.107-0.236-0.238c0-0.131,0.108-0.238,0.235-0.236
				c0.133,0,0.24,0.105,0.24,0.236C320.847,29.51,320.74,29.616,320.608,29.616z"/>
			<circle fill="#2E3192" cx="323.181" cy="29.326" r="0.237"/>
			<path fill="#2E3192" d="M320.97,25.065c-0.131,0.002-0.24-0.104-0.24-0.238c0.001-0.129,0.108-0.234,0.242-0.236
				c0.129,0,0.238,0.107,0.238,0.24C321.21,24.959,321.103,25.067,320.97,25.065z"/>
			<circle fill="#2E3192" cx="322.317" cy="24.886" r="0.237"/>
		</g>
	</g>
</g>
<g id="LEGEND">
	<g id="NAVAID_2_">
		<g id="MTEXT_5_">
			<text transform="matrix(1 0 0 1 30.3057 -39.4609)"><tspan x="0" y="0" font-family="'ArialMT'" font-size="6.3611">Compas Rose </tspan><tspan x="-11.671" y="7.634" font-family="'ArialMT'" font-size="6.3611">with True and Variation</tspan><tspan x="-0.531" y="15.267" font-family="'ArialMT'" font-size="6.3611">Magnetic North</tspan><tspan x="8.836" y="22.9" font-family="'ArialMT'" font-size="6.3611">Indicator</tspan></text>
		</g>
		<g id="MTEXT_3_">
			<text transform="matrix(1 0 0 1 346.73 12.3027)" font-family="'ArialMT'" font-size="8.3989">LF/MF NDB or</text>
			<text transform="matrix(1 0 0 1 346.7192 21.8188)" font-family="'ArialMT'" font-size="8.3989">Marine Radio Beacon</text>
		</g>
		<g id="MTEXT_2_">
			<text transform="matrix(1 0 0 1 203.8833 31.3579)" font-family="'ArialMT'" font-size="8.3989">VOR</text>
		</g>
		<g id="MTEXT_1_">
			<text transform="matrix(1 0 0 1 262.7612 31.4673)" font-family="'ArialMT'" font-size="8.3989">VOR/DME</text>
		</g>
		<g id="MTEXT_6_">
			<text transform="matrix(1 0 0 1 262.7612 67.1782)" font-family="'ArialMT'" font-size="8.3989">DME</text>
		</g>
	</g>
	<g>
		<g id="LWPOLYLINE_1120_">
			<polygon fill="#FFFFFF" points="3.955,3.951 0,5.373 3.955,6.794 5.375,10.749 6.793,6.794 10.746,5.373 6.793,3.951 5.375,0 			
				"/>
		</g>
		<g id="LWPOLYLINE_1118_">
			<polygon fill="#231F20" stroke="#231F20" stroke-width="0.5" stroke-miterlimit="10" points="4.39,4.39 1.65,5.373 4.39,6.357 
				5.375,9.097 6.358,6.357 9.098,5.373 6.358,4.39 5.375,1.65 			"/>
		</g>
		<g id="CIRCLE_963_">
			
				<path fill="#FFFFFF" stroke="#FFFFFF" stroke-width="0.5" stroke-linecap="round" stroke-linejoin="round" stroke-miterlimit="10" d="
				M6.48,5.373c0-0.612-0.494-1.107-1.105-1.107c-0.613,0-1.109,0.495-1.109,1.107c0,0.611,0.496,1.108,1.109,1.108
				C5.986,6.481,6.48,5.984,6.48,5.373L6.48,5.373z"/>
		</g>
	</g>
	<g>
		<g id="LWPOLYLINE_1117_">
			<polygon fill="#FFFFFF" stroke="#FFFFFF" stroke-width="0.5" stroke-miterlimit="10" points="3.955,25.253 0,26.675 
				3.955,28.095 5.375,32.048 6.793,28.095 10.746,26.675 6.793,25.253 5.375,21.298 			"/>
		</g>
		<g id="LWPOLYLINE_1116_">
			<polygon fill="#FFFFFF" stroke="#231F20" stroke-width="0.5" stroke-miterlimit="10" points="4.39,25.689 1.65,26.675 
				4.39,27.658 5.375,30.398 6.358,27.658 9.098,26.675 6.358,25.689 5.375,22.949 			"/>
		</g>
		<g id="CIRCLE_958_">
			
				<path fill="#231F20" stroke="#231F20" stroke-width="0.5" stroke-linecap="round" stroke-linejoin="round" stroke-miterlimit="10" d="
				M6.48,26.675c0-0.613-0.494-1.111-1.105-1.111c-0.613,0-1.109,0.498-1.109,1.111c0,0.609,0.496,1.107,1.109,1.107
				C5.986,27.783,6.48,27.285,6.48,26.675L6.48,26.675z"/>
		</g>
	</g>
</g>
</svg>
