<svg xmlns="http://www.w3.org/2000/svg" viewBox="0 0 326.18476 299.85628"><title>AC-VOL3</title><g id="planes"><polygon points="265.571 107.644 239.378 107.644 239.378 115.328 265.571 129.433 265.571 107.644" fill="#00a4bc"/><path d="M131.16391,96.98788l-45.00879,24.2376a2.41365,2.41365,0,0,1-1.3887.74857l-14.3232,7.71277a2.44252,2.44252,0,0,1-.50977.27465L40.02022,146.07A2.42955,2.42955,0,0,1,37.983,147.1778l-.01688-.0015L0,167.62153l5.45175,20.63085,129.03555-33.0696C133.19857,135.86517,132.015,115.85136,131.16391,96.98788Z" fill="#00a4bc"/><polygon points="86.806 107.644 60.614 107.644 60.614 129.433 86.806 115.328 86.806 107.644" fill="#00a4bc"/><path d="M288.21862,147.1763l-.01687.0015a2.42834,2.42834,0,0,1-2.03683-1.10783l-29.91362-16.1085a2.443,2.443,0,0,1-.50977-.27465l-14.32282-7.71277a2.41372,2.41372,0,0,1-1.38907-.74857l-45.00952-24.238c-.851,18.8631-2.03535,38.87766-3.32293,58.19527L320.733,188.25238l5.45175-20.63085Z" fill="#00a4bc"/><path d="M178.6128,259.665c.12887-1.3989,12.86752-140.72685,12.86752-212.16134,0-19.64137-13.366-44.55877-28.3887-44.55877-15.022,0-28.38795,24.9174-28.38795,44.55877,0,71.4375,12.73942,210.76244,12.86835,212.16134a2.43467,2.43467,0,0,1-1.1664,2.30715l-37.942,22.89877v14.98537l54.0315-13.66155a2.44766,2.44766,0,0,1,1.19348,0l54.03262,13.66155V284.8709l-37.942-22.89877A2.43517,2.43517,0,0,1,178.6128,259.665Z" fill="#00a4bc"/></g></svg>