<?xml version="1.0" encoding="utf-8"?>
<!-- Generator: Adobe Illustrator 15.0.0, SVG Export Plug-In . SVG Version: 6.00 Build 0)  -->
<!DOCTYPE svg PUBLIC "-//W3C//DTD SVG 1.1//EN" "http://www.w3.org/Graphics/SVG/1.1/DTD/svg11.dtd">
<svg version="1.1" xmlns="http://www.w3.org/2000/svg" xmlns:xlink="http://www.w3.org/1999/xlink" x="0px" y="0px" width="8.323px"
	 height="7.32px" viewBox="0 0 8.323 7.32" enable-background="new 0 0 8.323 7.32" xml:space="preserve">
<g id="Layer_1">
</g>
<g id="ANC_LEGEND">
	<text transform="matrix(1 0.0018 -0.0018 1 114.9619 21.3516)" fill="#232020" font-family="'CenturyGothic'" font-size="7.5">TACAN</text>
	<text transform="matrix(1 0.0018 -0.0018 1 88.8945 9.6973)" fill="#232020" font-family="'CenturyGothic'" font-size="7.5">VORTAC</text>
	<g>
		
			<rect x="261.635" y="-3.69" transform="matrix(1 0.0019 -0.0019 1 0.0023 -0.5032)" opacity="0.75" fill="#FFFFFF" stroke="#FFFFFF" stroke-width="0.1764" stroke-linecap="round" stroke-linejoin="round" width="9.302" height="9.303"/>
		<polygon fill="none" stroke="#242224" stroke-width="0.5" points="264.413,-2.295 262.531,0.957 264.403,4.211 268.158,4.219 
			270.042,0.969 268.167,-2.287 		"/>
		
			<rect x="262.101" y="-3.224" transform="matrix(1 0.0016 -0.0016 1 0.0019 -0.435)" fill="none" stroke="#242224" stroke-width="0.5" width="8.369" height="8.373"/>
		<path fill="#232020" stroke="#232020" stroke-width="0.5" stroke-linecap="round" stroke-linejoin="round" d="M266.566,0.959
			c0,0.156-0.124,0.281-0.28,0.281c-0.152,0-0.278-0.125-0.278-0.281c0-0.152,0.126-0.277,0.278-0.277
			C266.442,0.682,266.566,0.807,266.566,0.959z"/>
	</g>
	<g>
		
			<rect x="252.784" y="32.756" transform="matrix(1 0.0019 -0.0019 1 0.0711 -0.4864)" opacity="0.75" fill="#FFFFFF" stroke="#FFFFFF" stroke-width="0.1764" stroke-linecap="round" stroke-linejoin="round" width="9.302" height="9.303"/>
		
			<rect x="253.25" y="33.223" transform="matrix(1 0.0016 -0.0016 1 0.0615 -0.4205)" fill="none" stroke="#242224" stroke-width="0.5" width="8.369" height="8.373"/>
		<path fill="#232020" stroke="#232020" stroke-width="0.5" stroke-linecap="round" stroke-linejoin="round" d="M257.715,37.405
			c0,0.156-0.124,0.281-0.28,0.281c-0.153,0-0.278-0.125-0.278-0.281c0-0.152,0.125-0.277,0.278-0.277
			C257.591,37.128,257.715,37.253,257.715,37.405z"/>
	</g>
	<g>
		<g>
			<polygon fill="none" stroke="#232020" stroke-width="0.1764" stroke-linecap="round" stroke-linejoin="round" points="
				11.375,-19.406 10.745,-19.041 6.545,-19.049 5.916,-19.412 4.319,-16.654 4.946,-16.291 7.041,-12.648 7.041,-11.922 
				10.229,-11.918 10.229,-12.643 12.336,-16.277 12.966,-16.639 			"/>
			<polygon fill="none" stroke="#232020" stroke-width="0.1764" stroke-linecap="round" stroke-linejoin="round" points="
				11.521,-19.949 10.64,-19.441 6.653,-19.447 5.771,-19.957 3.774,-16.508 4.656,-15.998 6.641,-12.541 6.641,-11.527 
				10.627,-11.52 10.627,-12.535 12.627,-15.982 13.508,-16.492 			"/>
			<polygon fill="none" stroke="#FFFFFF" stroke-width="0.1764" stroke-linecap="round" stroke-linejoin="round" points="
				11.67,-20.492 10.532,-19.84 6.76,-19.846 5.627,-20.502 3.23,-16.363 4.363,-15.707 6.243,-12.438 6.24,-11.127 11.023,-11.119 
				11.025,-12.43 12.917,-15.695 14.053,-16.346 			"/>
			
				<circle fill="none" stroke="#232020" stroke-width="0.25" stroke-linecap="round" stroke-linejoin="round" cx="8.64" cy="-15.991" r="0.266"/>
		</g>
	</g>
	<g>
		<circle fill="#FFFFFF" cx="311.486" cy="12.342" r="6.657"/>
		<g>
			<path fill="#2E3192" d="M313.327,6.906c-0.133,0-0.238-0.107-0.238-0.238c0-0.135,0.107-0.238,0.238-0.236
				c0.133,0,0.24,0.104,0.239,0.234C313.566,6.799,313.458,6.906,313.327,6.906z"/>
			<path fill="#2E3192" d="M316.305,9.074c-0.133,0-0.238-0.107-0.238-0.236c0-0.133,0.107-0.24,0.238-0.238
				c0.133,0,0.24,0.104,0.238,0.238C316.544,8.967,316.438,9.074,316.305,9.074z"/>
			<path fill="#2E3192" d="M315.699,8.363c-0.132,0-0.237-0.109-0.237-0.238c0-0.135,0.105-0.24,0.238-0.24
				c0.131,0.002,0.236,0.107,0.237,0.238C315.939,8.256,315.832,8.363,315.699,8.363z"/>
			<circle fill="#2E3192" cx="313.309" cy="7.931" r="0.237"/>
			<circle fill="#2E3192" cx="313.271" cy="9.239" r="0.239"/>
			<path fill="#2E3192" d="M314.133,8.611c-0.133,0-0.24-0.105-0.238-0.24c-0.001-0.129,0.107-0.238,0.238-0.238
				c0.133,0,0.236,0.107,0.236,0.24C314.371,8.504,314.264,8.609,314.133,8.611z"/>
			<path fill="#2E3192" d="M314.855,9.205c-0.13,0.002-0.239-0.107-0.239-0.236c0.001-0.135,0.108-0.24,0.241-0.24
				c0.13,0.002,0.239,0.105,0.239,0.238C315.096,9.098,314.989,9.205,314.855,9.205z"/>
			<path fill="#2E3192" d="M314.989,7.754c-0.131,0-0.24-0.105-0.24-0.238c0.001-0.131,0.108-0.238,0.242-0.238
				c0.129,0.002,0.234,0.107,0.234,0.238C315.227,7.648,315.122,7.754,314.989,7.754z"/>
			<circle fill="#2E3192" cx="314.19" cy="7.026" r="0.239"/>
			<path fill="#2E3192" d="M317.368,11.648c-0.129,0-0.236-0.109-0.235-0.24c-0.001-0.133,0.107-0.238,0.235-0.24
				c0.133,0.002,0.24,0.109,0.239,0.24C317.607,11.541,317.5,11.646,317.368,11.648z"/>
			<circle fill="#2E3192" cx="317.152" cy="10.498" r="0.238"/>
			<path fill="#2E3192" d="M317.442,12.582c-0.13-0.002-0.236-0.109-0.236-0.238c-0.002-0.135,0.105-0.24,0.238-0.24
				c0.129-0.002,0.236,0.107,0.236,0.238C317.68,12.475,317.573,12.582,317.442,12.582z"/>
			<path fill="#2E3192" d="M317.368,13.512c-0.13,0-0.237-0.105-0.236-0.238c0-0.131,0.106-0.24,0.235-0.236
				c0.133,0,0.24,0.104,0.239,0.238C317.606,13.404,317.499,13.512,317.368,13.512z"/>
			<path fill="#2E3192" d="M316.161,11.648c-0.133,0.002-0.241-0.105-0.24-0.24c0-0.129,0.107-0.236,0.24-0.236
				c0.128,0,0.235,0.105,0.237,0.238C316.397,11.541,316.29,11.65,316.161,11.648z"/>
			<circle fill="#2E3192" cx="315.887" cy="10.516" r="0.238"/>
			<path fill="#2E3192" d="M314.009,10.049c-0.13-0.002-0.237-0.109-0.236-0.238c0-0.135,0.106-0.24,0.239-0.24
				c0.129-0.002,0.238,0.107,0.238,0.238C314.25,9.941,314.143,10.049,314.009,10.049z"/>
			<path fill="#2E3192" d="M313.685,11.664c-0.134,0-0.24-0.105-0.239-0.238c0-0.133,0.107-0.236,0.238-0.236
				c0.133-0.002,0.237,0.104,0.236,0.238C313.92,11.557,313.815,11.664,313.685,11.664z"/>
			<circle fill="#2E3192" cx="313.167" cy="10.651" r="0.237"/>
			<circle fill="#2E3192" stroke="#29256A" stroke-width="0.5" stroke-miterlimit="10" cx="311.482" cy="12.333" r="0.237"/>
			<circle fill="#2E3192" cx="314.937" cy="11.414" r="0.238"/>
			<path fill="#2E3192" d="M314.579,10.789c-0.133,0-0.236-0.105-0.236-0.24c0-0.129,0.105-0.236,0.236-0.236
				c0.133,0,0.238,0.105,0.238,0.238C314.817,10.682,314.709,10.791,314.579,10.789z"/>
			<circle fill="#2E3192" cx="316.25" cy="12.34" r="0.238"/>
			<path fill="#2E3192" d="M315.059,12.576c-0.134,0-0.24-0.104-0.24-0.238c0-0.129,0.108-0.236,0.238-0.238
				c0.133,0,0.237,0.109,0.237,0.24C315.293,12.471,315.189,12.578,315.059,12.576z"/>
			<path fill="#2E3192" d="M316.159,13.51c-0.133,0-0.24-0.105-0.238-0.24c-0.001-0.129,0.107-0.234,0.238-0.236
				c0.13,0,0.236,0.105,0.236,0.238C316.395,13.402,316.288,13.508,316.159,13.51z"/>
			<circle fill="#2E3192" cx="313.864" cy="12.338" r="0.238"/>
			<path fill="#2E3192" d="M313.682,13.488c-0.131,0.002-0.238-0.105-0.24-0.238c0.002-0.131,0.108-0.236,0.242-0.236
				c0.129,0,0.236,0.105,0.236,0.238C313.92,13.381,313.815,13.49,313.682,13.488z"/>
			<circle fill="#2E3192" cx="314.935" cy="13.266" r="0.238"/>
			<circle fill="#2E3192" cx="315.444" cy="14.99" r="0.238"/>
			<circle fill="#2E3192" cx="316.301" cy="15.846" r="0.24"/>
			<path fill="#2E3192" d="M314.007,15.105c-0.134,0-0.237-0.104-0.237-0.238c0-0.131,0.105-0.236,0.236-0.236
				c0.133,0,0.239,0.104,0.239,0.238C314.245,15,314.137,15.105,314.007,15.105z"/>
			<path fill="#2E3192" d="M313.266,15.676c-0.133,0-0.239-0.107-0.238-0.238c-0.001-0.131,0.107-0.24,0.238-0.24
				c0.133,0,0.238,0.107,0.238,0.242C313.504,15.568,313.397,15.674,313.266,15.676z"/>
			<path fill="#2E3192" d="M314.85,15.951c-0.133-0.002-0.239-0.107-0.238-0.238c0-0.133,0.107-0.24,0.238-0.24
				c0.133,0,0.238,0.109,0.239,0.238C315.088,15.846,314.981,15.951,314.85,15.951z"/>
			<circle fill="#2E3192" cx="313.302" cy="16.745" r="0.237"/>
			<path fill="#2E3192" d="M313.317,18.246c-0.13,0.002-0.238-0.105-0.239-0.238c0.001-0.131,0.108-0.236,0.241-0.238
				c0.131,0,0.237,0.109,0.236,0.238C313.557,18.141,313.45,18.248,313.317,18.246z"/>
			<circle fill="#2E3192" cx="314.182" cy="17.651" r="0.237"/>
			<circle fill="#2E3192" cx="314.98" cy="17.163" r="0.239"/>
			<path fill="#2E3192" d="M314.127,16.541c-0.131,0.002-0.24-0.104-0.24-0.234c0-0.133,0.107-0.24,0.24-0.24
				c0.132,0,0.235,0.109,0.238,0.238C314.364,16.439,314.26,16.543,314.127,16.541z"/>
			<path fill="#2E3192" d="M315.692,16.795c-0.133,0-0.237-0.109-0.236-0.238c-0.001-0.131,0.105-0.238,0.235-0.24
				c0.133,0,0.239,0.107,0.239,0.242C315.93,16.688,315.825,16.795,315.692,16.795z"/>
			<circle fill="#2E3192" cx="316.789" cy="15.049" r="0.238"/>
			<circle fill="#2E3192" cx="313.165" cy="14.025" r="0.238"/>
			<circle fill="#2E3192" cx="314.576" cy="14.128" r="0.237"/>
			<circle fill="#2E3192" cx="315.885" cy="14.167" r="0.239"/>
			<path fill="#2E3192" d="M317.149,14.424c-0.133-0.002-0.238-0.107-0.239-0.242c0.001-0.131,0.108-0.236,0.237-0.236
				c0.134,0,0.24,0.107,0.24,0.238S317.282,14.424,317.149,14.424z"/>
			<circle fill="#2E3192" cx="316.793" cy="9.634" r="0.237"/>
			<path fill="#2E3192" d="M315.449,9.928c-0.133,0-0.239-0.105-0.239-0.238c0-0.131,0.109-0.24,0.238-0.238
				c0.133,0,0.237,0.105,0.237,0.24C315.684,9.82,315.581,9.928,315.449,9.928z"/>
			<path fill="#2E3192" d="M312.416,6.688c-0.13,0-0.237-0.109-0.236-0.238c0-0.135,0.105-0.238,0.238-0.236
				c0.13-0.004,0.237,0.104,0.239,0.234C312.657,6.58,312.549,6.686,312.416,6.688z"/>
			<path fill="#2E3192" d="M311.483,6.611c-0.131,0.004-0.235-0.105-0.234-0.236c-0.002-0.135,0.103-0.24,0.234-0.238
				c0.134,0,0.241,0.105,0.24,0.24C311.723,6.506,311.616,6.611,311.483,6.611z"/>
			<path fill="#2E3192" d="M310.551,6.686c-0.133,0-0.239-0.107-0.238-0.238c0-0.135,0.107-0.24,0.238-0.24
				c0.133,0.002,0.238,0.109,0.239,0.238C310.79,6.58,310.682,6.686,310.551,6.686z"/>
			<path fill="#2E3192" d="M309.641,6.902c-0.131,0-0.236-0.104-0.236-0.238c0-0.133,0.104-0.236,0.238-0.236
				c0.131,0,0.236,0.104,0.236,0.238C309.879,6.795,309.772,6.902,309.641,6.902z"/>
			<path fill="#2E3192" d="M312.413,7.898c-0.133,0-0.236-0.109-0.236-0.238c0-0.135,0.105-0.24,0.236-0.24
				c0.133,0.002,0.239,0.107,0.238,0.238C312.651,7.791,312.543,7.898,312.413,7.898z"/>
			<path fill="#2E3192" d="M311.483,7.805c-0.131,0-0.238-0.107-0.238-0.238c0.001-0.131,0.105-0.238,0.238-0.236
				c0.131,0,0.24,0.104,0.24,0.238C311.723,7.697,311.616,7.805,311.483,7.805z"/>
			<path fill="#2E3192" d="M312.409,9.121c-0.131,0-0.239-0.109-0.24-0.238c0.002-0.133,0.109-0.24,0.242-0.238
				c0.128,0,0.236,0.105,0.236,0.238C312.647,9.014,312.54,9.121,312.409,9.121z"/>
			<path fill="#2E3192" d="M311.482,8.998c-0.134,0-0.237-0.107-0.237-0.238c0-0.133,0.105-0.24,0.236-0.238
				c0.133,0,0.239,0.105,0.239,0.238C311.719,8.893,311.615,8.998,311.482,8.998z"/>
			<path fill="#2E3192" d="M310.551,7.898c-0.131,0-0.237-0.109-0.239-0.242c0.001-0.131,0.108-0.236,0.241-0.236
				c0.13,0,0.239,0.105,0.239,0.238C310.792,7.789,310.684,7.896,310.551,7.898z"/>
			<path fill="#2E3192" d="M309.659,8.168c-0.131,0-0.24-0.107-0.24-0.24c0.002-0.131,0.109-0.236,0.242-0.236
				c0.128-0.002,0.234,0.104,0.234,0.238C309.894,8.059,309.79,8.168,309.659,8.168z"/>
			<path fill="#2E3192" d="M310.557,9.119c-0.134,0-0.239-0.107-0.24-0.238c0.002-0.133,0.109-0.24,0.239-0.24
				c0.132,0.002,0.239,0.109,0.239,0.238C310.795,9.014,310.688,9.119,310.557,9.119z"/>
			<circle fill="#2E3192" cx="309.694" cy="9.237" r="0.239"/>
			<circle fill="#2E3192" cx="307.979" cy="7.51" r="0.238"/>
			<circle fill="#2E3192" cx="308.11" cy="8.96" r="0.239"/>
			<path fill="#2E3192" d="M307.267,8.357c-0.133-0.002-0.237-0.109-0.237-0.238c0-0.135,0.105-0.24,0.236-0.24
				c0.133-0.002,0.238,0.107,0.239,0.238C307.504,8.25,307.397,8.355,307.267,8.357z"/>
			<path fill="#2E3192" d="M306.658,9.066c-0.133,0-0.237-0.107-0.236-0.238c-0.001-0.131,0.105-0.238,0.235-0.236
				c0.133-0.002,0.24,0.104,0.239,0.238C306.897,8.959,306.789,9.066,306.658,9.066z"/>
			<circle fill="#2E3192" cx="308.776" cy="7.021" r="0.238"/>
			<circle fill="#2E3192" cx="308.834" cy="8.369" r="0.238"/>
			<path fill="#2E3192" d="M312.393,10.371c-0.131,0.002-0.24-0.104-0.239-0.238c-0.001-0.129,0.107-0.238,0.241-0.238
				c0.131,0,0.239,0.109,0.238,0.242C312.633,10.266,312.526,10.373,312.393,10.371z"/>
			<circle fill="#2E3192" cx="311.481" cy="9.951" r="0.238"/>
			<path fill="#2E3192" d="M310.568,10.373c-0.133,0-0.237-0.109-0.236-0.238c0-0.135,0.105-0.24,0.235-0.242
				c0.133,0.002,0.24,0.109,0.24,0.24C310.807,10.266,310.699,10.371,310.568,10.373z"/>
			<circle fill="#2E3192" cx="309.277" cy="11.423" r="0.239"/>
			<path fill="#2E3192" d="M309.793,10.889c-0.133-0.002-0.237-0.109-0.238-0.238c0.002-0.135,0.106-0.24,0.239-0.24
				c0.132,0,0.237,0.107,0.237,0.238C310.031,10.781,309.926,10.889,309.793,10.889z"/>
			<circle fill="#2E3192" cx="309.276" cy="13.247" r="0.239"/>
			<path fill="#2E3192" d="M308.024,11.648c-0.132-0.002-0.238-0.107-0.238-0.242c0-0.129,0.108-0.236,0.238-0.236
				c0.133,0,0.237,0.107,0.237,0.238C308.26,11.539,308.156,11.646,308.024,11.648z"/>
			<circle fill="#2E3192" cx="308.383" cy="10.546" r="0.239"/>
			<path fill="#2E3192" d="M305.59,11.639c-0.131,0-0.238-0.107-0.238-0.242c0-0.129,0.107-0.234,0.24-0.236
				c0.131,0,0.236,0.109,0.237,0.24C305.829,11.529,305.723,11.639,305.59,11.639z"/>
			<circle fill="#2E3192" cx="305.81" cy="10.49" r="0.238"/>
			<circle fill="#2E3192" cx="306.802" cy="11.402" r="0.238"/>
			<path fill="#2E3192" d="M307.073,10.746c-0.131,0-0.239-0.107-0.238-0.238c0-0.133,0.107-0.24,0.24-0.24
				c0.131,0.002,0.236,0.109,0.239,0.238C307.314,10.641,307.207,10.746,307.073,10.746z"/>
			<circle fill="#2E3192" cx="307.902" cy="12.334" r="0.238"/>
			<path fill="#2E3192" d="M308.024,13.5c-0.133-0.002-0.238-0.107-0.239-0.242c-0.001-0.129,0.107-0.236,0.238-0.236
				c0.133,0,0.237,0.107,0.236,0.238C308.26,13.391,308.157,13.5,308.024,13.5z"/>
			<path fill="#2E3192" d="M306.708,12.572c-0.134,0-0.237-0.109-0.237-0.238c0.002-0.133,0.105-0.24,0.238-0.238
				c0.131,0,0.237,0.105,0.237,0.238C306.95,12.467,306.841,12.572,306.708,12.572z"/>
			<path fill="#2E3192" d="M305.516,12.57c-0.131,0-0.239-0.107-0.238-0.236c-0.001-0.133,0.107-0.24,0.24-0.238
				c0.131-0.002,0.24,0.104,0.238,0.238C305.757,12.463,305.65,12.57,305.516,12.57z"/>
			<circle fill="#2E3192" cx="305.59" cy="13.265" r="0.239"/>
			<circle fill="#2E3192" cx="306.8" cy="13.263" r="0.237"/>
			<path fill="#2E3192" d="M308.952,10.043c-0.133,0.002-0.239-0.105-0.239-0.24c0.001-0.129,0.108-0.234,0.238-0.236
				c0.133,0,0.24,0.105,0.239,0.238C309.19,9.936,309.083,10.045,308.952,10.043z"/>
			<path fill="#2E3192" d="M309.094,12.572c-0.133,0-0.237-0.104-0.236-0.238c0-0.129,0.105-0.24,0.235-0.238
				c0.133,0,0.24,0.107,0.239,0.24C309.333,12.467,309.225,12.572,309.094,12.572z"/>
			<path fill="#2E3192" d="M312.39,14.781c-0.133,0-0.239-0.109-0.238-0.238c-0.001-0.135,0.106-0.24,0.237-0.24
				c0.133,0.002,0.239,0.107,0.24,0.238C312.627,14.674,312.52,14.779,312.39,14.781z"/>
			<path fill="#2E3192" d="M311.477,14.959c-0.133,0-0.237-0.105-0.236-0.238c0-0.129,0.105-0.238,0.235-0.238
				c0.134,0,0.239,0.109,0.239,0.238C311.715,14.854,311.608,14.961,311.477,14.959z"/>
			<path fill="#2E3192" d="M312.404,16.031c-0.133-0.002-0.239-0.105-0.239-0.238c0-0.131,0.108-0.238,0.238-0.238
				c0.131,0.002,0.237,0.105,0.237,0.238C312.639,15.928,312.532,16.031,312.404,16.031z"/>
			<path fill="#2E3192" d="M311.476,16.154c-0.132-0.002-0.237-0.107-0.235-0.242c-0.001-0.129,0.105-0.236,0.234-0.236
				c0.134,0,0.24,0.109,0.24,0.238C311.715,16.045,311.608,16.152,311.476,16.154z"/>
			<circle fill="#2E3192" cx="310.564" cy="14.539" r="0.238"/>
			<circle fill="#2E3192" cx="310.551" cy="15.791" r="0.238"/>
			<path fill="#2E3192" d="M309.69,15.672c-0.131-0.002-0.24-0.107-0.24-0.238c0-0.133,0.107-0.24,0.24-0.24
				c0.129,0.004,0.237,0.107,0.236,0.24C309.926,15.566,309.819,15.672,309.69,15.672z"/>
			<circle fill="#2E3192" cx="312.406" cy="17.017" r="0.239"/>
			<path fill="#2E3192" d="M311.474,17.348c-0.131-0.002-0.237-0.109-0.237-0.242c0.001-0.131,0.105-0.236,0.238-0.238
				c0.131,0,0.24,0.107,0.24,0.24C311.715,17.236,311.607,17.346,311.474,17.348z"/>
			<circle fill="#2E3192" cx="312.406" cy="18.227" r="0.238"/>
			<path fill="#2E3192" d="M311.473,18.539c-0.131-0.002-0.236-0.109-0.236-0.238c0-0.135,0.105-0.24,0.238-0.24
				c0.131,0,0.24,0.107,0.239,0.238C311.714,18.432,311.607,18.539,311.473,18.539z"/>
			<circle fill="#2E3192" cx="310.545" cy="17.015" r="0.239"/>
			<path fill="#2E3192" d="M309.651,16.98c-0.131,0-0.236-0.107-0.239-0.238c-0.001-0.131,0.107-0.24,0.24-0.238
				c0.128,0,0.237,0.107,0.237,0.238C309.889,16.875,309.781,16.98,309.651,16.98z"/>
			<path fill="#2E3192" d="M310.54,18.465c-0.129-0.002-0.236-0.109-0.236-0.238c0-0.135,0.105-0.238,0.238-0.24
				c0.134,0,0.239,0.107,0.24,0.238C310.78,18.357,310.672,18.465,310.54,18.465z"/>
			<path fill="#2E3192" d="M309.633,18.246c-0.131-0.002-0.239-0.109-0.24-0.238c0.002-0.135,0.109-0.24,0.242-0.24
				c0.129-0.002,0.235,0.107,0.234,0.238C309.869,18.139,309.764,18.244,309.633,18.246z"/>
			<circle fill="#2E3192" cx="307.511" cy="14.983" r="0.239"/>
			<path fill="#2E3192" d="M308.104,15.947c-0.132,0-0.237-0.109-0.238-0.238c0.002-0.135,0.105-0.24,0.238-0.24
				c0.133,0.002,0.238,0.107,0.238,0.238C308.34,15.84,308.237,15.945,308.104,15.947z"/>
			<path fill="#2E3192" d="M306.653,16.078c-0.133-0.002-0.236-0.109-0.237-0.238c0.001-0.135,0.105-0.24,0.237-0.24
				c0.133-0.002,0.238,0.107,0.238,0.238C306.891,15.971,306.783,16.076,306.653,16.078z"/>
			<circle fill="#2E3192" cx="306.164" cy="15.039" r="0.238"/>
			<circle fill="#2E3192" cx="307.972" cy="17.157" r="0.239"/>
			<path fill="#2E3192" d="M307.26,16.789c-0.133-0.002-0.237-0.109-0.236-0.238c0-0.133,0.103-0.24,0.235-0.242
				c0.133,0,0.239,0.109,0.239,0.242C307.499,16.682,307.391,16.787,307.26,16.789z"/>
			<path fill="#2E3192" d="M308.946,15.104c-0.13,0-0.236-0.107-0.236-0.238c-0.002-0.131,0.105-0.238,0.238-0.236
				c0.133,0,0.239,0.104,0.24,0.234C309.186,14.996,309.079,15.102,308.946,15.104z"/>
			<circle fill="#2E3192" cx="308.827" cy="16.301" r="0.238"/>
			<path fill="#2E3192" d="M308.768,17.887c-0.134,0-0.238-0.109-0.238-0.238c0.001-0.135,0.105-0.24,0.236-0.24
				c0.133,0.002,0.239,0.107,0.24,0.238C309.004,17.779,308.897,17.887,308.768,17.887z"/>
			<path fill="#2E3192" d="M309.79,14.262c-0.131,0-0.234-0.109-0.237-0.24c0.001-0.131,0.105-0.238,0.238-0.238
				c0.132,0,0.24,0.105,0.239,0.24C310.03,14.152,309.922,14.26,309.79,14.262z"/>
			<path fill="#2E3192" d="M307.069,14.398c-0.129-0.002-0.236-0.107-0.238-0.242c0-0.129,0.107-0.236,0.24-0.236
				c0.131,0,0.24,0.107,0.24,0.238C307.31,14.289,307.202,14.398,307.069,14.398z"/>
			<path fill="#2E3192" d="M305.806,14.412c-0.13,0.002-0.237-0.107-0.236-0.238c0-0.131,0.108-0.238,0.235-0.236
				c0.133,0,0.24,0.105,0.24,0.236C306.045,14.307,305.938,14.412,305.806,14.412z"/>
			<circle fill="#2E3192" cx="308.379" cy="14.122" r="0.237"/>
			<path fill="#2E3192" d="M306.168,9.861c-0.131,0.002-0.24-0.104-0.24-0.238c0.001-0.129,0.108-0.234,0.242-0.236
				c0.129,0,0.238,0.107,0.238,0.24C306.409,9.756,306.301,9.863,306.168,9.861z"/>
			<circle fill="#2E3192" cx="307.515" cy="9.683" r="0.237"/>
		</g>
	</g>
	<g>
		<polygon fill="none" stroke="#242224" stroke-width="0.5" points="2.339,0.426 0.457,3.678 2.33,6.934 6.082,6.939 7.969,3.691 
			6.094,0.434 		"/>
		<circle fill="#232020" stroke="#232020" stroke-width="0.5" cx="4.214" cy="3.684" r="0.281"/>
	</g>
</g>
<g id="LEGEND">
	<g id="NAVAID_2_">
		<g id="MTEXT_5_">
			<text transform="matrix(1 0 0 1 15.5039 -54.6646)"><tspan x="0" y="0" font-family="'ArialMT'" font-size="6.3611">Compas Rose </tspan><tspan x="-11.671" y="7.634" font-family="'ArialMT'" font-size="6.3611">with True and Variation</tspan><tspan x="-0.531" y="15.267" font-family="'ArialMT'" font-size="6.3611">Magnetic North</tspan><tspan x="8.836" y="22.9" font-family="'ArialMT'" font-size="6.3611">Indicator</tspan></text>
		</g>
		<g id="MTEXT_3_">
			<text transform="matrix(1 0 0 1 331.9282 -2.9009)" font-family="'ArialMT'" font-size="8.3989">LF/MF NDB or</text>
			<text transform="matrix(1 0 0 1 331.9175 6.6152)" font-family="'ArialMT'" font-size="8.3989">Marine Radio Beacon</text>
		</g>
		<g id="MTEXT_2_">
			<text transform="matrix(1 0 0 1 189.0815 16.1543)" font-family="'ArialMT'" font-size="8.3989">VOR</text>
		</g>
		<g id="MTEXT_1_">
			<text transform="matrix(1 0 0 1 247.9595 16.2637)" font-family="'ArialMT'" font-size="8.3989">VOR/DME</text>
		</g>
		<g id="MTEXT_6_">
			<text transform="matrix(1 0 0 1 247.9595 51.9746)" font-family="'ArialMT'" font-size="8.3989">DME</text>
		</g>
	</g>
</g>
</svg>
