<?xml version="1.0" encoding="utf-8"?>
<!-- Generator: Adobe Illustrator 15.0.0, SVG Export Plug-In . SVG Version: 6.00 Build 0)  -->
<!DOCTYPE svg PUBLIC "-//W3C//DTD SVG 1.1//EN" "http://www.w3.org/Graphics/SVG/1.1/DTD/svg11.dtd">
<svg version="1.1" xmlns="http://www.w3.org/2000/svg" xmlns:xlink="http://www.w3.org/1999/xlink" x="0px" y="0px"
	 width="11.087px" height="9.518px" viewBox="0 0 11.087 9.518" enable-background="new 0 0 11.087 9.518" xml:space="preserve">
<g id="Layer_1">
</g>
<g id="ANC_LEGEND">
	<text transform="matrix(1 0.0018 -0.0018 1 116.1938 22.2051)" fill="#232020" font-family="'CenturyGothic'" font-size="7.5">TACAN</text>
	<text transform="matrix(1 0.0018 -0.0018 1 90.1265 10.5508)" fill="#232020" font-family="'CenturyGothic'" font-size="7.5">VORTAC</text>
	<g>
		<polygon fill="none" stroke="#242224" stroke-width="0.5" points="198.571,-1.721 196.688,1.531 198.562,4.787 202.313,4.793 
			204.201,1.545 202.326,-1.713 		"/>
		<circle fill="#232020" stroke="#232020" stroke-width="0.5" cx="200.446" cy="1.537" r="0.281"/>
	</g>
	<g>
		
			<rect x="262.867" y="-2.837" transform="matrix(1 0.0019 -0.0019 1 0.0039 -0.5055)" opacity="0.75" fill="#FFFFFF" stroke="#FFFFFF" stroke-width="0.1764" stroke-linecap="round" stroke-linejoin="round" width="9.302" height="9.303"/>
		<polygon fill="none" stroke="#242224" stroke-width="0.5" points="265.645,-1.441 263.763,1.811 265.635,5.064 269.39,5.072 
			271.274,1.822 269.399,-1.434 		"/>
		
			<rect x="263.333" y="-2.37" transform="matrix(1 0.0016 -0.0016 1 0.0033 -0.437)" fill="none" stroke="#242224" stroke-width="0.5" width="8.369" height="8.373"/>
		<path fill="#232020" stroke="#232020" stroke-width="0.5" stroke-linecap="round" stroke-linejoin="round" d="M267.798,1.813
			c0,0.156-0.124,0.281-0.28,0.281c-0.152,0-0.278-0.125-0.278-0.281c0-0.152,0.126-0.277,0.278-0.277
			C267.674,1.535,267.798,1.66,267.798,1.813z"/>
	</g>
	<g>
		
			<rect x="254.016" y="33.609" transform="matrix(1 0.0019 -0.0019 1 0.0728 -0.4888)" opacity="0.75" fill="#FFFFFF" stroke="#FFFFFF" stroke-width="0.1764" stroke-linecap="round" stroke-linejoin="round" width="9.302" height="9.303"/>
		
			<rect x="254.482" y="34.076" transform="matrix(1 0.0016 -0.0016 1 0.0628 -0.4225)" fill="none" stroke="#242224" stroke-width="0.5" width="8.369" height="8.373"/>
		<path fill="#232020" stroke="#232020" stroke-width="0.5" stroke-linecap="round" stroke-linejoin="round" d="M258.947,38.259
			c0,0.156-0.124,0.281-0.28,0.281c-0.153,0-0.278-0.125-0.278-0.281c0-0.152,0.125-0.277,0.278-0.277
			C258.823,37.981,258.947,38.106,258.947,38.259z"/>
	</g>
	<g>
		<g>
			<polygon fill="none" stroke="#232020" stroke-width="0.1764" stroke-linecap="round" stroke-linejoin="round" points="
				12.606,-18.553 11.977,-18.188 7.777,-18.195 7.147,-18.559 5.551,-15.801 6.178,-15.438 8.273,-11.795 8.273,-11.068 
				11.461,-11.064 11.461,-11.789 13.568,-15.424 14.198,-15.785 			"/>
			<polygon fill="none" stroke="#232020" stroke-width="0.1764" stroke-linecap="round" stroke-linejoin="round" points="
				12.753,-19.096 11.872,-18.588 7.885,-18.594 7.003,-19.104 5.006,-15.654 5.888,-15.145 7.873,-11.688 7.873,-10.674 
				11.859,-10.666 11.859,-11.682 13.859,-15.129 14.74,-15.639 			"/>
			<polygon fill="none" stroke="#FFFFFF" stroke-width="0.1764" stroke-linecap="round" stroke-linejoin="round" points="
				12.902,-19.639 11.764,-18.986 7.992,-18.992 6.859,-19.648 4.462,-15.51 5.595,-14.854 7.475,-11.584 7.472,-10.273 
				12.255,-10.266 12.257,-11.576 14.149,-14.842 15.285,-15.492 			"/>
			
				<circle fill="none" stroke="#232020" stroke-width="0.25" stroke-linecap="round" stroke-linejoin="round" cx="9.872" cy="-15.138" r="0.266"/>
		</g>
	</g>
	<g>
		<circle fill="#FFFFFF" cx="312.718" cy="13.195" r="6.657"/>
		<g>
			<path fill="#2E3192" d="M314.559,7.76c-0.133,0-0.238-0.107-0.238-0.238c0-0.135,0.107-0.238,0.238-0.236
				c0.133,0,0.24,0.104,0.239,0.234C314.798,7.652,314.69,7.76,314.559,7.76z"/>
			<path fill="#2E3192" d="M317.537,9.928c-0.133,0-0.238-0.107-0.238-0.236c0-0.133,0.107-0.24,0.238-0.238
				c0.133,0,0.24,0.104,0.238,0.238C317.776,9.82,317.67,9.928,317.537,9.928z"/>
			<path fill="#2E3192" d="M316.931,9.217c-0.132,0-0.237-0.109-0.237-0.238c0-0.135,0.105-0.24,0.238-0.24
				c0.131,0.002,0.236,0.107,0.237,0.238C317.171,9.109,317.063,9.217,316.931,9.217z"/>
			<circle fill="#2E3192" cx="314.541" cy="8.784" r="0.237"/>
			<circle fill="#2E3192" cx="314.503" cy="10.093" r="0.239"/>
			<path fill="#2E3192" d="M315.365,9.465c-0.133,0-0.24-0.105-0.238-0.24c-0.001-0.129,0.107-0.238,0.238-0.238
				c0.133,0,0.236,0.107,0.236,0.24C315.603,9.357,315.496,9.463,315.365,9.465z"/>
			<path fill="#2E3192" d="M316.087,10.059c-0.13,0.002-0.239-0.107-0.239-0.236c0.001-0.135,0.108-0.24,0.241-0.24
				c0.13,0.002,0.239,0.105,0.239,0.238C316.328,9.951,316.221,10.059,316.087,10.059z"/>
			<path fill="#2E3192" d="M316.221,8.607c-0.131,0-0.24-0.105-0.24-0.238c0.001-0.131,0.108-0.238,0.242-0.238
				c0.129,0.002,0.234,0.107,0.234,0.238C316.459,8.502,316.354,8.607,316.221,8.607z"/>
			<circle fill="#2E3192" cx="315.422" cy="7.88" r="0.239"/>
			<path fill="#2E3192" d="M318.6,12.502c-0.129,0-0.236-0.109-0.235-0.24c-0.001-0.133,0.107-0.238,0.235-0.24
				c0.133,0.002,0.24,0.109,0.239,0.24C318.839,12.395,318.731,12.5,318.6,12.502z"/>
			<circle fill="#2E3192" cx="318.384" cy="11.352" r="0.238"/>
			<path fill="#2E3192" d="M318.674,13.436c-0.13-0.002-0.236-0.109-0.236-0.238c-0.002-0.135,0.105-0.24,0.238-0.24
				c0.129-0.002,0.236,0.107,0.236,0.238C318.912,13.328,318.805,13.436,318.674,13.436z"/>
			<path fill="#2E3192" d="M318.6,14.365c-0.13,0-0.237-0.105-0.236-0.238c0-0.131,0.106-0.24,0.235-0.236
				c0.133,0,0.24,0.104,0.239,0.238C318.838,14.258,318.73,14.365,318.6,14.365z"/>
			<path fill="#2E3192" d="M317.393,12.502c-0.133,0.002-0.241-0.105-0.24-0.24c0-0.129,0.107-0.236,0.24-0.236
				c0.128,0,0.235,0.105,0.237,0.238C317.629,12.395,317.521,12.504,317.393,12.502z"/>
			<circle fill="#2E3192" cx="317.119" cy="11.369" r="0.238"/>
			<path fill="#2E3192" d="M315.241,10.902c-0.13-0.002-0.237-0.109-0.236-0.238c0-0.135,0.106-0.24,0.239-0.24
				c0.129-0.002,0.238,0.107,0.238,0.238C315.482,10.795,315.375,10.902,315.241,10.902z"/>
			<path fill="#2E3192" d="M314.917,12.518c-0.134,0-0.24-0.105-0.239-0.238c0-0.133,0.107-0.236,0.238-0.236
				c0.133-0.002,0.237,0.104,0.236,0.238C315.152,12.41,315.047,12.518,314.917,12.518z"/>
			<circle fill="#2E3192" cx="314.399" cy="11.505" r="0.237"/>
			<circle fill="#2E3192" stroke="#29256A" stroke-width="0.5" stroke-miterlimit="10" cx="312.714" cy="13.187" r="0.237"/>
			<circle fill="#2E3192" cx="316.169" cy="12.268" r="0.238"/>
			<path fill="#2E3192" d="M315.811,11.643c-0.133,0-0.236-0.105-0.236-0.24c0-0.129,0.105-0.236,0.236-0.236
				c0.133,0,0.238,0.105,0.238,0.238C316.049,11.535,315.941,11.645,315.811,11.643z"/>
			<circle fill="#2E3192" cx="317.481" cy="13.193" r="0.238"/>
			<path fill="#2E3192" d="M316.291,13.43c-0.134,0-0.24-0.104-0.24-0.238c0-0.129,0.108-0.236,0.238-0.238
				c0.133,0,0.237,0.109,0.237,0.24C316.525,13.324,316.421,13.432,316.291,13.43z"/>
			<path fill="#2E3192" d="M317.391,14.363c-0.133,0-0.24-0.105-0.238-0.24c-0.001-0.129,0.107-0.234,0.238-0.236
				c0.13,0,0.236,0.105,0.236,0.238C317.627,14.256,317.52,14.361,317.391,14.363z"/>
			<circle fill="#2E3192" cx="315.096" cy="13.191" r="0.238"/>
			<path fill="#2E3192" d="M314.914,14.342c-0.131,0.002-0.238-0.105-0.24-0.238c0.002-0.131,0.108-0.236,0.242-0.236
				c0.129,0,0.236,0.105,0.236,0.238C315.152,14.234,315.047,14.344,314.914,14.342z"/>
			<circle fill="#2E3192" cx="316.167" cy="14.119" r="0.238"/>
			<circle fill="#2E3192" cx="316.676" cy="15.844" r="0.238"/>
			<circle fill="#2E3192" cx="317.533" cy="16.699" r="0.24"/>
			<path fill="#2E3192" d="M315.239,15.959c-0.134,0-0.237-0.104-0.237-0.238c0-0.131,0.105-0.236,0.236-0.236
				c0.133,0,0.239,0.104,0.239,0.238C315.477,15.854,315.369,15.959,315.239,15.959z"/>
			<path fill="#2E3192" d="M314.498,16.529c-0.133,0-0.239-0.107-0.238-0.238c-0.001-0.131,0.107-0.24,0.238-0.24
				c0.133,0,0.238,0.107,0.238,0.242C314.736,16.422,314.629,16.527,314.498,16.529z"/>
			<path fill="#2E3192" d="M316.082,16.805c-0.133-0.002-0.239-0.107-0.238-0.238c0-0.133,0.107-0.24,0.238-0.24
				c0.133,0,0.238,0.109,0.239,0.238C316.32,16.699,316.213,16.805,316.082,16.805z"/>
			<circle fill="#2E3192" cx="314.534" cy="17.599" r="0.237"/>
			<path fill="#2E3192" d="M314.549,19.1c-0.13,0.002-0.238-0.105-0.239-0.238c0.001-0.131,0.108-0.236,0.241-0.238
				c0.131,0,0.237,0.109,0.236,0.238C314.789,18.994,314.682,19.102,314.549,19.1z"/>
			<circle fill="#2E3192" cx="315.414" cy="18.505" r="0.237"/>
			<circle fill="#2E3192" cx="316.212" cy="18.017" r="0.239"/>
			<path fill="#2E3192" d="M315.359,17.395c-0.131,0.002-0.24-0.104-0.24-0.234c0-0.133,0.107-0.24,0.24-0.24
				c0.132,0,0.235,0.109,0.238,0.238C315.596,17.293,315.492,17.396,315.359,17.395z"/>
			<path fill="#2E3192" d="M316.924,17.648c-0.133,0-0.237-0.109-0.236-0.238c-0.001-0.131,0.105-0.238,0.235-0.24
				c0.133,0,0.239,0.107,0.239,0.242C317.162,17.541,317.057,17.648,316.924,17.648z"/>
			<circle fill="#2E3192" cx="318.021" cy="15.902" r="0.238"/>
			<circle fill="#2E3192" cx="314.396" cy="14.879" r="0.238"/>
			<circle fill="#2E3192" cx="315.808" cy="14.981" r="0.237"/>
			<circle fill="#2E3192" cx="317.117" cy="15.021" r="0.239"/>
			<path fill="#2E3192" d="M318.381,15.277c-0.133-0.002-0.238-0.107-0.239-0.242c0.001-0.131,0.108-0.236,0.237-0.236
				c0.134,0,0.24,0.107,0.24,0.238S318.514,15.277,318.381,15.277z"/>
			<circle fill="#2E3192" cx="318.025" cy="10.487" r="0.237"/>
			<path fill="#2E3192" d="M316.681,10.781c-0.133,0-0.239-0.105-0.239-0.238c0-0.131,0.109-0.24,0.238-0.238
				c0.133,0,0.237,0.105,0.237,0.24C316.916,10.674,316.813,10.781,316.681,10.781z"/>
			<path fill="#2E3192" d="M313.647,7.541c-0.13,0-0.237-0.109-0.236-0.238c0-0.135,0.105-0.238,0.238-0.236
				c0.13-0.004,0.237,0.104,0.239,0.234C313.889,7.434,313.781,7.539,313.647,7.541z"/>
			<path fill="#2E3192" d="M312.715,7.465c-0.131,0.004-0.235-0.105-0.234-0.236c-0.002-0.135,0.103-0.24,0.234-0.238
				c0.134,0,0.241,0.105,0.24,0.24C312.955,7.359,312.848,7.465,312.715,7.465z"/>
			<path fill="#2E3192" d="M311.783,7.539c-0.133,0-0.239-0.107-0.238-0.238c0-0.135,0.107-0.24,0.238-0.24
				c0.133,0.002,0.238,0.109,0.239,0.238C312.021,7.434,311.914,7.539,311.783,7.539z"/>
			<path fill="#2E3192" d="M310.873,7.756c-0.131,0-0.236-0.104-0.236-0.238c0-0.133,0.104-0.236,0.238-0.236
				c0.131,0,0.236,0.104,0.236,0.238C311.111,7.648,311.004,7.756,310.873,7.756z"/>
			<path fill="#2E3192" d="M313.645,8.752c-0.133,0-0.236-0.109-0.236-0.238c0-0.135,0.105-0.24,0.236-0.24
				c0.133,0.002,0.239,0.107,0.238,0.238C313.883,8.645,313.775,8.752,313.645,8.752z"/>
			<path fill="#2E3192" d="M312.715,8.658c-0.131,0-0.238-0.107-0.238-0.238c0.001-0.131,0.105-0.238,0.238-0.236
				c0.131,0,0.24,0.104,0.24,0.238C312.955,8.551,312.848,8.658,312.715,8.658z"/>
			<path fill="#2E3192" d="M313.641,9.975c-0.131,0-0.239-0.109-0.24-0.238c0.002-0.133,0.109-0.24,0.242-0.238
				c0.128,0,0.236,0.105,0.236,0.238C313.879,9.867,313.771,9.975,313.641,9.975z"/>
			<path fill="#2E3192" d="M312.714,9.852c-0.134,0-0.237-0.107-0.237-0.238c0-0.133,0.105-0.24,0.236-0.238
				c0.133,0,0.239,0.105,0.239,0.238C312.951,9.746,312.847,9.852,312.714,9.852z"/>
			<path fill="#2E3192" d="M311.783,8.752c-0.131,0-0.237-0.109-0.239-0.242c0.001-0.131,0.108-0.236,0.241-0.236
				c0.13,0,0.239,0.105,0.239,0.238C312.023,8.643,311.916,8.75,311.783,8.752z"/>
			<path fill="#2E3192" d="M310.891,9.021c-0.131,0-0.24-0.107-0.24-0.24c0.002-0.131,0.109-0.236,0.242-0.236
				c0.128-0.002,0.234,0.104,0.234,0.238C311.126,8.912,311.021,9.021,310.891,9.021z"/>
			<path fill="#2E3192" d="M311.789,9.973c-0.134,0-0.239-0.107-0.24-0.238c0.002-0.133,0.109-0.24,0.239-0.24
				c0.132,0.002,0.239,0.109,0.239,0.238C312.027,9.867,311.92,9.973,311.789,9.973z"/>
			<circle fill="#2E3192" cx="310.926" cy="10.091" r="0.239"/>
			<circle fill="#2E3192" cx="309.211" cy="8.363" r="0.238"/>
			<circle fill="#2E3192" cx="309.342" cy="9.813" r="0.239"/>
			<path fill="#2E3192" d="M308.499,9.211c-0.133-0.002-0.237-0.109-0.237-0.238c0-0.135,0.105-0.24,0.236-0.24
				c0.133-0.002,0.238,0.107,0.239,0.238C308.736,9.104,308.629,9.209,308.499,9.211z"/>
			<path fill="#2E3192" d="M307.89,9.92c-0.133,0-0.237-0.107-0.236-0.238c-0.001-0.131,0.105-0.238,0.235-0.236
				c0.133-0.002,0.24,0.104,0.239,0.238C308.129,9.813,308.021,9.92,307.89,9.92z"/>
			<circle fill="#2E3192" cx="310.008" cy="7.875" r="0.238"/>
			<circle fill="#2E3192" cx="310.066" cy="9.223" r="0.238"/>
			<path fill="#2E3192" d="M313.625,11.225c-0.131,0.002-0.24-0.104-0.239-0.238c-0.001-0.129,0.107-0.238,0.241-0.238
				c0.131,0,0.239,0.109,0.238,0.242C313.865,11.119,313.758,11.227,313.625,11.225z"/>
			<circle fill="#2E3192" cx="312.713" cy="10.805" r="0.238"/>
			<path fill="#2E3192" d="M311.8,11.227c-0.133,0-0.237-0.109-0.236-0.238c0-0.135,0.105-0.24,0.235-0.242
				c0.133,0.002,0.24,0.109,0.24,0.24C312.039,11.119,311.931,11.225,311.8,11.227z"/>
			<circle fill="#2E3192" cx="310.509" cy="12.276" r="0.239"/>
			<path fill="#2E3192" d="M311.025,11.742c-0.133-0.002-0.237-0.109-0.238-0.238c0.002-0.135,0.106-0.24,0.239-0.24
				c0.132,0,0.237,0.107,0.237,0.238C311.263,11.635,311.158,11.742,311.025,11.742z"/>
			<circle fill="#2E3192" cx="310.508" cy="14.101" r="0.239"/>
			<path fill="#2E3192" d="M309.256,12.502c-0.132-0.002-0.238-0.107-0.238-0.242c0-0.129,0.108-0.236,0.238-0.236
				c0.133,0,0.237,0.107,0.237,0.238C309.492,12.393,309.388,12.5,309.256,12.502z"/>
			<circle fill="#2E3192" cx="309.615" cy="11.399" r="0.239"/>
			<path fill="#2E3192" d="M306.822,12.492c-0.131,0-0.238-0.107-0.238-0.242c0-0.129,0.107-0.234,0.24-0.236
				c0.131,0,0.236,0.109,0.237,0.24C307.061,12.383,306.955,12.492,306.822,12.492z"/>
			<circle fill="#2E3192" cx="307.042" cy="11.344" r="0.238"/>
			<circle fill="#2E3192" cx="308.034" cy="12.256" r="0.238"/>
			<path fill="#2E3192" d="M308.305,11.6c-0.131,0-0.239-0.107-0.238-0.238c0-0.133,0.107-0.24,0.24-0.24
				c0.131,0.002,0.236,0.109,0.239,0.238C308.546,11.494,308.438,11.6,308.305,11.6z"/>
			<circle fill="#2E3192" cx="309.134" cy="13.188" r="0.238"/>
			<path fill="#2E3192" d="M309.256,14.354c-0.133-0.002-0.238-0.107-0.239-0.242c-0.001-0.129,0.107-0.236,0.238-0.236
				c0.133,0,0.237,0.107,0.236,0.238C309.492,14.244,309.389,14.354,309.256,14.354z"/>
			<path fill="#2E3192" d="M307.94,13.426c-0.134,0-0.237-0.109-0.237-0.238c0.002-0.133,0.105-0.24,0.238-0.238
				c0.131,0,0.237,0.105,0.237,0.238C308.182,13.32,308.073,13.426,307.94,13.426z"/>
			<path fill="#2E3192" d="M306.748,13.424c-0.131,0-0.239-0.107-0.238-0.236c-0.001-0.133,0.107-0.24,0.24-0.238
				c0.131-0.002,0.24,0.104,0.238,0.238C306.989,13.316,306.882,13.424,306.748,13.424z"/>
			<circle fill="#2E3192" cx="306.822" cy="14.118" r="0.239"/>
			<circle fill="#2E3192" cx="308.032" cy="14.116" r="0.237"/>
			<path fill="#2E3192" d="M310.184,10.896c-0.133,0.002-0.239-0.105-0.239-0.24c0.001-0.129,0.108-0.234,0.238-0.236
				c0.133,0,0.24,0.105,0.239,0.238C310.422,10.789,310.314,10.898,310.184,10.896z"/>
			<path fill="#2E3192" d="M310.326,13.426c-0.133,0-0.237-0.104-0.236-0.238c0-0.129,0.105-0.24,0.235-0.238
				c0.133,0,0.24,0.107,0.239,0.24C310.564,13.32,310.457,13.426,310.326,13.426z"/>
			<path fill="#2E3192" d="M313.622,15.635c-0.133,0-0.239-0.109-0.238-0.238c-0.001-0.135,0.106-0.24,0.237-0.24
				c0.133,0.002,0.239,0.107,0.24,0.238C313.859,15.527,313.752,15.633,313.622,15.635z"/>
			<path fill="#2E3192" d="M312.709,15.813c-0.133,0-0.237-0.105-0.236-0.238c0-0.129,0.105-0.238,0.235-0.238
				c0.134,0,0.239,0.109,0.239,0.238C312.947,15.707,312.84,15.814,312.709,15.813z"/>
			<path fill="#2E3192" d="M313.636,16.885c-0.133-0.002-0.239-0.105-0.239-0.238c0-0.131,0.108-0.238,0.238-0.238
				c0.131,0.002,0.237,0.105,0.237,0.238C313.871,16.781,313.764,16.885,313.636,16.885z"/>
			<path fill="#2E3192" d="M312.708,17.008c-0.132-0.002-0.237-0.107-0.235-0.242c-0.001-0.129,0.105-0.236,0.234-0.236
				c0.134,0,0.24,0.109,0.24,0.238C312.947,16.898,312.84,17.006,312.708,17.008z"/>
			<circle fill="#2E3192" cx="311.796" cy="15.393" r="0.238"/>
			<circle fill="#2E3192" cx="311.783" cy="16.645" r="0.238"/>
			<path fill="#2E3192" d="M310.922,16.525c-0.131-0.002-0.24-0.107-0.24-0.238c0-0.133,0.107-0.24,0.24-0.24
				c0.129,0.004,0.237,0.107,0.236,0.24C311.158,16.42,311.051,16.525,310.922,16.525z"/>
			<circle fill="#2E3192" cx="313.638" cy="17.87" r="0.239"/>
			<path fill="#2E3192" d="M312.706,18.201c-0.131-0.002-0.237-0.109-0.237-0.242c0.001-0.131,0.105-0.236,0.238-0.238
				c0.131,0,0.24,0.107,0.24,0.24C312.947,18.09,312.839,18.199,312.706,18.201z"/>
			<circle fill="#2E3192" cx="313.638" cy="19.08" r="0.238"/>
			<path fill="#2E3192" d="M312.705,19.393c-0.131-0.002-0.236-0.109-0.236-0.238c0-0.135,0.105-0.24,0.238-0.24
				c0.131,0,0.24,0.107,0.239,0.238C312.946,19.285,312.839,19.393,312.705,19.393z"/>
			<circle fill="#2E3192" cx="311.777" cy="17.868" r="0.239"/>
			<path fill="#2E3192" d="M310.883,17.834c-0.131,0-0.236-0.107-0.239-0.238c-0.001-0.131,0.107-0.24,0.24-0.238
				c0.128,0,0.237,0.107,0.237,0.238C311.121,17.729,311.013,17.834,310.883,17.834z"/>
			<path fill="#2E3192" d="M311.771,19.318c-0.129-0.002-0.236-0.109-0.236-0.238c0-0.135,0.105-0.238,0.238-0.24
				c0.134,0,0.239,0.107,0.24,0.238C312.012,19.211,311.904,19.318,311.771,19.318z"/>
			<path fill="#2E3192" d="M310.865,19.1c-0.131-0.002-0.239-0.109-0.24-0.238c0.002-0.135,0.109-0.24,0.242-0.24
				c0.129-0.002,0.235,0.107,0.234,0.238C311.101,18.992,310.996,19.098,310.865,19.1z"/>
			<circle fill="#2E3192" cx="308.743" cy="15.837" r="0.239"/>
			<path fill="#2E3192" d="M309.336,16.801c-0.132,0-0.237-0.109-0.238-0.238c0.002-0.135,0.105-0.24,0.238-0.24
				c0.133,0.002,0.238,0.107,0.238,0.238C309.572,16.693,309.469,16.799,309.336,16.801z"/>
			<path fill="#2E3192" d="M307.885,16.932c-0.133-0.002-0.236-0.109-0.237-0.238c0.001-0.135,0.105-0.24,0.237-0.24
				c0.133-0.002,0.238,0.107,0.238,0.238C308.123,16.824,308.015,16.93,307.885,16.932z"/>
			<circle fill="#2E3192" cx="307.396" cy="15.893" r="0.238"/>
			<circle fill="#2E3192" cx="309.204" cy="18.011" r="0.239"/>
			<path fill="#2E3192" d="M308.492,17.643c-0.133-0.002-0.237-0.109-0.236-0.238c0-0.133,0.103-0.24,0.235-0.242
				c0.133,0,0.239,0.109,0.239,0.242C308.73,17.535,308.623,17.641,308.492,17.643z"/>
			<path fill="#2E3192" d="M310.178,15.957c-0.13,0-0.236-0.107-0.236-0.238c-0.002-0.131,0.105-0.238,0.238-0.236
				c0.133,0,0.239,0.104,0.24,0.234C310.418,15.85,310.311,15.955,310.178,15.957z"/>
			<circle fill="#2E3192" cx="310.059" cy="17.154" r="0.238"/>
			<path fill="#2E3192" d="M310,18.74c-0.134,0-0.238-0.109-0.238-0.238c0.001-0.135,0.105-0.24,0.236-0.24
				c0.133,0.002,0.239,0.107,0.24,0.238C310.236,18.633,310.129,18.74,310,18.74z"/>
			<path fill="#2E3192" d="M311.021,15.115c-0.131,0-0.234-0.109-0.237-0.24c0.001-0.131,0.105-0.238,0.238-0.238
				c0.132,0,0.24,0.105,0.239,0.24C311.262,15.006,311.154,15.113,311.021,15.115z"/>
			<path fill="#2E3192" d="M308.301,15.252c-0.129-0.002-0.236-0.107-0.238-0.242c0-0.129,0.107-0.236,0.24-0.236
				c0.131,0,0.24,0.107,0.24,0.238C308.542,15.143,308.434,15.252,308.301,15.252z"/>
			<path fill="#2E3192" d="M307.038,15.266c-0.13,0.002-0.237-0.107-0.236-0.238c0-0.131,0.108-0.238,0.235-0.236
				c0.133,0,0.24,0.105,0.24,0.236C307.277,15.16,307.17,15.266,307.038,15.266z"/>
			<circle fill="#2E3192" cx="309.611" cy="14.976" r="0.237"/>
			<path fill="#2E3192" d="M307.4,10.715c-0.131,0.002-0.24-0.104-0.24-0.238c0.001-0.129,0.108-0.234,0.242-0.236
				c0.129,0,0.238,0.107,0.238,0.24C307.641,10.609,307.533,10.717,307.4,10.715z"/>
			<circle fill="#2E3192" cx="308.747" cy="10.536" r="0.237"/>
		</g>
	</g>
	<g>
		<g>
			<polygon fill="none" stroke="#232020" stroke-width="0.1764" stroke-linecap="round" stroke-linejoin="round" points="
				8.277,1.096 7.647,1.459 3.448,1.453 2.818,1.088 1.221,3.848 1.849,4.211 3.943,7.854 3.943,8.578 7.132,8.584 7.132,7.859 
				9.239,4.223 9.869,3.861 			"/>
			<polygon fill="none" stroke="#232020" stroke-width="0.1764" stroke-linecap="round" stroke-linejoin="round" points="
				8.423,0.551 7.542,1.059 3.555,1.055 2.674,0.545 0.677,3.994 1.558,4.504 3.543,7.961 3.543,8.975 7.53,8.982 7.53,7.967 
				9.529,4.52 10.411,4.008 			"/>
			<polygon fill="none" stroke="#FFFFFF" stroke-width="0.1764" stroke-linecap="round" stroke-linejoin="round" points="
				8.572,0.01 7.435,0.662 3.663,0.656 2.53,0 0.132,4.139 1.265,4.795 3.145,8.064 3.143,9.375 7.925,9.383 7.928,8.07 9.82,4.807 
				10.955,4.154 			"/>
			<path fill="none" stroke="#232020" stroke-width="0.25" stroke-linecap="round" stroke-linejoin="round" d="M5.809,4.512
				c0,0.146-0.12,0.264-0.266,0.264S5.276,4.658,5.276,4.51c0-0.15,0.12-0.264,0.266-0.264S5.809,4.363,5.809,4.512z"/>
		</g>
		<polygon fill="none" stroke="#242224" stroke-width="0.15" stroke-linecap="round" stroke-linejoin="round" points="3.448,1.453 
			1.849,4.211 3.943,7.854 7.132,7.859 9.239,4.223 7.542,1.459 		"/>
		<polygon fill="#232020" points="9.869,3.861 9.239,4.223 7.542,1.459 8.277,1.096 		"/>
		<polygon fill="#232020" points="1.849,4.211 1.221,3.848 2.847,1.043 3.448,1.453 		"/>
		<rect x="3.943" y="7.856" fill="#232020" width="3.188" height="0.725"/>
	</g>
</g>
<g id="LEGEND">
	<g id="NAVAID_2_">
		<g id="MTEXT_5_">
			<text transform="matrix(1 0 0 1 16.7358 -53.811)"><tspan x="0" y="0" font-family="'ArialMT'" font-size="6.3611">Compas Rose </tspan><tspan x="-11.671" y="7.634" font-family="'ArialMT'" font-size="6.3611">with True and Variation</tspan><tspan x="-0.531" y="15.267" font-family="'ArialMT'" font-size="6.3611">Magnetic North</tspan><tspan x="8.836" y="22.9" font-family="'ArialMT'" font-size="6.3611">Indicator</tspan></text>
		</g>
		<g id="MTEXT_3_">
			<text transform="matrix(1 0 0 1 333.1602 -2.0474)" font-family="'ArialMT'" font-size="8.3989">LF/MF NDB or</text>
			<text transform="matrix(1 0 0 1 333.1494 7.4688)" font-family="'ArialMT'" font-size="8.3989">Marine Radio Beacon</text>
		</g>
		<g id="MTEXT_2_">
			<text transform="matrix(1 0 0 1 190.3135 17.0078)" font-family="'ArialMT'" font-size="8.3989">VOR</text>
		</g>
		<g id="MTEXT_1_">
			<text transform="matrix(1 0 0 1 249.1914 17.1172)" font-family="'ArialMT'" font-size="8.3989">VOR/DME</text>
		</g>
		<g id="MTEXT_6_">
			<text transform="matrix(1 0 0 1 249.1914 52.8281)" font-family="'ArialMT'" font-size="8.3989">DME</text>
		</g>
	</g>
</g>
</svg>
